<svg width="18" height="27" viewBox="0 0 18 27" fill="none" xmlns="http://www.w3.org/2000/svg">
<path d="M16.439 0.93792C16.6812 1.15764 16.8733 1.41863 17.0044 1.70594C17.1355 1.99325 17.203 2.30124 17.203 2.61229C17.203 2.92334 17.1355 3.23134 17.0044 3.51865C16.8733 3.80596 16.6812 4.06695 16.439 4.28667L6.30251 13.5017L16.439 22.7167C16.9275 23.1607 17.2019 23.763 17.2019 24.391C17.2019 25.0191 16.9275 25.6214 16.439 26.0654C15.9505 26.5095 15.288 26.759 14.5972 26.759C13.9064 26.759 13.2439 26.5095 12.7554 26.0654L0.764006 15.1642C0.521818 14.9445 0.329676 14.6835 0.198576 14.3962C0.0674782 14.1088 -1.90735e-06 13.8008 -1.90735e-06 13.4898C-1.90735e-06 13.1787 0.0674782 12.8707 0.198576 12.5834C0.329676 12.2961 0.521818 12.0351 0.764006 11.8154L12.7554 0.914169C13.7481 0.0116693 15.4201 0.0116698 16.439 0.93792Z" fill="white"/>
</svg>
