<svg width="438" height="366" viewBox="0 0 438 366" fill="none" xmlns="http://www.w3.org/2000/svg">
<path d="M286.798 38.8013C257.85 38.8013 230.902 47.3627 208.348 62.0915C192.91 72.1732 172.937 72.2162 157.44 62.2245C142.764 52.7617 125.318 47.224 106.588 47.0958C53.7442 46.7344 10.5476 89.7733 10.7242 142.618C10.7947 163.738 17.7437 183.238 29.4477 198.996C36.6361 208.675 40.251 220.572 39.5418 232.608C39.5198 232.983 39.4993 233.359 39.4806 233.736C35.8583 306.461 96.1574 366.644 168.876 362.897C191.704 361.72 212.888 354.325 230.768 342.373C246.974 331.538 266.092 325.972 285.586 326.133C285.99 326.136 286.394 326.138 286.798 326.138C366.144 326.138 430.466 261.816 430.466 182.47C430.466 103.124 366.144 38.8013 286.798 38.8013Z" fill="url(#paint0_linear_3118_2535)"/>
<path d="M286.361 303.9C297.335 302.437 317.084 296.699 324.157 286.169C330.687 276.448 321.751 263.883 326.491 254.41C331.231 244.936 359.579 238.571 367.211 227.606C376.262 214.602 355.14 203.339 364.838 194.387C374.536 185.435 407.526 175.706 410.335 164.742C413.143 153.778 399.931 153.769 411.533 133.571C421.358 116.467 434.524 94.0315 422.614 84.2048C409.921 73.7325 394.137 91.2314 385.815 105.02C375.095 122.783 364.761 103.472 352.737 111.569C341.866 118.891 342.343 160.476 334.036 168.517C325.73 176.559 310.074 169.961 298.535 183.989C286.995 198.017 302.851 220.698 296.832 231.295C290.813 241.892 274.26 237.356 265.64 252.399C257.02 267.442 286.361 303.9 286.361 303.9Z" fill="url(#paint1_linear_3118_2535)"/>
<path d="M307.358 302.994C313.456 305.192 325.269 307.531 331.784 303.964C337.798 300.671 336.54 291.731 341.557 288.084C346.575 284.437 363.026 288.769 369.949 285.126C378.159 280.806 370.215 269.258 377.669 267.219C385.123 265.179 404.894 269.014 409.309 264.071C413.725 259.129 406.859 255.563 418.334 248.191C428.052 241.948 440.942 233.834 437.4 225.516C433.625 216.651 420.703 221.493 412.661 226.418C402.301 232.762 402.134 219.938 393.701 220.907C386.077 221.782 375.116 243.528 368.63 245.469C362.145 247.41 355.785 239.761 346.006 243.942C336.226 248.124 338.355 264.188 332.37 268.074C326.385 271.96 319.003 265.141 310.467 270.637C301.932 276.133 307.358 302.994 307.358 302.994Z" fill="url(#paint2_linear_3118_2535)"/>
<path d="M0.93999 189.939C-10.1213 234.023 80.099 258.433 79.6991 267.116C79.2992 275.798 32.9281 268.405 41.521 292.255C49.4843 314.352 121.808 325.381 175.711 302.355C177.271 301.688 217.113 237.525 190.82 198.277C164.526 159.032 154.035 224.645 141.287 222.51C128.537 220.374 159.307 140.419 133.763 122.232C107.294 103.389 96.968 161.159 84.5812 151.823C72.8471 142.979 69.3299 60.2967 35.8256 69.8609C34.6118 70.2067 33.3592 70.6739 32.064 71.2711L32.0492 71.2766L32.0487 71.2784C31.3634 71.594 30.6664 71.9462 29.9571 72.3365C-9.0491 93.7926 60.9265 183.127 44.2072 185.904C27.4893 188.684 6.54596 167.598 0.93999 189.939Z" fill="url(#paint3_linear_3118_2535)"/>
<path d="M146.47 312.533C146.47 312.533 121.102 241.242 94.8971 201.344C68.6924 161.446 44.5709 150.172 44.5709 150.172C44.5709 150.172 57.4856 167.912 67.2774 192.284C77.0693 216.656 82.0274 242.977 95.5389 266.357C115.979 301.727 146.47 312.533 146.47 312.533Z" fill="url(#paint4_linear_3118_2535)"/>
<path d="M136.292 314.173C136.292 314.173 111.415 267.403 89.1773 242.459C66.9395 217.516 49.079 212.181 49.079 212.181C49.079 212.181 59.8416 223.143 69.1214 239.017C78.4012 254.891 84.5331 272.611 96.2872 287.417C114.069 309.816 136.292 314.173 136.292 314.173Z" fill="url(#paint5_linear_3118_2535)"/>
<path d="M332.03 273.974C332.125 273.135 332.189 272.358 332.231 271.623C338.528 229.337 338.074 187.051 330.849 144.765C330.377 123.258 343.427 105.531 336.642 99.174C328.273 91.3327 311.865 106.61 290.664 106.388L290.661 106.399C245.962 99.0081 201.264 99.1619 156.565 106.879C155.811 106.903 155.028 106.944 154.209 107.008C132.103 108.728 115.569 92.4581 108.143 100.964C101.171 108.949 120.674 135.6 118.027 152.544L118.031 152.542C111.503 195.707 112.017 238.871 119.578 282.036L119.569 282.032C122.241 298.022 108.866 316.895 113.836 322.357C119.306 328.37 129.093 315.773 146.724 316.377C196.396 326.185 246.067 326.664 295.739 317.815L295.737 317.828C310.209 318.181 332.736 330.806 339.443 323.128C344.378 317.479 328.5 305.038 332.03 273.974Z" fill="white"/>
<path d="M332.03 273.974C332.125 273.135 332.189 272.358 332.231 271.623C338.528 229.337 338.074 187.051 330.849 144.765C330.377 123.258 343.427 105.531 336.642 99.174C328.273 91.3327 311.865 106.61 290.664 106.388L290.661 106.399C245.962 99.0081 201.264 99.1619 156.565 106.879C155.811 106.903 155.028 106.944 154.209 107.008C132.103 108.728 115.569 92.4581 108.143 100.964C101.171 108.949 120.674 135.6 118.027 152.544L118.031 152.542C111.503 195.707 112.017 238.871 119.578 282.036L119.569 282.032C122.241 298.022 108.866 316.895 113.836 322.357C119.306 328.37 129.093 315.773 146.724 316.377C196.396 326.185 246.067 326.664 295.739 317.815L295.737 317.828C310.209 318.181 332.736 330.806 339.443 323.128C344.378 317.479 328.5 305.038 332.03 273.974Z" fill="white"/>
<path d="M339.443 323.129C344.378 317.479 328.5 305.038 332.03 273.974C332.125 273.135 332.189 272.358 332.231 271.623C338.528 229.337 338.074 187.051 330.85 144.765C330.377 123.258 343.427 105.531 336.642 99.174C328.576 91.6164 313.041 105.533 292.945 106.351C302.015 126.433 330.225 198.929 296.377 259.854C258.999 327.136 131.515 302.477 119.569 282.032C122.241 298.022 108.866 316.895 113.837 322.358C119.306 328.37 129.093 315.773 146.724 316.377C196.396 326.185 246.067 326.664 295.739 317.816L295.737 317.828C310.21 318.181 332.736 330.806 339.443 323.129Z" fill="url(#paint6_linear_3118_2535)"/>
<path d="M225.79 93.9729L106.13 182.318C104.453 183.556 104.097 185.918 105.335 187.595L107.802 190.937C109.04 192.613 111.403 192.969 113.079 191.731L232.74 103.386C234.416 102.148 234.772 99.7856 233.534 98.1089L231.067 94.7674C229.829 93.0907 227.466 92.735 225.79 93.9729Z" fill="url(#paint7_linear_3118_2535)"/>
<path d="M229.211 114.794C228.199 111.728 226.687 108.757 224.645 105.991C224.645 105.991 224.622 105.976 224.584 105.951C224.526 105.868 224.471 105.785 224.413 105.702C212.556 88.8689 199.242 87.9153 186.378 92.3181C175.191 96.147 161.122 104.283 148.164 113.949C135.076 123.502 123.121 134.58 116.152 144.166C108.157 155.163 105.148 168.167 117.744 184.455C131.201 201.855 153.044 202.822 167.042 185.854C174.51 176.802 173.429 161.576 179.786 156.873C181.492 155.616 183.767 155.095 186.386 154.915C193.671 154.552 203.506 157.26 212.704 152.97C215.862 151.498 218.641 149.579 221.014 147.332C230.563 139.166 233.598 126.865 229.211 114.794Z" fill="url(#paint8_linear_3118_2535)"/>
<path d="M132.356 169.344C135.512 170.616 138.869 171.102 142.11 170.74C145.348 170.372 148.439 169.16 151.031 167.244C153.624 165.329 155.692 162.733 156.997 159.746C158.296 156.756 158.821 153.406 158.537 150.015C159.555 153.271 159.445 156.928 158.288 160.247C157.156 163.581 154.943 166.566 152.085 168.671C149.23 170.78 145.727 172.017 142.208 172.116C138.696 172.244 135.17 171.274 132.356 169.344Z" fill="#3D4166"/>
<path d="M139.349 175.212C139.221 175.307 139.041 175.28 138.946 175.152C138.852 175.024 138.879 174.843 139.007 174.749C139.135 174.654 139.315 174.681 139.41 174.809C139.504 174.937 139.477 175.118 139.349 175.212Z" fill="#3D4166"/>
<path d="M143.472 175.992C143.256 176.152 142.952 176.106 142.793 175.89C142.634 175.674 142.679 175.37 142.895 175.211C143.111 175.052 143.415 175.097 143.574 175.313C143.734 175.529 143.688 175.833 143.472 175.992Z" fill="#3D4166"/>
<path d="M147.59 175.804C147.319 176.005 146.936 175.947 146.736 175.676C146.536 175.405 146.594 175.023 146.865 174.823C147.136 174.623 147.518 174.68 147.718 174.951C147.918 175.222 147.861 175.604 147.59 175.804Z" fill="#3D4166"/>
<path d="M151.507 174.675C151.203 174.899 150.776 174.834 150.552 174.531C150.328 174.228 150.392 173.8 150.696 173.576C150.999 173.352 151.426 173.417 151.65 173.72C151.874 174.023 151.81 174.451 151.507 174.675Z" fill="#3D4166"/>
<path d="M155.032 172.669C154.717 172.902 154.273 172.835 154.04 172.52C153.808 172.205 153.875 171.761 154.19 171.528C154.505 171.296 154.949 171.363 155.181 171.678C155.414 171.993 155.347 172.437 155.032 172.669Z" fill="#3D4166"/>
<path d="M157.99 169.893C157.686 170.117 157.258 170.053 157.034 169.749C156.81 169.446 156.874 169.018 157.178 168.794C157.481 168.569 157.909 168.634 158.133 168.937C158.358 169.241 158.293 169.669 157.99 169.893Z" fill="#3D4166"/>
<path d="M160.224 166.481C159.953 166.681 159.57 166.624 159.369 166.352C159.168 166.08 159.226 165.697 159.498 165.497C159.77 165.296 160.152 165.354 160.353 165.625C160.554 165.897 160.496 166.28 160.224 166.481Z" fill="#3D4166"/>
<path d="M161.617 162.604C161.4 162.763 161.095 162.717 160.936 162.501C160.776 162.284 160.822 161.979 161.038 161.819C161.255 161.66 161.56 161.705 161.72 161.922C161.879 162.139 161.834 162.444 161.617 162.604Z" fill="#3D4166"/>
<path d="M162.087 158.432C161.958 158.527 161.777 158.5 161.682 158.371C161.587 158.242 161.614 158.061 161.743 157.966C161.871 157.871 162.053 157.898 162.148 158.027C162.243 158.155 162.216 158.337 162.087 158.432Z" fill="#3D4166"/>
<path d="M179.49 134.549C182.645 135.82 186.002 136.307 189.243 135.945C192.481 135.577 195.573 134.365 198.165 132.449C200.757 130.533 202.826 127.937 204.13 124.951C205.43 121.961 205.954 118.61 205.67 115.219C206.688 118.476 206.579 122.133 205.421 125.451C204.29 128.785 202.076 131.77 199.218 133.875C196.364 135.985 192.86 137.221 189.341 137.321C185.829 137.449 182.303 136.478 179.49 134.549Z" fill="#3D4166"/>
<path d="M186.482 140.415C186.354 140.51 186.174 140.482 186.079 140.354C185.985 140.226 186.012 140.046 186.14 139.951C186.268 139.857 186.448 139.884 186.543 140.012C186.637 140.14 186.61 140.32 186.482 140.415Z" fill="#3D4166"/>
<path d="M190.605 141.195C190.389 141.354 190.085 141.309 189.926 141.093C189.767 140.877 189.812 140.573 190.028 140.414C190.244 140.254 190.548 140.3 190.707 140.516C190.866 140.731 190.821 141.036 190.605 141.195Z" fill="#3D4166"/>
<path d="M194.722 141.008C194.451 141.208 194.069 141.15 193.869 140.879C193.669 140.608 193.726 140.226 193.997 140.026C194.268 139.826 194.651 139.883 194.851 140.155C195.051 140.426 194.993 140.808 194.722 141.008Z" fill="#3D4166"/>
<path d="M198.64 139.877C198.336 140.101 197.909 140.037 197.685 139.734C197.461 139.43 197.525 139.003 197.829 138.779C198.132 138.555 198.56 138.619 198.784 138.923C199.007 139.226 198.943 139.653 198.64 139.877Z" fill="#3D4166"/>
<path d="M202.165 137.872C201.85 138.105 201.406 138.038 201.173 137.723C200.94 137.408 201.007 136.964 201.322 136.731C201.637 136.499 202.081 136.565 202.314 136.88C202.547 137.196 202.48 137.64 202.165 137.872Z" fill="#3D4166"/>
<path d="M205.122 135.095C204.819 135.319 204.391 135.255 204.167 134.951C203.943 134.647 204.007 134.219 204.311 133.995C204.614 133.771 205.042 133.835 205.266 134.139C205.491 134.443 205.426 134.871 205.122 135.095Z" fill="#3D4166"/>
<path d="M207.358 131.684C207.086 131.885 206.703 131.827 206.502 131.555C206.302 131.283 206.359 130.9 206.631 130.7C206.903 130.499 207.286 130.557 207.486 130.829C207.687 131.1 207.629 131.483 207.358 131.684Z" fill="#3D4166"/>
<path d="M208.75 127.803C208.533 127.963 208.228 127.917 208.068 127.7C207.908 127.484 207.954 127.179 208.171 127.019C208.387 126.859 208.692 126.905 208.852 127.122C209.012 127.338 208.966 127.643 208.75 127.803Z" fill="#3D4166"/>
<path d="M209.22 123.636C209.091 123.731 208.909 123.703 208.814 123.575C208.719 123.446 208.747 123.265 208.875 123.169C209.004 123.074 209.185 123.102 209.281 123.231C209.376 123.359 209.348 123.541 209.22 123.636Z" fill="#3D4166"/>
<path d="M280.01 343.709C321.874 343.709 355.811 309.772 355.811 267.908C355.811 226.044 321.874 192.107 280.01 192.107C238.146 192.107 204.209 226.044 204.209 267.908C204.209 309.772 238.146 343.709 280.01 343.709Z" fill="url(#paint9_linear_3118_2535)"/>
<path d="M280.01 336.468C317.875 336.468 348.571 305.772 348.571 267.907C348.571 230.041 317.875 199.345 280.01 199.345C242.144 199.345 211.448 230.041 211.448 267.907C211.448 305.772 242.144 336.468 280.01 336.468Z" fill="white"/>
<path d="M296.991 334.347C297.248 334.282 297.503 334.212 297.759 334.143C298.014 334.075 298.269 334.008 298.523 333.937C298.957 333.815 299.389 333.688 299.819 333.558C299.895 333.535 299.972 333.513 300.048 333.49C328.137 324.918 348.571 298.801 348.571 267.907C348.571 230.042 317.875 199.346 280.01 199.346V267.907L220.634 302.188C236.081 328.942 266.837 341.344 295.448 334.722C295.525 334.705 295.602 334.685 295.68 334.667C296.117 334.564 296.555 334.459 296.991 334.347Z" fill="url(#paint10_linear_3118_2535)"/>
<path d="M281.664 217.428H278.356C278.306 217.428 278.266 217.387 278.266 217.337V205.264C278.266 205.214 278.306 205.174 278.356 205.174H281.664C281.714 205.174 281.754 205.214 281.754 205.264V217.337C281.754 217.387 281.714 217.428 281.664 217.428Z" fill="url(#paint11_linear_3118_2535)"/>
<path d="M256.203 223.365L253.338 225.019C253.295 225.044 253.24 225.029 253.215 224.986L247.178 214.53C247.153 214.487 247.168 214.432 247.211 214.407L250.076 212.753C250.119 212.728 250.174 212.743 250.199 212.786L256.236 223.242C256.261 223.285 256.246 223.34 256.203 223.365Z" fill="url(#paint12_linear_3118_2535)"/>
<path d="M237.121 241.235L235.467 244.1C235.442 244.143 235.387 244.158 235.344 244.133L224.888 238.097C224.845 238.072 224.83 238.017 224.855 237.973L226.509 235.108C226.534 235.065 226.589 235.05 226.632 235.075L237.088 241.112C237.131 241.137 237.146 241.192 237.121 241.235Z" fill="url(#paint13_linear_3118_2535)"/>
<path d="M229.531 266.254V269.563C229.531 269.612 229.491 269.653 229.441 269.653H217.368C217.318 269.653 217.277 269.612 217.277 269.563V266.254C217.277 266.205 217.318 266.164 217.368 266.164H229.441C229.491 266.164 229.531 266.205 229.531 266.254Z" fill="url(#paint14_linear_3118_2535)"/>
<path d="M235.467 291.713L237.121 294.578C237.146 294.621 237.131 294.676 237.088 294.701L226.632 300.738C226.589 300.763 226.534 300.748 226.509 300.705L224.855 297.84C224.83 297.797 224.845 297.742 224.888 297.717L235.344 291.68C235.387 291.655 235.442 291.67 235.467 291.713Z" fill="url(#paint15_linear_3118_2535)"/>
<path d="M253.338 310.795L256.203 312.449C256.246 312.474 256.261 312.529 256.236 312.572L250.199 323.028C250.174 323.071 250.119 323.086 250.076 323.061L247.211 321.407C247.168 321.382 247.153 321.327 247.178 321.284L253.215 310.828C253.24 310.785 253.295 310.77 253.338 310.795Z" fill="url(#paint16_linear_3118_2535)"/>
<path d="M278.356 318.385H281.664C281.714 318.385 281.754 318.426 281.754 318.476V330.549C281.754 330.599 281.714 330.639 281.664 330.639H278.356C278.306 330.639 278.266 330.599 278.266 330.549V318.476C278.266 318.426 278.306 318.385 278.356 318.385Z" fill="url(#paint17_linear_3118_2535)"/>
<path d="M303.816 312.449L306.681 310.795C306.724 310.77 306.78 310.785 306.804 310.828L312.841 321.284C312.866 321.327 312.851 321.382 312.808 321.407L309.943 323.061C309.9 323.086 309.845 323.071 309.82 323.028L303.783 312.572C303.758 312.529 303.773 312.474 303.816 312.449Z" fill="url(#paint18_linear_3118_2535)"/>
<path d="M322.899 294.578L324.553 291.713C324.578 291.67 324.633 291.655 324.676 291.68L335.132 297.717C335.175 297.741 335.19 297.796 335.165 297.84L333.511 300.705C333.486 300.748 333.431 300.763 333.388 300.738L322.931 294.701C322.888 294.676 322.874 294.621 322.899 294.578Z" fill="url(#paint19_linear_3118_2535)"/>
<path d="M330.488 269.563V266.254C330.488 266.205 330.529 266.164 330.578 266.164H342.652C342.702 266.164 342.742 266.205 342.742 266.254V269.563C342.742 269.613 342.702 269.653 342.652 269.653H330.578C330.529 269.653 330.488 269.612 330.488 269.563Z" fill="url(#paint20_linear_3118_2535)"/>
<path d="M309.438 264.924H283.023V270.892H309.438V264.924Z" fill="url(#paint21_linear_3118_2535)"/>
<path d="M282.285 227.033H277.734V266.941H282.285V227.033Z" fill="url(#paint22_linear_3118_2535)"/>
<path d="M324.553 244.1L322.899 241.235C322.874 241.192 322.888 241.137 322.931 241.112L333.388 235.075C333.431 235.05 333.486 235.065 333.511 235.108L335.165 237.973C335.19 238.017 335.175 238.072 335.132 238.097L324.676 244.133C324.633 244.158 324.578 244.143 324.553 244.1Z" fill="url(#paint23_linear_3118_2535)"/>
<path d="M306.681 225.019L303.816 223.365C303.773 223.34 303.758 223.285 303.783 223.242L309.82 212.786C309.845 212.743 309.9 212.728 309.943 212.753L312.808 214.407C312.851 214.432 312.866 214.487 312.841 214.53L306.804 224.986C306.78 225.029 306.724 225.044 306.681 225.019Z" fill="url(#paint24_linear_3118_2535)"/>
<path d="M280.01 274.768C283.799 274.768 286.871 271.696 286.871 267.907C286.871 264.117 283.799 261.046 280.01 261.046C276.22 261.046 273.149 264.117 273.149 267.907C273.149 271.696 276.22 274.768 280.01 274.768Z" fill="url(#paint25_linear_3118_2535)"/>
<path d="M78.0278 139.23L68.0985 151.743H78.3447V155.502H62.4761V152.161L72.3825 139.561H63.1385V135.846H78.0279L78.0278 139.23Z" fill="url(#paint26_linear_3118_2535)"/>
<path d="M162.072 28.4664L134.174 63.6241H162.962V74.1835H118.378V64.7974L146.21 29.3971H120.239V18.959H162.072V28.4664Z" fill="url(#paint27_linear_3118_2535)"/>
<path d="M95.6459 72.1082L76.1215 96.7138H96.2689V104.104H65.0659V97.5349L84.5453 72.7595H66.3684V65.4541H95.6459V72.1082Z" fill="url(#paint28_linear_3118_2535)"/>
<path d="M295.598 15.9034C290.63 21.0553 286.938 26.9678 284.514 33.2503C303.284 21.8128 328.099 23.9489 344.663 39.9205C361.227 55.8921 364.265 80.6122 353.519 99.7865C359.709 97.1355 365.483 93.2307 370.45 88.0788C390.381 67.4087 389.782 34.4953 369.112 14.5646C348.442 -5.36616 315.528 -4.76671 295.598 15.9034Z" fill="url(#paint29_linear_3118_2535)"/>
<path d="M123.772 365.399C125.648 367.681 125.766 358.241 131.522 354.919C140.69 349.628 156.88 361.668 175.615 355.463C193.704 349.472 198.295 329.648 190.007 320.004C179.829 308.16 185.531 336.902 171.825 342.808C158.119 348.714 149.043 340.918 133.116 346.085C119.361 350.547 122.088 363.35 123.772 365.399Z" fill="url(#paint30_linear_3118_2535)"/>
<path d="M132.729 324.315C132.733 324.315 132.738 324.315 132.743 324.315C133.508 324.316 134.152 323.744 134.22 322.982C135.66 306.846 135.794 272.645 146.874 274.547C160.011 276.8 141.87 331.235 141.87 331.235H141.775C141.039 334.03 137.27 336.159 132.729 336.159C127.66 336.159 124.651 333.507 124.651 330.237C124.651 326.967 127.66 324.315 132.729 324.315Z" fill="url(#paint31_linear_3118_2535)"/>
<path d="M140.957 305.623C141.344 331.941 148.038 345.908 174.026 340.19C186.969 337.342 192.797 314.128 184.24 293.165C175.684 272.202 158.8 259.269 146.531 264.277C134.261 269.286 140.727 289.951 140.957 305.623Z" fill="url(#paint32_linear_3118_2535)"/>
<path d="M131.381 254.048C131.381 264.066 139.503 274.477 149.522 274.477C159.541 274.477 167.663 264.066 167.663 254.048C167.663 244.029 159.541 240.553 149.522 240.553C139.503 240.553 131.381 244.029 131.381 254.048Z" fill="url(#paint33_linear_3118_2535)"/>
<path d="M155.884 241.109C155.884 241.109 158.808 244.194 161.776 246.901C163.079 248.089 166.789 251.366 167.408 251.149C168.752 250.677 170.287 236.105 168.462 235.078C166.636 234.051 155.884 241.109 155.884 241.109Z" fill="url(#paint34_linear_3118_2535)"/>
<path d="M162.242 246.431C162.965 247.796 166.633 250.342 167.175 250.152C168.352 249.738 169.902 235.74 168.098 236.076C165.174 236.619 161.188 244.439 162.242 246.431Z" fill="url(#paint35_linear_3118_2535)"/>
<path d="M143.16 241.109C143.16 241.109 140.237 244.194 137.268 246.901C135.965 248.089 132.255 251.366 131.637 251.149C130.293 250.677 128.757 236.105 130.583 235.078C132.408 234.051 143.16 241.109 143.16 241.109Z" fill="url(#paint36_linear_3118_2535)"/>
<path d="M136.802 246.431C136.08 247.796 132.411 250.342 131.87 250.152C130.693 249.738 129.143 235.74 130.946 236.076C133.87 236.619 137.857 244.439 136.802 246.431Z" fill="url(#paint37_linear_3118_2535)"/>
<path d="M160.895 255.454C160.422 254.919 159.792 254.567 159.116 254.344C158.437 254.129 157.687 254.053 156.95 254.191C156.583 254.261 156.222 254.375 155.884 254.54C155.55 254.711 155.238 254.922 154.969 255.173C154.436 255.682 154.059 256.317 153.917 257.011C154.501 256.609 155.02 256.251 155.551 255.983C155.819 255.853 156.084 255.741 156.353 255.648C156.623 255.56 156.897 255.49 157.177 255.439C157.736 255.332 158.324 255.309 158.939 255.322C159.557 255.337 160.194 255.393 160.895 255.454Z" fill="#3D4166"/>
<path d="M138.149 255.454C138.851 255.393 139.487 255.337 140.105 255.322C140.72 255.309 141.308 255.332 141.867 255.439C142.147 255.49 142.421 255.56 142.691 255.648C142.96 255.741 143.225 255.854 143.493 255.983C144.024 256.251 144.543 256.609 145.127 257.011C144.985 256.317 144.609 255.682 144.076 255.173C143.806 254.922 143.495 254.711 143.16 254.54C142.823 254.375 142.461 254.261 142.094 254.191C141.357 254.053 140.607 254.129 139.929 254.344C139.253 254.567 138.622 254.919 138.149 255.454Z" fill="#3D4166"/>
<path d="M149.063 264.722C149.062 264.932 149.073 265.109 149.09 265.299C149.108 265.486 149.128 265.672 149.159 265.856C149.218 266.225 149.301 266.591 149.416 266.95C149.646 267.664 150.01 268.369 150.581 268.906C150.865 269.174 151.197 269.391 151.553 269.543C151.909 269.7 152.29 269.771 152.663 269.806C153.416 269.861 154.148 269.73 154.838 269.518C154.929 269.49 154.98 269.393 154.952 269.302C154.925 269.215 154.834 269.164 154.747 269.185C154.073 269.345 153.377 269.414 152.719 269.321C152.392 269.267 152.071 269.185 151.787 269.034C151.501 268.888 151.245 268.694 151.029 268.46C150.594 267.992 150.321 267.378 150.162 266.736C150.082 266.415 150.03 266.083 150 265.75C149.983 265.583 149.976 265.416 149.972 265.249C149.968 265.086 149.97 264.908 149.981 264.765L149.981 264.756C149.999 264.503 149.809 264.283 149.556 264.264C149.302 264.246 149.082 264.437 149.064 264.69C149.063 264.7 149.063 264.712 149.063 264.722Z" fill="#3D4166"/>
<path d="M177.792 339.246C177.792 341.746 169.609 342.669 159.516 342.669C149.423 342.669 145.381 341.746 145.381 339.246C145.381 336.747 146.406 333.216 156.499 333.216C166.592 333.216 177.792 336.747 177.792 339.246Z" fill="url(#paint38_linear_3118_2535)"/>
<path d="M149.063 264.764C149.073 264.908 149.076 265.085 149.073 265.249C149.068 265.415 149.062 265.583 149.045 265.75C149.016 266.083 148.965 266.415 148.886 266.737C148.728 267.38 148.456 267.995 148.021 268.466C147.804 268.701 147.548 268.896 147.261 269.044C146.975 269.195 146.654 269.279 146.326 269.333C145.665 269.428 144.968 269.36 144.292 269.201C144.208 269.181 144.125 269.233 144.105 269.317C144.086 269.396 144.133 269.476 144.21 269.5C144.897 269.714 145.628 269.845 146.378 269.792C146.75 269.758 147.13 269.689 147.485 269.533C147.841 269.382 148.172 269.166 148.456 268.9C149.026 268.364 149.392 267.661 149.622 266.948C149.738 266.59 149.822 266.224 149.881 265.855C149.913 265.671 149.934 265.485 149.952 265.299C149.969 265.108 149.981 264.932 149.98 264.721C149.98 264.467 149.774 264.262 149.52 264.262C149.266 264.262 149.06 264.468 149.061 264.722C149.061 264.733 149.061 264.744 149.062 264.755L149.063 264.764Z" fill="#3D4166"/>
<path d="M155.884 316.28C155.884 327.118 162.558 339.435 170.792 339.435C179.025 339.435 185.7 330.649 185.7 319.811C185.7 308.973 179.025 300.187 170.792 300.187C162.558 300.187 155.884 305.442 155.884 316.28Z" fill="url(#paint39_linear_3118_2535)"/>
<path d="M139.255 329.616C139.259 329.616 139.264 329.616 139.269 329.616C140.034 329.617 140.678 329.045 140.746 328.282C142.186 312.146 142.32 277.946 153.4 279.847C166.537 282.101 148.396 336.536 148.396 336.536H148.301C147.565 339.331 143.796 341.459 139.255 341.459C134.186 341.459 131.177 338.808 131.177 335.538C131.177 332.267 134.186 329.616 139.255 329.616Z" fill="url(#paint40_linear_3118_2535)"/>
<path d="M149.522 265.24C148.183 265.24 144.646 262.699 145.517 261.681C146.413 260.635 152.631 260.635 153.527 261.681C154.399 262.699 150.862 265.24 149.522 265.24Z" fill="url(#paint41_linear_3118_2535)"/>
<path d="M312.959 104.602L318.348 85.4653L316.551 86.7154L330.925 87.0979L332.252 87.1332L332.4 84.5656L331.078 84.4481L316.755 83.1765C315.953 83.1052 315.231 83.6026 314.988 84.3352L314.958 84.4265L308.699 103.297L307.997 105.412L312.355 106.747L312.959 104.602Z" fill="#EFBC90"/>
<path d="M306.236 103.454C306.372 98.7574 310.469 86.7691 315.648 83.0859C318.724 80.8988 328.106 83.696 328.106 83.696L328.191 87.4131C328.191 87.4131 321.264 85.6394 319.243 89.5646C317.221 93.4898 315.071 104.549 312.521 106.01C310.273 107.297 306.175 105.565 306.236 103.454Z" fill="url(#paint42_linear_3118_2535)"/>
<path d="M337.913 86.8353C337.988 85.9257 336.718 84.7023 334.812 84.309C333.056 83.9464 331.752 84.8004 331.622 85.7131C331.334 87.7514 337.798 88.2423 337.913 86.8353Z" fill="#EFBC90"/>
<path d="M336.336 88.4284C336.155 88.7866 335.056 88.8011 333.768 88.2955C332.581 87.8293 331.981 87.0723 332.129 86.6946C332.459 85.8506 336.617 87.8745 336.336 88.4284Z" fill="#EFBC90"/>
<path d="M312.028 98.1697L314.989 102.444L323.167 96.7793L321.357 94.167L312.028 98.1697Z" fill="#EFBC90"/>
<path d="M322.158 86.481C318.301 88.084 315.286 90.9626 315.956 93.4977C316.584 95.8758 320.691 97.9127 325.055 97.123C329.649 96.2917 331.723 93.707 330.745 90.2189C329.707 86.5136 326.387 84.724 322.158 86.481Z" fill="#F4CAAB"/>
<path d="M324.538 92.8028C325.707 91.5385 325.553 89.8996 325.281 88.7128C325.009 87.526 323.85 85.8532 324.593 85.3383C325.337 84.8233 328.552 84.2204 330.986 88.6111C333.189 92.5859 331.746 96.0611 329.087 98.1782C326.761 100.03 323.169 99.5441 322.839 97.2892C322.508 95.0342 323.123 94.3333 324.538 92.8028Z" fill="#3D4166"/>
<path d="M323.349 93.467C322.614 93.611 322.115 94.2245 322.235 94.8371C322.355 95.4498 323.048 95.8299 323.784 95.6858C324.519 95.5418 325.018 94.9284 324.898 94.3157C324.778 93.703 324.084 93.323 323.349 93.467Z" fill="#F4CAAB"/>
<path d="M335.078 87.3867C333.03 87.3183 330.52 89.2979 330.435 91.8405C330.35 94.3831 332.722 96.5255 334.77 96.5939C336.818 96.6623 337.376 94.6176 337.461 92.075C337.546 89.5324 337.126 87.4551 335.078 87.3867Z" fill="#3D4166"/>
<path d="M263.01 92.7614L263.309 92.9744L284.705 108.236L288.47 110.922L282.217 118.538L278.85 115.368L262.508 99.9836L253.137 121.656L252.691 122.689L250.709 121.973L251.025 120.894L258.847 94.2015C258.93 93.923 259.062 93.642 259.24 93.3922C260.107 92.177 261.795 91.8946 263.01 92.7614Z" fill="#EFBC90"/>
<path d="M283.985 104.209C277.909 105.523 265.688 90.2465 260.949 90.9227C254.627 91.8248 250.94 116.783 250.94 116.783L256.554 118.478C256.554 118.478 261.274 103.01 262.223 102.532C263.429 101.925 276.087 119.418 283.617 120.186C289.464 120.782 293.371 113.922 293.371 113.922L283.985 104.209Z" fill="url(#paint43_linear_3118_2535)"/>
<path d="M241.616 122.041L243.579 121.688V121.689L250.755 118.896L250.755 118.954C250.755 118.954 250.844 120.185 252.336 120.414C253.435 120.582 254.147 120.288 254.446 120.122C254.517 120.056 254.576 120.019 254.608 120.019C255.088 120.018 255.478 120.801 255.48 121.769C255.48 122.087 255.438 122.384 255.366 122.641L255.368 123.984L241.064 124.009L241.062 122.649C241.061 122.333 241.301 122.069 241.616 122.041Z" fill="url(#paint44_linear_3118_2535)"/>
<path d="M258.209 96.5372L258.514 96.6711L285.218 108.369L289.452 110.224L284.982 118.937L281.005 116.58L257.952 102.912L241.259 124.96L240.58 125.856L238.822 124.674L239.395 123.707L254.87 97.6117C255.541 96.4764 256.97 95.9946 258.209 96.5372Z" fill="#EFBC90"/>
<path d="M285.187 104.554C279.182 108.326 261.284 93.3182 255.385 96.1566C250.625 98.4463 239.9 119.164 239.9 119.164L245.085 122.471C245.085 122.471 256.113 106.116 257.86 105.682C259.144 105.363 278.299 121.071 285.865 120.873C292.342 120.704 295.109 111.27 295.109 111.27L285.187 104.554Z" fill="url(#paint45_linear_3118_2535)"/>
<path d="M229.863 126.961L231.783 126.422L231.783 126.423L238.659 122.956L238.664 123.014C238.664 123.014 238.871 124.23 240.378 124.315C241.488 124.378 242.169 124.017 242.45 123.822C242.515 123.75 242.57 123.708 242.602 123.704C243.079 123.658 243.543 124.4 243.637 125.363C243.668 125.679 243.655 125.979 243.607 126.242L243.738 127.579L229.502 128.974L229.369 127.62C229.338 127.306 229.552 127.02 229.863 126.961Z" fill="url(#paint46_linear_3118_2535)"/>
<path d="M316.738 102.147C316.738 102.147 307.345 116.381 292.657 120.464C292.657 120.464 290.235 122.366 286.439 112.294C282.643 102.223 283.773 101.08 283.773 101.08C292.573 101.072 302.065 99.9498 312.769 96.874C312.769 96.874 314.191 100.638 316.738 102.147Z" fill="url(#paint47_linear_3118_2535)"/>
<path d="M307.671 101.746L298.045 119.521L300.072 118.696L285.902 115.099L284.615 114.772L283.906 117.246L285.171 117.651L299.096 122.104C299.863 122.349 300.677 122.022 301.075 121.36L301.123 121.279L311.54 103.955L312.688 102.046L308.732 99.7864L307.671 101.746Z" fill="#F4CAAB"/>
<path d="M314.05 104.369C312.866 108.998 306.086 119.71 300.126 122.206C296.587 123.689 287.943 119.083 287.943 119.083L288.689 115.377C288.689 115.377 295.164 118.684 298.046 115.241C300.928 111.8 305.876 100.667 308.732 99.7873C311.249 99.0126 314.582 102.289 314.05 104.369Z" fill="url(#paint48_linear_3118_2535)"/>
<path d="M279.006 114.112C278.755 114.989 279.761 116.437 281.552 117.196C283.204 117.895 284.65 117.312 284.955 116.442C285.637 114.5 279.394 112.755 279.006 114.112Z" fill="#F4CAAB"/>
<path d="M280.863 112.86C281.111 112.544 282.192 112.745 283.356 113.493C284.429 114.182 284.87 115.042 284.651 115.383C284.161 116.147 280.48 113.349 280.863 112.86Z" fill="#F4CAAB"/>
<path d="M322.218 56.712C322.759 56.1838 322.461 55.2637 321.712 55.1549L315.588 54.2651C315.291 54.222 315.034 54.0352 314.901 53.7658L312.163 48.2171C311.828 47.5386 310.86 47.5386 310.525 48.2171L307.787 53.7658C307.654 54.0352 307.397 54.222 307.1 54.2651L300.976 55.1549C300.228 55.2637 299.929 56.1838 300.47 56.712L304.901 61.0309C305.117 61.2406 305.215 61.5428 305.164 61.8389L304.118 67.9375C303.99 68.6833 304.773 69.2519 305.442 68.8998L310.919 66.0205C311.185 65.8807 311.503 65.8807 311.769 66.0205L317.245 68.8998C317.915 69.2519 318.698 68.6833 318.57 67.9375L317.524 61.8389C317.473 61.5428 317.571 61.2406 317.787 61.0309L322.218 56.712Z" fill="url(#paint49_linear_3118_2535)"/>
<path d="M284.65 78.4716C284.984 78.1455 284.799 77.5774 284.337 77.5102L280.556 76.9608C280.373 76.9341 280.214 76.8188 280.132 76.6524L278.441 73.2263C278.234 72.8074 277.637 72.8074 277.43 73.2263L275.739 76.6524C275.657 76.8188 275.498 76.9341 275.315 76.9608L271.534 77.5102C271.072 77.5774 270.887 78.1455 271.222 78.4716L273.957 81.1384C274.09 81.2679 274.151 81.4544 274.12 81.6372L273.474 85.4029C273.395 85.8634 273.878 86.2146 274.292 85.9972L277.673 84.2193C277.838 84.1329 278.034 84.1329 278.198 84.2193L281.58 85.9972C281.993 86.2146 282.477 85.8634 282.398 85.4029L281.752 81.6372C281.72 81.4544 281.781 81.2678 281.914 81.1384L284.65 78.4716Z" fill="url(#paint50_linear_3118_2535)"/>
<path d="M277.576 48.9754C277.772 48.784 277.664 48.4502 277.392 48.4108L275.172 48.0882C275.064 48.0726 274.971 48.0048 274.922 47.9071L273.929 45.8949C273.808 45.649 273.457 45.649 273.336 45.8949L272.342 47.9071C272.294 48.0048 272.201 48.0726 272.093 48.0882L269.873 48.4108C269.601 48.4502 269.493 48.784 269.689 48.9754L271.296 50.5416C271.374 50.6177 271.41 50.7272 271.391 50.8347L271.012 53.0463C270.965 53.3167 271.249 53.5229 271.492 53.3952L273.478 52.3511C273.575 52.3004 273.69 52.3004 273.787 52.3511L275.773 53.3952C276.016 53.5229 276.299 53.3167 276.253 53.0463L275.874 50.8347C275.855 50.7274 275.891 50.6178 275.969 50.5416L277.576 48.9754Z" fill="url(#paint51_linear_3118_2535)"/>
<defs>
<linearGradient id="paint0_linear_3118_2535" x1="10.7238" y1="200.932" x2="430.466" y2="200.932" gradientUnits="userSpaceOnUse">
<stop offset="0.2944" stop-color="#FDFBEF"/>
<stop offset="1" stop-color="#F6D9C9"/>
</linearGradient>
<linearGradient id="paint1_linear_3118_2535" x1="311.044" y1="209.228" x2="555.193" y2="109.996" gradientUnits="userSpaceOnUse">
<stop stop-color="#5EA88F"/>
<stop offset="1" stop-color="#556D80"/>
</linearGradient>
<linearGradient id="paint2_linear_3118_2535" x1="434.811" y1="213.464" x2="350.183" y2="273.378" gradientUnits="userSpaceOnUse">
<stop stop-color="#BCBF82"/>
<stop offset="1" stop-color="#5EA88F"/>
</linearGradient>
<linearGradient id="paint3_linear_3118_2535" x1="3.01763" y1="171.466" x2="120.223" y2="211.533" gradientUnits="userSpaceOnUse">
<stop stop-color="#BCBF82"/>
<stop offset="1" stop-color="#5EA88F"/>
</linearGradient>
<linearGradient id="paint4_linear_3118_2535" x1="10.1622" y1="157.49" x2="120.628" y2="255.599" gradientUnits="userSpaceOnUse">
<stop stop-color="#5EA88F"/>
<stop offset="1" stop-color="#556D80"/>
</linearGradient>
<linearGradient id="paint5_linear_3118_2535" x1="64.0186" y1="251.185" x2="138.633" y2="283.405" gradientUnits="userSpaceOnUse">
<stop stop-color="#5EA88F"/>
<stop offset="1" stop-color="#556D80"/>
</linearGradient>
<linearGradient id="paint6_linear_3118_2535" x1="226.561" y1="42.1283" x2="226.561" y2="567.702" gradientUnits="userSpaceOnUse">
<stop stop-color="white"/>
<stop offset="1" stop-color="#C9DDEC"/>
</linearGradient>
<linearGradient id="paint7_linear_3118_2535" x1="106.57" y1="189.268" x2="338.974" y2="17.673" gradientUnits="userSpaceOnUse">
<stop stop-color="#79BADA"/>
<stop offset="1" stop-color="#555EA3"/>
</linearGradient>
<linearGradient id="paint8_linear_3118_2535" x1="200.581" y1="185.037" x2="130.313" y2="89.8676" gradientUnits="userSpaceOnUse">
<stop offset="0.0291" stop-color="#FDF7E2"/>
<stop offset="1" stop-color="#FCE1AA"/>
</linearGradient>
<linearGradient id="paint9_linear_3118_2535" x1="204.209" y1="267.908" x2="355.811" y2="267.908" gradientUnits="userSpaceOnUse">
<stop stop-color="#79BADA"/>
<stop offset="1" stop-color="#555EA3"/>
</linearGradient>
<linearGradient id="paint10_linear_3118_2535" x1="203.969" y1="267.911" x2="356.033" y2="267.911" gradientUnits="userSpaceOnUse">
<stop stop-color="white"/>
<stop offset="1" stop-color="#FDF7E2"/>
</linearGradient>
<linearGradient id="paint11_linear_3118_2535" x1="278.266" y1="211.301" x2="281.754" y2="211.301" gradientUnits="userSpaceOnUse">
<stop stop-color="#555EA3"/>
<stop offset="1" stop-color="#51537A"/>
</linearGradient>
<linearGradient id="paint12_linear_3118_2535" x1="247.166" y1="218.886" x2="256.248" y2="218.886" gradientUnits="userSpaceOnUse">
<stop stop-color="#555EA3"/>
<stop offset="1" stop-color="#51537A"/>
</linearGradient>
<linearGradient id="paint13_linear_3118_2535" x1="224.843" y1="239.604" x2="237.133" y2="239.604" gradientUnits="userSpaceOnUse">
<stop stop-color="#555EA3"/>
<stop offset="1" stop-color="#51537A"/>
</linearGradient>
<linearGradient id="paint14_linear_3118_2535" x1="217.277" y1="267.909" x2="229.531" y2="267.909" gradientUnits="userSpaceOnUse">
<stop stop-color="#555EA3"/>
<stop offset="1" stop-color="#51537A"/>
</linearGradient>
<linearGradient id="paint15_linear_3118_2535" x1="224.843" y1="296.209" x2="237.133" y2="296.209" gradientUnits="userSpaceOnUse">
<stop stop-color="#555EA3"/>
<stop offset="1" stop-color="#51537A"/>
</linearGradient>
<linearGradient id="paint16_linear_3118_2535" x1="247.166" y1="316.928" x2="256.248" y2="316.928" gradientUnits="userSpaceOnUse">
<stop stop-color="#555EA3"/>
<stop offset="1" stop-color="#51537A"/>
</linearGradient>
<linearGradient id="paint17_linear_3118_2535" x1="278.266" y1="324.512" x2="281.754" y2="324.512" gradientUnits="userSpaceOnUse">
<stop stop-color="#555EA3"/>
<stop offset="1" stop-color="#51537A"/>
</linearGradient>
<linearGradient id="paint18_linear_3118_2535" x1="303.771" y1="316.928" x2="312.853" y2="316.928" gradientUnits="userSpaceOnUse">
<stop stop-color="#555EA3"/>
<stop offset="1" stop-color="#51537A"/>
</linearGradient>
<linearGradient id="paint19_linear_3118_2535" x1="322.886" y1="296.209" x2="335.177" y2="296.209" gradientUnits="userSpaceOnUse">
<stop stop-color="#555EA3"/>
<stop offset="1" stop-color="#51537A"/>
</linearGradient>
<linearGradient id="paint20_linear_3118_2535" x1="330.488" y1="267.909" x2="342.742" y2="267.909" gradientUnits="userSpaceOnUse">
<stop stop-color="#555EA3"/>
<stop offset="1" stop-color="#51537A"/>
</linearGradient>
<linearGradient id="paint21_linear_3118_2535" x1="283.023" y1="267.908" x2="309.438" y2="267.908" gradientUnits="userSpaceOnUse">
<stop stop-color="#79BADA"/>
<stop offset="1" stop-color="#555EA3"/>
</linearGradient>
<linearGradient id="paint22_linear_3118_2535" x1="280.01" y1="266.941" x2="280.01" y2="227.033" gradientUnits="userSpaceOnUse">
<stop stop-color="#79BADA"/>
<stop offset="1" stop-color="#555EA3"/>
</linearGradient>
<linearGradient id="paint23_linear_3118_2535" x1="322.886" y1="239.604" x2="335.177" y2="239.604" gradientUnits="userSpaceOnUse">
<stop stop-color="#555EA3"/>
<stop offset="1" stop-color="#51537A"/>
</linearGradient>
<linearGradient id="paint24_linear_3118_2535" x1="303.771" y1="218.886" x2="312.853" y2="218.886" gradientUnits="userSpaceOnUse">
<stop stop-color="#555EA3"/>
<stop offset="1" stop-color="#51537A"/>
</linearGradient>
<linearGradient id="paint25_linear_3118_2535" x1="273.149" y1="267.907" x2="286.871" y2="267.907" gradientUnits="userSpaceOnUse">
<stop stop-color="#555EA3"/>
<stop offset="1" stop-color="#51537A"/>
</linearGradient>
<linearGradient id="paint26_linear_3118_2535" x1="59.9251" y1="157.842" x2="164.774" y2="39.8873" gradientUnits="userSpaceOnUse">
<stop stop-color="#79BADA"/>
<stop offset="1" stop-color="#555EA3"/>
</linearGradient>
<linearGradient id="paint27_linear_3118_2535" x1="50.2985" y1="149.286" x2="155.147" y2="31.3308" gradientUnits="userSpaceOnUse">
<stop stop-color="#79BADA"/>
<stop offset="1" stop-color="#555EA3"/>
</linearGradient>
<linearGradient id="paint28_linear_3118_2535" x1="35.5958" y1="136.217" x2="140.445" y2="18.2623" gradientUnits="userSpaceOnUse">
<stop stop-color="#79BADA"/>
<stop offset="1" stop-color="#555EA3"/>
</linearGradient>
<linearGradient id="paint29_linear_3118_2535" x1="311.922" y1="67.4425" x2="380.448" y2="17.2649" gradientUnits="userSpaceOnUse">
<stop stop-color="#FCE1AA"/>
<stop offset="1" stop-color="#FCCE79"/>
</linearGradient>
<linearGradient id="paint30_linear_3118_2535" x1="189.454" y1="322.415" x2="90.9128" y2="403.123" gradientUnits="userSpaceOnUse">
<stop stop-color="#E57F54"/>
<stop offset="1" stop-color="#D8513E"/>
</linearGradient>
<linearGradient id="paint31_linear_3118_2535" x1="131.605" y1="303.652" x2="148.928" y2="307.589" gradientUnits="userSpaceOnUse">
<stop stop-color="#FCCE79"/>
<stop offset="1" stop-color="#E57F54"/>
</linearGradient>
<linearGradient id="paint32_linear_3118_2535" x1="139.555" y1="310.119" x2="216.092" y2="281.237" gradientUnits="userSpaceOnUse">
<stop stop-color="#E57F54"/>
<stop offset="1" stop-color="#D8513E"/>
</linearGradient>
<linearGradient id="paint33_linear_3118_2535" x1="149.522" y1="274.663" x2="149.522" y2="239.554" gradientUnits="userSpaceOnUse">
<stop stop-color="#FCCE79"/>
<stop offset="1" stop-color="#E57F54"/>
</linearGradient>
<linearGradient id="paint34_linear_3118_2535" x1="169.299" y1="243.068" x2="155.884" y2="243.068" gradientUnits="userSpaceOnUse">
<stop stop-color="#FCCE79"/>
<stop offset="1" stop-color="#E57F54"/>
</linearGradient>
<linearGradient id="paint35_linear_3118_2535" x1="168.922" y1="243.116" x2="162.069" y2="243.116" gradientUnits="userSpaceOnUse">
<stop stop-color="white"/>
<stop offset="1" stop-color="#FDF7E2"/>
</linearGradient>
<linearGradient id="paint36_linear_3118_2535" x1="129.746" y1="243.068" x2="143.16" y2="243.068" gradientUnits="userSpaceOnUse">
<stop stop-color="#FCCE79"/>
<stop offset="1" stop-color="#E57F54"/>
</linearGradient>
<linearGradient id="paint37_linear_3118_2535" x1="130.122" y1="243.116" x2="136.976" y2="243.116" gradientUnits="userSpaceOnUse">
<stop stop-color="white"/>
<stop offset="1" stop-color="#FDF7E2"/>
</linearGradient>
<linearGradient id="paint38_linear_3118_2535" x1="157.348" y1="330.988" x2="162.409" y2="341.002" gradientUnits="userSpaceOnUse">
<stop stop-color="#FCCE79"/>
<stop offset="1" stop-color="#E57F54"/>
</linearGradient>
<linearGradient id="paint39_linear_3118_2535" x1="159.359" y1="314.635" x2="180.141" y2="323.788" gradientUnits="userSpaceOnUse">
<stop stop-color="#FCCE79"/>
<stop offset="1" stop-color="#E57F54"/>
</linearGradient>
<linearGradient id="paint40_linear_3118_2535" x1="138.131" y1="308.953" x2="155.454" y2="312.89" gradientUnits="userSpaceOnUse">
<stop stop-color="#FCCE79"/>
<stop offset="1" stop-color="#E57F54"/>
</linearGradient>
<linearGradient id="paint41_linear_3118_2535" x1="149.522" y1="261.109" x2="149.522" y2="265.192" gradientUnits="userSpaceOnUse">
<stop stop-color="white"/>
<stop offset="1" stop-color="#FDF7E2"/>
</linearGradient>
<linearGradient id="paint42_linear_3118_2535" x1="324.841" y1="97.1452" x2="317.746" y2="94.6583" gradientUnits="userSpaceOnUse">
<stop stop-color="#79BADA"/>
<stop offset="1" stop-color="#555EA3"/>
</linearGradient>
<linearGradient id="paint43_linear_3118_2535" x1="293.356" y1="105.525" x2="250.92" y2="105.601" gradientUnits="userSpaceOnUse">
<stop stop-color="#555EA3"/>
<stop offset="1" stop-color="#51537A"/>
</linearGradient>
<linearGradient id="paint44_linear_3118_2535" x1="239.805" y1="121.453" x2="255.19" y2="121.453" gradientUnits="userSpaceOnUse">
<stop stop-color="white"/>
<stop offset="1" stop-color="#C9DDEC"/>
</linearGradient>
<linearGradient id="paint45_linear_3118_2535" x1="255.134" y1="98.9101" x2="268.85" y2="116.991" gradientUnits="userSpaceOnUse">
<stop stop-color="#555EA3"/>
<stop offset="1" stop-color="#51537A"/>
</linearGradient>
<linearGradient id="paint46_linear_3118_2535" x1="229.366" y1="125.965" x2="243.738" y2="125.965" gradientUnits="userSpaceOnUse">
<stop stop-color="white"/>
<stop offset="1" stop-color="#C9DDEC"/>
</linearGradient>
<linearGradient id="paint47_linear_3118_2535" x1="296.743" y1="97.7498" x2="308.758" y2="121.895" gradientUnits="userSpaceOnUse">
<stop stop-color="#79BADA"/>
<stop offset="1" stop-color="#555EA3"/>
</linearGradient>
<linearGradient id="paint48_linear_3118_2535" x1="293.924" y1="104.478" x2="306.406" y2="115.482" gradientUnits="userSpaceOnUse">
<stop stop-color="#79BADA"/>
<stop offset="1" stop-color="#555EA3"/>
</linearGradient>
<linearGradient id="paint49_linear_3118_2535" x1="341.473" y1="58.3574" x2="261.307" y2="58.3574" gradientUnits="userSpaceOnUse">
<stop stop-color="#FCCE79"/>
<stop offset="1" stop-color="#E57F54"/>
</linearGradient>
<linearGradient id="paint50_linear_3118_2535" x1="341.473" y1="79.4877" x2="261.308" y2="79.4877" gradientUnits="userSpaceOnUse">
<stop stop-color="#FCCE79"/>
<stop offset="1" stop-color="#E57F54"/>
</linearGradient>
<linearGradient id="paint51_linear_3118_2535" x1="341.473" y1="49.5722" x2="261.307" y2="49.5722" gradientUnits="userSpaceOnUse">
<stop stop-color="#FCCE79"/>
<stop offset="1" stop-color="#E57F54"/>
</linearGradient>
</defs>
</svg>
