<svg width="20" height="33" viewBox="0 0 20 33" fill="none" xmlns="http://www.w3.org/2000/svg">
<path d="M1.29388 1.07336C1.02349 1.34319 0.808981 1.6637 0.662619 2.01654C0.516256 2.36938 0.440918 2.74762 0.440918 3.12961C0.440918 3.5116 0.516256 3.88984 0.662619 4.24268C0.808981 4.59552 1.02349 4.91603 1.29388 5.18586L12.6105 16.5025L1.29388 27.8192C0.748529 28.3645 0.442153 29.1042 0.442153 29.8754C0.442153 30.6467 0.748529 31.3863 1.29388 31.9317C1.83923 32.477 2.57889 32.7834 3.35013 32.7834C4.12137 32.7834 4.86103 32.477 5.40638 31.9317L18.7939 18.5442C19.0643 18.2744 19.2788 17.9539 19.4251 17.601C19.5715 17.2482 19.6468 16.8699 19.6468 16.4879C19.6468 16.106 19.5715 15.7277 19.4251 15.3749C19.2788 15.022 19.0643 14.7015 18.7939 14.4317L5.40638 1.04419C4.29805 -0.0641412 2.43138 -0.0641405 1.29388 1.07336Z" fill="white"/>
</svg>
