<svg width="75" height="75" viewBox="0 0 75 75" fill="none" xmlns="http://www.w3.org/2000/svg">
<path d="M32.2654 24.4501C33.0774 24.8404 33.5938 25.6616 33.5938 26.5625V48.4375C33.5938 49.7319 32.5445 50.7813 31.2501 50.7813C29.9557 50.7813 28.9063 49.7319 28.9063 48.4375V31.439L24.9017 34.6427C23.8909 35.4513 22.416 35.2874 21.6074 34.2767C20.7988 33.2659 20.9627 31.791 21.9735 30.9824L29.786 24.7324C30.4895 24.1695 31.4533 24.0598 32.2654 24.4501Z" fill="white"/>
<path d="M39.608 26.8898C40.1397 25.2947 41.6324 24.2188 43.3138 24.2188H51.5626C52.857 24.2188 53.9063 25.2681 53.9063 26.5625C53.9063 27.8569 52.857 28.9063 51.5626 28.9063H43.8769L42.3144 33.5938H45.3126C50.0588 33.5938 53.9063 37.4413 53.9063 42.1875C53.9063 46.9337 50.0588 50.7813 45.3126 50.7813H39.0626C37.7682 50.7813 36.7188 49.7319 36.7188 48.4375C36.7188 47.1431 37.7682 46.0938 39.0626 46.0938H45.3126C47.47 46.0938 49.2188 44.3449 49.2188 42.1875C49.2188 40.0302 47.47 38.2813 45.3126 38.2813H41.2304C38.5642 38.2813 36.6815 35.6692 37.5247 33.1398L39.608 26.8898Z" fill="white"/>
<path opacity="0.5" fill-rule="evenodd" clip-rule="evenodd" d="M39.6124 5.23471C39.2221 4.42269 38.4009 3.90625 37.5 3.90625C35.2021 3.90625 32.9558 4.13731 30.7837 4.57821C15.449 7.691 3.90625 21.2449 3.90625 37.5C3.90625 56.0533 18.9467 71.0937 37.5 71.0937C56.0533 71.0937 71.0937 56.0533 71.0937 37.5C71.0937 23.7208 62.7981 11.8843 50.9384 6.70257C49.7522 6.18432 48.3705 6.72576 47.8523 7.9119C47.334 9.09804 47.8755 10.4797 49.0616 10.998C59.2757 15.4607 66.4062 25.6502 66.4062 37.5C66.4062 53.4645 53.4645 66.4062 37.5 66.4062C21.5355 66.4062 8.59375 53.4645 8.59375 37.5C8.59375 24.5298 17.1381 13.5507 28.9062 9.892V14.0625C28.9062 15.0579 29.5349 15.9447 30.4742 16.2741C31.4135 16.6036 32.4584 16.3039 33.0802 15.5266L39.3302 7.71413C39.893 7.01061 40.0027 6.04674 39.6124 5.23471Z" fill="white"/>
</svg>
