<svg width="70" height="83" viewBox="0 0 70 83" fill="none" xmlns="http://www.w3.org/2000/svg">
<path d="M62.1738 10.8873L60.6712 11.9862C60.6266 12.0188 60.617 12.0814 60.6496 12.126C60.6822 12.1706 60.7448 12.1804 60.7891 12.1476L62.2918 11.0488C62.3364 11.0162 62.346 10.9536 62.3134 10.9091C62.2808 10.8645 62.2184 10.8549 62.1738 10.8873Z" fill="#1D2A30"/>
<path d="M69.8411 5.27999L63.5461 9.88377C63.5015 9.91636 63.4917 9.97895 63.5243 10.0235C63.5569 10.0681 63.6195 10.0777 63.6641 10.0451L69.9591 5.44135C70.0037 5.40876 70.0135 5.34617 69.9809 5.30158C69.9483 5.25699 69.8857 5.2474 69.8411 5.27999Z" fill="#1D2A30"/>
<path d="M33.6684 0.29794V5.9093C33.6684 5.96449 33.7132 6.00928 33.7684 6.00928C33.8236 6.00928 33.8684 5.96449 33.8684 5.9093V0.29794C33.8684 0.242752 33.8236 0.197962 33.7684 0.197962C33.7132 0.197962 33.6684 0.242752 33.6684 0.29794Z" fill="#1D2A30"/>
<path d="M3.95076 8.08533L5.08301 9.66239C5.1152 9.70718 5.17769 9.71757 5.22252 9.68538C5.26735 9.65319 5.27766 9.5906 5.24541 9.54581L4.11322 7.96876C4.08105 7.92397 4.01856 7.91358 3.97373 7.94597C3.92882 7.97816 3.91858 8.04054 3.95076 8.08533Z" fill="#1D2A30"/>
<path d="M1.24972 4.32338L3.13336 6.947C3.16561 6.99199 3.22804 7.00219 3.27295 6.96999C3.31778 6.9378 3.32802 6.87541 3.29582 6.83042L1.41218 4.2068C1.38 4.16201 1.31751 4.15162 1.27268 4.18381C1.22777 4.216 1.21754 4.27859 1.24972 4.32338Z" fill="#1D2A30"/>
<path d="M5.43683 45.6973H7.76352C7.81874 45.6973 7.86349 45.6527 7.86349 45.5973C7.86349 45.5421 7.81874 45.4973 7.76352 45.4973H5.43683C5.38162 45.4973 5.33685 45.5421 5.33685 45.5973C5.33685 45.6527 5.38162 45.6973 5.43683 45.6973Z" fill="#1D2A30"/>
<path d="M0.0999779 45.6973H4.06894C4.12425 45.6973 4.16892 45.6527 4.16892 45.5973C4.16892 45.5421 4.12425 45.4973 4.06894 45.4973H0.0999779C0.0447557 45.4973 0 45.5421 0 45.5973C0 45.6527 0.0447557 45.6973 0.0999779 45.6973Z" fill="#1D2A30"/>
<path d="M11.128 73.9844L4.83717 78.4518C4.7921 78.4839 4.78156 78.5463 4.81351 78.5913C4.84545 78.6362 4.90793 78.6468 4.95292 78.6148L11.2437 74.1474C11.2888 74.1156 11.2993 74.053 11.2674 74.008C11.2355 73.9631 11.173 73.9524 11.128 73.9844Z" fill="#1D2A30"/>
<path d="M54.3754 76.322L60.1095 82.6182C60.1467 82.659 60.2099 82.662 60.2507 82.6248C60.2915 82.5876 60.2945 82.5245 60.2573 82.4836L54.5231 76.1873C54.4859 76.1464 54.4227 76.1436 54.382 76.1806C54.3412 76.2178 54.3382 76.2812 54.3754 76.322Z" fill="#1D2A30"/>
<path d="M53.1285 74.9552L53.8353 75.7315C53.8725 75.7723 53.9359 75.7753 53.9767 75.7381C54.0175 75.7009 54.0205 75.6377 53.9833 75.597L53.2762 74.8207C53.2392 74.7799 53.1759 74.7769 53.1351 74.8141C53.0943 74.8513 53.0913 74.9145 53.1285 74.9552Z" fill="#1D2A30"/>
<path d="M56.6241 45.6973H61.6882C61.7434 45.6973 61.7882 45.6527 61.7882 45.5973C61.7882 45.5421 61.7434 45.4973 61.6882 45.4973H56.6241C56.569 45.4973 56.5242 45.5421 56.5242 45.5973C56.5242 45.6527 56.569 45.6973 56.6241 45.6973Z" fill="#1D2A30"/>
<path d="M62.4128 28.8369L57.744 27.1495L58.2507 21.2062C58.4812 19.4174 57.2353 17.774 55.4505 17.5132L13.4217 11.3706C9.80871 10.8425 6.69744 13.9246 7.19147 17.5424L14.2251 69.0501C14.6394 72.084 17.2308 74.3457 20.2931 74.3457H46.4259C49.2715 74.3457 51.6745 72.2324 52.0382 69.41L57.1861 30.6669L62.4128 28.8369Z" fill="white"/>
<path d="M62.4126 28.837L62.5826 28.3669L58.2745 26.8099L58.7486 21.2487L58.2505 21.2063L58.7464 21.2701C58.7676 21.1057 58.778 20.9419 58.778 20.7798C58.7778 19.8484 58.4361 18.9766 57.8592 18.3045C57.2827 17.6325 56.4661 17.1562 55.5227 17.0186L13.4938 10.876C13.1969 10.8326 12.9025 10.8116 12.6124 10.8116C10.972 10.8114 9.47668 11.4844 8.39584 12.5652C7.3142 13.6453 6.63951 15.141 6.63959 16.7845C6.63959 17.0564 6.658 17.3319 6.69606 17.6101L13.7297 69.1178C14.1779 72.3994 16.9806 74.8455 20.2929 74.8457H46.4257C49.5229 74.8455 52.1379 72.5458 52.534 69.4741L52.5336 69.4761L57.6411 31.0373L62.5778 29.3089C62.7771 29.2391 62.9113 29.051 62.9125 28.8396C62.9135 28.6283 62.7813 28.4389 62.5826 28.3669L62.4126 28.837L62.2474 28.3653L57.0208 30.1951C56.8432 30.2573 56.7153 30.4147 56.6905 30.6012L51.5426 69.3443L51.5424 69.3463C51.2109 71.9191 49.0198 73.8461 46.4257 73.8459H20.2929C17.4808 73.8461 15.1004 71.7688 14.7202 68.9826L7.68662 17.4747C7.65474 17.2416 7.63937 17.0112 7.63937 16.7845C7.63951 15.4172 8.19884 14.1762 9.10246 13.2724C10.0069 12.3694 11.248 11.8114 12.6124 11.8114C12.8541 11.8114 13.1 11.8287 13.3492 11.8651L55.3782 18.0078C56.0764 18.1102 56.6735 18.4589 57.1006 18.9558C57.5269 19.4529 57.7782 20.0945 57.7782 20.7798C57.7782 20.8994 57.7704 21.0203 57.7548 21.1423L57.7524 21.1637L57.2457 27.1072C57.2265 27.3327 57.3609 27.5427 57.5739 27.6197L62.2426 29.3073L62.4126 28.837Z" fill="#1D2A30"/>
<path d="M36.859 10.0073H28.3621C24.8696 10.0073 22.1362 13.0146 22.4688 16.4911L26.7172 60.9095C27.0078 63.947 29.5592 66.2661 32.6105 66.2661C35.6619 66.2661 38.2133 63.947 38.5038 60.9095L42.7523 16.4911C43.0848 13.0146 40.3512 10.0073 36.859 10.0073Z" fill="#1D2A30"/>
<path d="M36.8586 10.0065V9.90651H28.3617C25.007 9.9067 22.341 12.6349 22.341 15.9174C22.341 16.1099 22.3502 16.3041 22.3688 16.4998L26.6173 60.9182C26.9128 64.007 29.5072 66.365 32.6101 66.3652C35.7131 66.365 38.3075 64.007 38.603 60.9182L42.8515 16.4998C42.8701 16.3041 42.8793 16.1097 42.8793 15.9174C42.8793 12.6349 40.2133 9.9067 36.8586 9.90651V10.0065V10.1065C38.4806 10.1065 39.9349 10.7657 40.9851 11.8221C42.0351 12.8784 42.6793 14.3311 42.6793 15.9174C42.6793 16.1035 42.6705 16.2913 42.6523 16.4806L38.4039 60.8992C38.1183 63.8852 35.6099 66.1653 32.6101 66.1653C29.6104 66.1653 27.102 63.8852 26.8164 60.8992L22.568 16.4806C22.5498 16.2913 22.541 16.1035 22.541 15.9174C22.541 14.3311 23.1852 12.8784 24.2352 11.8221C25.2854 10.7657 26.7396 10.1065 28.3617 10.1065H36.8586V10.0065Z" fill="#1D2A30"/>
<path d="M32.6109 68.9359C28.7578 68.9359 25.6343 72.0596 25.6343 75.9125C25.6343 79.7657 28.7578 82.8892 32.6109 82.8892C36.4641 82.8892 39.5876 79.7657 39.5876 75.9125C39.5876 72.0596 36.4641 68.9359 32.6109 68.9359Z" fill="#1D2A30"/>
<path d="M32.6103 68.937V68.837C28.702 68.8372 25.5337 72.0053 25.5337 75.9136C25.5337 79.8222 28.702 82.9902 32.6103 82.9902C36.5187 82.9902 39.687 79.8222 39.687 75.9136C39.687 72.0053 36.5187 68.8372 32.6103 68.837V68.937V69.037C34.5095 69.0372 36.2281 69.8066 37.4729 71.0511C38.7174 72.2958 39.487 74.0145 39.487 75.9136C39.487 77.813 38.7174 79.5314 37.4729 80.7764C36.2281 82.0209 34.5095 82.7903 32.6103 82.7903C30.7109 82.7903 28.9925 82.0209 27.7478 80.7764C26.5031 79.5314 25.7336 77.813 25.7336 75.9136C25.7336 74.0145 26.5031 72.2958 27.7478 71.0511C28.9925 69.8066 30.7109 69.037 32.6103 69.037V68.937Z" fill="#1D2A30"/>
<path d="M38.0829 8.62841H29.5859C26.0935 8.62841 23.3601 11.6357 23.6927 15.1122L27.9411 59.5306C28.2316 62.5681 30.7831 64.8872 33.8344 64.8872C36.8857 64.8872 39.4372 62.5681 39.7277 59.5306L43.9762 15.1122C44.3087 11.6357 41.5751 8.62841 38.0829 8.62841Z" fill="#E92330"/>
<path d="M38.0829 8.62757V8.5276H29.586C26.2313 8.5278 23.5653 11.256 23.5653 14.5385C23.5653 14.7308 23.5745 14.9252 23.5931 15.1209L27.8416 59.5393C28.1371 62.6281 30.7315 64.9863 33.8344 64.9863C36.9374 64.9863 39.5318 62.6281 39.8271 59.5393L44.0756 15.1207C44.0944 14.9252 44.1036 14.7308 44.1036 14.5385C44.1036 11.256 41.4376 8.5278 38.0829 8.5276V8.62757V8.72755C39.7049 8.72755 41.1592 9.3868 42.2094 10.4432C43.2594 11.4997 43.9036 12.952 43.9036 14.5385C43.9036 14.7246 43.8948 14.9124 43.8766 15.1019L39.6282 59.5203C39.3426 62.5063 36.8342 64.7864 33.8344 64.7864C30.8347 64.7864 28.3263 62.5063 28.0407 59.5203L23.7923 15.1019C23.7741 14.9124 23.7653 14.7246 23.7653 14.5385C23.7653 12.952 24.4095 11.4997 25.4595 10.4432C26.5097 9.3868 27.9639 8.72755 29.586 8.72755H38.0829V8.62757Z" fill="#1D2A30"/>
<path d="M33.8337 67.5587C29.9806 67.5587 26.8571 70.6824 26.8571 74.5354C26.8571 78.3885 29.9806 81.5122 33.8337 81.5122C37.6869 81.5122 40.8104 78.3885 40.8104 74.5354C40.8104 70.6824 37.6869 67.5587 33.8337 67.5587Z" fill="#E92330"/>
<path d="M33.8346 67.56V67.46C29.9262 67.4602 26.7579 70.6283 26.7579 74.5366C26.7579 78.4451 29.9262 81.6133 33.8346 81.6133C37.7429 81.6133 40.9112 78.4451 40.9112 74.5366C40.9112 70.6283 37.7429 67.4602 33.8346 67.46V67.56V67.6599C35.7338 67.6601 37.4524 68.4296 38.6971 69.6741C39.9416 70.9188 40.7113 72.6374 40.7113 74.5366C40.7113 76.436 39.9416 78.1544 38.6971 79.3993C37.4524 80.6439 35.7338 81.4133 33.8346 81.4135C31.9352 81.4133 30.2168 80.6439 28.972 79.3993C27.7273 78.1544 26.9579 76.436 26.9579 74.5366C26.9579 72.6374 27.7273 70.9188 28.972 69.6741C30.2168 68.4296 31.9352 67.6601 33.8346 67.6599V67.56Z" fill="#1D2A30"/>
</svg>
