<svg width="75" height="75" viewBox="0 0 75 75" fill="none" xmlns="http://www.w3.org/2000/svg">
<path d="M30.0234 4.74177C32.43 4.19465 34.9327 3.90625 37.4999 3.90625C56.0533 3.90625 71.0937 18.9467 71.0937 37.5C71.0937 56.0533 56.0533 71.0938 37.4999 71.0938C34.9327 71.0938 32.43 70.8054 30.0234 70.2582C28.7612 69.9713 27.9706 68.7154 28.2576 67.4532C28.5445 66.191 29.8004 65.4004 31.0626 65.6874C33.1305 66.1575 35.2847 66.4062 37.4999 66.4062C53.4644 66.4062 66.4062 53.4645 66.4062 37.5C66.4062 21.5355 53.4644 8.59375 37.4999 8.59375C35.2847 8.59375 33.1305 8.8425 31.0626 9.31263C29.8004 9.59959 28.5445 8.80899 28.2576 7.54679C27.9706 6.28458 28.7612 5.02873 30.0234 4.74177Z" fill="white"/>
<g opacity="0.5">
<path d="M22.8556 9.78665C23.5453 10.882 23.2164 12.3291 22.121 13.0188C18.4486 15.3312 15.3321 18.4476 13.0198 22.1201C12.3301 23.2154 10.883 23.5443 9.78763 22.8546C8.69226 22.1649 8.3634 20.7178 9.0531 19.6224C11.7391 15.3566 15.3576 11.7381 19.6234 9.05212C20.7188 8.36242 22.1659 8.69128 22.8556 9.78665Z" fill="white"/>
<path d="M9.78763 52.1438C10.883 51.4541 12.3301 51.783 13.0198 52.8783C15.3321 56.5508 18.4486 59.6672 22.121 61.9796C23.2164 62.6693 23.5453 64.1164 22.8556 65.2118C22.1659 66.3071 20.7188 66.636 19.6234 65.9463C15.3576 63.2603 11.7391 59.6418 9.0531 55.376C8.3634 54.2806 8.69226 52.8335 9.78763 52.1438Z" fill="white"/>
</g>
<path opacity="0.3" d="M9.31263 31.0621C9.59959 29.7999 8.80899 28.544 7.54679 28.2571C6.28458 27.9701 5.02873 28.7607 4.74177 30.0229C4.19465 32.4295 3.90625 34.9322 3.90625 37.4994C3.90625 40.0667 4.19465 42.5694 4.74177 44.976C5.02873 46.2382 6.28458 47.0288 7.54679 46.7418C8.80899 46.4549 9.59959 45.199 9.31263 43.9368C8.8425 41.8689 8.59375 39.7146 8.59375 37.4994C8.59375 35.2842 8.8425 33.13 9.31263 31.0621Z" fill="white"/>
<path d="M48.1678 34.1907C50.6107 35.6331 50.6108 39.3669 48.1678 40.8093L33.4172 49.5182C31.0428 50.92 28.125 49.0954 28.125 46.2089L28.125 28.7911C28.125 25.9046 31.0428 24.08 33.4172 25.4818L48.1678 34.1907Z" fill="white"/>
</svg>
