<svg width="75" height="75" viewBox="0 0 75 75" fill="none" xmlns="http://www.w3.org/2000/svg">
<path d="M32.2654 24.4501C33.0774 24.8404 33.5938 25.6616 33.5938 26.5625V48.4375C33.5938 49.7319 32.5445 50.7813 31.2501 50.7813C29.9557 50.7813 28.9063 49.7319 28.9063 48.4375V31.439L24.9017 34.6427C23.8909 35.4513 22.416 35.2874 21.6074 34.2767C20.7988 33.2659 20.9627 31.791 21.9735 30.9824L29.786 24.7324C30.4895 24.1695 31.4533 24.0598 32.2654 24.4501Z" fill="white"/>
<path d="M39.608 26.8898C40.1397 25.2947 41.6324 24.2188 43.3138 24.2188H51.5626C52.857 24.2188 53.9063 25.2681 53.9063 26.5625C53.9063 27.8569 52.857 28.9063 51.5626 28.9063H43.8769L42.3144 33.5938H45.3126C50.0588 33.5938 53.9063 37.4413 53.9063 42.1875C53.9063 46.9337 50.0588 50.7813 45.3126 50.7813H39.0626C37.7682 50.7813 36.7188 49.7319 36.7188 48.4375C36.7188 47.1431 37.7682 46.0938 39.0626 46.0938H45.3126C47.47 46.0938 49.2188 44.3449 49.2188 42.1875C49.2188 40.0302 47.47 38.2813 45.3126 38.2813H41.2304C38.5642 38.2813 36.6815 35.6692 37.5246 33.1398L39.608 26.8898Z" fill="white"/>
<path opacity="0.5" fill-rule="evenodd" clip-rule="evenodd" d="M35.3876 5.23471C35.7779 4.42269 36.599 3.90625 37.5 3.90625C39.7979 3.90625 42.0442 4.13731 44.2162 4.57821C59.551 7.691 71.0938 21.2449 71.0938 37.5C71.0938 56.0533 56.0533 71.0938 37.5 71.0938C18.9467 71.0938 3.90625 56.0533 3.90625 37.5C3.90625 23.7208 12.2019 11.8843 24.0616 6.70257C25.2478 6.18432 26.6295 6.72576 27.1477 7.9119C27.666 9.09805 27.1245 10.4797 25.9384 10.998C15.7243 15.4607 8.59375 25.6502 8.59375 37.5C8.59375 53.4645 21.5355 66.4062 37.5 66.4062C53.4645 66.4062 66.4062 53.4645 66.4062 37.5C66.4062 24.5298 57.8619 13.5507 46.0938 9.892V14.0625C46.0938 15.0579 45.465 15.9447 44.5258 16.2741C43.5865 16.6036 42.5416 16.3039 41.9198 15.5266L35.6698 7.71413C35.107 7.01061 34.9973 6.04674 35.3876 5.23471Z" fill="white"/>
</svg>
