<svg width="100" height="100" viewBox="0 0 100 100" fill="none" xmlns="http://www.w3.org/2000/svg">
<path d="M50 0.192108C22.5349 0.192108 0.192668 22.5353 0.192668 49.9995C0.192668 77.4636 22.5349 99.8073 50 99.8073C77.4652 99.8073 99.8073 77.4636 99.8073 49.9995C99.8073 22.5353 77.4652 0.192108 50 0.192108ZM50 100C36.6449 100 24.0868 94.7991 14.6432 85.3555C5.19953 75.9116 0 63.3551 0 49.9995C0 36.6438 5.19953 24.0875 14.6432 14.6437C24.0868 5.19897 36.6449 -0.000556946 50 -0.000556946C63.3552 -0.000556946 75.9106 5.19897 85.3568 14.6437C94.8005 24.0875 100 36.6438 100 49.9995C100 63.3551 94.8005 75.9116 85.3568 85.3555C75.9106 94.7991 63.3552 100 50 100Z" fill="#3D76E1"/>
<path d="M51.6389 11.5359H48.3608V3.81868H51.6389V11.5359Z" fill="#7BA2EC"/>
<path d="M55.656 11.9131L52.3938 11.5742L53.1909 3.89789L56.4531 4.23838L55.656 11.9131Z" fill="#7BA2EC"/>
<path d="M59.6074 12.7083L56.3979 12.0294L57.9948 4.47848L61.2042 5.15943L59.6074 12.7083Z" fill="#7BA2EC"/>
<path d="M63.4503 13.9146L60.3306 12.9016L62.7139 5.56335L65.8336 6.57425L63.4503 13.9146Z" fill="#7BA2EC"/>
<path d="M67.1425 15.5186L64.1494 14.183L67.2903 7.13648L70.2859 8.47198L67.1425 15.5186Z" fill="#7BA2EC"/>
<path d="M70.6503 17.5017L67.813 15.8595L71.677 9.17928L74.5143 10.8231L70.6503 17.5017Z" fill="#7BA2EC"/>
<path d="M73.9338 19.842L71.2812 17.9124L75.8209 11.6732L78.4735 13.6029L73.9338 19.842Z" fill="#7BA2EC"/>
<path d="M76.9532 22.512L74.5171 20.3168L79.6823 14.5839L82.1184 16.779L76.9532 22.512Z" fill="#7BA2EC"/>
<path d="M79.6821 25.4812L77.4888 23.0445L83.2188 17.8798L85.4148 20.3162L79.6821 25.4812Z" fill="#7BA2EC"/>
<path d="M82.0866 28.7183L80.1572 26.0665L86.3967 21.526L88.326 24.1778L82.0866 28.7183Z" fill="#7BA2EC"/>
<path d="M84.1402 32.1873L82.4985 29.3483L89.1761 25.4841L90.8178 28.323L84.1402 32.1873Z" fill="#7BA2EC"/>
<path d="M85.816 35.8506L84.4805 32.8554L91.5276 29.713L92.8631 32.7082L85.816 35.8506Z" fill="#C8D8FA"/>
<path d="M87.0989 39.6689L86.0854 36.5498L93.4255 34.1667L94.4364 37.2859L87.0989 39.6689Z" fill="#C8D8FA"/>
<path d="M87.9698 43.6006L87.2915 40.3922L94.8401 38.7954L95.5184 42.0038L87.9698 43.6006Z" fill="#C8D8FA"/>
<path d="M88.4238 47.6047L88.0859 44.3428L95.7612 43.5452L96.099 46.8071L88.4238 47.6047Z" fill="#C8D8FA"/>
<path d="M96.1809 51.6392H88.4634V48.3595H96.1809V51.6392Z" fill="#C8D8FA"/>
<path d="M95.7612 56.4536L88.0859 55.6562L88.4238 52.3943L96.099 53.1916L95.7612 56.4536Z" fill="#C8D8FA"/>
<path d="M94.8401 61.2034L87.2915 59.6066L87.9698 56.3982L95.5184 57.995L94.8401 61.2034Z" fill="#C8D8FA"/>
<path d="M93.4255 65.8323L86.0854 63.4492L87.0989 60.33L94.4364 62.7131L93.4255 65.8323Z" fill="#C8D8FA"/>
<path d="M91.5276 70.2859L84.4805 67.1435L85.816 64.1483L92.8631 67.2905L91.5276 70.2859Z" fill="#C8D8FA"/>
<path d="M89.1761 74.5144L82.4985 70.6504L84.1402 67.8115L90.8178 71.6758L89.1761 74.5144Z" fill="#C8D8FA"/>
<path d="M86.3967 78.4727L80.1572 73.9322L82.0866 71.2807L88.326 75.8211L86.3967 78.4727Z" fill="#C8D8FA"/>
<path d="M83.219 82.1189L77.4863 76.9539L79.6823 74.5173L85.415 79.6822L83.219 82.1189Z" fill="#C8D8FA"/>
<path d="M79.6823 85.4153L74.5171 79.6823L76.9532 77.4872L82.1184 83.2201L79.6823 85.4153Z" fill="#C8D8FA"/>
<path d="M75.8209 88.3257L71.2812 82.0868L73.9338 80.1571L78.4735 86.3958L75.8209 88.3257Z" fill="#C8D8FA"/>
<path d="M71.677 90.8184L67.813 84.1392L70.6503 82.4967L74.5143 89.1761L71.677 90.8184Z" fill="#C8D8FA"/>
<path d="M67.2903 92.8635L64.1494 85.8162L67.1425 84.4807L70.2859 91.528L67.2903 92.8635Z" fill="#C8D8FA"/>
<path d="M62.7139 94.4365L60.3306 87.0973L63.4503 86.0845L65.8336 93.4238L62.7139 94.4365Z" fill="#C8D8FA"/>
<path d="M57.9948 95.5193L56.3979 87.9691L59.6074 87.2906L61.2042 94.8407L57.9948 95.5193Z" fill="#C8D8FA"/>
<path d="M53.1909 96.0996L52.3938 88.4244L55.656 88.0855L56.4531 95.7607L53.1909 96.0996Z" fill="#C8D8FA"/>
<path d="M51.6389 96.1799H48.3608V88.463H51.6389V96.1799Z" fill="#C8D8FA"/>
<path d="M46.8062 96.0996L43.5466 95.7607L44.3437 88.0855L47.606 88.4244L46.8062 96.0996Z" fill="#C8D8FA"/>
<path d="M42.0053 95.5193L38.7959 94.8404L40.3927 87.2906L43.6022 87.9694L42.0053 95.5193Z" fill="#C8D8FA"/>
<path d="M37.2862 94.4365L34.1665 93.4238L36.5498 86.0845L39.6696 87.0973L37.2862 94.4365Z" fill="#C8D8FA"/>
<path d="M32.7095 92.8635L29.7139 91.528L32.8547 84.4807L35.8504 85.8162L32.7095 92.8635Z" fill="#C8D8FA"/>
<path d="M28.3229 90.8184L25.4856 89.1761L29.3496 82.4967L32.1869 84.1392L28.3229 90.8184Z" fill="#C8D8FA"/>
<path d="M24.1792 88.3257L21.5266 86.3958L26.0663 80.1571L28.7189 82.0868L24.1792 88.3257Z" fill="#C8D8FA"/>
<path d="M20.315 85.4153L17.8789 83.2201L23.0441 77.4872L25.4803 79.6823L20.315 85.4153Z" fill="#C8D8FA"/>
<path d="M16.7783 82.1189L14.585 79.6825L20.3176 74.5173L22.5109 76.9539L16.7783 82.1189Z" fill="#C8D8FA"/>
<path d="M13.6032 78.4727L11.6738 75.8211L17.9133 71.2807L19.8426 73.9324L13.6032 78.4727Z" fill="#C8D8FA"/>
<path d="M10.824 74.5146L9.17969 71.676L15.8599 67.8115L17.5016 70.6501L10.824 74.5146Z" fill="#C8D8FA"/>
<path d="M8.46981 70.2859L7.13428 67.2907L14.184 64.1481L15.5195 67.1435L8.46981 70.2859Z" fill="#C8D8FA"/>
<path d="M6.57456 65.8323L5.56104 62.7131L12.9011 60.33L13.9146 63.4492L6.57456 65.8323Z" fill="#C8D8FA"/>
<path d="M5.15732 61.2036L4.479 57.9949L12.0302 56.3979L12.7085 59.6065L5.15732 61.2036Z" fill="#C8D8FA"/>
<path d="M4.23893 56.4536L3.89844 53.1916L11.5737 52.3943L11.9142 55.6562L4.23893 56.4536Z" fill="#C8D8FA"/>
<path d="M11.5366 51.6392H3.81909V48.3595H11.5366V51.6392Z" fill="#C8D8FA"/>
<path d="M11.5737 47.6047L3.89844 46.8071L4.23893 43.5452L11.9142 44.3425L11.5737 47.6047Z" fill="#C8D8FA"/>
<path d="M12.0302 43.6006L4.479 42.0038L5.15732 38.7951L12.7085 40.3922L12.0302 43.6006Z" fill="#C8D8FA"/>
<path d="M12.9011 39.6689L5.56104 37.2859L6.57456 34.1667L13.9146 36.5495L12.9011 39.6689Z" fill="#C8D8FA"/>
<path d="M14.184 35.8506L7.13428 32.7082L8.46981 29.7128L15.5195 32.8554L14.184 35.8506Z" fill="#C8D8FA"/>
<path d="M15.8599 32.1873L9.17969 28.3225L10.824 25.4838L17.5016 29.3486L15.8599 32.1873Z" fill="#C8D8FA"/>
<path d="M17.9133 28.7183L11.6738 24.1778L13.6032 21.526L19.8426 26.0665L17.9133 28.7183Z" fill="#C8D8FA"/>
<path d="M20.3176 25.4812L14.585 20.316L16.7783 17.8796L22.5109 23.0445L20.3176 25.4812Z" fill="#C8D8FA"/>
<path d="M23.0441 22.5117L17.8789 16.7788L20.3177 14.5836L25.4829 20.3166L23.0441 22.5117Z" fill="#C8D8FA"/>
<path d="M26.0663 19.842L21.5266 13.6029L24.1792 11.6732L28.7189 17.9121L26.0663 19.842Z" fill="#C8D8FA"/>
<path d="M29.3496 17.5017L25.4856 10.8231L28.3229 9.17928L32.1869 15.8595L29.3496 17.5017Z" fill="#C8D8FA"/>
<path d="M32.8547 15.5186L29.7139 8.47198L32.7095 7.13648L35.8504 14.183L32.8547 15.5186Z" fill="#C8D8FA"/>
<path d="M36.5498 13.9146L34.1665 6.57425L37.2862 5.56335L39.6696 12.9016L36.5498 13.9146Z" fill="#C8D8FA"/>
<path d="M40.3927 12.7083L38.7959 5.15943L42.0053 4.48111L43.6022 12.0297L40.3927 12.7083Z" fill="#C8D8FA"/>
<path d="M44.3437 11.9131L43.5466 4.23838L46.8062 3.89789L47.606 11.5742L44.3437 11.9131Z" fill="#C8D8FA"/>
<path d="M40.3874 34.4415H40.324L36.7741 36.3582L36.241 34.253L40.7015 31.865H43.0584V52.2886H40.3874V34.4415Z" fill="black"/>
<path d="M40.7149 51.9626H42.734V32.1914H40.7835L36.6186 34.4203L36.9881 35.8728L40.2424 34.1155H40.7149V51.9626ZM43.3859 52.6147H40.0629V34.9543L36.5605 36.844L35.8611 34.0862L40.6198 31.5392H43.3859V52.6147Z" fill="black"/>
<path d="M52.9877 42.1711C52.9877 47.4812 54.6215 50.4977 57.1342 50.4977C59.9609 50.4977 61.3123 47.1985 61.3123 41.9826C61.3123 36.9555 60.0243 33.6563 57.1658 33.6563C54.7456 33.6563 52.9877 36.6097 52.9877 42.1711ZM64.0783 41.857C64.0783 48.8009 61.5023 52.6343 56.9758 52.6343C52.9877 52.6343 50.285 48.8954 50.2217 42.1399C50.2217 35.29 53.1751 31.5197 57.3216 31.5197C61.6263 31.5197 64.0783 35.3531 64.0783 41.857Z" fill="black"/>
<path d="M57.166 33.9824C54.7905 33.9824 53.3125 37.1201 53.3125 42.171C53.3125 47.1058 54.7773 50.1714 57.1343 50.1714C60.4863 50.1714 60.9878 45.0408 60.9878 41.9826C60.9878 38.9948 60.4916 33.9824 57.166 33.9824ZM57.1343 50.8236C54.3339 50.8236 52.6606 47.5891 52.6606 42.171C52.6606 36.7178 54.3867 33.3302 57.166 33.3302C60.0508 33.3302 61.6397 36.403 61.6397 41.9826C61.6397 47.6839 60.0402 50.8236 57.1343 50.8236ZM57.3217 31.8458C53.1436 31.8458 50.5491 35.7901 50.5491 42.1399C50.6072 48.5057 53.0116 52.3083 56.9759 52.3083C61.3467 52.3083 63.7512 48.5965 63.7512 41.8569C63.7512 35.4948 61.41 31.8458 57.3217 31.8458ZM56.9759 52.9604C52.6711 52.9604 49.9579 48.8153 49.8945 42.1428C49.8945 35.3879 52.7424 31.1934 57.3217 31.1934C61.8244 31.1934 64.4057 35.0801 64.4057 41.8569C64.4057 48.9133 61.6977 52.9604 56.9759 52.9604Z" fill="black"/>
<path d="M35.9955 61.9181C35.9955 60.989 35.9771 60.2268 35.9216 59.4833H37.3522L37.4261 60.9333H37.4815C37.9856 60.0779 38.8197 59.2787 40.3082 59.2787C41.5356 59.2787 42.4646 60.0222 42.8552 61.0817H42.8922C43.1693 60.5797 43.523 60.1903 43.8951 59.9106C44.4362 59.5033 45.0274 59.2787 45.8826 59.2787C47.0729 59.2787 48.8387 60.0594 48.8387 63.1818V68.4792H47.2392V63.3863C47.2392 61.6578 46.6084 60.6171 45.2887 60.6171C44.3597 60.6171 43.6286 61.3028 43.3567 62.1039C43.2802 62.3264 43.2247 62.6241 43.2247 62.9218V68.4792H41.6279V63.0892C41.6279 61.6578 40.9945 60.6171 39.7487 60.6171C38.7273 60.6171 37.9856 61.4348 37.7243 62.2527C37.6319 62.4942 37.595 62.773 37.595 63.0519V68.4792H35.9955V61.9181Z" fill="black"/>
<path d="M47.4345 68.2863H48.646V63.1817C48.646 60.4463 47.2181 59.4716 45.8826 59.4716C45.1198 59.4716 44.5602 59.649 44.0113 60.0641C43.6365 60.3457 43.3066 60.7298 43.0585 61.1753L43.0057 61.2745H42.7206L42.6731 61.1484C42.2851 60.0984 41.4009 59.4716 40.3082 59.4716C39.1337 59.4716 38.2654 59.9815 37.6478 61.0307L37.5923 61.1259H37.244L37.17 59.6761H36.1275C36.1697 60.3157 36.1882 61.0014 36.1882 61.918V68.2863H37.4023V63.0519C37.4023 62.7225 37.4498 62.4303 37.5448 62.1833C37.8114 61.3416 38.6191 60.4241 39.7514 60.4241C41.0262 60.4241 41.8206 61.4453 41.8206 63.0891V68.2863H43.0321V62.9218C43.0321 62.6298 43.0849 62.3097 43.172 62.0429C43.4544 61.2357 44.2171 60.4241 45.2887 60.4241C46.6717 60.4241 47.4345 61.4762 47.4345 63.3863V68.2863ZM49.0313 68.6719H47.0465V63.3863C47.0465 62.211 46.743 60.81 45.2887 60.81C44.4072 60.81 43.7737 61.4918 43.5388 62.1674C43.4623 62.3939 43.4174 62.6697 43.4174 62.9218V68.6719H41.4353V63.0891C41.4353 61.662 40.8045 60.81 39.7514 60.81C38.8117 60.81 38.1387 61.5881 37.9091 62.311C37.8272 62.5243 37.7877 62.7697 37.7877 63.0519V68.6719H35.8029V61.918C35.8029 60.9119 35.7817 60.1879 35.729 59.4977L35.7131 59.2903H37.5369L37.5923 60.4181C38.2601 59.5334 39.1707 59.0857 40.3082 59.0857C41.4379 59.0857 42.4039 59.6952 42.9001 60.6984C43.1456 60.3281 43.4464 60.0063 43.779 59.7561C44.3913 59.2926 45.0406 59.0857 45.8826 59.0857C47.4055 59.0857 49.0313 60.1618 49.0313 63.1817V68.6719Z" fill="black"/>
<path d="M51.4964 68.4792V59.4833H53.1329V68.4792H51.4964ZM53.3202 56.9555C53.3387 57.513 52.9296 57.9593 52.2777 57.9593C51.7023 57.9593 51.2932 57.513 51.2932 56.9555C51.2932 56.3794 51.7208 55.9333 52.3146 55.9333C52.9296 55.9333 53.3202 56.3794 53.3202 56.9555Z" fill="black"/>
<path d="M52.3147 56.126C51.8343 56.126 51.4859 56.4749 51.4859 56.9552C51.4859 57.4177 51.8264 57.7663 52.2777 57.7663C52.5443 57.7663 52.766 57.6816 52.9217 57.5214C53.0616 57.3775 53.1329 57.1788 53.1276 56.9618L53.125 56.9552C53.125 56.4593 52.8003 56.126 52.3147 56.126ZM52.2777 58.1519C51.6073 58.1519 51.1006 57.6375 51.1006 56.9552C51.1006 56.2627 51.6232 55.7403 52.3147 55.7403C53.0088 55.7403 53.5103 56.2497 53.5129 56.9521C53.5209 57.2733 53.41 57.5705 53.1989 57.7895C52.9719 58.0234 52.6472 58.1519 52.2777 58.1519ZM51.6918 68.2863H52.9402V59.6761H51.6918V68.2863ZM53.3256 68.6719H51.3038V59.2903H53.3256V68.6719Z" fill="black"/>
<path d="M55.8464 61.9181C55.8464 60.989 55.8279 60.2268 55.7725 59.4833H57.2215L57.3165 60.97H57.3534C57.7995 60.1151 58.8394 59.2787 60.3254 59.2787C61.5711 59.2787 63.5058 60.0222 63.5058 63.1076V68.4792H61.8694V63.2934C61.8694 61.8439 61.3309 60.6356 59.7869 60.6356C58.7101 60.6356 57.8734 61.3979 57.5936 62.3084C57.5197 62.5127 57.4828 62.7914 57.4828 63.0704V68.4792H55.8464V61.9181Z" fill="black"/>
<path d="M62.0621 68.2863H63.3131V63.1076C63.3131 59.6468 60.8242 59.4716 60.328 59.4716C58.8711 59.4716 57.9235 60.2916 57.525 61.0592L57.4696 61.1629H57.1344L57.042 59.6761H55.981C56.0232 60.3157 56.039 61.0014 56.039 61.918V68.2863H57.2901V63.0704C57.2901 62.7544 57.335 62.4604 57.4141 62.2424C57.686 61.3513 58.528 60.4426 59.7869 60.4426C61.2544 60.4426 62.0621 61.4551 62.0621 63.2934V68.2863ZM63.6985 68.6719H61.6767V63.2934C61.6767 62.1688 61.3494 60.8285 59.7869 60.8285C58.7259 60.8285 58.0133 61.6 57.7784 62.3649C57.7124 62.5486 57.6755 62.8022 57.6755 63.0704V68.6719H55.6537V61.918C55.6537 60.9119 55.6326 60.1879 55.5798 59.4977L55.564 59.2903H57.4036L57.4749 60.4257C58.0239 59.7173 58.9819 59.0857 60.328 59.0857C60.8902 59.0857 63.6985 59.2794 63.6985 63.1076V68.6719Z" fill="black"/>
</svg>
