<svg width="100" height="100" viewBox="0 0 100 100" fill="none" xmlns="http://www.w3.org/2000/svg">
<path d="M49.9983 0.193459C22.5384 0.193459 0.192601 22.5366 0.192601 50.0002C0.192601 77.4634 22.5384 99.8066 49.9983 99.8066C77.4616 99.8066 99.8074 77.4634 99.8074 50.0002C99.8074 22.5366 77.4616 0.193459 49.9983 0.193459ZM49.9983 99.9995C36.6453 99.9995 24.0893 94.7984 14.6448 85.355C5.20041 75.9116 0 63.3552 0 50.0002C0 36.6448 5.20041 24.0888 14.6448 14.6453C24.0893 5.20158 36.6453 0.000823975 49.9983 0.000823975C63.3547 0.000823975 75.9107 5.20158 85.3552 14.6453C94.7963 24.0888 100 36.6448 100 50.0002C100 63.3552 94.7963 75.9116 85.3552 85.355C75.9107 94.7984 63.3547 99.9995 49.9983 99.9995Z" fill="#3D76E1"/>
<path d="M51.6411 11.5369H48.3599V3.82078H51.6411V11.5369Z" fill="#7BA2EC"/>
<path d="M55.6578 11.9143L52.3965 11.5754L53.1935 3.90022L56.4548 4.2395L55.6578 11.9143Z" fill="#7BA2EC"/>
<path d="M59.6031 12.7109L56.397 12.0324L57.9939 4.48296L61.2 5.16151L59.6031 12.7109Z" fill="#7BA2EC"/>
<path d="M63.4457 13.9172L60.3252 12.9042L62.7084 5.56495L65.8289 6.57763L63.4457 13.9172Z" fill="#7BA2EC"/>
<path d="M67.1411 15.5203L64.147 14.1848L67.2918 7.13726L70.2859 8.4727L67.1411 15.5203Z" fill="#7BA2EC"/>
<path d="M70.651 17.5029L67.8125 15.8609L71.6763 9.18228L74.5148 10.8246L70.651 17.5029Z" fill="#7BA2EC"/>
<path d="M73.9277 19.8445L71.2778 17.915L75.8186 11.6759L78.4684 13.6057L73.9277 19.8445Z" fill="#7BA2EC"/>
<path d="M76.9529 22.5142L74.5156 20.319L79.6791 14.5862L82.1163 16.7814L76.9529 22.5142Z" fill="#7BA2EC"/>
<path d="M79.6836 25.4819L77.4863 23.0455L83.2188 17.8808L85.4161 20.3173L79.6836 25.4819Z" fill="#7BA2EC"/>
<path d="M82.089 28.719L80.1558 26.0673L86.3942 21.5269L88.3243 24.1786L82.089 28.719Z" fill="#7BA2EC"/>
<path d="M84.1362 32.1892L82.4941 29.3504L89.17 25.4863L90.8153 28.325L84.1362 32.1892Z" fill="#7BA2EC"/>
<path d="M85.8175 35.8513L84.4805 32.8564L91.5261 29.7137L92.8631 32.709L85.8175 35.8513Z" fill="#7BA2EC"/>
<path d="M87.0942 39.6709L86.0786 36.5518L93.4211 34.1687L94.4333 37.2877L87.0942 39.6709Z" fill="#7BA2EC"/>
<path d="M87.9656 43.6016L87.2871 40.3932L94.8387 38.7966L95.5171 42.005L87.9656 43.6016Z" fill="#7BA2EC"/>
<path d="M88.4231 47.6055L88.0835 44.3435L95.7619 43.546L96.0982 46.808L88.4231 47.6055Z" fill="#7BA2EC"/>
<path d="M96.1753 51.6409H88.4595V48.361H96.1753V51.6409Z" fill="#7BA2EC"/>
<path d="M95.7619 56.4543L88.0835 55.6568L88.4231 52.3952L96.0982 53.1924L95.7619 56.4543Z" fill="#C8D8FA"/>
<path d="M94.8387 61.2039L87.2871 59.6073L87.9656 56.3989L95.5171 57.9955L94.8387 61.2039Z" fill="#C8D8FA"/>
<path d="M93.4211 65.8335L86.0786 63.4507L87.0942 60.3313L94.4333 62.7144L93.4211 65.8335Z" fill="#C8D8FA"/>
<path d="M91.5261 70.2856L84.4805 67.1433L85.8175 64.1484L92.8631 67.2904L91.5261 70.2856Z" fill="#C8D8FA"/>
<path d="M89.17 74.5151L82.4941 70.6513L84.1362 67.8125L90.8153 71.6767L89.17 74.5151Z" fill="#C8D8FA"/>
<path d="M86.3942 78.4722L80.1558 73.9318L82.089 71.2804L88.3243 75.8208L86.3942 78.4722Z" fill="#C8D8FA"/>
<path d="M83.2188 82.1184L77.4863 76.9534L79.6836 74.5166L85.4161 79.6817L83.2188 82.1184Z" fill="#C8D8FA"/>
<path d="M79.6791 85.4158L74.5156 79.683L76.9529 77.4879L82.1163 83.2206L79.6791 85.4158Z" fill="#C8D8FA"/>
<path d="M75.8186 88.3262L71.2778 82.0874L73.9277 80.1579L78.4684 86.3964L75.8186 88.3262Z" fill="#C8D8FA"/>
<path d="M71.6763 90.8176L67.8125 84.1387L70.651 82.496L74.5148 89.1753L71.6763 90.8176Z" fill="#C8D8FA"/>
<path d="M67.2918 92.863L64.147 85.8158L67.1411 84.4803L70.2859 91.5276L67.2918 92.863Z" fill="#C8D8FA"/>
<path d="M62.7084 94.4368L60.3252 87.0978L63.4457 86.0851L65.8289 93.4241L62.7084 94.4368Z" fill="#C8D8FA"/>
<path d="M57.9939 95.5195L56.397 87.9698L59.6031 87.2909L61.2 94.8404L57.9939 95.5195Z" fill="#C8D8FA"/>
<path d="M53.1935 96.0986L52.3965 88.4235L55.6578 88.0846L56.4548 95.7597L53.1935 96.0986Z" fill="#C8D8FA"/>
<path d="M51.6411 96.1787H48.3599V88.462H51.6411V96.1787Z" fill="#C8D8FA"/>
<path d="M46.8077 96.0986L43.5474 95.7597L44.3422 88.0846L47.6055 88.4235L46.8077 96.0986Z" fill="#C8D8FA"/>
<path d="M42.0028 95.5186L38.793 94.8397L40.3904 87.2902L43.6003 87.9691L42.0028 95.5186Z" fill="#C8D8FA"/>
<path d="M37.2839 94.4358L34.168 93.4231L36.5522 86.0842L39.6681 87.0965L37.2839 94.4358Z" fill="#C8D8FA"/>
<path d="M32.7085 92.8625L29.7139 91.5271L32.8578 84.48L35.8524 85.8154L32.7085 92.8625Z" fill="#C8D8FA"/>
<path d="M28.3238 90.8181L25.4829 89.176L29.3463 82.4967L32.1872 84.1391L28.3238 90.8181Z" fill="#C8D8FA"/>
<path d="M24.1767 88.3262L21.5239 86.3962L26.0654 80.1578L28.7154 82.0874L24.1767 88.3262Z" fill="#C8D8FA"/>
<path d="M20.314 85.4155L17.8799 83.2205L23.0431 77.4875L25.48 79.6828L20.314 85.4155Z" fill="#C8D8FA"/>
<path d="M16.7783 82.1189L14.5845 79.6826L20.3152 74.5176L22.5118 76.9541L16.7783 82.1189Z" fill="#C8D8FA"/>
<path d="M13.6051 78.4731L11.6729 75.8218L17.9109 71.2814L19.8403 73.9328L13.6051 78.4731Z" fill="#C8D8FA"/>
<path d="M10.825 74.5142L9.18115 71.6755L15.8633 67.8109L17.5043 70.6496L10.825 74.5142Z" fill="#C8D8FA"/>
<path d="M8.47106 70.2866L7.13428 67.2916L14.1798 64.1491L15.5166 67.1444L8.47106 70.2866Z" fill="#C8D8FA"/>
<path d="M6.57575 65.8333L5.56201 62.7141L12.9012 60.3311L13.9121 63.4503L6.57575 65.8333Z" fill="#C8D8FA"/>
<path d="M5.16058 61.2031L4.48096 57.9947L12.0319 56.3976L12.7116 59.6063L5.16058 61.2031Z" fill="#C8D8FA"/>
<path d="M4.23765 56.4548L3.89844 53.1929L11.5724 52.3954L11.9116 55.6574L4.23765 56.4548Z" fill="#C8D8FA"/>
<path d="M11.5371 51.6389H3.82227V48.3593H11.5371V51.6389Z" fill="#C8D8FA"/>
<path d="M11.5724 47.6062L3.89844 46.8085L4.23765 43.5465L11.9116 44.344L11.5724 47.6062Z" fill="#C8D8FA"/>
<path d="M12.0319 43.6006L4.48096 42.0038L5.16058 38.7954L12.7116 40.3922L12.0319 43.6006Z" fill="#C8D8FA"/>
<path d="M12.9012 39.6707L5.56201 37.2877L6.57575 34.1685L13.9121 36.5513L12.9012 39.6707Z" fill="#C8D8FA"/>
<path d="M14.1798 35.8523L7.13428 32.7101L8.47106 29.7148L15.5166 32.8572L14.1798 35.8523Z" fill="#C8D8FA"/>
<path d="M15.8633 32.188L9.18115 28.3231L10.825 25.4847L17.5043 29.3493L15.8633 32.188Z" fill="#C8D8FA"/>
<path d="M17.9109 28.7202L11.6729 24.1799L13.6023 21.5282L19.8403 26.0685L17.9109 28.7202Z" fill="#C8D8FA"/>
<path d="M20.3152 25.4829L14.5845 20.3179L16.7783 17.8816L22.5118 23.0464L20.3152 25.4829Z" fill="#C8D8FA"/>
<path d="M23.0431 22.5137L17.8799 16.7809L20.314 14.586L25.48 20.3187L23.0431 22.5137Z" fill="#C8D8FA"/>
<path d="M26.0654 19.8447L21.5239 13.6057L24.1767 11.6761L28.7154 17.9148L26.0654 19.8447Z" fill="#C8D8FA"/>
<path d="M29.3463 17.5039L25.4829 10.8255L28.3238 9.18312L32.1872 15.8618L29.3463 17.5039Z" fill="#C8D8FA"/>
<path d="M32.8578 15.5198L29.7139 8.47203L32.7085 7.13663L35.8524 14.1841L32.8578 15.5198Z" fill="#C8D8FA"/>
<path d="M36.5522 13.916L34.168 6.57646L37.2839 5.5638L39.6681 12.903L36.5522 13.916Z" fill="#C8D8FA"/>
<path d="M40.3904 12.7102L38.793 5.16042L42.0028 4.48185L43.6003 12.0313L40.3904 12.7102Z" fill="#C8D8FA"/>
<path d="M44.3422 11.9141L43.5474 4.23924L46.8077 3.90031L47.6055 11.5751L44.3422 11.9141Z" fill="#C8D8FA"/>
<path d="M40.715 34.2706H40.6496L37.1022 36.187L36.564 34.0824L41.0272 31.6944H43.3852V52.1169H40.715V34.2706Z" fill="black"/>
<path d="M41.04 51.7899H43.0604V32.0192H41.1114L36.9487 34.2481L37.3176 35.7005L40.5699 33.9434H41.04V51.7899ZM43.712 52.4421H40.3884V34.7822L36.8892 36.672L36.1899 33.9137L40.9478 31.367H43.712V52.4421Z" fill="black"/>
<path d="M63.0226 34.0189H55.2288L54.4454 39.2662C54.913 39.2033 55.3558 39.1404 56.1082 39.1404C57.6812 39.1404 59.2511 39.486 60.5052 40.2403C62.1091 41.1513 63.4282 42.9107 63.4282 45.4869C63.4282 49.4774 60.2544 52.4626 55.8264 52.4626C53.5939 52.4626 51.7112 51.8341 50.7358 51.2052L51.4264 49.1005C52.2748 49.6034 53.9407 50.2314 55.7955 50.2314C58.4027 50.2314 60.6321 48.5348 60.6321 45.8016C60.6012 43.1621 58.8424 41.277 54.7582 41.277C53.5939 41.277 52.6835 41.4027 51.928 41.4969L53.2471 31.6941H63.0226V34.0189Z" fill="black"/>
<path d="M51.1259 51.0606C52.0523 51.583 53.7503 52.1363 55.8262 52.1363C60.0401 52.1363 63.1045 49.34 63.1045 45.4873C63.1045 43.329 62.0975 41.5201 60.3438 40.5236C59.2067 39.8404 57.707 39.4667 56.1082 39.4667C55.408 39.4667 54.9866 39.5225 54.5435 39.5817L54.057 39.6464L54.9494 33.693H62.6955V32.0202H53.5334L52.3095 41.121C52.9756 41.0383 53.7843 40.9509 54.7573 40.9509C58.6613 40.9509 60.9232 42.7176 60.9604 45.7975C60.9604 48.5576 58.7884 50.558 55.7952 50.558C54.1314 50.558 52.5852 50.0635 51.6154 49.5742L51.1259 51.0606ZM55.8262 52.7886C53.4342 52.7886 51.4946 52.0837 50.5588 51.4798L50.3481 51.3431L51.2436 48.6131L51.5937 48.8201C52.4365 49.3208 54.0446 49.9054 55.7952 49.9054C58.0354 49.9054 60.3066 48.4957 60.3066 45.8015C60.2725 43.0956 58.3019 41.6031 54.7573 41.6031C53.6976 41.6031 52.8641 41.7078 52.1329 41.8005L51.5503 41.873L52.9633 31.368H63.3462V34.3453H55.5102L54.8285 38.8876C55.1756 38.8467 55.566 38.8145 56.1082 38.8145C57.8464 38.8145 59.4235 39.2108 60.6753 39.9606C62.6305 41.072 63.7552 43.0879 63.7552 45.4873C63.7552 49.718 60.4182 52.7886 55.8262 52.7886Z" fill="black"/>
<path d="M36.2802 61.7459C36.2802 60.8165 36.2622 60.0547 36.208 59.3112H37.6371L37.7124 60.7608H37.7695C38.272 59.9057 39.1084 59.1066 40.5947 59.1066C41.8222 59.1066 42.7519 59.8501 43.14 60.9094H43.1792C43.456 60.4079 43.808 60.0183 44.1811 59.7385C44.7226 59.3311 45.3153 59.1066 46.1698 59.1066C47.3582 59.1066 49.1244 59.8874 49.1244 63.0095V68.3066H47.5268V63.2141C47.5268 61.4856 46.8949 60.4446 45.5741 60.4446C44.6444 60.4446 43.9133 61.1306 43.6425 61.9318C43.5673 62.1541 43.5101 62.452 43.5101 62.7496V68.3066H41.9125V62.9172C41.9125 61.4856 41.2807 60.4446 40.0381 60.4446C39.0121 60.4446 38.272 61.2627 38.0102 62.0801C37.9169 62.322 37.8808 62.6009 37.8808 62.8795V68.3066H36.2802V61.7459Z" fill="black"/>
<path d="M47.7196 68.1131H48.9325V63.0092C48.9325 60.2738 47.5058 59.2989 46.1695 59.2989C45.4049 59.2989 44.8481 59.4765 44.2973 59.8919C43.9241 60.1733 43.593 60.5574 43.3492 61.0028L43.292 61.1022H43.006L42.9609 60.9757C42.5756 59.9259 41.6877 59.2989 40.5951 59.2989C39.4213 59.2989 38.5514 59.8091 37.9374 60.8581L37.8802 60.9535H37.5311L37.4558 59.5033H36.4144C36.4565 60.1432 36.4746 60.8289 36.4746 61.7454V68.1131H37.6876V62.8789C37.6876 62.5499 37.7357 62.2576 37.8321 62.0108C38.0969 61.169 38.9066 60.2513 40.0383 60.2513C41.3115 60.2513 42.1061 61.2725 42.1061 62.9162V68.1131H43.3191V62.7492C43.3191 62.4575 43.3702 62.137 43.4575 61.8703C43.7405 61.063 44.505 60.2513 45.5765 60.2513C46.958 60.2513 47.7196 61.3032 47.7196 63.2136V68.1131ZM49.3178 68.4993H47.3343V63.2136C47.3343 62.0382 47.0303 60.6371 45.5765 60.6371C44.6946 60.6371 44.0595 61.3192 43.8247 61.9949C43.7495 62.2212 43.7073 62.4972 43.7073 62.7492V68.4993H41.7208V62.9162C41.7208 61.4892 41.0918 60.6371 40.0383 60.6371C39.0992 60.6371 38.425 61.4152 38.1962 62.1385C38.115 62.3516 38.0758 62.5975 38.0758 62.8789V68.4993H36.0893V61.7454C36.0893 60.7392 36.0682 60.0153 36.0171 59.3248L35.999 59.1177H37.823L37.8832 60.2452C38.5454 59.3609 39.4574 58.9131 40.5951 58.9131C41.7238 58.9131 42.69 59.5229 43.1866 60.5258C43.4334 60.1555 43.7344 59.8338 44.0655 59.5837C44.6765 59.1201 45.3267 58.9131 46.1695 58.9131C47.6925 58.9131 49.3178 59.9894 49.3178 63.0092V68.4993Z" fill="black"/>
<path d="M51.7841 68.3066V59.311H53.4177V68.3066H51.7841ZM53.6059 56.7835C53.6241 57.341 53.2142 57.787 52.5644 57.787C51.9875 57.787 51.5776 57.341 51.5776 56.7835C51.5776 56.2073 52.0058 55.7612 52.6009 55.7612C53.2142 55.7612 53.6059 56.2073 53.6059 56.7835Z" fill="black"/>
<path d="M52.6002 55.954C52.1203 55.954 51.771 56.3027 51.771 56.7835C51.771 57.2455 52.1112 57.5942 52.5638 57.5942C52.8311 57.5942 53.0528 57.5094 53.2077 57.3491C53.3474 57.2054 53.4173 57.0064 53.4143 56.7896V56.7835C53.4143 56.2872 53.0862 55.954 52.6002 55.954ZM52.5638 57.9799C51.8925 57.9799 51.3853 57.4654 51.3853 56.7835C51.3853 56.0906 51.9077 55.5682 52.6002 55.5682C53.2958 55.5682 53.797 56.0776 53.8 56.7801C53.8091 57.1012 53.6967 57.3986 53.4841 57.6176C53.2593 57.8511 52.9343 57.9799 52.5638 57.9799ZM51.9776 68.1135H53.2259V59.5038H51.9776V68.1135ZM53.6117 68.4995H51.5888V59.1181H53.6117V68.4995Z" fill="black"/>
<path d="M56.1331 61.7464C56.1331 60.8171 56.1114 60.0548 56.0557 59.3114H57.5089L57.6019 60.7985H57.6391C58.0853 59.9432 59.1233 59.1069 60.6138 59.1069C61.8564 59.1069 63.7899 59.8503 63.7899 62.9353V68.3069H62.1539V63.1215C62.1539 61.6717 61.6147 60.4638 60.0715 60.4638C58.9932 60.4638 58.1814 61.2335 57.8777 62.1365C57.8095 62.3425 57.7661 62.6196 57.7661 62.8985V68.3069H56.1331V61.7464Z" fill="black"/>
<path d="M62.3468 68.1138H63.5991V62.9352C63.5991 59.4748 61.1099 59.2997 60.6139 59.2997C59.157 59.2997 58.2084 60.1196 57.8117 60.8871L57.7558 60.991H57.4211L57.3281 59.5039H56.2648C56.3082 60.1438 56.3268 60.8294 56.3268 61.7461V68.1138H57.5761V62.8983C57.5761 62.5824 57.6194 62.2886 57.7 62.07C57.9697 61.1794 58.8129 60.2705 60.0714 60.2705C61.5408 60.2705 62.3468 61.283 62.3468 63.1212V68.1138ZM63.9835 68.4998H61.9624V63.1212C61.9624 61.9969 61.6338 60.6565 60.0714 60.6565C59.0113 60.6565 58.2983 61.428 58.0627 62.1925C57.9976 62.3766 57.9604 62.6302 57.9604 62.8983V68.4998H55.9393V61.7461C55.9393 60.7399 55.9176 60.016 55.8649 59.3254L55.8525 59.1183H57.6877L57.759 60.2538C58.3076 59.5455 59.2686 58.9137 60.6139 58.9137C61.175 58.9137 63.9835 59.1078 63.9835 62.9352V68.4998Z" fill="black"/>
</svg>
