<svg width="100" height="100" viewBox="0 0 100 100" fill="none" xmlns="http://www.w3.org/2000/svg">
<path d="M50 0.191612C22.5339 0.191612 0.191125 22.5356 0.191125 49.9997C0.191125 77.4637 22.5339 99.8077 50 99.8077C77.4661 99.8077 99.8089 77.4637 99.8089 49.9997C99.8089 22.5356 77.4661 0.191612 50 0.191612ZM50 100C36.6451 100 24.0879 94.7994 14.643 85.3558C5.19818 75.9117 0 63.3554 0 49.9997C0 36.6439 5.19818 24.0876 14.643 14.644C24.0879 5.19992 36.6451 -0.000770569 50 -0.000770569C63.3549 -0.000770569 75.9121 5.19992 85.3569 14.644C94.8018 24.0876 100 36.6439 100 49.9997C100 63.3554 94.8018 75.9117 85.3569 85.3558C75.9121 94.7994 63.3549 100 50 100Z" fill="#3D76E1"/>
<path d="M51.6396 11.5359H48.3599V3.81916H51.6396V11.5359Z" fill="#7BA2EC"/>
<path d="M55.6566 11.9131L52.3945 11.574L53.1916 3.89896L56.4537 4.23801L55.6566 11.9131Z" fill="#7BA2EC"/>
<path d="M59.6052 12.709L56.397 12.0301L57.9952 4.48008L61.2034 5.15894L59.6052 12.709Z" fill="#7BA2EC"/>
<path d="M63.4491 13.915L60.3281 12.9022L62.7113 5.56255L65.8323 6.57539L63.4491 13.915Z" fill="#7BA2EC"/>
<path d="M67.1426 15.519L64.147 14.1837L67.2896 7.13614L70.2852 8.47144L67.1426 15.519Z" fill="#7BA2EC"/>
<path d="M70.6512 17.502L67.812 15.8596L71.6749 9.18107L74.5141 10.8234L70.6512 17.502Z" fill="#7BA2EC"/>
<path d="M73.9341 19.8428L71.2788 17.9132L75.8209 11.6741L78.4722 13.604L73.9341 19.8428Z" fill="#7BA2EC"/>
<path d="M76.9501 22.5129L74.5146 20.3178L79.6808 14.5849L82.1162 16.78L76.9501 22.5129Z" fill="#7BA2EC"/>
<path d="M79.6832 25.4812L77.4917 23.0446L83.2204 17.8798L85.4159 20.3161L79.6832 25.4812Z" fill="#7BA2EC"/>
<path d="M82.0842 28.719L80.1567 26.0675L86.3965 21.527L88.324 24.1789L82.0842 28.719Z" fill="#7BA2EC"/>
<path d="M84.1378 32.1882L82.4941 29.3498L89.1712 25.4853L90.8149 28.3242L84.1378 32.1882Z" fill="#7BA2EC"/>
<path d="M85.8157 35.8511L84.4795 32.8559L91.5265 29.7135L92.8628 32.7083L85.8157 35.8511Z" fill="#7BA2EC"/>
<path d="M87.1017 39.6687L86.0879 36.5494L93.4276 34.1666L94.4373 37.2859L87.1017 39.6687Z" fill="#7BA2EC"/>
<path d="M87.9675 43.6013L87.2905 40.3928L94.8401 38.7962L95.5171 42.0043L87.9675 43.6013Z" fill="#7BA2EC"/>
<path d="M88.4223 47.6052L88.0835 44.3432L95.7594 43.5454L96.0982 46.8075L88.4223 47.6052Z" fill="#7BA2EC"/>
<path d="M96.1796 51.6396H88.4614V48.3598H96.1796V51.6396Z" fill="#7BA2EC"/>
<path d="M95.7594 56.4541L88.0835 55.6567L88.4223 52.3947L96.0982 53.192L95.7594 56.4541Z" fill="#7BA2EC"/>
<path d="M94.8401 61.2041L87.2905 59.6071L87.9675 56.3986L95.5171 57.9956L94.8401 61.2041Z" fill="#7BA2EC"/>
<path d="M93.4276 65.8323L86.0879 63.449L87.1017 60.3298L94.4373 62.713L93.4276 65.8323Z" fill="#7BA2EC"/>
<path d="M91.5265 70.2861L84.4795 67.1437L85.8157 64.1486L92.8628 67.2909L91.5265 70.2861Z" fill="#7BA2EC"/>
<path d="M89.1712 74.5154L82.4941 70.6514L84.1378 67.8125L90.8149 71.6769L89.1712 74.5154Z" fill="#7BA2EC"/>
<path d="M86.3965 78.4736L80.1567 73.9331L82.0842 71.2816L88.324 75.8221L86.3965 78.4736Z" fill="#C8D8FA"/>
<path d="M83.2205 82.1189L77.4878 76.9537L79.6833 74.5171L85.416 79.6823L83.2205 82.1189Z" fill="#C8D8FA"/>
<path d="M79.6808 85.416L74.5146 79.6831L76.9501 77.488L82.1162 83.2209L79.6808 85.416Z" fill="#C8D8FA"/>
<path d="M75.8209 88.3262L71.2788 82.087L73.9341 80.1575L78.4722 86.3963L75.8209 88.3262Z" fill="#C8D8FA"/>
<path d="M71.6749 90.8186L67.812 84.1393L70.6512 82.4969L74.5141 89.1763L71.6749 90.8186Z" fill="#C8D8FA"/>
<path d="M67.2896 92.8643L64.147 85.8167L67.1426 84.4814L70.2852 91.5286L67.2896 92.8643Z" fill="#C8D8FA"/>
<path d="M62.7113 94.4368L60.3281 87.0975L63.4491 86.0851L65.8323 93.4243L62.7113 94.4368Z" fill="#C8D8FA"/>
<path d="M57.9952 95.5198L56.397 87.9693L59.6052 87.2909L61.2034 94.8409L57.9952 95.5198Z" fill="#C8D8FA"/>
<path d="M53.1916 96.0999L52.3945 88.4244L55.6566 88.0853L56.4537 95.7608L53.1916 96.0999Z" fill="#C8D8FA"/>
<path d="M51.6396 96.1799H48.3599V88.4628H51.6396V96.1799Z" fill="#C8D8FA"/>
<path d="M46.8032 96.1001L43.5444 95.7612L44.3419 88.0859L47.6044 88.4248L46.8032 96.1001Z" fill="#C8D8FA"/>
<path d="M42.0071 95.519L38.7959 94.8402L40.392 87.2903L43.6032 87.9691L42.0071 95.519Z" fill="#C8D8FA"/>
<path d="M37.282 94.4375L34.1631 93.425L36.5477 86.0857L39.6666 87.0982L37.282 94.4375Z" fill="#C8D8FA"/>
<path d="M32.7096 92.8635L29.7153 91.5281L32.8563 84.4806L35.8506 85.816L32.7096 92.8635Z" fill="#C8D8FA"/>
<path d="M28.3229 90.8191L25.4849 89.1768L29.3474 82.4975L32.1855 84.1398L28.3229 90.8191Z" fill="#C8D8FA"/>
<path d="M24.1783 88.3264L21.5273 86.3964L26.067 80.1574L28.7178 82.0874L24.1783 88.3264Z" fill="#C8D8FA"/>
<path d="M20.3164 85.4155L17.8794 83.2204L23.0456 77.4876L25.4826 79.6828L20.3164 85.4155Z" fill="#C8D8FA"/>
<path d="M16.7767 82.1196L14.5835 79.6828L20.3167 74.5178L22.5099 76.9546L16.7767 82.1196Z" fill="#C8D8FA"/>
<path d="M13.6035 78.4729L11.6729 75.8213L17.9117 71.2808L19.8424 73.9324L13.6035 78.4729Z" fill="#C8D8FA"/>
<path d="M10.824 74.5146L9.17822 71.676L15.8597 67.8112L17.5018 70.6502L10.824 74.5146Z" fill="#C8D8FA"/>
<path d="M8.47023 70.2861L7.13184 67.2911L14.1839 64.1484L15.5186 67.1438L8.47023 70.2861Z" fill="#C8D8FA"/>
<path d="M6.57298 65.8328L5.56104 62.7135L12.9023 60.3304L13.9143 63.4497L6.57298 65.8328Z" fill="#C8D8FA"/>
<path d="M5.15856 61.2034L4.47803 57.9949L12.0324 56.3978L12.7093 59.6064L5.15856 61.2034Z" fill="#C8D8FA"/>
<path d="M4.23922 56.4539L3.89941 53.1922L11.5737 52.3948L11.9135 55.6568L4.23922 56.4539Z" fill="#C8D8FA"/>
<path d="M11.5352 51.6401H3.81885V48.3603H11.5352V51.6401Z" fill="#C8D8FA"/>
<path d="M11.5737 47.605L3.89941 46.8072L4.23922 43.5452L11.9135 44.3426L11.5737 47.605Z" fill="#C8D8FA"/>
<path d="M12.0324 43.6003L4.47803 42.0037L5.15856 38.7952L12.7093 40.3922L12.0324 43.6003Z" fill="#C8D8FA"/>
<path d="M12.9023 39.6694L5.56104 37.2864L6.57298 34.1671L13.9143 36.5498L12.9023 39.6694Z" fill="#C8D8FA"/>
<path d="M14.1839 35.8511L7.13184 32.7084L8.47023 29.713L15.5186 32.8557L14.1839 35.8511Z" fill="#C8D8FA"/>
<path d="M15.8597 32.1875L9.17822 28.3224L10.824 25.4837L17.5018 29.3488L15.8597 32.1875Z" fill="#C8D8FA"/>
<path d="M17.9117 28.7185L11.6729 24.178L13.6035 21.526L19.8424 26.0665L17.9117 28.7185Z" fill="#C8D8FA"/>
<path d="M20.3167 25.4819L14.5835 20.3169L16.7767 17.8805L22.5099 23.0455L20.3167 25.4819Z" fill="#C8D8FA"/>
<path d="M23.0456 22.512L17.8794 16.7792L20.3164 14.584L25.4826 20.3172L23.0456 22.512Z" fill="#C8D8FA"/>
<path d="M26.067 19.8425L21.5273 13.6039L24.1783 11.6739L28.7178 17.9126L26.067 19.8425Z" fill="#C8D8FA"/>
<path d="M29.3474 17.5024L25.4849 10.8238L28.3229 9.18159L32.1855 15.8606L29.3474 17.5024Z" fill="#C8D8FA"/>
<path d="M32.8563 15.5186L29.7153 8.47103L32.7096 7.13563L35.8506 14.1832L32.8563 15.5186Z" fill="#C8D8FA"/>
<path d="M36.5477 13.9158L34.1631 6.5761L37.282 5.56359L39.6666 12.9029L36.5477 13.9158Z" fill="#C8D8FA"/>
<path d="M40.392 12.708L38.7959 5.15807L42.0071 4.47927L43.6032 12.0292L40.392 12.708Z" fill="#C8D8FA"/>
<path d="M44.3419 11.9141L43.5444 4.23919L46.8032 3.8999L47.6044 11.5751L44.3419 11.9141Z" fill="#C8D8FA"/>
<path d="M35.1543 52.2893V50.5924L37.3224 48.4872C42.5375 43.5227 44.8936 40.8834 44.9243 37.8042C44.9243 35.7305 43.9189 33.8141 40.872 33.8141C39.0186 33.8141 37.4798 34.7566 36.5358 35.5421L35.657 33.5938C37.0691 32.4 39.08 31.5201 41.4361 31.5201C45.8377 31.5201 47.6911 34.5367 47.6911 37.4585C47.6911 41.2291 44.955 44.2772 40.6495 48.4247L39.0186 49.9327V49.9953H48.1938V52.2893H35.1543Z" fill="black"/>
<path d="M35.4818 51.9622H47.8677V50.3208H38.6954V49.7891L40.4346 48.1838C44.4891 44.2741 47.3686 41.2134 47.3686 37.4576C47.3686 34.8687 45.8136 31.8456 41.4405 31.8456C39.4556 31.8456 37.5551 32.4975 36.0577 33.6866L36.6605 35.0254C37.6549 34.2709 39.1139 33.4869 40.8723 33.4869C43.6559 33.4869 45.2531 35.0603 45.2531 37.8036C45.2186 41.0675 42.7613 43.7616 37.5474 48.7225L35.4818 50.7297V51.9622ZM48.5204 52.6145H34.8291V50.4537L37.0944 48.2522C42.3659 43.2371 44.5735 40.6774 44.6004 37.8001C44.6004 36.4348 44.1166 34.1392 40.8723 34.1392C39.0064 34.1392 37.4898 35.1747 36.7449 35.7917L36.4148 36.0662L35.2591 33.5026L35.4472 33.3437C37.0905 31.9569 39.2175 31.1929 41.4405 31.1929C45.9826 31.1929 48.0175 34.3393 48.0175 37.4576C48.0175 41.4706 45.0611 44.6316 40.88 48.6584L39.7858 49.6685H48.5204V52.6145Z" fill="black"/>
<path d="M53.7534 42.1709C53.7534 47.4811 55.3883 50.4976 57.9017 50.4976C60.7304 50.4976 62.0816 47.1982 62.0816 41.9826C62.0816 36.9553 60.7934 33.6559 57.9332 33.6559C55.5143 33.6559 53.7534 36.6094 53.7534 42.1709ZM64.8472 41.8569C64.8472 48.8008 62.2707 52.634 57.7442 52.634C53.7534 52.634 51.0547 48.895 50.9917 42.1398C50.9917 35.2896 53.9425 31.5195 58.0908 31.5195C62.3968 31.5195 64.8472 35.3527 64.8472 41.8569Z" fill="black"/>
<path d="M57.9333 33.983C55.5565 33.983 54.0784 37.1208 54.0784 42.1716C54.0784 47.1064 55.5447 50.1721 57.9017 50.1721C61.2521 50.1721 61.7527 45.0414 61.7527 41.9832C61.7527 38.9955 61.256 33.983 57.9333 33.983ZM57.9017 50.8241C55.0993 50.8241 53.4281 47.5896 53.4281 42.1716C53.4281 36.7184 55.1545 33.3306 57.9333 33.3306C60.8185 33.3306 62.407 36.4035 62.407 41.9832C62.407 47.6846 60.8027 50.8241 57.9017 50.8241ZM58.087 31.8467C53.909 31.8467 51.3115 35.7906 51.3115 42.1404C51.3746 48.5064 53.7749 52.3088 57.7441 52.3088C62.1153 52.3088 64.5196 48.5971 64.5196 41.8574C64.5196 35.4953 62.1744 31.8467 58.087 31.8467ZM57.7441 52.9612C53.4399 52.9612 50.7242 48.8158 50.6611 42.1436C50.6611 35.3885 53.5069 31.1939 58.087 31.1939C62.5883 31.1939 65.17 35.0807 65.17 41.8574C65.17 48.914 62.4661 52.9612 57.7441 52.9612Z" fill="black"/>
<path d="M36.2834 61.9179C36.2834 60.989 36.2643 60.2269 36.2104 59.4832H37.6401L37.7131 60.9332H37.7707C38.2704 60.0781 39.1082 59.2788 40.5955 59.2788C41.8214 59.2788 42.7515 60.022 43.1396 61.082H43.178C43.4586 60.5797 43.8122 60.1904 44.185 59.9106C44.723 59.5032 45.3148 59.2788 46.1718 59.2788C47.3632 59.2788 49.1272 60.0597 49.1272 63.1819V68.4792H47.5285V63.3863C47.5285 61.6577 46.8982 60.617 45.5761 60.617C44.6499 60.617 43.9159 61.303 43.6431 62.1043C43.57 62.3264 43.5124 62.6242 43.5124 62.9217V68.4792H41.9136V63.0892C41.9136 61.6577 41.2834 60.617 40.0382 60.617C39.0159 60.617 38.2703 61.4348 38.0129 62.2526C37.9168 62.4943 37.8822 62.773 37.8822 63.052V68.4792H36.2834V61.9179Z" fill="black"/>
<path d="M47.7175 68.2873H48.9322V63.1832C48.9322 60.4476 47.5021 59.4731 46.1682 59.4731C45.4032 59.4731 44.8419 59.6503 44.296 60.0655C43.9231 60.3473 43.5925 60.7313 43.3426 61.1769L43.2888 61.2757H43.0043L42.9582 61.1496C42.5699 60.0997 41.6857 59.4731 40.5901 59.4731C39.4176 59.4731 38.5488 59.9828 37.9337 61.0323L37.876 61.1273H37.5301L37.4532 59.6772H36.4113C36.4536 60.3173 36.4729 61.0027 36.4729 61.9192V68.2873H37.6838V63.0533C37.6838 62.7238 37.7338 62.4316 37.826 62.1845C38.0951 61.3429 38.9063 60.4253 40.0327 60.4253C41.3128 60.4253 42.1048 61.4464 42.1048 63.0902V68.2873H43.3157V62.9229C43.3157 62.6312 43.3657 62.3109 43.4579 62.0441C43.7386 61.2368 44.5036 60.4253 45.5723 60.4253C46.9562 60.4253 47.7175 61.4775 47.7175 63.3873V68.2873ZM49.3167 68.6729H47.333V63.3873C47.333 62.2121 47.0254 60.8113 45.5723 60.8113C44.6881 60.8113 44.0576 61.4929 43.8231 62.1691C43.7463 62.3955 43.704 62.6711 43.704 62.9229V68.6729H41.7165V63.0902C41.7165 61.6632 41.0899 60.8113 40.0327 60.8113C39.0985 60.8113 38.4219 61.5893 38.1912 62.3121C38.1105 62.5258 38.0721 62.7711 38.0721 63.0533V68.6729H36.0884V61.9192C36.0884 60.9131 36.0654 60.1893 36.0154 59.4988L36 59.2916H37.8184L37.876 60.4192C38.545 59.535 39.456 59.0871 40.5901 59.0871C41.7203 59.0871 42.6853 59.6964 43.1812 60.6994C43.4311 60.3296 43.7309 60.0078 44.0654 59.7576C44.6728 59.2939 45.3224 59.0871 46.1682 59.0871C47.6905 59.0871 49.3167 60.1631 49.3167 63.1832V68.6729Z" fill="black"/>
<path d="M51.7842 68.4797V59.4838H53.4177V68.4797H51.7842ZM53.6035 56.9562C53.6228 57.5136 53.2125 57.9599 52.5661 57.9599C51.9894 57.9599 51.5791 57.5136 51.5791 56.9562C51.5791 56.3802 52.0087 55.934 52.6009 55.934C53.2125 55.934 53.6035 56.3802 53.6035 56.9562Z" fill="black"/>
<path d="M52.6001 56.1268C52.12 56.1268 51.7715 56.4756 51.7715 56.9561C51.7715 57.418 52.1122 57.7669 52.5652 57.7669C52.8324 57.7669 53.0531 57.6821 53.208 57.5222C53.3473 57.3782 53.4209 57.1795 53.4132 56.9623V56.9561C53.4132 56.4601 53.0879 56.1268 52.6001 56.1268ZM52.5652 58.1529C51.8954 58.1529 51.3882 57.6384 51.3882 56.9561C51.3882 56.2635 51.9109 55.7408 52.6001 55.7408C53.2931 55.7408 53.7965 56.2507 53.7965 56.953C53.8081 57.2736 53.6958 57.5714 53.4867 57.7905C53.2583 58.024 52.9331 58.1529 52.5652 58.1529ZM51.9767 68.2867H53.2273V59.6765H51.9767V68.2867ZM53.6145 68.6724H51.5895V59.2909H53.6145V68.6724Z" fill="black"/>
<path d="M56.1313 61.919C56.1313 60.99 56.1156 60.2278 56.0566 59.4841H57.5079L57.5984 60.9712H57.6377C58.0821 60.1161 59.1244 59.2799 60.6111 59.2799C61.8579 59.2799 63.7891 60.0229 63.7891 63.1084V68.4802H62.1568V63.2944C62.1568 61.8447 61.6141 60.6365 60.0723 60.6365C58.9946 60.6365 58.1844 61.4066 57.8816 62.3092C57.8108 62.5157 57.7675 62.7926 57.7675 63.071V68.4802H56.1313V61.919Z" fill="black"/>
<path d="M62.35 68.2868H63.5972V63.1081C63.5972 59.6479 61.1107 59.4724 60.6111 59.4724C59.1593 59.4724 58.2111 60.2927 57.8098 61.0599L57.7548 61.1638H57.4204L57.3259 59.6767H56.2637C56.307 60.3168 56.3267 61.0021 56.3267 61.9188V68.2868H57.5777V63.0711C57.5777 62.7552 57.621 62.4613 57.6997 62.243C57.9712 61.3519 58.8131 60.4434 60.0721 60.4434C61.5395 60.4434 62.35 61.4557 62.35 63.2938V68.2868ZM63.9827 68.6724H61.9645V63.2938C61.9645 62.1698 61.634 60.829 60.0721 60.829C59.0098 60.829 58.3016 61.6009 58.0656 62.3653C57.9987 62.5495 57.9633 62.8032 57.9633 63.0711V68.6724H55.9411V61.9188C55.9411 60.9124 55.9214 60.1889 55.8663 59.4984L55.8506 59.2911H57.6918L57.7627 60.4265C58.3095 59.7179 59.2695 59.0865 60.6111 59.0865C61.1737 59.0865 63.9827 59.2805 63.9827 63.1081V68.6724Z" fill="black"/>
</svg>
