<svg width="100" height="100" viewBox="0 0 100 100" fill="none" xmlns="http://www.w3.org/2000/svg">
<path d="M49.9975 0.192215C22.5374 0.192215 0.188754 22.5359 0.188754 50C0.188754 77.4641 22.5374 99.8077 49.9975 99.8077C77.4626 99.8077 99.8063 77.4641 99.8063 50C99.8063 22.5359 77.4626 0.192215 49.9975 0.192215ZM49.9975 100C36.64 100 24.0872 94.7996 14.6441 85.3559C5.20092 75.9123 0 63.3555 0 50C0 36.6444 5.20092 24.0882 14.6441 14.6445C24.0872 5.20041 36.64 -0.000518799 49.9975 -0.000518799C63.355 -0.000518799 75.9128 5.20041 85.3559 14.6445C94.7991 24.0882 100 36.6444 100 50C100 63.3555 94.7991 75.9123 85.3559 85.3559C75.9128 94.7996 63.355 100 49.9975 100Z" fill="#3D76E1"/>
<path d="M51.6397 11.5366H48.3608V3.82003H51.6397V11.5366Z" fill="#7BA2EC"/>
<path d="M55.6546 11.9136L52.3926 11.5747L53.1916 3.89955L56.4537 4.23892L55.6546 11.9136Z" fill="#7BA2EC"/>
<path d="M59.6047 12.708L56.3982 12.0298L57.9967 4.47972L61.2033 5.1584L59.6047 12.708Z" fill="#7BA2EC"/>
<path d="M63.4488 13.9146L60.3276 12.9016L62.7113 5.56216L65.8325 6.57462L63.4488 13.9146Z" fill="#7BA2EC"/>
<path d="M67.1412 15.5195L64.1458 14.184L67.2896 7.13638L70.2851 8.47193L67.1412 15.5195Z" fill="#7BA2EC"/>
<path d="M70.6508 17.5024L67.8123 15.8604L71.6756 9.18115L74.5141 10.8237L70.6508 17.5024Z" fill="#7BA2EC"/>
<path d="M73.9318 19.8423L71.282 17.9125L75.8224 11.6734L78.4722 13.6032L73.9318 19.8423Z" fill="#7BA2EC"/>
<path d="M76.9567 22.512L74.5181 20.3167L79.6868 14.5836L82.1205 16.7788L76.9567 22.512Z" fill="#7BA2EC"/>
<path d="M79.6841 25.4817L77.489 23.0451L83.2207 17.8803L85.4157 20.3169L79.6841 25.4817Z" fill="#7BA2EC"/>
<path d="M82.0867 28.7195L80.1528 26.0674L86.3901 21.527L88.324 24.1791L82.0867 28.7195Z" fill="#7BA2EC"/>
<path d="M84.1401 32.1875L82.4998 29.3484L89.1789 25.4843L90.8192 28.3229L84.1401 32.1875Z" fill="#7BA2EC"/>
<path d="M85.817 35.8511L84.4827 32.856L91.5285 29.7137L92.8628 32.7088L85.817 35.8511Z" fill="#7BA2EC"/>
<path d="M87.0965 39.6689L86.0852 36.5496L93.426 34.1668L94.4373 37.2861L87.0965 39.6689Z" fill="#7BA2EC"/>
<path d="M87.9691 43.6013L87.2874 40.3933L94.8405 38.7962L95.5173 42.0047L87.9691 43.6013Z" fill="#7BA2EC"/>
<path d="M88.4206 47.6055L88.0845 44.3432L95.7618 43.5459L96.0979 46.8076L88.4206 47.6055Z" fill="#7BA2EC"/>
<path d="M96.1798 51.6392H88.4622V48.3598H96.1798V51.6392Z" fill="#7BA2EC"/>
<path d="M95.7618 56.4543L88.0845 55.657L88.4206 52.3947L96.0979 53.1921L95.7618 56.4543Z" fill="#7BA2EC"/>
<path d="M94.8405 61.2043L87.2874 59.6073L87.9691 56.3987L95.5173 57.9958L94.8405 61.2043Z" fill="#7BA2EC"/>
<path d="M93.426 65.8325L86.0852 63.4492L87.0965 60.3304L94.4373 62.7132L93.426 65.8325Z" fill="#7BA2EC"/>
<path d="M91.5285 70.2861L84.4827 67.1438L85.817 64.1487L92.8628 67.2911L91.5285 70.2861Z" fill="#7BA2EC"/>
<path d="M89.1789 74.5142L82.4998 70.6506L84.1401 67.8114L90.8192 71.6755L89.1789 74.5142Z" fill="#7BA2EC"/>
<path d="M86.3901 78.4734L80.1528 73.933L82.0867 71.2814L88.324 75.8223L86.3901 78.4734Z" fill="#7BA2EC"/>
<path d="M83.2207 82.1189L77.489 76.9541L79.6841 74.5175L85.4157 79.6823L83.2207 82.1189Z" fill="#7BA2EC"/>
<path d="M79.6868 85.4153L74.5181 79.6821L76.9567 77.4869L82.1205 83.2201L79.6868 85.4153Z" fill="#7BA2EC"/>
<path d="M75.8224 88.3254L71.282 82.0868L73.9318 80.157L78.4722 86.3956L75.8224 88.3254Z" fill="#7BA2EC"/>
<path d="M71.6756 90.8184L67.8123 84.1396L70.6508 82.4971L74.5141 89.1763L71.6756 90.8184Z" fill="#7BA2EC"/>
<path d="M67.2896 92.864L64.1458 85.8169L67.1412 84.4814L70.2851 91.5285L67.2896 92.864Z" fill="#C8D8FA"/>
<path d="M62.7113 94.4365L60.3276 87.0975L63.4488 86.0846L65.8325 93.4241L62.7113 94.4365Z" fill="#C8D8FA"/>
<path d="M57.992 95.5198L56.3982 87.9697L59.6047 87.291L61.2033 94.8411L57.992 95.5198Z" fill="#C8D8FA"/>
<path d="M53.1916 96.0996L52.3926 88.4245L55.6546 88.0856L56.4537 95.7607L53.1916 96.0996Z" fill="#C8D8FA"/>
<path d="M51.6397 96.1799H48.3608V88.4633H51.6397V96.1799Z" fill="#C8D8FA"/>
<path d="M46.8052 96.0996L43.5437 95.7609L44.3428 88.0857L47.6043 88.4244L46.8052 96.0996Z" fill="#C8D8FA"/>
<path d="M42 95.5198L38.7927 94.8409L40.3917 87.2908L43.599 87.9697L42 95.5198Z" fill="#C8D8FA"/>
<path d="M37.2854 94.4368L34.1685 93.4244L36.5499 86.0853L39.6668 87.0976L37.2854 94.4368Z" fill="#C8D8FA"/>
<path d="M32.7086 92.8635L29.7126 91.5279L32.8549 84.4809L35.8508 85.8165L32.7086 92.8635Z" fill="#C8D8FA"/>
<path d="M28.3213 90.8191L25.4812 89.1769L29.3453 82.4973L32.1854 84.1399L28.3213 90.8191Z" fill="#C8D8FA"/>
<path d="M24.1786 88.3254L21.5239 86.3956L26.0677 80.1571L28.7178 82.0865L24.1786 88.3254Z" fill="#C8D8FA"/>
<path d="M20.3184 85.415L17.8828 83.2199L23.0471 77.4868L25.4827 79.682L20.3184 85.415Z" fill="#C8D8FA"/>
<path d="M16.7779 82.1199L14.5813 79.6834L20.3132 74.518L22.5098 76.9549L16.7779 82.1199Z" fill="#C8D8FA"/>
<path d="M13.6037 78.4734L11.6702 75.822L17.9093 71.2814L19.8383 73.9333L13.6037 78.4734Z" fill="#C8D8FA"/>
<path d="M10.8237 74.5149L9.18188 71.6761L15.8605 67.8113L17.5023 70.6505L10.8237 74.5149Z" fill="#C8D8FA"/>
<path d="M8.47147 70.2859L7.13672 67.2907L14.1842 64.1478L15.519 67.1434L8.47147 70.2859Z" fill="#C8D8FA"/>
<path d="M6.57612 65.832L5.56396 62.713L12.9022 60.3299L13.9143 63.449L6.57612 65.832Z" fill="#C8D8FA"/>
<path d="M5.15757 61.2041L4.47949 57.9954L12.0315 56.3981L12.7096 59.6068L5.15757 61.2041Z" fill="#C8D8FA"/>
<path d="M4.23707 56.4536L3.90063 53.1917L11.5772 52.394L11.9136 55.6563L4.23707 56.4536Z" fill="#C8D8FA"/>
<path d="M11.5351 51.6394H3.81836V48.3598H11.5351V51.6394Z" fill="#C8D8FA"/>
<path d="M11.5772 47.6042L3.90063 46.8069L4.23707 43.5446L11.9136 44.342L11.5772 47.6042Z" fill="#C8D8FA"/>
<path d="M12.0315 43.6008L4.47949 42.004L5.15757 38.7957L12.7096 40.3925L12.0315 43.6008Z" fill="#C8D8FA"/>
<path d="M12.9022 39.6687L5.56396 37.2857L6.57612 34.1666L13.9143 36.5492L12.9022 39.6687Z" fill="#C8D8FA"/>
<path d="M14.1842 35.8506L7.13672 32.7081L8.47147 29.7125L15.519 32.8554L14.1842 35.8506Z" fill="#C8D8FA"/>
<path d="M15.8605 32.1875L9.18188 28.3226L10.8237 25.4843L17.5023 29.3492L15.8605 32.1875Z" fill="#C8D8FA"/>
<path d="M17.9093 28.7192L11.6702 24.1791L13.6037 21.5273L19.8383 26.0674L17.9093 28.7192Z" fill="#C8D8FA"/>
<path d="M20.3132 25.4822L14.5813 20.3172L16.7779 17.8807L22.5098 23.0457L20.3132 25.4822Z" fill="#C8D8FA"/>
<path d="M23.0471 22.5112L17.8828 16.7787L20.3184 14.5835L25.4827 20.3165L23.0471 22.5112Z" fill="#C8D8FA"/>
<path d="M26.0677 19.842L21.5239 13.6031L24.1786 11.6733L28.7178 17.9122L26.0677 19.842Z" fill="#C8D8FA"/>
<path d="M29.3453 17.5032L25.4812 10.8244L28.3213 9.1818L32.1854 15.861L29.3453 17.5032Z" fill="#C8D8FA"/>
<path d="M32.8549 15.5193L29.7126 8.47135L32.7086 7.13576L35.8508 14.1837L32.8549 15.5193Z" fill="#C8D8FA"/>
<path d="M36.5496 13.9146L34.1682 6.57489L37.2898 5.5621L39.6712 12.9018L36.5496 13.9146Z" fill="#C8D8FA"/>
<path d="M40.3917 12.7092L38.7927 5.15964L42 4.48073L43.599 12.0303L40.3917 12.7092Z" fill="#C8D8FA"/>
<path d="M44.3428 11.9133L43.5437 4.23858L46.8052 3.8994L47.6043 11.5746L44.3428 11.9133Z" fill="#C8D8FA"/>
<path d="M35.6384 52.2893V50.5925L37.8065 48.4872C43.0221 43.5228 45.381 40.8834 45.4136 37.8043C45.4136 35.7306 44.4086 33.8142 41.3565 33.8142C39.5047 33.8142 37.9647 34.7568 37.0203 35.5422L36.1409 33.5941C37.5553 32.3998 39.5652 31.5205 41.9241 31.5205C46.3208 31.5205 48.1772 34.5368 48.1772 37.4586C48.1772 41.2291 45.4415 44.277 41.1378 48.4244L39.5047 49.9328V49.9956H48.6797V52.2893H35.6384Z" fill="black"/>
<path d="M35.9693 51.9624H48.3552V50.3212H39.181V49.7891L40.9218 48.1842C44.9759 44.2743 47.8525 41.2139 47.8525 37.4581C47.8525 34.8687 46.3025 31.846 41.9272 31.846C39.9443 31.846 38.0452 32.4981 36.5418 33.6869L37.1469 35.0256C38.143 34.2715 39.5999 33.4873 41.3593 33.4873C44.1428 33.4873 45.7393 35.0605 45.7393 37.8035C45.7067 41.0678 43.2491 43.7619 38.0359 48.7228L35.9693 50.7298V51.9624ZM49.0069 52.6145H35.3176V50.4538L37.5844 48.2527C42.8534 43.2378 45.0597 40.6777 45.0877 37.8007C45.0877 36.435 44.6036 34.1394 41.3593 34.1394C39.4928 34.1394 37.9754 35.175 37.2307 35.7917L36.9048 36.0664L35.7458 33.5031L35.932 33.3444C37.5751 31.9573 39.7023 31.1935 41.9272 31.1935C46.4701 31.1935 48.5042 34.3395 48.5042 37.4581C48.5042 41.4709 45.5485 44.6318 41.364 48.6585L40.2748 49.669H49.0069V52.6145Z" fill="black"/>
<path d="M63.9485 34.1914H56.1557L55.3721 39.4383C55.8423 39.3756 56.2791 39.3125 57.0342 39.3125C58.606 39.3125 60.1779 39.6582 61.4363 40.4123C63.0367 41.3236 64.3568 43.083 64.3568 45.6597C64.3568 49.6497 61.1799 52.6348 56.754 52.6348C54.5221 52.6348 52.6368 52.0065 51.6633 51.3782L52.3519 49.2731C53.2019 49.7755 54.8688 50.4042 56.7208 50.4042C59.3279 50.4042 61.5598 48.7075 61.5598 45.9736C61.5265 43.3343 59.7695 41.449 55.6856 41.449C54.5221 41.449 53.6103 41.5753 52.8553 41.6693L54.1754 31.8659H63.9485V34.1914Z" fill="black"/>
<path d="M52.056 51.2326C52.9824 51.7552 54.6784 52.3086 56.7545 52.3086C60.9732 52.3086 64.0328 49.5123 64.0328 45.6589C64.0328 43.5007 63.0256 41.6916 61.2773 40.6953C60.1371 40.0121 58.6358 39.6383 57.0396 39.6383C56.3364 39.6383 55.9136 39.6943 55.4718 39.7532L54.9825 39.8183L55.8756 33.8646H63.6242V32.1918H54.4647L53.2389 41.2925C53.9088 41.2098 54.7164 41.1229 55.6856 41.1229C59.5907 41.1229 61.8522 42.8892 61.8902 45.9697C61.8902 48.7294 59.7143 50.7295 56.7213 50.7295C55.0633 50.7295 53.5145 50.2354 52.5406 49.7461L52.056 51.2326ZM56.7545 52.9604C54.3649 52.9604 52.4218 52.2554 51.4859 51.6516L51.2769 51.5153L52.1748 48.7845L52.5216 48.9916C53.3672 49.4924 54.973 50.0777 56.7213 50.0777C58.9684 50.0777 61.2346 48.6676 61.2346 45.9735C61.2013 43.2669 59.2344 41.7747 55.6856 41.7747C54.6262 41.7747 53.7948 41.8797 53.0584 41.9719L52.4788 42.045L53.8946 31.5396H64.2751V34.5164H56.4363L55.7569 39.0591C56.1037 39.0188 56.4932 38.986 57.0396 38.986C58.7736 38.986 60.3557 39.3822 61.6051 40.1323C63.5577 41.244 64.6836 43.2593 64.6836 45.6589C64.6836 49.89 61.3485 52.9604 56.7545 52.9604Z" fill="black"/>
<path d="M36.2788 61.9188C36.2788 60.99 36.2602 60.2275 36.2043 59.484H37.6382L37.7127 60.9342H37.7685C38.2713 60.079 39.1046 59.2796 40.5943 59.2796C41.8187 59.2796 42.7497 60.0231 43.1408 61.0827H43.178C43.4527 60.5808 43.8112 60.1916 44.1789 59.9114C44.7189 59.504 45.3148 59.2796 46.1714 59.2796C47.3585 59.2796 49.1229 60.0603 49.1229 63.1827V68.48H47.5261V63.387C47.5261 61.6585 46.893 60.6181 45.5709 60.6181C44.6445 60.6181 43.9136 61.3038 43.6389 62.105C43.5644 62.3275 43.5132 62.625 43.5132 62.9224V68.48H41.9118V63.09C41.9118 61.6585 41.2833 60.6181 40.0357 60.6181C39.0115 60.6181 38.2713 61.4355 38.0106 62.2535C37.9175 62.4951 37.8803 62.7739 37.8803 63.0528V68.48H36.2788V61.9188Z" fill="black"/>
<path d="M47.7193 68.2868H48.93V63.1823C48.93 60.4466 47.5051 59.4725 46.1686 59.4725C45.405 59.4725 44.8462 59.6494 44.2967 60.0648C43.9195 60.3465 43.5936 60.7307 43.3468 61.1758L43.2909 61.275H43.0068L42.9603 61.1488C42.5738 60.0988 41.6891 59.4725 40.5948 59.4725C39.4167 59.4725 38.5505 59.9823 37.9359 61.0315L37.8753 61.1265H37.5308L37.4563 59.6764H36.4132C36.4551 60.3162 36.4738 61.0021 36.4738 61.9185V68.2868H37.6891V63.0524C37.6891 62.7227 37.7357 62.4307 37.8288 62.1839C38.0942 61.342 38.9045 60.4247 40.036 60.4247C41.3119 60.4247 42.1035 61.4459 42.1035 63.0897V68.2868H43.3188V62.922C43.3188 62.6305 43.3701 62.3101 43.4585 62.0433C43.7379 61.2363 44.5016 60.4247 45.5726 60.4247C46.9556 60.4247 47.7193 61.4766 47.7193 63.3867V68.2868ZM49.3164 68.6724H47.3328V63.3867C47.3328 62.2114 47.0301 60.8103 45.5726 60.8103C44.6925 60.8103 44.0592 61.4925 43.8217 62.1681C43.7472 62.3944 43.7053 62.6706 43.7053 62.922V68.6724H41.7217V63.0897C41.7217 61.6624 41.0884 60.8103 40.036 60.8103C39.1 60.8103 38.4248 61.5884 38.192 62.3115C38.1128 62.5248 38.0709 62.7707 38.0709 63.0524V68.6724H36.0873V61.9185C36.0873 60.9123 36.0686 60.1886 36.0127 59.4981L35.9988 59.2909H37.8241L37.88 60.4187C38.5459 59.5339 39.4539 59.0864 40.5948 59.0864C41.7217 59.0864 42.6902 59.696 43.1838 60.699C43.4306 60.3288 43.7333 60.007 44.0639 59.757C44.6785 59.2932 45.3258 59.0864 46.1686 59.0864C47.6913 59.0864 49.3164 60.1625 49.3164 63.1823V68.6724Z" fill="black"/>
<path d="M51.7825 68.48V59.484H53.4168V68.48H51.7825ZM53.6041 56.9562C53.6229 57.5139 53.2154 57.9602 52.5598 57.9602C51.9885 57.9602 51.5764 57.5139 51.5764 56.9562C51.5764 56.3807 52.0073 55.9344 52.602 55.9344C53.2155 55.9344 53.6041 56.3807 53.6041 56.9562Z" fill="black"/>
<path d="M52.5994 56.1268C52.117 56.1268 51.7703 56.4757 51.7703 56.9563C51.7703 57.4182 52.1123 57.7667 52.562 57.7667C52.829 57.7667 53.0491 57.6823 53.2084 57.5221C53.3442 57.3779 53.4191 57.1793 53.4098 56.9624V56.9563C53.4098 56.4603 53.0866 56.1268 52.5994 56.1268ZM52.562 58.1526C51.8921 58.1526 51.3862 57.6383 51.3862 56.9563C51.3862 56.2635 51.9062 55.7408 52.5994 55.7408C53.2927 55.7408 53.7938 56.2504 53.7985 56.953C53.8079 57.2739 53.6955 57.5713 53.4847 57.7905C53.2599 58.0243 52.932 58.1526 52.562 58.1526ZM51.9765 68.2866H53.2224V59.6768H51.9765V68.2866ZM53.6112 68.6726H51.5923V59.2909H53.6112V68.6726Z" fill="black"/>
<path d="M56.1301 61.9191C56.1301 60.99 56.1159 60.2279 56.0542 59.4843H57.5062L57.6012 60.9715H57.6392C58.0805 60.1164 59.1244 59.2798 60.6097 59.2798C61.8577 59.2798 63.7891 60.0234 63.7891 63.1088V68.48H62.1519V63.2948C62.1519 61.8451 61.6157 60.6365 60.0687 60.6365C58.9915 60.6365 58.1801 61.4066 57.8811 62.3092C57.81 62.5156 57.7672 62.7927 57.7672 63.0713V68.48H56.1301V61.9191Z" fill="black"/>
<path d="M62.345 68.2869H63.5981V63.108C63.5981 59.6478 61.1109 59.4727 60.6125 59.4727C59.1554 59.4727 58.2108 60.2924 57.8074 61.0599L57.7551 61.1639H57.4182L57.3279 59.6768H56.2648C56.3075 60.3166 56.3265 61.0025 56.3265 61.9186V68.2869H57.5748V63.071C57.5748 62.7554 57.6175 62.4611 57.6982 62.2428C57.9687 61.3518 58.8136 60.4434 60.0714 60.4434C61.5381 60.4434 62.345 61.4558 62.345 63.2941V68.2869ZM63.9825 68.6724H61.9606V63.2941C61.9606 62.1697 61.633 60.8292 60.0714 60.8292C59.0082 60.8292 58.2962 61.601 58.0637 62.3657C57.9972 62.5494 57.9592 62.8033 57.9592 63.071V68.6724H55.9372V61.9186C55.9372 60.9123 55.9182 60.1889 55.866 59.4983L55.8518 59.2909H57.6887L57.7599 60.4267C58.3058 59.7181 59.2693 59.0868 60.6125 59.0868C61.1726 59.0868 63.9825 59.2805 63.9825 63.108V68.6724Z" fill="black"/>
</svg>
