<svg width="100" height="100" viewBox="0 0 100 100" fill="none" xmlns="http://www.w3.org/2000/svg">
<path d="M50 0.192383C22.5363 0.192383 0.192936 22.5355 0.192936 49.9992C0.192936 77.4629 22.5363 99.8076 50 99.8076C77.4637 99.8076 99.8071 77.4629 99.8071 49.9992C99.8071 22.5355 77.4637 0.192383 50 0.192383ZM50 100C36.6445 100 24.0885 94.7982 14.6448 85.3547C5.20104 75.9109 0 63.3547 0 49.9992C0 36.6437 5.20104 24.0877 14.6448 14.644C24.0885 5.20023 36.6445 -0.000556946 50 -0.000556946C63.3555 -0.000556946 75.9115 5.20023 85.3555 14.644C94.799 24.0877 100 36.6437 100 49.9992C100 63.3547 94.799 75.9109 85.3555 85.3547C75.9115 94.7982 63.3555 100 50 100Z" fill="#3D76E1"/>
<path d="M87.0972 39.6687L86.0845 36.5493L93.4239 34.1663L94.4366 37.2857L87.0972 39.6687Z" fill="#7BA2EC"/>
<path d="M87.9696 43.6006L87.291 40.392L94.8402 38.7952L95.5188 42.0038L87.9696 43.6006Z" fill="#7BA2EC"/>
<path d="M88.4243 47.6042L88.0854 44.3423L95.7611 43.545L96.1 46.8066L88.4243 47.6042Z" fill="#7BA2EC"/>
<path d="M96.1797 51.6387H88.4629V48.3591H96.1797V51.6387Z" fill="#7BA2EC"/>
<path d="M95.7611 56.4531L88.0854 55.6558L88.4243 52.3939L96.1 53.1912L95.7611 56.4531Z" fill="#7BA2EC"/>
<path d="M94.8402 61.2031L87.291 59.6063L87.9696 56.3975L95.5188 57.9942L94.8402 61.2031Z" fill="#7BA2EC"/>
<path d="M93.4239 65.832L86.0845 63.4487L87.0972 60.3293L94.4366 62.7126L93.4239 65.832Z" fill="#7BA2EC"/>
<path d="M20.3172 85.4155L17.8806 83.2194L23.0458 77.4865L25.4824 79.6816L20.3172 85.4155Z" fill="#C8D8FA"/>
<path d="M16.7798 82.1182L14.5847 79.6818L20.3173 74.5169L22.5124 76.9533L16.7798 82.1182Z" fill="#C8D8FA"/>
<path d="M13.6039 78.4722L11.6741 75.8204L17.9129 71.28L19.8428 73.9318L13.6039 78.4722Z" fill="#C8D8FA"/>
<path d="M10.8238 74.5142L9.1814 71.6756L15.861 67.8108L17.5034 70.6494L10.8238 74.5142Z" fill="#C8D8FA"/>
<path d="M8.47172 70.2856L7.13623 67.29L14.184 64.1476L15.5195 67.143L8.47172 70.2856Z" fill="#C8D8FA"/>
<path d="M6.57618 65.8318L5.56348 62.7124L12.9024 60.3296L13.9151 63.449L6.57618 65.8318Z" fill="#C8D8FA"/>
<path d="M5.15955 61.2031L4.48071 57.9942L12.0307 56.3975L12.7096 59.6061L5.15955 61.2031Z" fill="#C8D8FA"/>
<path d="M4.23928 56.4531L3.90039 53.1912L11.5753 52.3941L11.9142 55.6558L4.23928 56.4531Z" fill="#C8D8FA"/>
<path d="M11.5366 51.6387H3.82031V48.3591H11.5366V51.6387Z" fill="#C8D8FA"/>
<path d="M11.5753 47.6042L3.90039 46.8066L4.23928 43.545L11.9142 44.3423L11.5753 47.6042Z" fill="#C8D8FA"/>
<path d="M12.0307 43.6008L4.48071 42.0038L5.15955 38.7952L12.7096 40.3922L12.0307 43.6008Z" fill="#C8D8FA"/>
<path d="M12.9024 39.6687L5.56348 37.2859L6.57618 34.1665L13.9151 36.5493L12.9024 39.6687Z" fill="#C8D8FA"/>
<path d="M14.184 35.8506L7.13623 32.708L8.47172 29.7126L15.5195 32.8552L14.184 35.8506Z" fill="#C8D8FA"/>
<path d="M15.861 32.1873L9.1814 28.3228L10.8238 25.4839L17.5034 29.3487L15.861 32.1873Z" fill="#C8D8FA"/>
<path d="M17.9129 28.7183L11.6741 24.1778L13.6039 21.5261L19.8428 26.0665L17.9129 28.7183Z" fill="#C8D8FA"/>
<path d="M20.3173 25.4812L14.5847 20.3161L16.7798 17.88L22.5124 23.0448L20.3173 25.4812Z" fill="#C8D8FA"/>
<path d="M23.046 22.512L17.8809 16.7788L20.3172 14.5837L25.4824 20.3168L23.046 22.512Z" fill="#C8D8FA"/>
<path d="M53.6051 42.5162C53.6051 47.8262 55.2388 50.8425 57.7525 50.8425C60.5802 50.8425 61.9313 47.5433 61.9313 42.328C61.9313 37.3004 60.6431 34.0015 57.7839 34.0015C55.3644 34.0015 53.6051 36.9549 53.6051 42.5162ZM64.6963 42.2021C64.6963 49.1459 62.1198 52.9792 57.5952 52.9792C53.6051 52.9792 50.9029 49.2404 50.8398 42.4851C50.8398 35.6352 53.7935 31.865 57.9409 31.865C62.2457 31.865 64.6963 35.6981 64.6963 42.2021Z" fill="black"/>
<path d="M57.7839 34.3274C55.4075 34.3274 53.931 37.4653 53.931 42.5162C53.931 47.4509 55.3953 50.5162 57.7525 50.5162C61.1047 50.5162 61.6051 45.3859 61.6051 42.328C61.6051 39.34 61.1087 34.3274 57.7839 34.3274ZM57.7525 51.1684C54.9511 51.1684 53.2789 47.9339 53.2789 42.5162C53.2789 37.0628 55.005 33.6753 57.7839 33.6753C60.6687 33.6753 62.2573 36.7482 62.2573 42.328C62.2573 48.0287 60.6576 51.1684 57.7525 51.1684ZM57.9409 32.1912C53.7621 32.1912 51.1661 36.1354 51.1661 42.485C51.2252 48.8508 53.6288 52.653 57.5952 52.653C61.9641 52.653 64.3703 48.9416 64.3703 42.2021C64.3703 35.8398 62.0269 32.1912 57.9409 32.1912ZM57.5952 53.3052C53.2894 53.3052 50.5759 49.1604 50.5139 42.4879C50.5139 35.7331 53.3599 31.539 57.9409 31.539C62.4412 31.539 65.0225 35.4254 65.0225 42.2021C65.0225 49.2583 62.3154 53.3052 57.5952 53.3052Z" fill="black"/>
<path d="M36.0578 49.1148C36.8432 49.6176 38.6654 50.403 40.5821 50.403C44.1325 50.403 45.2326 48.1409 45.2009 46.4441C45.1695 43.5849 42.593 42.3595 39.9225 42.3595H38.3827V40.2857H39.9225C41.9334 40.2857 44.4782 39.2488 44.4782 36.8296C44.4782 35.1956 43.4415 33.7503 40.8964 33.7503C39.2624 33.7503 37.6915 34.4729 36.8118 35.1013L36.0889 33.0904C37.1573 32.305 39.231 31.5195 41.4304 31.5195C45.4521 31.5195 47.2746 33.9073 47.2746 36.3896C47.2746 38.4947 46.0178 40.2857 43.5043 41.1968V41.2597C46.0178 41.7624 48.0601 43.6477 48.0601 46.5069C48.0601 49.7746 45.5152 52.6338 40.6137 52.6338C38.3199 52.6338 36.309 51.9111 35.3037 51.2513L36.0578 49.1148Z" fill="black"/>
<path d="M35.6987 51.1119C36.7571 51.7269 38.6122 52.3078 40.6139 52.3078C45.5325 52.3078 47.7343 49.3942 47.7343 46.5068C47.7343 44.0351 46.0488 42.101 43.4404 41.5795L43.1783 41.527V40.968L43.3934 40.8904C45.6859 40.0592 46.9485 38.4609 46.9485 36.3895C46.9485 34.2934 45.5035 31.8457 41.4305 31.8457C39.4217 31.8457 37.547 32.5129 36.4807 33.2155L36.978 34.5996C37.9527 33.9951 39.3974 33.424 40.8966 33.424C43.7779 33.424 44.8046 35.1834 44.8046 36.8295C44.8046 39.3126 42.3487 40.6119 39.9227 40.6119H38.7088V42.0332H39.9227C42.4857 42.0332 45.4914 43.1876 45.5273 46.4406C45.5476 47.5443 45.1324 48.6138 44.3876 49.3723C43.504 50.2726 42.2236 50.7289 40.5822 50.7289C38.7957 50.7289 37.121 50.0718 36.2345 49.5946L35.6987 51.1119ZM40.6139 52.96C38.1773 52.96 36.1342 52.1864 35.1247 51.5239L34.9111 51.3838L35.8874 48.6183L36.2337 48.84C36.902 49.2678 38.6706 50.0768 40.5822 50.0768C42.042 50.0768 43.1659 49.6862 43.9223 48.9155C44.5452 48.281 44.8925 47.3826 44.8751 46.4501C44.8445 43.6706 42.188 42.6854 39.9227 42.6854H38.0567V39.9595H39.9227C41.6229 39.9595 44.1524 39.126 44.1524 36.8295C44.1524 36.0018 43.8352 34.0764 40.8966 34.0764C39.3547 34.0764 37.8347 34.7714 37.0015 35.3665L36.6507 35.6173L35.7 32.9719L35.8961 32.8278C37.0023 32.0141 39.1427 31.1932 41.4305 31.1932C45.693 31.1932 47.6007 33.8033 47.6007 36.3895C47.6007 38.4627 46.4526 40.1661 44.418 41.1635C46.8562 41.9701 48.3864 43.9913 48.3864 46.5068C48.3864 49.7189 45.9831 52.96 40.6139 52.96Z" fill="black"/>
<path d="M35.9921 61.9177C35.9921 60.9886 35.9734 60.2267 35.9177 59.4829H37.3488L37.4232 60.933H37.4789C37.9806 60.0778 38.8173 59.2786 40.304 59.2786C41.5305 59.2786 42.4598 60.0219 42.8502 61.0815H42.8874C43.1661 60.5795 43.5203 60.1902 43.8911 59.9105C44.4311 59.503 45.0249 59.2786 45.8798 59.2786C47.0694 59.2786 48.8348 60.0593 48.8348 63.1816V68.4788H47.2364V63.3862C47.2364 61.6577 46.6046 60.6168 45.2849 60.6168C44.3556 60.6168 43.6256 61.3027 43.3521 62.1038C43.2761 62.3262 43.222 62.624 43.222 62.9214V68.4788H41.6237V63.0887C41.6237 61.6577 40.9915 60.6168 39.7463 60.6168C38.7241 60.6168 37.9806 61.4344 37.7206 62.2523C37.6277 62.4941 37.5903 62.7728 37.5903 63.0515V68.4788H35.9921V61.9177Z" fill="black"/>
<path d="M47.5629 68.1525H48.5091V63.1816C48.5091 59.8624 46.4969 59.6046 45.8801 59.6046C45.1469 59.6046 44.6111 59.7737 44.0882 60.1702C43.7272 60.441 43.411 60.8105 43.1727 61.2399L43.0795 61.4075H42.6231L42.5445 61.194C42.1779 60.1989 41.3404 59.6046 40.3042 59.6046C39.182 59.6046 38.3498 60.0931 37.7602 61.0979L37.6657 61.2589H37.1136L37.0391 59.8091H36.2666C36.3025 60.4122 36.3183 61.0657 36.3183 61.9177V68.1525H37.2645V63.0515C37.2645 62.7058 37.3155 62.3972 37.4163 62.1354C37.705 61.2262 38.5417 60.2905 39.7466 60.2905C41.1055 60.2905 41.9499 61.3626 41.9499 63.0887V68.1525H42.8961V62.9214C42.8961 62.6158 42.9496 62.28 43.0431 62.0003C43.3408 61.1472 44.1484 60.2905 45.2852 60.2905C46.1358 60.2905 47.5629 60.6927 47.5629 63.3859V68.1525ZM49.1613 68.8047H46.9107V63.3859C46.9107 61.7648 46.3638 60.9427 45.2852 60.9427C44.4686 60.9427 43.8805 61.5798 43.6604 62.2109C43.5897 62.4226 43.5482 62.6831 43.5482 62.9214V68.8047H41.2977V63.0887C41.2977 62.5854 41.1858 60.9427 39.7466 60.9427C38.8761 60.9427 38.2472 61.6727 38.0315 62.3513C37.9542 62.5537 37.9167 62.7897 37.9167 63.0515V68.8047H35.6662V61.9177C35.6662 60.9155 35.6443 60.1944 35.5928 59.5072L35.5664 59.1569H37.6589L37.7056 60.0678C38.3731 59.3269 39.2438 58.9524 40.3042 58.9524C41.4114 58.9524 42.3679 59.5119 42.9108 60.4449C43.1397 60.1372 43.4054 59.8672 43.6958 59.6494C44.3308 59.1678 45.0049 58.9524 45.8801 58.9524C46.428 58.9524 49.1613 59.1561 49.1613 63.1816V68.8047Z" fill="black"/>
<path d="M51.4941 68.4788V59.4829H53.1297V68.4788H51.4941ZM53.3155 56.9552C53.334 57.5129 52.9251 57.959 52.2745 57.959C51.6984 57.959 51.2896 57.5129 51.2896 56.9552C51.2896 56.3793 51.7171 55.933 52.3118 55.933C52.9251 55.933 53.3155 56.3793 53.3155 56.9552Z" fill="black"/>
<path d="M52.3118 56.2592C51.9085 56.2592 51.6158 56.5519 51.6158 56.9552C51.6158 57.3479 51.8929 57.633 52.2746 57.633C52.5037 57.633 52.6929 57.5623 52.822 57.4287C52.9378 57.3091 52.9956 57.1492 52.9896 56.9663L52.9893 56.9552C52.9893 56.5324 52.7235 56.2592 52.3118 56.2592ZM52.2746 58.2852C51.5271 58.2852 50.9634 57.7135 50.9634 56.9552C50.9634 56.1866 51.5432 55.607 52.3118 55.607C53.0806 55.607 53.6391 56.1713 53.6415 56.9499C53.652 57.3065 53.5277 57.6375 53.291 57.8821C53.0395 58.1419 52.6787 58.2852 52.2746 58.2852ZM51.8201 68.1525H52.8035V59.8091H51.8201V68.1525ZM53.4557 68.8047H51.1679V59.1569H53.4557V68.8047Z" fill="black"/>
<path d="M55.8435 61.9177C55.8435 60.9886 55.8247 60.2267 55.769 59.4829H57.2188L57.3117 60.9699H57.3489C57.795 60.115 58.8359 59.2786 60.3227 59.2786C61.5679 59.2786 63.5009 60.0219 63.5009 63.1072V68.4788H61.8653V63.2933C61.8653 61.8435 61.3264 60.6355 59.7837 60.6355C58.7058 60.6355 57.8929 61.4051 57.5907 62.308C57.5215 62.5144 57.4791 62.7913 57.4791 63.07V68.4788H55.8435V61.9177Z" fill="black"/>
<path d="M62.1916 68.1525H63.1747V63.1072C63.1747 59.8571 60.9917 59.6046 60.3227 59.6046C58.9267 59.6046 58.0204 60.3876 57.6379 61.1208L57.5466 61.2961H57.0053L56.9124 59.8091H56.1177C56.1539 60.4125 56.1697 61.0659 56.1697 61.9177V68.1525H57.1528V63.07C57.1528 62.7395 57.1996 62.4292 57.284 62.1966C57.6271 61.0741 58.6338 60.3093 59.7837 60.3093C61.3137 60.3093 62.1916 61.3969 62.1916 63.2933V68.1525ZM63.8269 68.8047H61.5391V63.2933C61.5391 61.7458 60.9487 60.9614 59.7837 60.9614C58.7889 60.9614 58.122 61.6857 57.9024 62.4033C57.8385 62.5801 57.805 62.8171 57.805 63.07V68.8047H55.5175V61.9177C55.5175 60.916 55.4953 60.1952 55.4439 59.5072L55.4175 59.1569H57.525L57.5833 60.0899C58.1742 59.4636 59.0941 58.9524 60.3227 58.9524C61.939 58.9524 63.8269 60.0406 63.8269 63.1072V68.8047Z" fill="black"/>
<path d="M51.6397 11.5361H48.3601V3.81982H51.6397V11.5361Z" fill="#7BA2EC"/>
<path d="M55.657 11.9133L52.3948 11.5744L53.1924 3.89956L56.4543 4.23846L55.657 11.9133Z" fill="#7BA2EC"/>
<path d="M59.6068 12.7085L56.3984 12.0299L57.9952 4.48016L61.2038 5.15874L59.6068 12.7085Z" fill="#7BA2EC"/>
<path d="M63.4492 13.9148L60.3301 12.9021L62.7131 5.56214L65.8323 6.57511L63.4492 13.9148Z" fill="#7BA2EC"/>
<path d="M67.1438 15.519L64.1484 14.1833L67.2911 7.13551L70.2862 8.47128L67.1438 15.519Z" fill="#7BA2EC"/>
<path d="M70.6506 17.502L67.812 15.8595L71.6762 9.18125L74.5148 10.8234L70.6506 17.502Z" fill="#7BA2EC"/>
<path d="M73.9322 19.8425L71.2808 17.9124L75.8212 11.6733L78.4729 13.6032L73.9322 19.8425Z" fill="#7BA2EC"/>
<path d="M76.9542 22.512L74.5176 20.3168L79.6827 14.5837L82.1193 16.7788L76.9542 22.512Z" fill="#7BA2EC"/>
<path d="M79.6824 25.4812L77.4873 23.0446L83.2196 17.88L85.4148 20.3166L79.6824 25.4812Z" fill="#7BA2EC"/>
<path d="M82.0871 28.7183L80.1572 26.0665L86.3958 21.5261L88.3257 24.1778L82.0871 28.7183Z" fill="#7BA2EC"/>
<path d="M84.1395 32.1873L82.4971 29.3484L89.1759 25.4842L90.8183 28.3228L84.1395 32.1873Z" fill="#7BA2EC"/>
<path d="M85.816 35.8503L84.4805 32.855L91.528 29.7129L92.8635 32.7082L85.816 35.8503Z" fill="#7BA2EC"/>
<path d="M91.528 70.2856L84.4805 67.143L85.816 64.1476L92.8635 67.29L91.528 70.2856Z" fill="#7BA2EC"/>
<path d="M89.1759 74.5139L82.4971 70.6494L84.1395 67.8108L90.8183 71.6751L89.1759 74.5139Z" fill="#7BA2EC"/>
<path d="M86.3958 78.4722L80.1572 73.9318L82.0871 71.28L88.3257 75.8204L86.3958 78.4722Z" fill="#7BA2EC"/>
<path d="M83.2196 82.1182L77.4873 76.9533L79.6824 74.5169L85.4148 79.6818L83.2196 82.1182Z" fill="#7BA2EC"/>
<path d="M79.6827 85.4155L74.5176 79.6816L76.9539 77.4865L82.1193 83.2194L79.6827 85.4155Z" fill="#7BA2EC"/>
<path d="M75.8214 88.324L71.2812 82.0862L73.9327 80.1561L78.4731 86.3946L75.8214 88.324Z" fill="#7BA2EC"/>
<path d="M71.676 90.8181L67.8115 84.1383L70.6504 82.4958L74.5149 89.1738L71.676 90.8181Z" fill="#7BA2EC"/>
<path d="M67.2908 92.8635L64.1484 85.8166L67.1438 84.4797L70.2859 91.528L67.2908 92.8635Z" fill="#7BA2EC"/>
<path d="M62.7131 94.4365L60.3301 87.0966L63.4492 86.0831L65.8323 93.423L62.7131 94.4365Z" fill="#7BA2EC"/>
<path d="M57.9955 95.5188L56.3984 87.9677L59.6068 87.2894L61.2038 94.8405L57.9955 95.5188Z" fill="#7BA2EC"/>
<path d="M53.1924 96.0994L52.3948 88.4242L55.657 88.0838L56.4543 95.7589L53.1924 96.0994Z" fill="#7BA2EC"/>
<path d="M51.6397 96.1785H48.3601V88.4611H51.6397V96.1785Z" fill="#7BA2EC"/>
<path d="M46.8078 96.0994L43.5459 95.7589L44.3432 88.0838L47.6052 88.4242L46.8078 96.0994Z" fill="#C8D8FA"/>
<path d="M42.0042 95.5188L38.7959 94.8405L40.3927 87.2894L43.6013 87.9677L42.0042 95.5188Z" fill="#C8D8FA"/>
<path d="M37.2869 94.4365L34.1677 93.423L36.5505 86.0831L39.6699 87.0966L37.2869 94.4365Z" fill="#C8D8FA"/>
<path d="M32.7092 92.8635L29.7139 91.528L32.8562 84.4797L35.8513 85.8166L32.7092 92.8635Z" fill="#C8D8FA"/>
<path d="M28.3237 90.8181L25.4849 89.1738L29.3493 82.4958L32.1882 84.1383L28.3237 90.8181Z" fill="#C8D8FA"/>
<path d="M24.1786 88.324L21.5271 86.3946L26.0675 80.1561L28.719 82.0862L24.1786 88.324Z" fill="#C8D8FA"/>
<path d="M26.0675 19.8425L21.5271 13.6032L24.1786 11.6733L28.7192 17.9124L26.0675 19.8425Z" fill="#C8D8FA"/>
<path d="M29.3493 17.502L25.4854 10.8234L28.3239 9.18125L32.1882 15.8595L29.3493 17.502Z" fill="#C8D8FA"/>
<path d="M32.8565 15.519L29.7139 8.47128L32.7092 7.13551L35.8516 14.1833L32.8565 15.519Z" fill="#C8D8FA"/>
<path d="M36.5505 13.9148L34.1672 6.57511L37.2864 5.56214L39.6697 12.9021L36.5505 13.9148Z" fill="#C8D8FA"/>
<path d="M40.3929 12.7085L38.7959 5.15874L42.0042 4.48016L43.6013 12.0299L40.3929 12.7085Z" fill="#C8D8FA"/>
<path d="M44.3432 11.9133L43.5459 4.23846L46.8078 3.89956L47.6052 11.5744L44.3432 11.9133Z" fill="#C8D8FA"/>
</svg>
