<svg width="100" height="100" viewBox="0 0 100 100" fill="none" xmlns="http://www.w3.org/2000/svg">
<path d="M50.0007 0.192032C22.5364 0.192032 0.192667 22.5355 0.192667 49.9995C0.192667 77.4635 22.5364 99.8085 50.0007 99.8085C77.4647 99.8085 99.8073 77.4635 99.8073 49.9995C99.8073 22.5355 77.4647 0.192032 50.0007 0.192032ZM50.0007 100.001C36.6447 100.001 24.0886 94.7991 14.6447 85.3555C5.20084 75.9116 0 63.3551 0 49.9995C0 36.6439 5.20084 24.0877 14.6447 14.6438C24.0886 5.19994 36.6447 -0.000907898 50.0007 -0.000907898C63.3563 -0.000907898 75.9125 5.19994 85.3569 14.6438C94.8005 24.0877 100 36.6439 100 49.9995C100 63.3551 94.8005 75.9116 85.3569 85.3555C75.9125 94.7991 63.3563 100.001 50.0007 100.001Z" fill="#3D76E1"/>
<path d="M51.6402 11.5359H48.3608V3.81947H51.6402V11.5359Z" fill="#7BA2EC"/>
<path d="M55.6577 11.9131L52.3955 11.5742L53.1929 3.89921L56.4551 4.23812L55.6577 11.9131Z" fill="#7BA2EC"/>
<path d="M59.6078 12.7083L56.3994 12.0297L57.9962 4.4798L61.2049 5.15839L59.6078 12.7083Z" fill="#7BA2EC"/>
<path d="M63.4502 13.9146L60.3311 12.9018L62.7141 5.56179L65.8333 6.57477L63.4502 13.9146Z" fill="#7BA2EC"/>
<path d="M67.1448 15.5188L64.1494 14.183L67.2921 7.13516L70.2872 8.47094L67.1448 15.5188Z" fill="#7BA2EC"/>
<path d="M70.6516 17.5015L67.813 15.859L71.677 9.18065L74.5156 10.8228L70.6516 17.5015Z" fill="#7BA2EC"/>
<path d="M73.9333 19.8423L71.2817 17.9121L75.8222 11.673L78.474 13.6029L73.9333 19.8423Z" fill="#7BA2EC"/>
<path d="M76.9552 22.512L74.5186 20.3168L79.6837 14.5836L82.1204 16.7788L76.9552 22.512Z" fill="#7BA2EC"/>
<path d="M79.6834 25.4812L77.4883 23.0446L83.2207 17.8799L85.4148 20.3165L79.6834 25.4812Z" fill="#7BA2EC"/>
<path d="M82.0879 28.718L80.1577 26.0663L86.3966 21.5258L88.326 24.1775L82.0879 28.718Z" fill="#7BA2EC"/>
<path d="M84.1405 32.1873L82.498 29.3484L89.1761 25.4841L90.8204 28.3227L84.1405 32.1873Z" fill="#7BA2EC"/>
<path d="M85.8164 35.8503L84.4819 32.8549L91.5306 29.7128L92.8661 32.7082L85.8164 35.8503Z" fill="#7BA2EC"/>
<path d="M87.0989 39.6687L86.0854 36.5493L93.4255 34.1662L94.439 37.2856L87.0989 39.6687Z" fill="#7BA2EC"/>
<path d="M87.9698 43.6006L87.2915 40.3919L94.84 38.7951L95.521 42.0038L87.9698 43.6006Z" fill="#7BA2EC"/>
<path d="M88.4264 47.6045L88.0859 44.3425L95.7612 43.5452L96.1017 46.8069L88.4264 47.6045Z" fill="#7BA2EC"/>
<path d="M96.1809 51.6389H88.4634V48.3593H96.1809V51.6389Z" fill="#7BA2EC"/>
<path d="M95.7612 56.4534L88.0859 55.656L88.4264 52.394L96.1017 53.1914L95.7612 56.4534Z" fill="#7BA2EC"/>
<path d="M94.84 61.2034L87.2915 59.6066L87.9698 56.3976L95.521 57.9945L94.84 61.2034Z" fill="#7BA2EC"/>
<path d="M93.4255 65.8323L86.0854 63.4489L87.0989 60.3295L94.439 62.7128L93.4255 65.8323Z" fill="#7BA2EC"/>
<path d="M91.5306 70.2859L84.4819 67.1432L85.8164 64.1478L92.8661 67.2902L91.5306 70.2859Z" fill="#7BA2EC"/>
<path d="M89.1761 74.5144L82.498 70.6499L84.1405 67.8112L90.8204 71.6755L89.1761 74.5144Z" fill="#7BA2EC"/>
<path d="M86.3966 78.4727L80.1577 73.9322L82.0879 71.2804L88.326 75.8209L86.3966 78.4727Z" fill="#7BA2EC"/>
<path d="M83.221 82.1187L77.4883 76.9537L79.6834 74.5173L85.415 79.6823L83.221 82.1187Z" fill="#7BA2EC"/>
<path d="M79.6838 85.416L74.5186 79.682L76.9549 77.4869L82.1201 83.2198L79.6838 85.416Z" fill="#7BA2EC"/>
<path d="M75.8224 88.3247L71.2822 82.0869L73.9337 80.1567L78.4742 86.3953L75.8224 88.3247Z" fill="#7BA2EC"/>
<path d="M71.677 90.8188L67.8125 84.1389L70.6514 82.4964L74.5157 89.1745L71.677 90.8188Z" fill="#7BA2EC"/>
<path d="M67.2918 92.8643L64.1494 85.8172L67.1445 84.4804L70.287 91.5287L67.2918 92.8643Z" fill="#7BA2EC"/>
<path d="M62.7141 94.4375L60.3311 87.0975L63.4502 86.084L65.8333 93.424L62.7141 94.4375Z" fill="#7BA2EC"/>
<path d="M57.9965 95.5195L56.3994 87.9683L59.6078 87.29L61.2049 94.8412L57.9965 95.5195Z" fill="#7BA2EC"/>
<path d="M53.1929 96.1001L52.3955 88.4249L55.6577 88.0844L56.4551 95.7596L53.1929 96.1001Z" fill="#7BA2EC"/>
<path d="M51.6402 96.1792H48.3608V88.4617H51.6402V96.1792Z" fill="#7BA2EC"/>
<path d="M46.8084 96.1001L43.5464 95.7596L44.3437 88.0844L47.6057 88.4249L46.8084 96.1001Z" fill="#7BA2EC"/>
<path d="M42.0051 95.5195L38.7964 94.8412L40.3935 87.29L43.6021 87.9683L42.0051 95.5195Z" fill="#7BA2EC"/>
<path d="M37.2871 94.4375L34.168 93.424L36.551 86.084L39.6702 87.0975L37.2871 94.4375Z" fill="#7BA2EC"/>
<path d="M32.7097 92.8643L29.7144 91.5287L32.8568 84.4804L35.8519 85.8172L32.7097 92.8643Z" fill="#7BA2EC"/>
<path d="M28.324 90.8188L25.4854 89.1745L29.3499 82.4964L32.1885 84.1389L28.324 90.8188Z" fill="#7BA2EC"/>
<path d="M24.1791 88.3247L21.5273 86.3953L26.0678 80.1567L28.7196 82.0869L24.1791 88.3247Z" fill="#C8D8FA"/>
<path d="M20.3172 85.416L17.8809 83.2198L23.0461 77.4869L25.4825 79.682L20.3172 85.416Z" fill="#C8D8FA"/>
<path d="M16.7801 82.1189L14.585 79.682L20.3176 74.517L22.5128 76.9537L16.7801 82.1189Z" fill="#C8D8FA"/>
<path d="M13.6042 78.4727L11.6743 75.8209L17.9132 71.2804L19.8431 73.9322L13.6042 78.4727Z" fill="#C8D8FA"/>
<path d="M10.8236 74.5146L9.18115 71.676L15.8611 67.8112L17.5036 70.6498L10.8236 74.5146Z" fill="#C8D8FA"/>
<path d="M8.47175 70.2859L7.13623 67.2902L14.1841 64.1478L15.5196 67.1432L8.47175 70.2859Z" fill="#C8D8FA"/>
<path d="M6.57598 65.832L5.56299 62.7126L12.9022 60.3298L13.915 63.4492L6.57598 65.832Z" fill="#C8D8FA"/>
<path d="M5.15953 61.2034L4.48096 57.9945L12.0311 56.3976L12.7097 59.6063L5.15953 61.2034Z" fill="#C8D8FA"/>
<path d="M4.23955 56.4534L3.90039 53.1914L11.5756 52.3943L11.9145 55.656L4.23955 56.4534Z" fill="#C8D8FA"/>
<path d="M11.5367 51.6389H3.82031V48.3593H11.5367V51.6389Z" fill="#C8D8FA"/>
<path d="M11.5756 47.6045L3.90039 46.8069L4.23955 43.5452L11.9145 44.3425L11.5756 47.6045Z" fill="#C8D8FA"/>
<path d="M12.0311 43.6008L4.48096 42.0038L5.15953 38.7951L12.7097 40.3922L12.0311 43.6008Z" fill="#C8D8FA"/>
<path d="M12.9022 39.6687L5.56299 37.2859L6.57598 34.1664L13.915 36.5493L12.9022 39.6687Z" fill="#C8D8FA"/>
<path d="M14.1841 35.8506L7.13623 32.7079L8.47175 29.7125L15.5196 32.8552L14.1841 35.8506Z" fill="#C8D8FA"/>
<path d="M15.8611 32.1873L9.18115 28.3227L10.8236 25.4838L17.5036 29.3486L15.8611 32.1873Z" fill="#C8D8FA"/>
<path d="M17.913 28.718L11.6743 24.1775L13.6042 21.5258L19.8429 26.0663L17.913 28.718Z" fill="#C8D8FA"/>
<path d="M20.3179 25.4812L14.585 20.3163L16.7801 17.8796L22.513 23.0446L20.3179 25.4812Z" fill="#C8D8FA"/>
<path d="M23.0461 22.512L17.8809 16.7788L20.3175 14.5836L25.4827 20.3168L23.0461 22.512Z" fill="#C8D8FA"/>
<path d="M26.0681 19.8423L21.5273 13.6029L24.1791 11.673L28.7196 17.9121L26.0681 19.8423Z" fill="#C8D8FA"/>
<path d="M29.3498 17.5015L25.4858 10.8228L28.3245 9.18065L32.1885 15.859L29.3498 17.5015Z" fill="#C8D8FA"/>
<path d="M32.857 15.5188L29.7144 8.47094L32.7097 7.13516L35.8522 14.183L32.857 15.5188Z" fill="#C8D8FA"/>
<path d="M36.5513 13.9146L34.168 6.57477L37.2871 5.56179L39.6705 12.9018L36.5513 13.9146Z" fill="#C8D8FA"/>
<path d="M40.3937 12.7083L38.7969 5.15839L42.0053 4.4798L43.6024 12.0297L40.3937 12.7083Z" fill="#C8D8FA"/>
<path d="M44.3437 11.9131L43.5464 4.23812L46.8084 3.89921L47.6057 11.5742L44.3437 11.9131Z" fill="#C8D8FA"/>
<path d="M36.3488 49.115C37.1343 49.6178 38.9565 50.4032 40.8732 50.4032C44.4236 50.4032 45.5237 48.141 45.492 46.4445C45.4606 43.585 42.8841 42.3596 40.2136 42.3596H38.6738V40.2861H40.2136C42.2245 40.2861 44.7694 39.2491 44.7694 36.8296C44.7694 35.1958 43.7326 33.7502 41.1875 33.7502C39.5535 33.7502 37.9825 34.4732 37.1028 35.1016L36.3799 33.0907C37.4483 32.3049 39.5221 31.5197 41.7217 31.5197C45.7433 31.5197 47.5658 33.9076 47.5658 36.3899C47.5658 38.4947 46.3089 40.2861 43.7955 41.1969V41.26C46.3089 41.7625 48.3512 43.6478 48.3512 46.507C48.3512 49.7751 45.8064 52.6343 40.9048 52.6343C38.611 52.6343 36.6001 51.9116 35.5947 51.2515L36.3488 49.115Z" fill="black"/>
<path d="M35.9895 51.1121C37.0478 51.7273 38.903 52.308 40.9047 52.308C45.8234 52.308 48.0252 49.3947 48.0252 46.507C48.0252 44.0355 46.3397 42.1014 43.7315 41.5796L43.4691 41.5273V40.9683L43.6842 40.8904C45.977 40.0596 47.2394 38.4609 47.2394 36.3898C47.2394 34.2936 45.7944 31.8456 41.7216 31.8456C39.7125 31.8456 37.8378 32.5131 36.7712 33.2155L37.2688 34.5998C38.2437 33.9954 39.6882 33.4242 41.1874 33.4242C44.0688 33.4242 45.0955 35.1836 45.0955 36.8298C45.0955 39.3129 42.6393 40.612 40.2135 40.612H38.9996V42.0335H40.2135C42.7766 42.0335 45.7822 43.1877 45.8181 46.4407C45.8385 47.5445 45.4233 48.6142 44.6785 49.3728C43.7948 50.2728 42.5145 50.7294 40.8731 50.7294C39.0868 50.7294 37.4118 50.0722 36.525 49.595L35.9895 51.1121ZM40.9047 52.9604C38.4681 52.9604 36.425 52.1869 35.4157 51.5241L35.2021 51.384L36.1782 48.6187L36.5245 48.8404C37.1927 49.2683 38.9616 50.0772 40.8731 50.0772C42.3329 50.0772 43.4567 49.6863 44.2132 48.9159C44.836 48.2814 45.1831 47.3827 45.166 46.4505C45.1353 43.671 42.4788 42.6857 40.2135 42.6857H38.3475V39.9598H40.2135C41.9138 39.9598 44.4433 39.1263 44.4433 36.8298C44.4433 36.0018 44.126 34.0764 41.1874 34.0764C39.6457 34.0764 38.1255 34.7716 37.2923 35.3668L36.9415 35.6173L35.9908 32.9718L36.1866 32.8277C37.293 32.0143 39.4336 31.1935 41.7216 31.1935C45.9839 31.1935 47.8919 33.8032 47.8919 36.3898C47.8919 38.463 46.7435 40.1665 44.7088 41.1639C47.1471 41.9704 48.6774 43.9914 48.6774 46.507C48.6774 49.7193 46.274 52.9604 40.9047 52.9604Z" fill="black"/>
<path d="M63.9978 34.1902H56.2056L55.4202 39.4375C55.8913 39.3747 56.3313 39.3119 57.0853 39.3119C58.6563 39.3119 60.2275 39.6574 61.4843 40.4117C63.0867 41.3225 64.4064 43.0822 64.4064 45.6587C64.4064 49.6492 61.2331 52.6343 56.8024 52.6343C54.5716 52.6343 52.6866 52.0058 51.7124 51.3772L52.4036 49.2723C53.2519 49.7751 54.9174 50.4032 56.7712 50.4032C59.3789 50.4032 61.61 48.7067 61.61 45.9731C61.5786 43.3337 59.8189 41.4484 55.7342 41.4484C54.5716 41.4484 53.6605 41.5741 52.9065 41.6683L54.2261 31.8652H63.9978V34.1902Z" fill="black"/>
<path d="M52.1033 51.2322C53.0295 51.7545 54.7263 52.308 56.8024 52.308C61.0196 52.308 64.0802 49.5116 64.0802 45.6587C64.0802 43.5005 63.0754 41.6912 61.3231 40.6951C60.1845 40.0121 58.6819 39.6378 57.0854 39.6378C56.3833 39.6378 55.9639 39.6938 55.52 39.7531L55.0333 39.8178L55.9249 33.8642H63.6716V32.1911H54.5112L53.2863 41.2921C53.9546 41.2098 54.7622 41.1222 55.7343 41.1222C59.639 41.1222 61.8993 42.8887 61.936 45.9691C61.936 48.729 59.7641 50.7294 56.7713 50.7294C55.1101 50.7294 53.5616 50.2351 52.5914 49.7457L52.1033 51.2322ZM56.8024 52.9604C54.4125 52.9604 52.4715 52.2552 51.5356 51.6511L51.3242 51.5149L52.2205 48.7847L52.57 48.9917C53.4149 49.4923 55.0222 50.0772 56.7713 50.0772C59.0137 50.0772 61.2838 48.6673 61.2838 45.973C61.2516 43.2669 59.2808 41.7743 55.7343 41.7743C54.6733 41.7743 53.8416 41.8791 53.1076 41.9718L52.527 42.0443L53.9409 31.5389H64.3241V34.5164H56.4865L55.8066 39.059C56.1513 39.0183 56.543 38.9856 57.0854 38.9856C58.8232 38.9856 60.4023 39.382 61.652 40.1321C63.6072 41.2436 64.7324 43.2593 64.7324 45.6587C64.7324 49.8896 61.3973 52.9604 56.8024 52.9604Z" fill="black"/>
<path d="M36.2834 61.9179C36.2834 60.9885 36.2647 60.2266 36.209 59.4831H37.64L37.7145 60.9328H37.7702C38.2719 60.0777 39.1086 59.2785 40.5953 59.2785C41.8218 59.2785 42.7511 60.022 43.1415 61.0814H43.1787C43.4574 60.5797 43.8116 60.1904 44.1825 59.9106C44.7225 59.5031 45.3163 59.2785 46.1712 59.2785C47.3608 59.2785 49.1262 60.0592 49.1262 63.1818V68.4788H47.5278V63.3861C47.5278 61.6576 46.896 60.6167 45.5763 60.6167C44.647 60.6167 43.917 61.3026 43.6435 62.1037C43.5675 62.3264 43.5134 62.6241 43.5134 62.9216V68.4788H41.915V63.0889C41.915 61.6576 41.2829 60.6167 40.0376 60.6167C39.0154 60.6167 38.2719 61.4346 38.0119 62.2525C37.919 62.494 37.8815 62.773 37.8815 63.0515V68.4788H36.2834V61.9179Z" fill="black"/>
<path d="M47.7208 68.2863H48.9333V63.182C48.9333 60.4466 47.5064 59.4719 46.1712 59.4719C45.4066 59.4719 44.8468 59.649 44.2991 60.0644C43.9235 60.346 43.5947 60.7301 43.3473 61.1753L43.2922 61.2748H43.0071L42.9604 61.1484C42.5738 60.0985 41.6896 59.4719 40.5953 59.4719C39.4218 59.4719 38.5522 59.9818 37.9364 61.0307L37.8805 61.126H37.531L37.4568 59.6762H36.4159C36.4579 60.316 36.4763 61.0017 36.4763 61.918V68.2863H37.6886V63.0519C37.6886 62.7225 37.7369 62.4306 37.8316 62.1836C38.0993 61.3416 38.9064 60.4242 40.0376 60.4242C41.3145 60.4242 42.1079 61.4453 42.1079 63.0891V68.2863H43.3204V62.9218C43.3204 62.6301 43.3714 62.31 43.4603 62.0429C43.7419 61.236 44.505 60.4242 45.5763 60.4242C46.9593 60.4242 47.7208 61.4762 47.7208 63.3863V68.2863ZM49.3192 68.6719H47.3352V63.3863C47.3352 62.211 47.03 60.81 45.5763 60.81C44.6942 60.81 44.0613 61.4918 43.8256 62.1675C43.7501 62.3942 43.7063 62.67 43.7063 62.9218V68.6719H41.722V63.0891C41.722 61.662 41.0923 60.81 40.0376 60.81C39.1001 60.81 38.4255 61.5881 38.1956 62.311C38.1141 62.5246 38.0745 62.7703 38.0745 63.0519V68.6719H36.0905V61.918C36.0905 60.9122 36.0683 60.1882 36.0166 59.4978L36.001 59.2903H37.8234L37.8813 60.4181C38.5474 59.5336 39.4583 59.086 40.5953 59.086C41.7247 59.086 42.6901 59.6954 43.1866 60.6984C43.4331 60.3281 43.7332 60.0064 44.0666 59.7564C44.6778 59.2929 45.3271 59.086 46.1712 59.086C47.693 59.086 49.3192 60.1621 49.3192 63.182V68.6719Z" fill="black"/>
<path d="M51.7856 68.4788V59.4831H53.4212V68.4788H51.7856ZM53.607 56.9553C53.6255 57.513 53.2167 57.9591 52.5661 57.9591C51.9899 57.9591 51.5811 57.513 51.5811 56.9553C51.5811 56.3792 52.0086 55.9331 52.6033 55.9331C53.2167 55.9331 53.607 56.3792 53.607 56.9553Z" fill="black"/>
<path d="M52.6029 56.1263C52.1225 56.1263 51.7736 56.4749 51.7736 56.9555C51.7736 57.4179 52.114 57.7663 52.5656 57.7663C52.8317 57.7663 53.0542 57.6819 53.2091 57.5217C53.3482 57.3776 53.421 57.1788 53.4137 56.9621V56.9555C53.4137 56.4596 53.088 56.1263 52.6029 56.1263ZM52.5656 58.1522C51.8942 58.1522 51.3877 57.6378 51.3877 56.9555C51.3877 56.263 51.9103 55.7404 52.6029 55.7404C53.2952 55.7404 53.7979 56.2498 53.7995 56.9524C53.8093 57.2733 53.6982 57.5708 53.4862 57.7898C53.2603 58.0237 52.9333 58.1522 52.5656 58.1522ZM51.9781 68.2863H53.2278V59.6762H51.9781V68.2863ZM53.6137 68.6719H51.5922V59.2903H53.6137V68.6719Z" fill="black"/>
<path d="M56.135 61.9179C56.135 60.9885 56.1162 60.2266 56.0605 59.4831H57.5104L57.6033 60.9701H57.6405C58.0865 60.1152 59.1275 59.2785 60.6142 59.2785C61.8595 59.2785 63.7925 60.022 63.7925 63.1074V68.4788H62.1569V63.2932C62.1569 61.8437 61.618 60.6354 60.0753 60.6354C58.9974 60.6354 58.1844 61.405 57.8822 62.3082C57.8131 62.5144 57.7706 62.7915 57.7706 63.0702V68.4788H56.135V61.9179Z" fill="black"/>
<path d="M62.3498 68.2863H63.5996V63.1076C63.5996 59.6469 61.1128 59.4719 60.6142 59.4719C59.1586 59.4719 58.2119 60.2919 57.8115 61.0595L57.7574 61.1632H57.4222L57.329 59.6762H56.2675C56.3097 60.316 56.3279 61.0017 56.3279 61.918V68.2863H57.5776V63.0704C57.5776 62.7547 57.6214 62.4607 57.7009 62.2424C57.9733 61.3514 58.8152 60.4426 60.0752 60.4426C61.5419 60.4426 62.3498 61.4551 62.3498 63.2937V68.2863ZM63.9855 68.6719H61.964V63.2937C61.964 62.169 61.6364 60.8285 60.0752 60.8285C59.0124 60.8285 58.3005 61.6003 58.0664 62.3649C57.9999 62.5488 57.9635 62.8025 57.9635 63.0704V68.6719H55.942V61.918C55.942 60.9122 55.9198 60.1882 55.8681 59.4978L55.8525 59.2903H57.6914L57.7624 60.4258C58.3114 59.7173 59.2708 59.086 60.6142 59.086C61.1772 59.086 63.9855 59.2797 63.9855 63.1076V68.6719Z" fill="black"/>
</svg>
