<svg width="100" height="100" viewBox="0 0 100 100" fill="none" xmlns="http://www.w3.org/2000/svg">
<path d="M50 0.191772C22.5349 0.191772 0.192668 22.5353 0.192668 49.9994C0.192668 77.4635 22.5349 99.8085 50 99.8085C77.4652 99.8085 99.8073 77.4635 99.8073 49.9994C99.8073 22.5353 77.4652 0.191772 50 0.191772ZM50 100.001C36.6449 100.001 24.0868 94.799 14.6432 85.3554C5.19953 75.9115 0 63.355 0 49.9994C0 36.6437 5.19953 24.0875 14.6432 14.6436C24.0868 5.1997 36.6449 -0.0011673 50 -0.0011673C63.3552 -0.0011673 75.9106 5.1997 85.3568 14.6436C94.8005 24.0875 100 36.6437 100 49.9994C100 63.355 94.8005 75.9115 85.3568 85.3554C75.9106 94.799 63.3552 100.001 50 100.001Z" fill="#3D76E1"/>
<path d="M51.6389 11.5356H48.3608V3.81921H51.6389V11.5356Z" fill="#7BA2EC"/>
<path d="M55.6563 11.9128L52.394 11.5739L53.1911 3.89895L56.4534 4.23785L55.6563 11.9128Z" fill="#7BA2EC"/>
<path d="M59.6074 12.708L56.3979 12.0294L57.9948 4.47954L61.2042 5.15813L59.6074 12.708Z" fill="#7BA2EC"/>
<path d="M63.4503 13.9143L60.3306 12.9016L62.7139 5.56152L65.8336 6.57451L63.4503 13.9143Z" fill="#7BA2EC"/>
<path d="M67.1425 15.5186L64.1494 14.1828L67.2903 7.13489L70.2859 8.47068L67.1425 15.5186Z" fill="#7BA2EC"/>
<path d="M70.6503 17.5015L67.813 15.859L71.677 9.18063L74.5143 10.8228L70.6503 17.5015Z" fill="#7BA2EC"/>
<path d="M73.9338 19.842L71.2812 17.9119L75.8209 11.6727L78.4735 13.6026L73.9338 19.842Z" fill="#7BA2EC"/>
<path d="M76.9532 22.5117L74.5171 20.3166L79.6823 14.5833L82.1184 16.7785L76.9532 22.5117Z" fill="#7BA2EC"/>
<path d="M79.6821 25.481L77.4888 23.0443L83.2188 17.8796L85.4148 20.3163L79.6821 25.481Z" fill="#7BA2EC"/>
<path d="M82.0866 28.7178L80.1572 26.066L86.3967 21.5255L88.326 24.1773L82.0866 28.7178Z" fill="#7BA2EC"/>
<path d="M84.1402 32.187L82.4985 29.3481L89.1761 25.4838L90.8178 28.3225L84.1402 32.187Z" fill="#7BA2EC"/>
<path d="M85.816 35.8501L84.4805 32.8547L91.5276 29.7125L92.8631 32.7079L85.816 35.8501Z" fill="#7BA2EC"/>
<path d="M87.0989 39.6687L86.0854 36.5492L93.4255 34.1662L94.4364 37.2856L87.0989 39.6687Z" fill="#7BA2EC"/>
<path d="M87.9698 43.6003L87.2915 40.3917L94.8401 38.7949L95.5184 42.0035L87.9698 43.6003Z" fill="#7BA2EC"/>
<path d="M88.4238 47.6042L88.0859 44.3423L95.7612 43.5449L96.099 46.8066L88.4238 47.6042Z" fill="#7BA2EC"/>
<path d="M96.1809 51.6389H88.4634V48.3592H96.1809V51.6389Z" fill="#7BA2EC"/>
<path d="M95.7612 56.4534L88.0859 55.656L88.4238 52.394L96.099 53.1914L95.7612 56.4534Z" fill="#7BA2EC"/>
<path d="M94.8401 61.2034L87.2915 59.6066L87.9698 56.3976L95.5184 57.9944L94.8401 61.2034Z" fill="#7BA2EC"/>
<path d="M93.4255 65.8323L86.0854 63.4489L87.0989 60.3295L94.4364 62.7128L93.4255 65.8323Z" fill="#7BA2EC"/>
<path d="M91.5276 70.2859L84.4805 67.1432L85.816 64.1478L92.8631 67.2902L91.5276 70.2859Z" fill="#7BA2EC"/>
<path d="M89.1761 74.5144L82.4985 70.6499L84.1402 67.8112L90.8178 71.6755L89.1761 74.5144Z" fill="#7BA2EC"/>
<path d="M86.3967 78.4727L80.1572 73.9322L82.0866 71.2804L88.326 75.8209L86.3967 78.4727Z" fill="#7BA2EC"/>
<path d="M83.219 82.1187L77.4863 76.9537L79.6823 74.5173L85.415 79.6823L83.219 82.1187Z" fill="#7BA2EC"/>
<path d="M79.6823 85.416L74.5171 79.682L76.9532 77.4869L82.1184 83.2198L79.6823 85.416Z" fill="#7BA2EC"/>
<path d="M75.8209 88.3247L71.2812 82.0868L73.9338 80.1567L78.4735 86.3953L75.8209 88.3247Z" fill="#7BA2EC"/>
<path d="M71.677 90.8188L67.813 84.1389L70.6503 82.4964L74.5143 89.1745L71.677 90.8188Z" fill="#7BA2EC"/>
<path d="M67.2903 92.8643L64.1494 85.8172L67.1425 84.4803L70.2859 91.5287L67.2903 92.8643Z" fill="#7BA2EC"/>
<path d="M62.7139 94.4375L60.3306 87.0974L63.4503 86.0839L65.8336 93.424L62.7139 94.4375Z" fill="#7BA2EC"/>
<path d="M57.9948 95.5195L56.3979 87.9683L59.6074 87.29L61.2042 94.8412L57.9948 95.5195Z" fill="#7BA2EC"/>
<path d="M53.1911 96.1001L52.394 88.4248L55.6563 88.0844L56.4534 95.7596L53.1911 96.1001Z" fill="#7BA2EC"/>
<path d="M51.6389 96.1794H48.3608V88.462H51.6389V96.1794Z" fill="#7BA2EC"/>
<path d="M46.8065 96.1001L43.5469 95.7596L44.344 88.0844L47.6062 88.4248L46.8065 96.1001Z" fill="#7BA2EC"/>
<path d="M42.0053 95.5195L38.7959 94.8412L40.3927 87.29L43.6022 87.9683L42.0053 95.5195Z" fill="#7BA2EC"/>
<path d="M37.2862 94.4375L34.1665 93.424L36.5498 86.0839L39.6696 87.0974L37.2862 94.4375Z" fill="#7BA2EC"/>
<path d="M32.7095 92.8643L29.7139 91.5287L32.8547 84.4803L35.8504 85.8172L32.7095 92.8643Z" fill="#7BA2EC"/>
<path d="M28.3232 90.8188L25.4858 89.1745L29.3498 82.4964L32.1872 84.1389L28.3232 90.8188Z" fill="#7BA2EC"/>
<path d="M24.1789 88.3247L21.5264 86.3953L26.0661 80.1567L28.7186 82.0868L24.1789 88.3247Z" fill="#7BA2EC"/>
<path d="M20.315 85.416L17.8789 83.2198L23.0441 77.4869L25.4803 79.682L20.315 85.416Z" fill="#7BA2EC"/>
<path d="M16.7783 82.1189L14.585 79.682L20.3176 74.517L22.5109 76.9537L16.7783 82.1189Z" fill="#7BA2EC"/>
<path d="M13.6032 78.4727L11.6738 75.8209L17.9133 71.2804L19.8426 73.9322L13.6032 78.4727Z" fill="#7BA2EC"/>
<path d="M10.824 74.5146L9.17969 71.676L15.8599 67.8112L17.5016 70.6498L10.824 74.5146Z" fill="#7BA2EC"/>
<path d="M8.46981 70.2859L7.13428 67.2902L14.184 64.1478L15.5195 67.1432L8.46981 70.2859Z" fill="#C8D8FA"/>
<path d="M6.57456 65.832L5.56104 62.7126L12.9011 60.3298L13.9146 63.4492L6.57456 65.832Z" fill="#C8D8FA"/>
<path d="M5.15732 61.2034L4.479 57.9944L12.0302 56.3976L12.7085 59.6063L5.15732 61.2034Z" fill="#C8D8FA"/>
<path d="M4.23893 56.4534L3.89844 53.1914L11.5737 52.3943L11.9142 55.656L4.23893 56.4534Z" fill="#C8D8FA"/>
<path d="M11.5363 51.6389H3.81885V48.3592H11.5363V51.6389Z" fill="#C8D8FA"/>
<path d="M11.5737 47.6042L3.89844 46.8066L4.23893 43.5449L11.9142 44.3423L11.5737 47.6042Z" fill="#C8D8FA"/>
<path d="M12.0302 43.6006L4.479 42.0035L5.15732 38.7948L12.7085 40.3919L12.0302 43.6006Z" fill="#C8D8FA"/>
<path d="M12.9011 39.6687L5.56104 37.2859L6.57456 34.1664L13.9146 36.5492L12.9011 39.6687Z" fill="#C8D8FA"/>
<path d="M14.184 35.8506L7.13428 32.7079L8.46981 29.7125L15.5195 32.8552L14.184 35.8506Z" fill="#C8D8FA"/>
<path d="M15.8599 32.187L9.17969 28.3225L10.824 25.4836L17.5016 29.3484L15.8599 32.187Z" fill="#C8D8FA"/>
<path d="M17.9133 28.7178L11.6738 24.1773L13.6032 21.5255L19.8426 26.066L17.9133 28.7178Z" fill="#C8D8FA"/>
<path d="M20.3176 25.481L14.585 20.316L16.7783 17.8793L22.5109 23.0443L20.3176 25.481Z" fill="#C8D8FA"/>
<path d="M23.0441 22.5117L17.8789 16.7785L20.3177 14.5833L25.4829 20.3166L23.0441 22.5117Z" fill="#C8D8FA"/>
<path d="M26.0661 19.842L21.5264 13.6026L24.1789 11.6727L28.7186 17.9119L26.0661 19.842Z" fill="#C8D8FA"/>
<path d="M29.3498 17.5015L25.4858 10.8228L28.3232 9.18063L32.1872 15.859L29.3498 17.5015Z" fill="#C8D8FA"/>
<path d="M32.8547 15.5186L29.7139 8.47068L32.7095 7.13489L35.8504 14.1828L32.8547 15.5186Z" fill="#C8D8FA"/>
<path d="M36.5498 13.9143L34.1665 6.57451L37.2862 5.56152L39.6696 12.9016L36.5498 13.9143Z" fill="#C8D8FA"/>
<path d="M40.3927 12.708L38.7959 5.15813L42.0053 4.47954L43.6022 12.0294L40.3927 12.708Z" fill="#C8D8FA"/>
<path d="M44.344 11.9128L43.5469 4.23785L46.8065 3.89895L47.6062 11.5739L44.344 11.9128Z" fill="#C8D8FA"/>
<path d="M44.1721 44.5587V37.7405C44.1721 36.6723 44.2038 35.6039 44.2645 34.5357H44.1721C43.5439 35.7295 43.0398 36.6092 42.475 37.552L37.4787 44.4959V44.5587H44.1721ZM44.1721 52.2883V46.7269H34.6836V44.9042L43.7946 31.8647H46.7798V44.5587H49.6382V46.7269H46.7798V52.2883H44.1721Z" fill="black"/>
<path d="M38.07 44.2327H43.8449C43.8449 44.2327 43.8581 36.4234 43.8819 35.7646C43.5229 36.4141 43.1693 37.0289 42.7549 37.7196L38.07 44.2327ZM44.4969 44.8849H37.1542V44.3905L42.2033 37.3725C42.8261 36.3321 43.3144 35.465 43.8819 34.3837L43.9743 34.2095H44.6104L44.5919 34.5547C44.5285 35.6094 44.4969 36.6812 44.4969 37.7404V44.8849ZM44.4969 51.9621H46.4526V46.4007H49.3137V44.8849H46.4526V32.1909H43.9637L35.0084 45.0068V46.4007H44.4969V51.9621ZM47.1045 52.6143H43.8449V47.0529H34.3564V44.8015L43.6232 31.5387H47.1045V44.2327H49.9656V47.0529H47.1045V52.6143Z" fill="black"/>
<path d="M54.2255 42.1706C54.2255 47.4807 55.8593 50.4972 58.372 50.4972C61.2014 50.4972 62.5527 47.198 62.5527 41.9824C62.5527 36.9549 61.2647 33.6557 58.4036 33.6557C55.986 33.6557 54.2255 36.6092 54.2255 42.1706ZM65.3161 41.8565C65.3161 48.8004 62.7401 52.6338 58.2162 52.6338C54.2255 52.6338 51.5228 48.8949 51.4595 42.1394C51.4595 35.2895 54.4129 31.5192 58.562 31.5192C62.8668 31.5192 65.3161 35.3526 65.3161 41.8565Z" fill="black"/>
<path d="M58.4035 33.9822C56.0281 33.9822 54.5501 37.1198 54.5501 42.1708C54.5501 47.1056 56.0149 50.1712 58.3719 50.1712C61.7239 50.1712 62.2254 45.0405 62.2254 41.9823C62.2254 38.9946 61.7291 33.9822 58.4035 33.9822ZM58.3719 50.8234C55.5715 50.8234 53.8982 47.5888 53.8982 42.1708C53.8982 36.7176 55.6243 33.33 58.4035 33.33C61.2884 33.33 62.8773 36.4027 62.8773 41.9823C62.8773 47.6836 61.2778 50.8234 58.3719 50.8234ZM58.5619 31.8456C54.3812 31.8456 51.7867 35.7899 51.7867 42.1396C51.8448 48.5055 54.2492 52.308 58.2162 52.308C62.5843 52.308 64.9914 48.5963 64.9914 41.8567C64.9914 35.4945 62.6476 31.8456 58.5619 31.8456ZM58.2162 52.9602C53.9087 52.9602 51.1955 48.8151 51.1348 42.1425C51.1348 35.3876 53.98 31.1931 58.5619 31.1931C63.062 31.1931 65.6433 35.0801 65.6433 41.8567C65.6433 48.913 62.9353 52.9602 58.2162 52.9602Z" fill="black"/>
<path d="M36.2831 61.9178C36.2831 60.9888 36.2646 60.2268 36.2065 59.483H37.6397L37.7136 60.9331H37.769C38.2705 60.0779 39.1072 59.2787 40.5932 59.2787C41.8205 59.2787 42.7495 60.022 43.1401 61.0817H43.1771C43.4569 60.5797 43.8105 60.1904 44.1827 59.9106C44.7211 59.5031 45.315 59.2787 46.1701 59.2787C47.3605 59.2787 49.1262 60.0594 49.1262 63.1818V68.479H47.5268V63.3864C47.5268 61.6578 46.8959 60.6169 45.5763 60.6169C44.6472 60.6169 43.9161 61.3029 43.6416 62.1039C43.5677 62.3264 43.5123 62.6241 43.5123 62.9216V68.479H41.9128V63.0889C41.9128 61.6578 41.282 60.6169 40.0363 60.6169C39.0148 60.6169 38.2705 61.4346 38.0119 62.2525C37.9169 62.4943 37.8799 62.773 37.8799 63.0517V68.479H36.2831V61.9178Z" fill="black"/>
<path d="M47.7197 68.286H48.9338V63.1818C48.9338 60.4463 47.5059 59.4716 46.1704 59.4716C45.405 59.4716 44.8455 59.6487 44.2991 60.0642C43.9217 60.346 43.5944 60.7301 43.3463 61.1751L43.2909 61.2746H43.0058L42.961 61.1481C42.573 60.0982 41.6888 59.4716 40.5935 59.4716C39.4216 59.4716 38.5506 59.9815 37.9356 61.0304L37.8802 61.1257H37.5292L37.4553 59.6759H36.4154C36.4576 60.317 36.4761 61.0027 36.4761 61.9178V68.286H37.6875V63.0516C37.6875 62.7225 37.735 62.4303 37.83 62.1833C38.1072 61.3128 38.899 60.4239 40.0366 60.4239C41.314 60.4239 42.1058 61.4451 42.1058 63.0889V68.286H43.3199V62.9215C43.3199 62.6296 43.3701 62.3092 43.4598 62.0426C43.7422 61.2358 44.505 60.4239 45.5766 60.4239C46.9596 60.4239 47.7197 61.4759 47.7197 63.3861V68.286ZM49.3192 68.6716H47.3344V63.3861C47.3344 62.2107 47.0282 60.8098 45.5766 60.8098C44.6924 60.8098 44.0616 61.4915 43.824 62.1672C43.7501 62.3937 43.7053 62.6695 43.7053 62.9215V68.6716H41.7205V63.0889C41.7205 61.6618 41.0923 60.8098 40.0366 60.8098C39.0996 60.8098 38.4239 61.5879 38.1943 62.311C38.1125 62.5243 38.0729 62.77 38.0729 63.0516V68.6716H36.0907V61.9178C36.0907 60.9135 36.067 60.1898 36.0168 59.4975L36.001 59.29H37.8221L37.8802 60.4178C38.548 59.5334 39.4585 59.0857 40.5935 59.0857C41.7231 59.0857 42.6891 59.6952 43.1853 60.6981C43.4334 60.3281 43.7317 60.0064 44.0669 59.7561C44.6766 59.2927 45.3258 59.0857 46.1704 59.0857C47.6933 59.0857 49.3192 60.1618 49.3192 63.1818V68.6716Z" fill="black"/>
<path d="M51.7843 68.479V59.483H53.4207V68.479H51.7843ZM53.6054 56.9553C53.6239 57.513 53.2148 57.959 52.5656 57.959C51.9902 57.959 51.5811 57.513 51.5811 56.9553C51.5811 56.3794 52.0086 55.9331 52.6025 55.9331C53.2148 55.9331 53.6054 56.3794 53.6054 56.9553Z" fill="black"/>
<path d="M52.6023 56.126C52.1219 56.126 51.7735 56.4746 51.7735 56.9553C51.7735 57.4177 52.114 57.7661 52.5654 57.7661C52.8319 57.7661 53.0536 57.6816 53.2093 57.5211C53.3466 57.3773 53.4205 57.1785 53.4126 56.9619V56.9553C53.4126 56.4593 53.0879 56.126 52.6023 56.126ZM52.5654 58.1519C51.8923 58.1519 51.3882 57.6375 51.3882 56.9553C51.3882 56.2627 51.9108 55.7401 52.6023 55.7401C53.2938 55.7401 53.7979 56.2495 53.7979 56.9521C53.8085 57.273 53.6976 57.5705 53.4865 57.7896C53.2595 58.0234 52.9322 58.1519 52.5654 58.1519ZM51.9768 68.286H53.2278V59.6759H51.9768V68.286ZM53.6132 68.6716H51.5914V59.29H53.6132V68.6716Z" fill="black"/>
<path d="M56.134 61.9178C56.134 60.9888 56.1155 60.2268 56.0601 59.483H57.5091L57.6015 60.97H57.6384C58.0844 60.1151 59.127 59.2787 60.613 59.2787C61.8587 59.2787 63.7907 60.022 63.7907 63.1074V68.479H62.157V63.2935C62.157 61.8437 61.6159 60.6356 60.0745 60.6356C58.995 60.6356 58.161 61.3976 57.8812 62.3082C57.8073 62.5127 57.7704 62.7914 57.7704 63.0702V68.479H56.134V61.9178Z" fill="black"/>
<path d="M62.3496 68.286H63.5981V63.1073C63.5981 59.6466 61.1118 59.4716 60.6129 59.4716C59.1587 59.4716 58.2111 60.2917 57.8099 61.0592L57.7572 61.1629H57.422L57.3269 59.6759H56.2659C56.3082 60.317 56.3266 61.0027 56.3266 61.9178V68.286H57.5777V63.0701C57.5777 62.7539 57.6199 62.4599 57.6991 62.2422C57.971 61.3511 58.8129 60.4424 60.0745 60.4424C61.542 60.4424 62.3496 61.4548 62.3496 63.2934V68.286ZM63.9834 68.6716H61.9643V63.2934C61.9643 62.1688 61.6344 60.8283 60.0745 60.8283C59.0109 60.8283 58.3009 61.6 58.066 62.3646C58 62.5481 57.963 62.8017 57.963 63.0701V68.6716H55.9413V61.9178C55.9413 60.9135 55.9202 60.1898 55.8674 59.4975L55.8516 59.29H57.6912L57.7624 60.4252C58.3114 59.7171 59.2695 59.0857 60.6129 59.0857C61.1751 59.0857 63.9834 59.2795 63.9834 63.1073V68.6716Z" fill="black"/>
</svg>
