<svg width="100" height="100" viewBox="0 0 100 100" fill="none" xmlns="http://www.w3.org/2000/svg">
<path d="M49.9983 0.19326C22.5384 0.19326 0.192601 22.5361 0.192601 49.9997C0.192601 77.4629 22.5384 99.8074 49.9983 99.8074C77.4616 99.8074 99.8074 77.4629 99.8074 49.9997C99.8074 22.5361 77.4616 0.19326 49.9983 0.19326ZM49.9983 100C36.6453 100 24.0893 94.7983 14.6448 85.3548C5.20041 75.9111 0 63.355 0 49.9997C0 36.6443 5.20041 24.0883 14.6448 14.6448C24.0893 5.20107 36.6453 0.000335693 49.9983 0.000335693C63.3547 0.000335693 75.9107 5.20107 85.3552 14.6448C94.7963 24.0883 100 36.6443 100 49.9997C100 63.355 94.7963 75.9111 85.3552 85.3548C75.9107 94.7983 63.3547 100 49.9983 100Z" fill="#3D76E1"/>
<path d="M51.6408 11.5369H48.3596V3.82046H51.6408V11.5369Z" fill="#7BA2EC"/>
<path d="M55.6578 11.9138L52.3965 11.5749L53.1935 3.90005L56.4548 4.23901L55.6578 11.9138Z" fill="#7BA2EC"/>
<path d="M59.6031 12.71L56.397 12.0314L57.9939 4.4817L61.2 5.16022L59.6031 12.71Z" fill="#7BA2EC"/>
<path d="M63.4457 13.916L60.3252 12.9036L62.7084 5.56372L65.8289 6.57673L63.4457 13.916Z" fill="#7BA2EC"/>
<path d="M67.1411 15.5198L64.147 14.184L67.2918 7.13645L70.2859 8.47221L67.1411 15.5198Z" fill="#7BA2EC"/>
<path d="M70.651 17.5024L67.8125 15.8601L71.6763 9.18176L74.5148 10.8241L70.651 17.5024Z" fill="#7BA2EC"/>
<path d="M73.9274 19.8438L71.2776 17.9136L75.8184 11.6745L78.4682 13.6044L73.9274 19.8438Z" fill="#7BA2EC"/>
<path d="M76.9529 22.5132L74.5156 20.3181L79.6791 14.5849L82.1163 16.7801L76.9529 22.5132Z" fill="#7BA2EC"/>
<path d="M79.6836 25.4817L77.4863 23.0449L83.2188 17.8806L85.4161 20.317L79.6836 25.4817Z" fill="#7BA2EC"/>
<path d="M82.089 28.7188L80.1558 26.0668L86.3942 21.5267L88.3243 24.1783L82.089 28.7188Z" fill="#7BA2EC"/>
<path d="M84.136 32.1882L82.4939 29.3498L89.1698 25.4856L90.8151 28.3241L84.136 32.1882Z" fill="#7BA2EC"/>
<path d="M85.8175 35.8508L84.4805 32.8556L91.5261 29.7136L92.8631 32.7088L85.8175 35.8508Z" fill="#7BA2EC"/>
<path d="M87.094 39.6697L86.0784 36.5503L93.4208 34.1675L94.4331 37.2868L87.094 39.6697Z" fill="#7BA2EC"/>
<path d="M87.9656 43.6011L87.2871 40.3924L94.8387 38.7958L95.5171 42.0041L87.9656 43.6011Z" fill="#7BA2EC"/>
<path d="M88.4228 47.605L88.0833 44.343L95.7617 43.5455L96.098 46.8071L88.4228 47.605Z" fill="#7BA2EC"/>
<path d="M96.1755 51.6394H88.4597V48.3598H96.1755V51.6394Z" fill="#7BA2EC"/>
<path d="M95.7617 56.4534L88.0833 55.6562L88.4228 52.3942L96.098 53.1918L95.7617 56.4534Z" fill="#7BA2EC"/>
<path d="M94.8387 61.2036L87.2871 59.6067L87.9656 56.398L95.5171 57.9946L94.8387 61.2036Z" fill="#7BA2EC"/>
<path d="M93.4208 65.8325L86.0784 63.4494L87.094 60.33L94.4331 62.7131L93.4208 65.8325Z" fill="#7BA2EC"/>
<path d="M91.5261 70.2856L84.4805 67.143L85.8175 64.1478L92.8631 67.2901L91.5261 70.2856Z" fill="#7BA2EC"/>
<path d="M89.1698 74.5144L82.4939 70.6499L84.136 67.8115L90.8151 71.6756L89.1698 74.5144Z" fill="#7BA2EC"/>
<path d="M86.3942 78.4719L80.1558 73.9315L82.089 71.2798L88.3243 75.8203L86.3942 78.4719Z" fill="#7BA2EC"/>
<path d="M83.2188 82.1179L77.4863 76.9529L79.6836 74.5168L85.4161 79.6815L83.2188 82.1179Z" fill="#7BA2EC"/>
<path d="M79.6791 85.4155L74.5156 79.6818L76.9529 77.4867L82.1163 83.2195L79.6791 85.4155Z" fill="#7BA2EC"/>
<path d="M75.8184 88.3242L71.2776 82.0864L73.9274 80.1563L78.4682 86.3947L75.8184 88.3242Z" fill="#7BA2EC"/>
<path d="M71.6763 90.8179L67.8125 84.138L70.651 82.4956L74.5148 89.1736L71.6763 90.8179Z" fill="#7BA2EC"/>
<path d="M67.2918 92.8635L64.147 85.8166L67.1411 84.4799L70.2859 91.5281L67.2918 92.8635Z" fill="#7BA2EC"/>
<path d="M62.7084 94.4368L60.3252 87.0968L63.4457 86.0832L65.8289 93.4231L62.7084 94.4368Z" fill="#7BA2EC"/>
<path d="M57.9939 95.519L56.397 87.9681L59.6031 87.2895L61.2 94.8405L57.9939 95.519Z" fill="#7BA2EC"/>
<path d="M53.1935 96.0989L52.3965 88.4241L55.6578 88.0836L56.4548 95.7587L53.1935 96.0989Z" fill="#7BA2EC"/>
<path d="M51.6408 96.1782H48.3596V88.4609H51.6408V96.1782Z" fill="#7BA2EC"/>
<path d="M46.8077 96.0991L43.5474 95.7587L44.3422 88.0836L47.6055 88.424L46.8077 96.0991Z" fill="#7BA2EC"/>
<path d="M42.0028 95.5188L38.793 94.8402L40.3904 87.2893L43.6003 87.9675L42.0028 95.5188Z" fill="#7BA2EC"/>
<path d="M37.2842 94.4363L34.1682 93.4227L36.5524 86.0829L39.6683 87.0964L37.2842 94.4363Z" fill="#7BA2EC"/>
<path d="M32.7085 92.8633L29.7139 91.5279L32.8578 84.4798L35.8524 85.8164L32.7085 92.8633Z" fill="#7BA2EC"/>
<path d="M28.3235 90.8181L25.4827 89.1737L29.346 82.4959L32.1869 84.1383L28.3235 90.8181Z" fill="#7BA2EC"/>
<path d="M24.1767 88.3242L21.5239 86.3949L26.0654 80.1564L28.7154 82.0866L24.1767 88.3242Z" fill="#7BA2EC"/>
<path d="M20.3142 85.4155L17.8801 83.2194L23.0433 77.4867L25.4803 79.6819L20.3142 85.4155Z" fill="#7BA2EC"/>
<path d="M16.7783 82.1187L14.5845 79.6818L20.3152 74.5168L22.5118 76.9533L16.7783 82.1187Z" fill="#7BA2EC"/>
<path d="M13.6051 78.4724L11.6729 75.8207L17.9109 71.2804L19.8403 73.9321L13.6051 78.4724Z" fill="#7BA2EC"/>
<path d="M10.825 74.5144L9.18115 71.6758L15.8633 67.8109L17.5043 70.6495L10.825 74.5144Z" fill="#7BA2EC"/>
<path d="M8.47106 70.2861L7.13428 67.2905L14.1798 64.1481L15.5166 67.1434L8.47106 70.2861Z" fill="#7BA2EC"/>
<path d="M6.57575 65.832L5.56201 62.7126L12.9012 60.3299L13.9121 63.4493L6.57575 65.832Z" fill="#7BA2EC"/>
<path d="M5.16083 61.2031L4.4812 57.9942L12.0322 56.3973L12.7118 59.606L5.16083 61.2031Z" fill="#7BA2EC"/>
<path d="M4.23765 56.4539L3.89844 53.1919L11.5724 52.3947L11.9116 55.6564L4.23765 56.4539Z" fill="#7BA2EC"/>
<path d="M11.5373 51.6387H3.82251V48.3591H11.5373V51.6387Z" fill="#7BA2EC"/>
<path d="M11.5724 47.605L3.89844 46.8073L4.23765 43.5459L11.9116 44.343L11.5724 47.605Z" fill="#C8D8FA"/>
<path d="M12.0322 43.6008L4.4812 42.0037L5.16083 38.795L12.7118 40.3921L12.0322 43.6008Z" fill="#C8D8FA"/>
<path d="M12.9012 39.6694L5.56201 37.2867L6.57575 34.1676L13.9121 36.55L12.9012 39.6694Z" fill="#C8D8FA"/>
<path d="M14.1798 35.8518L7.13428 32.7091L8.47106 29.7137L15.5166 32.8565L14.1798 35.8518Z" fill="#C8D8FA"/>
<path d="M15.8633 32.1875L9.18115 28.3232L10.825 25.4842L17.5043 29.3491L15.8633 32.1875Z" fill="#C8D8FA"/>
<path d="M17.9109 28.719L11.6729 24.1787L13.6051 21.527L19.8403 26.0673L17.9109 28.719Z" fill="#C8D8FA"/>
<path d="M20.3152 25.4822L14.5845 20.3174L16.7783 17.8806L22.5118 23.0456L20.3152 25.4822Z" fill="#C8D8FA"/>
<path d="M23.0433 22.5132L17.8801 16.7802L20.3142 14.5852L25.4803 20.3182L23.0433 22.5132Z" fill="#C8D8FA"/>
<path d="M26.0654 19.8438L21.5239 13.6044L24.1767 11.6748L28.7154 17.9135L26.0654 19.8438Z" fill="#C8D8FA"/>
<path d="M29.346 17.5029L25.4827 10.8245L28.3235 9.18242L32.1869 15.8606L29.346 17.5029Z" fill="#C8D8FA"/>
<path d="M32.8578 15.5195L29.7139 8.4718L32.7085 7.13609L35.8524 14.1838L32.8578 15.5195Z" fill="#C8D8FA"/>
<path d="M36.5524 13.9155L34.1682 6.57568L37.2842 5.56301L39.6683 12.9029L36.5524 13.9155Z" fill="#C8D8FA"/>
<path d="M40.3904 12.7095L38.793 5.1597L42.0028 4.48144L43.6003 12.0309L40.3904 12.7095Z" fill="#C8D8FA"/>
<path d="M44.3422 11.9138L43.5474 4.23899L46.8077 3.90007L47.6055 11.5749L44.3422 11.9138Z" fill="#C8D8FA"/>
<path d="M44.6564 44.3871V37.5691C44.6564 36.5006 44.6865 35.4322 44.7498 34.3643H44.6564C44.0293 35.5582 43.5228 36.4379 42.959 37.3806L37.9635 44.3244V44.3871H44.6564ZM44.6564 52.1162V46.5551H35.1687V44.7326L44.2795 31.6935H47.2642V44.3871H50.1222V46.5551H47.2642V52.1162H44.6564Z" fill="black"/>
<path d="M38.558 44.0602H44.3323C44.3323 44.0602 44.3474 36.2511 44.3685 35.5925C44.0095 36.242 43.6565 36.8569 43.2432 37.5474L38.558 44.0602ZM44.9839 44.7125H37.6409V44.2183L42.6911 37.2005C43.3156 36.1606 43.8013 35.2935 44.3685 34.2114L44.462 34.037H45.1016L45.0805 34.3824C45.0171 35.4371 44.9839 36.509 44.9839 37.5682V44.7125ZM44.9839 51.7894H46.9418V46.2281H49.8018V44.7125H46.9418V32.0187H44.4529L35.4959 44.8346V46.2281H44.9839V51.7894ZM47.5935 52.4417H44.3323V46.8804H34.8442V44.6292L44.1151 31.3665H47.5935V44.0602H50.4535V46.8804H47.5935V52.4417Z" fill="black"/>
<path d="M64.4166 34.0184H56.6261L55.8405 39.2656C56.3124 39.2025 56.7534 39.1395 57.5048 39.1395C59.079 39.1395 60.6471 39.4854 61.9046 40.2393C63.5068 41.1503 64.8264 42.91 64.8264 45.4865C64.8264 49.4768 61.6531 52.4617 57.2222 52.4617C54.9928 52.4617 53.108 51.8332 52.1331 51.2048L52.8255 49.0995C53.6731 49.6026 55.3374 50.2307 57.1911 50.2307C59.7994 50.2307 62.0319 48.5341 62.0319 45.8004C62.0009 43.1612 60.2403 41.2761 56.1572 41.2761C54.9928 41.2761 54.083 41.4022 53.3285 41.4962L54.6481 31.6933H64.4166V34.0184Z" fill="black"/>
<path d="M52.5233 51.06C53.4523 51.5823 55.1488 52.1357 57.2212 52.1357C61.4406 52.1357 64.501 49.3393 64.501 45.4866C64.501 43.3284 63.4974 41.5192 61.7419 40.5231C60.6048 39.8402 59.1009 39.4661 57.5039 39.4661C56.8017 39.4661 56.3823 39.522 55.938 39.5817L55.4533 39.6463L56.345 33.6926H64.094V32.0197H54.9313L53.7071 41.1206C54.3751 41.0379 55.183 40.9506 56.1555 40.9506C60.061 40.9506 62.3199 42.717 62.3571 45.797C62.3571 48.557 60.1822 50.5573 57.1901 50.5573C55.531 50.5573 53.9805 50.063 53.0142 49.5736L52.5233 51.06ZM57.2212 52.7878C54.835 52.7878 52.89 52.0832 51.9579 51.4788L51.7466 51.3424L52.6414 48.6123L52.9925 48.8195C53.8376 49.3201 55.444 49.9051 57.1901 49.9051C59.4334 49.9051 61.7047 48.4951 61.7047 45.801C61.6736 43.0951 59.7006 41.6028 56.1555 41.6028C55.096 41.6028 54.2602 41.7075 53.5269 41.7998L52.9459 41.8728L54.3627 31.3676H64.7433V34.3447H56.9074L56.2269 38.8872C56.5718 38.8462 56.9633 38.8139 57.5039 38.8139C59.2439 38.8139 60.8223 39.2101 62.0744 39.9601C64.0256 41.0718 65.1535 43.0873 65.1535 45.4866C65.1535 49.7175 61.8165 52.7878 57.2212 52.7878Z" fill="black"/>
<path d="M37.321 61.7448C37.321 60.8159 37.3029 60.0537 37.2456 59.3101H38.6778L38.7532 60.7601H38.8074C39.3109 59.905 40.1461 59.1057 41.6326 59.1057C42.8597 59.1057 43.7884 59.8492 44.1803 60.9087H44.2165C44.4969 60.4067 44.8497 60.0175 45.2205 59.7377C45.7602 59.33 46.3542 59.1057 47.2105 59.1057C48.3984 59.1057 50.1653 59.8863 50.1653 63.0088V68.3057H48.5673V63.2132C48.5673 61.4849 47.9341 60.4438 46.6165 60.4438C45.6848 60.4438 44.9552 61.1298 44.6808 61.9309C44.6054 62.1534 44.5512 62.451 44.5512 62.7485V68.3057H42.9532V62.9159C42.9532 61.4849 42.32 60.4438 41.0748 60.4438C40.0527 60.4438 39.3109 61.2615 39.0486 62.0795C38.9552 62.3213 38.919 62.5999 38.919 62.8785V68.3057H37.321V61.7448Z" fill="black"/>
<path d="M48.756 68.1135H49.9655V63.0094C49.9655 60.2739 48.5418 59.2994 47.2056 59.2994C46.4395 59.2994 45.8815 59.4767 45.3355 59.8921C44.9585 60.1738 44.6297 60.5575 44.3824 61.003L44.3251 61.1022H44.0416L43.9933 60.9761C43.6072 59.9262 42.7235 59.2994 41.6286 59.2994C40.4583 59.2994 39.5866 59.8091 38.9712 60.8585L38.917 60.9535H38.5641L38.4917 59.5036H37.4511C37.4933 60.1436 37.5114 60.8292 37.5114 61.7456V68.1135H38.7239V62.8794C38.7239 62.55 38.7722 62.258 38.8657 62.011C39.1341 61.1689 39.9395 60.2516 41.0736 60.2516C42.3495 60.2516 43.1427 61.2726 43.1427 62.9168V68.1135H44.3553V62.7494C44.3553 62.4577 44.4066 62.1374 44.494 61.8705C44.7775 61.0633 45.5407 60.2516 46.6114 60.2516C47.9959 60.2516 48.756 61.3037 48.756 63.2139V68.1135ZM50.3546 68.4993H48.3699V63.2139C48.3699 62.0388 48.0653 60.6374 46.6114 60.6374C45.7277 60.6374 45.0973 61.3191 44.859 61.995C44.7866 62.2215 44.7414 62.4975 44.7414 62.7494V68.4993H42.7566V62.9168C42.7566 61.4895 42.1293 60.6374 41.0736 60.6374C40.1355 60.6374 39.4599 61.4159 39.2307 62.1386C39.1492 62.3518 39.11 62.5977 39.11 62.8794V68.4993H37.1253V61.7456C37.1253 60.7397 37.1042 60.0158 37.0529 59.3253L37.0378 59.1181H38.8566L38.917 60.2456C39.5805 59.3612 40.4945 58.9133 41.6286 58.9133C42.7597 58.9133 43.7249 59.5229 44.2195 60.5261C44.4699 60.1557 44.7685 59.8342 45.1033 59.5841C45.7126 59.1205 46.3611 58.9133 47.2056 58.9133C48.7258 58.9133 50.3546 59.9895 50.3546 63.0094V68.4993Z" fill="black"/>
<path d="M52.8202 68.3062V59.3105H54.4571V68.3062H52.8202ZM54.6428 56.7826C54.661 57.3404 54.2533 57.7864 53.6022 57.7864C53.0241 57.7864 52.6194 57.3404 52.6194 56.7826C52.6194 56.207 53.0454 55.7606 53.6387 55.7606C54.2533 55.7606 54.6428 56.207 54.6428 56.7826Z" fill="black"/>
<path d="M53.6406 55.9537C53.1597 55.9537 52.8096 56.3023 52.8096 56.7829C52.8096 57.2449 53.1506 57.5937 53.6041 57.5937C53.8689 57.5937 54.0911 57.5088 54.2433 57.349C54.3833 57.2047 54.4594 57.006 54.4503 56.7893V56.7829C54.4503 56.2867 54.1246 55.9537 53.6406 55.9537ZM53.6041 57.9794C52.9284 57.9794 52.4231 57.465 52.4231 56.7829C52.4231 56.0901 52.9466 55.5678 53.6406 55.5678C54.3316 55.5678 54.8368 56.077 54.8368 56.7798C54.846 57.1006 54.7364 57.3977 54.5233 57.6169C54.2981 57.8506 53.9693 57.9794 53.6041 57.9794ZM53.0136 68.1131H54.2646V59.5031H53.0136V68.1131ZM54.6511 68.4988H52.6301V59.1175H54.6511V68.4988Z" fill="black"/>
<path d="M57.1695 61.7452C57.1695 60.8162 57.1509 60.0542 57.095 59.3106H58.545L58.6382 60.7975H58.6754C59.1195 59.9427 60.1628 59.1062 61.6501 59.1062C62.8952 59.1062 64.8265 59.8496 64.8265 62.9347V68.3062H63.1933V63.1207C63.1933 61.671 62.653 60.4631 61.1098 60.4631C60.0323 60.4631 59.2188 61.2329 58.9176 62.1355C58.8493 62.342 58.8058 62.619 58.8058 62.8978V68.3062H57.1695V61.7452Z" fill="black"/>
<path d="M63.3862 68.1132H64.6348V62.9345C64.6348 59.4742 62.1499 59.299 61.6498 59.299C60.1961 59.299 59.2487 60.119 58.848 60.8869L58.7951 60.9903H58.4597L58.3634 59.5034H57.3042C57.3445 60.1433 57.3632 60.8288 57.3632 61.7455V68.1132H58.615V62.8979C58.615 62.582 58.6554 62.2878 58.7361 62.0698C59.0064 61.1786 59.8482 60.27 61.1124 60.27C62.5785 60.27 63.3862 61.2823 63.3862 63.1209V68.1132ZM65.02 68.499H62.9979V63.1209C62.9979 61.9961 62.6717 60.6558 61.1124 60.6558C60.047 60.6558 59.3356 61.4274 59.1027 62.1921C59.0374 62.376 59.0002 62.6298 59.0002 62.8979V68.499H56.978V61.7455C56.978 60.7394 56.9532 60.0156 56.9035 59.3251L56.8879 59.1176H58.7268L58.7983 60.2532C59.345 59.5447 60.3048 58.9132 61.6498 58.9132C62.212 58.9132 65.02 59.1074 65.02 62.9345V68.499Z" fill="black"/>
</svg>
