<svg width="100" height="100" viewBox="0 0 100 100" fill="none" xmlns="http://www.w3.org/2000/svg">
<path d="M50 0.191513C22.5339 0.191513 0.191125 22.5351 0.191125 49.9991C0.191125 77.4632 22.5339 99.8084 50 99.8084C77.4661 99.8084 99.8089 77.4632 99.8089 49.9991C99.8089 22.5351 77.4661 0.191513 50 0.191513ZM50 100.001C36.6451 100.001 24.0879 94.7989 14.643 85.3552C5.19818 75.9112 0 63.3549 0 49.9991C0 36.6434 5.19818 24.0875 14.643 14.6434C24.0879 5.19939 36.6451 -0.001297 50 -0.001297C63.3549 -0.001297 75.9121 5.19939 85.3569 14.6434C94.8018 24.0875 100 36.6434 100 49.9991C100 63.3549 94.8018 75.9112 85.3569 85.3552C75.9121 94.7989 63.3549 100.001 50 100.001Z" fill="#3D76E1"/>
<path d="M51.6396 11.5354H48.3599V3.81907H51.6396V11.5354Z" fill="#7BA2EC"/>
<path d="M55.6566 11.9126L52.3945 11.5739L53.1916 3.89886L56.4537 4.2379L55.6566 11.9126Z" fill="#7BA2EC"/>
<path d="M59.6052 12.7083L56.397 12.0294L57.9952 4.47973L61.2034 5.1582L59.6052 12.7083Z" fill="#7BA2EC"/>
<path d="M63.4491 13.9146L60.3281 12.9017L62.7113 5.56167L65.8323 6.57451L63.4491 13.9146Z" fill="#7BA2EC"/>
<path d="M67.1426 15.5186L64.147 14.1829L67.2896 7.13486L70.2852 8.47056L67.1426 15.5186Z" fill="#7BA2EC"/>
<path d="M70.6512 17.5015L67.812 15.8587L71.6749 9.18059L74.5141 10.8229L70.6512 17.5015Z" fill="#7BA2EC"/>
<path d="M73.9341 19.842L71.2788 17.9121L75.8209 11.673L78.4722 13.6029L73.9341 19.842Z" fill="#7BA2EC"/>
<path d="M76.9501 22.512L74.5146 20.3169L79.6808 14.5835L82.1162 16.7786L76.9501 22.512Z" fill="#7BA2EC"/>
<path d="M79.6832 25.481L77.4917 23.0443L83.2204 17.8796L85.4159 20.3162L79.6832 25.481Z" fill="#7BA2EC"/>
<path d="M82.0842 28.7185L80.1567 26.0666L86.3965 21.526L88.324 24.1779L82.0842 28.7185Z" fill="#7BA2EC"/>
<path d="M84.1378 32.1877L82.4941 29.3489L89.1712 25.4844L90.8149 28.3229L84.1378 32.1877Z" fill="#7BA2EC"/>
<path d="M85.8157 35.8503L84.4795 32.8547L91.5265 29.7128L92.8628 32.7084L85.8157 35.8503Z" fill="#7BA2EC"/>
<path d="M87.1017 39.6682L86.0879 36.5489L93.4276 34.1657L94.4373 37.2854L87.1017 39.6682Z" fill="#7BA2EC"/>
<path d="M87.9675 43.6006L87.2905 40.3917L94.8401 38.7951L95.5171 42.0036L87.9675 43.6006Z" fill="#7BA2EC"/>
<path d="M88.4223 47.6045L88.0835 44.3424L95.7594 43.5451L96.0982 46.8067L88.4223 47.6045Z" fill="#7BA2EC"/>
<path d="M96.1796 51.6392H88.4614V48.3593H96.1796V51.6392Z" fill="#7BA2EC"/>
<path d="M95.7594 56.4534L88.0835 55.656L88.4223 52.394L96.0982 53.1913L95.7594 56.4534Z" fill="#7BA2EC"/>
<path d="M94.8401 61.2034L87.2905 59.6068L87.9675 56.3978L95.5171 57.9945L94.8401 61.2034Z" fill="#7BA2EC"/>
<path d="M93.4276 65.832L86.0879 63.4488L87.1017 60.3295L94.4373 62.7128L93.4276 65.832Z" fill="#7BA2EC"/>
<path d="M91.5265 70.2861L84.4795 67.1433L85.8157 64.1477L92.8628 67.2901L91.5265 70.2861Z" fill="#7BA2EC"/>
<path d="M89.1712 74.5149L82.4941 70.65L84.1378 67.8116L90.8149 71.676L89.1712 74.5149Z" fill="#7BA2EC"/>
<path d="M86.3965 78.4731L80.1567 73.9326L82.0842 71.2807L88.324 75.8213L86.3965 78.4731Z" fill="#7BA2EC"/>
<path d="M83.2205 82.1187L77.4878 76.9535L79.6833 74.5173L85.416 79.682L83.2205 82.1187Z" fill="#7BA2EC"/>
<path d="M79.6808 85.4163L74.5146 79.6821L76.9501 77.487L82.1162 83.2199L79.6808 85.4163Z" fill="#7BA2EC"/>
<path d="M75.8209 88.3247L71.2788 82.0868L73.9341 80.1565L78.4722 86.3952L75.8209 88.3247Z" fill="#7BA2EC"/>
<path d="M71.6749 90.8186L67.812 84.1389L70.6512 82.4965L74.5141 89.1743L71.6749 90.8186Z" fill="#7BA2EC"/>
<path d="M67.2896 92.8645L64.147 85.8173L67.1426 84.4804L70.2852 91.5288L67.2896 92.8645Z" fill="#7BA2EC"/>
<path d="M62.7113 94.4377L60.3281 87.0973L63.4491 86.0841L65.8323 93.4241L62.7113 94.4377Z" fill="#7BA2EC"/>
<path d="M57.9952 95.5195L56.397 87.9683L59.6052 87.2902L61.2034 94.8411L57.9952 95.5195Z" fill="#7BA2EC"/>
<path d="M53.1916 96.1001L52.3945 88.425L55.6566 88.0844L56.4537 95.7595L53.1916 96.1001Z" fill="#7BA2EC"/>
<path d="M51.6396 96.1792H48.3599V88.4617H51.6396V96.1792Z" fill="#7BA2EC"/>
<path d="M46.8029 96.1003L43.5442 95.7599L44.3416 88.0846L47.6042 88.4251L46.8029 96.1003Z" fill="#7BA2EC"/>
<path d="M42.0071 95.5195L38.7959 94.8411L40.392 87.29L43.6032 87.9681L42.0071 95.5195Z" fill="#7BA2EC"/>
<path d="M37.282 94.4377L34.1631 93.4241L36.5477 86.084L39.6666 87.0977L37.282 94.4377Z" fill="#7BA2EC"/>
<path d="M32.7096 92.8645L29.7153 91.5287L32.8563 84.4805L35.8506 85.8174L32.7096 92.8645Z" fill="#7BA2EC"/>
<path d="M28.3227 90.8191L25.4846 89.1746L29.3472 82.4964L32.1853 84.139L28.3227 90.8191Z" fill="#7BA2EC"/>
<path d="M24.1783 88.3247L21.5273 86.3951L26.067 80.1568L28.7178 82.0868L24.1783 88.3247Z" fill="#7BA2EC"/>
<path d="M20.3122 85.4165L17.8789 83.2202L23.0414 77.4871L25.4784 79.6823L20.3122 85.4165Z" fill="#7BA2EC"/>
<path d="M16.7767 82.1189L14.5835 79.6821L20.3167 74.5171L22.5099 76.9539L16.7767 82.1189Z" fill="#7BA2EC"/>
<path d="M13.6035 78.4724L11.6729 75.8208L17.9117 71.2803L19.8424 73.9319L13.6035 78.4724Z" fill="#7BA2EC"/>
<path d="M10.8242 74.5146L9.17847 71.676L15.86 67.8112L17.5021 70.6499L10.8242 74.5146Z" fill="#7BA2EC"/>
<path d="M8.47051 70.2859L7.13574 67.2901L14.1841 64.1478L15.5189 67.1432L8.47051 70.2859Z" fill="#7BA2EC"/>
<path d="M6.57273 65.832L5.56079 62.7127L12.902 60.3297L13.914 63.4494L6.57273 65.832Z" fill="#7BA2EC"/>
<path d="M5.15881 61.2031L4.47827 57.9943L12.0326 56.3972L12.7095 59.6061L5.15881 61.2031Z" fill="#7BA2EC"/>
<path d="M4.23922 56.4536L3.89941 53.1916L11.5737 52.3945L11.9135 55.6562L4.23922 56.4536Z" fill="#7BA2EC"/>
<path d="M11.5349 51.6392H3.8186V48.3594H11.5349V51.6392Z" fill="#7BA2EC"/>
<path d="M11.5737 47.6045L3.89941 46.8071L4.23922 43.545L11.9135 44.3425L11.5737 47.6045Z" fill="#7BA2EC"/>
<path d="M12.0326 43.6006L4.47827 42.0036L5.15881 38.7947L12.7095 40.3921L12.0326 43.6006Z" fill="#7BA2EC"/>
<path d="M12.902 39.6687L5.56079 37.2861L6.57273 34.1664L13.914 36.5494L12.902 39.6687Z" fill="#7BA2EC"/>
<path d="M14.1841 35.8506L7.13208 32.7079L8.47047 29.7125L15.5189 32.8552L14.1841 35.8506Z" fill="#7BA2EC"/>
<path d="M15.86 32.187L9.17847 28.3222L10.8242 25.4832L17.5021 29.348L15.86 32.187Z" fill="#7BA2EC"/>
<path d="M17.9117 28.7178L11.6729 24.1773L13.6035 21.5256L19.8424 26.0662L17.9117 28.7178Z" fill="#C8D8FA"/>
<path d="M20.3167 25.4812L14.5835 20.3162L16.7767 17.8801L22.5099 23.0448L20.3167 25.4812Z" fill="#C8D8FA"/>
<path d="M23.0456 22.5117L17.8794 16.7786L20.3164 14.5834L25.4826 20.3165L23.0456 22.5117Z" fill="#C8D8FA"/>
<path d="M26.067 19.842L21.5273 13.6026L24.1783 11.673L28.7178 17.9121L26.067 19.842Z" fill="#C8D8FA"/>
<path d="M29.3472 17.5017L25.4846 10.8231L28.3227 9.18087L32.1853 15.8595L29.3472 17.5017Z" fill="#C8D8FA"/>
<path d="M32.8563 15.5181L29.7153 8.47054L32.7096 7.13514L35.8506 14.1827L32.8563 15.5181Z" fill="#C8D8FA"/>
<path d="M36.5477 13.9148L34.1631 6.57512L37.282 5.56222L39.6666 12.9023L36.5477 13.9148Z" fill="#C8D8FA"/>
<path d="M40.392 12.708L38.7959 5.15808L42.0071 4.47928L43.6032 12.0292L40.392 12.708Z" fill="#C8D8FA"/>
<path d="M44.3416 11.9133L43.5442 4.23807L46.8029 3.89917L47.6042 11.5744L44.3416 11.9133Z" fill="#C8D8FA"/>
<path d="M47.3917 34.1897H39.6028L38.8166 39.4371C39.2883 39.3742 39.7255 39.3114 40.481 39.3114C42.0495 39.3114 43.6219 39.6569 44.8797 40.4112C46.4828 41.322 47.802 43.0819 47.802 45.6583C47.802 49.649 44.6267 52.6338 40.1972 52.6338C37.9691 52.6338 36.0822 52.0052 35.1082 51.3767L35.7985 49.2716C36.6498 49.7748 38.3142 50.4026 40.1665 50.4026C42.7744 50.4026 45.0025 48.706 45.0025 45.9724C44.9718 43.3331 43.2154 41.4482 39.1272 41.4482C37.9691 41.4482 37.0563 41.5736 36.3008 41.668L37.6239 31.8649H47.3917V34.1897Z" fill="black"/>
<path d="M35.4972 51.2323C36.4219 51.7549 38.1179 52.3082 40.1975 52.3082C44.4144 52.3082 47.4724 49.5114 47.4724 45.659C47.4724 43.5004 46.4671 41.6912 44.7175 40.6951C43.5779 40.0122 42.0738 39.638 40.4776 39.638C39.7754 39.638 39.3534 39.6941 38.9121 39.7535L38.4248 39.8184L39.3188 33.8645H47.0619V32.1916H37.9068L36.679 41.2926C37.3466 41.2101 38.1562 41.1226 39.127 41.1226C43.0292 41.1226 45.293 42.8891 45.3314 45.9691C45.3314 48.729 43.1558 50.7292 40.163 50.7292C38.5015 50.7292 36.9552 50.2354 35.9845 49.7458L35.4972 51.2323ZM40.1975 52.9604C37.8032 52.9604 35.8655 52.2552 34.9293 51.6513L34.7183 51.5151L35.6123 48.7847L35.9615 48.9915C36.8056 49.4922 38.4133 50.0773 40.163 50.0773C42.4076 50.0773 44.6791 48.6676 44.6791 45.9729C44.6446 43.2671 42.6762 41.7745 39.127 41.7745C38.068 41.7745 37.2353 41.8792 36.5025 41.9721L35.9193 42.0446L37.3351 31.5393H47.718V34.5164H39.879L39.1999 39.059C39.5452 39.0184 39.9366 38.9858 40.4776 38.9858C42.2158 38.9858 43.7966 39.3821 45.0436 40.1322C47.0005 41.2434 48.1247 43.2594 48.1247 45.659C48.1247 49.8893 44.7904 52.9604 40.1975 52.9604Z" fill="black"/>
<path d="M53.8 42.1708C53.8 47.481 55.435 50.497 57.9486 50.497C60.7775 50.497 62.1288 47.1977 62.1288 41.9821C62.1288 36.9548 60.8405 33.6556 57.9801 33.6556C55.5611 33.6556 53.8 36.6093 53.8 42.1708ZM64.8946 41.8564C64.8946 48.8004 62.314 52.6335 57.791 52.6335C53.7999 52.6335 51.0972 48.895 51.0381 42.1393C51.0381 35.2894 53.993 31.5194 58.1377 31.5194C62.444 31.5194 64.8946 35.3521 64.8946 41.8564Z" fill="black"/>
<path d="M57.98 33.9824C55.6031 33.9824 54.1248 37.1201 54.1248 42.1712C54.1248 47.1056 55.5912 50.1712 57.9484 50.1712C61.299 50.1712 61.7996 45.0409 61.7996 41.9828C61.7996 38.9949 61.303 33.9824 57.98 33.9824ZM57.9484 50.8236C55.1458 50.8236 53.4744 47.5889 53.4744 42.1712C53.4744 36.7177 55.201 33.33 57.98 33.33C60.8654 33.33 62.454 36.4031 62.454 41.9828C62.454 47.6839 60.8536 50.8236 57.9484 50.8236ZM58.1377 31.8459C53.9593 31.8459 51.3616 35.7902 51.3616 42.1397C51.4207 48.5058 53.8213 52.3081 57.7907 52.3081C62.1583 52.3081 64.5668 48.5964 64.5668 41.8567C64.5668 35.4949 62.2214 31.8459 58.1377 31.8459ZM57.7907 52.9604C53.4862 52.9604 50.7703 48.8152 50.7073 42.1428C50.7073 35.3881 53.5533 31.1936 58.1377 31.1936C62.6353 31.1936 65.2172 35.0802 65.2172 41.8567C65.2172 48.9134 62.5091 52.9604 57.7907 52.9604Z" fill="black"/>
<path d="M36.2834 61.9178C36.2834 60.9885 36.2643 60.2264 36.2104 59.4831H37.6401L37.7131 60.9328H37.7707C38.2704 60.0777 39.1082 59.2783 40.5955 59.2783C41.8214 59.2783 42.7515 60.0219 43.1396 61.0815H43.178C43.4586 60.5796 43.8122 60.1903 44.185 59.9105C44.723 59.5031 45.3148 59.2783 46.1718 59.2783C47.3632 59.2783 49.1272 60.0592 49.1272 63.1818V68.4788H47.5285V63.3862C47.5285 61.6576 46.8982 60.6165 45.5761 60.6165C44.6499 60.6165 43.9159 61.3025 43.6431 62.1038C43.57 62.3263 43.5124 62.6241 43.5124 62.9216V68.4788H41.9136V63.0888C41.9136 61.6576 41.2834 60.6165 40.0382 60.6165C39.0159 60.6165 38.2703 61.4343 38.0129 62.2525C37.9168 62.4938 37.8822 62.7729 37.8822 63.0515V68.4788H36.2834V61.9178Z" fill="black"/>
<path d="M47.7172 68.2865H48.932V63.1825C48.932 60.4469 47.5019 59.4723 46.1679 59.4723C45.4029 59.4723 44.8417 59.6492 44.2958 60.0647C43.9229 60.3461 43.5922 60.7302 43.3424 61.1757L43.2886 61.2749H43.0041L42.9579 61.1488C42.5697 60.0986 41.6855 59.4723 40.5899 59.4723C39.4174 59.4723 38.5486 59.9821 37.9335 61.0308L37.8758 61.1261H37.5298L37.4529 59.6765H36.4111C36.4534 60.3162 36.4726 61.002 36.4726 61.9185V68.2865H37.6836V63.0521C37.6836 62.7227 37.7335 62.4309 37.8258 62.1837C38.0949 61.3418 38.9061 60.4246 40.0324 60.4246C41.3126 60.4246 42.1045 61.4456 42.1045 63.0894V68.2865H43.3155V62.9222C43.3155 62.6304 43.3654 62.3102 43.4577 62.043C43.7383 61.2365 44.5033 60.4246 45.5721 60.4246C46.956 60.4246 47.7172 61.4764 47.7172 63.3866V68.2865ZM49.3164 68.6721H47.3328V63.3866C47.3328 62.2114 47.0252 60.8101 45.5721 60.8101C44.6879 60.8101 44.0574 61.4921 43.8229 62.1676C43.746 62.3944 43.7037 62.6704 43.7037 62.9222V68.6721H41.7162V63.0894C41.7162 61.6624 41.0896 60.8101 40.0324 60.8101C39.0983 60.8101 38.4217 61.5882 38.191 62.3113C38.1103 62.5247 38.0718 62.7704 38.0718 63.0521V68.6721H36.0882V61.9185C36.0882 60.9124 36.0651 60.1885 36.0151 59.4981L35.9998 59.2905H37.8181L37.8758 60.4184C38.5447 59.5338 39.4558 59.0864 40.5899 59.0864C41.7201 59.0864 42.685 59.6957 43.1809 60.6987C43.4308 60.3285 43.7307 60.0067 44.0651 59.7568C44.6725 59.2932 45.3222 59.0864 46.1679 59.0864C47.6903 59.0864 49.3164 60.1624 49.3164 63.1825V68.6721Z" fill="black"/>
<path d="M51.7845 68.4788V59.4832H53.4179V68.4788H51.7845ZM53.6037 56.9556C53.6231 57.5134 53.2128 57.9593 52.5664 57.9593C51.9896 57.9593 51.5793 57.5134 51.5793 56.9556C51.5793 56.3793 52.009 55.9334 52.6012 55.9334C53.2128 55.9334 53.6037 56.3793 53.6037 56.9556Z" fill="black"/>
<path d="M52.5998 56.1261C52.1197 56.1261 51.7713 56.4749 51.7713 56.9554C51.7713 57.4177 52.112 57.7662 52.565 57.7662C52.8322 57.7662 53.0528 57.6818 53.2077 57.5215C53.3471 57.3774 53.4207 57.1788 53.4129 56.962V56.9554C53.4129 56.4594 53.0877 56.1261 52.5998 56.1261ZM52.565 58.1522C51.8952 58.1522 51.3879 57.6376 51.3879 56.9554C51.3879 56.2627 51.9106 55.74 52.5998 55.74C53.2929 55.74 53.7962 56.2496 53.7962 56.9523C53.8079 57.2733 53.6956 57.5706 53.4865 57.7898C53.2581 58.0237 52.9328 58.1522 52.565 58.1522ZM51.9765 68.2864H53.2271V59.6762H51.9765V68.2864ZM53.6143 68.6716H51.5893V59.2901H53.6143V68.6716Z" fill="black"/>
<path d="M56.1313 61.918C56.1313 60.9886 56.1156 60.2268 56.0566 59.4834H57.5079L57.5984 60.9701H57.6377C58.0821 60.1154 59.1244 59.2789 60.6111 59.2789C61.8579 59.2789 63.7891 60.0222 63.7891 63.1077V68.4788H62.1568V63.2934C62.1568 61.8436 61.6141 60.6358 60.0723 60.6358C58.9946 60.6358 58.1844 61.4051 57.8816 62.3085C57.8108 62.5146 57.7675 62.7915 57.7675 63.0704V68.4788H56.1313V61.918Z" fill="black"/>
<path d="M62.35 68.2863H63.5972V63.1076C63.5972 59.647 61.1107 59.472 60.6111 59.472C59.1593 59.472 58.2111 60.2919 57.8098 61.0594L57.7548 61.1633H57.4204L57.3259 59.6762H56.2637C56.307 60.3159 56.3267 61.0016 56.3267 61.9179V68.2863H57.5777V63.0703C57.5777 62.7547 57.621 62.4608 57.6997 62.2425C57.9712 61.3514 58.8131 60.4425 60.0721 60.4425C61.5395 60.4425 62.35 61.4552 62.35 63.2937V68.2863ZM63.9827 68.6719H61.9645V63.2937C61.9645 62.1689 61.634 60.8285 60.0721 60.8285C59.0098 60.8285 58.3016 61.6004 58.0656 62.3648C57.9987 62.549 57.9633 62.8023 57.9633 63.0703V68.6719H55.9411V61.9179C55.9411 60.9123 55.9214 60.1884 55.8663 59.4979L55.8506 59.2902H57.6918L57.7627 60.4256C58.3095 59.7175 59.2695 59.086 60.6111 59.086C61.1737 59.086 63.9827 59.2796 63.9827 63.1076V68.6719Z" fill="black"/>
</svg>
