<svg width="100" height="100" viewBox="0 0 100 100" fill="none" xmlns="http://www.w3.org/2000/svg">
<path d="M49.9975 0.191704C22.5374 0.191704 0.188754 22.5354 0.188754 49.999C0.188754 77.4631 22.5374 99.8082 49.9975 99.8082C77.4626 99.8082 99.8063 77.4631 99.8063 49.999C99.8063 22.5354 77.4626 0.191704 49.9975 0.191704ZM49.9975 100.001C36.64 100.001 24.0872 94.7986 14.6441 85.3549C5.20092 75.9113 0 63.355 0 49.999C0 36.6435 5.20092 24.0872 14.6441 14.6435C24.0872 5.1994 36.64 -0.0010376 49.9975 -0.0010376C63.355 -0.0010376 75.9128 5.1994 85.3559 14.6435C94.7991 24.0872 100 36.6435 100 49.999C100 63.355 94.7991 75.9113 85.3559 85.3549C75.9128 94.7986 63.355 100.001 49.9975 100.001Z" fill="#3D76E1"/>
<path d="M51.6397 11.5356H48.3608V3.81906H51.6397V11.5356Z" fill="#7BA2EC"/>
<path d="M55.6546 11.9128L52.3926 11.574L53.1916 3.89929L56.4537 4.23818L55.6546 11.9128Z" fill="#7BA2EC"/>
<path d="M59.6045 12.7078L56.3979 12.0291L57.9965 4.47947L61.203 5.15767L59.6045 12.7078Z" fill="#7BA2EC"/>
<path d="M63.4488 13.9141L60.3276 12.9016L62.7113 5.56118L65.8325 6.57413L63.4488 13.9141Z" fill="#7BA2EC"/>
<path d="M67.1415 15.5188L64.146 14.1828L67.2899 7.13519L70.2854 8.47073L67.1415 15.5188Z" fill="#7BA2EC"/>
<path d="M70.6511 17.5017L67.8125 15.8592L71.6758 9.18089L74.5144 10.8229L70.6511 17.5017Z" fill="#7BA2EC"/>
<path d="M73.9315 19.8416L71.2817 17.9118L75.8222 11.6722L78.472 13.6024L73.9315 19.8416Z" fill="#7BA2EC"/>
<path d="M76.9567 22.5112L74.5181 20.316L79.6868 14.5829L82.1205 16.7781L76.9567 22.5112Z" fill="#7BA2EC"/>
<path d="M79.6844 25.4805L77.4893 23.0444L83.2209 17.8796L85.416 20.3161L79.6844 25.4805Z" fill="#7BA2EC"/>
<path d="M82.0867 28.718L80.1528 26.0664L86.3901 21.526L88.324 24.1776L82.0867 28.718Z" fill="#7BA2EC"/>
<path d="M84.1399 32.1865L82.4995 29.3479L89.1787 25.4833L90.819 28.3219L84.1399 32.1865Z" fill="#7BA2EC"/>
<path d="M85.8173 35.8501L84.4829 32.855L91.5287 29.7127L92.863 32.7083L85.8173 35.8501Z" fill="#7BA2EC"/>
<path d="M87.0968 39.6685L86.0854 36.5491L93.4262 34.1658L94.4376 37.2852L87.0968 39.6685Z" fill="#7BA2EC"/>
<path d="M87.9688 43.6006L87.2871 40.3921L94.8403 38.795L95.5171 42.004L87.9688 43.6006Z" fill="#7BA2EC"/>
<path d="M88.4206 47.6045L88.0845 44.3423L95.7618 43.5454L96.0979 46.8071L88.4206 47.6045Z" fill="#7BA2EC"/>
<path d="M96.1795 51.6389H88.4619V48.359H96.1795V51.6389Z" fill="#7BA2EC"/>
<path d="M95.7618 56.4534L88.0845 55.656L88.4206 52.3942L96.0979 53.1916L95.7618 56.4534Z" fill="#7BA2EC"/>
<path d="M94.8403 61.2036L87.2871 59.6065L87.9688 56.3975L95.5171 57.9946L94.8403 61.2036Z" fill="#7BA2EC"/>
<path d="M93.4262 65.8318L86.0854 63.4485L87.0968 60.3291L94.4376 62.7124L93.4262 65.8318Z" fill="#7BA2EC"/>
<path d="M91.5287 70.2859L84.4829 67.1431L85.8173 64.148L92.863 67.2903L91.5287 70.2859Z" fill="#7BA2EC"/>
<path d="M89.1787 74.5144L82.4995 70.6498L84.1399 67.8112L90.819 71.6753L89.1787 74.5144Z" fill="#7BA2EC"/>
<path d="M86.3901 78.4724L80.1528 73.932L82.0867 71.2804L88.324 75.8208L86.3901 78.4724Z" fill="#7BA2EC"/>
<path d="M83.2209 82.1182L77.4893 76.9533L79.6844 74.5173L85.416 79.6821L83.2209 82.1182Z" fill="#7BA2EC"/>
<path d="M79.6868 85.4155L74.5181 79.6819L76.9567 77.4867L82.1205 83.2193L79.6868 85.4155Z" fill="#7BA2EC"/>
<path d="M75.8222 88.3242L71.2817 82.0866L73.9315 80.1563L78.472 86.3949L75.8222 88.3242Z" fill="#7BA2EC"/>
<path d="M71.6758 90.8186L67.8125 84.1389L70.6511 82.4963L74.5144 89.1742L71.6758 90.8186Z" fill="#7BA2EC"/>
<path d="M67.2899 92.8643L64.146 85.8171L67.1415 84.4802L70.2854 91.5287L67.2899 92.8643Z" fill="#7BA2EC"/>
<path d="M62.7113 94.4373L60.3276 87.0968L63.4488 86.0834L65.8325 93.4234L62.7113 94.4373Z" fill="#7BA2EC"/>
<path d="M57.9917 95.5195L56.3979 87.968L59.6045 87.2898L61.203 94.8409L57.9917 95.5195Z" fill="#7BA2EC"/>
<path d="M53.1916 96.1001L52.3926 88.425L55.6546 88.0842L56.4537 95.7593L53.1916 96.1001Z" fill="#7BA2EC"/>
<path d="M51.6397 96.1792H48.3608V88.4617H51.6397V96.1792Z" fill="#7BA2EC"/>
<path d="M46.805 96.0999L43.5435 95.7593L44.3426 88.0841L47.6041 88.4246L46.805 96.0999Z" fill="#7BA2EC"/>
<path d="M41.9998 95.5195L38.7925 94.8411L40.3915 87.2897L43.5988 87.9681L41.9998 95.5195Z" fill="#7BA2EC"/>
<path d="M37.2854 94.4373L34.1685 93.4235L36.5499 86.0835L39.6668 87.0972L37.2854 94.4373Z" fill="#7BA2EC"/>
<path d="M32.7088 92.8638L29.7129 91.5286L32.8552 84.4803L35.8511 85.8167L32.7088 92.8638Z" fill="#7BA2EC"/>
<path d="M28.321 90.8186L25.481 89.1746L29.3451 82.4963L32.1852 84.1389L28.321 90.8186Z" fill="#7BA2EC"/>
<path d="M24.1786 88.3242L21.5239 86.3948L26.0677 80.1564L28.7178 82.0867L24.1786 88.3242Z" fill="#7BA2EC"/>
<path d="M20.3184 85.4155L17.8828 83.2195L23.0471 77.4864L25.4827 79.6816L20.3184 85.4155Z" fill="#7BA2EC"/>
<path d="M16.7782 82.1187L14.5815 79.6822L20.3134 74.5172L22.51 76.9537L16.7782 82.1187Z" fill="#7BA2EC"/>
<path d="M13.6034 78.4724L11.6699 75.821L17.909 71.2804L19.838 73.9323L13.6034 78.4724Z" fill="#7BA2EC"/>
<path d="M10.8234 74.5144L9.18164 71.6761L15.8603 67.8112L17.502 70.65L10.8234 74.5144Z" fill="#7BA2EC"/>
<path d="M8.47147 70.2854L7.13672 67.2898L14.1842 64.1473L15.519 67.1429L8.47147 70.2854Z" fill="#7BA2EC"/>
<path d="M6.57612 65.8315L5.56396 62.712L12.9022 60.3294L13.9143 63.449L6.57612 65.8315Z" fill="#7BA2EC"/>
<path d="M5.15757 61.2031L4.47949 57.9944L12.0315 56.3976L12.7096 59.6063L5.15757 61.2031Z" fill="#7BA2EC"/>
<path d="M4.23732 56.4529L3.90088 53.191L11.5774 52.3937L11.9139 55.6556L4.23732 56.4529Z" fill="#7BA2EC"/>
<path d="M11.5351 51.6387H3.81836V48.3591H11.5351V51.6387Z" fill="#7BA2EC"/>
<path d="M11.5774 47.6042L3.90088 46.8065L4.23732 43.5446L11.9139 44.342L11.5774 47.6042Z" fill="#7BA2EC"/>
<path d="M12.0315 43.6006L4.47949 42.0033L5.15757 38.7946L12.7096 40.3919L12.0315 43.6006Z" fill="#7BA2EC"/>
<path d="M12.9022 39.6685L5.56396 37.2854L6.57612 34.1664L13.9143 36.5489L12.9022 39.6685Z" fill="#7BA2EC"/>
<path d="M14.1842 35.8501L7.13672 32.7076L8.47147 29.712L15.519 32.8549L14.1842 35.8501Z" fill="#7BA2EC"/>
<path d="M15.8603 32.1868L9.18164 28.3224L10.8234 25.4836L17.502 29.348L15.8603 32.1868Z" fill="#7BA2EC"/>
<path d="M17.909 28.7183L11.6699 24.1777L13.6034 21.5263L19.838 26.0664L17.909 28.7183Z" fill="#7BA2EC"/>
<path d="M20.3134 25.4814L14.5815 20.316L16.7782 17.88L22.51 23.0449L20.3134 25.4814Z" fill="#7BA2EC"/>
<path d="M23.0471 22.5112L17.8828 16.7782L20.3184 14.583L25.4827 20.3161L23.0471 22.5112Z" fill="#7BA2EC"/>
<path d="M26.0677 19.842L21.5239 13.6027L24.1786 11.6724L28.7178 17.9117L26.0677 19.842Z" fill="#7BA2EC"/>
<path d="M29.3451 17.502L25.481 10.8232L28.321 9.18104L32.1852 15.8593L29.3451 17.502Z" fill="#7BA2EC"/>
<path d="M32.8552 15.5181L29.7129 8.47058L32.7088 7.135L35.8511 14.1825L32.8552 15.5181Z" fill="#C8D8FA"/>
<path d="M36.5494 13.9138L34.168 6.57414L37.2896 5.56135L39.671 12.9015L36.5494 13.9138Z" fill="#C8D8FA"/>
<path d="M40.3915 12.7085L38.7925 5.15845L41.9998 4.48002L43.5988 12.0296L40.3915 12.7085Z" fill="#C8D8FA"/>
<path d="M44.3426 11.9126L43.5435 4.23784L46.805 3.89915L47.6041 11.5739L44.3426 11.9126Z" fill="#C8D8FA"/>
<path d="M47.8791 34.017H40.09L39.2995 39.2643C39.7738 39.2016 40.2109 39.1383 40.9689 39.1383C42.536 39.1383 44.1125 39.4843 45.368 40.2381C46.9677 41.1491 48.2883 42.9087 48.2883 45.4854C48.2883 49.4758 45.1123 52.4612 40.6852 52.4612C38.4531 52.4612 36.5652 51.8325 35.5933 51.2038L36.2862 49.0986C37.1325 49.6018 38.8019 50.23 40.6527 50.23C43.2615 50.23 45.4889 48.5331 45.4889 45.7997C45.461 43.1603 43.7032 41.2751 39.6157 41.2751C38.4531 41.2751 37.5417 41.4011 36.7884 41.4951L38.109 31.6919H47.8791V34.017Z" fill="black"/>
<path d="M35.9801 51.0593C36.9058 51.5817 38.6039 52.1353 40.6834 52.1353C44.8983 52.1353 47.9595 49.3389 47.9595 45.486C47.9595 43.3278 46.9546 41.5186 45.2053 40.5225C44.0609 39.8391 42.5629 39.4651 40.9625 39.4651C40.2647 39.4651 39.8414 39.5214 39.3948 39.5805L38.9156 39.6451L39.8042 33.6912H47.5501V32.0188H38.3899L37.1664 41.1194C37.8363 41.0371 38.6411 40.9496 39.6134 40.9496C43.5166 40.9496 45.7776 42.716 45.8148 45.7963C45.8148 48.5564 43.6422 50.5564 40.6509 50.5564C38.99 50.5564 37.4408 50.0623 36.4685 49.5729L35.9801 51.0593ZM40.6834 52.7871C38.2922 52.7871 36.3522 52.0823 35.4125 51.4784L35.2031 51.3417L36.101 48.6118L36.4499 48.8188C37.292 49.3194 38.9016 49.9041 40.6509 49.9041C42.8932 49.9041 45.1635 48.4945 45.1635 45.8C45.1309 43.0943 43.1584 41.6018 39.6134 41.6018C38.5527 41.6018 37.72 41.7065 36.9849 41.7991L36.4081 41.8717L37.8223 31.3666H48.206V34.3435H40.3671L39.6879 38.8864C40.0321 38.8454 40.4229 38.8128 40.9625 38.8128C42.7025 38.8128 44.2842 39.2092 45.531 39.9592C47.4849 41.071 48.6108 43.0864 48.6108 45.486C48.6108 49.7167 45.2751 52.7871 40.6834 52.7871Z" fill="black"/>
<path d="M63.9959 34.0176H56.2026L55.419 39.2649C55.8891 39.2017 56.3261 39.1391 57.0812 39.1391C58.6531 39.1391 60.2251 39.4848 61.4788 40.2385C63.084 41.1498 64.4043 42.9094 64.4043 45.4857C64.4043 49.4764 61.2271 52.4617 56.801 52.4617C54.5689 52.4617 52.6835 51.8329 51.71 51.2041L52.3986 49.0993C53.2487 49.6022 54.9108 50.2306 56.7677 50.2306C59.375 50.2306 61.607 48.5337 61.607 45.8001C61.5738 43.1606 59.8167 41.2757 55.7324 41.2757C54.5689 41.2757 53.6571 41.4015 52.9067 41.4956L54.2222 31.6925H63.9959V34.0176Z" fill="black"/>
<path d="M52.1024 51.0591C53.0289 51.5813 54.725 52.1348 56.8012 52.1348C61.0155 52.1348 64.0799 49.3383 64.0799 45.4856C64.0799 43.3272 63.0727 41.518 61.3196 40.5222C60.184 39.839 58.6827 39.4646 57.0863 39.4646C56.3784 39.4646 55.9603 39.5211 55.5184 39.5805L55.0291 39.6451L55.9223 33.6911H63.6713V32.0182H54.5113L53.2854 41.1194C53.9553 41.0367 54.763 40.9493 55.7322 40.9493C59.6376 40.9493 61.8992 42.7158 61.9372 45.7959C61.9372 48.5558 59.7659 50.5565 56.7728 50.5565C55.1099 50.5565 53.561 50.0619 52.5918 49.5725L52.1024 51.0591ZM56.8012 52.7871C54.4114 52.7871 52.473 52.082 51.5323 51.4782L51.3232 51.3414L52.2212 48.6114L52.568 48.8185C53.4137 49.3193 55.0196 49.9042 56.7728 49.9042C59.0105 49.9042 61.2816 48.494 61.2816 45.8002C61.2483 43.0939 59.2813 41.6016 55.7322 41.6016C54.6728 41.6016 53.8413 41.7061 53.1049 41.7988L52.5253 41.8715L53.9363 31.3663H64.3223V34.3434H56.4877L55.8035 38.8859C56.1503 38.845 56.5399 38.8127 57.0863 38.8127C58.8205 38.8127 60.3978 39.209 61.6521 39.9587C63.6048 41.0704 64.7308 43.0863 64.7308 45.4856C64.7308 49.7165 61.3955 52.7871 56.8012 52.7871Z" fill="black"/>
<path d="M36.2791 61.7452C36.2791 60.816 36.2605 60.0539 36.2046 59.3104H37.6384L37.7129 60.7606H37.7688C38.2715 59.9049 39.1049 59.1061 40.5946 59.1061C41.8189 59.1061 42.75 59.8495 43.141 60.9091H43.1783C43.4529 60.4068 43.8114 60.0176 44.1792 59.7378C44.7192 59.3304 45.3151 59.1061 46.1716 59.1061C47.3588 59.1061 49.1231 59.8868 49.1231 63.0091V68.3064H47.5264V63.2135C47.5264 61.4849 46.8932 60.444 45.5711 60.444C44.6447 60.444 43.9138 61.1302 43.6392 61.9309C43.5647 62.1534 43.5135 62.4514 43.5135 62.7489V68.3064H41.912V62.916C41.912 61.4849 41.2836 60.444 40.0359 60.444C39.0117 60.444 38.2715 61.2619 38.0109 62.0799C37.9177 62.3215 37.8805 62.6004 37.8805 62.8787V68.3064H36.2791V61.7452Z" fill="black"/>
<path d="M47.7195 68.1132H48.9302V63.0087C48.9302 60.2735 47.5053 59.2989 46.1689 59.2989C45.4052 59.2989 44.8464 59.4763 44.297 59.8917C43.9198 60.1734 43.5938 60.5571 43.347 61.0027L43.2911 61.1019H43.0071L42.9605 60.9757C42.574 59.9257 41.6893 59.2989 40.595 59.2989C39.4169 59.2989 38.5508 59.8088 37.9361 60.8579L37.8756 60.9533H37.531L37.4565 59.5028H36.4135C36.4554 60.1431 36.474 60.8286 36.474 61.7454V68.1132H37.6893V62.8788C37.6893 62.5496 37.7359 62.2576 37.829 62.0104C38.0944 61.1685 38.9047 60.2511 40.0362 60.2511C41.3121 60.2511 42.1037 61.2723 42.1037 62.9161V68.1132H43.3191V62.7489C43.3191 62.4574 43.3703 62.137 43.4588 61.8702C43.7382 61.0628 44.5018 60.2511 45.5728 60.2511C46.9558 60.2511 47.7195 61.3031 47.7195 63.2136V68.1132ZM49.3167 68.4988H47.333V63.2136C47.333 62.0383 47.0303 60.6367 45.5728 60.6367C44.6927 60.6367 44.0595 61.3189 43.822 61.9946C43.7475 62.2209 43.7056 62.497 43.7056 62.7489V68.4988H41.7219V62.9161C41.7219 61.4893 41.0886 60.6367 40.0362 60.6367C39.1003 60.6367 38.4251 61.4153 38.1922 62.138C38.1131 62.3517 38.0712 62.5971 38.0712 62.8788V68.4988H36.0875V61.7454C36.0875 60.7391 36.0689 60.0155 36.013 59.325L35.999 59.1173H37.8244L37.8803 60.2451C38.5462 59.3604 39.4542 58.9129 40.595 58.9129C41.7219 58.9129 42.6904 59.5224 43.184 60.5254C43.4308 60.1552 43.7335 59.8335 44.0641 59.5834C44.6788 59.1201 45.3261 58.9129 46.1689 58.9129C47.6916 58.9129 49.3167 59.989 49.3167 63.0087V68.4988Z" fill="black"/>
<path d="M51.7827 68.3059V59.31H53.417V68.3059H51.7827ZM53.6044 56.7826C53.6231 57.3403 53.2157 57.7862 52.5601 57.7862C51.9888 57.7862 51.5767 57.3403 51.5767 56.7826C51.5767 56.2066 52.0075 55.7603 52.6022 55.7603C53.2157 55.7603 53.6044 56.2066 53.6044 56.7826Z" fill="black"/>
<path d="M52.5994 55.9534C52.117 55.9534 51.7703 56.3019 51.7703 56.7825C51.7703 57.2448 52.1123 57.5933 52.562 57.5933C52.829 57.5933 53.0491 57.5085 53.2084 57.3488C53.3442 57.2045 53.4191 57.0059 53.4098 56.7891V56.7825C53.4098 56.2864 53.0866 55.9534 52.5994 55.9534ZM52.562 57.9793C51.8921 57.9793 51.3862 57.4645 51.3862 56.7825C51.3862 56.0897 51.9062 55.5674 52.5994 55.5674C53.2927 55.5674 53.7938 56.0771 53.7985 56.7797C53.8079 57.1005 53.6955 57.3975 53.4847 57.6167C53.2599 57.8505 52.932 57.9793 52.562 57.9793ZM51.9765 68.1133H53.2224V59.503H51.9765V68.1133ZM53.6112 68.4988H51.5923V59.1175H53.6112V68.4988Z" fill="black"/>
<path d="M56.1301 61.7453C56.1301 60.8162 56.1159 60.0541 56.0542 59.3105H57.5062L57.6012 60.7972H57.6392C58.0805 59.9425 59.1244 59.1059 60.6097 59.1059C61.8577 59.1059 63.7891 59.8495 63.7891 62.9345V68.3062H62.1519V63.121C62.1519 61.6708 61.6157 60.4631 60.0687 60.4631C58.9915 60.4631 58.1801 61.2328 57.8811 62.1354C57.81 62.3418 57.7672 62.6189 57.7672 62.8979V68.3062H56.1301V61.7453Z" fill="black"/>
<path d="M62.3448 68.1134H63.5979V62.9345C63.5979 59.4743 61.1107 59.2986 60.6123 59.2986C59.1551 59.2986 58.2106 60.1188 57.8071 60.8868L57.7549 60.9903H57.4179L57.3277 59.5032H56.2645C56.3072 60.143 56.3262 60.8284 56.3262 61.7455V68.1134H57.5745V62.8974C57.5745 62.5818 57.6172 62.2875 57.6979 62.0697C57.9685 61.1787 58.8133 60.2698 60.0712 60.2698C61.5378 60.2698 62.3448 61.2822 62.3448 63.1205V68.1134ZM63.9823 68.4988H61.9603V63.1205C61.9603 61.9961 61.6328 60.6557 60.0712 60.6557C59.008 60.6557 58.296 61.427 58.0634 62.1921C57.997 62.3758 57.959 62.6297 57.959 62.8974V68.4988H55.937V61.7455C55.937 60.7392 55.918 60.0154 55.8658 59.3247L55.8516 59.1173H57.6885L57.7597 60.2527C58.3055 59.5445 59.269 58.9128 60.6123 58.9128C61.1724 58.9128 63.9823 59.1069 63.9823 62.9345V68.4988Z" fill="black"/>
</svg>
