<svg width="100" height="100" viewBox="0 0 100 100" fill="none" xmlns="http://www.w3.org/2000/svg">
<path d="M50.0007 0.192375C22.5364 0.192375 0.192667 22.5356 0.192667 49.9996C0.192667 77.4636 22.5364 99.8073 50.0007 99.8073C77.4647 99.8073 99.8073 77.4636 99.8073 49.9996C99.8073 22.5356 77.4647 0.192375 50.0007 0.192375ZM50.0007 100C36.6447 100 24.0886 94.7991 14.6447 85.3555C5.20084 75.9117 0 63.3552 0 49.9996C0 36.6439 5.20084 24.0877 14.6447 14.6439C24.0886 5.19923 36.6447 -0.000289917 50.0007 -0.000289917C63.3563 -0.000289917 75.9125 5.19923 85.3569 14.6439C94.8005 24.0877 100 36.6439 100 49.9996C100 63.3552 94.8005 75.9117 85.3569 85.3555C75.9125 94.7991 63.3563 100 50.0007 100Z" fill="#3D76E1"/>
<path d="M51.6402 11.5361H48.3608V3.81894H51.6402V11.5361Z" fill="#7BA2EC"/>
<path d="M55.6575 11.9133L52.3953 11.5744L53.1926 3.89816L56.4548 4.23864L55.6575 11.9133Z" fill="#7BA2EC"/>
<path d="M59.6078 12.7085L56.3994 12.0299L57.9962 4.48138L61.2049 5.15969L59.6078 12.7085Z" fill="#7BA2EC"/>
<path d="M63.4502 13.9148L60.3311 12.9018L62.7141 5.56362L65.8333 6.57451L63.4502 13.9148Z" fill="#7BA2EC"/>
<path d="M67.1446 15.5188L64.1492 14.1833L67.2918 7.13674L70.287 8.47225L67.1446 15.5188Z" fill="#7BA2EC"/>
<path d="M70.6514 17.502L67.8127 15.8598L71.6768 9.17954L74.5154 10.8233L70.6514 17.502Z" fill="#7BA2EC"/>
<path d="M73.9333 19.8423L71.2817 17.9127L75.8222 11.6735L78.474 13.6034L73.9333 19.8423Z" fill="#C8D8FA"/>
<path d="M76.9552 22.5122L74.5186 20.3171L79.6837 14.5841L82.1204 16.7793L76.9552 22.5122Z" fill="#C8D8FA"/>
<path d="M79.6837 25.4814L77.4885 23.0448L83.2209 17.8801L85.415 20.3165L79.6837 25.4814Z" fill="#C8D8FA"/>
<path d="M82.0878 28.7183L80.1582 26.0665L86.3968 21.526L88.3262 24.1778L82.0878 28.7183Z" fill="#C8D8FA"/>
<path d="M84.1405 32.1875L82.498 29.3486L89.1761 25.4843L90.8204 28.3232L84.1405 32.1875Z" fill="#C8D8FA"/>
<path d="M85.8162 35.8506L84.4817 32.8554L91.5304 29.713L92.8659 32.7082L85.8162 35.8506Z" fill="#C8D8FA"/>
<path d="M87.0989 39.6689L86.0854 36.5498L93.4255 34.1667L94.439 37.2859L87.0989 39.6689Z" fill="#C8D8FA"/>
<path d="M87.9698 43.6008L87.2915 40.3924L94.84 38.7956L95.521 42.004L87.9698 43.6008Z" fill="#C8D8FA"/>
<path d="M88.4264 47.6047L88.0859 44.3428L95.7612 43.5452L96.1017 46.8071L88.4264 47.6047Z" fill="#C8D8FA"/>
<path d="M96.1809 51.6392H88.4634V48.3595H96.1809V51.6392Z" fill="#C8D8FA"/>
<path d="M95.7612 56.4536L88.0859 55.6562L88.4264 52.3943L96.1017 53.1916L95.7612 56.4536Z" fill="#C8D8FA"/>
<path d="M94.84 61.2034L87.2915 59.6066L87.9698 56.3982L95.521 57.995L94.84 61.2034Z" fill="#C8D8FA"/>
<path d="M93.4255 65.8323L86.0854 63.4492L87.0989 60.33L94.439 62.7131L93.4255 65.8323Z" fill="#C8D8FA"/>
<path d="M91.5304 70.2859L84.4817 67.1435L85.8162 64.1483L92.8659 67.2905L91.5304 70.2859Z" fill="#C8D8FA"/>
<path d="M89.1761 74.5144L82.498 70.6504L84.1405 67.8115L90.8204 71.6758L89.1761 74.5144Z" fill="#C8D8FA"/>
<path d="M86.3969 78.4727L80.158 73.9322L82.0881 71.2807L88.3262 75.8212L86.3969 78.4727Z" fill="#C8D8FA"/>
<path d="M83.221 82.1189L77.4883 76.954L79.6834 74.5173L85.415 79.6822L83.221 82.1189Z" fill="#C8D8FA"/>
<path d="M79.6838 85.4153L74.5186 79.6823L76.9549 77.4872L82.1201 83.2201L79.6838 85.4153Z" fill="#C8D8FA"/>
<path d="M75.8222 88.3257L71.282 82.0868L73.9335 80.1572L78.4739 86.3958L75.8222 88.3257Z" fill="#C8D8FA"/>
<path d="M71.6773 90.8184L67.8127 84.1392L70.6516 82.4967L74.5159 89.1761L71.6773 90.8184Z" fill="#C8D8FA"/>
<path d="M67.2918 92.8635L64.1494 85.8162L67.1445 84.4807L70.287 91.528L67.2918 92.8635Z" fill="#C8D8FA"/>
<path d="M62.7141 94.4365L60.3311 87.0973L63.4502 86.0846L65.8333 93.4238L62.7141 94.4365Z" fill="#C8D8FA"/>
<path d="M57.9965 95.5193L56.3994 87.9694L59.6078 87.2906L61.2049 94.8404L57.9965 95.5193Z" fill="#C8D8FA"/>
<path d="M53.1926 96.0996L52.3953 88.4244L55.6575 88.0855L56.4548 95.7607L53.1926 96.0996Z" fill="#C8D8FA"/>
<path d="M51.6402 96.1799H48.3608V88.463H51.6402V96.1799Z" fill="#C8D8FA"/>
<path d="M46.8084 96.0996L43.5464 95.7607L44.3437 88.0855L47.6057 88.4244L46.8084 96.0996Z" fill="#C8D8FA"/>
<path d="M42.0051 95.5193L38.7964 94.8404L40.3935 87.2906L43.6021 87.9694L42.0051 95.5193Z" fill="#C8D8FA"/>
<path d="M37.2869 94.4365L34.1677 93.4238L36.5508 86.0846L39.67 87.0973L37.2869 94.4365Z" fill="#C8D8FA"/>
<path d="M32.7095 92.8635L29.7141 91.528L32.8565 84.4807L35.8517 85.8162L32.7095 92.8635Z" fill="#C8D8FA"/>
<path d="M28.324 90.8184L25.4854 89.1761L29.3499 82.4967L32.1885 84.1392L28.324 90.8184Z" fill="#C8D8FA"/>
<path d="M24.1788 88.3257L21.5271 86.3958L26.0676 80.1572L28.7193 82.0868L24.1788 88.3257Z" fill="#C8D8FA"/>
<path d="M20.3172 85.4153L17.8809 83.2201L23.0461 77.4872L25.4825 79.6823L20.3172 85.4153Z" fill="#C8D8FA"/>
<path d="M16.7804 82.1189L14.5852 79.6825L20.3179 74.5173L22.513 76.954L16.7804 82.1189Z" fill="#C8D8FA"/>
<path d="M13.6042 78.4727L11.6743 75.8212L17.9132 71.2807L19.8429 73.9324L13.6042 78.4727Z" fill="#C8D8FA"/>
<path d="M10.8236 74.5146L9.18115 71.676L15.8611 67.8115L17.5036 70.6501L10.8236 74.5146Z" fill="#C8D8FA"/>
<path d="M8.47175 70.2859L7.13623 67.2908L14.1841 64.1481L15.5196 67.1435L8.47175 70.2859Z" fill="#C8D8FA"/>
<path d="M6.57623 65.8323L5.56323 62.7131L12.9025 60.33L13.9152 63.4492L6.57623 65.8323Z" fill="#C8D8FA"/>
<path d="M5.15953 61.2036L4.48096 57.9949L12.0311 56.3979L12.7097 59.6065L5.15953 61.2036Z" fill="#C8D8FA"/>
<path d="M4.23931 56.4536L3.90015 53.1916L11.5754 52.3943L11.9143 55.6562L4.23931 56.4536Z" fill="#C8D8FA"/>
<path d="M11.537 51.6392H3.82056V48.3595H11.537V51.6392Z" fill="#C8D8FA"/>
<path d="M11.5754 47.6047L3.90015 46.8071L4.23931 43.5452L11.9143 44.3425L11.5754 47.6047Z" fill="#C8D8FA"/>
<path d="M12.0311 43.6008L4.48096 42.004L5.15953 38.7954L12.7097 40.3924L12.0311 43.6008Z" fill="#C8D8FA"/>
<path d="M12.9025 39.6689L5.56323 37.2859L6.57623 34.1667L13.9152 36.5495L12.9025 39.6689Z" fill="#C8D8FA"/>
<path d="M14.1841 35.8506L7.13623 32.7082L8.47175 29.7128L15.5196 32.8554L14.1841 35.8506Z" fill="#C8D8FA"/>
<path d="M15.8611 32.1875L9.18115 28.3227L10.8236 25.4841L17.5036 29.3489L15.8611 32.1875Z" fill="#C8D8FA"/>
<path d="M17.9132 28.7183L11.6743 24.1778L13.6042 21.526L19.8429 26.0665L17.9132 28.7183Z" fill="#C8D8FA"/>
<path d="M20.3177 25.4814L14.5847 20.3162L16.7799 17.8799L22.5128 23.0448L20.3177 25.4814Z" fill="#C8D8FA"/>
<path d="M23.0461 22.512L17.8809 16.779L20.3175 14.5839L25.4827 20.3168L23.0461 22.512Z" fill="#C8D8FA"/>
<path d="M26.0678 19.8423L21.5271 13.6031L24.1788 11.6735L28.7193 17.9124L26.0678 19.8423Z" fill="#C8D8FA"/>
<path d="M29.3496 17.502L25.4856 10.8233L28.3242 9.17954L32.1882 15.8598L29.3496 17.502Z" fill="#C8D8FA"/>
<path d="M32.8568 15.5188L29.7141 8.47225L32.7095 7.13674L35.8519 14.1833L32.8568 15.5188Z" fill="#C8D8FA"/>
<path d="M36.5511 13.9148L34.1677 6.57451L37.2869 5.56362L39.6703 12.9018L36.5511 13.9148Z" fill="#C8D8FA"/>
<path d="M40.3934 12.7085L38.7966 5.15969L42.005 4.48138L43.6021 12.0299L40.3934 12.7085Z" fill="#C8D8FA"/>
<path d="M44.3437 11.9133L43.5464 4.23864L46.8084 3.89816L47.6057 11.5744L44.3437 11.9133Z" fill="#C8D8FA"/>
<path d="M55.5566 34.0176H47.7645L46.9787 39.2649C47.4501 39.2021 47.8901 39.1393 48.6439 39.1393C50.2151 39.1393 51.7863 39.4847 53.0429 40.2391C54.6455 41.1502 55.9649 42.9096 55.9649 45.4861C55.9649 49.4766 52.7916 52.4617 48.3612 52.4617C46.1304 52.4617 44.2452 51.8332 43.2712 51.2045L43.9625 49.0996C44.8108 49.6024 46.4762 50.2306 48.3298 50.2306C50.9378 50.2306 53.1686 48.534 53.1686 45.8005C53.1371 43.1611 51.3775 41.2758 47.2931 41.2758C46.1304 41.2758 45.2191 41.4015 44.4653 41.4957L45.7847 31.6926H55.5566V34.0176Z" fill="black"/>
<path d="M43.662 51.0596C44.5878 51.5819 46.2849 52.1354 48.3611 52.1354C52.5779 52.1354 55.6388 49.339 55.6388 45.4861C55.6388 43.3276 54.6337 41.5186 52.8817 40.5223C51.7429 39.8392 50.2403 39.4652 48.6437 39.4652C47.9419 39.4652 47.5223 39.5212 47.0783 39.5803L46.5919 39.6452L47.4832 33.6916H55.2302V32.0185H46.0696L44.8447 41.1196C45.5129 41.0369 46.3208 40.9496 47.2929 40.9496C51.1973 40.9496 53.4579 42.7164 53.4946 45.7965C53.4946 48.5565 51.3224 50.5568 48.3297 50.5568C46.6687 50.5568 45.1202 50.0625 44.15 49.5731L43.662 51.0596ZM48.3611 52.7876C45.9709 52.7876 44.0301 52.0826 43.0942 51.4787L42.8826 51.342L43.7791 48.6119L44.1286 48.8191C44.9735 49.3197 46.5806 49.9044 48.3297 49.9044C50.5723 49.9044 52.8424 48.4947 52.8424 45.8004C52.8099 43.0943 50.8391 41.6017 47.2929 41.6017C46.2319 41.6017 45.4 41.7065 44.666 41.7992L44.0853 41.8718L45.4995 31.3664H55.8824V34.3438H48.0451L47.365 38.8861C47.7097 38.8455 48.1013 38.813 48.6437 38.813C50.3817 38.813 51.9609 39.2095 53.2106 39.9593C55.1658 41.0707 56.291 43.0867 56.291 45.4861C56.291 49.717 52.9559 52.7876 48.3611 52.7876Z" fill="black"/>
<path d="M36.2834 61.7455C36.2834 60.8162 36.2647 60.0539 36.209 59.3107H37.64L37.7145 60.7605H37.7702C38.2719 59.9051 39.1086 59.1059 40.5953 59.1059C41.8218 59.1059 42.7511 59.8494 43.1415 60.9088H43.1787C43.4574 60.4071 43.8116 60.0178 44.1825 59.738C44.7225 59.3305 45.3163 59.1059 46.1712 59.1059C47.3608 59.1059 49.1262 59.8866 49.1262 63.0092V68.3064H47.5278V63.2138C47.5278 61.485 46.896 60.4443 45.5763 60.4443C44.647 60.4443 43.917 61.13 43.6435 61.931C43.5675 62.1538 43.5134 62.4515 43.5134 62.7492V68.3064H41.915V62.9166C41.915 61.485 41.2829 60.4443 40.0376 60.4443C39.0154 60.4443 38.2719 61.262 38.0119 62.0799C37.919 62.3214 37.8815 62.6004 37.8815 62.8791V68.3064H36.2834V61.7455Z" fill="black"/>
<path d="M47.7208 68.1134H48.9333V63.0091C48.9333 60.2735 47.5064 59.2987 46.1712 59.2987C45.4066 59.2987 44.8468 59.4761 44.2991 59.8916C43.9235 60.1732 43.5947 60.5572 43.3473 61.0025L43.2922 61.1017H43.0071L42.9604 60.9755C42.5738 59.9256 41.6896 59.2987 40.5953 59.2987C39.4218 59.2987 38.5522 59.8087 37.9364 60.8581L37.8805 60.9534H37.531L37.4568 59.5033H36.4159C36.4579 60.1428 36.4763 60.8288 36.4763 61.7454V68.1134H37.6886V62.879C37.6886 62.5496 37.7369 62.2575 37.8316 62.0107C38.099 61.169 38.9061 60.2513 40.0376 60.2513C41.3145 60.2513 42.1079 61.2725 42.1079 62.9162V68.1134H43.3204V62.7492C43.3204 62.4573 43.3714 62.1368 43.4603 61.87C43.7419 61.0632 44.5047 60.2513 45.5763 60.2513C46.9593 60.2513 47.7208 61.3033 47.7208 63.2137V68.1134ZM49.3192 68.4993H47.3352V63.2137C47.3352 62.0381 47.03 60.6372 45.5763 60.6372C44.6942 60.6372 44.0613 61.3189 43.8256 61.9946C43.7501 62.2213 43.7063 62.4971 43.7063 62.7492V68.4993H41.722V62.9162C41.722 61.4891 41.0923 60.6372 40.0376 60.6372C39.1001 60.6372 38.4255 61.4152 38.1956 62.1384C38.1141 62.3517 38.0745 62.5972 38.0745 62.879V68.4993H36.0905V61.7454C36.0905 60.739 36.0683 60.0153 36.0166 59.3249L36.001 59.1177H37.8234L37.8813 60.2452C38.5474 59.3605 39.4583 58.9129 40.5953 58.9129C41.7247 58.9129 42.6901 59.5226 43.1866 60.5255C43.4331 60.1555 43.7332 59.8335 44.0666 59.5835C44.6778 59.1201 45.3271 58.9129 46.1712 58.9129C47.693 58.9129 49.3192 59.9889 49.3192 63.0091V68.4993Z" fill="black"/>
<path d="M51.7854 68.3064V59.3107H53.421V68.3064H51.7854ZM53.6068 56.7827C53.6252 57.3404 53.2164 57.7865 52.5658 57.7865C51.9897 57.7865 51.5808 57.3404 51.5808 56.7827C51.5808 56.2066 52.0084 55.7605 52.603 55.7605C53.2164 55.7605 53.6068 56.2066 53.6068 56.7827Z" fill="black"/>
<path d="M52.6031 55.9534C52.1227 55.9534 51.7738 56.302 51.7738 56.7827C51.7738 57.2448 52.1143 57.5935 52.5659 57.5935C52.8319 57.5935 53.0544 57.5087 53.2093 57.3485C53.3484 57.2047 53.4213 57.006 53.4139 56.789V56.7827C53.4139 56.2867 53.0882 55.9534 52.6031 55.9534ZM52.5659 57.9793C51.8944 57.9793 51.3879 57.4649 51.3879 56.7827C51.3879 56.0898 51.9105 55.5675 52.6031 55.5675C53.2954 55.5675 53.7982 56.0769 53.7998 56.7795C53.8095 57.1004 53.6984 57.3979 53.4865 57.6169C53.2606 57.8505 52.9335 57.9793 52.5659 57.9793ZM51.9784 68.1134H53.2281V59.5033H51.9784V68.1134ZM53.614 68.4993H51.5925V59.1177H53.614V68.4993Z" fill="black"/>
<path d="M56.1347 61.7455C56.1347 60.8162 56.116 60.0539 56.0603 59.3107H57.5101L57.603 60.7974H57.6402C58.0863 59.9426 59.1272 59.1059 60.614 59.1059C61.8592 59.1059 63.7923 59.8494 63.7923 62.9348V68.3064H62.1567V63.1206C62.1567 61.6711 61.6177 60.4628 60.075 60.4628C58.9971 60.4628 58.1604 61.225 57.882 62.1359C57.8076 62.3399 57.7703 62.6189 57.7703 62.8976V68.3064H56.1347V61.7455Z" fill="black"/>
<path d="M62.3498 68.1134H63.5996V62.9347C63.5996 59.474 61.1128 59.2987 60.6142 59.2987C59.1586 59.2987 58.2119 60.1191 57.8115 60.8866L57.7574 60.9903H57.4222L57.329 59.5033H56.2675C56.3097 60.1428 56.3279 60.8288 56.3279 61.7454V68.1134H57.5776V62.8975C57.5776 62.5816 57.6214 62.2875 57.7009 62.0695C57.9733 61.1785 58.8152 60.2698 60.0752 60.2698C61.5419 60.2698 62.3498 61.2822 62.3498 63.1205V68.1134ZM63.9855 68.4993H61.964V63.1205C61.964 61.9962 61.6364 60.6556 60.0752 60.6556C59.0124 60.6556 58.3005 61.4274 58.0664 62.192C57.9999 62.376 57.9635 62.6296 57.9635 62.8975V68.4993H55.942V61.7454C55.942 60.739 55.9198 60.0153 55.8681 59.3249L55.8525 59.1177H57.6914L57.7624 60.2529C58.3114 59.5445 59.2708 58.9129 60.6142 58.9129C61.1772 58.9129 63.9855 59.1069 63.9855 62.9347V68.4993Z" fill="black"/>
</svg>
