<svg width="100" height="100" viewBox="0 0 100 100" fill="none" xmlns="http://www.w3.org/2000/svg">
<path d="M49.9985 0.192123C22.5368 0.192123 0.19259 22.5357 0.19259 49.9998C0.19259 77.464 22.5368 99.8078 49.9985 99.8078C77.4632 99.8078 99.8074 77.464 99.8074 49.9998C99.8074 22.5357 77.4632 0.192123 49.9985 0.192123ZM49.9985 100.001C36.6452 100.001 24.0867 94.7995 14.6434 85.3555C5.20009 75.9119 0 63.3556 0 49.9998C0 36.6441 5.20009 24.0881 14.6434 14.6441C24.0867 5.20023 36.6452 -0.000778198 49.9985 -0.000778198C63.3548 -0.000778198 75.9102 5.20023 85.3566 14.6441C94.7999 24.0881 100 36.6441 100 49.9998C100 63.3556 94.7999 75.9119 85.3566 85.3555C75.9102 94.7995 63.3548 100.001 49.9985 100.001Z" fill="#3D76E1"/>
<path d="M51.6407 11.5361H48.3613V3.81973H51.6407V11.5361Z" fill="#7BA2EC"/>
<path d="M55.6574 11.9133L52.396 11.5744L53.1939 3.89925L56.4553 4.23823L55.6574 11.9133Z" fill="#7BA2EC"/>
<path d="M59.6089 12.7087L56.3979 12.0299L57.9964 4.47989L61.2045 5.15872L59.6089 12.7087Z" fill="#7BA2EC"/>
<path d="M63.4509 13.9148L60.3301 12.9017L62.7134 5.56203L65.8342 6.57487L63.4509 13.9148Z" fill="#7BA2EC"/>
<path d="M67.1449 15.5188L64.1494 14.1832L67.2916 7.13535L70.2871 8.47097L67.1449 15.5188Z" fill="#7BA2EC"/>
<path d="M70.6523 17.5022L67.8125 15.8598L71.6763 9.18087L74.5161 10.8233L70.6523 17.5022Z" fill="#7BA2EC"/>
<path d="M73.9338 19.8425L71.2808 17.9126L75.8233 11.6736L78.4734 13.6032L73.9338 19.8425Z" fill="#7BA2EC"/>
<path d="M76.9565 22.512L74.519 20.3168L79.6829 14.5838L82.1204 16.779L76.9565 22.512Z" fill="#7BA2EC"/>
<path d="M79.6823 25.4814L77.4893 23.045L83.2226 17.8802L85.4157 20.3166L79.6823 25.4814Z" fill="#7BA2EC"/>
<path d="M82.0873 28.7183L80.1587 26.0666L86.3983 21.526L88.3269 24.1777L82.0873 28.7183Z" fill="#7BA2EC"/>
<path d="M84.139 32.1875L82.4976 29.3488L89.1772 25.4847L90.8186 28.3234L84.139 32.1875Z" fill="#7BA2EC"/>
<path d="M85.8163 35.8506L84.4814 32.8554L91.5296 29.7131L92.8644 32.7083L85.8163 35.8506Z" fill="#7BA2EC"/>
<path d="M87.0972 39.6692L86.0845 36.5501L93.4242 34.1668L94.4369 37.2862L87.0972 39.6692Z" fill="#7BA2EC"/>
<path d="M87.9706 43.6008L87.292 40.3925L94.8417 38.7956L95.5204 42.0039L87.9706 43.6008Z" fill="#7BA2EC"/>
<path d="M88.4232 47.605L88.0835 44.3428L95.7604 43.5454L96.1001 46.8076L88.4232 47.605Z" fill="#7BA2EC"/>
<path d="M96.1805 51.6392H88.4629V48.3598H96.1805V51.6392Z" fill="#7BA2EC"/>
<path d="M95.7604 56.4539L88.0835 55.6564L88.4232 52.3943L96.1001 53.192L95.7604 56.4539Z" fill="#7BA2EC"/>
<path d="M94.8417 61.2036L87.292 59.6067L87.9706 56.3981L95.5204 57.995L94.8417 61.2036Z" fill="#7BA2EC"/>
<path d="M93.4242 65.8325L86.0845 63.4495L87.0972 60.3302L94.4369 62.7134L93.4242 65.8325Z" fill="#7BA2EC"/>
<path d="M91.5296 70.2861L84.4814 67.1439L85.8163 64.1486L92.8644 67.2909L91.5296 70.2861Z" fill="#7BA2EC"/>
<path d="M89.1772 74.5149L82.4976 70.6505L84.139 67.8118L90.8186 71.6762L89.1772 74.5149Z" fill="#7BA2EC"/>
<path d="M86.3983 78.4727L80.1587 73.9324L82.0873 71.2807L88.3269 75.821L86.3983 78.4727Z" fill="#7BA2EC"/>
<path d="M83.2227 82.1189L77.4863 76.9541L79.6824 74.5174L85.4158 79.6825L83.2227 82.1189Z" fill="#7BA2EC"/>
<path d="M79.6829 85.4155L74.519 79.6823L76.9565 77.4871L82.1204 83.2203L79.6829 85.4155Z" fill="#7BA2EC"/>
<path d="M75.8233 88.3259L71.2808 82.0872L73.9338 80.1573L78.4734 86.396L75.8233 88.3259Z" fill="#7BA2EC"/>
<path d="M71.6763 90.8184L67.8125 84.1391L70.6523 82.4964L74.5161 89.176L71.6763 90.8184Z" fill="#7BA2EC"/>
<path d="M67.2916 92.8635L64.1494 85.8163L67.1449 84.4806L70.2871 91.5279L67.2916 92.8635Z" fill="#7BA2EC"/>
<path d="M62.7134 94.437L60.3301 87.0977L63.4509 86.0848L65.8342 93.4242L62.7134 94.437Z" fill="#7BA2EC"/>
<path d="M57.9964 95.5195L56.3979 87.9695L59.6089 87.291L61.2045 94.841L57.9964 95.5195Z" fill="#7BA2EC"/>
<path d="M53.1939 96.0999L52.396 88.4245L55.6574 88.0855L56.4553 95.7609L53.1939 96.0999Z" fill="#7BA2EC"/>
<path d="M51.6407 96.1799H48.3613V88.463H51.6407V96.1799Z" fill="#7BA2EC"/>
<path d="M46.8063 96.0999L43.5454 95.7609L44.3415 88.0855L47.6051 88.4245L46.8063 96.0999Z" fill="#7BA2EC"/>
<path d="M42.0055 95.5193L38.7983 94.8404L40.3924 87.2906L43.6024 87.9695L42.0055 95.5193Z" fill="#7BA2EC"/>
<path d="M37.286 94.437L34.1665 93.424L36.5498 86.0849L39.6694 87.0976L37.286 94.437Z" fill="#7BA2EC"/>
<path d="M32.7087 92.8635L29.7148 91.528L32.8552 84.4809L35.8516 85.8161L32.7087 92.8635Z" fill="#7BA2EC"/>
<path d="M28.3245 90.8186L25.4854 89.1761L29.3492 82.4966L32.1883 84.1391L28.3245 90.8186Z" fill="#7BA2EC"/>
<path d="M24.1781 88.3259L21.5269 86.3959L26.0669 80.1572L28.7181 82.0872L24.1781 88.3259Z" fill="#7BA2EC"/>
<path d="M20.316 85.4155L17.8799 83.2204L23.0459 77.4874L25.482 79.6827L20.316 85.4155Z" fill="#7BA2EC"/>
<path d="M16.7804 82.1191L14.5859 79.6828L20.3173 74.5176L22.5117 76.9542L16.7804 82.1191Z" fill="#7BA2EC"/>
<path d="M13.6044 78.4729L11.6753 75.8214L17.9116 71.281L19.8433 73.9325L13.6044 78.4729Z" fill="#7BA2EC"/>
<path d="M10.8251 74.5151L9.17969 71.6764L15.8606 67.8117L17.5035 70.6504L10.8251 74.5151Z" fill="#7BA2EC"/>
<path d="M8.47214 70.2861L7.13672 67.2909L14.1844 64.1484L15.5198 67.1436L8.47214 70.2861Z" fill="#7BA2EC"/>
<path d="M6.57709 65.8323L5.56299 62.7131L12.9045 60.33L13.9161 63.4492L6.57709 65.8323Z" fill="#7BA2EC"/>
<path d="M5.15731 61.2036L4.479 57.9952L12.031 56.3983L12.7094 59.6067L5.15731 61.2036Z" fill="#7BA2EC"/>
<path d="M4.23763 56.4539L3.90039 53.1918L11.5762 52.3945L11.9135 55.6566L4.23763 56.4539Z" fill="#7BA2EC"/>
<path d="M11.5374 51.6392H3.8208V48.3597H11.5374V51.6392Z" fill="#7BA2EC"/>
<path d="M11.5762 47.6047L3.90039 46.8072L4.23763 43.5451L11.9135 44.3426L11.5762 47.6047Z" fill="#7BA2EC"/>
<path d="M12.031 43.6013L4.479 42.0042L5.15731 38.7955L12.7094 40.3926L12.031 43.6013Z" fill="#7BA2EC"/>
<path d="M12.9045 39.6689L5.56299 37.2859L6.57709 34.1664L13.9161 36.5495L12.9045 39.6689Z" fill="#7BA2EC"/>
<path d="M14.1844 35.8511L7.13672 32.7086L8.47214 29.7133L15.5198 32.8558L14.1844 35.8511Z" fill="#7BA2EC"/>
<path d="M15.8606 32.1877L9.17969 28.323L10.8251 25.4843L17.5035 29.349L15.8606 32.1877Z" fill="#7BA2EC"/>
<path d="M17.9116 28.7183L11.6753 24.1779L13.6044 21.5261L19.8433 26.0667L17.9116 28.7183Z" fill="#7BA2EC"/>
<path d="M20.3173 25.4817L14.5859 20.3168L16.7804 17.8802L22.5117 23.0451L20.3173 25.4817Z" fill="#7BA2EC"/>
<path d="M23.0459 22.5122L17.8799 16.7794L20.316 14.584L25.482 20.3168L23.0459 22.5122Z" fill="#7BA2EC"/>
<path d="M26.0669 19.8425L21.5269 13.6033L24.1781 11.6736L28.7181 17.9126L26.0669 19.8425Z" fill="#7BA2EC"/>
<path d="M29.3492 17.5022L25.4854 10.8235L28.3245 9.18104L32.1883 15.8597L29.3492 17.5022Z" fill="#7BA2EC"/>
<path d="M32.8554 15.5188L29.7124 8.4711L32.7089 7.13562L35.8518 14.1833L32.8554 15.5188Z" fill="#7BA2EC"/>
<path d="M36.5498 13.915L34.1665 6.5751L37.286 5.56239L39.6694 12.9021L36.5498 13.915Z" fill="#7BA2EC"/>
<path d="M40.3924 12.7087L38.7983 5.15865L42.0055 4.4798L43.6024 12.0299L40.3924 12.7087Z" fill="#7BA2EC"/>
<path d="M44.3442 11.9133L43.5454 4.2385L46.809 3.89956L47.6051 11.5746L44.3442 11.9133Z" fill="#7BA2EC"/>
<path d="M46.1986 45.5963C46.1986 42.674 44.5329 40.9145 41.9863 40.9145C40.3233 40.9145 38.7839 41.9515 38.0292 43.4284C37.8399 43.7426 37.7137 44.1512 37.7137 44.6537C37.7768 48.0158 39.3162 50.4976 42.2058 50.4976C44.596 50.4976 46.1986 48.5186 46.1986 45.5963ZM46.9834 33.8137C46.4181 33.7824 45.6937 33.8112 44.9088 33.9394C40.5703 34.6485 38.2817 37.8353 37.8097 41.1974H37.903C38.8772 39.9093 40.5731 38.841 42.837 38.841C46.4511 38.841 48.9949 41.4488 48.9949 45.4393C48.9949 49.1783 46.4511 52.6345 42.2058 52.6345C37.8399 52.6345 34.9805 49.2411 34.9805 43.9311C34.9805 39.9093 36.4266 36.7354 38.4381 34.7248C40.134 33.0596 42.4007 32.0632 44.972 31.7084C45.7925 31.5953 46.4813 31.5514 46.9834 31.5514V33.8137Z" fill="black"/>
<path d="M41.9895 41.2404C40.4846 41.2404 39.0456 42.1573 38.3206 43.5765L38.3096 43.596C38.1311 43.8921 38.0432 44.248 38.0432 44.6536C38.0927 47.3179 39.2131 50.1714 42.2092 50.1714C44.4006 50.1714 45.8726 48.3326 45.8726 45.5963C45.8726 42.9095 44.3841 41.2404 41.9895 41.2404ZM42.2092 50.8237C39.3065 50.8237 37.4611 48.4617 37.3897 44.6596C37.3897 44.1326 37.5078 43.6671 37.7439 43.2703C38.5815 41.6405 40.2457 40.5881 41.9895 40.5881C44.7439 40.5881 46.5262 42.5539 46.5262 45.5963C46.5262 48.7228 44.7906 50.8237 42.2092 50.8237ZM46.658 31.8817C46.1197 31.896 45.5732 31.946 45.024 32.0305C42.5003 32.3387 40.3061 33.3501 38.6666 34.9571C36.5027 37.1222 35.3081 40.31 35.3081 43.9308C35.3081 49.02 38.0185 52.3082 42.2092 52.3082C46.4053 52.3082 48.6709 48.7692 48.6709 45.4392C48.6709 41.6877 46.3257 39.167 42.8381 39.167C40.9377 39.167 39.2351 39.9785 38.1641 41.3939L38.0652 41.5235H37.4336L37.4885 41.1519C37.9252 38.0304 40.0919 34.412 44.8565 33.6176C45.4716 33.5192 46.0978 33.4717 46.658 33.4767V31.8817ZM42.2092 52.9604C37.6203 52.9604 34.6572 49.416 34.6572 43.9308C34.6572 40.1356 35.9177 36.7842 38.208 34.4939C39.9518 32.783 42.2751 31.7087 44.9334 31.3846C45.6172 31.2792 46.312 31.2251 46.9848 31.2251H47.3116V34.158L46.9683 34.139C46.3724 34.1058 45.6611 34.1495 44.9636 34.2613C41.5583 34.8289 39.139 37.0327 38.3289 40.238C39.5042 39.1327 41.0997 38.5148 42.8381 38.5148C46.7157 38.5148 49.3218 41.2975 49.3218 45.4392C49.3218 49.0851 46.8282 52.9604 42.2092 52.9604Z" fill="black"/>
<path d="M53.9268 42.1717C53.9268 47.4817 55.5613 50.4978 58.074 50.4978C60.9023 50.4978 62.2524 47.1986 62.2524 41.9832C62.2524 36.9558 60.9648 33.6565 58.1053 33.6565C55.6863 33.6565 53.9268 36.6101 53.9268 42.1717ZM65.0181 41.8573C65.0181 48.8012 62.4429 52.6345 57.9177 52.6345C53.9269 52.6345 51.2265 48.8958 51.1611 42.1404C51.1611 35.2904 54.1173 31.5201 58.2616 31.5201C62.5679 31.5201 65.0181 35.3532 65.0181 41.8573Z" fill="black"/>
<path d="M58.1059 33.9824C55.7279 33.9824 54.2545 37.1202 54.2545 42.1714C54.2545 47.106 55.7166 50.1715 58.0746 50.1715C61.4254 50.1715 61.926 45.0412 61.926 41.9831C61.926 38.995 61.4311 33.9824 58.1059 33.9824ZM58.0746 50.8237C55.2728 50.8237 53.6002 47.5892 53.6002 42.1714C53.6002 36.718 55.3269 33.3302 58.1059 33.3302C60.9902 33.3302 62.5802 36.4034 62.5802 41.9831C62.5802 47.6842 60.9788 50.8237 58.0746 50.8237ZM58.2623 31.846C54.0838 31.846 51.4868 35.7907 51.4868 42.1401C51.5465 48.506 53.9501 52.3082 57.9182 52.3082C62.2873 52.3082 64.6937 48.5965 64.6937 41.8571C64.6937 35.4951 62.3498 31.846 58.2623 31.846ZM57.9182 52.9604C53.6116 52.9604 50.898 48.8155 50.8354 42.1432C50.8354 35.3885 53.6828 31.194 58.2623 31.194C62.7623 31.194 65.3451 35.0807 65.3451 41.8571C65.3451 48.9133 62.6371 52.9604 57.9182 52.9604Z" fill="black"/>
<path d="M37.5104 61.9181C37.5104 60.9889 37.4938 60.2267 37.436 59.4833H38.8673L38.9417 60.933H38.9967C39.5004 60.0781 40.3344 59.2788 41.8235 59.2788C43.0484 59.2788 43.9787 60.0222 44.3696 61.0817H44.4054C44.6834 60.5799 45.0384 60.1904 45.41 59.9105C45.9495 59.5034 46.544 59.2788 47.3973 59.2788C48.5864 59.2788 50.3535 60.0594 50.3535 63.1818V68.479H48.7543V63.3863C48.7543 61.6578 48.124 60.617 46.8028 60.617C45.8752 60.617 45.1458 61.303 44.8705 62.1039C44.7962 62.3266 44.7411 62.6244 44.7411 62.9217V68.479H43.142V63.0891C43.142 61.6578 42.5089 60.617 41.2647 60.617C40.2408 60.617 39.5004 61.4348 39.2389 62.2526C39.1453 62.4943 39.1095 62.7731 39.1095 63.0516V68.479H37.5104V61.9181Z" fill="black"/>
<path d="M48.948 68.2866H50.1596V63.1824C50.1596 60.4469 48.7332 59.4721 47.3977 59.4721C46.6321 59.4721 46.0731 59.6494 45.5252 60.0649C45.1507 60.3464 44.8202 60.7305 44.5724 61.176L44.5173 61.2752H44.2337L44.1869 61.1488C43.7986 60.0991 42.9147 59.4721 41.8215 59.4721C40.6484 59.4721 39.7782 59.9821 39.1614 61.0312L39.1063 61.1265H38.7566L38.6823 59.6767H37.6414C37.6855 60.3164 37.702 61.002 37.702 61.9184V68.2866H38.9164V63.0521C38.9164 62.7231 38.9632 62.4309 39.0568 62.1839C39.3239 61.3421 40.1335 60.4246 41.2625 60.4246C42.5402 60.4246 43.3332 61.4456 43.3332 63.0896V68.2866H44.5476V62.9221C44.5476 62.6305 44.5972 62.3103 44.6853 62.0435C44.9689 61.2364 45.7317 60.4246 46.8028 60.4246C48.1852 60.4246 48.948 61.4765 48.948 63.3867V68.2866ZM50.5451 68.6724H48.5625V63.3867C48.5625 62.2114 48.2568 60.8104 46.8028 60.8104C45.9189 60.8104 45.2856 61.4922 45.0515 62.1679C44.9744 62.3945 44.9331 62.6702 44.9331 62.9221V68.6724H42.9477V63.0896C42.9477 61.6623 42.3171 60.8104 41.2625 60.8104C40.3262 60.8104 39.6516 61.5885 39.423 62.3117C39.3404 62.5248 39.2991 62.7704 39.2991 63.0521V68.6724H37.3165V61.9184C37.3165 60.9125 37.2944 60.1886 37.2421 59.4982L37.2256 59.2909H39.0485L39.1063 60.4185C39.7727 59.534 40.6842 59.0863 41.8215 59.0863C42.9505 59.0863 43.917 59.6959 44.4127 60.6988C44.6577 60.3287 44.9579 60.0068 45.2938 59.7568C45.9024 59.2934 46.5523 59.0863 47.3977 59.0863C48.9204 59.0863 50.5451 60.1624 50.5451 63.1824V68.6724Z" fill="black"/>
<path d="M53.0115 68.4795V59.4834H54.649V68.4795H53.0115ZM54.8325 56.9557C54.852 57.5134 54.4433 57.9596 53.7928 57.9596C53.2173 57.9596 52.8086 57.5134 52.8086 56.9557C52.8086 56.3797 53.2339 55.9338 53.8317 55.9338C54.4433 55.9338 54.8325 56.3797 54.8325 56.9557Z" fill="black"/>
<path d="M53.8296 56.1263C53.3513 56.1263 53.0008 56.475 53.0008 56.9554C53.0008 57.4179 53.3429 57.7664 53.7935 57.7664C54.0605 57.7664 54.2802 57.6818 54.436 57.5216C54.575 57.3776 54.6473 57.179 54.6418 56.962V56.9554C54.6418 56.4595 54.3163 56.1263 53.8296 56.1263ZM53.7935 58.1521C53.1232 58.1521 52.6143 57.6376 52.6143 56.9554C52.6143 56.2628 53.1371 55.7405 53.8296 55.7405C54.5222 55.7405 55.0256 56.25 55.0256 56.9523C55.0367 57.2733 54.9255 57.5708 54.7141 57.7897C54.4888 58.0236 54.1606 58.1521 53.7935 58.1521ZM53.2067 68.2861H54.4554V59.6762H53.2067V68.2861ZM54.842 68.6721H52.8201V59.2902H54.842V68.6721Z" fill="black"/>
<path d="M57.3605 61.9185C57.3605 60.9893 57.3435 60.2273 57.2866 59.4837H58.7363L58.8301 60.9706H58.867C59.3133 60.1158 60.3536 59.2793 61.8403 59.2793C63.0852 59.2793 65.0181 60.0226 65.0181 63.1078V68.4795H63.3837V63.2937C63.3837 61.844 62.8436 60.636 61.3002 60.636C60.2229 60.636 59.4099 61.4055 59.1086 62.3088C59.0376 62.5149 58.9978 62.792 58.9978 63.0709V68.4795H57.3605V61.9185Z" fill="black"/>
<path d="M63.5763 68.2865H64.8247V63.1079C64.8247 59.6472 62.3394 59.472 61.8389 59.472C60.3858 59.472 59.4389 60.2921 59.0379 61.0596L58.9839 61.1634H58.6483L58.5545 59.6765H57.4938C57.5364 60.3163 57.5535 61.0019 57.5535 61.9184V68.2865H58.8047V63.0707C58.8047 62.755 58.8474 62.461 58.927 62.2426C59.2 61.3517 60.0417 60.4431 61.3014 60.4431C62.7688 60.4431 63.5763 61.4555 63.5763 63.2939V68.2865ZM65.2114 68.6724H63.1896V63.2939C63.1896 62.1692 62.8626 60.8287 61.3014 60.8287C60.2379 60.8287 59.527 61.6005 59.2938 62.3652C59.2256 62.5491 59.1914 62.8028 59.1914 63.0707V68.6724H57.1696V61.9184C57.1696 60.9123 57.1469 60.1883 57.0928 59.4979L57.0786 59.2906H58.9185L58.9895 60.4261C59.5384 59.7177 60.4967 59.0861 61.8389 59.0861C62.4048 59.0861 65.2114 59.2801 65.2114 63.1079V68.6724Z" fill="black"/>
</svg>
