<svg width="70" height="71" viewBox="0 0 70 71" fill="none" xmlns="http://www.w3.org/2000/svg">
<path d="M35 0.885353C15.7754 0.885353 0.135055 16.5252 0.135055 35.7498C0.135055 54.9743 15.7754 70.6147 35 70.6147C54.2246 70.6147 69.865 54.9743 69.865 35.7498C69.865 16.5252 54.2246 0.885353 35 0.885353ZM35 70.7498C25.6512 70.7498 16.862 67.1092 10.2513 60.4986C3.64073 53.888 0 45.0988 0 35.7498C0 26.4009 3.64073 17.6117 10.2513 11.0011C16.862 4.39011 25.6512 0.750488 35 0.750488C44.3488 0.750488 53.138 4.39011 59.7488 11.0011C66.3593 17.6117 70 26.4009 70 35.7498C70 45.0988 66.3593 53.888 59.7488 60.4986C53.138 67.1092 44.3488 70.7498 35 70.7498Z" fill="#3D76E1"/>
<path d="M36.148 8.8252H33.8522V3.42324H36.148V8.8252Z" fill="#67ACDB"/>
<path d="M38.9599 9.08984L36.6763 8.85262L37.2347 3.4793L39.518 3.71763L38.9599 9.08984Z" fill="#67ACDB"/>
<path d="M41.7249 9.64648L39.4791 9.17149L40.5968 3.88758L42.8428 4.36239L41.7249 9.64648Z" fill="#67ACDB"/>
<path d="M44.4145 10.491L42.2311 9.78189L43.8992 4.64522L46.0826 5.35284L44.4145 10.491Z" fill="#67ACDB"/>
<path d="M47.0006 11.6135L44.9039 10.6787L47.1037 5.74617L49.2003 6.681L47.0006 11.6135Z" fill="#67ACDB"/>
<path d="M49.4553 13.002L47.4683 11.8524L50.1733 7.17634L52.1603 8.32698L49.4553 13.002Z" fill="#67ACDB"/>
<path d="M51.7526 14.6401L49.8965 13.2894L53.0748 8.92206L54.931 10.273L51.7526 14.6401Z" fill="#67ACDB"/>
<path d="M53.8678 16.5095L52.1622 14.9729L55.7778 10.9599L57.4834 12.4965L53.8678 16.5095Z" fill="#67ACDB"/>
<path d="M55.7778 18.5876L54.2412 16.882L58.2538 13.2668L59.7904 14.9722L55.7778 18.5876Z" fill="#67ACDB"/>
<path d="M57.4606 20.8535L56.1099 18.9973L60.4771 15.819L61.8278 17.6752L57.4606 20.8535Z" fill="#67ACDB"/>
<path d="M58.8975 23.2817L57.7478 21.2945L62.423 18.5896L63.5727 20.5768L58.8975 23.2817Z" fill="#67ACDB"/>
<path d="M60.0713 25.8462L59.1364 23.7496L64.0697 21.55L65.0045 23.6465L60.0713 25.8462Z" fill="#67ACDB"/>
<path d="M60.9682 28.5188L60.2593 26.3354L65.3969 24.6673L66.1058 26.8507L60.9682 28.5188Z" fill="#67ACDB"/>
<path d="M61.5786 31.271L61.1036 29.0252L66.388 27.9074L66.863 30.1532L61.5786 31.271Z" fill="#67ACDB"/>
<path d="M61.8968 34.0737L61.6596 31.7904L67.0326 31.2321L67.2698 33.5154L61.8968 34.0737Z" fill="#67ACDB"/>
<path d="M67.3257 36.8979H61.9239V34.6022H67.3257V36.8979Z" fill="#67ACDB"/>
<path d="M67.0326 40.2678L61.6596 39.7097L61.8968 37.4263L67.2698 37.9845L67.0326 40.2678Z" fill="#67ACDB"/>
<path d="M66.388 43.5928L61.1036 42.475L61.5786 40.2292L66.863 41.3469L66.388 43.5928Z" fill="#67ACDB"/>
<path d="M65.3969 46.8328L60.2593 45.1646L60.9682 42.9812L66.1058 44.6494L65.3969 46.8328Z" fill="#67ACDB"/>
<path d="M64.0697 49.9502L59.1364 47.7505L60.0713 45.654L65.0045 47.8534L64.0697 49.9502Z" fill="#67ACDB"/>
<path d="M62.423 52.9104L57.7478 50.2056L58.8975 48.2184L63.5727 50.9234L62.423 52.9104Z" fill="#67ACDB"/>
<path d="M60.4769 55.6812L56.1099 52.5029L57.4608 50.6468L61.8278 53.8251L60.4769 55.6812Z" fill="#67ACDB"/>
<path d="M58.2538 58.2334L54.2412 54.618L55.7778 52.9123L59.7904 56.5278L58.2538 58.2334Z" fill="#67ACDB"/>
<path d="M55.7779 60.5408L52.1624 56.5278L53.8678 54.9912L57.4836 59.0042L55.7779 60.5408Z" fill="#67ACDB"/>
<path d="M53.0748 62.5779L49.8967 58.2107L51.7527 56.86L54.931 61.227L53.0748 62.5779Z" fill="#67ACDB"/>
<path d="M50.1734 64.3228L47.4683 59.6474L49.4555 58.4977L52.1606 63.1732L50.1734 64.3228Z" fill="#67ACDB"/>
<path d="M47.1037 65.7546L44.9041 60.8216L47.0008 59.8867L49.2003 64.8198L47.1037 65.7546Z" fill="#67ACDB"/>
<path d="M43.8992 66.8557L42.2311 61.7183L44.4147 61.0094L46.0826 66.1468L43.8992 66.8557Z" fill="#67ACDB"/>
<path d="M40.597 67.6133L39.4791 62.3284L41.7249 61.8533L42.8428 67.1381L40.597 67.6133Z" fill="#67ACDB"/>
<path d="M37.2347 68.0198L36.6763 62.6472L38.9599 62.41L39.518 67.7826L37.2347 68.0198Z" fill="#67ACDB"/>
<path d="M36.148 68.0757H33.8522V62.6739H36.148V68.0757Z" fill="#67ACDB"/>
<path d="M32.7652 68.0198L30.4818 67.7826L31.0399 62.41L33.3233 62.6472L32.7652 68.0198Z" fill="#67ACDB"/>
<path d="M29.4031 67.6133L27.1573 67.1383L28.275 61.8533L30.5211 62.3283L29.4031 67.6133Z" fill="#67ACDB"/>
<path d="M26.1008 66.8557L23.9174 66.1468L25.5853 61.0094L27.7689 61.7183L26.1008 66.8557Z" fill="#67ACDB"/>
<path d="M22.8964 65.7546L20.7996 64.8198L22.9993 59.8867L25.0958 60.8216L22.8964 65.7546Z" fill="#67ACDB"/>
<path d="M19.8269 64.3228L17.8397 63.1732L20.5449 58.4977L22.5321 59.6474L19.8269 64.3228Z" fill="#67ACDB"/>
<path d="M16.925 62.5779L15.069 61.227L18.2473 56.86L20.1033 58.2107L16.925 62.5779Z" fill="#67ACDB"/>
<path d="M14.2219 60.5408L12.5162 59.0042L16.1318 54.9912L17.8375 56.5278L14.2219 60.5408Z" fill="#67ACDB"/>
<path d="M11.7459 58.2334L10.2094 56.528L14.2222 52.9123L15.7587 54.618L11.7459 58.2334Z" fill="#67ACDB"/>
<path d="M9.52302 55.6812L8.17212 53.8251L12.5393 50.6468L13.8902 52.503L9.52302 55.6812Z" fill="#67ACDB"/>
<path d="M7.57671 52.9104L6.427 50.9234L11.1027 48.2183L12.2524 50.2053L7.57671 52.9104Z" fill="#67ACDB"/>
<path d="M5.93014 49.9502L4.9953 47.8536L9.92874 45.6538L10.8636 47.7505L5.93014 49.9502Z" fill="#67ACDB"/>
<path d="M4.60312 46.8328L3.89423 44.6494L9.03145 42.9812L9.74034 45.1646L4.60312 46.8328Z" fill="#67ACDB"/>
<path d="M3.61184 43.5928L3.13684 41.3467L8.42186 40.2288L8.89686 42.4748L3.61184 43.5928Z" fill="#67ACDB"/>
<path d="M2.96714 40.2678L2.72992 37.9845L8.10233 37.4263L8.33955 39.7097L2.96714 40.2678Z" fill="#67ACDB"/>
<path d="M8.07549 36.8979H2.67407V34.6022H8.07549V36.8979Z" fill="#67ACDB"/>
<path d="M8.10233 34.0737L2.72992 33.5154L2.96714 31.2321L8.33955 31.7902L8.10233 34.0737Z" fill="#67ACDB"/>
<path d="M8.42186 31.271L3.13684 30.1532L3.61184 27.9072L8.89686 29.0252L8.42186 31.271Z" fill="#67ACDB"/>
<path d="M9.03145 28.5188L3.89423 26.8507L4.60312 24.6673L9.74034 26.3352L9.03145 28.5188Z" fill="#67ACDB"/>
<path d="M9.92874 25.8462L4.9953 23.6465L5.93014 21.5498L10.8636 23.7496L9.92874 25.8462Z" fill="#67ACDB"/>
<path d="M11.1027 23.2817L6.427 20.5764L7.57671 18.5894L12.2524 21.2947L11.1027 23.2817Z" fill="#67ACDB"/>
<path d="M12.5393 20.8535L8.17212 17.6752L9.52302 15.819L13.89 18.9973L12.5393 20.8535Z" fill="#67ACDB"/>
<path d="M14.2222 18.5876L10.2094 14.972L11.7459 13.2666L15.7587 16.882L14.2222 18.5876Z" fill="#67ACDB"/>
<path d="M16.1322 16.5093L12.5166 12.4963L14.222 10.9597L17.8376 14.9727L16.1322 16.5093Z" fill="#67ACDB"/>
<path d="M18.2473 14.6401L15.069 10.273L16.925 8.92206L20.1035 13.2892L18.2473 14.6401Z" fill="#67ACDB"/>
<path d="M20.5445 13.002L17.8397 8.32698L19.8267 7.17634L22.5317 11.8524L20.5445 13.002Z" fill="#67ACDB"/>
<path d="M22.9995 11.6135L20.7996 6.681L22.8964 5.74617L25.096 10.6787L22.9995 11.6135Z" fill="#67ACDB"/>
<path d="M25.5853 10.491L23.917 5.35284L26.1004 4.64522L27.7687 9.78189L25.5853 10.491Z" fill="#67ACDB"/>
<path d="M28.2752 9.64648L27.1573 4.36239L29.4031 3.88574L30.5211 9.17131L28.2752 9.64648Z" fill="#67ACDB"/>
<path d="M31.0399 9.08984L30.4818 3.71763L32.7652 3.4793L33.3233 8.85262L31.0399 9.08984Z" fill="#67ACDB"/>
<path d="M32.0857 30.2701C32.0857 33.9871 33.2293 36.0985 34.9889 36.0985C36.9683 36.0985 37.914 33.7893 37.914 30.1382C37.914 26.6192 37.0125 24.3098 35.0108 24.3098C33.3174 24.3098 32.0857 26.3772 32.0857 30.2701ZM39.8497 30.0503C39.8497 34.9109 38.0461 37.5942 34.8789 37.5942C32.0857 37.5942 30.1942 34.9771 30.1502 30.2483C30.1502 25.4534 32.2178 22.8143 35.121 22.8143C38.1341 22.8143 39.8497 25.4974 39.8497 30.0503Z" fill="#1C274C"/>
<path d="M35.0109 24.5381C33.3474 24.5381 32.314 26.7344 32.314 30.27C32.314 33.7243 33.3391 35.8702 34.9889 35.8702C37.3354 35.8702 37.6859 32.2788 37.6859 30.1381C37.6859 28.0467 37.3384 24.5381 35.0109 24.5381ZM34.9889 36.3268C33.0281 36.3268 31.8575 34.0626 31.8575 30.27C31.8575 26.4529 33.0658 24.0816 35.0109 24.0816C37.0304 24.0816 38.1424 26.2325 38.1424 30.1381C38.1424 34.129 37.0225 36.3268 34.9889 36.3268ZM35.121 23.0425C32.1956 23.0425 30.3784 25.8035 30.3784 30.2482C30.42 34.7043 32.1023 37.366 34.879 37.366C37.9372 37.366 39.6214 34.7678 39.6214 30.0502C39.6214 25.5967 37.9809 23.0425 35.121 23.0425ZM34.879 37.8225C31.8649 37.8225 29.9655 34.921 29.9219 30.2503C29.9219 25.5219 31.9141 22.5858 35.121 22.5858C38.2712 22.5858 40.0779 25.3065 40.0779 30.0502C40.0779 34.9895 38.1831 37.8225 34.879 37.8225Z" fill="#1C274C"/>
<path d="M32.0857 30.2701C32.0857 33.9871 33.2293 36.0985 34.9889 36.0985C36.9683 36.0985 37.914 33.7893 37.914 30.1382C37.914 26.6192 37.0125 24.3098 35.0108 24.3098C33.3174 24.3098 32.0857 26.3772 32.0857 30.2701ZM39.8497 30.0503C39.8497 34.9109 38.0461 37.5942 34.8789 37.5942C32.0857 37.5942 30.1942 34.9771 30.1502 30.2483C30.1502 25.4534 32.2178 22.8143 35.121 22.8143C38.1341 22.8143 39.8497 25.4974 39.8497 30.0503Z" fill="#1C274C"/>
<path d="M35.0109 24.5381C33.3474 24.5381 32.314 26.7344 32.314 30.27C32.314 33.7243 33.3391 35.8702 34.9889 35.8702C37.3354 35.8702 37.6859 32.2788 37.6859 30.1381C37.6859 28.0467 37.3384 24.5381 35.0109 24.5381ZM34.9889 36.3268C33.0281 36.3268 31.8575 34.0626 31.8575 30.27C31.8575 26.4529 33.0658 24.0816 35.0109 24.0816C37.0304 24.0816 38.1424 26.2325 38.1424 30.1381C38.1424 34.129 37.0225 36.3268 34.9889 36.3268ZM35.121 23.0425C32.1956 23.0425 30.3784 25.8035 30.3784 30.2482C30.42 34.7043 32.1023 37.366 34.879 37.366C37.9372 37.366 39.6214 34.7678 39.6214 30.0502C39.6214 25.5967 37.9809 23.0425 35.121 23.0425ZM34.879 37.8225C31.8649 37.8225 29.9655 34.921 29.9219 30.2503C29.9219 25.5219 31.9141 22.5858 35.121 22.5858C38.2712 22.5858 40.0779 25.3065 40.0779 30.0502C40.0779 34.9895 38.1831 37.8225 34.879 37.8225Z" fill="#1C274C"/>
<path d="M25.3982 44.0928C25.3982 43.4425 25.3851 42.9089 25.3461 42.3885H26.348L26.3999 43.4035H26.4389C26.7903 42.8047 27.3758 42.2453 28.4165 42.2453C29.275 42.2453 29.9257 42.7657 30.199 43.5073H30.2248C30.4201 43.1561 30.6679 42.8834 30.9274 42.6876C31.3056 42.4025 31.7211 42.2453 32.3195 42.2453C33.1522 42.2453 34.388 42.7918 34.388 44.9774V48.6855H33.2693V45.1208C33.2693 43.9106 32.8271 43.1822 31.9033 43.1822C31.2526 43.1822 30.7416 43.6621 30.5502 44.2229C30.497 44.3786 30.4591 44.5872 30.4591 44.7954V48.6855H29.3402V44.9125C29.3402 43.9106 28.8977 43.1822 28.0261 43.1822C27.3105 43.1822 26.7903 43.7545 26.6081 44.3271C26.5431 44.4961 26.517 44.6914 26.517 44.8865V48.6855H25.3982V44.0928Z" fill="#1C274C"/>
<path d="M33.4044 48.5507H34.2532V44.9778C34.2532 43.0628 33.2542 42.3805 32.3196 42.3805C31.7843 42.3805 31.3925 42.5047 31.0091 42.7955C30.7462 42.9926 30.5162 43.2614 30.3429 43.5731L30.3043 43.6426H30.1047L30.0722 43.5543C29.8014 42.8193 29.1825 42.3805 28.4165 42.3805C27.5951 42.3805 26.9863 42.7375 26.5553 43.472L26.5163 43.5387H26.2715L26.2196 42.5237H25.4909C25.5203 42.9714 25.5332 43.4515 25.5332 44.093V48.5507H26.382V44.8867C26.382 44.6561 26.4156 44.4516 26.4819 44.2789C26.6693 43.6897 27.2343 43.0473 28.0261 43.0473C28.9201 43.0473 29.4753 43.7621 29.4753 44.9127V48.5507H30.324V44.7958C30.324 44.5915 30.3597 44.3672 30.4222 44.1804C30.6191 43.6154 31.1532 43.0473 31.9033 43.0473C32.8712 43.0473 33.4044 43.7837 33.4044 45.121V48.5507ZM34.5231 48.8208H33.1343V45.121C33.1343 44.2981 32.9207 43.3174 31.9033 43.3174C31.2857 43.3174 30.8426 43.7946 30.6777 44.2676C30.6248 44.4261 30.5942 44.6194 30.5942 44.7958V48.8208H29.2052V44.9127C29.2052 43.9138 28.7644 43.3174 28.0261 43.3174C27.3699 43.3174 26.8978 43.8621 26.7367 44.3683C26.6796 44.5174 26.6519 44.6894 26.6519 44.8867V48.8208H25.2631V44.093C25.2631 43.3887 25.2476 42.8821 25.2114 42.3988L25.2005 42.2538H26.4762L26.5167 43.043C26.983 42.4238 27.6206 42.1104 28.4165 42.1104C29.207 42.1104 29.883 42.5372 30.2304 43.2393C30.4029 42.98 30.6132 42.7548 30.8465 42.5799C31.2742 42.2553 31.7287 42.1104 32.3196 42.1104C33.3848 42.1104 34.5231 42.8637 34.5231 44.9778V48.8208Z" fill="#1C274C"/>
<path d="M36.2493 48.6855V42.3885H37.3942V48.6855H36.2493ZM37.5242 40.6191C37.5372 41.0095 37.251 41.3217 36.7956 41.3217C36.3923 41.3217 36.1061 41.0095 36.1061 40.6191C36.1061 40.2158 36.4054 39.9035 36.8216 39.9035C37.251 39.9035 37.5242 40.2158 37.5242 40.6191Z" fill="#1C274C"/>
<path d="M36.8217 40.0388C36.4854 40.0388 36.2412 40.2829 36.2412 40.6193C36.2412 40.9428 36.4797 41.1868 36.7956 41.1868C36.9819 41.1868 37.1376 41.1275 37.246 41.0154C37.3434 40.9147 37.3944 40.7756 37.3892 40.6237V40.6193C37.3892 40.272 37.1612 40.0388 36.8217 40.0388ZM36.7956 41.4569C36.3256 41.4569 35.9711 41.0967 35.9711 40.6193C35.9711 40.1343 36.3369 39.7687 36.8217 39.7687C37.3063 39.7687 37.6582 40.1253 37.6593 40.6171C37.6662 40.8417 37.5884 41.0499 37.44 41.2033C37.2819 41.3668 37.053 41.4569 36.7956 41.4569ZM36.3844 48.5507H37.2592V42.5237H36.3844V48.5507ZM37.5293 48.8208H36.1143V42.2538H37.5293V48.8208Z" fill="#1C274C"/>
<path d="M39.2937 44.0928C39.2937 43.4425 39.2806 42.9089 39.2416 42.3885H40.2564L40.3215 43.4293H40.3475C40.6597 42.8308 41.3884 42.2453 42.4291 42.2453C43.3008 42.2453 44.6539 42.7657 44.6539 44.9255V48.6855H43.509V45.0555C43.509 44.0409 43.1317 43.1951 42.0518 43.1951C41.2973 43.1951 40.7118 43.7287 40.5167 44.366C40.4646 44.509 40.4386 44.7041 40.4386 44.8994V48.6855H39.2937V44.0928Z" fill="#1C274C"/>
<path d="M43.6442 48.5507H44.519V44.9257C44.519 42.5032 42.7782 42.3805 42.4292 42.3805C41.4103 42.3805 40.7478 42.9547 40.4674 43.492L40.4295 43.5646H40.1948L40.1296 42.5237H39.3866C39.4161 42.9714 39.4289 43.4515 39.4289 44.093V48.5507H40.3037V44.8996C40.3037 44.6785 40.3343 44.4727 40.3899 44.3201C40.5806 43.6963 41.17 43.0602 42.052 43.0602C43.0788 43.0602 43.6442 43.7689 43.6442 45.0557V48.5507ZM44.7891 48.8208H43.3741V45.0557C43.3741 44.2685 43.1448 43.3303 42.052 43.3303C41.308 43.3303 40.8097 43.8706 40.646 44.4058C40.5993 44.5344 40.5738 44.7121 40.5738 44.8996V48.8208H39.1588V44.093C39.1588 43.3887 39.1432 42.8821 39.107 42.3988L39.0963 42.2538H40.3833L40.4332 43.0484C40.8173 42.5525 41.4889 42.1104 42.4292 42.1104C42.8233 42.1104 44.7891 42.2462 44.7891 44.9257V48.8208Z" fill="#1C274C"/>
</svg>
