<svg width="36" height="36" viewBox="0 0 36 36" fill="none" xmlns="http://www.w3.org/2000/svg">
<path opacity="0.75" d="M2.63604 33.3641C5.27208 36.0001 9.51472 36.0001 18 36.0001C26.4853 36.0001 30.7279 36.0001 33.364 33.3641C36 30.7281 36 26.4853 36 18C36 9.51472 36 5.27208 33.364 2.63604C30.7279 0 26.4853 0 18 0C9.51472 0 5.27208 0 2.63604 2.63604C0 5.27208 0 9.51484 0 18.0001C0 26.4854 0 30.7281 2.63604 33.3641Z" fill="#8E93A6"/>
<path d="M9.00063 27.4487C8.25505 27.4487 7.65063 28.0531 7.65063 28.7987C7.65063 29.5443 8.25505 30.1487 9.00063 30.1487H27.0006C27.7462 30.1487 28.3506 29.5443 28.3506 28.7987C28.3506 28.0531 27.7462 27.4487 27.0006 27.4487H9.00063Z" fill="#1C274D"/>
<path d="M10.3762 17.8156C10.3499 17.3596 10.3494 16.7478 10.3494 15.8537V0.123725C12.4298 -6.10948e-07 14.9386 0 17.9994 0C21.0602 0 23.5689 -6.10948e-07 25.6494 0.123725V15.8537C25.6494 16.7478 25.6488 17.3596 25.6225 17.8156C25.5953 18.2881 25.5455 18.4335 25.5331 18.4613C25.2683 19.0576 24.6149 19.3792 23.9809 19.2252C23.9512 19.218 23.8057 19.1688 23.4147 18.9021C23.0374 18.6447 22.5523 18.2719 21.8438 17.7264L21.7232 17.6335C21.0569 17.1197 20.5375 16.7193 19.9718 16.4735C18.7137 15.9269 17.2851 15.9269 16.0269 16.4735C15.4612 16.7193 14.9419 17.1197 14.2755 17.6334L14.1549 17.7264C13.4465 18.2719 12.9614 18.6447 12.584 18.9021C12.1931 19.1688 12.0475 19.218 12.0179 19.2252C11.3838 19.3792 10.7304 19.0576 10.4656 18.4613C10.4532 18.4335 10.4034 18.2881 10.3762 17.8156Z" fill="#1C274D"/>
</svg>
