<svg width="34" height="34" viewBox="0 0 34 34" fill="none" xmlns="http://www.w3.org/2000/svg">
<path d="M18.6498 22.192C18.6498 18.7696 18.6498 17.0584 19.7372 15.9952C20.8246 14.932 22.5747 14.932 26.0748 14.932C29.575 14.932 31.3251 14.932 32.4125 15.9952C33.4998 17.0584 33.4998 18.7696 33.4998 22.192V25.822C33.4998 29.2444 33.4998 30.9556 32.4125 32.0188C31.3251 33.082 29.575 33.082 26.0748 33.082C22.5747 33.082 20.8246 33.082 19.7372 32.0188C18.6498 30.9556 18.6498 29.2444 18.6498 25.822V22.192Z" fill="#1C274C"/>
<path d="M0.5 10.9727C0.5 14.3951 0.5 16.1063 1.58737 17.1695C2.67473 18.2327 4.42482 18.2327 7.925 18.2327C11.4252 18.2327 13.1753 18.2327 14.2626 17.1695C15.35 16.1063 15.35 14.3951 15.35 10.9727V7.3427C15.35 3.92031 15.35 2.20911 14.2626 1.14591C13.1753 0.0827026 11.4252 0.0827026 7.925 0.0827026C4.42482 0.0827026 2.67473 0.0827026 1.58737 1.14591C0.5 2.20911 0.5 3.92031 0.5 7.3427V10.9727Z" fill="#1C274C"/>
<path d="M18.8333 6.22471C18.8333 8.01858 18.8333 8.91552 19.1159 9.62304C19.4927 10.5664 20.2154 11.3159 21.1251 11.7066C21.8074 11.9997 22.6723 11.9997 24.4021 11.9997H28.1146C29.8444 11.9997 30.7093 11.9997 31.3915 11.7066C32.3012 11.3159 33.0239 10.5664 33.4007 9.62304C33.6833 8.91552 33.6833 8.01858 33.6833 6.22471C33.6833 4.43083 33.6833 3.53389 33.4007 2.82638C33.0239 1.88302 32.3012 1.13352 31.3915 0.742771C30.7093 0.449707 29.8444 0.449707 28.1146 0.449707H24.4021C22.6723 0.449707 21.8074 0.449707 21.1251 0.742771C20.2154 1.13352 19.4927 1.88302 19.1159 2.82638C18.8333 3.53389 18.8333 4.43083 18.8333 6.22471Z" fill="#8E93A6"/>
<path d="M0.5 27.3081C0.5 29.102 0.5 29.9989 0.782597 30.7064C1.15939 31.6498 1.88212 32.3993 2.79179 32.79C3.47404 33.0831 4.33894 33.0831 6.06875 33.0831H9.78125C11.5111 33.0831 12.376 33.0831 13.0582 32.79C13.9679 32.3993 14.6906 31.6498 15.0674 30.7064C15.35 29.9989 15.35 29.102 15.35 27.3081C15.35 25.5142 15.35 24.6173 15.0674 23.9097C14.6906 22.9664 13.9679 22.2169 13.0582 21.8261C12.376 21.5331 11.5111 21.5331 9.78125 21.5331H6.06875C4.33894 21.5331 3.47404 21.5331 2.79179 21.8261C1.88212 22.2169 1.15939 22.9664 0.782597 23.9097C0.5 24.6173 0.5 25.5142 0.5 27.3081Z" fill="#8E93A6"/>
</svg>
