<svg width="36" height="36" viewBox="0 0 36 36" fill="none" xmlns="http://www.w3.org/2000/svg">
<path d="M32.211 6.30108C31.734 6.02194 31.14 6.03415 30.675 6.33312C30.207 6.63056 29.937 7.16443 29.9715 7.72424C29.9895 7.99423 30 8.26879 30 8.54488C30 15.2732 24.6165 20.7477 18 20.7477C11.3835 20.7477 5.9985 15.2717 5.9985 8.54335C5.9985 8.26727 6.009 7.99423 6.027 7.72271C6.0615 7.16291 5.793 6.62904 5.3235 6.33159C4.8555 6.03415 4.2645 6.02194 3.7875 6.29956C1.4505 7.65407 0 10.1938 0 12.9257V23.7954C0 28.0008 3.3645 31.4221 7.5 31.4221H16.5V32.9475H12C11.1705 32.9475 10.5 33.6293 10.5 34.4728C10.5 35.3164 11.1705 35.9982 12 35.9982H24C24.8295 35.9982 25.5 35.3164 25.5 34.4728C25.5 33.6293 24.8295 32.9475 24 32.9475H19.5V31.4221H28.5C32.6355 31.4221 36 28.0008 36 23.7954V12.9257C36 10.1938 34.548 7.65407 32.2125 6.29956L32.211 6.30108Z" fill="#1C274C"/>
<path d="M25.7475 11.6384L24.9225 11.1549C25.116 10.5173 25.2495 9.85378 25.2495 9.15212C25.2495 8.45046 25.116 7.78693 24.9225 7.14933L25.7475 6.6658C26.466 6.2448 26.712 5.31281 26.298 4.58369C25.884 3.85304 24.9675 3.60289 24.249 4.02236L23.433 4.50132C22.5255 3.50679 21.3435 2.7853 19.9995 2.4726V1.52535C19.9995 0.683358 19.3275 0 18.4995 0C17.6715 0 16.9995 0.683358 16.9995 1.52535V2.4726C15.6555 2.7853 14.472 3.50679 13.566 4.50132L12.75 4.02236C12.0315 3.60136 11.115 3.85304 10.701 4.58369C10.287 5.31433 10.5345 6.24632 11.2515 6.66732L12.0765 7.15086C11.883 7.78846 11.7495 8.45198 11.7495 9.15365C11.7495 9.85531 11.883 10.5188 12.0765 11.1564L11.2515 11.64C10.533 12.061 10.287 12.993 10.701 13.7236C11.115 14.4543 12.0315 14.7044 12.75 14.2849L13.566 13.806C14.4735 14.8005 15.6555 15.522 16.9995 15.8347V16.7819C16.9995 17.6239 17.6715 18.3073 18.4995 18.3073C19.3275 18.3073 19.9995 17.6239 19.9995 16.7819V15.8347C21.3435 15.522 22.527 14.8005 23.433 13.806L24.249 14.2849C24.9675 14.7059 25.884 14.4543 26.298 13.7251C26.712 12.9945 26.4645 12.0625 25.7475 11.6415V11.6384ZM18.4995 11.4417C17.259 11.4417 16.2495 10.4151 16.2495 9.15365C16.2495 7.89218 17.259 6.86562 18.4995 6.86562C19.74 6.86562 20.7495 7.89218 20.7495 9.15365C20.7495 10.4151 19.74 11.4417 18.4995 11.4417Z" fill="#8E93A6"/>
</svg>
