<svg width="55" height="55" viewBox="0 0 55 55" fill="none" xmlns="http://www.w3.org/2000/svg">
<rect width="55" height="55" rx="27.5" fill="white"/>
<path d="M34.1015 11H32.4517C30.1186 11 28.9521 11 28.2272 11.7248C27.5024 12.4496 27.5024 13.6162 27.5024 15.9493C27.5024 18.2824 27.5024 19.4489 28.2272 20.1737C28.9521 20.8986 30.1186 20.8986 32.4517 20.8986H34.1015C36.4346 20.8986 37.6011 20.8986 38.3259 20.1737C38.7956 19.7041 38.9609 19.0491 39.0191 18.0115H39.0507L41.7157 19.1219C42.7488 19.5523 43.2654 19.7676 43.6327 19.5227C44 19.2778 44 18.7182 44 17.599V14.2995C44 13.1803 44 12.6207 43.6327 12.3759C43.2654 12.131 42.7488 12.3462 41.7157 12.7767L39.0507 13.8871H39.0191C38.9609 12.8495 38.7956 12.1944 38.3259 11.7248C37.6011 11 36.4346 11 34.1015 11Z" fill="#EE5488"/>
<path d="M20.878 35.8289C16.1938 35.8289 13.8517 35.8289 12.3965 34.5242C11.4537 33.6789 11.1217 32.4998 11.0048 30.6321V29.1473H44V30.6321C43.8831 32.4998 43.5511 33.6789 42.6083 34.5242C41.1531 35.8289 38.811 35.8289 34.1268 35.8289H28.7445V41.768H34.1268C34.8128 41.768 35.3689 42.2666 35.3689 42.8816C35.3689 43.4966 34.8128 43.9952 34.1268 43.9952H20.878C20.192 43.9952 19.6359 43.4966 19.6359 42.8816C19.6359 42.2666 20.192 41.768 20.878 41.768H26.2603V35.8289H20.878Z" fill="#1C274C"/>
<path d="M43.9999 24.1981V25.8478C43.9999 26.7579 43.9893 28.404 43.9785 29.1473H11.0048C10.9941 28.404 11.0047 26.7579 11.0047 25.8478V24.1981C11.0047 17.9764 11.0047 14.8656 12.9376 12.9328C14.8704 11 17.9812 11 24.2028 11H25.7175C25.3789 11.6341 25.222 12.2966 25.1404 12.9042C25.0273 13.7454 25.0275 14.7652 25.0277 15.8146L25.0277 15.9493L25.0277 16.0839C25.0275 17.1333 25.0273 18.1532 25.1404 18.9944C25.2678 19.9427 25.5785 21.0247 26.4773 21.9236C27.3761 22.8224 28.4582 23.133 29.4065 23.2605C30.2477 23.3736 31.2675 23.3734 32.317 23.3732L32.4516 23.3732H34.1014L34.236 23.3732C35.2854 23.3734 36.3053 23.3736 37.1464 23.2605C38.0947 23.133 39.1768 22.8224 40.0757 21.9236C40.2668 21.7324 40.4316 21.5326 40.5739 21.327L40.7638 21.4062L40.8575 21.4452C41.2861 21.6243 41.829 21.8511 42.3165 21.9745C42.7019 22.0721 43.3164 22.1761 43.9962 22.0194C43.9999 22.7 43.9999 23.425 43.9999 24.1981Z" fill="#8E93A6"/>
</svg>
