<svg width="34" height="41" viewBox="0 0 34 41" fill="none" xmlns="http://www.w3.org/2000/svg">
<path d="M21.3864 16.4516H24.1283H25.7735H27.4187V13.1613H25.7735H24.1283H21.3864C20.4778 13.1613 19.7412 12.4247 19.7412 11.5162C19.7412 10.6076 20.4778 9.87098 21.3864 9.87098H24.1052H25.7547H27.4043C27.1182 4.37977 22.5605 0 16.9993 0C11.4381 0 6.88051 4.37977 6.59438 9.87098H8.244H9.89345H12.6123C13.5208 9.87098 14.2574 10.6076 14.2574 11.5162C14.2574 12.4247 13.5209 13.1613 12.6123 13.1613H9.87031H8.22513H6.57996V16.4516H8.22513H9.87031H12.6123C13.5208 16.4516 14.2574 17.1882 14.2574 18.0968C14.2574 19.0053 13.5209 19.742 12.6123 19.742H9.89345H8.244H6.59438C6.88051 25.2332 11.4381 29.6129 16.9993 29.6129C22.5605 29.6129 27.1182 25.2332 27.4043 19.742H25.7547H24.1052H21.3864C20.4778 19.742 19.7412 19.0053 19.7412 18.0968C19.7412 17.1882 20.4778 16.4516 21.3864 16.4516Z" fill="#1C274C"/>
<path d="M32.3548 14.7734C31.4463 14.7734 30.7096 15.5101 30.7096 16.4186V18.1004V19.4897C30.7096 27.0491 24.5595 33.1993 17 33.1993C9.44053 33.1993 3.29035 27.0491 3.29035 19.4897V18.1004V16.4186C3.29035 15.5101 2.55372 14.7734 1.64518 14.7734C0.736632 14.7734 0 15.5101 0 16.4186V19.4897C0 28.3085 6.75008 35.5795 15.3548 36.4097V38.9391C15.3548 39.8476 16.0915 40.5843 17 40.5843C17.9085 40.5843 18.6452 39.8477 18.6452 38.9391V36.4098C27.2499 35.5797 34 28.3086 34 19.4898V16.4188C34 15.51 33.2634 14.7734 32.3548 14.7734Z" fill="#8E93A6"/>
</svg>
