<svg width="34" height="33" viewBox="0 0 34 33" fill="none" xmlns="http://www.w3.org/2000/svg">
<path d="M33.4949 7.14893C33.4949 13.0482 33.5096 18.946 33.4898 24.8452C33.4809 27.352 31.4896 29.3133 28.9919 29.3486C26.7937 29.3803 24.806 27.6774 24.5072 25.51C24.1775 23.1041 25.603 20.9786 27.9645 20.4162C29.3466 20.0863 30.6138 20.3956 31.7479 21.2496C31.8082 21.2945 31.8663 21.3416 31.9274 21.3865C31.9326 21.3902 31.9429 21.385 31.9649 21.3813C31.9649 18.9327 31.9649 16.4819 31.9649 14.0126C30.9935 14.2578 30.0347 14.5 29.075 14.7437C25.6479 15.6124 22.2215 16.4841 18.7936 17.3454C18.575 17.3999 18.5073 17.4838 18.5073 17.7128C18.5162 21.2554 18.511 24.7981 18.5147 28.3407C18.5162 29.9317 17.8943 31.2112 16.6102 32.1536C13.9138 34.134 9.95237 32.4348 9.51819 29.1182C9.20322 26.7056 10.6979 24.5493 13.0778 24.0449C14.4245 23.76 15.6623 24.0634 16.7632 24.8975C16.8273 24.9461 16.892 24.9947 16.9958 25.0749C16.9958 24.9321 16.9958 24.8349 16.9958 24.7377C16.9958 20.3705 16.998 16.0033 16.9899 11.6354C16.9899 11.3954 17.0591 11.3078 17.2879 11.2511C22.5556 9.92297 27.8218 8.58675 33.0879 7.25126C33.191 7.22476 33.2903 7.18353 33.3911 7.14966C33.4272 7.14893 33.4611 7.14893 33.4949 7.14893Z" fill="#1C274C"/>
<path d="M3.89126 19.8983C3.55274 19.8218 3.2076 19.7643 2.87644 19.6642C2.25312 19.475 1.70634 19.1452 1.26038 18.6659C0.148416 17.471 0.26837 15.8146 1.53929 14.7412C2.82934 13.6523 4.86266 13.4624 6.41249 14.2877C6.46842 14.3178 6.52582 14.3458 6.61634 14.3922C6.61634 14.2899 6.61634 14.2104 6.61634 14.1308C6.61634 9.72758 6.6156 5.32357 6.61781 0.920293C6.61781 0.785567 6.62591 0.645687 6.6627 0.517586C6.75322 0.207642 7.06083 -0.00291434 7.38463 3.05014e-05C7.7077 0.00297534 8.02782 0.212059 8.10361 0.524212C8.31261 1.38852 8.84983 2.04964 9.47241 2.62241C10.0162 3.12303 10.6477 3.53016 11.2548 3.95937C11.9326 4.43791 12.6162 4.90981 13.1365 5.56872C14.0145 6.68187 14.3898 7.94595 14.2352 9.36094C14.08 10.7781 13.6141 12.0783 12.77 13.2341C12.6861 13.349 12.5986 13.4631 12.497 13.5618C12.2152 13.8364 11.767 13.8423 11.4726 13.5853C11.1819 13.3313 11.126 12.9036 11.3424 12.5826C11.3497 12.5716 11.3556 12.5598 11.3652 12.5509C11.7103 12.2447 11.6838 11.8957 11.5528 11.4856C11.0134 9.80267 9.90439 8.66302 8.30084 7.97392C8.2714 7.96141 8.24049 7.95036 8.20959 7.94153C8.19855 7.93858 8.18457 7.943 8.15292 7.94595C8.15292 8.02693 8.15292 8.10939 8.15292 8.19258C8.15292 10.9578 8.13011 13.723 8.16175 16.4875C8.17868 17.9702 7.46043 18.9221 6.17553 19.5008C5.77004 19.6833 5.3101 19.7452 4.87517 19.8622C4.83249 19.874 4.78981 19.8858 4.74639 19.8968C4.46159 19.8983 4.17606 19.8983 3.89126 19.8983Z" fill="#8E93A6"/>
</svg>
