<svg width="34" height="33" viewBox="0 0 34 33" fill="none" xmlns="http://www.w3.org/2000/svg">
<path d="M33.4739 27.0775C33.4811 20.9355 33.4811 14.7935 33.4811 8.65149C33.4811 5.99067 33.5025 3.32984 33.4383 0.676149C33.4383 0.633348 33.4312 0.590547 33.4169 0.55488C33.2528 -0.0728756 32.347 -0.129945 32.0403 0.433608V3.71505H27.7893V0.369406C27.7822 0.362272 27.7751 0.348006 27.768 0.340872C27.447 -0.144211 26.6695 -0.10141 26.4841 0.447876C26.4698 0.490677 26.4627 0.540612 26.4556 0.590547C26.4484 0.669017 26.4413 0.840223 26.4342 0.918693V4.74229H11.0494V0.433608V0.426474C10.7926 -0.108545 10.0865 -0.115678 9.72273 0.29807V3.71505H5.46463L5.42184 0.362272C5.07948 -0.151346 4.24498 -0.129946 4.0738 0.49781C4.05953 0.540611 4.0524 0.583414 4.0524 0.633349C3.99534 5.13464 4.0524 9.78573 4.0524 14.2942C4.0524 15.0574 4.2735 15.4355 5.1722 15.1431C7.4332 14.3869 9.6942 14.4582 11.8839 15.3999C12.7683 15.7851 13.6028 16.2773 14.5871 16.798C14.7511 16.8836 14.9509 16.7766 14.9651 16.5912C14.9936 16.2274 15.0222 15.9349 15.0222 15.6424C15.0293 13.6807 15.0008 11.7118 15.0364 9.75006C15.0436 9.51466 15.1078 9.28638 15.1934 9.05097C15.2932 8.75136 15.607 8.58729 15.9137 8.66576C16.1562 8.72996 16.3845 8.8013 16.5842 8.9297C18.6455 10.3279 20.6925 11.7689 22.7253 13.2027C23.8023 13.9589 23.8094 14.3655 22.7538 15.1074C21.042 16.3058 19.3373 17.4971 17.6041 18.6742C16.9765 19.1022 16.8196 19.5302 17.219 20.2864C17.6327 21.0639 17.9251 21.9057 18.1034 22.7688C18.1462 22.99 18.2104 23.1683 18.2889 23.3181H26.1631C26.3272 23.3181 26.4627 23.4537 26.4627 23.6177V28.0334C26.4698 28.062 26.4698 28.0905 26.477 28.119C26.6909 28.6897 27.4755 28.7682 27.7893 28.3188V25.2727H32.0403V28.3259C32.4041 28.7967 33.1744 28.7611 33.4526 28.1975C33.4597 28.1975 33.4597 28.1904 33.4597 28.1904C33.5453 28.0049 33.4739 27.2844 33.4739 27.0775ZM9.72273 13.8733H5.46463V9.60739H9.72273V13.8733ZM9.72273 8.59442H5.46463V4.34281H9.72273V8.59442ZM32.0474 24.4167H27.7965V20.158H32.0474V24.4167ZM32.0474 19.1379H27.7965V14.8862H32.0474V19.1379ZM32.0474 13.8733H27.7965V9.60739H32.0474V13.8733ZM32.0474 8.59442H27.7965V4.34281H32.0474V8.59442Z" fill="#1C274C"/>
<path d="M20.792 28.8533C20.5922 28.6107 20.1928 28.5751 19.9646 28.7891C19.8005 28.9317 19.7363 29.1457 19.665 29.3455C19.2442 30.4726 18.2029 31.35 17.0189 31.5783C16.2771 31.721 15.464 31.6068 14.8506 31.1717C14.5225 30.9434 14.2586 30.6367 14.0874 30.28C14.1587 30.2158 14.2301 30.1516 14.3014 30.0802C14.3727 30.016 14.444 29.9518 14.5082 29.8805C14.5867 29.802 14.6651 29.7164 14.7365 29.638C14.8292 29.5381 14.9148 29.4382 14.9932 29.3455C15.0788 29.2385 15.1573 29.1386 15.2357 29.0387C15.3071 28.9317 15.3855 28.839 15.4568 28.732C15.5353 28.6107 15.6066 28.4966 15.6851 28.3753C15.7564 28.2612 15.8206 28.147 15.8777 28.0329C15.9276 27.9473 15.9775 27.8546 16.0132 27.769C16.056 27.6762 16.0988 27.5835 16.1487 27.4836C16.3484 27.0485 16.5053 26.5919 16.6194 26.1068C16.8192 25.3221 16.8905 24.5446 16.8619 23.7813C16.8548 23.6957 16.8548 23.6101 16.8477 23.5173C16.8406 23.3889 16.8263 23.2534 16.812 23.1321C16.7978 23.0251 16.7835 22.9181 16.7692 22.8111C16.755 22.7041 16.7336 22.5971 16.7122 22.4972C16.6979 22.4259 16.6836 22.3474 16.6622 22.2832C16.6408 22.1477 16.6052 22.005 16.5553 21.8766C16.5267 21.7696 16.4982 21.6697 16.4625 21.5699C16.3484 21.2203 16.22 20.8851 16.056 20.5569C15.9989 20.4428 15.949 20.3358 15.8848 20.2288C15.8277 20.1075 15.7564 20.0005 15.6851 19.8864C15.6209 19.7722 15.5496 19.6581 15.4711 19.5511C15.3213 19.3371 15.1644 19.1231 15.0004 18.9233C14.8363 18.7236 14.658 18.5238 14.4726 18.3455L14.4654 18.3384L14.1873 18.0744C14.0945 17.9888 13.9947 17.9032 13.8948 17.8247C13.7878 17.7391 13.6809 17.6535 13.5739 17.5679C13.4098 17.4467 13.2386 17.3325 13.0603 17.2184C13.0247 17.197 12.989 17.1685 12.9462 17.1471C12.8535 17.09 12.7608 17.0329 12.6609 16.983C12.5896 16.9473 12.5111 16.9045 12.4398 16.8688C12.3043 16.7975 12.1616 16.7262 12.019 16.6691C11.9334 16.6334 11.8478 16.5906 11.7622 16.555C11.427 16.4123 11.0775 16.2982 10.7209 16.2126C10.5925 16.1769 10.4641 16.1412 10.3286 16.1198C10.1931 16.0913 10.0647 16.0628 9.92916 16.0485C9.92203 16.0485 9.9149 16.0485 9.90776 16.0414C9.67952 16.0057 9.44415 15.9843 9.20165 15.97C9.09466 15.9629 8.99481 15.9629 8.89495 15.9629C8.82363 15.9557 8.7523 15.9557 8.68098 15.9557C8.53833 15.9557 8.40281 15.9629 8.26016 15.9629C8.12464 15.97 7.98199 15.9843 7.83934 15.9986C7.73235 16.0057 7.62537 16.02 7.51838 16.0342C6.98344 16.1056 6.4699 16.234 5.97776 16.4052C5.8993 16.4337 5.82084 16.4622 5.74239 16.4908C5.73525 16.4908 5.72812 16.4979 5.72099 16.4979C5.53554 16.5692 5.3501 16.6477 5.17892 16.7333C5.0862 16.769 5.00061 16.8189 4.90789 16.8688C4.8223 16.9188 4.72957 16.9616 4.64398 17.0115C4.55839 17.0615 4.4728 17.1114 4.38721 17.1685C4.21603 17.2755 4.04485 17.3825 3.8808 17.5109C3.80235 17.5679 3.72389 17.625 3.64543 17.6892C3.58837 17.7249 3.53845 17.7748 3.48139 17.8247C3.38153 17.9104 3.28168 17.9888 3.18895 18.0816C3.09623 18.1743 2.98924 18.2599 2.90365 18.3526C2.81093 18.4454 2.72534 18.5381 2.63262 18.638C2.54703 18.7378 2.45431 18.8377 2.37585 18.9376C2.2118 19.1373 2.05489 19.3513 1.9051 19.5653C1.83378 19.6723 1.76245 19.7865 1.69113 19.9006C1.6198 20.0148 1.55561 20.1289 1.49142 20.243C1.48428 20.243 1.48429 20.243 1.48429 20.2502C1.42009 20.3643 1.36303 20.4784 1.30597 20.5926C1.26318 20.6782 1.22038 20.7638 1.19185 20.8565C1.15619 20.9421 1.12053 21.0277 1.08487 21.1133C1.00641 21.3131 0.935083 21.5057 0.870891 21.7054C0.863758 21.7197 0.863757 21.7339 0.856625 21.7553C0.820962 21.8695 0.7853 21.9908 0.75677 22.112C0.72824 22.219 0.69971 22.326 0.685445 22.433C0.621253 22.697 0.578458 22.9752 0.549928 23.2534C0.542796 23.3461 0.52853 23.446 0.52853 23.5459C0.52853 23.553 0.528531 23.5601 0.521399 23.5673C0.514266 23.6029 0.507132 23.6457 0.5 23.6814V24.6373C0.514265 24.7586 0.52853 24.8656 0.542795 24.9869C0.542795 25.0225 0.549929 25.0725 0.557061 25.1153C0.578459 25.2722 0.599856 25.4291 0.628386 25.5861C0.792434 26.4421 1.05634 27.2197 1.41296 27.9259C1.44149 27.9901 1.47715 28.0543 1.51995 28.1185C1.75532 28.5679 2.04062 28.9888 2.36872 29.374C2.53276 29.5738 2.71107 29.7664 2.89652 29.9518C2.98211 30.0446 3.08196 30.1302 3.18182 30.2229C3.76668 30.7437 4.44427 31.1931 5.21458 31.5712C5.3073 31.6211 5.40716 31.6639 5.49988 31.7067C5.62113 31.7638 5.74239 31.8137 5.87077 31.8565C6.37005 32.0491 6.89072 32.1775 7.41139 32.256C7.6325 32.2916 7.85361 32.313 8.08185 32.3273C8.12464 32.3345 8.16744 32.3487 8.21023 32.3487H8.68811C9.9363 32.3487 11.1203 32.0705 12.1759 31.5712C12.29 31.5854 12.4041 31.6068 12.5183 31.6425C12.7536 31.7281 12.9391 31.9064 13.1459 32.0634C13.8806 32.6412 14.8149 32.9337 15.7421 32.9907C16.812 33.0549 17.9104 32.8124 18.8305 32.2631C19.7577 31.7138 20.4924 30.8507 20.849 29.8377C20.8989 29.7093 20.9346 29.5595 20.956 29.4239C20.9417 29.2099 20.9132 29.0102 20.792 28.8533ZM13.2101 20.6211C14.3442 20.6211 15.2571 21.5271 15.2571 22.6613C15.2643 23.7884 14.3442 24.7158 13.2244 24.7158C12.0974 24.7229 11.1631 23.8027 11.1631 22.6827C11.1631 21.5413 12.0832 20.614 13.2101 20.6211ZM8.66671 17.3183C9.79364 17.3254 10.7137 18.2314 10.7137 19.3656C10.7137 20.4998 9.77938 21.4272 8.65245 21.4201C7.52551 21.4129 6.61255 20.4927 6.61255 19.3656C6.62682 18.2314 7.54691 17.3183 8.66671 17.3183ZM2.07628 22.647C2.08342 21.5199 3.00351 20.6211 4.13757 20.6211C5.25738 20.6282 6.17034 21.5485 6.17034 22.6756C6.17034 23.7956 5.24311 24.7158 4.11618 24.7158C2.98924 24.7158 2.06915 23.7884 2.07628 22.647ZM5.85651 30.0588C4.72957 30.066 3.80948 29.1315 3.80948 27.9901C3.81661 26.8701 4.73671 25.9642 5.87077 25.9642C6.99057 25.9642 7.8964 26.8844 7.8964 28.0186C7.91067 29.1386 6.99057 30.0517 5.85651 30.0588ZM8.66671 24.8228C8.28869 24.8157 7.99626 24.516 7.99626 24.138C8.00339 23.7599 8.30295 23.4674 8.68098 23.4674C9.059 23.4674 9.35143 23.7742 9.35143 24.1522C9.3443 24.5303 9.04473 24.8228 8.66671 24.8228ZM9.43702 28.0044C9.44415 26.8701 10.3571 25.957 11.4769 25.9642C12.611 25.9642 13.5311 26.8844 13.5239 28.0044C13.5168 29.1315 12.5967 30.0588 11.484 30.0588C10.35 30.0517 9.42989 29.1386 9.43702 28.0044Z" fill="#8E93A6"/>
</svg>
