<svg width="33" height="33" viewBox="0 0 33 33" fill="none" xmlns="http://www.w3.org/2000/svg">
<path d="M23.1015 0H21.4517C19.1186 0 17.9521 0 17.2272 0.724805C16.5024 1.44961 16.5024 2.61616 16.5024 4.94928C16.5024 7.28239 16.5024 8.44894 17.2272 9.17375C17.9521 9.89855 19.1186 9.89855 21.4517 9.89855H23.1015C25.4346 9.89855 26.6011 9.89855 27.3259 9.17375C27.7956 8.70414 27.9609 8.04909 28.0191 7.01147H28.0507L30.7157 8.12189C31.7488 8.55234 32.2654 8.76757 32.6327 8.52269C33 8.27781 33 7.71822 33 6.59903V3.29952C33 2.18033 33 1.62074 32.6327 1.37586C32.2654 1.13098 31.7488 1.34621 30.7157 1.77666L28.0507 2.88708H28.0191C27.9609 1.84946 27.7956 1.19441 27.3259 0.724805C26.6011 0 25.4346 0 23.1015 0Z" fill="#EE5488"/>
<path d="M9.87797 24.8289C5.19378 24.8289 2.85169 24.8289 1.3965 23.5242C0.453666 22.6789 0.121703 21.4998 0.00482178 19.6321V18.1473H33V19.6321C32.8831 21.4998 32.5511 22.6789 31.6083 23.5242C30.1531 24.8289 27.811 24.8289 23.1268 24.8289H17.7445V30.768H23.1268C23.8128 30.768 24.3689 31.2666 24.3689 31.8816C24.3689 32.4966 23.8128 32.9952 23.1268 32.9952H9.87797C9.19198 32.9952 8.63588 32.4966 8.63588 31.8816C8.63588 31.2666 9.19198 30.768 9.87797 30.768H15.2603V24.8289H9.87797Z" fill="#1C274C"/>
<path d="M32.9999 13.1981V14.8478C32.9999 15.7579 32.9893 17.404 32.9785 18.1473H0.00483328C-0.00591973 17.404 0.00473903 15.7579 0.00473903 14.8478V13.1981C0.00473903 6.97644 0.00473907 3.86562 1.93755 1.93281C3.87036 0 6.98118 0 13.2028 0H14.7175C14.3789 0.634059 14.222 1.29659 14.1404 1.90419C14.0273 2.74535 14.0275 3.76521 14.0277 4.81463L14.0277 4.94927L14.0277 5.08392C14.0275 6.13333 14.0273 7.1532 14.1404 7.99436C14.2678 8.94265 14.5785 10.0247 15.4773 10.9236C16.3761 11.8224 17.4582 12.133 18.4065 12.2605C19.2477 12.3736 20.2675 12.3734 21.317 12.3732L21.4516 12.3732H23.1014L23.236 12.3732C24.2854 12.3734 25.3053 12.3736 26.1464 12.2605C27.0947 12.133 28.1768 11.8224 29.0757 10.9236C29.2668 10.7324 29.4316 10.5326 29.5739 10.327L29.7638 10.4062L29.8575 10.4452C30.2861 10.6243 30.829 10.8511 31.3165 10.9745C31.7019 11.0721 32.3164 11.1761 32.9962 11.0194C32.9999 11.7 32.9999 12.425 32.9999 13.1981Z" fill="#8E93A6"/>
</svg>
