<svg width="33" height="33" viewBox="0 0 33 33" fill="none" xmlns="http://www.w3.org/2000/svg">
<path d="M16.4936 0.00164467C20.5854 0.00164467 24.6772 -0.000257197 28.769 0.00164467C31.7988 0.00354655 33.0054 1.11741 33 3.94169C32.9892 9.1357 32.9684 14.3297 32.9395 19.5237C32.9247 22.1306 31.6428 23.3408 28.8544 23.3446C20.6049 23.3566 12.3547 23.3573 4.10525 23.3446C1.26238 23.3401 0.0121147 22.1413 0.00740685 19.4527C-0.00200884 14.1959 -0.00268102 8.93917 0.00673467 3.6824C0.01077 1.2461 1.33704 0.00671563 3.92164 0.00291189C8.11162 -0.00279372 12.3023 0.00164467 16.4936 0.00164467ZM11.4185 11.688H11.4226C11.4226 12.8393 11.4226 13.9905 11.4226 15.1418C11.4226 15.2039 11.4226 15.2661 11.4239 15.3282C11.4629 17.4393 13.0118 18.3015 14.9515 17.2662C17.22 16.0553 19.4703 14.8141 21.7301 13.588C23.6919 12.5229 23.7262 10.8575 21.7765 9.77599C19.473 8.49794 17.154 7.24524 14.827 6.00522C13.067 5.06696 11.469 5.94055 11.4239 7.86081C11.3943 9.13633 11.4185 10.4125 11.4185 11.688Z" fill="#1C274C"/>
<path d="M32.8818 30.3797C32.8818 30.6897 32.746 30.9686 32.5307 31.1734C32.3149 31.3769 32.0149 31.5024 31.6887 31.5024H7.27586V31.7269C7.27586 32.428 6.66787 33.0011 5.92403 33.0011C5.18019 33.0011 4.57221 32.428 4.57221 31.7269V31.5024H1.31237C0.657303 31.5024 0.118591 30.9972 0.118591 30.3791C0.118591 30.0691 0.252429 29.7882 0.469662 29.5854C0.68555 29.38 0.983489 29.2544 1.31169 29.2544H4.57154V28.7295C4.57154 28.0284 5.17952 27.4553 5.92336 27.4553C6.29528 27.4553 6.63223 27.5985 6.87838 27.8287C7.12252 28.0588 7.27451 28.3783 7.27451 28.7289V29.2538H31.6867C32.3438 29.2551 32.8818 29.7603 32.8818 30.3797Z" fill="#8E93A6"/>
</svg>
