<svg width="91" height="94" viewBox="0 0 91 94" fill="none" xmlns="http://www.w3.org/2000/svg">
<path d="M90.4073 55.6341C89.3961 55.0539 86.3644 56.0137 78.2363 61.0995C73.6985 63.9385 70.393 66.8304 68.357 68.8313C67.8945 68.6804 67.3328 68.7072 66.8022 68.7836C65.6249 68.9536 65.3797 70.1267 64.9374 70.7502C64.6513 71.1539 63.6395 71.2851 62.2955 71.6882C65.3973 67.559 70.5215 60.0824 75.9453 49.4007C84.6675 32.2219 83.2088 17.7236 80.1589 16.0799C77.1083 14.4363 74.8031 23.1158 74.8031 23.1158C74.8031 23.1158 71.7091 24.6276 69.9422 28.7824C68.1747 32.9371 63.548 36.562 62.6289 38.8597C61.7104 41.1574 59.4421 41.5313 59.7048 43.9207C59.7048 43.9207 55.6904 46.0134 54.0637 49.2867C53.2522 50.9196 52.8235 51.4017 52.2215 51.9302C54.7707 66.0598 52.9837 70.5406 52.9837 70.5406C52.9837 62.2337 51.604 55.3832 51.0631 53.0186C51.0456 53.0549 51.0268 53.0906 51.0125 53.1288C50.3846 49.0415 48.2519 41.2421 41.2791 29.0708C30.2679 9.85036 12.3902 -0.94026 10.6441 0.778572C8.89732 2.49741 11.3329 3.95641 11.1695 5.55742C11.006 7.15844 11.008 8.87536 11.4614 12.378C11.9148 15.8806 10.2406 18.8757 11.2356 21.2874C12.2313 23.6991 12.2313 23.6991 12.2313 23.6991C12.2313 23.6991 10.6752 26.5311 10.7498 29.5243C10.8244 32.5168 11.4867 32.9804 11.4867 32.9804C11.4867 32.9804 9.52909 36.022 9.93449 39.2463C10.3399 42.4706 11.0748 44.2098 11.0748 44.2098C11.0748 44.2098 9.68411 47.1578 11.5074 50.1484C13.3307 53.139 19.0277 54.9189 20.9191 55.7519C22.8105 56.5849 26.38 57.8567 27.8472 59.6182C27.8472 59.6182 20.5176 55.9608 16.476 55.3393C12.4343 54.7177 9.92865 53.6994 5.9389 56.79C1.94915 59.8806 2.07109 63.1514 2.07109 63.1514C2.07109 63.1514 0.181621 64.0353 0.0181656 65.6363C-0.14529 67.2373 0.847763 67.9321 0.847763 67.9321C0.847763 67.9321 0.330152 70.021 0.851654 71.366C1.37316 72.711 2.53162 73.5217 2.53162 73.5217C2.53162 73.5217 0.737503 74.9622 2.08666 76.8861C3.43582 78.81 4.09808 79.2736 4.09808 79.2736C4.09808 79.2736 3.84121 82.035 5.82797 83.4246C7.81474 84.8141 9.54012 85.5319 9.54012 85.5319C9.54012 85.5319 12.2592 86.9437 14.8583 86.8017C16.0122 86.7387 17.89 86.0751 19.6283 85.3574L19.6244 85.372L20.7796 84.8619C20.672 85.1402 20.5844 85.3803 20.5993 85.4255C20.5993 85.4255 18.1488 91.5532 25.239 92.1015C31.7234 92.6033 41.8758 87.473 49.0724 82.9476C47.4061 85.1249 45.6003 87.1972 44.6059 88.5479C43.3002 90.3222 42.3902 92.6849 43.345 93.0816C44.2998 93.4784 46.3988 92.3741 47.6629 90.7953C48.9278 89.2166 51.0936 86.8017 53.2133 85.5994C55.333 84.397 56.0615 82.405 56.5856 81.3905C57.1097 80.3754 57.2322 79.7895 58.4705 79.3258C59.7087 78.8629 62.9059 77.4707 64.6889 75.8952C66.472 74.3196 66.559 72.911 67.218 72.7384C67.877 72.5658 69.4136 72.1627 69.3637 70.4209C69.3611 70.3375 69.3533 70.2617 69.3455 70.1859C71.7591 68.297 75.0755 66.0171 78.726 64.4174C86.0725 61.1982 86.6653 61.3918 88.139 61.6255C89.6127 61.8586 89.9455 60.9836 89.0432 60.3697C88.141 59.7557 85.2377 60.4384 77.2692 64.6148C73.9352 66.3623 71.2473 68.1856 69.2462 69.7172C69.1477 69.4255 68.9926 69.2109 68.7967 69.0593C71.2051 66.7024 75.1774 63.2151 79.7697 60.7709C87.3159 56.7543 87.9632 56.9129 89.5504 57.0422C91.1377 57.1721 91.4185 56.2143 90.4073 55.6341Z" fill="url(#paint0_linear_3329_11959)"/>
<defs>
<linearGradient id="paint0_linear_3329_11959" x1="13.5201" y1="8.65546" x2="63.9723" y2="81.6478" gradientUnits="userSpaceOnUse">
<stop offset="0.0036" stop-color="#008BA2"/>
<stop offset="0.1502" stop-color="#0DA0B3"/>
<stop offset="0.5412" stop-color="#2BD3DC"/>
<stop offset="0.8366" stop-color="#3EF3F5"/>
<stop offset="1" stop-color="#45FFFF"/>
</linearGradient>
</defs>
</svg>
