<svg width="93" height="102" viewBox="0 0 93 102" fill="none" xmlns="http://www.w3.org/2000/svg">
<path d="M92.071 49.7324C90.802 49.4828 87.986 51.5565 81.3555 59.7406C79.1528 62.46 77.4149 65.0421 76.0723 67.2817C75.8494 67.1546 75.6095 67.087 75.3635 67.0743C76.6482 63.7213 78.5524 59.568 81.1612 55.8617C86.685 48.0134 87.4217 47.8482 89.0914 47.181C90.7611 46.5139 90.5451 45.4058 89.2216 45.3282C87.8981 45.2506 85.3383 47.7438 79.7839 56.9637C77.4681 60.8079 75.8631 64.3335 74.7767 67.1425C74.4591 67.2262 74.1511 67.3814 73.8846 67.5909C72.816 68.4319 72.8569 69.3647 72.6006 70.1249C72.418 70.6675 71.241 71.1346 69.8275 72.1102C72.3191 68.5424 76.4144 61.2636 78.5612 49.6849C81.7807 32.323 76.6454 16.5054 72.8351 9.7559C69.0247 3.00638 65.4876 -0.601569 60.1376 0.901968C54.7877 2.4055 55.446 11.2126 58.016 16.0618C60.5867 20.911 58.3541 23.825 56.2931 25.9127C54.0216 28.2132 55.3676 30.1048 55.3676 30.1048C55.3676 30.1048 63.7027 40.6958 66.6134 55.6449C68.705 66.3857 68.3704 71.5561 68.0167 73.6164C67.9901 73.6431 67.9656 73.6733 67.9397 73.7014C68.8025 64.8695 65.6082 47.444 55.8352 33.0202C44.7407 16.6466 28.9498 8.05163 21.9812 9.47955C15.0127 10.9075 16.709 23.004 20.2188 26.2968C23.7287 29.5903 27.3053 34.8824 25.3132 39.1635C23.3211 43.4453 23.5862 51.4414 26.681 56.1407C29.7758 60.84 31.1511 59.3532 43.9842 64.82C52.7288 68.545 59.4977 73.1185 62.9257 75.6566C59.1501 73.1025 52.2456 68.9806 41.8319 64.7892C24.9063 57.9775 17.2208 61.0481 13.7287 66.6159C10.2366 72.1838 10.4444 78.2856 10.9583 81.7242C11.4722 85.1629 11.4183 89.4928 8.70177 91.62C5.98521 93.7465 0.430817 95.3725 0.0368958 98.2544C-0.357704 101.136 2.47334 102.798 5.63287 99.5793C8.79173 96.3608 12.5612 91.5083 18.3869 96.7175C24.2125 101.927 37.0013 103.177 45.6369 94.9623C52.1529 88.7642 58.1128 86.7581 60.6467 86.1465C59.5645 89.1576 58.1503 92.2222 57.4879 94.0751C56.7096 96.2504 56.5106 98.9048 57.5955 99.0246C58.6805 99.1451 60.4641 97.4127 61.2608 95.4468C62.0568 93.4809 63.5091 90.4049 65.2838 88.5681C67.0585 86.7313 67.1873 84.5051 67.4074 83.3261C67.6276 82.1471 67.573 81.5188 68.6826 80.6871C69.7921 79.8554 72.5972 77.5107 73.918 75.3949C75.2388 73.2798 74.898 71.8311 75.5107 71.4631C76.1234 71.0951 77.5532 70.2366 76.9719 68.4922C76.8431 68.1068 76.6666 67.8143 76.4621 67.5942C78.0923 64.8079 80.2371 61.6383 82.8371 58.856C89.2509 51.9948 89.9856 51.9312 91.6907 51.5063C93.3973 51.0814 93.34 49.9813 92.071 49.7324Z" fill="url(#paint0_linear_3329_11961)"/>
<defs>
<linearGradient id="paint0_linear_3329_11961" x1="60.0316" y1="117.794" x2="20.0038" y2="-13.9836" gradientUnits="userSpaceOnUse">
<stop offset="0.0577" stop-color="#FFFF7F"/>
<stop offset="0.0596" stop-color="#FFFF7F"/>
<stop offset="0.3043" stop-color="#FFC3A3"/>
<stop offset="0.5292" stop-color="#FF95BE"/>
<stop offset="0.7273" stop-color="#FF73D2"/>
<stop offset="0.8909" stop-color="#FF5EDF"/>
<stop offset="1" stop-color="#FF57E3"/>
</linearGradient>
</defs>
</svg>
