<svg width="75" height="88" viewBox="0 0 75 88" fill="none" xmlns="http://www.w3.org/2000/svg">
<path d="M3.95846 59.3448C3.56102 59.4993 2.67608 59.8799 2.12699 60.4004C1.40217 61.0873 -0.258319 61.5573 0.545123 60.5809C1.00878 60.017 1.6714 59.7212 2.15284 59.5678C4.02251 58.7648 10.1587 56.8373 15.7436 62.953C18.5109 62.2941 19.8539 64.2596 20.1197 64.7068C19.245 62.279 15.9377 51.7425 16.4037 37.1003C16.889 21.8712 20.5207 12.6313 25.9132 5.17123C31.3056 -2.28886 36.9167 0.332454 37.3607 3.03534C37.3607 3.03534 40.1509 3.58809 40.4662 6.18618C40.4662 6.18618 44.0661 7.71371 43.3126 10.9387C43.3126 10.9387 46.8023 11.9509 46.2352 15.8588C46.2352 15.8588 48.5237 16.7514 48.1505 19.0057C48.1505 19.0057 51.8231 20.059 51.5519 23.3552C51.5519 23.3552 55.5779 24.3755 55.9606 29.4779C55.9606 29.4779 60.8447 34.3877 57.1746 39.407C55.4671 41.7428 53.1728 44.3019 50.6952 47.0984C50.7521 47.075 50.8094 47.0523 50.8668 47.0297C50.9109 47.0117 50.9542 46.9942 50.9987 46.9769C51.2703 46.8724 51.5459 46.7721 51.8305 46.6835C52.2348 46.5575 52.6267 46.4583 53.0124 46.371C53.138 46.3423 53.2603 46.3179 53.3837 46.2925C53.4977 46.2697 53.6148 46.2406 53.7268 46.2204C53.7255 46.2246 53.7231 46.2284 53.7213 46.2324C54.0744 46.1689 54.419 46.114 54.7529 46.0754L54.7533 46.0697C54.8931 46.0534 55.023 46.0461 55.1591 46.0333C55.3391 46.0167 55.5201 45.9966 55.6934 45.9852C55.8774 45.973 56.0499 45.9686 56.2265 45.9614C56.5108 45.9509 56.7829 45.9435 57.0453 45.9423C57.2142 45.9414 57.384 45.9394 57.5436 45.941C57.7202 45.9429 57.8808 45.9454 58.0458 45.9486C58.099 45.9493 58.1587 45.95 58.2104 45.9509C58.8566 45.9641 59.4141 45.9762 59.8407 45.9295C60.5125 45.8568 61.0657 45.8793 61.5896 46.063C61.6189 46.0732 61.6484 46.0803 61.6774 46.0916C61.7579 46.1227 61.8376 46.1632 61.9174 46.2032C61.9715 46.23 62.0256 46.2569 62.0796 46.2883C62.1493 46.3292 62.2208 46.3752 62.2903 46.4239C62.3555 46.4688 62.4216 46.5177 62.4867 46.5697C62.5494 46.619 62.6123 46.6697 62.6758 46.7251C62.7564 46.7963 62.8395 46.8772 62.922 46.9599C62.9735 47.0113 63.0248 47.0587 63.0768 47.1154C63.2142 47.2627 63.3546 47.4225 63.4999 47.6037C63.7457 47.9095 64.0239 48.1204 64.3196 48.2806C64.6785 48.4747 65.0641 48.593 65.4528 48.7095C65.8588 48.8303 66.2681 48.9507 66.6539 49.1518C67.022 49.3434 67.3673 49.6158 67.6694 50.0312L67.6702 50.0327C67.7199 50.1017 67.7691 50.1724 67.8169 50.2499C67.8771 50.3458 67.9366 50.4465 67.992 50.5591C68.0697 50.7168 68.1427 50.866 68.2135 51.0114C68.4888 51.5751 68.7171 52.0538 68.9327 52.4837L68.9323 52.4849C69.1506 52.9213 69.3569 53.3085 69.5855 53.6826C69.8274 54.0785 70.0967 54.4621 70.4339 54.879C70.4509 54.9 70.4684 54.9211 70.4858 54.9428C70.5937 55.074 70.7059 55.2084 70.8298 55.348C71.9519 56.6221 72.7948 56.9875 73.1017 58.2364C73.1317 58.3593 73.156 58.4948 73.1752 58.6366C73.1793 58.6675 73.1839 58.6992 73.1877 58.7313C73.2054 58.8805 73.219 59.0369 73.2244 59.2098C73.2439 59.7926 73.2651 60.3107 73.2984 60.7966C73.3152 61.0457 73.3368 61.2852 73.3615 61.5185C73.3823 61.7157 73.407 61.9082 73.4363 62.0988C73.4372 62.1049 73.4387 62.1111 73.4395 62.1172C73.4685 62.3044 73.5011 62.4901 73.5394 62.6748C73.5404 62.6803 73.5416 62.6852 73.5427 62.6906C73.5812 62.8767 73.6251 63.0623 73.6751 63.2497C73.6762 63.2526 73.6767 63.2553 73.6777 63.2588C73.7284 63.4483 73.7852 63.6395 73.8495 63.8341C73.9014 63.9923 73.9546 64.1508 74.0166 64.315C74.6553 66.002 74.4143 66.7346 73.7765 68.8103C73.7619 68.8579 73.7524 68.9063 73.7392 68.9536C73.6415 69.3154 73.5871 69.6796 73.5638 70.048C73.5462 70.3224 73.5434 70.5983 73.5472 70.8761C73.5474 70.8866 73.5477 70.897 73.5478 70.908C73.5513 71.1372 73.5603 71.368 73.5685 71.5992C73.5913 72.2043 73.6117 72.8153 73.5534 73.4299C73.4944 74.0514 73.3551 74.6769 73.0442 75.3019C73.0188 75.3529 72.9907 75.4084 72.9626 75.4639L72.9615 75.4655C72.8624 75.6606 72.7462 75.8827 72.6119 76.1261C72.6018 76.1446 72.5914 76.1624 72.5814 76.1809C72.5199 76.2922 72.4547 76.4071 72.3856 76.5266C72.379 76.5377 72.3731 76.549 72.3666 76.5601C72.2875 76.6956 72.2044 76.8358 72.1155 76.9801C71.7975 77.4984 71.4164 78.0706 70.9678 78.664C70.7779 78.915 70.5759 79.1692 70.3614 79.4256C70.1471 79.6814 69.92 79.9382 69.6806 80.1941L69.6797 80.1951C68.6499 81.2947 67.3824 82.3719 65.8512 83.2359C65.8465 83.2385 65.8418 83.241 65.8371 83.2436C65.6055 83.3737 65.3687 83.499 65.1249 83.6192C63.7475 84.2969 62.1751 84.7989 60.3885 84.9994C59.9269 85.0511 59.4618 85.0902 58.9943 85.1215C58.8399 85.1317 58.683 85.1367 58.5279 85.1447C58.2128 85.1614 57.8977 85.1762 57.58 85.1837C57.3963 85.1882 57.2118 85.1887 57.0275 85.1905C56.7357 85.193 56.443 85.194 56.1493 85.1896C55.9552 85.1866 55.7611 85.1818 55.5665 85.1761C55.2792 85.1677 54.9914 85.1565 54.7026 85.1418C54.5072 85.132 54.312 85.1217 54.1161 85.1092C53.8214 85.0902 53.5265 85.0673 53.2314 85.0425C53.0438 85.0265 52.857 85.0121 52.6693 84.9941C52.3504 84.9632 52.0317 84.9271 51.7125 84.8903C51.5494 84.8715 51.387 84.8549 51.2238 84.8342C50.7868 84.779 50.3502 84.7182 49.9139 84.6516C49.8704 84.6452 49.8271 84.6401 49.7837 84.633C49.3048 84.559 48.8271 84.4788 48.3503 84.3931C48.1882 84.3642 48.0271 84.3318 47.8649 84.301C47.5489 84.2418 47.2332 84.182 46.9186 84.118C46.726 84.0787 46.5339 84.0375 46.3417 83.9964C46.059 83.9362 45.7777 83.8757 45.4967 83.8121C45.2953 83.7664 45.0947 83.7203 44.8939 83.6728C44.6221 83.6092 44.3514 83.544 44.0816 83.4777C43.8814 83.4285 43.6812 83.3786 43.4821 83.3277C43.2118 83.2587 42.9439 83.1885 42.6755 83.1174C42.4823 83.0663 42.2886 83.015 42.0966 82.9622C41.8186 82.8859 41.5435 82.8084 41.268 82.7302C41.0905 82.6796 40.9119 82.6306 40.7353 82.579C40.4058 82.4829 40.08 82.3854 39.7557 82.287C38.7501 81.9826 37.7666 81.6682 36.8145 81.3497C36.7779 81.3374 36.7405 81.3256 36.7045 81.3136C36.4377 81.2236 36.1883 81.1262 35.9327 81.0316C35.5212 80.8782 35.1242 80.7199 34.7422 80.5555C34.9293 80.9295 35.1142 81.3133 35.2982 81.7161C36.4564 84.2535 37.7405 91.0361 33.9169 83.9607C29.3804 75.5655 25.2514 74.3565 22.1517 72.7306C19.0526 71.1048 18.9405 68.6047 18.9405 68.6047C15.5581 69.0225 13.6632 66.065 14.2595 64.2396C12.931 63.0567 9.29282 60.4897 4.94706 62.9995C4.72682 63.1606 4.39279 63.4745 4.13296 64.026C3.7108 64.9235 2.33637 65.9519 2.72499 64.7565C2.94477 64.0807 3.44021 63.5704 3.82946 63.2545L3.82607 63.2503C3.84765 63.2351 3.86853 63.2222 3.89011 63.2069C4.15987 62.9958 4.36519 62.8835 4.36519 62.8835C8.98563 59.9383 12.9105 62.5518 14.4304 63.8642C14.6239 63.5352 14.9217 63.2667 15.3301 63.0926C11.0449 58.4749 6.54503 58.6667 3.95846 59.3448Z" fill="url(#paint0_linear_3329_11963)"/>
<defs>
<linearGradient id="paint0_linear_3329_11963" x1="77.5015" y1="67.9801" x2="11.6836" y2="28.5925" gradientUnits="userSpaceOnUse">
<stop offset="0.0072" stop-color="#FFBEC5"/>
<stop offset="0.1585" stop-color="#FEB5BF"/>
<stop offset="0.4" stop-color="#FB9EAE"/>
<stop offset="0.7001" stop-color="#F67992"/>
<stop offset="1" stop-color="#F14C72"/>
</linearGradient>
</defs>
</svg>
