<svg width="98" height="101" viewBox="0 0 98 101" fill="none" xmlns="http://www.w3.org/2000/svg">
<path d="M97.3617 59.9947C96.2727 59.3699 93.0078 60.4035 84.2545 65.8805C79.3676 68.9379 75.8079 72.0523 73.6152 74.2071C73.1172 74.0446 72.5122 74.0734 71.9408 74.1557C70.673 74.3388 70.409 75.6021 69.9326 76.2735C69.6245 76.7083 68.5348 76.8496 67.0874 77.2838C70.4278 72.8369 75.9462 64.7852 81.7873 53.2818C91.1804 34.7816 89.6094 19.168 86.3249 17.3979C83.0398 15.6278 80.5572 24.9749 80.5572 24.9749C80.5572 24.9749 77.2252 26.6031 75.3224 31.0774C73.4189 35.5518 68.4363 39.4555 67.4465 41.93C66.4574 44.4045 64.0146 44.807 64.2975 47.3803C64.2975 47.3803 59.9743 49.6339 58.2224 53.1591C57.3485 54.9175 56.8868 55.4367 56.2386 56.0059C58.9838 71.2224 57.0594 76.0479 57.0594 76.0479C57.0594 67.102 55.5736 59.7245 54.991 57.178C54.9722 57.2171 54.9519 57.2555 54.9365 57.2967C54.2604 52.895 51.9636 44.4957 44.4544 31.3881C32.5962 10.6891 13.3433 -0.931553 11.4629 0.919499C9.58173 2.77055 12.2047 4.34178 12.0287 6.06595C11.8526 7.79013 11.8547 9.63912 12.343 13.4112C12.8313 17.1832 11.0284 20.4087 12.0999 23.0059C13.1722 25.6032 13.1722 25.6032 13.1722 25.6032C13.1722 25.6032 11.4964 28.653 11.5767 31.8764C11.6571 35.0991 12.3703 35.5984 12.3703 35.5984C12.3703 35.5984 10.2621 38.8739 10.6987 42.3463C11.1353 45.8186 11.9267 47.6916 11.9267 47.6916C11.9267 47.6916 10.429 50.8663 12.3926 54.087C14.3562 57.3076 20.4914 59.2245 22.5283 60.1216C24.5652 61.0187 28.4092 62.3883 29.9893 64.2853C29.9893 64.2853 22.0959 60.3465 17.7433 59.6772C13.3908 59.0078 10.6924 57.9112 6.39574 61.2395C2.09908 64.5678 2.23041 68.0902 2.23041 68.0902C2.23041 68.0902 0.195595 69.0422 0.0195694 70.7663C-0.156464 72.4905 0.912979 73.2387 0.912979 73.2387C0.912979 73.2387 0.355553 75.4883 0.917168 76.9367C1.47879 78.3852 2.72637 79.2583 2.72637 79.2583C2.72637 79.2583 0.794235 80.8096 2.24718 82.8815C3.70011 84.9534 4.41331 85.4527 4.41331 85.4527C4.41331 85.4527 4.13669 88.4264 6.27628 89.9229C8.41588 91.4194 10.274 92.1923 10.274 92.1923C10.274 92.1923 13.2022 93.7128 16.0012 93.5598C17.2439 93.492 19.2661 92.7773 21.1382 92.0044L21.134 92.0202L22.3781 91.4708C22.2621 91.7705 22.1678 92.0291 22.1839 92.0778C22.1839 92.0778 19.5449 98.6768 27.1805 99.2673C34.1637 99.8077 45.097 94.2827 52.8472 89.4092C51.0527 91.7541 49.108 93.9857 48.0372 95.4404C46.631 97.3511 45.651 99.8955 46.6792 100.323C47.7075 100.75 49.9679 99.5608 51.3293 97.8607C52.6915 96.1605 55.0238 93.5598 57.3066 92.265C59.5894 90.9702 60.3739 88.8249 60.9383 87.7324C61.5027 86.6392 61.6347 86.0082 62.9682 85.5089C64.3017 85.0103 67.7448 83.5111 69.665 81.8143C71.5853 80.1176 71.6789 78.6006 72.3886 78.4147C73.0983 78.2288 74.7531 77.7947 74.6993 75.919C74.6965 75.8291 74.6881 75.7475 74.6798 75.6659C77.279 73.6317 80.8506 71.1765 84.7819 69.4537C92.6934 65.9868 93.3319 66.1953 94.9189 66.447C96.506 66.698 96.8643 65.7557 95.8927 65.0945C94.921 64.4334 91.7944 65.1686 83.213 69.6663C79.6226 71.5482 76.7278 73.5117 74.5729 75.1611C74.4667 74.847 74.2998 74.6159 74.0888 74.4527C76.6824 71.9144 80.9602 68.1588 85.9058 65.5266C94.0325 61.2011 94.7296 61.3719 96.4389 61.5111C98.1482 61.651 98.4507 60.6195 97.3617 59.9947Z" fill="url(#paint0_linear_3329_11964)"/>
<defs>
<linearGradient id="paint0_linear_3329_11964" x1="14.5602" y1="9.4023" x2="68.8933" y2="88.0094" gradientUnits="userSpaceOnUse">
<stop offset="0.0036" stop-color="#008BA2"/>
<stop offset="0.1502" stop-color="#0DA0B3"/>
<stop offset="0.5412" stop-color="#2BD3DC"/>
<stop offset="0.8366" stop-color="#3EF3F5"/>
<stop offset="1" stop-color="#45FFFF"/>
</linearGradient>
</defs>
</svg>
