<svg width="93" height="102" viewBox="0 0 93 102" fill="none" xmlns="http://www.w3.org/2000/svg">
<path d="M0.928972 49.7324C2.19797 49.4828 5.01401 51.5565 11.6445 59.7406C13.8472 62.46 15.5851 65.0421 16.9277 67.2817C17.1506 67.1546 17.3905 67.087 17.6365 67.0743C16.3518 63.7213 14.4476 59.568 11.8388 55.8617C6.31504 48.0134 5.57832 47.8482 3.90859 47.181C2.23886 46.5139 2.4549 45.4058 3.77842 45.3282C5.10193 45.2506 7.66173 47.7438 13.2161 56.9637C15.5319 60.8079 17.1369 64.3335 18.2233 67.1425C18.5409 67.2262 18.8489 67.3814 19.1154 67.5909C20.184 68.4319 20.1431 69.3647 20.3994 70.1249C20.582 70.6675 21.759 71.1346 23.1725 72.1102C20.6809 68.5424 16.5856 61.2636 14.4388 49.6849C11.2193 32.323 16.3546 16.5054 20.1649 9.7559C23.9753 3.00638 27.5124 -0.601569 32.8624 0.901968C38.2123 2.4055 37.554 11.2126 34.984 16.0618C32.4133 20.911 34.6459 23.825 36.7069 25.9127C38.9784 28.2132 37.6324 30.1048 37.6324 30.1048C37.6324 30.1048 29.2973 40.6958 26.3866 55.6449C24.295 66.3857 24.6296 71.5561 24.9833 73.6164C25.0099 73.6431 25.0344 73.6733 25.0603 73.7014C24.1975 64.8695 27.3918 47.444 37.1648 33.0202C48.2593 16.6466 64.0502 8.05163 71.0188 9.47955C77.9873 10.9075 76.291 23.004 72.7812 26.2968C69.2713 29.5903 65.6947 34.8824 67.6868 39.1635C69.6789 43.4453 69.4138 51.4414 66.319 56.1407C63.2242 60.84 61.8489 59.3532 49.0158 64.82C40.2712 68.545 33.5023 73.1185 30.0743 75.6566C33.8499 73.1025 40.7544 68.9806 51.1681 64.7892C68.0937 57.9775 75.7792 61.0481 79.2713 66.6159C82.7634 72.1838 82.5556 78.2856 82.0417 81.7242C81.5278 85.1629 81.5817 89.4928 84.2982 91.62C87.0148 93.7465 92.5692 95.3725 92.9631 98.2544C93.3577 101.136 90.5267 102.798 87.3671 99.5793C84.2083 96.3608 80.4388 91.5083 74.6131 96.7175C68.7875 101.927 55.9987 103.177 47.3631 94.9623C40.8471 88.7642 34.8872 86.7581 32.3533 86.1465C33.4355 89.1576 34.8497 92.2222 35.5121 94.0751C36.2904 96.2504 36.4894 98.9048 35.4045 99.0246C34.3195 99.1451 32.5359 97.4127 31.7392 95.4468C30.9432 93.4809 29.4909 90.4049 27.7162 88.5681C25.9415 86.7313 25.8127 84.5051 25.5926 83.3261C25.3724 82.1471 25.427 81.5188 24.3174 80.6871C23.2079 79.8554 20.4028 77.5107 19.082 75.3949C17.7612 73.2798 18.102 71.8311 17.4893 71.4631C16.8766 71.0951 15.4468 70.2366 16.0281 68.4922C16.1569 68.1068 16.3334 67.8143 16.5379 67.5942C14.9077 64.8079 12.7629 61.6383 10.1629 58.856C3.74912 51.9948 3.01444 51.9312 1.30927 51.5063C-0.397261 51.0814 -0.340022 49.9813 0.928972 49.7324Z" fill="url(#paint0_linear_3329_11960)"/>
<defs>
<linearGradient id="paint0_linear_3329_11960" x1="32.9684" y1="117.794" x2="72.9962" y2="-13.9836" gradientUnits="userSpaceOnUse">
<stop offset="0.0577" stop-color="#FFFF7F"/>
<stop offset="0.0596" stop-color="#FFFF7F"/>
<stop offset="0.3043" stop-color="#FFC3A3"/>
<stop offset="0.5292" stop-color="#FF95BE"/>
<stop offset="0.7273" stop-color="#FF73D2"/>
<stop offset="0.8909" stop-color="#FF5EDF"/>
<stop offset="1" stop-color="#FF57E3"/>
</linearGradient>
</defs>
</svg>
