<svg width="1148" height="222" viewBox="0 0 1148 222" fill="none" xmlns="http://www.w3.org/2000/svg">
<path d="M884.783 51.5974C884.783 51.5974 809.883 -46.8204 554.398 28.1925C554.398 28.1925 461.551 0.953583 408.606 38.7856C408.606 38.7856 265 41.0385 184.363 100.527C184.363 100.527 3.24881 106.92 0.0328828 136.041C-2.62983 160.154 157.082 184.552 237.598 186.404C237.598 186.404 617.568 254.907 841.056 201.658C841.056 201.658 908.617 208.213 986 204.119L1148 201.658L1120 182L1094 170L1069 159.085L1032 149.542C1001.18 137.473 919.636 49.9593 884.783 51.5974Z" fill="#F0F9FF"/>
</svg>
