<svg width="2173" height="249" viewBox="0 0 2173 249" fill="none" xmlns="http://www.w3.org/2000/svg">
<path d="M0.0576418 197.047C0.0576418 197.047 -11.6689 153.826 299.392 143.072C299.392 143.072 290.84 88.1942 461.888 91.3957C461.888 91.3957 547.411 -7.85193 795.432 24.1634C795.432 24.1634 1300.02 -55.8752 1402.65 75.3877C1402.65 75.3877 1573.7 36.9692 1744.75 120.209C1744.75 120.209 1834.55 115.859 1911.52 150.624C1911.52 150.624 2172.37 173.035 2172.37 214.655C2172.37 231.903 1874.39 248.263 1498.78 248.359C857.82 248.522 721.284 219.179 721.284 219.179C721.284 219.179 626.025 248.359 261.433 232.994C101.266 226.245 0.0445357 212.631 0.0576418 197.047Z" fill="#F0F9FF"/>
</svg>
