<svg width="1109" height="250" viewBox="0 0 1109 250" fill="none" xmlns="http://www.w3.org/2000/svg">
<path d="M0.0294263 197.732C0.0294263 197.732 -5.95699 154.511 152.84 143.758C152.84 143.758 148.474 88.8798 235.795 92.0812C235.795 92.0812 279.455 -7.16638 406.07 24.8489C406.07 24.8489 663.665 -55.1896 716.058 76.0733C716.058 76.0733 803.378 37.6547 890.699 120.895C890.699 120.895 936.542 116.545 975.836 151.309C975.836 151.309 1109 173.72 1109 215.34C1109 232.588 956.879 248.949 765.132 249.044C437.919 249.208 368.217 219.864 368.217 219.864C368.217 219.864 319.587 249.045 133.462 233.68C51.6966 226.931 0.0227356 213.317 0.0294263 197.732Z" fill="#F0F9FF"/>
</svg>
