<svg width="866" height="195" viewBox="0 0 866 195" fill="none" xmlns="http://www.w3.org/2000/svg">
<path d="M865.083 160.494C865.343 159.626 865.521 158.765 865.623 157.911C733.062 109.915 664.446 129.766 664.446 129.766C579.899 43.5028 498.265 81.1758 498.265 81.1758C305.327 -94.9237 282.962 70.3479 282.962 70.3479C187.576 24.1912 146.716 116.46 146.716 116.46C88.5311 93.4113 37.9733 108.087 6.07278 125.807C0.000784874 134.718 0 141.298 0 141.298C0 157.25 40.2315 176.186 108.06 177.914C260.77 181.803 270.434 168.642 270.434 168.642C270.434 168.642 283.825 194.682 432.865 194.878C589.954 195.084 605.376 177.757 605.376 177.757C605.376 177.757 636.865 190.209 760.643 190.209C845.674 190.209 862.075 170.541 865.083 160.494Z" fill="#DEF2FF"/>
</svg>
