<svg width="2174" height="249" viewBox="0 0 2174 249" fill="none" xmlns="http://www.w3.org/2000/svg">
<path d="M1 197.188C1 197.188 -10.7265 153.967 300.334 143.213C300.334 143.213 291.782 88.3353 462.83 91.5367C462.83 91.5367 548.354 -7.71087 796.374 24.3044C796.374 24.3044 1300.97 -55.7341 1403.59 75.5288C1403.59 75.5288 1574.64 37.1103 1745.69 120.35C1745.69 120.35 1835.49 116 1912.46 150.765C1912.46 150.765 2173.31 173.176 2173.31 214.796C2173.31 232.044 1875.33 248.404 1499.73 248.5C858.762 248.663 722.226 219.32 722.226 219.32C722.226 219.32 626.967 248.5 262.375 233.135C102.208 226.386 0.986894 212.772 1 197.188Z" fill="#F0F9FF" fill-opacity="0.8"/>
</svg>
