<svg width="882" height="126" viewBox="0 0 882 126" fill="none" xmlns="http://www.w3.org/2000/svg">
<path d="M512.69 78.9714C579.973 39.6367 698.324 97.9613 698.324 97.9613C734.267 103.631 803.126 104.504 866.821 96.1765C876.124 93.5896 881.241 90.6665 881.409 87.3598C881.416 87.226 881.415 87.0916 881.405 86.9565C881.405 86.9565 881.405 86.9503 881.404 86.9411C881.404 86.9383 881.404 86.9358 881.404 86.932C881.403 86.9281 881.403 86.9232 881.402 86.9185C881.402 86.9134 881.401 86.9081 881.401 86.9019C881.4 86.8964 881.4 86.8903 881.399 86.8842C881.398 86.8758 881.397 86.867 881.396 86.857C881.395 86.8509 881.395 86.8443 881.394 86.8376C881.392 86.8262 881.391 86.8143 881.389 86.8013C881.388 86.7939 881.387 86.786 881.385 86.778C881.384 86.7639 881.381 86.7488 881.379 86.7331C881.378 86.7245 881.376 86.7159 881.375 86.7069C881.372 86.6897 881.369 86.6712 881.366 86.6522C881.364 86.643 881.363 86.6342 881.361 86.6246C881.357 86.6032 881.353 86.5803 881.349 86.557C881.348 86.5486 881.346 86.5405 881.345 86.5319C881.34 86.5054 881.334 86.4774 881.328 86.4488C881.327 86.4412 881.325 86.4339 881.324 86.4261C881.316 86.3916 881.309 86.3555 881.3 86.3177C881.3 86.3151 881.299 86.313 881.299 86.3104C881.28 86.2274 881.259 86.137 881.233 86.0393L881.232 86.0345C881.22 85.9883 881.207 85.9403 881.194 85.8909C881.191 85.8834 881.189 85.8756 881.187 85.8682C881.175 85.8245 881.162 85.7798 881.148 85.7337C881.145 85.7222 881.141 85.7102 881.138 85.6985C881.125 85.6544 881.111 85.6095 881.097 85.5634C881.093 85.5511 881.089 85.5384 881.085 85.5258C881.07 85.4802 881.055 85.4333 881.039 85.3857C881.034 85.3712 881.029 85.3567 881.024 85.342C881.008 85.2942 880.991 85.2454 880.974 85.1958C880.969 85.1811 880.963 85.1662 880.958 85.1513C880.94 85.0998 880.92 85.0473 880.9 84.9938C880.895 84.98 880.89 84.9667 880.885 84.9528C880.863 84.8946 880.84 84.8352 880.816 84.7749C880.812 84.7655 880.809 84.7561 880.805 84.7467C880.777 84.6767 880.748 84.6056 880.717 84.5329L880.717 84.5317C880.591 84.2299 880.441 83.9042 880.264 83.557C880.263 83.5542 880.261 83.5513 880.26 83.5485C880.218 83.4668 880.175 83.3841 880.13 83.3003C880.125 83.2897 880.119 83.2789 880.113 83.2681C880.072 83.1913 880.03 83.1135 879.986 83.0349C879.978 83.0206 879.97 83.0061 879.962 82.9916C879.919 82.9154 879.875 82.8382 879.83 82.76C879.821 82.7441 879.812 82.7282 879.802 82.7124C879.757 82.6344 879.71 82.5556 879.662 82.476C879.652 82.4605 879.643 82.4449 879.634 82.4294C879.583 82.3469 879.531 82.2634 879.479 82.1793C879.471 82.1666 879.463 82.1541 879.455 82.1415C879.397 82.05 879.337 81.9575 879.275 81.864C879.272 81.8589 879.269 81.854 879.266 81.8489C878.931 81.3418 878.545 80.8072 878.098 80.2499L878.095 80.2469C878.009 80.1388 877.919 80.0298 877.828 79.9201C877.82 79.9108 877.813 79.9015 877.805 79.8921C877.72 79.7905 877.633 79.6882 877.544 79.5852C877.532 79.5709 877.519 79.5564 877.507 79.5419C877.421 79.4433 877.334 79.3441 877.245 79.2444C877.23 79.2271 877.214 79.2101 877.199 79.1928C877.11 79.0935 877.019 78.9937 876.926 78.8932C876.911 78.8773 876.896 78.8617 876.882 78.8458C876.785 78.7421 876.686 78.6377 876.586 78.5328C876.574 78.5203 876.562 78.5078 876.55 78.495C876.442 78.3825 876.331 78.2693 876.217 78.1554C876.213 78.1511 876.209 78.1468 876.205 78.1425C875.601 77.5375 874.928 76.9157 874.177 76.282C874.172 76.2781 874.168 76.2742 874.163 76.2702C874.021 76.1507 873.876 76.0306 873.729 75.9102C873.712 75.8961 873.694 75.882 873.677 75.8679C873.54 75.757 873.402 75.6457 873.26 75.534C873.237 75.5152 873.213 75.4964 873.189 75.4776C873.052 75.37 872.913 75.2622 872.772 75.1542C872.744 75.1331 872.717 75.1121 872.689 75.0909C872.547 74.9833 872.404 74.8756 872.257 74.7676C872.23 74.7474 872.203 74.7274 872.176 74.7072C872.024 74.5959 871.871 74.4846 871.714 74.3729C871.691 74.3564 871.669 74.3402 871.646 74.3237C871.478 74.204 871.306 74.0839 871.132 73.9635C871.121 73.9557 871.11 73.9479 871.098 73.94C870.151 73.2869 869.117 72.6278 867.988 71.9672C867.968 71.9555 867.947 71.9435 867.927 71.9316C867.726 71.8144 867.522 71.6972 867.316 71.58C867.279 71.5591 867.241 71.5383 867.204 71.5173C867.011 71.4086 866.816 71.2998 866.618 71.1909C866.572 71.1658 866.526 71.1409 866.48 71.1158C866.288 71.0108 866.093 70.9057 865.895 70.8005C865.844 70.7736 865.793 70.7468 865.742 70.7197C865.545 70.6155 865.345 70.5114 865.142 70.4074C865.091 70.3809 865.04 70.3547 864.988 70.3282C864.779 70.2214 864.567 70.1144 864.352 70.0078C864.306 69.9853 864.262 69.9627 864.216 69.94C863.985 69.826 863.751 69.7119 863.514 69.5981C863.483 69.5834 863.453 69.5685 863.422 69.5538C863.153 69.425 862.88 69.2963 862.603 69.1677C825.84 62.5578 774.368 62.8463 698.325 78.9828C698.325 78.9828 670.241 36.425 584.98 50.0404C584.98 50.0404 442.411 -61.6217 283.497 48.6444C283.497 48.6444 5.00039 67.4746 51.0004 77.0506L5.00039 109.475C-35 149.475 186.17 99.9492 186.17 99.9492C411.765 20.2817 512.69 78.9714 512.69 78.9714Z" fill="#DEF2FF"/>
</svg>
