<svg width="1109" height="249" viewBox="0 0 1109 249" fill="none" xmlns="http://www.w3.org/2000/svg">
<path d="M0.0294263 197.495C0.0294263 197.495 -5.95699 154.275 152.84 143.521C152.84 143.521 148.474 88.6432 235.795 91.8447C235.795 91.8447 279.455 -7.40296 406.07 24.6123C406.07 24.6123 663.665 -55.4262 716.058 75.8367C716.058 75.8367 803.378 37.4182 890.699 120.658C890.699 120.658 936.542 116.308 975.836 151.073C975.836 151.073 1109 173.484 1109 215.104C1109 232.351 956.879 248.712 765.132 248.808C437.919 248.971 368.217 219.628 368.217 219.628C368.217 219.628 319.587 248.808 133.462 233.443C51.6966 226.694 0.0227355 213.08 0.0294263 197.495Z" fill="#F0F9FF"/>
</svg>
