<svg width="866" height="196" viewBox="0 0 866 196" fill="none" xmlns="http://www.w3.org/2000/svg">
<path d="M865.083 160.731C865.343 159.863 865.521 159.002 865.623 158.148C733.062 110.152 664.446 130.003 664.446 130.003C579.899 43.7398 498.265 81.4128 498.265 81.4128C305.327 -94.6866 282.962 70.585 282.962 70.585C187.576 24.4282 146.716 116.697 146.716 116.697C88.5311 93.6484 37.9733 108.324 6.07278 126.045C0.000784874 134.955 0 141.535 0 141.535C0 157.487 40.2315 176.423 108.06 178.151C260.77 182.04 270.434 168.879 270.434 168.879C270.434 168.879 283.825 194.919 432.865 195.115C589.954 195.321 605.376 177.994 605.376 177.994C605.376 177.994 636.865 190.446 760.643 190.446C845.674 190.446 862.075 170.778 865.083 160.731Z" fill="#DEF2FF"/>
</svg>
