<svg width="157" height="148" viewBox="0 0 157 148" fill="none" xmlns="http://www.w3.org/2000/svg">
<path d="M76.5386 146.872C76.5386 147.064 76.5708 147.282 76.6076 147.472C76.6413 147.282 76.6834 147.09 76.6834 146.872H76.5386Z" fill="#81B616"/>
<path d="M59.9888 142.5C59.9888 143.976 59.9888 145.451 60.0256 146.87H76.5388C76.2509 144.987 76.0006 143.046 75.7465 141.078C74.499 131.108 73.7118 120.427 73.5701 109.745C73.5701 108.98 73.5355 108.217 73.4943 107.478C73.4253 105.456 73.3534 103.436 73.3916 101.441C73.4643 98.6813 73.5349 95.9497 73.6061 93.2187C73.8933 87.7824 73.6809 82.3715 74.4636 77.2098C75.6759 66.8026 77.0336 57.1011 78.8591 48.8816C80.5399 40.6323 82.9719 33.9122 84.6841 29.1846C86.7225 24.5678 87.8996 21.8909 87.8996 21.8909C87.8996 21.8909 86.3987 24.4585 83.7553 28.9388C81.4342 33.5015 78.1086 40.0845 75.3206 48.2802C72.3938 56.4495 69.7444 66.0899 67.173 76.4732C65.6729 81.6627 65.2088 87.1244 64.2087 92.645C63.7791 95.4029 63.3144 98.2164 62.848 101.002C62.4552 103.817 62.2775 106.633 61.9911 109.444C60.9903 117.831 60.4197 126.245 60.1334 134.385C60.0599 137.117 60.0255 139.848 59.9888 142.5Z" fill="#858E13"/>
<path d="M73.249 146.875H76.5393C76.5393 147.067 76.5716 147.285 76.6083 147.474C76.6421 147.284 76.6841 147.093 76.6841 146.875H86.0477C86.2231 145.945 86.4 145.017 86.6122 144.09C87.0447 142.121 87.5478 140.155 88.1183 138.187C91.0826 127.588 95.5147 117.424 99.4094 109.64C104.056 100.407 107.845 94.4226 107.845 94.4226C107.845 94.4226 102.805 99.8062 96.161 108.437C90.6568 115.568 84.0744 124.911 78.6475 135.291C77.6084 137.177 76.6848 139.117 75.7485 141.083C75.6443 141.327 75.5034 141.602 75.3954 141.847C74.6435 143.486 73.8938 145.18 73.249 146.875Z" fill="#81B616"/>
<path d="M83.3242 146.87H104.556C106.45 140.807 108.416 134.577 110.557 128.43C113.669 119.932 117.065 111.548 121.354 104.009C125.712 96.5777 130.468 89.7478 135.863 84.6125C137.184 83.3014 138.434 82.0458 139.652 80.842C141.011 79.7494 142.335 78.7119 143.549 77.7563C144.761 76.772 145.942 75.871 147.012 75.0238C148.119 74.2053 149.264 73.6024 150.264 72.9756C153.766 70.8167 155.946 69.4772 156.448 69.1792C155.876 69.3943 153.412 70.4616 149.481 72.1278C148.37 72.6468 147.05 73.1122 145.763 73.795C144.473 74.5028 143.118 75.2964 141.653 76.1178C140.187 76.9363 138.652 77.8392 136.972 78.7675C135.47 79.805 133.933 80.9522 132.256 82.1551C125.499 86.77 118.997 93.2442 112.705 100.486C106.524 107.806 101.09 116.055 96.0156 124.388C93.2958 129.004 90.6562 133.649 88.1177 138.183C86.5089 141.134 84.8971 144.028 83.3242 146.87Z" fill="#80C41C"/>
<path d="M0.627441 9.24463C0.627441 9.24463 4.5948 19.4621 10.5601 34.7852C13.2424 42.4896 16.6378 51.4238 19.7467 61.0662C21.1404 65.9288 22.6083 70.9276 24.1099 75.9815C24.8588 78.5223 25.5755 81.0621 26.3237 83.6318C26.8582 86.2258 27.3973 88.8212 27.967 91.4172C29.0406 96.5798 30.1096 101.771 31.1802 106.854C32.148 111.934 32.3969 116.957 33.0401 121.796C33.1841 122.915 33.2935 124.063 33.3617 125.183C33.7201 128.87 33.8251 132.557 34.1122 136.028C34.2562 138.185 34.4001 140.345 34.5808 142.446C34.7195 143.947 34.8304 145.423 34.9324 146.872H61.2028C61.1691 146.679 61.1332 146.491 61.0597 146.298C60.7013 145.068 60.3453 143.811 59.9877 142.502C59.5956 141.053 59.202 139.525 58.7709 137.967C58.7004 137.692 58.6315 137.393 58.5566 137.119C58.5566 137.092 58.5566 137.065 58.5566 137.065C58.2709 136.001 58.0205 134.881 57.7379 133.76C56.5204 129.225 55.557 124.553 53.9819 119.472C52.4106 114.472 51.1594 109.227 49.1937 104.092C48.3721 102.043 47.5533 99.9679 46.7316 97.891C45.4781 94.8053 44.2271 91.7186 42.9773 88.6032C41.9405 86.0082 40.9022 83.4415 39.8691 80.8709C38.6509 78.3311 37.4378 75.8454 36.2195 73.3592C33.792 68.3897 31.3968 63.5265 29.0735 58.799C24.1788 49.4561 19.1754 40.9048 15.0994 33.5033C6.41649 18.9431 0.627441 9.24463 0.627441 9.24463Z" fill="#739914"/>
<path d="M55.6284 146.874H76.5393C76.5393 147.066 76.5716 147.284 76.6083 147.473C76.642 147.284 76.6841 147.092 76.6841 146.874C77.2141 143.078 77.8595 139.199 78.6467 135.291C79.4294 131.222 80.3973 127.094 81.5788 123.053C82.2528 120.758 82.9731 118.491 83.6546 116.224C84.3293 113.93 85.3999 111.662 86.2583 109.368C88.0456 104.777 89.7945 100.27 91.62 95.9806C95.2635 87.4035 99.0869 79.5078 103.199 73.0618C107.27 66.5607 111.563 61.5059 115.026 58.1988C115.884 57.3812 116.672 56.6423 117.353 56.015C118.103 55.415 118.743 54.9214 119.247 54.5126C120.284 53.6912 120.85 53.2561 120.85 53.2561C120.85 53.2561 120.209 53.6117 119.028 54.3214C118.421 54.6492 117.67 55.0862 116.814 55.6048C116.028 56.1516 115.061 56.8081 114.026 57.5178C109.918 60.4142 104.482 65.0555 99.0156 71.2034C93.4762 77.2967 87.9736 84.8909 82.5414 93.1393C79.826 97.2634 77.1782 101.581 74.4643 105.898C74.1434 106.418 73.8209 106.963 73.4948 107.483C72.4625 109.15 71.3897 110.814 70.4624 112.565C69.2096 114.912 67.9922 117.262 66.7432 119.612C64.2745 124.529 62.0973 129.5 60.1339 134.389C59.6668 135.592 59.2036 136.795 58.7725 137.97C58.5971 138.461 58.4164 138.954 58.2725 139.418C57.3136 141.931 56.4501 144.416 55.6284 146.874Z" fill="#B1D210"/>
<path d="M33.2578 146.869H57.2718C57.5949 144.438 57.9525 141.952 58.2718 139.412C58.3813 138.647 58.4526 137.881 58.5575 137.115C58.5575 137.089 58.5575 137.062 58.5575 137.062C60.1694 124.496 61.7392 110.782 62.6343 96.9865C63.3143 84.7213 63.5279 72.4278 62.8854 60.927C62.0271 49.453 60.7781 38.7443 58.5965 29.7301C58.0942 27.4629 57.6331 25.3031 57.1705 23.2558C56.5588 21.2057 55.9891 19.2668 55.4515 17.4635C54.9193 15.6602 54.4133 13.969 53.9507 12.4116C53.4499 10.8541 52.8425 9.43368 52.3792 8.14741C50.6632 3.69643 49.5553 0.910728 49.3049 0.281006C49.4466 0.937555 50.0553 3.80618 51.0561 8.36642C51.3012 9.68001 51.6985 11.099 51.9482 12.6833C52.1633 14.2685 52.3786 15.9889 52.6252 17.8171C52.8764 19.6492 53.1298 21.5886 53.4124 23.6363C53.5181 25.6864 53.662 27.8434 53.8052 30.1116C54.4852 39.0994 54.0563 49.6447 53.0555 60.8177C51.913 72.0195 49.7996 83.9013 47.2297 95.7036C47.0535 96.4392 46.9088 97.1499 46.7326 97.8884C43.9085 110.1 40.5477 122.23 37.2588 133.485C36.3637 136.543 35.4754 139.523 34.5818 142.443C34.1507 143.919 33.7211 145.42 33.2578 146.869Z" fill="#80C41C"/>
<path d="M10.2417 126.3L13.4556 146.872H24.2137L10.2417 126.3Z" fill="#81B616"/>
<path d="M9.77637 88.4651C9.77637 88.4651 10.4901 90.0752 11.7788 92.918C13.0263 95.7588 14.7115 99.802 16.3564 104.748C19.8207 114.579 22.9296 127.939 24.3967 141.243C24.6104 143.126 24.7536 145.013 24.8601 146.871H42.51C41.6171 144.247 40.6207 141.598 39.5839 138.976C38.8342 137.146 38.0471 135.286 37.2599 133.486C36.0087 130.671 34.7207 127.883 33.3638 125.181C29.3245 116.955 24.9628 109.417 20.8913 103.436C17.858 98.7913 15.0316 95.0754 12.9947 92.4795C10.9564 89.9396 9.77637 88.4651 9.77637 88.4651Z" fill="#B1D210"/>
</svg>
