<svg width="104" height="104" viewBox="0 0 104 104" fill="none" xmlns="http://www.w3.org/2000/svg">
<path d="M12.9292 0.947266C12.9292 0.947266 38.0557 38.8671 35.9663 98.5868H43.5637C43.5637 98.5868 43.0441 32.2841 12.9292 0.947266Z" fill="#739914"/>
<path d="M80.1118 100.064C80.1118 100.064 81.8585 73.6119 103.845 65.8875C103.845 65.8875 73.4786 67.8205 66.8506 100.064H80.1118Z" fill="#81B616"/>
<path d="M80.4622 56.1255C80.4622 56.1255 69.992 76.7912 75.2263 100.067H64.0567C64.0567 100.067 58.8225 68.16 80.4622 56.1255Z" fill="#B1D210"/>
<path d="M69.0539 2.64868C69.0539 2.64868 58.5846 48.4588 63.8181 100.065H52.6523C52.6523 100.065 47.4179 29.3297 69.0539 2.64868Z" fill="#B1D210"/>
<path d="M40.4253 51.6738C40.4253 51.6738 47.6275 74.4297 44.0282 100.067H51.7125C51.7125 100.067 55.3118 64.9287 40.4253 51.6738Z" fill="#858E13"/>
<path d="M90.6528 24.2256C90.6528 24.2256 60.9929 65.3238 65.8756 100.07H57.4971C57.4971 100.07 59.5955 59.8773 90.6528 24.2256Z" fill="#81B616"/>
<path d="M46.2588 100.062C46.2588 79.963 50.7996 18.6532 101.751 44.7679C101.751 44.7679 79.5914 33.1553 68.9414 51.5777C61.2653 64.8599 61.2653 65.8852 60.9227 100.062H46.2588Z" fill="#739914"/>
<path d="M40.1859 34.21C40.1859 34.21 26.3543 57.8823 35.511 98.5826H26.8738C26.8738 98.5826 18.4982 54.6474 40.1859 34.21Z" fill="#B1D210"/>
<path d="M0.978516 54.6524C0.978516 54.6524 25.0538 50.2205 24.0125 99.6109H34.4798C34.4798 99.6109 29.2462 46.9879 0.978516 54.6524Z" fill="#80C41C"/>
<path d="M40.948 99.6098C40.948 99.6098 44.8419 81.9927 32.7329 75.3999C32.7329 75.3999 51.1556 79.0963 48.9875 99.6098H40.948Z" fill="#81B616"/>
<path d="M42.6018 103.473H53.0292C53.0292 103.473 61.1528 42.8453 40.9487 15.2571C40.9487 15.2571 51.88 48.6377 42.6018 103.473Z" fill="#80C41C"/>
<path d="M36.6136 101.368C36.6136 101.368 34.9612 83.6565 35.4845 80.1377C35.4845 80.1377 31.7324 89.2216 31.7324 101.368H36.6136Z" fill="#81B616"/>
<path d="M22.878 99.6066C22.878 99.6066 23.7462 80.3052 16.3333 70.4277C16.3333 70.4277 19.2106 82.4612 16.858 88.5375C16.858 88.5375 17.2944 85.4147 14.8511 82.9719C14.8511 82.9719 16.0716 93.7021 12.9297 99.6071H22.878V99.6066Z" fill="#81B616"/>
</svg>
