<svg width="135" height="173" viewBox="0 0 135 173" fill="none" xmlns="http://www.w3.org/2000/svg">
<path d="M25.7123 25.4282C25.7123 25.4282 26.2379 25.7881 27.226 26.4657C27.7178 26.8066 28.3242 27.2232 29.0424 27.7139C29.7516 28.2085 30.5005 28.8172 31.3792 29.4752C34.857 32.119 39.5516 36.0812 44.1794 41.2551C48.8042 46.4236 53.4822 52.7491 57.2426 59.8336C61.0893 66.8976 64.121 74.6757 66.3746 82.5431C70.8562 98.3047 71.9643 114.384 71.9815 126.398C71.9972 132.413 71.7596 137.423 71.5489 140.929C71.4312 142.682 71.3368 144.059 71.2753 144.997C71.2018 145.936 71.1658 146.438 71.1658 146.438C71.1493 146.68 71.5714 146.892 72.1126 146.911C72.6584 146.931 73.1091 146.748 73.1285 146.505C73.1285 146.505 73.1668 146.003 73.238 145.062C73.301 144.119 73.3954 142.737 73.5131 140.98C73.723 137.461 73.9644 132.435 73.9487 126.398C73.933 114.336 72.8234 98.1803 68.3058 82.3094C66.0388 74.386 62.9837 66.5464 59.0981 59.4078C55.3024 52.2521 50.5645 45.85 45.8782 40.6083C41.1829 35.3608 36.4156 31.3347 32.8764 28.648C31.9827 27.9753 31.221 27.3598 30.4991 26.8569C29.7719 26.3559 29.1549 25.932 28.6481 25.5852C27.6488 24.8965 27.1105 24.5297 27.1105 24.5297C26.8518 24.3497 26.3331 24.4097 25.947 24.6584C25.5654 24.9077 25.4582 25.2526 25.7123 25.4282Z" fill="#858E13"/>
<path d="M27.3169 25.5998V25.5959C28.0246 25.153 29.0667 24.9403 30.2841 25.0822C31.4941 25.2252 32.9343 25.6978 34.2043 26.7026C34.6721 27.0773 37.1235 28.8586 39.3013 30.7775C39.8539 31.2531 40.4116 31.7243 40.9409 32.176C41.4372 32.6389 41.908 33.0803 42.3271 33.4725C43.1637 34.2549 43.7904 34.8407 43.9996 35.0378C46.1894 37.2177 45.5305 38.9932 43.861 39.6478H43.8557L43.8512 39.6507C42.1524 40.3102 39.5098 39.9195 37.4684 37.8825C37.2705 37.6976 36.6797 37.146 35.8925 36.4094C35.4997 36.0407 35.0559 35.627 34.5888 35.189C34.094 34.768 33.5677 34.3232 33.0467 33.8788C31.0045 32.0755 28.7083 30.4112 28.2749 30.0625C27.0897 29.1201 26.4495 28.2713 26.3438 27.4904C26.2336 26.7168 26.6062 26.0441 27.3117 25.6012L27.3169 25.5998Z" fill="#4D4F11"/>
<path d="M49.519 0.800316C49.519 0.800316 50.831 3.14798 53.1235 7.26141C54.1768 9.33837 55.3456 11.8851 56.7475 14.7922C57.384 16.2595 57.9897 17.833 58.6667 19.4842C59.3392 21.1392 60.0678 22.8727 60.6518 24.7107C63.3492 32.0142 65.5743 40.6674 67.4418 49.98C67.6749 51.1463 67.9081 52.3199 68.1428 53.5023C68.3407 54.6885 68.54 55.8812 68.7425 57.0826C68.9426 58.2859 69.1473 59.4936 69.3498 60.7077C69.5792 61.9223 69.6181 63.1525 69.762 64.3783C70.0034 66.841 70.2426 69.3189 70.4893 71.81C70.6085 73.0544 70.7314 74.3021 70.8491 75.5513C70.9736 76.7995 70.9893 78.0531 71.0635 79.3057C71.2712 84.3225 71.592 89.3271 71.7097 94.2707C71.8867 99.2105 71.9609 104.073 72.2098 108.779C72.4609 113.491 72.5831 118.024 72.916 122.365C73.3351 126.704 74.2235 130.76 74.9949 134.49C75.7858 138.222 76.4987 141.632 76.9463 144.662C77.3976 147.688 77.594 150.331 77.5895 152.505C77.5655 153.589 77.5236 154.557 77.4591 155.397C77.3519 156.235 77.2604 156.946 77.1922 157.524C76.9463 158.673 76.8144 159.28 76.8144 159.28C76.7537 159.576 77.1337 159.865 77.6682 159.927C78.2058 159.988 78.6878 159.789 78.7545 159.481C78.7545 159.481 78.894 158.849 79.1474 157.665C79.2224 157.07 79.3115 156.335 79.418 155.474C79.487 154.61 79.532 153.616 79.5582 152.508C79.5597 150.288 79.3565 147.599 78.9015 144.537C78.4502 141.473 77.7335 138.045 76.9418 134.315C76.1711 130.589 75.2887 126.558 74.8802 122.284C74.5518 118.005 74.4236 113.44 74.1747 108.748C73.9235 104.048 73.8501 99.1827 73.6792 94.2439C73.5585 89.3032 73.2383 84.2772 73.0262 79.2565C72.9512 78.0029 72.9407 76.7459 72.8178 75.4923C72.6948 74.2387 72.5711 72.9846 72.4474 71.7349C72.2075 69.2331 71.9653 66.7449 71.7224 64.2714C71.5785 63.0398 71.5388 61.8038 71.3094 60.5843C71.1033 59.3658 70.8993 58.1513 70.6984 56.946C70.4967 55.7387 70.2959 54.5422 70.0957 53.3515C69.861 52.1653 69.6234 50.9848 69.3895 49.8171C67.5168 40.4693 65.282 31.7693 62.5673 24.4229C61.9803 22.5737 61.2479 20.8265 60.5754 19.1622C59.8902 17.4999 59.2777 15.9156 58.639 14.4405C57.2281 11.508 56.0473 8.94328 54.9857 6.85022C52.6744 2.70411 51.3528 0.335946 51.3528 0.335946C51.1924 0.0491324 50.6518 -0.0776885 50.148 0.0491337C49.642 0.181321 49.3638 0.514478 49.519 0.800316Z" fill="#858E13"/>
<path d="M50.9948 1.57521H50.9978C52.8323 1.11622 55.505 2.16396 57.1858 5.18038C57.9325 6.26568 62.6562 16.3544 62.9508 17.5207C64.1968 20.6122 62.9343 22.4497 60.9911 22.7492H60.9866H60.9822C59.1004 23.034 56.5627 21.8346 55.3565 18.8382C55.0626 17.6968 50.4783 7.90023 49.7608 6.85248C48.14 3.94972 49.1566 2.0386 50.9911 1.57814L50.9948 1.57521Z" fill="#4D4F11"/>
<path d="M133.474 34.5941C133.474 34.5941 132.839 34.9589 131.641 35.6448C131.343 35.8179 131.009 36.0077 130.641 36.2203C130.296 36.4452 129.917 36.6901 129.512 36.9569C128.715 37.4988 127.725 38.0783 126.753 38.8099C122.73 41.6444 117.556 46.0354 112.483 51.7331C107.392 57.4226 102.378 64.3822 97.8162 72.0257C95.4899 75.8347 93.4448 79.854 91.2872 83.9265C90.7497 84.9411 90.2136 85.9644 89.6709 86.9873C89.1228 88.0136 88.7233 89.0691 88.2405 90.113C87.3191 92.206 86.391 94.3088 85.4644 96.4082C78.2359 113.28 74.7934 130.705 73.3158 143.767C73.0376 147.039 72.782 150.041 72.5586 152.698C72.5008 153.366 72.4461 154.008 72.3981 154.629C72.3816 155.252 72.3613 155.849 72.3501 156.425C72.3156 157.578 72.2886 158.637 72.2594 159.591C72.1567 163.415 72.0938 165.597 72.0938 165.597C72.0908 165.864 72.5203 166.077 73.0668 166.077C73.6074 166.077 74.0557 165.863 74.0632 165.6C74.0632 165.6 74.1194 163.426 74.2273 159.615C74.2498 158.666 74.2791 157.613 74.3128 156.465C74.3248 155.891 74.345 155.295 74.3608 154.675C74.411 154.055 74.465 153.416 74.5212 152.754C74.7476 150.104 74.9973 147.12 75.2769 143.859C76.7478 130.857 80.1753 113.516 87.3596 96.7419C88.2809 94.6527 89.2053 92.5645 90.1229 90.4827C90.6027 89.4452 90.9956 88.3945 91.5459 87.3751C92.0827 86.3566 92.6202 85.3401 93.1517 84.3284C95.2981 80.2852 97.3296 76.2771 99.6477 72.4896C104.183 64.8919 109.156 57.9923 114.188 52.3746C119.199 46.75 124.277 42.4429 128.203 39.6743C129.155 38.9607 130.116 38.3997 130.892 37.8661C131.29 37.609 131.654 37.3695 131.991 37.1505C132.348 36.9447 132.671 36.7608 132.961 36.5915C134.122 35.9286 134.741 35.573 134.741 35.573C135.042 35.4023 135.004 35.0394 134.66 34.7672C134.314 34.4921 133.786 34.4156 133.474 34.5941Z" fill="#858E13"/>
<path d="M133.035 35.6919L133.039 35.6958C134.318 36.6743 134.072 38.4405 131.332 40.2946C131.054 40.4516 130.334 40.9994 129.358 41.714C128.873 42.0769 128.308 42.4696 127.753 42.9115C127.205 43.3583 126.627 43.83 126.052 44.2997C123.755 46.1908 121.656 48.2058 121.254 48.6185C120.694 49.1711 120.098 49.6111 119.491 49.9511C118.906 50.2989 118.316 50.5506 117.729 50.7096C116.563 51.0306 115.447 50.9896 114.608 50.6598H114.603V50.6559C113.764 50.3262 113.197 49.7043 113.131 48.8565C113.097 48.4346 113.188 47.9551 113.432 47.4342C113.701 46.9186 114.12 46.3615 114.718 45.7747C115.145 45.3377 117.38 43.189 119.864 41.1447C120.493 40.634 121.114 40.1233 121.709 39.6385C122.311 39.1566 122.935 38.7239 123.464 38.3283C124.534 37.5425 125.329 36.9469 125.637 36.7689C128.73 34.6807 131.763 34.7246 133.028 35.6904L133.035 35.6919Z" fill="#4D4F11"/>
<path d="M15.3433 44.1487C15.3433 44.1487 46.7949 91.6139 44.171 166.364H53.689C53.689 166.364 53.033 83.3699 15.3433 44.1487Z" fill="#739914"/>
<path d="M99.4331 168.205C99.4331 168.205 101.619 135.094 129.141 125.43C129.141 125.43 91.1311 127.849 82.832 168.205H99.4331Z" fill="#81B616"/>
<path d="M99.8673 113.213C99.8673 113.213 86.7642 139.076 93.3157 168.208H79.3385C79.3385 168.208 72.7878 128.274 99.8673 113.213Z" fill="#B1D210"/>
<path d="M85.5903 46.2756C85.5903 46.2756 72.4872 103.62 79.0387 168.208H65.0624C65.0624 168.208 58.5063 79.6757 85.5903 46.2756Z" fill="#B1D210"/>
<path d="M49.7559 107.641C49.7559 107.641 58.7753 136.127 54.2667 168.211H63.8844C63.8844 168.211 68.3923 124.231 49.7559 107.641Z" fill="#858E13"/>
<path d="M112.63 73.2793C112.63 73.2793 75.4969 124.721 81.6151 168.208H71.127C71.127 168.208 73.7487 117.9 112.63 73.2793Z" fill="#81B616"/>
<path d="M57.063 168.208C57.063 143.053 62.7359 66.3154 126.516 99.0005C126.516 99.0005 98.7823 84.4632 85.4529 107.528C75.8457 124.153 75.8457 125.432 75.4086 168.208H57.063Z" fill="#739914"/>
<path d="M49.4596 85.7842C49.4596 85.7842 32.1374 115.413 43.6054 166.361H32.7934C32.7934 166.361 22.3097 111.363 49.4596 85.7842Z" fill="#B1D210"/>
<path d="M0.380859 111.361C0.380859 111.361 30.522 105.816 29.2093 167.637H42.3168C42.3168 167.637 35.7653 101.767 0.380859 111.361Z" fill="#80C41C"/>
<path d="M50.4109 167.643C50.4109 167.643 55.2861 145.591 40.1289 137.338C40.1289 137.338 63.1923 141.966 60.4702 167.643H50.4109Z" fill="#81B616"/>
<path d="M52.487 172.473H65.5323C65.5323 172.473 75.7011 96.5857 50.4111 62.0535C50.4111 62.0535 64.0944 103.835 52.487 172.473Z" fill="#80C41C"/>
<path d="M44.9912 169.84C44.9912 169.84 42.913 147.673 43.569 143.264C43.569 143.264 38.8745 154.636 38.8745 169.84H44.9912Z" fill="#81B616"/>
<path d="M27.7926 167.641C27.7926 167.641 28.8826 143.481 19.5978 131.116C19.5978 131.116 23.203 146.181 20.2545 153.784C20.2545 153.784 20.8003 149.876 17.7461 146.822C17.7461 146.822 19.2746 160.251 15.3433 167.642H27.7926V167.641Z" fill="#81B616"/>
</svg>
