<svg width="104" height="104" viewBox="0 0 104 104" fill="none" xmlns="http://www.w3.org/2000/svg">
<path d="M12.4048 0.947266C12.4048 0.947266 37.5305 38.8671 35.4419 98.5868H43.0393C43.0393 98.5868 42.5175 32.2841 12.4048 0.947266Z" fill="#739914"/>
<path d="M79.5839 100.064C79.5839 100.064 81.3329 73.6119 103.319 65.8875C103.319 65.8875 72.9522 67.8205 66.3228 100.064H79.5839Z" fill="#81B616"/>
<path d="M79.9348 56.1255C79.9348 56.1255 69.467 76.7912 74.7006 100.067H63.5316C63.5316 100.067 58.2966 68.16 79.9348 56.1255Z" fill="#B1D210"/>
<path d="M68.5282 2.64868C68.5282 2.64868 58.0596 48.4588 63.2939 100.065H52.1266C52.1266 100.065 46.8929 29.3297 68.5282 2.64868Z" fill="#B1D210"/>
<path d="M39.8994 51.6738C39.8994 51.6738 47.1018 74.4297 43.5018 100.067H51.1875C51.1875 100.067 54.7867 64.9287 39.8994 51.6738Z" fill="#858E13"/>
<path d="M90.1274 24.2256C90.1274 24.2256 60.4675 65.3238 65.3487 100.07H56.9688C56.9688 100.07 59.0701 59.8773 90.1274 24.2256Z" fill="#81B616"/>
<path d="M45.7329 100.062C45.7329 79.963 50.2745 18.6532 101.225 44.7679C101.225 44.7679 79.0663 33.1553 68.417 51.5777C60.7409 64.8599 60.741 65.8852 60.3954 100.062H45.7329Z" fill="#739914"/>
<path d="M39.6593 34.21C39.6593 34.21 25.8275 57.8823 34.9856 98.5826H26.3478C26.3478 98.5826 17.9723 54.6474 39.6593 34.21Z" fill="#B1D210"/>
<path d="M0.45166 54.6524C0.45166 54.6524 24.5279 50.2205 23.4873 99.6109H33.9537C33.9537 99.6109 28.7208 46.9879 0.45166 54.6524Z" fill="#80C41C"/>
<path d="M40.4243 99.6098C40.4243 99.6098 44.3167 81.9927 32.2085 75.3999C32.2085 75.3999 50.6329 79.0963 48.4626 99.6098H40.4243Z" fill="#81B616"/>
<path d="M42.0769 103.473H52.5036C52.5036 103.473 60.6286 42.8453 40.4238 15.2571C40.4238 15.2571 51.3543 48.6377 42.0769 103.473Z" fill="#80C41C"/>
<path d="M36.088 101.368C36.088 101.368 34.4334 83.6565 34.9574 80.1377C34.9574 80.1377 31.2061 89.2216 31.2061 101.368H36.088Z" fill="#81B616"/>
<path d="M22.3539 99.6066C22.3539 99.6066 23.2214 80.3052 15.81 70.4277C15.81 70.4277 18.6849 82.4612 16.3324 88.5375C16.3324 88.5375 16.7711 85.4147 14.3279 82.9719C14.3279 82.9719 15.5467 93.7021 12.4048 99.6071H22.3539V99.6066Z" fill="#81B616"/>
</svg>
