<svg width="25" height="119" viewBox="0 0 25 119" fill="none" xmlns="http://www.w3.org/2000/svg">
<path d="M24.3511 118.565H4.94016C4.67852 116.6 4.39074 114.591 4.13135 112.538C4.04289 111.919 3.98656 111.301 3.9011 110.681C3.9011 110.66 3.9011 110.638 3.9011 110.638C2.59665 100.482 1.32745 89.3949 0.604749 78.2448C0.0567276 68.3292 -0.118714 58.3937 0.402319 49.0961C1.09503 39.8215 2.10484 31.1654 3.87035 23.8795C4.27368 22.0464 4.64786 20.3021 5.0227 18.6456C5.51525 16.9896 5.97634 15.4219 6.41116 13.9639C6.84298 12.5065 7.24996 11.1392 7.62556 9.88076C8.02889 8.62034 8.51912 7.4721 8.89322 6.43411C10.2824 2.8348 11.1769 0.582728 11.3793 0.0749512C11.2646 0.605654 10.7734 2.9226 9.96302 6.6102C9.76585 7.6716 9.4443 8.81836 9.24189 10.0998C9.06946 11.3802 8.89253 12.7704 8.69536 14.2517C8.4922 15.7302 8.28674 17.2974 8.05659 18.9544C7.97188 20.6104 7.855 22.3547 7.74105 24.1883C7.19003 31.4527 7.53705 39.9771 8.34596 49.0088C9.26957 58.0634 10.9789 67.6673 13.0547 77.2087C13.1979 77.8033 13.315 78.3765 13.4574 78.973C15.7395 88.8447 18.4579 98.649 21.117 107.745C21.8389 110.218 22.5586 112.627 23.2806 114.988C23.6299 116.18 23.977 117.394 24.3511 118.565Z" fill="#80C41C"/>
</svg>
