<svg width="31" height="147" viewBox="0 0 31 147" fill="none" xmlns="http://www.w3.org/2000/svg">
<path d="M0.257812 146.869H24.2718C24.5949 144.438 24.9525 141.952 25.2718 139.412C25.3813 138.647 25.4526 137.881 25.5575 137.115C25.5575 137.089 25.5575 137.062 25.5575 137.062C27.1694 124.496 28.7392 110.782 29.6343 96.9865C30.3143 84.7213 30.5279 72.4278 29.8854 60.927C29.0271 49.453 27.7781 38.7443 25.5965 29.7301C25.0942 27.4629 24.6331 25.3031 24.1705 23.2558C23.5588 21.2057 22.9891 19.2668 22.4515 17.4635C21.9193 15.6602 21.4133 13.969 20.9507 12.4116C20.4499 10.8541 19.8425 9.43368 19.3792 8.14741C17.6632 3.69643 16.5553 0.910728 16.3049 0.281006C16.4466 0.937555 17.0553 3.80618 18.0561 8.36642C18.3012 9.68001 18.6985 11.099 18.9482 12.6833C19.1633 14.2685 19.3786 15.9889 19.6252 17.8171C19.8764 19.6492 20.1298 21.5886 20.4124 23.6363C20.5181 25.6864 20.662 27.8434 20.8052 30.1116C21.4852 39.0994 21.0563 49.6447 20.0555 60.8177C18.913 72.0195 16.7996 83.9013 14.2297 95.7036C14.0535 96.4392 13.9088 97.1499 13.7326 97.8884C10.9085 110.1 7.5477 122.23 4.25883 133.485C3.3637 136.543 2.47538 139.523 1.58175 142.443C1.15068 143.919 0.721119 145.42 0.257812 146.869Z" fill="#80C41C"/>
</svg>
