<svg width="64" height="133" viewBox="0 0 64 133" fill="none" xmlns="http://www.w3.org/2000/svg">
<path d="M2.37632 0.594081C2.37632 0.594081 3.0113 0.958935 4.2078 1.64475C4.50693 1.81791 4.83976 2.00766 5.20861 2.22033C5.55271 2.4452 5.93058 2.69006 6.33616 2.95688C7.13532 3.4988 8.12416 4.07827 9.09651 4.80994C13.1186 7.64442 18.2929 12.0354 23.3653 17.7331C28.4564 23.4226 33.4711 30.3822 38.0337 38.0257C40.3599 41.8347 42.4058 45.854 44.5619 49.9265C45.101 50.9411 45.6362 51.9644 46.1783 52.9873C46.727 54.0136 47.1259 55.0691 47.6079 56.113C48.5308 58.206 49.4596 60.3088 50.3847 62.4082C57.6132 79.2795 61.0573 96.7054 62.5334 109.767C62.8116 113.039 63.0664 116.041 63.2913 118.698C63.3483 119.366 63.4031 120.008 63.451 120.629C63.4668 121.252 63.4885 121.849 63.4998 122.425C63.5328 123.578 63.562 124.637 63.5905 125.591C63.6939 129.415 63.7554 131.597 63.7554 131.597C63.7584 131.864 63.3296 132.077 62.7831 132.077C62.2418 132.077 61.795 131.863 61.786 131.6C61.786 131.6 61.7298 129.426 61.6233 125.615C61.5978 124.666 61.5701 123.613 61.5371 122.465C61.5244 121.891 61.5041 121.295 61.4876 120.675C61.4381 120.055 61.3841 119.416 61.3279 118.754C61.1022 116.104 60.8526 113.12 60.573 109.859C59.1021 96.8571 55.6753 79.5161 48.4903 62.7419C47.5674 60.6527 46.6446 58.5645 45.7262 56.4827C45.2464 55.4452 44.8528 54.3945 44.3048 53.3751C43.7673 52.3566 43.229 51.3401 42.6967 50.3284C40.5518 46.2852 38.518 42.2771 36.2007 38.4896C31.6666 30.8919 26.6924 23.9923 21.6627 18.3746C16.6511 12.75 11.5727 8.44291 7.64738 5.67429C6.69677 4.96067 5.73492 4.39972 4.95749 3.86609C4.56091 3.60903 4.1958 3.36954 3.86069 3.15052C3.50234 2.94468 3.17923 2.76079 2.88835 2.59153C1.72783 1.92864 1.10935 1.57305 1.10935 1.57305C0.808728 1.40232 0.845441 1.03942 1.1903 0.767241C1.53515 0.492134 2.06446 0.415555 2.37632 0.594081Z" fill="#858E13"/>
<path d="M2.81516 1.69188L2.80995 1.69578C1.53098 2.67427 1.77836 4.44051 4.51697 6.29455C4.79585 6.45162 5.51554 6.99939 6.49313 7.71399C6.97593 8.0769 7.54194 8.46956 8.09596 8.91149C8.64473 9.35829 9.22273 9.82997 9.79699 10.2997C12.094 12.1908 14.1924 14.2058 14.5943 14.6185C15.155 15.1711 15.7502 15.6111 16.3567 15.9511C16.943 16.2989 17.533 16.5506 18.1208 16.7096C19.285 17.0306 20.4013 16.9896 21.241 16.6598H21.2454V16.6559C22.0851 16.3262 22.6519 15.7043 22.7179 14.8565C22.7509 14.4346 22.6601 13.9551 22.418 13.4342C22.1481 12.9186 21.7298 12.3615 21.1308 11.7747C20.7035 11.3377 18.4694 9.18903 15.9857 7.14475C15.3574 6.63404 14.7337 6.12334 14.1399 5.63849C13.5387 5.15657 12.9142 4.7239 12.3849 4.32832C11.3144 3.54251 10.5197 2.94693 10.2116 2.76889C7.11913 0.680715 4.08665 0.724616 2.82042 1.69042L2.81516 1.69188Z" fill="#4D4F11"/>
</svg>
