<svg width="127" height="120" viewBox="0 0 127 120" fill="none" xmlns="http://www.w3.org/2000/svg">
<path d="M65.145 118.571C65.145 118.727 65.1195 118.904 65.0888 119.058C65.0625 118.904 65.0288 118.747 65.0288 118.571H65.145Z" fill="#81B616"/>
<path d="M78.5223 115.034C78.5223 116.226 78.5222 117.418 78.4922 118.565H65.1448C65.378 117.043 65.5789 115.475 65.7851 113.884C66.7927 105.825 67.4284 97.1903 67.5461 88.5561C67.5461 87.9386 67.5716 87.3206 67.6053 86.724C67.6608 85.089 67.7215 83.4564 67.6878 81.8433C67.6323 79.6142 67.5716 77.4045 67.5153 75.1964C67.2829 70.8025 67.4546 66.4305 66.8226 62.2571C65.842 53.8439 64.7445 46.0043 63.2699 39.3574C61.9107 32.6904 59.9458 27.258 58.5603 23.4378C56.9148 19.7072 55.9619 17.5415 55.9619 17.5415C55.9619 17.5415 57.1757 19.6185 59.313 23.2397C61.188 26.9268 63.8771 32.2485 66.1307 38.8735C68.4967 45.4775 70.6378 53.2698 72.7159 61.662C73.9289 65.8559 74.303 70.2723 75.1112 74.7349C75.4598 76.9641 75.8346 79.2391 76.2125 81.4907C76.5296 83.7666 76.6728 86.0406 76.9045 88.3147C77.7141 95.0938 78.1737 101.894 78.4076 108.473C78.4653 110.682 78.4923 112.89 78.5223 115.034Z" fill="#858E13"/>
<path d="M67.8036 118.565H65.1452C65.1452 118.721 65.1197 118.898 65.089 119.052C65.0628 118.898 65.0291 118.741 65.0291 118.565H57.4594C57.317 117.815 57.1753 117.064 57.0036 116.314C56.6535 114.723 56.2465 113.133 55.7869 111.545C53.3909 102.976 49.8066 94.7623 46.6587 88.4675C42.9035 81.005 39.8403 76.1682 39.8403 76.1682C39.8403 76.1682 43.9141 80.5202 49.2871 87.4949C53.7357 93.2604 59.054 100.812 63.4427 109.203C64.2801 110.728 65.029 112.295 65.7855 113.884C65.8687 114.083 65.9849 114.305 66.0696 114.503C66.6776 115.827 67.2826 117.196 67.8036 118.565Z" fill="#81B616"/>
<path d="M59.6596 118.57H42.4978C40.9669 113.669 39.3768 108.634 37.6458 103.665C35.1291 96.7968 32.3852 90.0191 28.9194 83.9248C25.3967 77.9178 21.5508 72.3972 17.1898 68.2462C16.1215 67.1877 15.111 66.1712 14.1281 65.1985C13.0298 64.3142 11.9585 63.4762 10.9779 62.7035C9.99734 61.909 9.04297 61.1792 8.17708 60.4954C7.2842 59.8335 6.35838 59.3467 5.54947 58.8408C2.7194 57.0956 0.955351 56.0132 0.55127 55.7712C1.01158 55.9454 3.00501 56.8078 6.18293 58.155C7.08031 58.575 8.14862 58.9496 9.18919 59.5023C10.2305 60.0759 11.3273 60.7168 12.511 61.3812C13.697 62.0421 14.9363 62.7713 16.2955 63.523C17.5077 64.3615 18.7514 65.2893 20.1061 66.2609C25.5684 69.9914 30.8259 75.2248 35.9095 81.0772C40.9069 86.9944 45.2979 93.6633 49.4009 100.399C51.5997 104.129 53.7341 107.884 55.7859 111.55C57.0859 113.935 58.3874 116.273 59.6596 118.57Z" fill="#80C41C"/>
<path d="M126.505 7.32056C126.505 7.32056 123.297 15.5796 118.475 27.9662C116.307 34.1937 113.563 41.4152 111.051 49.2075C109.925 53.1395 108.737 57.1817 107.525 61.2659C106.918 63.3209 106.338 65.3739 105.735 67.4509C105.301 69.5469 104.866 71.6448 104.406 73.7422C103.537 77.9162 102.673 82.1115 101.808 86.2196C101.024 90.3257 100.824 94.3879 100.304 98.298C100.187 99.2038 100.101 100.131 100.044 101.036C99.7551 104.017 99.6696 106.996 99.4372 109.802C99.3203 111.547 99.2048 113.291 99.0594 114.99C98.9469 116.205 98.8569 117.398 98.7745 118.568H77.5396C77.5658 118.412 77.5958 118.26 77.655 118.106C77.9429 117.111 78.2323 116.095 78.521 115.036C78.8381 113.865 79.1567 112.629 79.5046 111.37C79.5615 111.148 79.617 110.907 79.677 110.684C79.677 110.663 79.677 110.641 79.677 110.641C79.9094 109.781 80.1111 108.875 80.3397 107.97C81.3241 104.303 82.1029 100.527 83.3759 96.419C84.6451 92.3788 85.6572 88.139 87.2465 83.9875C87.9115 82.3325 88.5727 80.6531 89.2362 78.9756C90.249 76.4806 91.2596 73.9856 92.2716 71.4673C93.109 69.3693 93.9488 67.2953 94.7839 65.2174C95.7682 63.1653 96.748 61.1551 97.7339 59.146C99.6966 55.1286 101.632 51.1967 103.51 47.3764C107.468 39.8246 111.513 32.9128 114.806 26.9287C121.825 15.1596 126.505 7.32056 126.505 7.32056Z" fill="#739914"/>
<path d="M82.0479 118.565H65.1447C65.1447 118.721 65.1192 118.898 65.0884 119.052C65.0622 118.898 65.0285 118.741 65.0285 118.565C64.5989 115.499 64.0779 112.362 63.4421 109.203C62.8087 105.915 62.0267 102.578 61.0716 99.3107C60.5251 97.4566 59.9456 95.6231 59.3946 93.792C58.8481 91.937 57.9829 90.1029 57.2895 88.2493C55.8463 84.5388 54.4309 80.8966 52.9555 77.4285C50.0093 70.4947 46.9206 64.1126 43.5957 58.9027C40.3046 53.6478 36.835 49.5617 34.0349 46.8892C33.3415 46.2273 32.7057 45.6297 32.1547 45.1239C31.5497 44.6381 31.0324 44.2381 30.6238 43.9094C29.7864 43.2445 29.3276 42.8938 29.3276 42.8938C29.3276 42.8938 29.8449 43.1796 30.7993 43.7552C31.2888 44.0201 31.8961 44.3727 32.5903 44.7917C33.226 45.2327 34.0087 45.7644 34.8431 46.337C38.1649 48.6808 42.5581 52.4323 46.9768 57.4008C51.4554 62.3264 55.9033 68.4656 60.2927 75.1335C62.4885 78.467 64.6289 81.9555 66.8232 85.4446C67.0819 85.8646 67.3428 86.3051 67.6059 86.726C68.4396 88.0742 69.3085 89.42 70.0596 90.8341C71.0702 92.731 72.0538 94.6305 73.0629 96.5313C75.0585 100.506 76.8203 104.523 78.4081 108.474C78.7852 109.449 79.1593 110.42 79.5071 111.37C79.6503 111.768 79.7965 112.166 79.912 112.54C80.6842 114.571 81.3814 116.579 82.0479 118.565Z" fill="#B1D210"/>
<path d="M100.13 118.565H80.7181C80.4565 116.6 80.1693 114.591 79.9099 112.538C79.8215 111.919 79.7652 111.301 79.6775 110.681C79.6775 110.66 79.6775 110.638 79.6775 110.638C78.3753 100.482 77.1053 89.3949 76.3834 78.2448C75.8339 68.3292 75.6599 58.3937 76.1817 49.0961C76.8736 39.8215 77.8843 31.1654 79.6483 23.8795C80.0516 22.0464 80.4264 20.3021 80.802 18.6456C81.2946 16.9896 81.7557 15.4219 82.1905 13.9639C82.62 12.5065 83.0286 11.1392 83.4027 9.88076C83.8075 8.62034 84.2985 7.4721 84.6726 6.43411C86.0603 2.8348 86.9555 0.582728 87.1579 0.0749512C87.0424 0.605654 86.5521 2.9226 85.7424 6.6102C85.5438 7.6716 85.2229 8.81836 85.0197 10.0998C84.8473 11.3802 84.6719 12.7704 84.4725 14.2517C84.2716 15.7302 84.0654 17.2974 83.836 18.9544C83.7505 20.6104 83.6343 22.3547 83.5173 24.1883C82.9693 31.4527 83.3157 39.9771 84.1254 49.0088C85.049 58.0634 86.7575 67.6673 88.8342 77.2087C88.9766 77.8033 89.0936 78.3765 89.236 78.973C91.518 88.8447 94.2357 98.649 96.8948 107.745C97.6168 110.218 98.3365 112.627 99.0592 114.988C99.4078 116.18 99.7556 117.394 100.13 118.565Z" fill="#80C41C"/>
<path d="M118.733 101.938L116.135 118.564H107.439L118.733 101.938Z" fill="#81B616"/>
<path d="M119.111 71.3596C119.111 71.3596 118.534 72.661 117.492 74.958C116.484 77.2549 115.122 80.5245 113.792 84.5204C110.992 92.4697 108.479 103.267 107.293 114.021C107.121 115.545 107.004 117.069 106.918 118.569H92.6514C93.3733 116.449 94.1792 114.309 95.0166 112.189C95.6223 110.71 96.2589 109.207 96.8961 107.749C97.9074 105.475 98.9472 103.222 100.045 101.038C103.31 94.3896 106.836 88.2953 110.126 83.4604C112.578 79.707 114.863 76.7027 116.51 74.6053C118.157 72.5513 119.111 71.3596 119.111 71.3596Z" fill="#B1D210"/>
</svg>
