<svg width="186" height="148" viewBox="0 0 186 148" fill="none" xmlns="http://www.w3.org/2000/svg">
<path d="M105.539 146.872C105.539 147.064 105.571 147.282 105.608 147.472C105.641 147.282 105.683 147.09 105.683 146.872H105.539Z" fill="#81B616"/>
<path d="M88.9888 142.5C88.9888 143.976 88.9888 145.451 89.0256 146.87H105.539C105.251 144.987 105.001 143.046 104.746 141.078C103.499 131.108 102.712 120.427 102.57 109.745C102.57 108.98 102.536 108.217 102.494 107.478C102.425 105.456 102.353 103.436 102.392 101.441C102.464 98.6813 102.535 95.9497 102.606 93.2187C102.893 87.7824 102.681 82.3715 103.464 77.2098C104.676 66.8026 106.034 57.1011 107.859 48.8816C109.54 40.6323 111.972 33.9122 113.684 29.1846C115.723 24.5678 116.9 21.8909 116.9 21.8909C116.9 21.8909 115.399 24.4585 112.755 28.9388C110.434 33.5015 107.109 40.0845 104.321 48.2802C101.394 56.4495 98.7444 66.0899 96.173 76.4732C94.6729 81.6627 94.2088 87.1244 93.2087 92.645C92.7791 95.4029 92.3144 98.2164 91.848 101.002C91.4552 103.817 91.2775 106.633 90.9911 109.444C89.9903 117.831 89.4197 126.245 89.1334 134.385C89.0599 137.117 89.0255 139.848 88.9888 142.5Z" fill="#858E13"/>
<path d="M102.249 146.875H105.539C105.539 147.067 105.572 147.285 105.608 147.474C105.642 147.284 105.684 147.093 105.684 146.875H115.048C115.223 145.945 115.4 145.017 115.612 144.09C116.045 142.121 116.548 140.155 117.118 138.187C120.083 127.588 124.515 117.424 128.409 109.64C133.056 100.407 136.845 94.4226 136.845 94.4226C136.845 94.4226 131.805 99.8062 125.161 108.437C119.657 115.568 113.074 124.911 107.647 135.291C106.608 137.177 105.685 139.117 104.748 141.083C104.644 141.327 104.503 141.602 104.395 141.847C103.643 143.486 102.894 145.18 102.249 146.875Z" fill="#81B616"/>
<path d="M112.324 146.87H133.556C135.45 140.807 137.416 134.577 139.557 128.43C142.669 119.932 146.065 111.548 150.354 104.009C154.712 96.5777 159.468 89.7478 164.863 84.6125C166.184 83.3014 167.434 82.0458 168.652 80.842C170.011 79.7494 171.335 78.7119 172.549 77.7563C173.761 76.772 174.942 75.871 176.012 75.0238C177.119 74.2053 178.264 73.6024 179.264 72.9756C182.766 70.8167 184.946 69.4772 185.448 69.1792C184.876 69.3943 182.412 70.4616 178.481 72.1278C177.37 72.6468 176.05 73.1122 174.763 73.795C173.473 74.5028 172.118 75.2964 170.653 76.1178C169.187 76.9363 167.652 77.8392 165.972 78.7675C164.47 79.805 162.933 80.9522 161.256 82.1551C154.499 86.77 147.997 93.2442 141.705 100.486C135.524 107.806 130.09 116.055 125.016 124.388C122.296 129.004 119.656 133.649 117.118 138.183C115.509 141.134 113.897 144.028 112.324 146.87Z" fill="#80C41C"/>
<path d="M29.6274 9.24463C29.6274 9.24463 33.5948 19.4621 39.5601 34.7852C42.2424 42.4896 45.6378 51.4238 48.7467 61.0662C50.1404 65.9288 51.6083 70.9276 53.1099 75.9815C53.8588 78.5223 54.5755 81.0621 55.3237 83.6318C55.8582 86.2258 56.3973 88.8212 56.967 91.4172C58.0406 96.5798 59.1096 101.771 60.1802 106.854C61.148 111.934 61.3969 116.957 62.0401 121.796C62.1841 122.915 62.2935 124.063 62.3617 125.183C62.7201 128.87 62.8251 132.557 63.1122 136.028C63.2562 138.185 63.4001 140.345 63.5808 142.446C63.7195 143.947 63.8304 145.423 63.9324 146.872H90.2028C90.1691 146.679 90.1332 146.491 90.0597 146.298C89.7013 145.068 89.3453 143.811 88.9877 142.502C88.5956 141.053 88.202 139.525 87.7709 137.967C87.7004 137.692 87.6315 137.393 87.5566 137.119C87.5566 137.092 87.5566 137.065 87.5566 137.065C87.2709 136.001 87.0205 134.881 86.7379 133.76C85.5204 129.225 84.557 124.553 82.9819 119.472C81.4106 114.472 80.1594 109.227 78.1937 104.092C77.3721 102.043 76.5533 99.9679 75.7316 97.891C74.4781 94.8053 73.2271 91.7186 71.9773 88.6032C70.9405 86.0082 69.9022 83.4415 68.8691 80.8709C67.6509 78.3311 66.4378 75.8454 65.2195 73.3592C62.792 68.3897 60.3968 63.5265 58.0735 58.799C53.1788 49.4561 48.1754 40.9048 44.0994 33.5033C35.4165 18.9431 29.6274 9.24463 29.6274 9.24463Z" fill="#739914"/>
<path d="M84.6284 146.874H105.539C105.539 147.066 105.572 147.284 105.608 147.473C105.642 147.284 105.684 147.092 105.684 146.874C106.214 143.078 106.86 139.199 107.647 135.291C108.429 131.222 109.397 127.094 110.579 123.053C111.253 120.758 111.973 118.491 112.655 116.224C113.329 113.93 114.4 111.662 115.258 109.368C117.046 104.777 118.794 100.27 120.62 95.9806C124.263 87.4035 128.087 79.5078 132.199 73.0618C136.27 66.5607 140.563 61.5059 144.026 58.1988C144.884 57.3812 145.672 56.6423 146.353 56.015C147.103 55.415 147.743 54.9214 148.247 54.5126C149.284 53.6912 149.85 53.2561 149.85 53.2561C149.85 53.2561 149.209 53.6117 148.028 54.3214C147.421 54.6492 146.67 55.0862 145.814 55.6048C145.028 56.1516 144.061 56.8081 143.026 57.5178C138.918 60.4142 133.482 65.0555 128.016 71.2034C122.476 77.2967 116.974 84.8909 111.541 93.1393C108.826 97.2634 106.178 101.581 103.464 105.898C103.143 106.418 102.821 106.963 102.495 107.483C101.462 109.15 100.39 110.814 99.4624 112.565C98.2096 114.912 96.9922 117.262 95.7432 119.612C93.2745 124.529 91.0973 129.5 89.1339 134.389C88.6668 135.592 88.2036 136.795 87.7725 137.97C87.5971 138.461 87.4164 138.954 87.2725 139.418C86.3136 141.931 85.4501 144.416 84.6284 146.874Z" fill="#B1D210"/>
<path d="M62.2578 146.869H86.2718C86.5949 144.438 86.9525 141.952 87.2718 139.412C87.3813 138.647 87.4526 137.881 87.5575 137.115C87.5575 137.089 87.5575 137.062 87.5575 137.062C89.1694 124.496 90.7392 110.782 91.6343 96.9865C92.3143 84.7213 92.5279 72.4278 91.8854 60.927C91.0271 49.453 89.7781 38.7443 87.5965 29.7301C87.0942 27.4629 86.6331 25.3031 86.1705 23.2558C85.5588 21.2057 84.9891 19.2668 84.4515 17.4635C83.9193 15.6602 83.4133 13.969 82.9507 12.4116C82.4499 10.8541 81.8425 9.43368 81.3792 8.14741C79.6632 3.69643 78.5553 0.910728 78.3049 0.281006C78.4466 0.937555 79.0553 3.80618 80.0561 8.36642C80.3012 9.68001 80.6985 11.099 80.9482 12.6833C81.1633 14.2685 81.3786 15.9889 81.6252 17.8171C81.8764 19.6492 82.1298 21.5886 82.4124 23.6363C82.5181 25.6864 82.662 27.8434 82.8052 30.1116C83.4852 39.0994 83.0563 49.6447 82.0555 60.8177C80.913 72.0195 78.7996 83.9013 76.2297 95.7036C76.0535 96.4392 75.9088 97.1499 75.7326 97.8884C72.9085 110.1 69.5477 122.23 66.2588 133.485C65.3637 136.543 64.4754 139.523 63.5818 142.443C63.1507 143.919 62.7211 145.42 62.2578 146.869Z" fill="#80C41C"/>
<path d="M39.2417 126.3L42.4556 146.872H53.2137L39.2417 126.3Z" fill="#81B616"/>
<path d="M38.7764 88.4651C38.7764 88.4651 39.4901 90.0752 40.7788 92.918C42.0263 95.7588 43.7115 99.802 45.3564 104.748C48.8207 114.579 51.9296 127.939 53.3967 141.243C53.6104 143.126 53.7536 145.013 53.8601 146.871H71.51C70.6171 144.247 69.6207 141.598 68.5839 138.976C67.8342 137.146 67.0471 135.286 66.2599 133.486C65.0087 130.671 63.7207 127.883 62.3638 125.181C58.3245 116.955 53.9628 109.417 49.8913 103.436C46.858 98.7913 44.0316 95.0754 41.9947 92.4795C39.9564 89.9396 38.7764 88.4651 38.7764 88.4651Z" fill="#B1D210"/>
<path d="M39.0635 147.162C39.0635 147.261 39.08 147.373 39.098 147.468C39.1137 147.373 39.1392 147.273 39.1392 147.162H39.0635Z" fill="#81B616"/>
<path d="M30.5962 144.93C30.5962 145.684 30.5962 146.439 30.6135 147.166H39.0632C38.9185 146.202 38.7851 145.21 38.6576 144.202C38.0189 139.1 37.6171 133.637 37.5436 128.17C37.5436 127.779 37.5278 127.389 37.5075 127.011C37.4701 125.975 37.4319 124.944 37.4544 123.922C37.4904 122.51 37.5278 121.112 37.5638 119.714C37.7115 116.931 37.602 114.164 38.0038 111.524C38.6216 106.199 39.3188 101.237 40.2491 97.0304C41.1105 92.8092 42.3536 89.3718 43.23 86.95C44.2728 84.5892 44.8755 83.2185 44.8755 83.2185C44.8755 83.2185 44.1093 84.534 42.7561 86.8256C41.5648 89.1596 39.8691 92.5302 38.4425 96.7231C36.9416 100.9 35.5869 105.835 34.272 111.148C33.505 113.804 33.2658 116.598 32.7553 119.421C32.5334 120.831 32.2987 122.272 32.0573 123.698C31.8556 125.139 31.7649 126.579 31.6195 128.017C31.1067 132.309 30.8152 136.612 30.6682 140.776C30.63 142.174 30.6142 143.571 30.5962 144.93Z" fill="#858E13"/>
<path d="M37.3804 147.166H39.0634C39.0634 147.265 39.0799 147.377 39.0979 147.472C39.1137 147.377 39.1391 147.277 39.1391 147.166H43.9303C44.0181 146.691 44.1095 146.215 44.2197 145.741C44.4364 144.733 44.6957 143.728 44.9859 142.72C46.5017 137.298 48.7748 132.1 50.7675 128.116C53.141 123.39 55.0805 120.33 55.0805 120.33C55.0805 120.33 52.5023 123.084 49.1025 127.499C46.2851 131.149 42.9198 135.925 40.1429 141.239C39.6099 142.204 39.1391 143.197 38.6586 144.202C38.6076 144.327 38.5326 144.468 38.4794 144.593C38.0925 145.431 37.7125 146.298 37.3804 147.166Z" fill="#81B616"/>
<path d="M42.5347 147.167H53.3984C54.3669 144.064 55.376 140.876 56.4706 137.73C58.0622 133.384 59.7984 129.095 61.9928 125.236C64.2253 121.433 66.6544 117.941 69.4155 115.313C70.0925 114.64 70.7319 113.998 71.3541 113.384C72.0513 112.824 72.7268 112.292 73.3453 111.805C73.9691 111.301 74.574 110.84 75.122 110.407C75.688 109.989 76.2751 109.679 76.7879 109.359C78.5752 108.254 79.6935 107.568 79.9499 107.416C79.6553 107.526 78.3944 108.073 76.3838 108.924C75.8155 109.192 75.1377 109.428 74.4817 109.778C73.8228 110.141 73.1286 110.547 72.3789 110.968C71.6292 111.386 70.8414 111.848 69.986 112.324C69.2168 112.854 68.4303 113.44 67.5696 114.055C64.1151 116.418 60.7888 119.729 57.5689 123.434C54.4037 127.18 51.6231 131.4 49.0284 135.662C47.6378 138.025 46.2846 140.401 44.9846 142.721C44.1674 144.232 43.3406 145.711 42.5347 147.167Z" fill="#80C41C"/>
<path d="M0.224609 76.7512C0.224609 76.7512 2.25478 81.9778 5.30751 89.8173C6.67793 93.7595 8.41563 98.3295 10.008 103.263C10.7217 105.753 11.4706 108.311 12.2368 110.896C12.6244 112.197 12.9895 113.497 13.3749 114.809C13.6455 116.137 13.9236 117.466 14.2145 118.793C14.7633 121.434 15.309 124.09 15.8593 126.692C16.3519 129.291 16.4831 131.861 16.8107 134.335C16.8842 134.908 16.9374 135.496 16.9763 136.068C17.1548 137.955 17.2125 139.842 17.3601 141.618C17.4351 142.721 17.5026 143.827 17.5985 144.902C17.6683 145.669 17.7252 146.425 17.7785 147.167H31.2189C31.2024 147.067 31.1821 146.972 31.1439 146.874C30.9647 146.243 30.7803 145.6 30.5974 144.931C30.3972 144.19 30.1941 143.408 29.9774 142.61C29.9392 142.469 29.9002 142.316 29.8657 142.176C29.8657 142.161 29.8657 142.148 29.8657 142.148C29.7173 141.604 29.5906 141.03 29.4467 140.457C28.8222 138.136 28.3303 135.746 27.5244 133.147C26.7215 130.589 26.0806 127.905 25.073 125.278C24.6547 124.229 24.2363 123.167 23.812 122.105C23.1725 120.526 22.533 118.946 21.8951 117.354C21.359 116.025 20.8327 114.713 20.3034 113.398C19.6797 112.099 19.0574 110.826 18.4382 109.554C17.1937 107.011 15.9703 104.522 14.7813 102.104C12.2751 97.3237 9.71561 92.9503 7.62923 89.1603C3.18884 81.7139 0.224609 76.7512 0.224609 76.7512Z" fill="#739914"/>
<path d="M28.3652 147.167H39.064C39.064 147.266 39.0805 147.377 39.0985 147.472C39.1143 147.377 39.1397 147.277 39.1397 147.167C39.4111 145.224 39.7372 143.24 40.1435 141.239C40.5409 139.157 41.0379 137.046 41.6407 134.976C41.99 133.803 42.3543 132.646 42.7022 131.485C43.0523 130.312 43.5958 129.151 44.0366 127.977C44.9505 125.627 45.8464 123.321 46.7775 121.126C48.6442 116.738 50.5994 112.698 52.7031 109.401C54.7849 106.074 56.9845 103.486 58.7537 101.795C59.1938 101.377 59.5994 101.001 59.942 100.678C60.3274 100.371 60.658 100.12 60.9151 99.9093C61.4436 99.4912 61.736 99.2664 61.736 99.2664C61.736 99.2664 61.4084 99.4483 60.8049 99.8112C60.4946 99.979 60.1077 100.202 59.6736 100.466C59.2665 100.748 58.7718 101.082 58.247 101.446C56.1434 102.93 53.3582 105.305 50.5612 108.448C47.7303 111.568 44.9123 115.451 42.1377 119.674C40.747 121.783 39.3908 123.992 38.0046 126.2C37.8397 126.467 37.6718 126.744 37.5084 127.012C36.9776 127.867 36.4303 128.716 35.9543 129.613C35.314 130.814 34.6903 132.017 34.0516 133.216C32.7884 135.733 31.6773 138.275 30.6698 140.778C30.4314 141.394 30.1936 142.009 29.977 142.61C29.8848 142.862 29.7919 143.116 29.7162 143.351C29.2259 144.637 28.7873 145.909 28.3652 147.167Z" fill="#B1D210"/>
<path d="M16.9219 147.163H29.2032C29.3734 145.918 29.5549 144.647 29.7168 143.346C29.7753 142.955 29.812 142.562 29.8652 142.172C29.8652 142.157 29.8652 142.144 29.8652 142.144C30.6891 135.714 31.4936 128.698 31.9501 121.639C32.2995 115.365 32.4074 109.074 32.0791 103.188C31.6405 97.32 31.0003 91.8398 29.8847 87.2279C29.6276 86.0674 29.3877 84.9621 29.1553 83.9144C28.8404 82.8657 28.548 81.8735 28.2743 80.9526C28.003 80.0302 27.7436 79.1644 27.5074 78.3688C27.2488 77.5703 26.9415 76.8416 26.7053 76.186C25.8252 73.9071 25.2547 72.4828 25.1287 72.1599C25.2014 72.497 25.5155 73.9632 26.0276 76.2982C26.1513 76.9689 26.3544 77.6957 26.4811 78.5074C26.5921 79.3171 26.7045 80.1975 26.8297 81.1341C26.9579 82.0716 27.0884 83.0632 27.2308 84.1095C27.2848 85.1592 27.3598 86.2626 27.4325 87.423C27.7826 92.0217 27.5592 97.4166 27.0464 103.134C26.4639 108.866 25.3814 114.943 24.0664 120.983C23.9764 121.359 23.9007 121.723 23.8107 122.101C22.3676 128.348 20.6478 134.554 18.9648 140.314C18.5059 141.877 18.0547 143.403 17.5966 144.897C17.3762 145.651 17.1543 146.42 16.9219 147.163Z" fill="#80C41C"/>
<path d="M5.14404 136.64L6.78957 147.166H12.29L5.14404 136.64Z" fill="#81B616"/>
<path d="M4.90283 117.284C4.90283 117.284 5.27312 118.106 5.9321 119.56C6.56633 121.014 7.42774 123.084 8.27413 125.613C10.0441 130.645 11.6343 137.479 12.3847 144.288C12.4949 145.251 12.5699 146.216 12.6231 147.166H21.656C21.1972 145.824 20.6882 144.469 20.1559 143.127C19.7691 142.191 19.3665 141.239 18.9654 140.318C18.3259 138.877 17.667 137.453 16.9751 136.068C14.9052 131.86 12.6756 128.003 10.5929 124.944C9.03808 122.567 7.59197 120.664 6.54991 119.338C5.50934 118.036 4.90283 117.284 4.90283 117.284Z" fill="#B1D210"/>
</svg>
