<svg width="62" height="138" viewBox="0 0 62 138" fill="none" xmlns="http://www.w3.org/2000/svg">
<path d="M61.2219 0.244629C61.2219 0.244629 57.2531 10.4621 51.2886 25.7852C48.6069 33.4896 45.2116 42.4238 42.1034 52.0662C40.7098 56.9288 39.2411 61.9276 37.7402 66.9815C36.9913 69.5223 36.2731 72.0621 35.5264 74.6318C34.9896 77.2258 34.4521 79.8212 33.8831 82.4172C32.8081 87.5798 31.7382 92.7712 30.6692 97.8539C29.7013 102.934 29.451 107.957 28.8085 112.796C28.6653 113.915 28.5566 115.063 28.4884 116.183C28.1308 119.87 28.0251 123.557 27.7364 127.028C27.5932 129.185 27.4493 131.345 27.2701 133.446C27.1299 134.947 27.0197 136.423 26.9178 137.872H0.646484C0.679471 137.679 0.716967 137.491 0.790437 137.298C1.14654 136.068 1.50338 134.811 1.86248 133.502C2.25307 132.053 2.64814 130.525 3.07846 128.967C3.14818 128.692 3.21792 128.393 3.29139 128.119C3.29139 128.092 3.29139 128.065 3.29139 128.065C3.57852 127.001 3.82816 125.881 4.11079 124.76C5.32903 120.225 6.29162 115.553 7.86821 110.472C9.43881 105.472 10.6885 100.227 12.6565 95.0921C13.4766 93.0429 14.2975 90.9679 15.1162 88.891C16.3719 85.8053 17.6224 82.7186 18.8729 79.6032C19.9097 77.0082 20.948 74.4415 21.9811 71.8709C23.1986 69.3311 24.4116 66.8454 25.6298 64.3592C28.058 59.3897 30.4525 54.5265 32.7758 49.799C37.6713 40.4561 42.6739 31.9048 46.75 24.5033C55.4336 9.94313 61.2219 0.244629 61.2219 0.244629Z" fill="#739914"/>
</svg>
