<svg width="31" height="160" viewBox="0 0 31 160" fill="none" xmlns="http://www.w3.org/2000/svg">
<path d="M30.3315 0.800316C30.3315 0.800316 29.0188 3.14798 26.727 7.26141C25.6737 9.33837 24.5049 11.8851 23.103 14.7922C22.4673 16.2595 21.8608 17.833 21.1831 19.4842C20.5113 21.1392 19.7819 22.8727 19.1994 24.7107C16.5013 32.0142 14.2754 40.6674 12.4095 49.98C12.1756 51.1463 11.9417 52.3199 11.7085 53.5023C11.5121 54.6885 11.3112 55.8812 11.1095 57.0826C10.9093 58.2859 10.7047 59.4936 10.503 60.7077C10.2721 61.9223 10.2331 63.1525 10.0884 64.3783C9.84704 66.841 9.60938 69.3189 9.36273 71.81C9.24428 73.0544 9.12058 74.3021 9.00138 75.5513C8.87769 76.7995 8.86194 78.0531 8.78848 79.3057C8.57931 84.3225 8.25919 89.3271 8.14074 94.2707C7.96381 99.2105 7.89111 104.073 7.63997 108.779C7.38957 113.491 7.26737 118.024 6.93526 122.365C6.51619 126.704 5.6278 130.76 4.85637 134.49C4.0647 138.222 3.35098 141.632 2.90492 144.662C2.45286 147.688 2.25718 150.331 2.26093 152.505C2.28642 153.589 2.32767 154.557 2.39289 155.397C2.49935 156.235 2.59005 156.946 2.65902 157.524C2.90491 158.673 3.03688 159.28 3.03688 159.28C3.09761 159.576 2.71678 159.865 2.183 159.927C1.64548 159.988 1.16265 159.789 1.09668 159.481C1.09668 159.481 0.9565 158.849 0.703856 157.665C0.629637 157.07 0.538925 156.335 0.432469 155.474C0.363498 154.61 0.318491 153.616 0.293001 152.508C0.290002 150.288 0.494695 147.599 0.949755 144.537C1.40032 141.473 2.11703 138.045 2.90945 134.315C3.68012 130.589 4.56174 126.558 4.97182 122.284C5.29943 118.005 5.42763 113.44 5.67652 108.748C5.92692 104.048 6.00113 99.1827 6.17281 94.2439C6.29276 89.3032 6.61141 84.2772 6.82357 79.2565C6.89854 78.0029 6.90974 76.7459 7.03419 75.4923C7.15639 74.2387 7.27934 72.9846 7.40304 71.7349C7.64294 69.2331 7.88512 66.7449 8.12801 64.2714C8.2712 63.0398 8.31166 61.8038 8.54107 60.5843C8.74798 59.3658 8.95192 58.1513 9.15284 56.946C9.35376 55.7387 9.55539 54.5422 9.75555 53.3515C9.99021 52.1653 10.2271 50.9848 10.4603 49.8171C12.3345 40.4693 14.5685 31.7693 17.2839 24.4229C17.8702 22.5737 18.6034 20.8265 19.2759 19.1622C19.9603 17.4999 20.5728 15.9156 21.2108 14.4405C22.6217 11.508 23.804 8.94328 24.8655 6.85022C27.1768 2.70411 28.4992 0.335946 28.4992 0.335946C28.6589 0.0491324 29.1987 -0.0776885 29.704 0.0491337C30.2085 0.181321 30.4874 0.514478 30.3315 0.800316Z" fill="#858E13"/>
</svg>
