<svg width="172" height="171" viewBox="0 0 172 171" fill="none" xmlns="http://www.w3.org/2000/svg">
<path d="M151.27 0.410645C151.27 0.410645 109.593 63.3111 113.066 162.374H100.458C100.458 162.374 101.322 52.3893 151.27 0.410645Z" fill="#739914"/>
<path d="M39.8348 164.819C39.8348 164.819 36.9403 120.94 0.46875 108.136C0.46875 108.136 50.8357 111.336 61.8321 164.819H39.8348Z" fill="#81B616"/>
<path d="M39.2529 91.9368C39.2529 91.9368 56.6209 126.211 47.9366 164.818H66.4613C66.4613 164.818 75.1457 111.9 39.2529 91.9368Z" fill="#B1D210"/>
<path d="M58.1792 3.23755C58.1792 3.23755 75.545 79.2261 66.8598 164.821H85.3831C85.3831 164.821 94.0682 47.4956 58.1792 3.23755Z" fill="#B1D210"/>
<path d="M105.667 84.5503C105.667 84.5503 93.7167 122.301 99.691 164.819H86.9471C86.9471 164.819 80.969 106.54 105.667 84.5503Z" fill="#858E13"/>
<path d="M22.3525 39.0168C22.3525 39.0168 71.5537 107.192 63.4511 164.818H77.3428C77.3428 164.818 73.8673 98.1507 22.3525 39.0168Z" fill="#81B616"/>
<path d="M95.9839 164.82C95.9839 131.487 88.4601 29.7884 3.94189 73.1055C3.94189 73.1055 40.6968 53.8451 58.3601 84.4054C71.0951 106.439 71.0951 108.137 71.6686 164.82H95.9839Z" fill="#739914"/>
<path d="M106.059 55.5898C106.059 55.5898 129.011 94.856 113.816 162.373H128.146C128.146 162.373 142.038 89.4894 106.059 55.5898Z" fill="#B1D210"/>
<path d="M171.1 89.4878C171.1 89.4878 131.154 82.1463 132.894 164.069H115.525C115.525 164.069 124.209 76.7797 171.1 89.4878Z" fill="#80C41C"/>
<path d="M104.799 164.073C104.799 164.073 98.3336 134.848 118.421 123.908C118.421 123.908 87.856 130.043 91.4657 164.073H104.799Z" fill="#81B616"/>
<path d="M102.046 170.471H84.758C84.758 170.471 71.2831 69.9045 104.798 24.1421C104.798 24.1421 86.6644 79.5073 102.046 170.471Z" fill="#80C41C"/>
<path d="M111.981 166.984C111.981 166.984 114.734 137.604 113.866 131.766C113.866 131.766 120.088 146.831 120.088 166.984H111.981Z" fill="#81B616"/>
<path d="M134.772 164.068C134.772 164.068 133.329 132.051 145.628 115.666C145.628 115.666 140.856 135.63 144.76 145.706C144.76 145.706 144.038 140.526 148.089 136.476C148.089 136.476 146.058 154.273 151.269 164.068H134.772Z" fill="#81B616"/>
</svg>
