<svg width="171" height="171" viewBox="0 0 171 171" fill="none" xmlns="http://www.w3.org/2000/svg">
<path d="M151.171 0.410645C151.171 0.410645 109.494 63.3111 112.966 162.374H100.359C100.359 162.374 101.224 52.3893 151.171 0.410645Z" fill="#739914"/>
<path d="M39.7367 164.819C39.7367 164.819 36.8429 120.94 0.369141 108.136C0.369141 108.136 50.7368 111.336 61.734 164.819H39.7367Z" fill="#81B616"/>
<path d="M39.1533 91.9368C39.1533 91.9368 56.5221 126.211 47.8377 164.818H66.3631C66.3631 164.818 75.0461 111.9 39.1533 91.9368Z" fill="#B1D210"/>
<path d="M58.0801 3.23755C58.0801 3.23755 75.4457 79.2261 66.7591 164.821H85.2839C85.2839 164.821 93.9691 47.4956 58.0801 3.23755Z" fill="#B1D210"/>
<path d="M105.567 84.5503C105.567 84.5503 93.6171 122.301 99.5906 164.819H86.8474C86.8474 164.819 80.8696 106.54 105.567 84.5503Z" fill="#858E13"/>
<path d="M22.2529 39.0168C22.2529 39.0168 71.4542 107.192 63.3508 164.818H77.244C77.244 164.818 73.7677 98.1507 22.2529 39.0168Z" fill="#81B616"/>
<path d="M95.8842 164.82C95.8842 131.487 88.361 29.7884 3.84277 73.1055C3.84277 73.1055 40.5985 53.8451 58.2604 84.4054C70.9961 106.439 70.996 108.137 71.5695 164.82H95.8842Z" fill="#739914"/>
<path d="M105.96 55.5898C105.96 55.5898 128.912 94.856 113.716 162.373H128.047C128.047 162.373 141.938 89.4894 105.96 55.5898Z" fill="#B1D210"/>
<path d="M171 89.4878C171 89.4878 131.054 82.1463 132.795 164.069H115.425C115.425 164.069 124.109 76.7797 171 89.4878Z" fill="#80C41C"/>
<path d="M104.7 164.073C104.7 164.073 98.2333 134.848 118.322 123.908C118.322 123.908 87.7572 130.043 91.3654 164.073H104.7Z" fill="#81B616"/>
<path d="M101.948 170.471H84.6588C84.6588 170.471 71.1854 69.9045 104.699 24.1421C104.699 24.1421 86.566 79.5073 101.948 170.471Z" fill="#80C41C"/>
<path d="M111.884 166.984C111.884 166.984 114.636 137.604 113.767 131.766C113.767 131.766 119.99 146.831 119.99 166.984H111.884Z" fill="#81B616"/>
<path d="M134.672 164.068C134.672 164.068 133.228 132.051 145.529 115.666C145.529 115.666 140.757 135.63 144.66 145.706C144.66 145.706 143.938 140.526 147.987 136.476C147.987 136.476 145.96 154.273 151.171 164.068H134.672Z" fill="#81B616"/>
<path d="M151.05 163.927C151.05 163.927 149.655 116.517 161.546 92.2544C161.546 92.2544 156.933 121.816 160.706 136.737C160.706 136.737 160.008 129.067 163.923 123.07C163.923 123.07 161.963 149.424 167 163.927H151.05Z" fill="#81B616"/>
</svg>
