<svg width="49" height="123" viewBox="0 0 49 123" fill="none" xmlns="http://www.w3.org/2000/svg">
<path d="M0.138105 1.00261C0.138105 1.00261 0.663668 1.36259 1.65176 2.04012C2.14355 2.38107 2.75003 2.79763 3.46823 3.28834C4.17743 3.78294 4.92632 4.3917 5.80496 5.04971C9.28275 7.69347 13.9774 11.6557 18.6052 16.8295C23.23 21.998 27.908 28.3236 31.6684 35.408C35.5151 42.4721 38.5468 50.2502 40.8004 58.1175C45.282 73.8791 46.39 89.9582 46.4073 101.973C46.423 107.987 46.1854 112.997 45.9747 116.503C45.857 118.256 45.7625 119.634 45.7011 120.571C45.6276 121.511 45.5916 122.013 45.5916 122.013C45.5751 122.255 45.9972 122.466 46.5384 122.485C47.0842 122.505 47.5348 122.322 47.5543 122.079C47.5543 122.079 47.5926 121.578 47.6638 120.636C47.7268 119.694 47.8212 118.311 47.9389 116.555C48.1488 113.036 48.3902 108.01 48.3745 101.973C48.3587 89.9104 47.2492 73.7547 42.7316 57.8839C40.4646 49.9604 37.4095 42.1209 33.5239 34.9822C29.7282 27.8265 24.9903 21.4244 20.304 16.1828C15.6087 10.9352 10.8414 6.90912 7.30213 4.22244C6.40851 3.54979 5.64681 2.93422 4.92486 2.43132C4.19767 1.93037 3.58068 1.50648 3.07389 1.15967C2.07456 0.470931 1.53626 0.104121 1.53626 0.104121C1.27762 -0.0758696 0.758837 -0.0158692 0.372749 0.232898C-0.00884201 0.482152 -0.116038 0.827013 0.138105 1.00261Z" fill="#858E13"/>
<path d="M1.74266 1.17424V1.17034C2.45036 0.727435 3.49243 0.514759 4.70992 0.656703C5.91992 0.799622 7.36007 1.27228 8.63004 2.2771C9.09784 2.65172 11.5493 4.43308 13.7271 6.352C14.2796 6.82759 14.8374 7.29877 15.3667 7.75046C15.863 8.21336 16.3338 8.6548 16.7529 9.04697C17.5895 9.82937 18.2162 10.4152 18.4254 10.6123C20.6152 12.7921 19.9563 14.5676 18.2867 15.2222H18.2815L18.2769 15.2252C16.5782 15.8846 13.9356 15.4939 11.8942 13.457C11.6963 13.2721 11.1055 12.7204 10.3183 11.9839C9.92546 11.6151 9.48164 11.2015 9.01458 10.7635C8.51979 10.3425 7.9935 9.89765 7.47247 9.45329C5.43032 7.64997 3.13404 5.98568 2.70072 5.63692C1.51547 4.69453 0.875289 3.84579 0.769583 3.06486C0.659379 2.29124 1.03199 1.61861 1.73744 1.1757L1.74266 1.17424Z" fill="#4D4F11"/>
</svg>
