<svg width="31" height="147" viewBox="0 0 31 147" fill="none" xmlns="http://www.w3.org/2000/svg">
<path d="M0.89209 146.644H24.906C25.2299 144.214 25.586 141.727 25.9069 139.188C26.0178 138.422 26.0861 137.657 26.1933 136.892C26.1933 136.865 26.1933 136.837 26.1933 136.837C27.8051 124.273 29.3749 110.556 30.2686 96.7626C30.9493 84.4955 31.1629 72.2039 30.5189 60.7021C29.6621 49.2281 28.4116 38.5194 26.2285 29.5053C25.73 27.2391 25.2667 25.0802 24.8019 23.031C24.1924 20.9828 23.6226 19.0419 23.0858 17.2386C22.5528 15.4353 22.0467 13.7442 21.5849 12.1877C21.0841 10.6292 20.4777 9.20882 20.0144 7.92353C18.2968 3.47158 17.1895 0.685874 16.9384 0.0561523C17.0808 0.712702 17.6873 3.57938 18.6889 8.14157C18.9348 9.45418 19.3322 10.8741 19.5826 12.4584C19.7962 14.0427 20.0136 15.7641 20.2603 17.5942C20.5077 19.4244 20.7633 21.3643 21.0474 23.4134C21.1531 25.4606 21.2963 27.6186 21.4395 29.8887C22.1202 38.8755 21.6907 49.4208 20.6898 60.5938C19.5466 71.7957 17.4339 83.6775 14.8625 95.4797C14.6863 96.2163 14.5424 96.925 14.3677 97.6645C11.5429 109.876 8.18053 122.006 4.89091 133.261C3.99653 136.318 3.10668 139.298 2.21306 142.219C1.78573 143.693 1.35465 145.196 0.89209 146.644Z" fill="#80C41C"/>
</svg>
