<svg width="31" height="147" viewBox="0 0 31 147" fill="none" xmlns="http://www.w3.org/2000/svg">
<path d="M30.5932 146.869H6.57924C6.25537 144.438 5.89853 141.952 5.57841 139.412C5.46746 138.647 5.39924 137.881 5.29128 137.115C5.29128 137.089 5.29128 137.062 5.29128 137.062C3.68021 124.496 2.10961 110.782 1.21598 96.9865C0.536017 84.7213 0.32159 72.4278 0.964821 60.927C1.82171 49.453 3.0737 38.7443 5.25454 29.7301C5.75458 27.4629 6.21789 25.3031 6.6797 23.2558C7.29144 21.2057 7.86195 19.2668 8.39873 17.4635C8.93175 15.6602 9.43629 13.969 9.90034 12.4116C10.3996 10.8541 11.0061 9.43368 11.4702 8.14741C13.1877 3.69643 14.295 0.910728 14.5454 0.281006C14.4022 0.937555 13.7935 3.80618 12.7934 8.36642C12.5475 9.68001 12.1509 11.099 11.9013 12.6833C11.6861 14.2685 11.4702 15.9889 11.2243 17.8171C10.9747 19.6492 10.719 21.5886 10.4371 23.6363C10.3307 25.6864 10.1875 27.8434 10.0435 30.1116C9.36357 39.0994 9.79315 49.6447 10.794 60.8177C11.9373 72.0195 14.0499 83.9013 16.6198 95.7036C16.7967 96.4392 16.9406 97.1499 17.1153 97.8884C19.9416 110.1 23.3025 122.23 26.5914 133.485C27.4842 136.543 28.3749 139.523 29.2692 142.443C29.7003 143.919 30.1307 145.42 30.5932 146.869Z" fill="#80C41C"/>
</svg>
