<svg width="122" height="148" viewBox="0 0 122 148" fill="none" xmlns="http://www.w3.org/2000/svg">
<path d="M45.3117 146.872C45.3117 147.064 45.2794 147.282 45.242 147.471C45.209 147.281 45.167 147.09 45.167 146.872H45.3117Z" fill="#81B616"/>
<path d="M61.862 142.5C61.862 143.976 61.862 145.451 61.823 146.87H45.3112C45.5976 144.987 45.8487 143.046 46.1021 141.078C47.3488 131.108 48.1368 120.427 48.2799 109.745C48.2799 108.98 48.3129 108.217 48.3549 107.478C48.4239 105.456 48.4966 103.436 48.4569 101.441C48.3856 98.6813 48.3137 95.9497 48.2425 93.2187C47.9568 87.7824 48.169 82.3715 47.3863 77.2098C46.1741 66.8026 44.8156 57.1011 42.9909 48.8816C41.3116 40.6323 38.8789 33.9122 37.1658 29.1846C35.1274 24.5678 33.9512 21.8909 33.9512 21.8909C33.9512 21.8909 35.452 24.4585 38.0962 28.9388C40.4165 33.5015 43.7421 40.0845 46.5294 48.2802C49.4577 56.4495 52.1071 66.0899 54.677 76.4732C56.1779 81.6627 56.6412 87.1244 57.642 92.645C58.0716 95.4029 58.5364 98.2164 59.002 101.002C59.3955 103.817 59.5725 106.633 59.8589 109.444C60.8589 117.831 61.4294 126.245 61.7166 134.385C61.7908 137.117 61.823 139.848 61.862 142.5Z" fill="#858E13"/>
<path d="M34.6012 146.875H31.3115C31.3115 147.067 31.2793 147.285 31.2418 147.474C31.2088 147.284 31.1668 147.093 31.1668 146.875H21.8025C21.6263 145.945 21.4502 145.017 21.238 144.09C20.8062 142.121 20.3024 140.155 19.7326 138.187C16.7676 127.588 12.3355 117.424 8.44008 109.64C3.79427 100.407 0.00537109 94.4226 0.00537109 94.4226C0.00537109 94.4226 5.04476 99.8062 11.69 108.437C17.1934 115.568 23.7749 124.911 29.2027 135.291C30.2402 137.177 31.1661 139.117 32.1009 141.083C32.2044 141.327 32.3476 141.602 32.4541 141.847C33.206 143.486 33.9572 145.18 34.6012 146.875Z" fill="#81B616"/>
<path d="M121.222 9.24463C121.222 9.24463 117.253 19.4621 111.289 34.7852C108.607 42.4896 105.212 51.4238 102.103 61.0662C100.71 65.9288 99.2411 70.9276 97.7402 75.9815C96.9913 78.5223 96.2731 81.0621 95.5264 83.6318C94.9896 86.2258 94.4521 88.8212 93.8831 91.4172C92.8081 96.5798 91.7382 101.771 90.6692 106.854C89.7013 111.934 89.451 116.957 88.8085 121.796C88.6653 122.915 88.5566 124.063 88.4884 125.183C88.1308 128.87 88.0251 132.557 87.7364 136.028C87.5932 138.185 87.4493 140.345 87.2701 142.446C87.1299 143.947 87.0197 145.423 86.9178 146.872H60.6465C60.6795 146.679 60.717 146.491 60.7904 146.298C61.1465 145.068 61.5034 143.811 61.8625 142.502C62.2531 141.053 62.6481 139.525 63.0785 137.967C63.1482 137.692 63.2179 137.393 63.2914 137.119C63.2914 137.092 63.2914 137.065 63.2914 137.065C63.5785 136.001 63.8282 134.881 64.1108 133.76C65.329 129.225 66.2916 124.553 67.8682 119.472C69.4388 114.472 70.6885 109.227 72.6565 104.092C73.4766 102.043 74.2975 99.9679 75.1162 97.891C76.3719 94.8053 77.6224 91.7186 78.8729 88.6032C79.9097 86.0082 80.948 83.4415 81.9811 80.8709C83.1986 78.3311 84.4116 75.8454 85.6298 73.3592C88.058 68.3897 90.4525 63.5265 92.7758 58.799C97.6713 49.4561 102.674 40.9048 106.75 33.5033C115.434 18.9431 121.222 9.24463 121.222 9.24463Z" fill="#739914"/>
<path d="M65.2227 146.874H44.3117C44.3117 147.066 44.2795 147.284 44.242 147.473C44.209 147.284 44.167 147.092 44.167 146.874C43.6355 143.078 42.9908 139.199 42.2036 135.291C41.4202 131.222 40.4531 127.094 39.2716 123.053C38.5961 120.758 37.8779 118.491 37.1965 116.224C36.5217 113.93 35.4512 111.662 34.5928 109.368C32.8048 104.777 31.055 100.27 29.2303 95.9806C25.5861 87.4035 21.7634 79.5078 17.6521 73.0618C13.5798 66.5607 9.28637 61.5059 5.82431 58.1988C4.96592 57.3812 4.17875 56.6423 3.49728 56.015C2.7476 55.415 2.10736 54.9214 1.60357 54.5126C0.566757 53.6912 0 53.2561 0 53.2561C0 53.2561 0.640978 53.6117 1.82023 54.3214C2.42823 54.6492 3.17792 55.0862 4.03556 55.6048C4.82123 56.1516 5.78983 56.8081 6.8229 57.5178C10.9319 60.4142 16.3687 65.0555 21.8339 71.2034C27.3733 77.2967 32.8768 84.8909 38.3082 93.1393C41.0236 97.2634 43.6723 101.581 46.3854 105.898C46.7062 106.418 47.0293 106.963 47.3547 107.483C48.3863 109.15 49.4606 110.814 50.3887 112.565C51.6392 114.912 52.8567 117.262 54.1056 119.612C56.5744 124.529 58.7522 129.5 60.7149 134.389C61.1834 135.592 61.6467 136.795 62.0771 137.97C62.2532 138.461 62.4332 138.954 62.5771 139.418C63.5367 141.931 64.3981 144.416 65.2227 146.874Z" fill="#B1D210"/>
<path d="M88.5932 146.869H64.5792C64.2554 144.438 63.8985 141.952 63.5784 139.412C63.4675 138.647 63.3992 137.881 63.2913 137.115C63.2913 137.089 63.2913 137.062 63.2913 137.062C61.6802 124.496 60.1096 110.782 59.216 96.9865C58.536 84.7213 58.3216 72.4278 58.9648 60.927C59.8217 49.453 61.0737 38.7443 63.2545 29.7301C63.7546 27.4629 64.2179 25.3031 64.6797 23.2558C65.2914 21.2057 65.862 19.2668 66.3987 17.4635C66.9318 15.6602 67.4363 13.969 67.9003 12.4116C68.3996 10.8541 69.0061 9.43368 69.4702 8.14741C71.1877 3.69643 72.295 0.910728 72.5454 0.281006C72.4022 0.937555 71.7935 3.80618 70.7934 8.36642C70.5475 9.68001 70.1509 11.099 69.9013 12.6833C69.6861 14.2685 69.4702 15.9889 69.2243 17.8171C68.9747 19.6492 68.719 21.5886 68.4371 23.6363C68.3307 25.6864 68.1875 27.8434 68.0435 30.1116C67.3636 39.0994 67.7931 49.6447 68.794 60.8177C69.9373 72.0195 72.0499 83.9013 74.6198 95.7036C74.7967 96.4392 74.9406 97.1499 75.1153 97.8884C77.9416 110.1 81.3025 122.23 84.5914 133.485C85.4842 136.543 86.3749 139.523 87.2692 142.443C87.7003 143.919 88.1307 145.42 88.5932 146.869Z" fill="#80C41C"/>
<path d="M111.608 126.3L108.394 146.872H97.6348L111.608 126.3Z" fill="#81B616"/>
<path d="M112.075 88.4651C112.075 88.4651 111.362 90.0752 110.071 92.918C108.824 95.7588 107.139 99.802 105.495 104.748C102.031 114.579 98.9217 127.939 97.4538 141.243C97.2401 143.126 97.0977 145.013 96.9912 146.871H79.3398C80.2327 144.247 81.2298 141.598 82.2666 138.976C83.0163 137.146 83.8035 135.286 84.5914 133.486C85.8434 130.671 87.1298 127.883 88.4875 125.181C92.5261 116.955 96.8878 109.417 100.959 103.436C103.993 98.7913 106.82 95.0754 108.857 92.4795C110.895 89.9396 112.075 88.4651 112.075 88.4651Z" fill="#B1D210"/>
</svg>
