<svg width="32" height="160" viewBox="0 0 32 160" fill="none" xmlns="http://www.w3.org/2000/svg">
<path d="M1.51902 0.800316C1.51902 0.800316 2.83096 3.14798 5.1235 7.26141C6.17681 9.33837 7.34556 11.8851 8.74747 14.7922C9.38396 16.2595 9.98975 17.833 10.6667 19.4842C11.3392 21.1392 12.0678 22.8727 12.6518 24.7107C15.3492 32.0142 17.5743 40.6674 19.4418 49.98C19.6749 51.1463 19.9081 52.3199 20.1428 53.5023C20.3407 54.6885 20.54 55.8812 20.7425 57.0826C20.9426 58.2859 21.1473 59.4936 21.3498 60.7077C21.5792 61.9223 21.6181 63.1525 21.762 64.3783C22.0034 66.841 22.2426 69.3189 22.4893 71.81C22.6085 73.0544 22.7314 74.3021 22.8491 75.5513C22.9736 76.7995 22.9893 78.0531 23.0635 79.3057C23.2712 84.3225 23.592 89.3271 23.7097 94.2707C23.8867 99.2105 23.9609 104.073 24.2098 108.779C24.4609 113.491 24.5831 118.024 24.916 122.365C25.3351 126.704 26.2235 130.76 26.9949 134.49C27.7858 138.222 28.4987 141.632 28.9463 144.662C29.3976 147.688 29.594 150.331 29.5895 152.505C29.5655 153.589 29.5236 154.557 29.4591 155.397C29.3519 156.235 29.2604 156.946 29.1922 157.524C28.9463 158.673 28.8144 159.28 28.8144 159.28C28.7537 159.576 29.1337 159.865 29.6682 159.927C30.2058 159.988 30.6878 159.789 30.7545 159.481C30.7545 159.481 30.894 158.849 31.1474 157.665C31.2224 157.07 31.3115 156.335 31.418 155.474C31.487 154.61 31.532 153.616 31.5582 152.508C31.5597 150.288 31.3565 147.599 30.9015 144.537C30.4502 141.473 29.7335 138.045 28.9418 134.315C28.1711 130.589 27.2887 126.558 26.8802 122.284C26.5518 118.005 26.4236 113.44 26.1747 108.748C25.9235 104.048 25.8501 99.1827 25.6792 94.2439C25.5585 89.3032 25.2383 84.2772 25.0262 79.2565C24.9512 78.0029 24.9407 76.7459 24.8178 75.4923C24.6948 74.2387 24.5711 72.9846 24.4474 71.7349C24.2075 69.2331 23.9653 66.7449 23.7224 64.2714C23.5785 63.0398 23.5388 61.8038 23.3094 60.5843C23.1033 59.3658 22.8993 58.1513 22.6984 56.946C22.4967 55.7387 22.2959 54.5422 22.0957 53.3515C21.861 52.1653 21.6234 50.9848 21.3895 49.8171C19.5168 40.4693 17.282 31.7693 14.5673 24.4229C13.9803 22.5737 13.2479 20.8265 12.5754 19.1622C11.8902 17.4999 11.2777 15.9156 10.639 14.4405C9.22808 11.508 8.04729 8.94328 6.98573 6.85022C4.67444 2.70411 3.35279 0.335946 3.35279 0.335946C3.19235 0.0491324 2.65179 -0.0776885 2.148 0.0491337C1.64196 0.181321 1.36383 0.514478 1.51902 0.800316Z" fill="#858E13"/>
<path d="M2.99481 1.57521H2.99783C4.83232 1.11622 7.50497 2.16396 9.18577 5.18038C9.93246 6.26568 14.6562 16.3544 14.9508 17.5207C16.1968 20.6122 14.9343 22.4497 12.9911 22.7492H12.9866H12.9822C11.1004 23.034 8.56273 21.8346 7.35648 18.8382C7.06261 17.6968 2.47828 7.90023 1.76083 6.85248C0.140007 3.94972 1.15658 2.0386 2.99106 1.57814L2.99481 1.57521Z" fill="#4D4F11"/>
</svg>
