<svg width="31" height="147" viewBox="0 0 31 147" fill="none" xmlns="http://www.w3.org/2000/svg">
<path d="M30.956 146.644H6.9412C6.61884 144.214 6.26123 141.727 5.94187 139.188C5.83016 138.422 5.76276 137.657 5.65405 136.892C5.65405 136.865 5.65405 136.837 5.65405 136.837C4.04373 124.273 2.47234 110.556 1.57946 96.7626C0.898746 84.4955 0.685114 72.2039 1.32835 60.7021C2.18449 49.2281 3.43723 38.5194 5.61882 29.5053C6.11736 27.2391 6.58065 25.0802 7.04471 23.031C7.65495 20.9828 8.22473 19.0419 8.76225 17.2386C9.29453 15.4353 9.80053 13.7442 10.2631 12.1877C10.7639 10.6292 11.3704 9.20882 11.8337 7.92353C13.5504 3.47158 14.6578 0.685874 14.9082 0.0561523C14.7665 0.712702 14.1599 3.57938 13.1576 8.14157C12.914 9.45418 12.5151 10.8741 12.264 12.4584C12.0518 14.0427 11.8344 15.7641 11.587 17.5942C11.3389 19.4244 11.084 21.3643 10.8006 23.4134C10.6934 25.4606 10.5494 27.6186 10.4085 29.8887C9.72779 38.8755 10.1573 49.4208 11.1589 60.5938C12.3007 71.7957 14.4141 83.6775 16.9847 95.4797C17.1617 96.2163 17.3057 96.925 17.4811 97.6645C20.3052 109.876 23.6675 122.006 26.9556 133.261C27.8507 136.318 28.7406 139.298 29.6342 142.219C30.0631 143.693 30.4942 145.196 30.956 146.644Z" fill="#80C41C"/>
</svg>
