<svg width="172" height="171" viewBox="0 0 172 171" fill="none" xmlns="http://www.w3.org/2000/svg">
<path d="M20.5815 0.410645C20.5815 0.410645 62.2588 63.3111 58.7863 162.374H71.3938C71.3938 162.374 70.5287 52.3883 20.5815 0.410645Z" fill="#739914"/>
<path d="M132.015 164.82C132.015 164.82 134.909 120.941 171.381 108.138C171.381 108.138 121.014 111.338 110.018 164.82H132.015Z" fill="#81B616"/>
<path d="M132.598 91.9382C132.598 91.9382 115.229 126.212 123.912 164.818H105.389C105.389 164.818 96.7038 111.901 132.598 91.9382Z" fill="#B1D210"/>
<path d="M113.67 3.23755C113.67 3.23755 96.3051 79.227 104.992 164.821H86.467C86.467 164.821 77.7833 47.4956 113.67 3.23755Z" fill="#B1D210"/>
<path d="M66.1836 84.5503C66.1836 84.5503 78.1343 122.302 72.16 164.819H84.9047C84.9047 164.819 90.882 106.541 66.1836 84.5503Z" fill="#858E13"/>
<path d="M149.499 39.0188C149.499 39.0188 100.296 107.194 108.399 164.819H94.5083C94.5083 164.819 97.9831 98.1526 149.499 39.0188Z" fill="#81B616"/>
<path d="M75.8657 164.821C75.8657 131.489 83.3888 29.7899 167.907 73.1061C167.907 73.1061 131.153 53.8457 113.491 84.4069C100.756 106.441 100.756 108.138 100.182 164.821H75.8657Z" fill="#739914"/>
<path d="M65.7914 55.5913C65.7914 55.5913 42.8383 94.8574 58.0337 162.375H43.7049C43.7049 162.375 29.8139 89.4899 65.7914 55.5913Z" fill="#B1D210"/>
<path d="M0.751465 89.4881C0.751465 89.4881 40.6948 82.1466 38.957 164.069H56.3265C56.3265 164.069 47.6406 76.781 0.751465 89.4881Z" fill="#80C41C"/>
<path d="M67.051 164.073C67.051 164.073 73.5171 134.849 53.4292 123.908C53.4292 123.908 83.994 130.043 80.385 164.073H67.051Z" fill="#81B616"/>
<path d="M69.8034 170.471H87.0919C87.0919 170.471 100.567 69.9049 67.0513 24.1436C67.0513 24.1436 85.1855 79.5088 69.8034 170.471Z" fill="#80C41C"/>
<path d="M59.8686 166.986C59.8686 166.986 57.1164 137.606 57.9846 131.767C57.9846 131.767 51.7622 146.833 51.7622 166.986H59.8686Z" fill="#81B616"/>
<path d="M37.0794 164.068C37.0794 164.068 38.5233 132.052 26.2232 115.666C26.2232 115.666 30.9949 135.631 27.092 145.706C27.092 145.706 27.8133 140.527 23.7635 136.477C23.7635 136.477 25.7928 154.274 20.5825 164.068H37.0794Z" fill="#81B616"/>
</svg>
