<svg width="78" height="79" viewBox="0 0 78 79" fill="none" xmlns="http://www.w3.org/2000/svg">
<path d="M1.98966 76.7249C1.98966 76.7249 2.35253 76.6306 2.9676 76.4174C8.58551 74.08 12.1544 70.6994 13.5811 69.1601C16.0511 66.445 17.9924 63.0362 17.9682 59.1739C17.9682 58.1818 17.8503 57.1404 17.5727 56.0216C16.5258 51.7167 13.8242 46.275 11.2653 40.1774C8.72764 34.0673 6.32238 27.1818 6.3121 19.557C6.29275 14.1201 7.60938 8.36308 10.813 2.60846C6.92536 5.89896 -2.79183 16.0371 0.771605 32.8734C4.50861 50.5318 12.3449 62.5095 1.98966 76.7249Z" fill="#E54C3A"/>
<path d="M69.5093 39.0583C72.5429 37.241 74.7202 34.8391 76.0318 31.8606C77.3415 28.8839 78 26.0296 78 23.2993C78 20.0732 77.5701 17.0763 76.7072 14.3045C75.8444 11.5339 74.4316 9.11371 72.4616 7.0457C70.4946 4.97892 67.9734 3.34505 64.895 2.14412C61.8184 0.945624 58.0669 0.344543 53.6381 0.344543H21.7799C21.7611 0.581796 21.7405 0.945624 21.7405 1.42686C21.7756 3.80121 22.2013 8.61169 25.6199 13.9945H25.6636L25.6563 13.9774H55.0903C55.2789 13.9774 55.4462 13.989 55.6257 13.9945H55.7282C55.7937 13.9945 55.8567 14.0025 55.9222 14.0043C56.0332 14.0098 56.1466 14.0135 56.2533 14.0202C56.4697 14.0324 56.6832 14.0526 56.8936 14.0813C58.789 14.2941 59.8483 14.7723 59.8483 14.7723C59.8483 14.7723 66.2853 16.7223 70.5304 25.423C70.5304 25.423 68.5215 26.2564 65.83 28.4363C62.3926 31.4784 59.536 34.5028 57.5557 38.1258C56.2963 40.4011 55.3219 43.0469 54.2178 45.8842H55.7276C58.1069 45.8842 60.1582 46.7953 61.8796 48.6138C63.6028 50.4336 64.4657 52.5438 64.4657 54.9426C64.4657 57.8367 63.6441 60.1737 62.0045 61.9513C60.3619 63.7319 58.2294 64.6192 55.6051 64.6192H43.2835C41.0236 67.2173 38.5085 69.6137 35.715 71.7019C32.357 74.2114 29.0512 76.2837 25.5102 78.2691H53.6387C58.0681 78.2691 61.8384 77.6081 64.9568 76.2837C68.0759 74.9598 70.5989 73.2232 72.5253 71.0727C74.451 68.9215 75.845 66.4622 76.7072 63.6897C77.5701 60.9185 78 58.0856 78 55.1914C78 52.131 77.3239 49.1323 75.9705 46.1954C74.6166 43.2585 72.4616 40.8792 69.5093 39.0583Z" fill="#26A75C"/>
<path d="M45.4676 19.7456C40.1346 20.0398 34.8318 19.817 34.8324 19.8194C32.9744 19.7342 31.4002 19.6068 31.4002 19.6068C39.8896 31.6506 37.3174 42.3563 37.3174 42.3563C36.5869 38.1673 35.6742 31.1251 27.2676 24.4756C13.1095 13.0276 15.251 0.418762 15.251 0.418762C-1.56459 22.0938 15.453 40.3864 19.0933 55.0462C22.7347 69.7096 5.94873 78.3434 5.94873 78.3434C10.0008 77.8785 15.9744 76.2378 20.2297 73.931C23.9558 71.9077 27.3003 69.8592 30.7325 67.3356C36.1097 63.3803 40.4726 58.1445 43.7651 52.3845C44.7225 50.7089 45.5952 48.9889 46.3796 47.2262C48.0924 43.3856 49.3171 39.3516 51.3692 35.6606C53.7031 31.4626 56.9635 28.1349 60.5705 24.9945C60.617 24.9549 61.5756 24.1147 61.6161 24.1591C57.6167 19.7456 50.8019 19.4519 45.4676 19.7456ZM54.5244 23.6516C54.1016 23.6516 53.7581 23.3117 53.7581 22.8913C53.7581 22.4709 54.101 22.131 54.5244 22.131C54.9477 22.131 55.29 22.4709 55.29 22.8913C55.2894 23.3117 54.9471 23.6516 54.5244 23.6516Z" fill="#FAD117"/>
</svg>
