<svg width="299" height="291" viewBox="0 0 299 291" fill="none" xmlns="http://www.w3.org/2000/svg">
<path d="M120.959 1.22115C120.959 1.22115 20.312 5.5951 14.6015 94.1124C8.89102 182.63 -17.5199 266.85 46.7229 271.878C110.966 276.905 261.579 286.67 282.993 233.936C304.408 181.201 315.115 -17.3482 120.959 1.22115Z" fill="#F4F7FA"/>
<mask id="mask0_3943_5770" style="mask-type:luminance" maskUnits="userSpaceOnUse" x="17" y="12" width="95" height="219">
<path d="M61.7605 222.201C46.5274 190.861 67.9272 176.112 76.156 168.13C88.5656 156.092 95.3906 138.159 77.4355 129.18C59.4804 120.202 78.0155 84.1674 100.251 68.6364C122.009 53.4381 113.11 -7.39189 63.6171 19.6826C34.0601 35.8514 38.2088 77.3585 36.5584 98.8416C34.9079 120.325 10.686 120.754 18.6815 147.558C25.5113 170.454 34.5047 198.292 24.0766 213.186C13.6487 228.081 69.2267 237.561 61.7605 222.201Z" fill="white"/>
</mask>
<g mask="url(#mask0_3943_5770)">
<path d="M100.25 68.6364C78.0153 84.1674 62.9484 115.462 79.5123 128.463C94.152 139.954 88.5652 156.092 76.1558 168.13C69.9794 174.121 56.384 183.924 56.4265 201.693C55.3202 201.525 66.7163 230.159 65.5943 230.457C60.59 231.783 50.6485 227.515 50.4185 234.069L20.6935 221.876C21.4229 214.929 24.1351 208.523 28.347 202.507C38.7749 187.613 25.5111 170.454 18.6813 147.558C10.6858 120.754 34.9079 120.325 36.5582 98.8416C38.2085 77.3586 34.0598 35.8515 63.617 19.6825C113.11 -7.3919 122.01 53.4381 100.25 68.6364Z" fill="url(#paint0_linear_3943_5770)"/>
</g>
<mask id="mask1_3943_5770" style="mask-type:luminance" maskUnits="userSpaceOnUse" x="17" y="12" width="95" height="219">
<path d="M61.7605 222.201C46.5274 190.861 67.9272 176.112 76.156 168.13C88.5656 156.092 95.3906 138.159 77.4355 129.18C59.4804 120.202 78.0155 84.1674 100.251 68.6364C122.009 53.4381 113.11 -7.39189 63.6171 19.6826C34.0601 35.8514 38.2088 77.3585 36.5584 98.8416C34.9079 120.325 10.686 120.754 18.6815 147.558C25.5113 170.454 34.5047 198.292 24.0766 213.186C13.6487 228.081 69.2267 237.561 61.7605 222.201Z" fill="white"/>
</mask>
<g mask="url(#mask1_3943_5770)">
<path d="M117.042 27.7903L116.926 26.9285C94.4178 31.4696 76.6516 46.6382 64.1213 72.0116C62.6047 75.083 61.1651 78.3065 59.8008 81.6747C57.7377 52.8559 66.2193 13.5448 66.3062 13.1456L65.6745 12.8817C65.5859 13.2883 56.8348 53.8449 59.2373 82.9273L59.3046 82.9199C51.935 101.564 46.8614 124.607 44.1949 151.633C43.6597 157.059 43.2418 162.467 42.9213 167.811C38.0424 142.691 18.1643 124.703 17.9563 124.517L17.5999 125.236C17.8132 125.426 38.9421 144.55 42.7534 170.752C42.4403 176.597 42.2426 182.353 42.1366 187.957C42.1362 187.958 42.1356 187.96 42.1352 187.962L42.1364 187.963C41.9472 197.966 42.0501 207.482 42.314 216.143L42.9651 215.971C42.7065 207.399 42.6062 197.992 42.7915 188.108C50.6343 147.543 92.8221 139.844 93.239 139.814L93.2291 138.944C92.8277 138.921 52.3323 146.524 42.8677 184.652C43.1369 174.038 43.745 162.932 44.8485 151.752C47.6711 123.155 54.1462 90.7985 68.237 66.1176C90.4459 49.403 110.841 59.2327 111.045 59.3344L111.261 58.5199C111.058 58.4182 91.2078 48.8366 69.2586 64.3662C80.1985 45.9707 95.553 32.1261 117.042 27.7903ZM22.6214 206.352L22.124 206.903C22.2431 207.09 22.6178 207.484 23.5293 208.435C25.4502 210.44 29.0171 214.165 32.617 218.714L33.389 218.509C29.6558 213.737 25.9175 209.834 23.927 207.756C23.2722 207.073 22.7069 206.483 22.6214 206.352Z" fill="#BEB8F2"/>
</g>
<path d="M63.4475 174.483C61.6742 173.017 65.0662 179.258 62.7176 179.258C57.8899 179.258 60.3047 183.68 46.9793 180.65H9.73496C12.4631 169.425 21.1386 158.006 24.0989 152.043C30.346 139.458 31.9802 133.912 19.0273 107.9C-2.60073 74.2562 -4.77345 42.4526 9.79893 32.844C24.5641 23.1082 39.386 34.6197 44.8036 52.1149C48.2701 63.3084 59.2518 56.2951 65.7398 70.6333C71.4344 83.2186 60.2515 103.266 56.2389 114.529C45.7581 143.947 59.0725 158 63.4475 174.483Z" fill="url(#paint1_linear_3943_5770)"/>
<mask id="mask2_3943_5770" style="mask-type:luminance" maskUnits="userSpaceOnUse" x="0" y="29" width="68" height="179">
<path d="M61.2585 199.132C75.378 167.382 41.152 156.876 56.2389 114.529C60.2516 103.266 71.4344 83.2184 65.7396 70.6332C59.2516 56.295 48.2697 63.3083 44.8035 52.1148C39.3859 34.6197 24.5639 23.1081 9.79896 32.8439C-4.77343 42.4526 -2.60071 74.2561 19.027 107.9C31.9799 133.911 30.346 139.458 24.0988 152.043C19.723 160.858 2.84181 181.592 11.1745 195.999C19.5072 210.407 56.0547 210.834 61.2585 199.132Z" fill="white"/>
</mask>
<g mask="url(#mask2_3943_5770)">
<path d="M38.9909 132.554C36.971 103.717 62.5661 62.3632 62.8251 61.9491L62.2995 61.5752C62.0578 61.9623 39.815 97.903 38.3285 126.313C37.5711 119.626 36.63 113.032 35.5023 106.55C34.6729 101.782 33.7391 97.0693 32.711 92.4168L32.7146 92.4151C32.7122 92.4092 32.7092 92.4034 32.7068 92.3976C30.7938 83.7443 28.5433 75.3075 25.969 67.1528L25.9789 67.1513C24.0182 51.1853 25.4278 33.9271 25.8912 28.2558C26.0033 26.8829 26.0413 26.3996 26.0271 26.2288L25.398 26.2885C25.4072 26.4191 25.3431 27.2038 25.2618 28.1974C24.8314 33.4672 23.5864 48.7103 24.9708 63.6758C24.9775 63.7486 24.8772 63.7689 24.8543 63.6995C24.2201 61.7778 23.5692 59.8715 22.8987 57.9838C19.0998 47.2881 14.7702 37.2547 10.0289 28.163C9.20269 26.5783 8.27513 25.0071 7.37761 23.4876C6.18222 21.463 4.94585 19.3697 3.94145 17.2283L3.37686 17.5301C4.39506 19.7009 5.63961 21.8084 6.84317 23.8467C7.73588 25.3587 8.65905 26.9222 9.47675 28.4907C14.2032 37.5539 18.5201 47.5572 22.3083 58.2227C25.9274 68.4133 29.021 79.1127 31.5589 90.1801C23.9743 77.5667 0.196677 68.2232 -0.869243 67.8095L-1.08496 68.4428C-0.811915 68.5489 26.2616 79.1836 32.108 92.6237C33.1291 97.2488 34.0571 101.934 34.8816 106.673C38.5541 127.783 40.2662 150.079 39.9705 172.941C39.9375 175.499 39.871 178.071 39.7874 180.65H40.4192C40.5025 178.074 40.569 175.505 40.602 172.95C40.7796 159.237 40.2301 145.729 38.9755 132.555L38.9909 132.554ZM12.1546 168.241C12.2689 168.355 17.2836 173.391 22.8131 180.65H23.6145C17.9295 173.119 12.7027 167.865 12.5857 167.749L12.1546 168.241Z" fill="#FCFDFE"/>
</g>
<path d="M184.079 269.2C179.91 267.817 176.795 264.279 175.916 259.931L169.849 229.902L117.948 231.745L111.56 263.028C110.666 267.41 114.247 271.805 118.371 273.419L140.085 281.915C144.124 283.495 148.465 284.124 152.78 283.755L198.67 279.829C200.012 279.715 201.088 278.66 201.244 277.307C201.4 275.954 202.34 274.435 201.061 274.011L184.079 269.2Z" fill="#97A6B7"/>
<path d="M184.592 267.374C180.428 266.008 177.315 262.515 176.438 258.221L170.376 228.57L119.74 230.392L113.359 261.282C112.466 265.608 114.83 269.946 118.95 271.54L140.643 279.929C144.677 281.489 149.014 282.111 153.325 281.746L199.169 277.87C200.509 277.756 201.584 276.715 201.74 275.379C201.896 274.043 201.09 272.782 199.812 272.363L184.592 267.374Z" fill="url(#paint2_linear_3943_5770)"/>
<path d="M11.895 249.861C6.26669 250.196 1.66211 246.545 1.66211 241.72V67.8042C1.66211 62.979 6.26658 59.2526 11.895 59.4966L272.182 70.7746C276.314 70.9537 279.66 74.4376 279.66 78.5414V226.455C279.66 230.559 276.314 234.098 272.182 234.344L11.895 249.861Z" fill="url(#paint3_linear_3943_5770)"/>
<path d="M14.2329 249.861C8.60458 250.196 4 246.545 4 241.72V67.8041C4 62.9789 8.60447 59.2525 14.2329 59.4964L274.52 70.7745C278.652 70.9535 281.998 74.4374 281.998 78.5413V226.455C281.998 230.559 278.652 234.097 274.52 234.344L14.2329 249.861Z" fill="url(#paint4_linear_3943_5770)"/>
<path opacity="0.3" d="M274.523 74.2557L14.2356 63.5479C11.2266 63.4241 8.78027 65.4123 8.78027 67.9889V203.249V241.457C8.78027 244.034 11.2266 245.982 14.2356 245.81L274.523 230.863C276.738 230.736 278.529 228.848 278.529 226.646V192.833V78.4074C278.529 76.2054 276.738 74.3468 274.523 74.2557Z" fill="#D8DEE8"/>
<path d="M275.819 78.3129V216.531C275.819 217.39 275.253 218.124 274.39 218.167L14.1311 231.035C12.9591 231.093 12.0369 230.323 12.0369 229.324V68.1164C12.0369 67.1169 13.0263 66.3365 14.1983 66.3833L274.371 76.6914C275.234 76.7273 275.819 77.4536 275.819 78.3129Z" fill="url(#paint5_linear_3943_5770)"/>
<path opacity="0.7" d="M276.062 78.479L276.207 101.748L12.0369 96.6423V68.1095C12.0369 67.1139 13.0095 66.3367 14.1614 66.3833L274.497 76.8334C275.375 76.8705 276.056 77.6075 276.062 78.479Z" fill="white"/>
<g opacity="0.5">
<path d="M181.388 167.698L27.5626 170.314L27.498 107.932L180.772 110.06L181.388 167.698Z" fill="white"/>
<path d="M265.453 166.269L190.212 167.548L189.567 110.182L264.575 111.223L265.453 166.269Z" fill="white"/>
<path d="M266.11 207.375L27.6092 216.936L27.5693 178.497L265.569 173.486L266.11 207.375Z" fill="white"/>
</g>
<path d="M223.19 164.514C220.254 161.379 228.382 149.602 232.733 144.442C236.533 139.934 240.44 135.3 245.236 135.887C249.448 136.402 253.546 140.843 253.792 145.1C254.452 156.552 227.364 168.97 223.19 164.514Z" fill="url(#paint6_linear_3943_5770)"/>
<path d="M258.443 285.532C258.996 285.981 259.098 287.103 259.164 287.836C259.194 288.164 259.209 288.328 259.172 288.443C258.905 289.287 257.268 289.376 254.701 289.638C250.645 290.053 249.438 290.372 249.12 289.769C248.823 289.203 249.543 288.277 249.624 288.175C250.06 287.625 250.595 287.426 251.629 287.085C253.543 286.456 254.836 286.111 255.227 286.006C257.672 285.353 258.081 285.237 258.443 285.532Z" fill="url(#paint7_linear_3943_5770)"/>
<path d="M256.031 281.826L255.625 286.448C255.741 286.671 257.114 287.341 258.206 286.767L259.249 282.223L256.031 281.826Z" fill="#D8DEE8"/>
<path d="M226.275 284.938C226.937 285.669 227.088 287.016 226.512 287.68C225.946 288.332 225.094 287.843 222.68 287.915C220.093 287.992 219.418 288.603 217.66 288.118C216.95 287.922 215.696 287.446 215.72 286.939C215.737 286.582 216.375 286.398 218.508 285.684C221.535 284.67 221.521 284.614 222.164 284.508C223.778 284.24 225.4 283.972 226.275 284.938Z" fill="url(#paint8_linear_3943_5770)"/>
<path d="M224.617 280.719L223.32 285.035C223.418 285.266 224.736 286.038 225.868 285.549L227.795 281.361L224.617 280.719Z" fill="#D8DEE8"/>
<path d="M236.144 186.211C235.958 200.713 234.968 217.019 232.594 234.734C230.247 252.243 226.958 268.064 223.37 281.975C225.025 282.421 226.681 282.866 228.336 283.311C232.535 279.396 237.832 273.232 240.388 264.522C241.974 259.116 241.445 256.338 242.452 249.689C244.054 239.102 247.299 233.555 250.654 225.018C253.668 217.346 257.231 206.087 259.141 191.037C251.475 189.429 243.809 187.82 236.144 186.211Z" fill="url(#paint9_linear_3943_5770)"/>
<path d="M251.083 184.828C252.096 203.272 252.929 222.06 253.561 241.18C254.035 255.528 254.382 269.694 254.614 283.673C256.304 283.882 257.995 284.091 259.686 284.3C261.319 281.258 263.489 276.608 264.976 270.648C266.781 263.409 266.363 259.11 267.155 251.608C268.043 243.194 269.333 241.36 271.619 230.745C276.258 209.203 278.578 198.432 273.403 191.732C271.723 189.556 266.456 184.1 251.083 184.828Z" fill="url(#paint10_linear_3943_5770)"/>
<path d="M275.724 138.471C271.764 137.358 265.961 136.056 258.855 135.654C248.719 135.081 243.651 134.795 240.06 137.209C231.765 142.784 238.187 155.65 234.792 187.546C234.307 192.101 234.198 196.688 233.847 201.255C233.265 208.817 233.133 209.227 233.659 209.994C236.959 214.799 249.269 207.551 267.312 210.416C277.407 212.019 281.985 215.712 284.751 213.049C287.977 209.942 285.21 201.587 282.828 194.395C280.095 186.139 278.406 186.032 276.854 179.815C275.232 173.316 276.213 169.969 276.466 159.721C276.587 154.817 276.561 147.52 275.724 138.471Z" fill="url(#paint11_linear_3943_5770)"/>
<g opacity="0.3">
<path d="M251.188 198.351C255.904 197.982 258.963 200.648 263.034 198.57C268.616 195.721 270.409 186.856 270.053 180.582C269.513 171.049 264.07 168.537 265.008 162.375C265.515 159.042 267.895 154.618 276.437 150.098C276.551 153.902 276.529 157.145 276.465 159.721C276.213 169.969 275.232 173.316 276.854 179.814C278.405 186.032 280.094 186.138 282.828 194.394C285.21 201.587 287.976 209.942 284.751 213.048C281.985 215.712 277.406 212.019 267.311 210.416C251.765 207.947 240.48 212.981 235.543 211.348C241.509 201.49 246.921 198.685 251.188 198.351Z" fill="url(#paint12_linear_3943_5770)"/>
</g>
<path d="M269.291 139.126C272.659 136.359 279.431 139.492 281.242 140.329C291.337 144.998 300.401 157.582 298.155 170.88C297.818 172.874 296.256 182.202 288.357 186.722C281.23 190.801 271.606 189.752 263.895 183.976C262.842 183.04 261.788 182.105 260.734 181.17C259.697 180.05 258.66 178.929 257.624 177.809C259.253 176.453 262.022 174.497 265.911 173.243C271.038 171.588 274.771 174.557 277.15 172.3C278.791 170.742 278.795 167.991 278.39 166.324C277.572 162.963 274.61 162.018 272.138 159.633C266.329 154.029 265.259 142.44 269.291 139.126Z" fill="url(#paint13_linear_3943_5770)"/>
<path d="M220.891 182.538L266.035 181.864L254.03 187.657L220.775 185.481L220.891 182.538Z" fill="url(#paint14_linear_3943_5770)"/>
<path d="M267.627 183.064V183.064C267.627 183.909 267.099 184.664 266.305 184.953L251.88 190.608L251.814 186.687L266.034 181.864C266.832 181.635 267.627 182.234 267.627 183.064Z" fill="url(#paint15_linear_3943_5770)"/>
<path d="M260.675 180.393C260.952 180.331 259.325 177.09 258.048 177.464C256.771 177.838 250.525 181.458 249.957 182.949C249.389 184.439 249.389 184.439 249.389 184.439C249.389 184.439 252.114 184.652 253.804 184.084C255.494 183.517 258.422 180.896 260.675 180.393Z" fill="white"/>
<path d="M250.615 159.179L253.797 188.152C253.907 189.152 252.507 190.641 251.502 190.594L204.821 187.728C204.054 187.691 203.416 187.127 203.286 186.37L197.427 158.387C197.252 157.369 199.082 156.317 200.115 156.346L249.034 157.721C249.851 157.745 250.526 158.367 250.615 159.179Z" fill="url(#paint16_linear_3943_5770)"/>
<path d="M249.55 160.024L252.732 188.997C252.842 189.997 252.032 190.858 251.028 190.811L203.756 188.573C202.989 188.537 202.351 187.972 202.221 187.215L197.391 159.104C197.216 158.086 198.017 157.162 199.05 157.191L247.969 158.567C248.786 158.589 249.461 159.212 249.55 160.024Z" fill="url(#paint17_linear_3943_5770)"/>
<path opacity="0.3" d="M221.791 181.783C225.918 180.033 224.461 176.697 229.336 172.54C235.766 167.056 242.32 169.435 244.614 165.184C245.329 163.86 245.67 161.8 244.425 158.466L247.968 158.566C248.785 158.588 249.46 159.211 249.549 160.023L252.731 188.996C252.84 189.996 252.031 190.857 251.026 190.81L203.755 188.572C202.988 188.536 202.349 187.971 202.219 187.214L201.553 183.335C202.987 182.537 204.701 181.811 206.701 181.406C213.636 179.999 217.039 183.797 221.791 181.783Z" fill="url(#paint18_linear_3943_5770)"/>
<path d="M200.778 184.52C200.701 184.286 200.864 184.046 201.11 184.033C202.109 183.982 204.426 183.962 205.705 184.745C207.367 185.763 209.516 187.62 207.706 188.557L206.017 189.433C205.939 189.473 205.854 189.485 205.769 189.467C205.169 189.335 202.642 188.774 202.366 188.635C202.114 188.508 201.151 185.649 200.778 184.52Z" fill="#D8DEE8"/>
<path d="M258.098 124.58C258.073 127.585 258.408 129.968 258.725 131.6C259.088 133.47 259.35 133.953 259.684 134.345C260.187 134.935 260.949 135.43 265.255 136.498C267.598 137.079 267.9 137.063 267.952 137.296C268.204 138.43 261.815 142.296 255.213 141.364C251.173 140.794 247.498 138.489 247.723 137.279C247.95 136.061 251.986 136.714 253.189 134.511C254.025 132.978 253.087 130.801 251.979 128.999C253.053 126.987 257.024 126.592 258.098 124.58Z" fill="white"/>
<path d="M250.6 125.768C249.647 124.502 249.588 122.29 250.686 120.893C251.632 119.69 253.119 119.519 254.01 119.416C256.591 119.118 259.848 120.195 260.98 122.57C261.652 123.978 260.2 126.903 259.972 127.429C259.715 128.024 259.248 128.228 258.816 128.677C258.218 129.301 257.281 130.292 255.752 131.95C255.633 131.461 255.452 130.855 255.165 130.199C255.055 129.946 254.611 128.959 253.939 128.141C252.594 126.5 251.504 126.968 250.6 125.768Z" fill="url(#paint19_linear_3943_5770)"/>
<path d="M257.934 130.556C257.934 130.556 256.237 133.34 252.859 133.12C249.834 132.923 249.391 126.14 251.323 124.701C251.968 124.22 253.259 124.021 254.308 124.315C254.928 124.489 255.138 124.747 256.156 125.011C257.096 125.254 257.361 125.15 257.645 125.389C257.999 125.687 258.259 126.419 257.667 128.402C258.244 127.818 258.937 127.594 259.428 127.825C259.506 127.862 259.714 128.004 259.83 128.218C260.253 128.992 259.546 129.982 257.934 130.556Z" fill="white"/>
<path d="M257.781 124.983C257.635 125.092 258.081 125.636 258.114 126.406C258.179 127.901 256.665 129.696 255.121 129.848C254.209 129.938 253.958 129.388 252.449 129.228C251.515 129.13 250.737 129.249 250.248 129.355C249.774 130.995 250.22 132.63 251.316 133.389C252.496 134.205 254.003 133.71 254.633 133.503C255.055 133.364 256.406 132.923 257.112 131.684C257.848 130.393 257.126 129.615 257.97 128.742C258.395 128.301 258.954 128.11 259.499 127.258C259.647 127.026 259.745 126.821 259.806 126.683C259.025 125.856 257.992 124.825 257.781 124.983Z" fill="url(#paint20_linear_3943_5770)"/>
<path d="M251.345 129.963C251.345 129.963 251.998 130.304 253.127 130.24C253.181 130.237 253.242 130.253 253.249 130.282C253.275 130.389 252.551 130.869 251.884 130.681C251.41 130.548 251.041 130.1 251.105 129.985C251.132 129.937 251.239 129.944 251.345 129.963Z" fill="white"/>
<path opacity="0.8" d="M123.218 165.134C137.034 165.134 148.234 153.934 148.234 140.118C148.234 126.302 137.034 115.102 123.218 115.102C109.402 115.102 98.2019 126.302 98.2019 140.118C98.2019 153.934 109.402 165.134 123.218 165.134Z" fill="white"/>
<path d="M123.218 152.476C130.043 152.476 135.576 146.943 135.576 140.118C135.576 133.293 130.043 127.76 123.218 127.76C116.393 127.76 110.86 133.293 110.86 140.118C110.86 146.943 116.393 152.476 123.218 152.476Z" fill="white"/>
<path d="M118.542 140.661C117.924 140.132 117.069 139.977 116.306 140.255L64.9155 158.983C64.1582 159.259 63.6063 159.918 63.468 160.712C63.3297 161.506 63.626 162.313 64.2453 162.829L72.905 170.043C72.8902 170.054 72.8749 170.064 72.8602 170.075C72.5699 170.303 72.283 170.542 72.0026 170.787C66.8399 175.32 61.6783 179.854 56.5172 184.388C50.6483 189.546 44.7803 194.705 38.9136 199.865C38.4202 200.299 38.1411 200.927 38.1491 201.583C38.1569 202.24 38.4518 202.861 38.9547 203.283C48.8161 211.562 58.6411 219.809 68.4305 228.026C68.5095 228.092 68.5938 228.15 68.68 228.205L68.6781 228.206C68.6781 228.206 71.9722 231.122 75.2663 226.817C74.3541 226.577 73.3845 226.281 72.6972 226.064C75.6462 221.394 78.5991 216.728 81.56 212.069C86.1913 204.781 90.8372 197.505 95.497 190.242C95.693 189.94 95.8743 189.632 96.0502 189.323L105.181 196.929C105.181 196.929 105.253 196.994 105.39 197.081C105.57 197.199 105.763 197.289 105.964 197.351C106.67 197.595 107.867 197.742 109.625 197.094C112.704 195.96 112.699 194.578 112.815 193.992C112.882 193.656 110.967 193.351 109.323 193.151L119.286 142.808C119.444 142.01 119.159 141.19 118.542 140.661Z" fill="url(#paint21_linear_3943_5770)"/>
<path d="M98.672 166.716C93.5534 162.451 83.9819 163.491 76.7487 168.908C76.4584 169.136 76.1715 169.375 75.891 169.62C70.7284 174.153 65.5668 178.687 60.4057 183.221C54.5367 188.379 48.6687 193.538 42.802 198.698C42.3086 199.132 42.0295 199.759 42.0375 200.416C42.0453 201.073 42.3402 201.693 42.8432 202.116C52.7045 210.394 62.5295 218.642 72.3189 226.858C72.8168 227.276 73.4712 227.459 74.1137 227.359C74.7563 227.259 75.3263 226.887 75.6734 226.337C78.9246 221.186 82.1827 216.041 85.4483 210.902C90.0797 203.614 94.7255 196.338 99.3854 189.074C99.5869 188.764 99.7737 188.448 99.9543 188.129C104.183 180.265 103.766 170.952 98.672 166.716Z" fill="url(#paint22_linear_3943_5770)"/>
<path d="M122.43 139.494C121.813 138.965 120.958 138.81 120.194 139.088L68.8038 157.816C68.0465 158.092 67.4945 158.752 67.3563 159.545C67.2178 160.339 67.5143 161.147 68.1335 161.662L109.069 195.762C109.68 196.271 110.514 196.42 111.263 196.154C112.012 195.889 112.566 195.249 112.72 194.469L123.174 141.641C123.332 140.844 123.048 140.023 122.43 139.494Z" fill="url(#paint23_linear_3943_5770)"/>
<path d="M246.672 56.5748V88.0516C246.672 91.6411 245.057 94.8353 242.538 96.9583C240.515 98.659 237.889 99.6725 235.029 99.6418L203.735 99.3039L139.573 98.6129L138.981 98.6052L126.518 118.235L126.222 118.699C125.873 119.252 125.216 119.563 124.54 119.486C123.869 119.413 123.296 118.972 123.081 118.35L116.064 98.3596L112.153 98.3174C104.989 98.2406 99.1016 92.601 99.1016 85.7213V52.2366C99.1016 48.4897 100.885 45.1918 103.619 43.0035C105.792 41.2605 108.628 40.2202 111.707 40.2202C111.864 40.2202 112.035 40.224 112.192 40.2278L235.034 44.4585C241.46 44.6813 246.672 50.1021 246.672 56.5748Z" fill="url(#paint24_linear_3943_5770)"/>
<path d="M143.746 92.1231L140.125 97.7436L139.569 98.6112L127.372 117.557C127.168 117.872 126.865 118.106 126.516 118.233C126.258 118.325 125.978 118.363 125.69 118.333C125.019 118.26 124.447 117.826 124.232 117.216L117.217 97.5018L115.171 91.7546L143.746 92.1231Z" fill="url(#paint25_linear_3943_5770)"/>
<path d="M236.169 44.3495L113.279 40.1765C106.118 39.9332 100.207 45.2351 100.207 52.02V85.0363C100.207 91.8212 106.118 97.3834 113.279 97.4595L236.132 98.7636C242.557 98.8319 247.777 93.7155 247.777 87.3363V56.2944C247.777 49.9152 242.594 44.5678 236.169 44.3495Z" fill="url(#paint26_linear_3943_5770)"/>
<path d="M133.557 67.4319C131.707 65.7157 129.215 64.8213 126.075 64.7445C124.743 64.7139 123.622 64.7829 122.716 64.9595L121.933 65.0901L122.551 59.032L134.149 59.3392V53.8224L116.496 53.3156L115.253 69.0866L118.005 70.5493C118.604 70.3918 119.378 70.2499 120.33 70.1231C121.282 69.9926 122.152 69.9388 122.939 69.958C127.285 70.0502 129.45 71.655 129.45 74.7608C129.45 78.024 127.357 79.6173 123.161 79.5404C121.764 79.5174 120.281 79.3024 118.719 78.8993C117.153 78.4962 115.702 77.9856 114.595 77.3714V83.0379C116.809 84.1897 119.775 84.7961 123.406 84.8538C127.572 84.919 130.766 84.0437 132.993 82.224C135.216 80.4119 136.325 77.7859 136.325 74.35C136.325 71.4475 135.404 69.1441 133.557 67.4319Z" fill="white"/>
<path d="M160.196 71.3427C158.883 70.1257 156.653 69.3387 154.44 68.974V68.8473C156.284 68.3981 158.238 67.519 159.436 66.2137C160.633 64.9085 161.206 63.3075 161.206 61.4033C161.206 59.1306 160.245 57.3262 158.348 55.994C156.448 54.6619 153.85 53.9478 150.556 53.8518C147.177 53.7559 144.184 54.3778 141.577 55.7215C141.074 55.9787 140.585 56.2666 140.112 56.5776L141.613 58.7505L143.252 61.1308C144.58 60.3399 145.785 59.7909 146.872 59.4838C147.958 59.1805 149.025 59.0385 150.07 59.0693C153.087 59.1499 154.596 60.3438 154.596 62.6549C154.596 64.1561 154.028 65.2041 152.891 65.7954C151.751 66.3904 149.869 66.6553 147.397 66.5977L144.848 66.5402V71.508L147.351 71.5617C150.031 71.6194 152.012 71.961 153.233 72.583C154.45 73.2087 155.075 74.2376 155.075 75.6696C155.075 77.2705 154.555 78.4222 153.5 79.1248C152.44 79.8312 150.805 80.1614 148.583 80.1229C147.811 80.1076 147.038 80.0423 146.255 79.9195C145.564 79.8159 144.862 79.6662 144.163 79.478C142.669 79.0749 141.527 78.5605 140.052 77.9347V83.4553C142.634 84.607 145.834 85.2059 149.297 85.2635C152.215 85.3096 154.657 84.9372 156.615 84.1502C157.425 83.8277 158.152 83.4323 158.797 82.9639C161.005 81.3706 162.13 79.1094 162.13 76.184C162.13 74.1721 161.505 72.5598 160.196 71.3427Z" fill="white"/>
<path d="M185.021 68.3684C183.451 66.6408 181.282 65.7425 178.502 65.6772C175.404 65.6004 173.147 66.7215 171.734 69.0364L171.458 69.0288C171.584 66.6409 172.007 64.8096 172.721 63.5273C173.431 62.2489 174.506 61.2929 175.934 60.671C177.362 60.0452 179.141 59.7649 181.394 59.8226C182.623 59.8571 183.955 60.026 185.061 60.337V55.2463C183.954 55.0083 182.738 54.8662 180.968 54.8164C175.774 54.6667 171.894 56.018 169.272 58.8781C166.646 61.7422 165.345 66.184 165.345 72.196C165.345 75.01 165.821 77.421 166.762 79.4326C167.633 81.3061 168.851 82.765 170.405 83.817C170.521 83.8976 170.642 83.9744 170.761 84.0473C172.481 85.1108 174.493 85.6598 176.797 85.6982C179.538 85.7443 181.784 85.1377 183.535 83.8862C183.904 83.6213 184.249 83.3295 184.576 83.007C186.437 81.1642 187.367 78.638 187.367 75.4247C187.367 72.4455 186.584 70.096 185.021 68.3684ZM173.373 71.7239C174.318 70.9023 175.462 70.5068 176.798 70.5376C178.218 70.5683 179.278 71.0175 179.98 71.8775C180.683 72.7413 181.032 73.9084 181.032 75.3787C181.032 77.0718 180.656 78.3694 179.907 79.2716C179.155 80.1738 178.076 80.6115 176.671 80.5884C175.304 80.5615 174.176 79.978 173.285 78.8263C172.394 77.6783 171.949 76.2808 171.949 74.6378C171.949 73.5167 172.425 72.5454 173.373 71.7239Z" fill="white"/>
<path d="M198.712 80.3032V80.0152L202.561 76.4679C205.171 74.1759 206.955 72.41 207.984 71.1661C209.017 69.9222 209.758 68.7052 210.249 67.5151C210.736 66.325 210.972 65.0427 210.972 63.6683C210.972 62.0943 210.568 60.6816 209.766 59.4377C208.963 58.1899 207.836 57.2071 206.381 56.4853C204.922 55.7636 203.243 55.372 201.335 55.3183C199.888 55.2761 198.574 55.3797 197.403 55.6254C196.229 55.8711 195.146 56.2397 194.151 56.7311C193.157 57.2263 191.902 58.0824 190.385 59.2994L193.921 63.484C195.138 62.528 196.305 61.7986 197.422 61.2956C198.539 60.7928 199.691 60.5547 200.877 60.5854C202.002 60.6161 202.904 60.9347 203.576 61.5375C204.252 62.1402 204.59 63.0424 204.59 64.2441C204.59 65.0465 204.436 65.822 204.129 66.5629C203.825 67.3039 203.323 68.1062 202.628 68.97C201.933 69.8337 200.514 71.381 198.241 73.6114L190.596 81.0785V85.5012L211.625 85.8429V80.545L198.712 80.3032Z" fill="white"/>
<path d="M225.294 56.4362L215.635 63.788L218.715 67.6463L222.172 64.9896C222.582 64.6747 223.314 64.0106 224.366 62.9971L224.432 66.0761L224.537 68.8901V86.0433L230.44 86.1431V56.5859L225.294 56.4362Z" fill="white"/>
<path opacity="0.6" d="M203.729 99.3034L139.57 98.6124L127.373 117.558C127.17 117.873 126.867 118.107 126.517 118.234L126.222 118.699C125.872 119.251 125.216 119.562 124.54 119.486C123.868 119.413 123.296 118.971 123.081 118.349L116.063 98.3591L112.153 98.3169C104.989 98.2401 99.1016 92.6005 99.1016 85.7208V52.236C99.1016 48.4891 100.885 45.1912 103.619 43.0029C104.018 42.9606 104.447 42.9146 104.85 42.8685C117.811 41.4097 131.035 38.8874 138.133 47.0225C140.502 49.7368 141.357 52.6775 141.568 55.7219C141.641 56.7201 141.648 57.7298 141.61 58.751C141.383 65.3849 139.588 72.3491 144.894 78.5186C145.331 79.0292 145.785 79.4937 146.257 79.9198C149.179 82.5841 152.715 83.7396 156.619 84.1504C160.881 84.5958 165.58 84.1543 170.41 83.8165C174.759 83.5093 179.209 83.2905 183.536 83.8856C187.951 84.4884 192.231 85.9433 196.136 89.0146C199.533 91.6866 201.783 94.9076 203.353 98.4166C203.483 98.7083 203.61 99.004 203.729 99.3034Z" fill="white"/>
<defs>
<linearGradient id="paint0_linear_3943_5770" x1="253.742" y1="-278.27" x2="163.918" y2="-91.1027" gradientUnits="userSpaceOnUse">
<stop stop-color="#AA80F9"/>
<stop offset="0.9964" stop-color="#6165D7"/>
</linearGradient>
<linearGradient id="paint1_linear_3943_5770" x1="21.078" y1="52.366" x2="65.7986" y2="247.135" gradientUnits="userSpaceOnUse">
<stop stop-color="#AA80F9"/>
<stop offset="0.9964" stop-color="#6165D7"/>
</linearGradient>
<linearGradient id="paint2_linear_3943_5770" x1="151.613" y1="325.496" x2="158.085" y2="262.937" gradientUnits="userSpaceOnUse">
<stop stop-color="#444B8C"/>
<stop offset="0.9964" stop-color="#26264F"/>
</linearGradient>
<linearGradient id="paint3_linear_3943_5770" x1="106.701" y1="150.943" x2="38.3886" y2="158.852" gradientUnits="userSpaceOnUse">
<stop stop-color="#444B8C"/>
<stop offset="0.3946" stop-color="#383C74"/>
<stop offset="0.9964" stop-color="#26264F"/>
</linearGradient>
<linearGradient id="paint4_linear_3943_5770" x1="222.962" y1="25.4929" x2="39.5965" y2="304.495" gradientUnits="userSpaceOnUse">
<stop stop-color="#444B8C"/>
<stop offset="0.9964" stop-color="#26264F"/>
</linearGradient>
<linearGradient id="paint5_linear_3943_5770" x1="12.0369" y1="148.71" x2="275.819" y2="148.71" gradientUnits="userSpaceOnUse">
<stop offset="0.0036" stop-color="#E38DDD"/>
<stop offset="1" stop-color="#9571F6"/>
</linearGradient>
<linearGradient id="paint6_linear_3943_5770" x1="230.723" y1="118.127" x2="264.471" y2="279.93" gradientUnits="userSpaceOnUse">
<stop stop-color="#FFC444"/>
<stop offset="0.9964" stop-color="#F36F56"/>
</linearGradient>
<linearGradient id="paint7_linear_3943_5770" x1="249.102" y1="287.599" x2="259.205" y2="287.891" gradientUnits="userSpaceOnUse">
<stop stop-color="#444B8C"/>
<stop offset="0.9964" stop-color="#26264F"/>
</linearGradient>
<linearGradient id="paint8_linear_3943_5770" x1="216.296" y1="284.817" x2="226.65" y2="287.664" gradientUnits="userSpaceOnUse">
<stop stop-color="#444B8C"/>
<stop offset="0.9964" stop-color="#26264F"/>
</linearGradient>
<linearGradient id="paint9_linear_3943_5770" x1="219.823" y1="267.339" x2="248.463" y2="202.778" gradientUnits="userSpaceOnUse">
<stop stop-color="#AA80F9"/>
<stop offset="0.9964" stop-color="#6165D7"/>
</linearGradient>
<linearGradient id="paint10_linear_3943_5770" x1="233.888" y1="270.399" x2="270.221" y2="209.831" gradientUnits="userSpaceOnUse">
<stop stop-color="#AA80F9"/>
<stop offset="0.9964" stop-color="#6165D7"/>
</linearGradient>
<linearGradient id="paint11_linear_3943_5770" x1="242.409" y1="115.689" x2="276.157" y2="277.492" gradientUnits="userSpaceOnUse">
<stop stop-color="#FFC444"/>
<stop offset="0.9964" stop-color="#F36F56"/>
</linearGradient>
<linearGradient id="paint12_linear_3943_5770" x1="271.431" y1="254.069" x2="258.623" y2="193.231" gradientUnits="userSpaceOnUse">
<stop stop-color="#FFC444"/>
<stop offset="0.9964" stop-color="#F36F56"/>
</linearGradient>
<linearGradient id="paint13_linear_3943_5770" x1="265.527" y1="110.868" x2="299.275" y2="272.671" gradientUnits="userSpaceOnUse">
<stop stop-color="#FFC444"/>
<stop offset="0.9964" stop-color="#F36F56"/>
</linearGradient>
<linearGradient id="paint14_linear_3943_5770" x1="236.757" y1="201.201" x2="242.218" y2="185.728" gradientUnits="userSpaceOnUse">
<stop stop-color="#311944"/>
<stop offset="1" stop-color="#893976"/>
</linearGradient>
<linearGradient id="paint15_linear_3943_5770" x1="260.613" y1="178.784" x2="258.61" y2="192.619" gradientUnits="userSpaceOnUse">
<stop stop-color="#311944"/>
<stop offset="1" stop-color="#893976"/>
</linearGradient>
<linearGradient id="paint16_linear_3943_5770" x1="220.935" y1="179.996" x2="231.582" y2="164.877" gradientUnits="userSpaceOnUse">
<stop stop-color="#444B8C"/>
<stop offset="0.9964" stop-color="#26264F"/>
</linearGradient>
<linearGradient id="paint17_linear_3943_5770" x1="241.36" y1="205.017" x2="218.059" y2="157.688" gradientUnits="userSpaceOnUse">
<stop stop-color="#311944"/>
<stop offset="1" stop-color="#893976"/>
</linearGradient>
<linearGradient id="paint18_linear_3943_5770" x1="252.741" y1="174.639" x2="201.553" y2="174.639" gradientUnits="userSpaceOnUse">
<stop stop-color="#311944"/>
<stop offset="1" stop-color="#893976"/>
</linearGradient>
<linearGradient id="paint19_linear_3943_5770" x1="261.837" y1="139.855" x2="254.266" y2="120.415" gradientUnits="userSpaceOnUse">
<stop stop-color="#311944"/>
<stop offset="1" stop-color="#6B3976"/>
</linearGradient>
<linearGradient id="paint20_linear_3943_5770" x1="259.498" y1="140.776" x2="251.92" y2="121.316" gradientUnits="userSpaceOnUse">
<stop stop-color="#311944"/>
<stop offset="1" stop-color="#6B3976"/>
</linearGradient>
<linearGradient id="paint21_linear_3943_5770" x1="89.679" y1="78.9706" x2="47.9199" y2="433.924" gradientUnits="userSpaceOnUse">
<stop offset="0.0036" stop-color="#F36F56"/>
<stop offset="1" stop-color="#FFC444"/>
</linearGradient>
<linearGradient id="paint22_linear_3943_5770" x1="80.2741" y1="122.682" x2="51.3676" y2="368.388" gradientUnits="userSpaceOnUse">
<stop stop-color="#FFC444"/>
<stop offset="0.9964" stop-color="#F36F56"/>
</linearGradient>
<linearGradient id="paint23_linear_3943_5770" x1="97.2097" y1="134.08" x2="67.8932" y2="383.271" gradientUnits="userSpaceOnUse">
<stop stop-color="#FFC444"/>
<stop offset="0.9964" stop-color="#F36F56"/>
</linearGradient>
<linearGradient id="paint24_linear_3943_5770" x1="253.477" y1="-4.58471" x2="65.0024" y2="170.183" gradientUnits="userSpaceOnUse">
<stop stop-color="#311944"/>
<stop offset="1" stop-color="#A03976"/>
</linearGradient>
<linearGradient id="paint25_linear_3943_5770" x1="251.184" y1="-15.7732" x2="60.3873" y2="161.146" gradientUnits="userSpaceOnUse">
<stop stop-color="#FF9085"/>
<stop offset="1" stop-color="#FB6FBB"/>
</linearGradient>
<linearGradient id="paint26_linear_3943_5770" x1="253.98" y1="-4.50026" x2="68.2045" y2="167.764" gradientUnits="userSpaceOnUse">
<stop stop-color="#FF9085"/>
<stop offset="1" stop-color="#FB6FBB"/>
</linearGradient>
</defs>
</svg>
