<svg width="96" height="96" viewBox="0 0 96 96" fill="none" xmlns="http://www.w3.org/2000/svg">
<path d="M2.92349 93.6772C2.92349 93.6772 3.36544 93.5624 4.11455 93.3027C10.9567 90.4559 15.3033 86.3386 17.0409 84.4639C20.0491 81.157 22.4136 77.0052 22.3841 72.3013C22.3841 71.0929 22.2405 69.8246 21.9024 68.4619C20.6274 63.2188 17.337 56.5911 14.2205 49.1647C11.1298 41.7229 8.2004 33.3368 8.18788 24.0503C8.16431 17.4284 9.76786 10.4167 13.6696 3.40796C8.93478 7.41559 -2.89998 19.7632 1.44 40.2688C5.99137 61.7757 15.5353 76.3637 2.92349 93.6772Z" fill="#E54C3A"/>
<path d="M85.159 47.801C88.8537 45.5876 91.5056 42.6623 93.1029 39.0347C94.698 35.4093 95.5 31.9328 95.5 28.6076C95.5 24.6783 94.9764 21.0283 93.9256 17.6524C92.8747 14.278 91.1541 11.3303 88.7547 8.81163C86.3591 6.29441 83.2885 4.30446 79.5392 2.84179C75.7921 1.3821 71.2231 0.650024 65.8292 0.650024H27.0285C27.0056 0.938984 26.9805 1.3821 26.9805 1.96821C27.0233 4.86004 27.5417 10.7189 31.7053 17.2749H31.7585L31.7496 17.254H67.5979C67.8275 17.254 68.0314 17.2682 68.25 17.2749H68.3748C68.4545 17.2749 68.5313 17.2845 68.6111 17.2868C68.7462 17.2935 68.8843 17.2979 69.0143 17.3061C69.2779 17.321 69.5379 17.3456 69.7941 17.3806C72.1026 17.6398 73.3928 18.2222 73.3928 18.2222C73.3928 18.2222 81.2325 20.5971 86.4026 31.194C86.4026 31.194 83.956 32.2091 80.6779 34.8641C76.4914 38.5692 73.0124 42.2527 70.6005 46.6653C69.0667 49.4364 67.88 52.6589 66.5352 56.1145H68.374C71.2718 56.1145 73.7701 57.2242 75.8667 59.439C77.9655 61.6554 79.0163 64.2255 79.0163 67.1471C79.0163 70.672 78.0157 73.5184 76.0188 75.6833C74.0183 77.852 71.421 78.9326 68.2248 78.9326H53.2181C50.4658 82.097 47.4025 85.0157 44.0003 87.5589C39.9106 90.6153 35.8844 93.1393 31.5716 95.5574H65.8299C71.2246 95.5574 75.8165 94.7524 79.6145 93.1393C83.4133 91.5269 86.4861 89.4118 88.8323 86.7926C91.1777 84.1726 92.8755 81.1773 93.9256 77.8006C94.9764 74.4255 95.5 70.9751 95.5 67.4502C95.5 63.7228 94.6766 60.0706 93.0283 56.4936C91.3793 52.9166 88.7547 50.0188 85.159 47.801Z" fill="#26A75C"/>
<path d="M55.8747 24.2798C49.3795 24.6383 42.9211 24.3669 42.9218 24.3698C40.659 24.2659 38.7417 24.1109 38.7417 24.1109C49.0812 38.7794 45.9485 51.8183 45.9485 51.8183C45.0587 46.7164 43.9472 38.1394 33.7086 30.0408C16.4651 16.0978 19.0733 0.740967 19.0733 0.740967C-1.40673 27.1398 19.3194 49.4191 23.7529 67.2739C28.1879 85.133 7.7439 95.6484 7.7439 95.6484C12.679 95.0822 19.9543 93.0839 25.1369 90.2744C29.675 87.8101 33.7484 85.3152 37.9285 82.2416C44.4775 77.4242 49.7912 71.0474 53.8012 64.0321C54.9672 61.9913 56.0301 59.8965 56.9855 57.7496C59.0715 53.072 60.5631 48.1588 63.0623 43.6633C65.9048 38.5505 69.8758 34.4975 74.2688 30.6727C74.3255 30.6245 75.493 29.6012 75.5423 29.6553C70.6713 24.2798 62.3714 23.9222 55.8747 24.2798ZM66.9051 29.0372C66.3902 29.0372 65.9719 28.6232 65.9719 28.1112C65.9719 27.5992 66.3895 27.1852 66.9051 27.1852C67.4207 27.1852 67.8376 27.5992 67.8376 28.1112C67.8369 28.6232 67.42 29.0372 66.9051 29.0372Z" fill="#FAD117"/>
</svg>
