<svg width="24" height="25" viewBox="0 0 24 25" fill="none" xmlns="http://www.w3.org/2000/svg">
<path d="M22 16.5C22 19.3284 22 20.7426 21.1213 21.6213C20.2426 22.5 18.8284 22.5 16 22.5L8 22.5C5.17157 22.5 3.75736 22.5 2.87868 21.6213C2 20.7426 2 19.3284 2 16.5L2 12.5C2 9.67157 2 8.25736 2.87868 7.37868C3.75736 6.5 5.17157 6.5 8 6.5L16 6.5C18.8284 6.5 20.2426 6.5 21.1213 7.37868C22 8.25736 22 9.67157 22 12.5V16.5Z" stroke="#1C274C" stroke-width="1.5"/>
<path opacity="0.5" d="M9 2.5L12 6L15 2.5" stroke="#1C274C" stroke-width="1.5" stroke-linecap="round"/>
<path d="M16 6.5V22.5" stroke="#1C274C" stroke-width="1.5" stroke-linecap="round"/>
<path opacity="0.5" d="M20 16.5C20 15.9477 19.5523 15.5 19 15.5C18.4477 15.5 18 15.9477 18 16.5C18 17.0523 18.4477 17.5 19 17.5C19.5523 17.5 20 17.0523 20 16.5Z" fill="#1C274C"/>
<path opacity="0.5" d="M20 12.5C20 11.9477 19.5523 11.5 19 11.5C18.4477 11.5 18 11.9477 18 12.5C18 13.0523 18.4477 13.5 19 13.5C19.5523 13.5 20 13.0523 20 12.5Z" fill="#1C274C"/>
</svg>
