<svg width="106" height="105" viewBox="0 0 106 105" fill="none" xmlns="http://www.w3.org/2000/svg">
<path d="M66.6894 37.2072H63.0256V46.3667H66.6894V37.2072Z" fill="black"/>
<path d="M74.0171 37.2072H70.3533V46.3667H74.0171V37.2072Z" fill="black"/>
<path d="M66.6894 50.0305H63.0256V53.6943H66.6894V50.0305Z" fill="black"/>
<path d="M74.0171 50.0305H70.3533V53.6943H74.0171V50.0305Z" fill="black"/>
<path d="M53.8662 57.3581H50.2024V61.0219H53.8662V57.3581Z" fill="black"/>
<path d="M44.7068 93.9961H41.043V97.6599H44.7068V93.9961Z" fill="black"/>
<path d="M74.0171 57.3581H70.3533V61.0219H74.0171V57.3581Z" fill="black"/>
<path d="M66.6894 64.6857H63.0256V68.3495H66.6894V64.6857Z" fill="black"/>
<path d="M74.0171 64.6857H70.3533V68.3495H74.0171V64.6857Z" fill="black"/>
<path d="M0.741211 4.23311V26.2159C0.741211 27.2271 1.5619 28.0478 2.57311 28.0478H24.5559C25.5671 28.0478 26.3878 27.2271 26.3878 26.2159V4.23311C26.3878 3.2219 25.5671 2.40121 24.5559 2.40121H2.57311C1.5619 2.40121 0.741211 3.2219 0.741211 4.23311ZM4.405 6.06501H22.724V24.384H4.405V6.06501Z" fill="black"/>
<path d="M17.2283 9.72879H9.90074C8.88954 9.72879 8.06885 10.5495 8.06885 11.5607V18.8883C8.06885 19.8995 8.88954 20.7202 9.90074 20.7202H17.2283C18.2395 20.7202 19.0602 19.8995 19.0602 18.8883V11.5607C19.0602 10.5495 18.2395 9.72879 17.2283 9.72879ZM15.3964 17.0564H11.7326V13.3926H15.3964V17.0564Z" fill="black"/>
<path d="M79.5128 28.0478H101.496C102.507 28.0478 103.327 27.2271 103.327 26.2159V4.23311C103.327 3.2219 102.507 2.40121 101.496 2.40121H79.5128C78.5016 2.40121 77.6809 3.2219 77.6809 4.23311V26.2159C77.6809 27.2271 78.5016 28.0478 79.5128 28.0478ZM81.3447 6.06501H99.6637V24.384H81.3447V6.06501Z" fill="black"/>
<path d="M94.168 9.72879H86.8404C85.8292 9.72879 85.0085 10.5495 85.0085 11.5607V18.8883C85.0085 19.8995 85.8292 20.7202 86.8404 20.7202H94.168C95.1792 20.7202 95.9999 19.8995 95.9999 18.8883V11.5607C95.9999 10.5495 95.1792 9.72879 94.168 9.72879ZM92.3361 17.0564H88.6723V13.3926H92.3361V17.0564Z" fill="black"/>
<path d="M24.5559 79.3409H2.57311C1.5619 79.3409 0.741211 80.1616 0.741211 81.1728V103.156C0.741211 104.167 1.5619 104.987 2.57311 104.987H24.5559C25.5671 104.987 26.3878 104.167 26.3878 103.156V81.1728C26.3878 80.1616 25.5671 79.3409 24.5559 79.3409ZM22.724 101.324H4.405V83.0047H22.724V101.324Z" fill="black"/>
<path d="M9.90074 97.6599H17.2283C18.2395 97.6599 19.0602 96.8392 19.0602 95.828V88.5004C19.0602 87.4892 18.2395 86.6685 17.2283 86.6685H9.90074C8.88954 86.6685 8.06885 87.4892 8.06885 88.5004V95.828C8.06885 96.8392 8.88954 97.6599 9.90074 97.6599ZM11.7326 90.3323H15.3964V93.9961H11.7326V90.3323Z" fill="black"/>
<path d="M74.0171 29.8796H61.1938V7.89688H57.53V31.7115C57.53 32.7227 58.3507 33.5434 59.3619 33.5434H74.0171V29.8796Z" fill="black"/>
<path d="M46.5386 17.0564H33.7153V20.7202H46.5386V17.0564Z" fill="black"/>
<path d="M53.8662 9.72879H41.043V13.3926H53.8662V9.72879Z" fill="black"/>
<path d="M4.405 29.8797H0.741211V46.3667H4.405V29.8797Z" fill="black"/>
<path d="M26.3878 40.871H8.06885V44.5348H24.5559V51.8624H28.2197V42.7029C28.2197 41.6917 27.399 40.871 26.3878 40.871Z" fill="black"/>
<path d="M13.5644 31.7115H9.90063V35.3753H13.5644V31.7115Z" fill="black"/>
<path d="M35.5473 28.0478H31.8835V42.7029H35.5473V28.0478Z" fill="black"/>
<path d="M48.3706 46.3667H31.8835V50.0305H48.3706V46.3667Z" fill="black"/>
<path d="M105.159 48.1986H101.495V66.5176H95.9998V70.1814H103.327C104.339 70.1814 105.159 69.3607 105.159 68.3495V48.1986Z" fill="black"/>
<path d="M44.7068 28.0478H41.043V31.7116H44.7068V28.0478Z" fill="black"/>
<path d="M4.405 55.5262H0.741211V70.1814H4.405V55.5262Z" fill="black"/>
<path d="M17.2283 72.0133H0.741211V75.6771H17.2283V72.0133Z" fill="black"/>
<path d="M85.0085 46.3667H88.6723V39.0391C88.6723 38.0279 87.8516 37.2072 86.8404 37.2072H77.6809V40.871H85.0085V46.3667Z" fill="black"/>
<path d="M13.5644 55.5262H9.90063V59.19H13.5644V55.5262Z" fill="black"/>
<path d="M33.7153 53.6943H30.0515V68.3495H33.7153V53.6943Z" fill="black"/>
<path d="M46.5386 72.0133H30.0515V75.6771H46.5386V72.0133Z" fill="black"/>
<path d="M24.5559 64.6857H8.06885V68.3495H24.5559V64.6857Z" fill="black"/>
<path d="M35.5473 90.3323H31.8835V97.6599H35.5473V90.3323Z" fill="black"/>
<path d="M46.5386 83.0046H30.0515V86.6684H46.5386V83.0046Z" fill="black"/>
<path d="M59.3618 75.6771V66.5176C59.3618 65.5064 58.5411 64.6857 57.5299 64.6857H39.2109V68.3495H55.698V75.6771H59.3618Z" fill="black"/>
<path d="M44.7068 53.6943H41.043V57.3581H44.7068V53.6943Z" fill="black"/>
<path d="M24.5559 57.3581H20.8921V61.0219H24.5559V57.3581Z" fill="black"/>
<path d="M105.159 92.1642H101.496V104.987H105.159V92.1642Z" fill="black"/>
<path d="M97.8316 101.324H92.3359V104.987H97.8316V101.324Z" fill="black"/>
<path d="M95.9997 90.3323H92.3359V97.6599H95.9997V90.3323Z" fill="black"/>
<path d="M105.159 75.6771C105.159 74.6659 104.339 73.8452 103.327 73.8452H83.1765V77.509H101.495V88.5004H105.159V75.6771Z" fill="black"/>
<path d="M81.3446 97.6599V88.5004C81.3446 87.4892 80.5239 86.6685 79.5127 86.6685H59.3618V90.3323H77.6808V97.6599H81.3446Z" fill="black"/>
<path d="M97.8318 81.1728H85.0085V84.8366H97.8318V81.1728Z" fill="black"/>
<path d="M42.8748 101.324H30.0515V104.987H42.8748V101.324Z" fill="black"/>
<path d="M52.0344 88.5004H48.3706V104.987H52.0344V88.5004Z" fill="black"/>
<path d="M59.362 79.3409H52.0344V83.0047H59.362V79.3409Z" fill="black"/>
<path d="M79.5128 61.0219H88.6723V57.3581H81.3447V46.3667H77.6809V59.19C77.6809 60.2012 78.5016 61.0219 79.5128 61.0219Z" fill="black"/>
<path d="M94.168 50.0305H85.0085V53.6943H94.168V50.0305Z" fill="black"/>
<path d="M97.8316 31.7115H92.3359V35.3753H97.8316V31.7115Z" fill="black"/>
<path d="M105.159 31.7115H101.496V40.871H105.159V31.7115Z" fill="black"/>
<path d="M95.9997 40.871H92.3359V44.5348H95.9997V40.871Z" fill="black"/>
<path d="M64.8577 26.2159H72.1852C73.1965 26.2159 74.0171 25.3952 74.0171 24.384V0.569305H70.3534V22.5521H64.8577V26.2159Z" fill="black"/>
<path d="M37.3791 4.2331H64.8576V0.569305H35.5472C34.536 0.569305 33.7153 1.39 33.7153 2.4012V11.5607H37.3791V4.2331Z" fill="black"/>
<path d="M39.2109 39.0391H52.0342C53.0454 39.0391 53.8661 38.2184 53.8661 37.2072V22.5521H50.2023V35.3753H39.2109V39.0391Z" fill="black"/>
<path d="M59.3618 37.2072H55.698V44.5348H59.3618V37.2072Z" fill="black"/>
<path d="M72.1851 93.9961H59.3618V97.6599H72.1851V93.9961Z" fill="black"/>
<path d="M75.8489 101.324H59.3618V104.987H75.8489V101.324Z" fill="black"/>
<path d="M85.0085 101.324H81.3447V104.987H86.8404C87.8516 104.987 88.6723 104.167 88.6723 103.156V88.5004H85.0085V101.324Z" fill="black"/>
<path d="M26.3877 72.0133H22.7239V75.6771H26.3877V72.0133Z" fill="black"/>
<path d="M72.1853 72.0133H64.8577V75.6771H72.1853V72.0133Z" fill="black"/>
<path d="M81.3447 64.6857H77.6809V70.1814H81.3447V64.6857Z" fill="black"/>
<path d="M79.5127 73.8452H75.8489V77.509H79.5127V73.8452Z" fill="black"/>
<path d="M70.3534 79.3409H64.8577V83.0047H70.3534V79.3409Z" fill="black"/>
<path d="M88.6723 64.6857H85.0085V68.3495H88.6723V64.6857Z" fill="black"/>
<path d="M97.8316 57.3581H92.3359V61.0219H97.8316V57.3581Z" fill="black"/>
<path d="M66.6895 57.3581H57.53V61.0219H66.6895V57.3581Z" fill="black"/>
<path d="M59.3618 48.1986H55.698V53.6943H59.3618V48.1986Z" fill="black"/>
</svg>
