<svg width="375" height="375" viewBox="0 0 375 375" fill="none" xmlns="http://www.w3.org/2000/svg">
<g clip-path="url(#clip0_3957_5874)">
<path d="M375 0H0V375H375V0Z" fill="#F9C9BE"/>
<path d="M297.287 301.53C355.936 242.881 355.936 147.791 297.287 89.1417C238.637 30.4921 143.548 30.4921 84.898 89.1417C26.2485 147.791 26.2485 242.881 84.898 301.53C143.548 360.18 238.637 360.18 297.287 301.53Z" fill="#FDEBE5"/>
<path d="M309.098 298.691C303.839 289.778 299.992 280.034 297.742 269.933C297.303 267.963 296.927 265.886 297.5 263.95C298.073 262.014 299.894 260.298 301.9 260.53C303.274 260.689 304.39 261.677 305.369 262.655C308.46 265.743 311.177 269.207 313.439 272.945C310.426 260.548 309.596 247.623 310.998 234.942C311.231 232.84 312.193 230.15 314.304 230.274C315.718 230.357 316.646 231.745 317.311 232.995C322.763 243.242 326.092 254.612 327.029 266.182C327.122 252.485 330.444 238.822 336.652 226.613C337.544 224.857 338.819 222.913 340.784 222.783C343.853 222.581 345.108 226.626 345.26 229.698C346.027 245.156 344.99 260.704 342.179 275.924C344.412 267.703 349.015 260.141 355.292 254.381C356.435 253.331 358.147 252.301 359.414 253.196C360.066 253.657 360.332 254.485 360.507 255.263C362.675 264.878 357.342 274.43 352.148 282.806C355.208 280.25 358.7 278.213 362.432 276.809C363.335 276.468 364.35 276.166 365.246 276.528C367.041 277.254 366.925 279.821 366.38 281.679C363.785 290.512 358.568 298.556 351.562 304.527H310.835L309.098 298.691Z" fill="#618EB5"/>
<path d="M285.836 301.746C281.261 296.047 278.493 288.919 278.024 281.626C277.917 279.961 278.255 277.83 279.872 277.416C280.61 277.228 281.385 277.493 282.066 277.833C284.041 278.819 285.67 280.482 286.616 282.476C286.458 278.146 286.673 273.802 287.257 269.508C287.53 267.501 288.464 264.987 290.489 265.025C292.357 265.06 293.282 267.271 293.693 269.092C294.88 274.339 295.688 279.672 296.112 285.035C296.689 281.638 297.671 278.311 299.029 275.146C299.65 273.698 300.723 272.055 302.293 272.179C304.361 272.344 304.796 275.162 304.637 277.231C304.326 281.292 304.015 285.353 303.704 289.414C305.459 287.142 307.214 284.869 308.97 282.596C309.746 281.591 310.744 280.481 312.011 280.582C313.099 280.669 313.928 281.692 314.147 282.763C314.367 283.832 314.113 284.937 313.841 285.994C312.448 291.406 310.54 296.683 308.151 301.735L285.836 301.746Z" fill="#98C5EB"/>
<path d="M82.0007 301.012C89.0964 288.984 94.2887 275.836 97.3247 262.205C97.9172 259.545 98.4234 256.742 97.6502 254.129C96.8769 251.517 94.4199 249.201 91.7139 249.514C89.8599 249.728 88.3532 251.062 87.0332 252.38C82.8609 256.547 79.1949 261.222 76.1424 266.267C80.2082 249.537 81.3279 232.096 79.4357 214.984C79.1222 212.147 77.8239 208.517 74.9747 208.685C73.0667 208.797 71.8142 210.669 70.9164 212.357C63.5597 226.185 59.0664 241.529 57.8019 257.141C57.6774 238.658 53.1939 220.219 44.8172 203.744C43.6127 201.375 41.8929 198.751 39.2417 198.576C35.1002 198.304 33.4059 203.762 33.2004 207.908C32.1662 228.768 33.5642 249.748 37.3577 270.287C34.3449 259.193 28.1334 248.988 19.6637 241.215C18.1202 239.799 15.8102 238.409 14.0994 239.618C13.2204 240.239 12.8619 241.357 12.6257 242.407C9.69919 255.38 16.8969 268.271 23.9049 279.575C19.7762 276.125 15.0632 273.377 10.0284 271.482C8.80894 271.023 7.43944 270.615 6.23118 271.103C3.80869 272.084 3.96469 275.547 4.70119 278.054C8.20144 289.973 15.2424 300.829 24.6969 308.887H79.6562L82.0007 301.012Z" fill="#98C5EB"/>
<path d="M95.6633 301.746C101.837 294.055 105.572 284.437 106.205 274.595C106.349 272.347 105.893 269.472 103.712 268.913C102.717 268.659 101.67 269.017 100.751 269.476C98.0865 270.808 95.8883 273.051 94.6118 275.742C94.824 269.898 94.5345 264.036 93.7463 258.242C93.378 255.534 92.1165 252.141 89.3843 252.193C86.8643 252.24 85.6163 255.223 85.0605 257.681C83.4593 264.762 82.368 271.958 81.7965 279.195C81.018 274.612 79.6943 270.121 77.8605 265.849C77.0228 263.896 75.5745 261.679 73.4558 261.847C70.6658 262.069 70.0778 265.872 70.2915 268.663C70.7115 274.143 71.1315 279.623 71.5515 285.103C69.1823 282.037 66.813 278.97 64.4445 275.902C63.3968 274.546 62.0505 273.049 60.342 273.184C58.8728 273.301 57.7553 274.683 57.459 276.126C57.1628 277.57 57.5055 279.06 57.8723 280.487C59.7518 287.789 62.3265 294.912 65.55 301.728L95.6633 301.746Z" fill="#618EB5"/>
<path d="M0 310.842C0 310.842 184.606 268.945 375 308.847V375H0V310.842Z" fill="white"/>
<path d="M186.124 175.252C186.124 175.252 185.842 175.297 185.412 175.342C184.984 175.385 184.41 175.409 183.835 175.411C183.262 175.404 182.688 175.375 182.26 175.325C181.831 175.277 181.549 175.226 181.549 175.226C181.47 175.213 181.416 175.138 181.429 175.06C181.44 174.99 181.502 174.94 181.571 174.938C181.571 174.938 181.855 174.937 182.282 174.934C182.707 174.938 183.274 174.943 183.84 174.949C184.406 174.956 184.973 174.964 185.398 174.97C185.824 174.981 186.109 174.988 186.109 174.988C186.183 174.99 186.241 175.051 186.239 175.124C186.237 175.189 186.186 175.243 186.124 175.252Z" fill="#222221"/>
<path d="M78.0352 111.006H16.3574C16.7692 105.722 17.2537 100.471 20.8769 96.6037C24.5002 92.736 29.8379 90.3757 35.1172 90.846C40.3964 91.3155 45.4229 94.8255 47.2072 99.8168C50.1412 97.038 54.3922 95.715 58.3852 96.3375C62.3782 96.96 66.0247 99.513 67.9739 103.053C68.2327 103.523 68.5057 104.049 69.0074 104.241C69.3877 104.387 69.8114 104.303 70.2149 104.254C74.1037 103.781 77.9722 107.346 77.8177 111.261" fill="white"/>
<path d="M287.401 51.2317H349.079C348.667 45.948 348.182 40.6972 344.559 36.8295C340.936 32.961 335.598 30.6015 330.319 31.0717C325.04 31.5412 320.013 35.0512 318.229 40.0425C315.294 37.2645 311.044 35.9407 307.051 36.5632C303.058 37.1857 299.411 39.7395 297.462 43.2787C297.203 43.749 296.93 44.2747 296.429 44.4667C296.048 44.613 295.625 44.529 295.22 44.4802C291.332 44.007 287.463 47.5717 287.618 51.4867" fill="white"/>
<path d="M209.161 155.917C217.304 184.116 214.852 225.029 212.581 258.101C211.372 275.686 210.955 304.378 207.601 324.748H194.329C191.803 285.91 188.818 206.503 187.826 182.194C187.08 207.399 185.182 299.611 183.184 324.748H169.44C166.642 308.332 164.82 260.213 164.82 260.213C155.413 209.15 161.111 168.747 163.563 156.715" fill="#54A6DF"/>
<path d="M246.916 107.186C245.088 106.709 243.261 106.232 241.432 105.757C236.154 104.384 227.293 101.908 221.06 100.291L216.619 114.452C217.68 114.695 244.752 121.079 245.613 121.304L246.916 107.186Z" fill="#F7C5B4"/>
<path d="M127.51 107.259C129.338 106.782 131.165 106.305 132.994 105.829C138.272 104.457 147.133 101.98 153.366 100.363L157.807 114.525C156.746 114.767 129.674 121.152 128.813 121.376L127.51 107.259Z" fill="#F7C5B4"/>
<path d="M201.577 51.3315C202.351 59.6632 209.982 65.577 213.242 73.2832C214.471 76.1865 215.065 79.3567 214.971 82.5082C214.852 86.4802 213.57 90.5197 210.854 93.4215C209.067 95.331 206.755 96.6682 204.382 97.77C195.263 102.007 184.71 103.081 174.924 100.768C171.158 99.8775 167.37 98.4135 164.716 95.5972C161.386 92.0632 160.354 86.5417 162.181 82.0432C162.889 80.301 163.975 78.729 164.647 76.9725C166.178 72.9682 165.409 68.5117 165.406 64.2255C165.403 57.483 167.557 50.5192 172.382 45.81C177.208 41.1015 184.948 39.1605 190.996 42.1425" fill="#B46E73"/>
<path opacity="0.55" d="M198.238 57.3787C198.819 64.4895 204.556 69.5362 207.007 76.1122C207.93 78.5902 208.377 81.2955 208.306 83.985C208.217 87.375 207.252 90.822 205.212 93.2985C203.868 94.9282 202.13 96.069 200.347 97.0095C193.492 100.625 185.559 101.542 178.203 99.5677C175.371 98.808 172.524 97.5585 170.529 95.1547C168.027 92.1382 167.25 87.4267 168.624 83.5875C169.155 82.1002 169.972 80.7592 170.477 79.26C171.628 75.843 171.049 72.0397 171.047 68.3812C171.044 62.6272 172.663 56.6835 176.291 52.665C176.291 52.665 181.797 47.9625 188.832 48.75C195.867 49.5375 197.937 56.3325 197.937 56.3325" fill="#B46E73"/>
<path d="M196.61 94.299C204.46 95.4915 212.563 96.7935 221.815 98.3032C220.803 105.384 219.316 111.415 216.236 116.816L216.24 116.778C213.823 116.455 211.126 116.134 209.161 115.811C208.967 125.544 210.65 135.664 212.452 145.229C212.914 147.68 213.424 150.301 212.452 152.597C210.841 156.398 205.248 157.562 201.163 158.155C197.077 158.749 192.924 158.392 188.798 158.25C184.174 158.092 179.54 158.206 174.93 158.595C170.991 158.926 166.548 159.307 163.564 156.714C160.501 154.053 160.753 149.904 160.822 145.848L161.034 143.226C162.355 134.559 164.036 125.538 163.862 116.815C162.145 117.097 159.853 117.373 157.681 117.652L157.662 117.496C153.75 111.649 153.25 106.234 151.45 99.4342C160.456 97.599 167.653 95.7877 177.457 94.2982L196.61 94.299Z" fill="#FCCA43"/>
<path d="M160.208 117.331C159.375 117.438 158.518 117.545 157.68 117.652C153.768 111.805 153.249 106.234 151.449 99.4342C152.402 99.24 153.334 99.0465 154.252 98.853C154.252 98.853 154.839 104.125 157.372 110.494C159.906 116.863 160.208 117.331 160.208 117.331Z" fill="#FFF3A3"/>
<path opacity="0.69" d="M156.078 114.926C153.763 110.403 153.07 105.904 151.777 100.714L148.976 101.524C148.976 101.524 150 107.803 154.36 115.422L156.078 114.926Z" fill="#F7C5B4"/>
<path d="M213.653 116.441C214.521 116.554 215.398 116.666 216.24 116.778L216.236 116.816C219.316 111.415 220.802 105.384 221.815 98.3032C220.913 98.1562 220.023 98.0107 219.143 97.8675C219.143 97.8675 217.066 106.9 215.36 111.67L213.653 116.441Z" fill="#FFF3A3"/>
<path opacity="0.69" d="M217.381 114.63C219.448 110.324 220.634 105.728 221.493 100.411L223.359 100.894C223.359 100.894 223.094 110.035 220.375 115.334L217.381 114.63Z" fill="#F7C5B4"/>
<path opacity="0.64" d="M163.847 156.949C166.825 159.284 171.113 158.917 174.929 158.596C179.54 158.208 184.174 158.092 188.797 158.251C192.923 158.392 197.077 158.749 201.162 158.156C203.715 157.785 206.857 157.192 209.248 155.87C209.248 155.87 209.055 159.84 197.246 159.696C185.437 159.552 174.986 160.179 174.986 160.179C174.986 160.179 166.057 161.815 163.847 156.949Z" fill="#54A6DF"/>
<path d="M179.677 85.719L178.719 93.846L173.753 94.7145C173.753 94.7145 174.366 100.948 182.556 103.065C186.764 104.152 191.281 102.817 191.281 102.817C198.663 100.238 199.325 94.7145 199.325 94.7145L193.592 93.7117L192.771 85.719H179.677Z" fill="#F7C5B4"/>
<path d="M173.753 94.7145C173.753 94.7145 174.366 100.948 182.556 103.065C186.764 104.152 191.281 102.817 191.281 102.817C198.663 100.238 199.325 94.7145 199.325 94.7145L202.541 95.2125C202.541 95.2125 200.226 106.773 186.218 106.712C172.21 106.651 170.762 95.427 170.762 95.427L173.753 94.7145Z" fill="#FFF3A3"/>
<path d="M171.258 54.1373C170.062 60.6113 171.235 70.4003 172.623 75.549C173.188 77.6415 173.794 79.8053 175.142 81.5025C181.8 89.889 190.675 87.2385 193.592 85.3208C195.882 83.8163 197.704 81.75 198.76 79.2218C201.453 72.771 202.558 65.6633 201.95 58.6995C201.95 58.6995 203.706 44.0303 185.118 44.0303C185.118 44.0303 173.254 43.3268 171.258 54.1373Z" fill="#F7C5B4"/>
<path d="M171.312 66.1155C171.159 65.649 170.889 65.1908 170.419 65.0475C169.95 64.9043 169.402 65.0633 169.083 65.4368C168.762 65.8103 168.685 66.3323 168.664 66.8243C168.634 67.5105 168.685 68.2005 168.817 68.8748C168.951 69.564 169.196 70.2788 169.746 70.716C170.296 71.1533 171.221 71.1705 171.62 70.5923C171.62 70.5923 172.026 68.2995 171.312 66.1155Z" fill="#F7C5B4"/>
<path d="M170.294 66.54C170.294 66.54 170.422 66.6758 170.577 66.927C170.726 67.1753 170.883 67.533 170.977 67.911C171.056 68.292 171.064 68.6835 171.036 68.9723C171.004 69.2618 170.944 69.4455 170.944 69.4455C170.93 69.4913 170.883 69.5175 170.837 69.5048C170.797 69.4935 170.772 69.4515 170.776 69.411C170.776 69.411 170.799 69.2288 170.806 68.9565C170.822 68.685 170.793 68.3213 170.71 67.9703C170.641 67.6155 170.512 67.2735 170.385 67.0328C170.268 66.792 170.165 66.6308 170.165 66.6308C170.142 66.594 170.152 66.546 170.189 66.522C170.221 66.5018 170.263 66.507 170.289 66.534L170.294 66.54Z" fill="#DA806C"/>
<path d="M170.883 68.2268C170.883 68.2268 170.767 68.2845 170.619 68.3783C170.463 68.4668 170.271 68.6115 170.108 68.784C169.936 68.946 169.786 69.1328 169.696 69.288C169.599 69.4388 169.541 69.546 169.541 69.546C169.519 69.588 169.465 69.6038 169.423 69.5805C169.389 69.5618 169.373 69.5198 169.381 69.483C169.381 69.483 169.408 69.354 169.495 69.1755C169.584 68.9993 169.731 68.7773 169.917 68.5875C170.113 68.409 170.338 68.2673 170.517 68.184C170.702 68.1023 170.825 68.0798 170.825 68.0798L170.833 68.0783C170.876 68.07 170.917 68.0985 170.925 68.1413C170.932 68.1773 170.914 68.2118 170.883 68.2268Z" fill="#DA806C"/>
<path d="M186.389 65.7128C186.389 65.7128 186.433 65.7998 186.492 66.0128C186.546 66.2085 186.605 66.471 186.67 66.792C186.798 67.4325 186.934 68.2868 187.047 69.1463C187.099 69.5775 187.151 70.0043 187.187 70.4175C187.2 70.623 187.23 70.8503 187.164 71.0955C187.13 71.2215 187.085 71.3318 186.993 71.4548C186.972 71.4818 186.936 71.526 186.879 71.5808C186.832 71.6235 186.791 71.658 186.746 71.688C186.567 71.8103 186.395 71.8523 186.252 71.8905C186.108 71.9265 185.986 71.94 185.886 71.9453C185.686 71.961 185.577 71.9528 185.577 71.9528L185.568 71.952C185.457 71.9445 185.373 71.8485 185.381 71.7375C185.387 71.6528 185.445 71.5838 185.52 71.5598C185.52 71.5598 185.621 71.5275 185.796 71.4713C185.961 71.4105 186.219 71.34 186.393 71.1945C186.414 71.1795 186.435 71.1585 186.45 71.1443C186.454 71.1405 186.474 71.1195 186.504 71.076C186.515 71.058 186.543 71.0003 186.552 70.9455C186.574 70.8285 186.585 70.659 186.567 70.4633C186.54 70.0703 186.498 69.6398 186.454 69.2138C186.365 68.3595 186.276 67.506 186.208 66.8655C186.174 66.5475 186.135 66.2798 186.106 66.1073C186.087 65.9505 186.048 65.8373 186.048 65.8373C186.015 65.742 186.066 65.6393 186.161 65.607C186.247 65.5778 186.341 65.6175 186.381 65.6963L186.389 65.7128Z" fill="#DA806C"/>
<path d="M183.841 74.0873C183.841 74.0873 183.885 74.1405 183.961 74.2335C184.033 74.337 184.147 74.4458 184.269 74.5823C184.535 74.8493 184.916 75.1635 185.371 75.2873C185.817 75.4395 186.322 75.4238 186.706 75.3893C187.09 75.3518 187.357 75.3105 187.357 75.3105C187.474 75.2925 187.582 75.372 187.6 75.4883C187.615 75.5805 187.567 75.669 187.488 75.7095L187.48 75.714C187.48 75.714 187.226 75.8445 186.803 75.9525C186.386 76.0643 185.767 76.1213 185.165 75.9293C184.869 75.8318 184.594 75.6713 184.37 75.492C184.141 75.315 183.982 75.1005 183.848 74.925C183.721 74.7375 183.633 74.5688 183.587 74.4638C183.539 74.3528 183.511 74.2898 183.511 74.2898C183.469 74.1908 183.514 74.076 183.612 74.0333C183.694 73.9973 183.787 74.0228 183.841 74.0873Z" fill="#DA806C"/>
<path d="M189.364 41.5882C187.542 41.826 181.48 38.1157 171.634 47.367C170.235 48.681 164.121 58.0155 169.863 63.9637C170.056 64.1632 169.964 64.518 170.112 64.7535C170.26 64.9882 170.528 65.1697 170.803 65.1307C171.127 65.0842 171.334 64.7722 171.487 64.4842C171.78 63.9375 172.026 63.3667 172.237 62.784C172.24 62.7832 172.243 62.7832 172.245 62.7825C176.014 61.548 179.729 60.0607 182.779 58.2322C184.031 57.4822 185.252 56.5717 185.949 55.29C185.394 56.31 184.839 57.33 184.284 58.3492C189.028 57.36 193.475 54.9847 196.935 51.591C198.304 50.2477 199.378 48.6817 199.788 46.8075C197.72 43.2037 193.435 41.058 189.364 41.5882Z" fill="#B46E73"/>
<path d="M179.287 85.2698C179.287 85.2698 185.154 89.6618 193.593 85.32C193.593 85.32 186.146 93.5048 179.287 85.2698Z" fill="#F7C5B4"/>
<path d="M184.041 67.7213C184.041 67.7213 184.035 67.884 184.024 68.1885C184.026 68.3378 184.002 68.5335 183.967 68.766C183.944 69.0008 183.888 69.2588 183.813 69.5445C183.661 70.113 183.419 70.8023 182.967 71.4975C182.523 72.1928 181.893 72.912 181.043 73.4843C180.195 74.0535 179.139 74.4803 177.972 74.6258C177.675 74.6535 177.395 74.6738 177.07 74.6723C176.781 74.6558 176.502 74.661 176.181 74.6025C175.547 74.5283 174.952 74.3378 174.356 74.091C173.176 73.578 172.11 72.705 171.351 71.583C170.974 71.0198 170.685 70.3958 170.472 69.744C170.272 69.0863 170.178 68.3993 170.16 67.7108C170.166 67.0485 170.268 66.3293 170.467 65.676C170.68 65.0235 170.97 64.3995 171.346 63.8355C172.107 62.7128 173.173 61.839 174.354 61.3253C175.527 60.81 176.824 60.6548 177.957 60.789C179.155 60.9383 180.192 61.359 181.044 61.935C181.889 62.514 182.522 63.228 182.97 63.9218C183.426 64.6155 183.671 65.3048 183.826 65.8733C183.902 66.1598 183.96 66.4178 183.983 66.6473C184.018 66.8745 184.044 67.068 184.043 67.227C184.056 67.5435 184.062 67.7115 184.062 67.7115L184.041 67.7213ZM183.566 67.71C183.566 67.71 183.556 67.554 183.538 67.2608C183.536 67.1138 183.508 66.9353 183.471 66.7253C183.445 66.5138 183.387 66.2768 183.311 66.0143C183.156 65.493 182.918 64.8645 182.486 64.2383C182.062 63.6113 181.47 62.9723 180.69 62.4623C179.917 61.9598 178.938 61.5803 177.912 61.4633C176.828 61.3493 175.704 61.5068 174.645 61.9793C173.591 62.4518 172.645 63.2453 171.978 64.2548C171.648 64.7618 171.396 65.3205 171.213 65.901C171.04 66.492 170.975 67.0718 170.95 67.71C170.962 68.322 171.036 68.934 171.208 69.5205C171.392 70.1018 171.642 70.6613 171.973 71.1683C172.641 72.1785 173.588 72.9728 174.642 73.4453C175.167 73.671 175.726 73.854 176.26 73.9208C176.516 73.977 176.821 73.9778 177.104 73.9965C177.351 73.9988 177.639 73.9838 177.897 73.9628C178.954 73.8428 179.914 73.4678 180.691 72.9593C181.465 72.4425 182.062 71.8095 182.489 71.184C182.925 70.5593 183.165 69.9308 183.323 69.4088C183.4 69.1448 183.459 68.9085 183.486 68.7023C183.523 68.4983 183.552 68.3213 183.556 68.1645C183.576 67.86 183.587 67.698 183.587 67.698L183.566 67.71Z" fill="#3C3C3B"/>
<path d="M183.795 66.1275C183.795 66.1275 186.636 63.8347 188.815 66.222" stroke="#3C3C3B" stroke-width="0.9769" stroke-miterlimit="10"/>
<path d="M201.624 53.4472C201.644 51.1875 201.135 48.7672 199.944 46.8322C199.944 46.8322 197.431 42.987 195.464 43.359C193.496 43.731 196.635 51.696 196.635 51.696C195.932 54.0262 195.692 56.7247 196.811 58.8862C198.065 61.308 199.119 62.8095 199.989 63.7207L199.986 63.72C199.986 63.72 201.495 65.9812 201.919 66.1155C201.919 66.1155 203.125 66.7485 203.845 65.436C203.844 65.436 202.113 56.8987 201.624 53.4472Z" fill="#B46E73"/>
<path d="M187.105 158.311C187.105 158.311 187.174 159.576 187.251 161.474C187.315 163.373 187.399 165.905 187.484 168.436C187.545 170.968 187.596 173.5 187.611 175.4C187.617 177.299 187.621 178.566 187.621 178.566C187.622 178.671 187.537 178.756 187.432 178.757C187.33 178.757 187.247 178.676 187.242 178.576C187.242 178.576 187.183 177.311 187.096 175.412C187.017 173.514 186.943 170.983 186.879 168.451C186.838 165.918 186.798 163.386 186.768 161.486C186.75 159.587 186.757 158.32 186.757 158.32C186.758 158.224 186.836 158.147 186.932 158.147C187.025 158.147 187.1 158.22 187.105 158.311Z" fill="#222221"/>
<path d="M191.338 158.765C191.338 158.765 191.386 159.842 191.459 161.457C191.523 163.073 191.579 165.227 191.629 167.381C191.635 168.454 191.713 169.538 191.548 170.593C191.466 171.115 191.31 171.626 191.048 172.06C190.921 172.283 190.773 172.469 190.598 172.653C190.461 172.8 190.234 172.974 190.052 173.079C189.66 173.306 189.261 173.395 188.924 173.444C188.585 173.494 188.297 173.51 188.061 173.528C187.591 173.56 187.332 173.592 187.332 173.592C187.228 173.605 187.133 173.531 187.121 173.427C187.108 173.327 187.179 173.234 187.277 173.216C187.277 173.216 187.551 173.168 188.02 173.11C188.479 173.04 189.17 173.003 189.79 172.637C189.95 172.529 190.064 172.45 190.223 172.275C190.341 172.139 190.474 171.969 190.569 171.785C190.775 171.417 190.9 170.975 190.973 170.501C191.119 169.551 191.033 168.47 191.024 167.391C190.993 165.236 190.968 163.082 190.972 161.465C190.984 159.848 190.991 158.77 190.991 158.77C190.992 158.674 191.07 158.597 191.166 158.597C191.258 158.6 191.334 158.674 191.338 158.765Z" fill="#222221"/>
<path d="M199.853 158.75C199.853 158.75 199.931 158.972 200.068 159.359C200.136 159.554 200.262 159.752 200.38 159.998C200.496 160.242 200.695 160.499 200.866 160.792C201.262 161.354 201.767 161.983 202.381 162.594C202.975 163.222 203.683 163.822 204.412 164.39C205.144 164.955 205.912 165.475 206.66 165.913C207.035 166.129 207.405 166.326 207.755 166.512C208.115 166.675 208.445 166.86 208.77 166.976C209.092 167.1 209.382 167.232 209.65 167.309C209.917 167.39 210.145 167.486 210.342 167.52C210.733 167.609 210.956 167.661 210.956 167.661L210.976 167.666C211.078 167.689 211.141 167.79 211.118 167.892C211.096 167.99 211.001 168.053 210.904 168.037C210.904 168.037 210.666 167.998 210.25 167.93C210.039 167.906 209.798 167.824 209.513 167.756C209.225 167.693 208.919 167.576 208.581 167.455C208.237 167.345 207.893 167.167 207.513 167.01C207.144 166.832 206.755 166.641 206.368 166.418C205.594 165.974 204.795 165.452 204.04 164.87C203.296 164.275 202.576 163.647 201.969 162.988C201.65 162.673 201.388 162.325 201.126 162.009C200.875 161.683 200.656 161.359 200.457 161.06C200.281 160.742 200.1 160.47 199.986 160.19C199.873 159.913 199.751 159.673 199.696 159.476C199.585 159.081 199.521 158.855 199.521 158.855C199.495 158.762 199.549 158.666 199.641 158.64C199.73 158.615 199.822 158.665 199.853 158.75Z" fill="#222221"/>
<path d="M171.391 159.318C171.391 159.318 171.329 159.531 171.222 159.904C171.094 160.278 170.886 160.82 170.581 161.419C170.257 162.011 169.87 162.699 169.376 163.381C168.895 164.072 168.332 164.771 167.742 165.445C167.148 166.117 166.504 166.742 165.886 167.312C165.259 167.873 164.637 168.356 164.081 168.74C163.804 168.932 163.548 169.106 163.305 169.238C163.065 169.373 162.865 169.502 162.682 169.583C162.327 169.756 162.124 169.855 162.124 169.855C162.03 169.901 161.917 169.862 161.871 169.768C161.827 169.678 161.861 169.571 161.946 169.521L161.96 169.513C161.96 169.513 162.148 169.405 162.478 169.215C162.646 169.127 162.834 168.988 163.055 168.842C163.279 168.7 163.516 168.515 163.78 168.323C164.308 167.937 164.883 167.429 165.492 166.88C166.091 166.319 166.71 165.698 167.289 165.041C168.469 163.745 169.492 162.312 170.152 161.184C170.471 160.61 170.708 160.136 170.851 159.783C170.984 159.419 171.06 159.21 171.06 159.21C171.092 159.12 171.192 159.073 171.282 159.105C171.369 159.137 171.415 159.231 171.391 159.318Z" fill="#222221"/>
<path d="M215.119 337.496C215.74 338.605 216.217 339.783 216.493 341.048C216.64 341.72 216.721 342.443 216.46 343.079C215.95 344.315 214.402 344.719 213.065 344.762C207.697 344.934 202.663 342.119 198.372 338.889C193.051 334.884 194.38 332.853 195.555 329.421L214.448 336.72L215.119 337.496Z" fill="#0065A3"/>
<path d="M206.606 324.783C206.461 325.953 206.317 327.123 206.173 328.293C206.173 328.293 211.321 333.038 215.119 337.495C215.119 337.495 214.369 336.267 212.373 336.438C208.414 336.778 207.56 339.248 207.245 340.318C205.172 339.614 202.943 338.437 201.133 337.207C201.133 337.207 195.763 333.966 195.554 329.696C195.554 329.696 195.554 326.35 195.554 324.748" fill="#F7C5B4"/>
<path d="M162.799 337.349C162.179 338.458 161.701 339.637 161.425 340.901C161.278 341.573 161.197 342.296 161.459 342.932C161.968 344.168 163.516 344.572 164.854 344.615C170.222 344.788 175.256 341.972 179.547 338.743C184.868 334.738 183.538 332.707 182.364 329.275L163.471 336.574L162.799 337.349Z" fill="#0065A3"/>
<path d="M182.364 324.602C182.364 326.204 182.364 329.55 182.364 329.55C182.155 333.82 176.785 337.061 176.785 337.061C174.974 338.291 172.746 339.468 170.673 340.172C170.358 339.102 169.504 336.632 165.545 336.292C163.549 336.12 162.799 337.349 162.799 337.349C166.597 332.893 171.745 328.147 171.745 328.147C171.601 326.977 171.457 325.807 171.312 324.637L182.364 324.602Z" fill="#F7C5B4"/>
<path d="M201.307 70.5923C201.706 71.1698 202.631 71.1533 203.181 70.716C203.731 70.2788 203.976 69.564 204.11 68.8748C204.241 68.2005 204.293 67.5105 204.263 66.8243C204.241 66.3323 204.165 65.8103 203.845 65.4368C203.525 65.064 202.978 64.905 202.508 65.0475C202.039 65.1908 201.673 65.628 201.616 66.1155L201.307 70.5923Z" fill="#F7C5B4"/>
<path d="M203.117 66.6052C203.117 66.6052 203.006 66.7755 202.873 67.0327C202.729 67.2885 202.573 67.65 202.465 68.025C202.342 68.3955 202.26 68.7795 202.23 69.072C202.192 69.363 202.18 69.5602 202.18 69.5602C202.177 69.6075 202.136 69.6435 202.088 69.6412C202.046 69.6382 202.012 69.603 202.008 69.5625C202.008 69.5625 201.984 69.3585 202 69.051C202.021 68.7442 202.083 68.3362 202.203 67.9425C202.336 67.5532 202.519 67.1835 202.683 66.9232C202.852 66.6607 202.989 66.5145 202.989 66.5145L202.993 66.5092C203.023 66.4777 203.073 66.4755 203.104 66.5055C203.133 66.531 203.137 66.5737 203.117 66.6052Z" fill="#DA806C"/>
<path d="M202.339 68.13C202.339 68.13 202.449 68.1705 202.603 68.2868C202.749 68.403 202.918 68.5883 203.048 68.7998C203.168 69.0173 203.239 69.2543 203.28 69.432C203.315 69.612 203.313 69.7343 203.313 69.7343C203.312 69.7823 203.273 69.8213 203.225 69.8205C203.187 69.8198 203.155 69.7943 203.143 69.7598C203.143 69.7598 203.109 69.6518 203.058 69.4905C203.01 69.33 202.925 69.1223 202.81 68.9355C202.712 68.739 202.577 68.5635 202.458 68.451C202.348 68.3355 202.253 68.262 202.253 68.262C202.219 68.2358 202.213 68.1863 202.239 68.1518C202.261 68.124 202.297 68.1143 202.328 68.1263L202.339 68.13Z" fill="#DA806C"/>
<path d="M202.32 67.7212C202.32 67.7212 202.314 67.884 202.303 68.1885C202.305 68.3377 202.281 68.5335 202.246 68.766C202.223 69.0007 202.167 69.2587 202.092 69.5445C201.94 70.113 201.698 70.8022 201.245 71.4975C200.801 72.1927 200.172 72.912 199.321 73.4842C198.474 74.0535 197.418 74.4802 196.251 74.6257C195.954 74.6535 195.673 74.6737 195.348 74.6722C195.06 74.6557 194.781 74.661 194.459 74.6025C193.825 74.529 193.23 74.3377 192.634 74.091C191.454 73.578 190.389 72.705 189.629 71.583C189.252 71.0197 188.963 70.3957 188.75 69.744C188.55 69.0772 188.456 68.4195 188.438 67.6905C188.443 67.068 188.547 66.3202 188.745 65.6752C188.958 65.0227 189.247 64.3987 189.624 63.8347C190.385 62.712 191.451 61.8382 192.632 61.3245C193.806 60.8092 195.102 60.654 196.236 60.7882C197.434 60.9375 198.471 61.3582 199.323 61.9342C200.168 62.5132 200.801 63.2272 201.249 63.921C201.705 64.6147 201.95 65.304 202.105 65.8725C202.181 66.159 202.239 66.417 202.262 66.6465C202.297 66.8737 202.323 67.0672 202.322 67.2262C202.335 67.5427 202.341 67.7107 202.341 67.7107L202.32 67.7212ZM201.846 67.7092C201.846 67.7092 201.836 67.5532 201.818 67.26C201.816 67.113 201.788 66.9337 201.75 66.7245C201.725 66.513 201.666 66.276 201.591 66.0135C201.436 65.4922 201.198 64.8637 200.766 64.2375C200.342 63.6105 199.749 62.9715 198.969 62.4615C198.196 61.959 197.217 61.5787 196.191 61.4625C195.107 61.3485 193.983 61.506 192.924 61.9785C191.87 62.451 190.924 63.2445 190.257 64.254C189.927 64.761 189.676 65.3197 189.492 65.9002C189.318 66.5002 189.255 67.0507 189.228 67.7295C189.241 68.3017 189.315 68.9422 189.487 69.5205C189.671 70.1017 189.921 70.6612 190.252 71.1682C190.92 72.1785 191.867 72.9727 192.921 73.4452C193.446 73.671 194.005 73.854 194.539 73.9207C194.795 73.977 195.1 73.9777 195.383 73.9965C195.63 73.9987 195.918 73.9837 196.176 73.9627C197.233 73.8427 198.193 73.4677 198.97 72.9592C199.744 72.4425 200.341 71.8095 200.768 71.184C201.204 70.5592 201.444 69.9307 201.602 69.4087C201.679 69.1447 201.739 68.9085 201.765 68.7022C201.802 68.4982 201.832 68.3212 201.835 68.1645C201.855 67.86 201.866 67.698 201.866 67.698L201.846 67.7092Z" fill="#3C3C3B"/>
<path d="M205.472 141.042C205.472 141.042 205.413 141.228 205.309 141.554C205.262 141.716 205.187 141.914 205.093 142.141C205.006 142.371 204.899 142.626 204.758 142.889C204.497 143.427 204.13 144.023 203.69 144.628C203.46 144.922 203.225 145.229 202.959 145.517C202.706 145.817 202.418 146.092 202.139 146.375C200.981 147.469 199.658 148.361 198.611 148.917C198.095 149.208 197.642 149.408 197.329 149.549C197.013 149.688 196.833 149.767 196.833 149.767C196.737 149.809 196.625 149.765 196.583 149.669C196.543 149.576 196.584 149.468 196.674 149.423C196.674 149.423 197.368 149.075 198.355 148.472C198.605 148.325 198.867 148.155 199.142 147.971C199.421 147.793 199.696 147.578 199.994 147.377C200.573 146.948 201.166 146.46 201.722 145.934C202.843 144.89 203.775 143.663 204.327 142.658C204.614 142.157 204.812 141.742 204.944 141.42C205.073 141.104 205.146 140.923 205.146 140.923C205.182 140.834 205.283 140.791 205.373 140.828C205.457 140.862 205.499 140.957 205.472 141.042Z" fill="#222221"/>
<path d="M204.271 137.039C204.271 137.039 204.068 137.312 203.712 137.789C203.54 138.03 203.312 138.313 203.044 138.636C202.782 138.963 202.481 139.328 202.126 139.699C201.785 140.084 201.392 140.478 200.972 140.891C200.56 141.312 200.089 141.718 199.615 142.151C198.642 142.992 197.554 143.829 196.42 144.603C195.269 145.352 194.073 146.027 192.92 146.599C192.337 146.87 191.778 147.143 191.228 147.354C190.682 147.576 190.163 147.78 189.675 147.942C189.193 148.121 188.742 148.257 188.339 148.368C187.94 148.487 187.589 148.586 187.297 148.651C186.715 148.792 186.383 148.873 186.383 148.873C186.281 148.898 186.179 148.835 186.154 148.733C186.13 148.634 186.188 148.535 186.285 148.507L186.294 148.505C186.294 148.505 186.619 148.411 187.187 148.247C187.754 148.083 188.556 147.818 189.501 147.459C189.977 147.29 190.482 147.076 191.013 146.845C191.548 146.623 192.092 146.342 192.664 146.077C193.223 145.783 193.808 145.493 194.376 145.151C194.957 144.831 195.515 144.453 196.088 144.1C197.213 143.358 198.296 142.554 199.265 141.743C199.738 141.324 200.209 140.933 200.621 140.525C201.04 140.126 201.433 139.743 201.775 139.37C202.477 138.638 203.03 138.015 203.408 137.551C203.784 137.09 203.999 136.827 203.999 136.827C204.06 136.753 204.17 136.742 204.244 136.802C204.314 136.86 204.326 136.965 204.271 137.039Z" fill="#222221"/>
<path d="M101.957 74.7247C101.957 74.7247 102.11 74.8305 102.312 75.0435C102.509 75.255 102.735 75.5707 102.904 75.9202C103.059 76.2757 103.146 76.656 103.177 76.9432C103.206 77.232 103.183 77.4232 103.183 77.4232C103.179 77.4705 103.138 77.5065 103.091 77.5027C103.049 77.4997 103.016 77.4637 103.011 77.4232C103.011 77.4232 102.997 77.241 102.949 76.974C102.909 76.7062 102.807 76.3582 102.654 76.0327C102.515 75.7012 102.32 75.3945 102.146 75.186C101.982 74.9752 101.849 74.8395 101.849 74.8395C101.818 74.8087 101.819 74.7585 101.85 74.7285C101.877 74.7015 101.919 74.6985 101.949 74.7195L101.957 74.7247Z" fill="#DA806C"/>
<path d="M102.877 76.2479C102.877 76.2479 102.775 76.3282 102.65 76.4504C102.516 76.5689 102.357 76.7497 102.233 76.9522C102.097 77.1457 101.989 77.3594 101.932 77.5289C101.868 77.6962 101.833 77.8132 101.833 77.8132C101.819 77.8589 101.77 77.8852 101.725 77.8709C101.687 77.8597 101.663 77.8222 101.663 77.7847C101.663 77.7847 101.664 77.6527 101.713 77.4607C101.764 77.2702 101.863 77.0227 102.006 76.7999C102.162 76.5854 102.352 76.4009 102.511 76.2832C102.675 76.1654 102.79 76.1182 102.79 76.1182L102.798 76.1152C102.838 76.0987 102.884 76.1182 102.901 76.1579C102.914 76.1894 102.904 76.2262 102.877 76.2479Z" fill="#DA806C"/>
<path d="M174.139 68.5508C174.145 68.547 174.15 68.4533 174.214 68.2515C174.283 68.043 174.394 67.7723 174.612 67.4828C174.831 67.2015 175.135 66.9 175.533 66.6803C175.732 66.5723 175.952 66.4845 176.183 66.4178C176.424 66.3578 176.646 66.3218 176.928 66.3195C177.12 66.321 177.418 66.3675 177.638 66.432C177.868 66.504 178.087 66.5963 178.284 66.7095C178.681 66.9338 178.978 67.248 179.191 67.5345C179.405 67.8255 179.512 68.112 179.572 68.31C179.631 68.5103 179.644 68.6288 179.644 68.6288L179.644 68.6325C179.658 68.7585 179.567 68.8718 179.44 68.8853C179.334 68.8965 179.236 68.8328 179.2 68.7368C179.2 68.7368 179.166 68.6445 179.092 68.4923C179.024 68.3378 178.89 68.1345 178.705 67.9163C178.517 67.6988 178.249 67.4925 177.942 67.3215C177.787 67.2383 177.617 67.1723 177.442 67.122C177.252 67.0763 177.123 67.0583 176.884 67.047C176.736 67.0455 176.528 67.0628 176.357 67.1018C176.18 67.1468 176.008 67.2068 175.849 67.2855C175.532 67.4415 175.259 67.6448 175.063 67.857C174.869 68.0663 174.726 68.2778 174.658 68.4188C174.579 68.5658 174.537 68.6835 174.536 68.6775C174.495 68.7848 174.375 68.8388 174.268 68.7975C174.178 68.763 174.125 68.673 174.135 68.5815L174.139 68.5508Z" fill="#3C3C3B"/>
<path d="M192.723 68.5508C192.728 68.547 192.733 68.4533 192.797 68.2515C192.866 68.043 192.977 67.7723 193.195 67.4828C193.414 67.2015 193.718 66.9 194.116 66.6803C194.316 66.5723 194.535 66.4845 194.767 66.4178C195.008 66.3578 195.23 66.3218 195.512 66.3195C195.704 66.321 196.002 66.3675 196.222 66.432C196.452 66.504 196.671 66.5963 196.868 66.7095C197.265 66.9338 197.562 67.248 197.775 67.5345C197.989 67.8255 198.096 68.112 198.156 68.31C198.215 68.5103 198.228 68.6288 198.228 68.6288L198.228 68.6325C198.242 68.7585 198.151 68.8718 198.024 68.8853C197.918 68.8965 197.82 68.8328 197.784 68.7368C197.784 68.7368 197.75 68.6445 197.676 68.4923C197.608 68.3378 197.474 68.1345 197.289 67.9163C197.101 67.6988 196.833 67.4925 196.526 67.3215C196.371 67.2383 196.201 67.1723 196.026 67.122C195.836 67.0763 195.707 67.0583 195.468 67.047C195.32 67.0455 195.112 67.0628 194.941 67.1018C194.764 67.1468 194.592 67.2068 194.433 67.2855C194.116 67.4415 193.843 67.6448 193.647 67.857C193.453 68.0663 193.31 68.2778 193.242 68.4188C193.163 68.5658 193.121 68.6835 193.12 68.6775C193.079 68.7848 192.959 68.8388 192.852 68.7975C192.762 68.763 192.709 68.673 192.719 68.5815L192.723 68.5508Z" fill="#3C3C3B"/>
<path d="M190.141 182.433C190.141 182.433 189.859 182.479 189.429 182.522C189 182.566 188.427 182.59 187.853 182.592C187.279 182.585 186.705 182.555 186.277 182.506C185.849 182.458 185.566 182.407 185.566 182.407C185.487 182.394 185.433 182.319 185.446 182.24C185.457 182.17 185.52 182.12 185.589 182.119C185.589 182.119 185.873 182.117 186.3 182.114C186.724 182.118 187.291 182.124 187.857 182.129C188.424 182.137 188.991 182.144 189.415 182.15C189.842 182.162 190.127 182.168 190.127 182.168C190.2 182.171 190.258 182.231 190.257 182.305C190.254 182.37 190.203 182.423 190.141 182.433Z" fill="#222221"/>
<path d="M101.821 334.214C101.201 335.324 100.723 336.502 100.447 337.766C100.3 338.438 100.219 339.161 100.481 339.797C100.99 341.033 102.538 341.438 103.875 341.48C109.244 341.653 114.278 338.837 118.569 335.608C123.89 331.603 122.561 329.572 121.386 326.14L102.493 333.439L101.821 334.214Z" fill="#B74E46"/>
<path d="M105.627 287.071C105.771 288.241 110.622 323.842 110.767 325.012C110.767 325.012 105.618 329.757 101.82 334.214C101.82 334.214 102.57 332.986 104.566 333.157C108.525 333.497 109.379 335.967 109.694 337.037C111.768 336.333 113.996 335.156 115.806 333.926C115.806 333.926 121.176 330.685 121.385 326.415C121.385 326.415 122.445 289.467 122.445 287.864L105.627 287.071Z" fill="#F7AE8C"/>
<path d="M148.053 334.214C148.673 335.324 149.151 336.502 149.427 337.766C149.574 338.438 149.655 339.161 149.393 339.797C148.884 341.033 147.336 341.438 145.999 341.48C140.63 341.653 135.596 338.837 131.305 335.608C125.984 331.603 127.314 329.572 128.488 326.14L147.382 333.439L148.053 334.214Z" fill="#B74E46"/>
<path d="M144.247 287.071C144.102 288.241 139.251 323.842 139.106 325.012C139.106 325.012 144.255 329.757 148.053 334.214C148.053 334.214 147.303 332.986 145.307 333.157C141.348 333.497 140.495 335.967 140.18 337.037C138.107 336.333 135.878 335.156 134.067 333.926C134.067 333.926 128.697 330.685 128.489 326.415C128.489 326.415 127.428 289.467 127.428 287.864L144.247 287.071Z" fill="#F7AE8C"/>
<path d="M141.912 156.741C148.045 169.822 150.899 184.425 150.139 198.853C150.139 198.853 153.204 242.414 148.24 288.44C148.24 288.44 137.875 292.061 120.722 292.873C103.57 293.685 100.114 288.443 100.114 288.443C91.5577 237.699 93.8722 199.971 93.8722 199.971C93.4814 185.833 95.9009 171.623 100.948 158.411" fill="#E56646"/>
<path opacity="0.49" d="M141.912 156.741L100.949 158.411C100.949 158.411 106.606 163.02 122.331 162.201C138.056 161.382 141.912 156.741 141.912 156.741Z" fill="#E56646"/>
<path d="M143.3 76.7311C142.209 75.0661 140.38 73.9538 139.44 72.1981C138.057 69.6128 138.96 66.4141 138.372 63.5423C137.585 59.6986 134.321 56.9056 131.162 54.5776C119.774 46.1851 107.025 51.8431 107.025 51.8431C98.0671 56.3566 92.8628 67.2856 95.0071 77.0851C95.7128 80.3123 97.0763 83.8681 95.4158 86.7241C94.2398 88.7483 91.7731 89.8553 90.8731 92.0161C89.8546 94.4588 92.5561 98.4706 92.2021 101.093C91.9006 103.328 89.0438 104.015 88.5578 106.217C87.6968 110.114 90.3841 114.149 93.9563 115.93C97.5278 117.711 101.735 117.669 105.686 117.101C106.583 116.972 107.475 116.811 108.363 116.632C108.662 116.716 108.961 116.796 109.259 116.872C111.999 117.572 114.821 118.062 117.647 117.924C123.969 117.614 135.605 119.502 138.973 106.4C139.669 103.691 138.475 100.43 138.245 97.6426C138.014 94.8556 139.086 91.8046 141.374 90.1973C147.747 85.7191 144.655 78.7973 143.3 76.7311Z" fill="#3C3C3B"/>
<path opacity="0.4" d="M137.054 78.5888C136.22 77.3168 134.822 76.467 134.105 75.1253C133.048 73.1498 133.738 70.7063 133.289 68.5118C132.686 65.5748 130.166 63.4763 127.779 61.662C126.323 60.5558 124.756 59.4218 122.936 59.2463L123.341 59.367C123.294 59.3805 123.247 59.3948 123.2 59.4083C120.985 58.8743 118.615 59.0828 116.66 60.2393L109.337 59.5725C102.491 63.021 98.5156 71.3723 100.154 78.8595C100.693 81.3255 101.735 84.042 100.466 86.2245C99.5679 87.771 97.6831 88.617 96.9954 90.2685C96.2176 92.1353 98.2809 95.2005 98.0109 97.2045C97.7806 98.9115 95.5974 99.4365 95.2261 101.119C94.5684 104.097 96.6219 107.18 99.3511 108.541C102.08 109.902 105.295 109.87 108.314 109.436C108.999 109.337 109.681 109.214 110.36 109.077C110.588 109.142 110.816 109.202 111.044 109.261C113.138 109.796 115.294 110.171 117.452 110.065C122.284 109.829 131.174 111.271 133.748 101.259C134.279 99.1898 133.367 96.6975 133.191 94.5683C133.015 92.4383 133.834 90.1073 135.582 88.8795C140.452 85.4565 138.089 80.1675 137.054 78.5888Z" fill="#3C3C3B"/>
<path d="M162.753 131.939C159.758 128.034 156.846 124.164 154.244 120.665L152.424 118.707L143.181 125.624L145.493 128.881C149.372 134.462 154.914 140.247 160.82 145.9C160.82 145.9 161.442 141.15 162.326 134.765L162.753 131.939Z" fill="#F7AE8C"/>
<path d="M130.815 101.094C142.188 101.789 152.877 109.308 157.373 119.777C153.589 123.085 149.361 126.185 144.648 127.929C144.714 137.666 143.767 147.182 141.912 156.741C124.886 162.094 105.027 158.573 100.95 158.411C100.95 158.411 96.8313 139.673 96.3198 130.906C91.525 129.551 87.2958 127.529 84.0723 123.728C87.2643 113.324 96.3595 104.957 106.994 102.642" fill="#5C3259"/>
<path d="M85.5863 125.315C83.5853 131.223 82.1588 137.222 81.3016 143.4C80.8771 146.461 80.5966 149.568 80.9506 152.637C81.4981 157.379 83.5508 161.852 86.2478 165.791C88.9456 169.73 94.338 174.607 97.713 177.983C97.713 177.983 99.7253 175.886 100.671 173.422C101.617 170.958 101.84 170.18 101.84 170.18C98.721 163.553 95.3228 156.962 91.8983 150.487C94.0493 144.552 95.2598 137.127 96.3188 130.904C96.3188 130.904 95.1983 130.628 93.4425 129.975C92.3888 129.584 91.3643 129.164 89.7413 128.307C88.5661 127.685 87.7388 127.016 87.1216 126.569C85.9126 125.694 85.5863 125.315 85.5863 125.315Z" fill="#F7AE8C"/>
<path opacity="0.55" d="M85.5865 125.315C85.5865 125.315 85.9128 125.694 87.1233 126.57C87.7413 127.017 88.5678 127.688 89.743 128.309C91.366 129.167 92.3905 129.585 93.4443 129.977C95.2 130.629 96.3205 130.905 96.3205 130.905L95.9928 132.834C95.9928 132.834 87.5673 131.02 84.604 128.426L85.5865 125.315Z" fill="#F7AE8C"/>
<path d="M102.653 166.613C102.653 166.613 102.645 166.844 102.629 167.248C102.607 167.645 102.568 168.251 102.448 168.94C102.398 169.289 102.32 169.662 102.233 170.057C102.152 170.453 102.034 170.863 101.912 171.287C101.647 172.128 101.306 173.007 100.912 173.863C100.495 174.708 100.017 175.521 99.5264 176.255C99.0254 176.981 98.5064 177.623 98.0286 178.142C97.5621 178.67 97.1241 179.064 96.8196 179.338C96.5091 179.606 96.3314 179.758 96.3314 179.758C96.2256 179.849 96.0659 179.837 95.9744 179.731C95.8889 179.632 95.8941 179.485 95.9819 179.392L95.9916 179.381C95.9916 179.381 96.1484 179.216 96.4236 178.928C96.7019 178.644 97.0784 178.217 97.5089 177.692C97.7301 177.434 97.9506 177.139 98.1809 176.825C98.4164 176.515 98.6339 176.167 98.8784 175.82C99.3426 175.11 99.7829 174.32 100.182 173.509C100.576 172.695 100.918 171.857 101.189 171.053C101.308 170.646 101.452 170.261 101.546 169.883C101.649 169.507 101.743 169.151 101.808 168.817C101.956 168.149 102.052 167.606 102.103 167.199C102.158 166.799 102.19 166.57 102.19 166.57C102.208 166.443 102.325 166.354 102.452 166.372C102.572 166.391 102.657 166.496 102.653 166.613Z" fill="#222221"/>
<path d="M139.936 166.064C139.936 166.064 140.005 166.313 140.125 166.749C140.243 167.188 140.429 167.783 140.688 168.505C140.938 169.226 141.282 170.048 141.695 170.905C142.098 171.767 142.592 172.657 143.146 173.506C143.691 174.361 144.278 175.191 144.893 175.918C145.504 176.646 146.094 177.313 146.646 177.839C147.189 178.376 147.66 178.802 148.003 179.092C148.344 179.388 148.539 179.558 148.539 179.558C148.645 179.649 148.656 179.81 148.564 179.915C148.478 180.015 148.328 180.029 148.223 179.954C148.223 179.954 148.014 179.802 147.647 179.537C147.284 179.264 146.753 178.874 146.176 178.34C145.591 177.815 144.932 177.171 144.297 176.42C143.975 176.047 143.662 175.646 143.351 175.233C143.05 174.813 142.735 174.392 142.463 173.942C141.904 173.052 141.408 172.124 141.007 171.226C140.791 170.783 140.637 170.332 140.469 169.914C140.326 169.486 140.173 169.089 140.069 168.71C139.837 167.963 139.701 167.306 139.61 166.867C139.53 166.422 139.484 166.168 139.484 166.168C139.462 166.042 139.545 165.921 139.672 165.898C139.789 165.876 139.904 165.95 139.936 166.064Z" fill="#222221"/>
<path d="M121.217 172.295C120.917 206.665 121.479 245.375 123.958 283.486" stroke="#222221" stroke-width="0.8118" stroke-miterlimit="10" stroke-linecap="round" stroke-linejoin="round"/>
<path d="M127.237 166.726C127.237 166.726 127.284 168.17 127.355 170.336C127.414 172.502 127.454 175.39 127.485 178.278C127.487 179 127.49 179.723 127.493 180.433C127.505 181.141 127.463 181.889 127.354 182.575C127.242 183.269 127.082 183.948 126.707 184.561C126.53 184.871 126.202 185.143 125.984 185.292C125.712 185.485 125.447 185.627 125.177 185.748C124.633 185.978 124.101 186.074 123.644 186.107C123.186 186.143 122.795 186.139 122.476 186.135C121.842 186.119 121.48 186.109 121.48 186.109C121.34 186.105 121.229 185.989 121.233 185.849C121.237 185.714 121.346 185.606 121.48 185.602C121.48 185.602 121.84 185.591 122.47 185.574C123.089 185.541 123.995 185.526 124.898 185.121C125.118 185.014 125.348 184.88 125.549 184.729C125.8 184.535 125.943 184.41 126.076 184.175C126.341 183.717 126.486 183.095 126.584 182.458C126.68 181.805 126.714 181.151 126.696 180.438C126.689 179.727 126.683 179.005 126.676 178.283C126.67 175.395 126.672 172.506 126.704 170.339C126.746 168.173 126.774 166.728 126.774 166.728C126.776 166.6 126.883 166.498 127.01 166.501C127.133 166.504 127.233 166.604 127.237 166.726Z" fill="#222221"/>
<path d="M111.894 92.1023L111.001 101.066L106.234 102.82C106.234 102.82 106.86 108.293 115.109 110.167C119.347 111.129 123.823 109.661 123.823 109.661C131.125 106.863 130.813 101.094 130.813 101.094L125.863 100.49L124.806 92.5253L111.894 92.1023Z" fill="#F7AE8C"/>
<path d="M101.692 62.6116C101.104 69.1688 103.183 78.8063 105.046 83.8028C105.803 85.8338 106.609 87.9316 108.109 89.4961C115.52 97.2256 124.109 93.7591 126.835 91.5781C128.974 89.8666 130.597 87.6398 131.412 85.0246C133.492 78.3503 133.93 71.1713 132.676 64.2938C132.676 64.2938 133.058 49.5248 114.551 51.2566C114.551 51.2566 102.672 51.6623 101.692 62.6116Z" fill="#F7AE8C"/>
<path d="M120.927 73.0657C120.927 73.0657 120.98 73.1483 121.058 73.3545C121.13 73.5443 121.212 73.8 121.307 74.1143C121.493 74.7398 121.709 75.5783 121.901 76.4235C121.994 76.8473 122.084 77.268 122.159 77.6768C122.192 77.8808 122.243 78.1035 122.199 78.354C122.177 78.4823 122.142 78.597 122.062 78.7275C122.044 78.7568 122.012 78.804 121.961 78.8633C121.918 78.9105 121.88 78.9487 121.838 78.9825C121.671 79.1212 121.503 79.1783 121.365 79.23C121.226 79.2795 121.104 79.3043 121.005 79.3185C120.808 79.3523 120.698 79.3553 120.698 79.3553H120.689C120.578 79.3583 120.485 79.2697 120.482 79.1587C120.48 79.074 120.531 79.0005 120.605 78.969C120.605 78.969 120.701 78.9278 120.871 78.855C121.029 78.7793 121.28 78.6847 121.439 78.5235C121.46 78.5062 121.478 78.4838 121.491 78.468C121.496 78.4635 121.513 78.441 121.539 78.3953C121.548 78.3758 121.571 78.3158 121.575 78.261C121.586 78.1425 121.581 77.973 121.544 77.7795C121.481 77.391 121.4 76.9665 121.316 76.5457C121.148 75.7042 120.98 74.862 120.853 74.2305C120.789 73.917 120.725 73.6538 120.681 73.485C120.647 73.3305 120.598 73.2217 120.598 73.2217C120.557 73.1302 120.598 73.023 120.689 72.9817C120.773 72.9442 120.869 72.975 120.917 73.05L120.927 73.0657Z" fill="#DA806C"/>
<path opacity="0.68" d="M111.857 92.472C111.857 92.472 116.54 97.3755 124.846 92.7855C124.846 92.7855 118.526 101.659 111.857 92.472Z" fill="#F7AE8C"/>
<path d="M129.435 74.7113C129.521 75.6338 129.084 76.4288 128.458 76.4873C127.832 76.5458 127.255 75.8453 127.169 74.9228C127.082 74.0003 127.52 73.2053 128.146 73.1468C128.771 73.0883 129.348 73.7888 129.435 74.7113Z" fill="#3C3C3B"/>
<path d="M113.744 75.2311C113.83 76.1536 113.393 76.9486 112.767 77.0071C112.141 77.0656 111.564 76.3651 111.478 75.4426C111.391 74.5201 111.829 73.7251 112.455 73.6666C113.08 73.6081 113.658 74.3086 113.744 75.2311Z" fill="#3C3C3B"/>
<path d="M133.223 68.4188C125.2 69.2925 114.991 68.016 110.755 58.8443C111.743 61.998 111.308 65.5703 109.589 68.3933C107.87 71.217 104.398 74.7668 101.142 75.3368C97.6337 72.9398 97.2647 68.826 97.972 63.684C98.4235 60.3998 100.698 57.288 102.84 54.7575C105.636 51.4545 110.197 50.2163 114.516 49.9493C119.549 49.6373 124.88 50.5103 128.846 53.6265C132.811 56.7428 133.979 64.0133 133.223 68.4188Z" fill="#3C3C3B"/>
<path d="M102.985 74.4106C102.789 73.9598 102.477 73.5293 101.997 73.4303C101.516 73.3313 100.986 73.5413 100.702 73.9418C100.417 74.3438 100.39 74.8703 100.414 75.3623C100.449 76.0486 100.563 76.7311 100.758 77.3903C100.956 78.0638 101.266 78.7523 101.855 79.1363C102.443 79.5203 103.365 79.4513 103.71 78.8386C103.71 78.8386 103.9 76.5181 102.985 74.4106Z" fill="#F7AE8C"/>
<path d="M120.233 82.4828C120.233 82.4828 120.354 82.5496 120.522 82.6208C120.691 82.7041 120.93 82.7836 121.175 82.8188C121.661 82.9171 122.17 82.8563 122.17 82.8563C122.231 82.8488 122.285 82.8923 122.293 82.9531C122.299 83.0018 122.272 83.0468 122.229 83.0663L122.225 83.0678C122.225 83.0678 122.096 83.1271 121.887 83.1683C121.678 83.2126 121.389 83.2148 121.109 83.1616C120.831 83.0941 120.57 82.9778 120.389 82.8661C120.206 82.7461 120.117 82.6471 120.117 82.6471L120.11 82.6381C120.073 82.5968 120.076 82.5331 120.117 82.4963C120.15 82.4671 120.197 82.4626 120.233 82.4828Z" fill="#DA806C"/>
<path d="M122.831 81.3256C121.068 81.6271 119.255 81.6301 117.491 81.3331C117.44 81.7928 117.626 82.2473 117.863 82.6456C118.229 83.2606 118.754 83.8141 119.43 84.0458C119.851 84.1898 120.311 84.2018 120.745 84.1043C121.97 83.8291 122.91 82.6081 122.863 81.3533" fill="#3C3C3B"/>
<path d="M118.016 82.8848C118.699 82.7318 119.474 82.5668 120.175 82.5646C120.875 82.5623 121.659 82.7528 122.219 83.1743C122.219 83.1743 121.67 84.1681 120.106 84.1658C118.661 84.1636 118.016 82.8848 118.016 82.8848Z" fill="#EE7677"/>
<path d="M107.61 122.893C110.226 122.893 110.231 118.827 107.61 118.827C104.994 118.827 104.99 122.893 107.61 122.893Z" fill="white"/>
<path d="M139.71 115.409C142.326 115.409 142.331 111.343 139.71 111.343C137.094 111.343 137.089 115.409 139.71 115.409Z" fill="white"/>
<path d="M135.891 127.947C138.507 127.947 138.512 123.881 135.891 123.881C133.275 123.881 133.271 127.947 135.891 127.947Z" fill="white"/>
<path d="M124.288 123.41C126.904 123.41 126.909 119.344 124.288 119.344C121.671 119.344 121.668 123.41 124.288 123.41Z" fill="white"/>
<path d="M108.523 134.868C111.139 134.868 111.144 130.802 108.523 130.802C105.907 130.802 105.903 134.868 108.523 134.868Z" fill="white"/>
<path d="M94.2535 121.972C96.8695 121.972 96.874 117.906 94.2535 117.906C91.6368 117.906 91.633 121.972 94.2535 121.972Z" fill="white"/>
<path d="M121.899 135.441C124.515 135.441 124.519 131.375 121.899 131.375C119.283 131.375 119.278 135.441 121.899 135.441Z" fill="white"/>
<path d="M135.246 154.214C137.862 154.214 137.867 150.148 135.246 150.148C132.63 150.148 132.626 154.214 135.246 154.214Z" fill="white"/>
<path d="M111.858 154.214C114.474 154.214 114.478 150.148 111.858 150.148C109.242 150.148 109.237 154.214 111.858 154.214Z" fill="white"/>
<path d="M137.726 140.112C140.342 140.112 140.347 136.046 137.726 136.046C135.11 136.046 135.106 140.112 137.726 140.112Z" fill="white"/>
<path d="M104.935 144.109C107.551 144.109 107.555 140.043 104.935 140.043C102.319 140.043 102.314 144.109 104.935 144.109Z" fill="white"/>
<path d="M151.367 120.129C153.983 120.129 153.988 116.063 151.367 116.063C148.751 116.063 148.747 120.129 151.367 120.129Z" fill="white"/>
<path d="M101.623 112.76C104.239 112.76 104.244 108.694 101.623 108.694C99.0064 108.694 99.0026 112.76 101.623 112.76Z" fill="white"/>
<path d="M124.847 148.266C127.463 148.266 127.467 144.2 124.847 144.2C122.23 144.2 122.226 148.266 124.847 148.266Z" fill="white"/>
<path opacity="0.55" d="M155.041 121.734C155.041 121.734 151.252 124.795 148.062 126.401C148.062 126.401 146.306 127.292 144.782 127.879L145.61 129.048C145.61 129.048 151.874 127.632 156.232 123.329L155.041 121.734Z" fill="#F7AE8C"/>
<path d="M126.407 70.9125C126.407 70.9125 126.46 70.8855 126.554 70.8383C126.644 70.7948 126.8 70.7183 126.977 70.6658C127.336 70.5428 127.843 70.4715 128.351 70.4993C128.857 70.539 129.352 70.677 129.69 70.848C130.031 71.0153 130.227 71.1743 130.227 71.1743L130.232 71.1788C130.304 71.2373 130.316 71.343 130.257 71.415C130.208 71.475 130.127 71.4923 130.059 71.4623C130.059 71.4623 129.212 71.0858 128.313 71.0318C127.866 70.992 127.415 71.028 127.079 71.0835C126.752 71.1308 126.514 71.1998 126.514 71.1998C126.432 71.223 126.347 71.1765 126.324 71.0948C126.303 71.0228 126.338 70.9478 126.402 70.9155L126.407 70.9125Z" fill="#3C3C3B"/>
<path d="M113.219 71.4285C113.219 71.4285 112.972 71.4112 112.641 71.4322C112.301 71.448 111.853 71.5058 111.424 71.6378C110.556 71.877 109.805 72.4215 109.805 72.4215C109.73 72.4763 109.625 72.459 109.571 72.384C109.525 72.321 109.529 72.2378 109.576 72.18L109.58 72.1748C109.58 72.1748 109.739 71.9783 110.038 71.7443C110.334 71.5065 110.789 71.2688 111.276 71.1248C111.767 70.9928 112.278 70.9568 112.654 71.0033C112.838 71.0175 113.007 71.0603 113.104 71.0843C113.205 71.1113 113.264 71.1263 113.264 71.1263L113.269 71.1278C113.351 71.1495 113.399 71.2335 113.378 71.3153C113.358 71.3873 113.291 71.4338 113.219 71.4285Z" fill="#3C3C3B"/>
<path d="M255.532 85.3028L254.574 93.4298L249.608 94.2983C249.608 94.2983 249.507 102.632 257.697 104.749C259.75 105.28 262.235 105.343 264.243 105.269C269.949 105.059 274.693 100.688 275.15 94.995C275.185 94.557 275.181 94.299 275.181 94.299L269.448 93.2963L268.627 85.3035L255.532 85.3028Z" fill="#FFC49B"/>
<path d="M247.113 53.721C245.917 60.195 247.09 69.984 248.478 75.1328C249.043 77.2253 249.649 79.389 250.997 81.0863C257.655 89.4728 266.53 86.8223 269.448 84.9045C271.737 83.3993 273.56 81.3338 274.615 78.8055C277.309 72.3548 278.413 65.247 277.806 58.2833C277.806 58.2833 279.562 43.614 260.974 43.614C260.974 43.614 249.109 42.9105 247.113 53.721Z" fill="#FFC49B"/>
<path d="M260.449 67.5488C260.452 67.5435 260.418 67.638 260.409 67.7423C260.39 67.8615 260.37 68.0535 260.359 68.2823C260.326 68.7413 260.312 69.3675 260.296 69.9863C260.29 70.3058 260.302 70.5878 260.375 70.6665C260.409 70.7303 260.707 70.8135 260.908 70.8345C261.369 70.884 261.676 70.917 261.676 70.917C261.786 70.929 261.865 71.0273 261.853 71.136C261.844 71.2238 261.779 71.292 261.698 71.3093L261.676 71.3138C261.676 71.3138 261.377 71.379 260.872 71.3835C260.745 71.3828 260.604 71.3768 260.444 71.3483C260.293 71.316 260.086 71.2643 259.906 71.0678C259.741 70.8758 259.694 70.6665 259.67 70.4745C259.66 70.278 259.672 70.1303 259.678 69.9668C259.702 69.327 259.78 68.6955 259.867 68.2178C259.916 67.9785 259.966 67.7828 260.014 67.635C260.07 67.4708 260.109 67.4235 260.108 67.4168L260.13 67.386C260.187 67.3043 260.299 67.284 260.38 67.341C260.449 67.389 260.474 67.4745 260.449 67.5488Z" fill="#DA806C"/>
<path d="M255.142 84.8535C255.142 84.8535 261.008 89.2455 269.448 84.9038C269.448 84.9038 262.001 93.0885 255.142 84.8535Z" fill="#F7C5B4"/>
<path d="M269.604 67.599C269.604 68.5253 269.094 69.2768 268.465 69.2768C267.837 69.2768 267.327 68.526 267.327 67.599C267.327 66.6728 267.836 65.9213 268.465 65.9213C269.094 65.9213 269.604 66.6728 269.604 67.599Z" fill="#3C3C3B"/>
<path d="M254.416 67.4835C254.416 68.4098 253.906 69.1613 253.277 69.1613C252.649 69.1613 252.139 68.4105 252.139 67.4835C252.139 66.5573 252.649 65.8058 253.277 65.8058C253.906 65.8058 254.416 66.5565 254.416 67.4835Z" fill="#3C3C3B"/>
<path d="M261.619 75.288C261.619 75.288 261.543 75.3997 261.377 75.5512C261.217 75.6997 260.966 75.8542 260.692 75.957C260.415 76.0522 260.122 76.0935 259.903 76.08C259.685 76.0695 259.546 76.029 259.546 76.029L259.541 76.0275C259.481 76.0102 259.447 75.9472 259.464 75.8872C259.478 75.8385 259.522 75.807 259.57 75.8055C259.57 75.8055 260.095 75.7912 260.572 75.6187C260.812 75.5392 261.04 75.4207 261.203 75.3195C261.364 75.225 261.477 75.138 261.477 75.138C261.522 75.1035 261.586 75.1117 261.621 75.1567C261.649 75.1927 261.649 75.2415 261.625 75.2775L261.619 75.288Z" fill="#DA806C"/>
<path d="M258.672 74.3543C260.503 74.397 262.342 74.1285 264.085 73.5645C264.205 74.0228 264.085 74.5118 263.905 74.9498C263.626 75.6278 263.176 76.2668 262.525 76.6035C262.121 76.812 261.655 76.8938 261.202 76.8593C259.919 76.764 258.784 75.6668 258.644 74.388" fill="#3C3C3B"/>
<path d="M263.785 75.2153C263.07 75.1628 262.259 75.111 261.549 75.213C260.839 75.315 260.072 75.6255 259.569 76.1363C259.569 76.1363 260.273 77.0618 261.858 76.8255C263.323 76.608 263.785 75.2153 263.785 75.2153Z" fill="#EE7677"/>
<path d="M278.103 64.9215C276.894 65.013 275.86 64.167 275.019 63.2933C272.095 60.258 271.143 55.851 270.74 51.6563C270.138 53.4728 268.666 54.906 266.979 55.809C265.293 56.712 263.394 57.1395 261.507 57.4493C259.518 57.7755 257.494 57.9825 255.49 57.7785C253.485 57.5745 251.49 56.9378 249.891 55.7115C247.474 53.8575 246.163 50.6603 246.58 47.643C246.775 46.2345 247.351 44.8358 248.413 43.8893C249.474 42.9428 251.066 42.5333 252.374 43.0905C252.15 41.7375 252.949 40.4033 253.965 39.483C255.607 37.9958 257.934 37.257 260.114 37.6485C262.294 38.0408 264.256 39.6008 265.016 41.682C265.998 40.6508 267.55 40.2008 268.932 40.5465C270.313 40.8923 271.47 42.021 271.85 43.3943C273.106 43.158 274.304 44.004 275.185 44.928C277.342 47.1908 278.637 50.1803 279.218 53.2515C279.799 56.3228 279.702 59.487 279.349 62.5928C279.243 63.5168 278.982 64.6133 278.103 64.9215Z" fill="#4E2E28"/>
<path d="M245.807 65.238C244.325 63.0563 244.469 59.4465 244.418 58.1723C244.389 57.4485 244.574 56.1495 244.657 55.4303C244.759 54.5295 245.03 53.6573 245.299 52.791C245.691 51.5303 246.147 50.178 247.225 49.416C247.62 49.1363 248.147 48.9533 248.587 49.1565C249.084 49.3853 249.265 49.9995 249.297 50.5455C249.384 52.0643 248.757 53.5185 248.332 54.9795C247.461 57.9788 247.428 61.1475 246.995 64.2405C246.995 64.2405 247.09 65.7075 246.619 65.616C246.146 65.5253 245.807 65.238 245.807 65.238Z" fill="#4E2E28"/>
<path d="M247.565 70.0598C247.166 70.6373 246.241 70.62 245.691 70.1835C245.141 69.7463 244.896 69.0315 244.762 68.3423C244.631 67.668 244.579 66.978 244.609 66.2918C244.631 65.7998 244.707 65.2778 245.027 64.9043C245.347 64.5315 245.894 64.3725 246.364 64.5158C246.833 64.659 247.199 65.0963 247.256 65.5838L247.565 70.0598Z" fill="#FFC49B"/>
<path d="M277.162 70.176C277.561 70.7535 278.486 70.737 279.036 70.2998C279.586 69.8625 279.831 69.1478 279.965 68.4585C280.096 67.7843 280.148 67.0943 280.117 66.4073C280.096 65.9153 280.019 65.3933 279.699 65.0198C279.379 64.647 278.832 64.488 278.362 64.6305C277.893 64.7738 277.528 65.211 277.47 65.6985L277.162 70.176Z" fill="#FFC49B"/>
<path d="M286.855 127.454C290.333 146.617 293.442 166.97 294.046 186.436L293.212 188.951C292.472 190.709 292.162 192.113 292.531 193.712C292.615 194.08 292.789 194.496 293.156 194.583C293.749 194.723 294.08 193.951 294.483 193.494C294.88 193.043 295.546 192.851 296.122 193.019C296.672 195.368 294.229 197.71 294.925 200.018C294.985 200.216 295.075 200.417 295.242 200.537C295.731 200.891 296.368 200.339 296.66 199.811C297.532 198.237 297.812 196.343 297.433 194.584C297.079 196.488 296.727 198.392 296.374 200.297C296.237 201.034 296.302 202.075 297.044 202.178C297.333 202.219 297.616 202.076 297.853 201.905C299.416 200.784 299.701 198.614 299.851 196.697C299.007 198.525 297.59 202.065 298.319 202.508C299.907 203.725 302.204 199.3 302.158 196.877C302.023 198.171 301.544 199.427 300.784 200.483C300.576 200.772 300.337 201.074 300.326 201.43C300.308 202.046 301.034 202.474 301.642 202.37C302.251 202.268 302.731 201.809 303.137 201.344C306.434 197.565 305.008 191.762 305.165 186.749C305.802 166.445 302.679 139.236 299.567 119.162L286.855 127.454Z" fill="#FFC49B"/>
<path d="M212.453 145.23C220.618 140.705 232.231 130.934 236.8 125.095L230.586 109.799C226.707 115.208 217.409 125.075 210.249 132.04L211.91 142.3L212.453 145.23Z" fill="#FFC49B"/>
<path d="M243.953 324.532V319.867H228.546V324.05C228.546 324.05 230.145 326.323 236.848 327.031C243.551 327.739 243.953 324.532 243.953 324.532Z" fill="#FFC49B"/>
<path d="M245.318 329.222C245.388 329.882 245.43 330.597 245.49 331.48C245.522 331.94 245.55 332.418 245.372 332.834C245.074 333.533 244.279 333.887 243.543 334.187C241.296 335.102 239.049 336.017 236.802 336.932C235.16 337.601 224.62 339.528 220.284 338.939C218.325 338.673 215.994 337.915 215.444 336.115C214.88 334.268 216.596 332.722 218.145 331.631L244.898 327.031L245.318 329.222Z" fill="#D1D3D3"/>
<path d="M245.318 329.222C245.15 327.659 245.061 326.933 243.953 324.532L241.604 325.21C238.994 325.925 236.925 325.521 236.925 325.521C236.925 325.521 231.854 324.906 228.635 323.539L228.279 323.804C227.386 325.103 226.024 326.077 224.696 327.013C222.512 328.552 220.329 330.091 218.145 331.631L218.195 331.779C218.758 331.728 219.332 331.934 219.856 332.186C220.814 332.648 221.691 333.275 222.425 334.024C222.73 334.336 223.015 334.676 223.183 335.063C223.351 335.451 223.576 335.916 223.394 336.272C231.337 336.031 239.219 333.609 245.318 329.222Z" fill="#3B8C8C"/>
<path d="M221.212 329.224C221.212 329.224 221.288 329.209 221.42 329.191C221.539 329.178 221.788 329.158 222.028 329.188C222.277 329.211 222.565 329.269 222.863 329.365C223.159 329.469 223.461 329.616 223.742 329.798C224.305 330.166 224.751 330.695 224.974 331.15C225.208 331.602 225.247 331.942 225.247 331.942C225.266 332.111 225.145 332.263 224.977 332.282C224.863 332.295 224.758 332.245 224.695 332.16L224.68 332.14C224.68 332.14 224.638 332.083 224.576 331.981C224.516 331.879 224.411 331.744 224.288 331.585C224.041 331.268 223.648 330.901 223.208 330.597C222.763 330.299 222.274 330.062 221.882 329.947C221.678 329.887 221.55 329.839 221.406 329.818C221.275 329.794 221.2 329.775 221.2 329.775C221.049 329.737 220.957 329.584 220.994 329.434C221.022 329.324 221.11 329.245 221.212 329.224Z" fill="#3C3C3B"/>
<path d="M223.314 327.916C223.314 327.916 223.392 327.91 223.528 327.91C223.652 327.912 223.891 327.92 224.127 327.97C224.371 328.016 224.652 328.092 224.944 328.203C225.233 328.321 225.528 328.477 225.806 328.662C226.361 329.035 226.813 329.545 227.066 329.978C227.326 330.408 227.407 330.736 227.407 330.736C227.447 330.9 227.348 331.066 227.183 331.107C227.069 331.135 226.955 331.096 226.882 331.015L226.87 331.002C226.87 331.002 226.82 330.947 226.745 330.848C226.671 330.748 226.55 330.617 226.412 330.46C226.132 330.146 225.716 329.775 225.262 329.454C224.804 329.139 224.311 328.869 223.915 328.713C223.712 328.633 223.573 328.567 223.434 328.528C223.305 328.487 223.232 328.459 223.232 328.459C223.088 328.402 223.016 328.24 223.072 328.095C223.112 327.989 223.208 327.922 223.314 327.916Z" fill="#3C3C3B"/>
<path d="M225.188 326.562C225.188 326.562 225.264 326.55 225.396 326.536C225.516 326.527 225.761 326.516 225.996 326.551C226.242 326.579 226.526 326.64 226.821 326.738C227.112 326.844 227.411 326.991 227.691 327.17C228.249 327.531 228.698 328.046 228.934 328.487C229.179 328.926 229.236 329.259 229.236 329.259C229.265 329.426 229.152 329.585 228.985 329.614C228.872 329.633 228.763 329.588 228.696 329.505L228.682 329.488C228.682 329.488 228.637 329.432 228.569 329.333C228.504 329.233 228.392 329.101 228.263 328.946C228.003 328.635 227.603 328.273 227.16 327.97C226.712 327.673 226.224 327.43 225.832 327.304C225.63 327.239 225.498 327.186 225.357 327.16C225.228 327.131 225.153 327.109 225.153 327.109C225.004 327.065 224.918 326.909 224.961 326.759C224.994 326.654 225.084 326.579 225.188 326.562Z" fill="#3C3C3B"/>
<path d="M227.387 324.943C227.387 324.943 227.701 324.951 228.174 325.039C228.642 325.132 229.292 325.306 229.871 325.689C229.966 325.749 230 325.777 230.078 325.835C230.152 325.892 230.223 325.95 230.285 326.007C230.417 326.12 230.532 326.246 230.636 326.376C230.851 326.631 230.99 326.921 231.085 327.176C231.183 327.433 231.195 327.672 231.199 327.832C231.2 327.994 231.179 328.086 231.179 328.086L231.176 328.1C231.14 328.264 230.978 328.367 230.813 328.331C230.69 328.303 230.6 328.204 230.58 328.086C230.58 328.086 230.536 327.83 230.341 327.504C230.25 327.337 230.104 327.163 229.936 326.986C229.853 326.896 229.755 326.813 229.658 326.728C229.607 326.683 229.559 326.647 229.511 326.611L229.34 326.491C228.89 326.191 228.364 325.951 227.951 325.78C227.538 325.606 227.252 325.477 227.252 325.477C227.111 325.414 227.048 325.249 227.111 325.108C227.159 325.003 227.264 324.941 227.372 324.944L227.387 324.943Z" fill="#3C3C3B"/>
<path d="M263.843 324.169V319.505H279.251V323.687C279.251 323.687 277.652 325.961 270.95 326.669C264.246 327.377 263.843 324.169 263.843 324.169Z" fill="#FFC49B"/>
<path d="M262.479 328.859C262.409 329.519 262.367 330.234 262.307 331.117C262.275 331.577 262.247 332.055 262.424 332.471C262.723 333.17 263.518 333.524 264.254 333.824C266.501 334.739 268.748 335.654 270.995 336.569C272.637 337.238 283.177 339.165 287.513 338.576C289.472 338.31 291.803 337.553 292.352 335.752C292.916 333.905 291.2 332.36 289.652 331.268L262.898 326.669L262.479 328.859Z" fill="#D1D3D3"/>
<path d="M262.479 328.859C262.646 327.296 262.736 326.57 263.843 324.169L266.193 324.847C268.803 325.562 270.872 325.158 270.872 325.158C270.872 325.158 275.943 324.543 279.162 323.177L279.518 323.441C280.411 324.74 281.773 325.714 283.1 326.65C285.284 328.189 287.468 329.729 289.652 331.268L289.602 331.416C289.039 331.365 288.464 331.571 287.941 331.823C286.982 332.285 286.106 332.912 285.372 333.661C285.067 333.973 284.782 334.313 284.614 334.7C284.446 335.088 284.221 335.553 284.403 335.909C276.461 335.668 268.579 333.246 262.479 328.859Z" fill="#3B8C8C"/>
<path d="M286.597 329.411C286.597 329.411 286.522 329.43 286.391 329.454C286.247 329.475 286.118 329.523 285.914 329.584C285.522 329.699 285.033 329.936 284.588 330.233C284.148 330.537 283.755 330.905 283.508 331.222C283.385 331.38 283.28 331.515 283.22 331.618C283.158 331.719 283.116 331.777 283.116 331.777L283.103 331.796C283.002 331.932 282.81 331.961 282.673 331.861C282.581 331.793 282.538 331.685 282.55 331.579C282.55 331.579 282.589 331.238 282.822 330.786C283.046 330.332 283.491 329.802 284.054 329.435C284.336 329.253 284.638 329.105 284.933 329.001C285.233 328.905 285.52 328.848 285.769 328.825C286.007 328.795 286.257 328.814 286.376 328.828C286.508 328.846 286.583 328.861 286.583 328.861C286.736 328.891 286.835 329.04 286.804 329.192C286.783 329.303 286.699 329.386 286.597 329.411Z" fill="#3C3C3B"/>
<path d="M284.566 328.096C284.566 328.096 284.493 328.124 284.364 328.166C284.225 328.205 284.086 328.27 283.883 328.35C283.487 328.506 282.994 328.776 282.536 329.091C282.082 329.412 281.667 329.783 281.386 330.097C281.248 330.254 281.126 330.386 281.053 330.485C280.977 330.584 280.927 330.639 280.927 330.639L280.915 330.653C280.801 330.779 280.608 330.788 280.482 330.674C280.395 330.596 280.364 330.479 280.39 330.373C280.39 330.373 280.471 330.046 280.731 329.615C280.984 329.183 281.436 328.672 281.991 328.299C282.269 328.115 282.564 327.959 282.853 327.84C283.144 327.728 283.426 327.653 283.669 327.608C283.906 327.557 284.143 327.55 284.269 327.547C284.404 327.548 284.482 327.553 284.482 327.553C284.638 327.563 284.755 327.697 284.745 327.852C284.737 327.965 284.665 328.058 284.566 328.096Z" fill="#3C3C3B"/>
<path d="M282.643 326.748C282.643 326.748 282.568 326.77 282.439 326.799C282.298 326.825 282.166 326.878 281.964 326.944C281.572 327.069 281.084 327.312 280.636 327.609C280.193 327.913 279.793 328.274 279.533 328.586C279.404 328.741 279.292 328.872 279.227 328.973C279.16 329.072 279.114 329.127 279.114 329.127L279.1 329.144C278.993 329.276 278.8 329.295 278.668 329.188C278.58 329.116 278.542 329.003 278.56 328.898C278.56 328.898 278.617 328.565 278.862 328.126C279.098 327.685 279.547 327.17 280.105 326.808C280.385 326.63 280.684 326.483 280.975 326.377C281.27 326.279 281.554 326.218 281.8 326.189C282.036 326.154 282.28 326.165 282.4 326.174C282.532 326.187 282.608 326.2 282.608 326.2C282.762 326.225 282.866 326.369 282.841 326.523C282.824 326.633 282.743 326.718 282.643 326.748Z" fill="#3C3C3B"/>
<path d="M280.543 325.114C280.543 325.114 280.256 325.243 279.844 325.416C279.43 325.588 278.904 325.829 278.454 326.128L278.284 326.247C278.236 326.283 278.188 326.32 278.137 326.364C278.039 326.45 277.942 326.533 277.858 326.623C277.69 326.801 277.545 326.975 277.453 327.141C277.258 327.467 277.215 327.723 277.215 327.723C277.186 327.889 277.029 328 276.864 327.971C276.739 327.95 276.645 327.854 276.619 327.738L276.616 327.723C276.616 327.723 276.595 327.632 276.596 327.47C276.6 327.309 276.612 327.071 276.71 326.813C276.805 326.558 276.944 326.267 277.159 326.013C277.263 325.883 277.379 325.757 277.51 325.644C277.573 325.587 277.643 325.53 277.717 325.472C277.795 325.415 277.829 325.386 277.924 325.326C278.503 324.943 279.152 324.77 279.621 324.677C280.095 324.588 280.408 324.581 280.408 324.581H280.42C280.573 324.577 280.702 324.698 280.705 324.853C280.71 324.968 280.642 325.069 280.543 325.114Z" fill="#3C3C3B"/>
<path d="M233.217 166.474C229.323 206.67 227.138 299.796 227.138 319.868L245.318 320.387C249.428 282.101 252.656 231.416 256.766 193.13H258.156C260.107 231.943 261.252 280.657 262.283 319.505L281.262 319.868C281.117 275.965 282.438 213.2 282.793 169.299L233.217 166.474Z" fill="#4C518B"/>
<path d="M251.332 93.9915C238.46 93.9915 227.427 103.662 223.537 114.353C227.874 120.572 232.908 125.649 237.828 127.193C235.774 138.703 234.423 156.452 232.37 167.962C234.186 168.842 234.87 169.247 236.783 169.889C270.103 181.064 283.628 172.492 283.628 172.492C283.081 159.193 284.584 144.682 285.307 131.392C288.854 130.587 292.434 129.644 295.538 127.75C298.228 126.108 300.815 123.792 302.368 121.05C299.622 114.4 295.967 108.017 290.812 102.997C285.658 97.977 280.936 94.4565 273.753 94.0493C273.753 94.0493 273.694 104.172 262.225 104.368C250.757 104.564 251.332 93.9915 251.332 93.9915Z" fill="white"/>
<path opacity="0.32" d="M233.046 168.292C234.391 168.955 235.126 169.333 236.782 169.888C265.377 179.478 279.393 174.526 282.793 172.927C282.793 172.927 278.341 180.138 257.92 177.746C237.498 175.354 233.046 168.292 233.046 168.292Z" fill="#4C518B"/>
<path d="M260.527 193.117C260.527 193.117 260.077 193.166 259.396 193.202C258.716 193.241 257.809 193.25 256.901 193.235C255.995 193.208 255.088 193.155 254.411 193.082C253.734 193.013 253.286 192.939 253.286 192.939C253.182 192.923 253.111 192.825 253.128 192.721C253.143 192.629 253.223 192.562 253.314 192.56C253.314 192.56 253.766 192.555 254.443 192.568C255.118 192.584 256.019 192.606 256.919 192.629C257.819 192.659 258.719 192.69 259.394 192.713C260.071 192.747 260.522 192.769 260.522 192.769C260.618 192.773 260.693 192.855 260.687 192.951C260.683 193.037 260.616 193.106 260.533 193.115L260.527 193.117Z" fill="#222221"/>
<path d="M256.777 175.14C256.777 175.14 256.759 176.056 256.732 177.43C256.696 178.803 256.619 180.633 256.536 182.462C256.44 184.291 256.336 186.119 256.235 187.489C256.125 188.858 256.052 189.771 256.052 189.771C256.044 189.875 255.952 189.953 255.848 189.945C255.748 189.937 255.672 189.851 255.673 189.752C255.673 189.752 255.693 188.837 255.722 187.463C255.76 186.089 255.842 184.26 255.931 182.431C256.033 180.602 256.141 178.775 256.244 177.404C256.356 176.035 256.43 175.122 256.43 175.122C256.438 175.027 256.522 174.956 256.618 174.963C256.71 174.971 256.779 175.049 256.777 175.14Z" fill="#222221"/>
<path d="M260.94 175.648C260.94 175.648 260.894 176.542 260.824 177.883C260.746 179.223 260.61 181.008 260.471 182.792C260.375 183.676 260.375 184.585 260.083 185.458C259.939 185.888 259.694 186.296 259.36 186.582C259.04 186.872 258.65 187.045 258.305 187.139C257.599 187.329 257.015 187.274 256.618 187.259C256.223 187.226 255.997 187.206 255.997 187.206C255.893 187.197 255.815 187.106 255.824 187.001C255.833 186.902 255.917 186.826 256.016 186.828H256.024C256.024 186.828 256.244 186.833 256.631 186.841C257.012 186.837 257.569 186.83 258.16 186.649C258.455 186.554 258.744 186.414 258.989 186.176C259.233 185.951 259.409 185.634 259.532 185.271C259.775 184.542 259.781 183.633 259.865 182.742C260.026 180.959 260.19 179.177 260.337 177.842C260.492 176.508 260.595 175.619 260.595 175.619C260.606 175.523 260.693 175.455 260.788 175.466C260.878 175.477 260.945 175.557 260.94 175.648Z" fill="#222221"/>
<path d="M275.676 175.403C275.676 175.403 275.69 175.589 275.734 175.9C275.772 176.207 275.861 176.651 276 177.167C276.28 178.199 276.857 179.532 277.76 180.632C278.635 181.754 279.809 182.606 280.751 183.107C281.224 183.356 281.634 183.539 281.929 183.646C282.222 183.758 282.395 183.81 282.395 183.81C282.495 183.841 282.551 183.947 282.521 184.047C282.491 184.142 282.395 184.198 282.299 184.177L282.295 184.176C282.295 184.176 282.112 184.136 281.797 184.044C281.483 183.951 281.03 183.812 280.521 183.566C280.014 183.32 279.431 183 278.872 182.562C278.315 182.133 277.752 181.596 277.286 181.01C276.818 180.414 276.43 179.759 276.132 179.117C275.84 178.47 275.649 177.836 275.527 177.285C275.405 176.732 275.366 176.266 275.348 175.934C275.33 175.606 275.331 175.426 275.331 175.426V175.415C275.332 175.319 275.411 175.243 275.507 175.244C275.595 175.243 275.669 175.313 275.676 175.403Z" fill="#222221"/>
<path d="M240.489 171.528C240.489 171.528 240.439 171.705 240.352 172.014C240.263 172.315 240.119 172.783 239.884 173.29C239.774 173.549 239.634 173.819 239.481 174.103C239.334 174.391 239.148 174.676 238.958 174.973C238.559 175.555 238.082 176.138 237.563 176.683C237.026 177.211 236.444 177.69 235.867 178.095C235.571 178.287 235.289 178.48 235.001 178.627C234.718 178.783 234.449 178.925 234.189 179.036C233.936 179.16 233.695 179.252 233.478 179.326C233.264 179.405 233.076 179.47 232.917 179.512C232.603 179.602 232.423 179.653 232.423 179.653C232.322 179.682 232.217 179.624 232.189 179.524C232.162 179.428 232.212 179.329 232.304 179.294L232.316 179.289C232.316 179.289 232.485 179.225 232.781 179.114C233.076 179.005 233.488 178.82 233.966 178.573C234.209 178.457 234.46 178.309 234.723 178.15C234.99 177.996 235.251 177.801 235.532 177.618C236.079 177.226 236.623 176.758 237.133 176.256C237.637 175.747 238.1 175.198 238.49 174.651C238.672 174.369 238.871 174.109 239.021 173.84C239.18 173.575 239.328 173.323 239.444 173.08C239.693 172.597 239.869 172.201 239.982 171.894C240.095 171.593 240.159 171.421 240.159 171.421C240.193 171.331 240.293 171.285 240.383 171.319C240.468 171.349 240.513 171.442 240.489 171.528Z" fill="#222221"/>
<path d="M285.481 126.151C285.481 126.151 285.506 126.499 285.518 127.019C285.533 127.541 285.521 128.234 285.505 128.927C285.475 129.62 285.438 130.312 285.386 130.83C285.338 131.348 285.285 131.693 285.285 131.693C285.269 131.798 285.172 131.869 285.068 131.853C284.978 131.84 284.912 131.765 284.906 131.679C284.906 131.679 284.88 131.331 284.872 130.811C284.86 130.289 284.876 129.596 284.898 128.903C284.934 128.211 284.976 127.519 285.03 127.001C285.081 126.482 285.134 126.137 285.134 126.137C285.148 126.042 285.237 125.976 285.332 125.99C285.415 126.004 285.475 126.071 285.481 126.151Z" fill="#222221"/>
<path d="M238.976 121.439C238.976 121.439 238.956 121.808 238.899 122.355C238.845 122.903 238.744 123.629 238.637 124.354C238.516 125.077 238.389 125.799 238.271 126.336C238.156 126.874 238.058 127.229 238.058 127.229C238.031 127.331 237.926 127.391 237.824 127.363C237.736 127.339 237.679 127.256 237.683 127.169C237.683 127.169 237.703 126.801 237.763 126.254C237.818 125.707 237.925 124.981 238.038 124.257C238.164 123.535 238.296 122.814 238.418 122.277C238.536 121.739 238.633 121.384 238.633 121.384C238.658 121.291 238.754 121.236 238.847 121.262C238.928 121.283 238.979 121.358 238.976 121.439Z" fill="#222221"/>
<path d="M277.546 156.608C277.546 156.608 277.451 156.83 277.284 157.217C277.113 157.596 276.852 158.167 276.489 158.799C276.135 159.44 275.677 160.164 275.144 160.911C274.598 161.648 273.973 162.403 273.309 163.123C272.628 163.827 271.904 164.488 271.196 165.072C270.482 165.649 269.779 166.139 269.157 166.528C268.542 166.927 267.998 167.207 267.619 167.402C267.236 167.591 267.017 167.699 267.017 167.699C266.892 167.76 266.74 167.708 266.678 167.583C266.621 167.465 266.663 167.324 266.772 167.256L266.782 167.25C266.782 167.25 266.986 167.125 267.341 166.906C267.698 166.693 268.195 166.364 268.777 165.956C269.071 165.758 269.379 165.524 269.701 165.275C270.028 165.031 270.351 164.747 270.699 164.472C271.379 163.899 272.064 163.246 272.722 162.564C273.376 161.879 273.994 161.16 274.535 160.456C274.793 160.095 275.067 159.762 275.293 159.422C275.526 159.088 275.744 158.77 275.929 158.465C276.314 157.862 276.608 157.362 276.809 156.986C277.013 156.616 277.129 156.405 277.129 156.405C277.19 156.293 277.332 156.252 277.444 156.314C277.55 156.371 277.592 156.5 277.546 156.608Z" fill="#222221"/>
<path d="M271.69 159.107C271.69 159.107 271.309 159.611 270.655 160.318C270.01 161.027 269.078 161.904 268.086 162.711C267.082 163.505 266.023 164.225 265.19 164.699C264.361 165.18 263.779 165.443 263.779 165.443C263.651 165.503 263.5 165.447 263.441 165.32C263.389 165.206 263.429 165.072 263.528 165.003C263.528 165.003 264.046 164.65 264.821 164.12C265.591 163.585 266.608 162.86 267.58 162.078C268.071 161.694 268.553 161.298 268.995 160.914C269.435 160.529 269.854 160.177 270.196 159.855C270.889 159.217 271.35 158.791 271.35 158.791C271.444 158.704 271.591 158.71 271.678 158.804C271.756 158.888 271.759 159.014 271.693 159.102L271.69 159.107Z" fill="#222221"/>
<path d="M268.346 123.146L279.29 123.393C279.29 123.393 280.752 137.68 271.75 136.148C271.75 136.148 267.038 136.517 268.346 123.146Z" fill="#B4E1EE"/>
<path d="M267.791 63.7838C267.791 63.7838 267.849 63.7673 267.95 63.7373C268.046 63.711 268.213 63.6638 268.397 63.645C268.772 63.5895 269.284 63.612 269.777 63.732C270.268 63.8633 270.729 64.0898 271.031 64.32C271.335 64.5465 271.499 64.7385 271.499 64.7385L271.503 64.7438C271.563 64.8143 271.555 64.92 271.484 64.98C271.424 65.0303 271.341 65.0325 271.28 64.9905C271.28 64.9905 270.515 64.4655 269.642 64.248C269.21 64.1273 268.759 64.08 268.419 64.0733C268.088 64.0598 267.842 64.0838 267.842 64.0838C267.758 64.092 267.683 64.0305 267.675 63.9458C267.668 63.8715 267.716 63.804 267.785 63.7838H267.791Z" fill="#3C3C3B"/>
<path d="M250.71 64.6762C250.71 64.6762 250.754 64.6357 250.832 64.5645C250.906 64.4977 251.035 64.3815 251.192 64.2825C251.503 64.0665 251.972 63.8587 252.467 63.7462C252.965 63.6457 253.478 63.6435 253.851 63.7155C254.225 63.783 254.456 63.882 254.456 63.882L254.463 63.885C254.549 63.9217 254.588 64.02 254.551 64.1055C254.52 64.1767 254.446 64.2157 254.373 64.2052C254.373 64.2052 253.454 64.0747 252.575 64.2682C252.134 64.3522 251.71 64.5105 251.402 64.6552C251.1 64.7902 250.89 64.9215 250.89 64.9215C250.818 64.9665 250.724 64.9447 250.679 64.8727C250.639 64.809 250.652 64.728 250.705 64.6792L250.71 64.6762Z" fill="#3C3C3B"/>
<path d="M245.966 65.9333C245.966 65.9333 246.108 66.054 246.29 66.2858C246.465 66.516 246.661 66.8535 246.797 67.2188C246.917 67.5885 246.968 67.9763 246.972 68.2665C246.973 68.5575 246.933 68.7473 246.933 68.7473C246.925 68.7945 246.881 68.826 246.833 68.8178C246.792 68.811 246.763 68.772 246.761 68.7315C246.761 68.7315 246.764 68.5478 246.742 68.277C246.728 68.0055 246.658 67.6478 246.537 67.308C246.43 66.9638 246.264 66.6375 246.111 66.4125C245.968 66.186 245.848 66.0375 245.848 66.0375C245.821 66.0038 245.826 65.9543 245.86 65.9273C245.89 65.9033 245.932 65.9048 245.96 65.928L245.966 65.9333Z" fill="#DA806C"/>
<path d="M246.738 67.5435C246.738 67.5435 246.629 67.614 246.493 67.7235C246.347 67.8285 246.173 67.9942 246.03 68.1832C245.876 68.3632 245.748 68.5657 245.675 68.7292C245.596 68.8897 245.55 69.003 245.55 69.003C245.532 69.0472 245.482 69.069 245.437 69.0502C245.4 69.0352 245.38 68.9955 245.384 68.958C245.384 68.958 245.397 68.8267 245.463 68.64C245.532 68.4555 245.654 68.2177 245.818 68.0092C245.994 67.8105 246.201 67.6447 246.37 67.542C246.545 67.44 246.665 67.404 246.665 67.404L246.673 67.4017C246.715 67.389 246.758 67.413 246.771 67.4542C246.781 67.4895 246.767 67.5255 246.738 67.5435Z" fill="#DA806C"/>
<path d="M278.87 66.3525C278.87 66.3525 278.744 66.4973 278.594 66.7185C278.432 66.9383 278.256 67.2578 278.137 67.5991C278.004 67.9343 277.922 68.2898 277.898 68.5605C277.867 68.8305 277.863 69.0143 277.863 69.0143C277.862 69.0615 277.823 69.0998 277.775 69.0991C277.733 69.0983 277.698 69.0645 277.691 69.024C277.691 69.024 277.658 68.8328 277.669 68.5425C277.682 68.253 277.747 67.8668 277.88 67.5015C278.028 67.1415 278.235 66.8108 278.419 66.5865C278.609 66.36 278.755 66.2445 278.755 66.2445L278.762 66.2393C278.795 66.2123 278.845 66.2183 278.872 66.252C278.896 66.2828 278.894 66.3248 278.87 66.3525Z" fill="#DA806C"/>
<path d="M278.006 67.6913C278.006 67.6913 278.124 67.731 278.296 67.839C278.461 67.947 278.662 68.1203 278.831 68.325C278.988 68.5395 279.101 68.7803 279.164 68.9678C279.224 69.1568 279.232 69.2888 279.232 69.2888C279.238 69.336 279.202 69.3788 279.155 69.384C279.116 69.3878 279.079 69.3623 279.065 69.3278C279.065 69.3278 279.023 69.213 278.95 69.0503C278.883 68.8845 278.761 68.6775 278.614 68.4923C278.478 68.298 278.308 68.127 278.167 68.0168C278.035 67.9028 277.928 67.8285 277.928 67.8285C277.892 67.8038 277.884 67.7543 277.909 67.719C277.929 67.6898 277.966 67.6785 277.999 67.6898L278.006 67.6913Z" fill="#DA806C"/>
<path opacity="0.53" d="M225.05 116.435C225.05 116.435 229.91 123.48 235.765 126.346C235.765 126.346 233.783 128.507 233.269 129.016C233.269 129.016 225.557 123.922 223.897 117.863L225.05 116.435Z" fill="#FFC49B"/>
<path opacity="0.53" d="M300.281 123.887C300.281 123.887 296.293 128.949 287.47 130.876L288.051 134.189C288.051 134.189 297.493 131.456 300.557 125.79L300.281 123.887Z" fill="#FFC49B"/>
</g>
<defs>
<clipPath id="clip0_3957_5874">
<path d="M0 20C0 8.95431 8.95431 0 20 0H355C366.046 0 375 8.95431 375 20V375H0V20Z" fill="white"/>
</clipPath>
</defs>
</svg>
