<svg width="106" height="105" viewBox="0 0 106 105" fill="none" xmlns="http://www.w3.org/2000/svg">
<path d="M66.6894 36.7837H63.0256V45.9432H66.6894V36.7837Z" fill="black"/>
<path d="M74.0171 36.7837H70.3533V45.9432H74.0171V36.7837Z" fill="black"/>
<path d="M66.6894 49.607H63.0256V53.2708H66.6894V49.607Z" fill="black"/>
<path d="M74.0171 49.607H70.3533V53.2708H74.0171V49.607Z" fill="black"/>
<path d="M53.8662 56.9346H50.2024V60.5984H53.8662V56.9346Z" fill="black"/>
<path d="M44.7068 93.5725H41.043V97.2363H44.7068V93.5725Z" fill="black"/>
<path d="M74.0171 56.9346H70.3533V60.5984H74.0171V56.9346Z" fill="black"/>
<path d="M66.6894 64.2621H63.0256V67.9259H66.6894V64.2621Z" fill="black"/>
<path d="M74.0171 64.2621H70.3533V67.9259H74.0171V64.2621Z" fill="black"/>
<path d="M0.741211 3.80956V25.7923C0.741211 26.8035 1.5619 27.6242 2.57311 27.6242H24.5559C25.5671 27.6242 26.3878 26.8035 26.3878 25.7923V3.80956C26.3878 2.79835 25.5671 1.97766 24.5559 1.97766H2.57311C1.5619 1.97766 0.741211 2.79835 0.741211 3.80956ZM4.405 5.64145H22.724V23.9604H4.405V5.64145Z" fill="black"/>
<path d="M17.2283 9.30524H9.90074C8.88954 9.30524 8.06885 10.1259 8.06885 11.1371V18.4647C8.06885 19.4759 8.88954 20.2966 9.90074 20.2966H17.2283C18.2395 20.2966 19.0602 19.4759 19.0602 18.4647V11.1371C19.0602 10.1259 18.2395 9.30524 17.2283 9.30524ZM15.3964 16.6328H11.7326V12.969H15.3964V16.6328Z" fill="black"/>
<path d="M79.5128 27.6242H101.496C102.507 27.6242 103.327 26.8035 103.327 25.7923V3.80956C103.327 2.79835 102.507 1.97766 101.496 1.97766H79.5128C78.5016 1.97766 77.6809 2.79835 77.6809 3.80956V25.7923C77.6809 26.8035 78.5016 27.6242 79.5128 27.6242ZM81.3447 5.64145H99.6637V23.9604H81.3447V5.64145Z" fill="black"/>
<path d="M94.168 9.30524H86.8404C85.8292 9.30524 85.0085 10.1259 85.0085 11.1371V18.4647C85.0085 19.4759 85.8292 20.2966 86.8404 20.2966H94.168C95.1792 20.2966 95.9999 19.4759 95.9999 18.4647V11.1371C95.9999 10.1259 95.1792 9.30524 94.168 9.30524ZM92.3361 16.6328H88.6723V12.969H92.3361V16.6328Z" fill="black"/>
<path d="M24.5559 78.9174H2.57311C1.5619 78.9174 0.741211 79.738 0.741211 80.7493V102.732C0.741211 103.743 1.5619 104.564 2.57311 104.564H24.5559C25.5671 104.564 26.3878 103.743 26.3878 102.732V80.7493C26.3878 79.738 25.5671 78.9174 24.5559 78.9174ZM22.724 100.9H4.405V82.5812H22.724V100.9Z" fill="black"/>
<path d="M9.90074 97.2363H17.2283C18.2395 97.2363 19.0602 96.4156 19.0602 95.4044V88.0768C19.0602 87.0656 18.2395 86.2449 17.2283 86.2449H9.90074C8.88954 86.2449 8.06885 87.0656 8.06885 88.0768V95.4044C8.06885 96.4156 8.88954 97.2363 9.90074 97.2363ZM11.7326 89.9087H15.3964V93.5725H11.7326V89.9087Z" fill="black"/>
<path d="M74.0171 29.4561H61.1938V7.47333H57.53V31.288C57.53 32.2992 58.3507 33.1199 59.3619 33.1199H74.0171V29.4561Z" fill="black"/>
<path d="M46.5386 16.6328H33.7153V20.2966H46.5386V16.6328Z" fill="black"/>
<path d="M53.8662 9.30524H41.043V12.969H53.8662V9.30524Z" fill="black"/>
<path d="M4.405 29.4561H0.741211V45.9432H4.405V29.4561Z" fill="black"/>
<path d="M26.3878 40.4475H8.06885V44.1113H24.5559V51.4389H28.2197V42.2794C28.2197 41.2682 27.399 40.4475 26.3878 40.4475Z" fill="black"/>
<path d="M13.5644 31.288H9.90063V34.9518H13.5644V31.288Z" fill="black"/>
<path d="M35.5473 27.6242H31.8835V42.2794H35.5473V27.6242Z" fill="black"/>
<path d="M48.3706 45.9432H31.8835V49.607H48.3706V45.9432Z" fill="black"/>
<path d="M105.159 47.7751H101.495V66.0941H95.9998V69.7578H103.327C104.339 69.7578 105.159 68.9372 105.159 67.926V47.7751Z" fill="black"/>
<path d="M44.7068 27.6242H41.043V31.288H44.7068V27.6242Z" fill="black"/>
<path d="M4.405 55.1027H0.741211V69.7578H4.405V55.1027Z" fill="black"/>
<path d="M17.2283 71.5897H0.741211V75.2535H17.2283V71.5897Z" fill="black"/>
<path d="M85.0085 45.9432H88.6723V38.6156C88.6723 37.6044 87.8516 36.7837 86.8404 36.7837H77.6809V40.4475H85.0085V45.9432Z" fill="black"/>
<path d="M13.5644 55.1027H9.90063V58.7665H13.5644V55.1027Z" fill="black"/>
<path d="M33.7153 53.2708H30.0515V67.9259H33.7153V53.2708Z" fill="black"/>
<path d="M46.5386 71.5897H30.0515V75.2535H46.5386V71.5897Z" fill="black"/>
<path d="M24.5559 64.2621H8.06885V67.9259H24.5559V64.2621Z" fill="black"/>
<path d="M35.5473 89.9087H31.8835V97.2363H35.5473V89.9087Z" fill="black"/>
<path d="M46.5386 82.5811H30.0515V86.2449H46.5386V82.5811Z" fill="black"/>
<path d="M59.3618 75.2535V66.094C59.3618 65.0828 58.5411 64.2621 57.5299 64.2621H39.2109V67.9259H55.698V75.2535H59.3618Z" fill="black"/>
<path d="M44.7068 53.2708H41.043V56.9345H44.7068V53.2708Z" fill="black"/>
<path d="M24.5559 56.9346H20.8921V60.5984H24.5559V56.9346Z" fill="black"/>
<path d="M105.159 91.7406H101.496V104.564H105.159V91.7406Z" fill="black"/>
<path d="M97.8316 100.9H92.3359V104.564H97.8316V100.9Z" fill="black"/>
<path d="M95.9997 89.9087H92.3359V97.2363H95.9997V89.9087Z" fill="black"/>
<path d="M105.159 75.2535C105.159 74.2423 104.339 73.4216 103.327 73.4216H83.1765V77.0854H101.495V88.0768H105.159V75.2535Z" fill="black"/>
<path d="M81.3446 97.2363V88.0768C81.3446 87.0656 80.5239 86.2449 79.5127 86.2449H59.3618V89.9087H77.6808V97.2363H81.3446Z" fill="black"/>
<path d="M97.8318 80.7492H85.0085V84.413H97.8318V80.7492Z" fill="black"/>
<path d="M42.8748 100.9H30.0515V104.564H42.8748V100.9Z" fill="black"/>
<path d="M52.0344 88.0768H48.3706V104.564H52.0344V88.0768Z" fill="black"/>
<path d="M59.362 78.9174H52.0344V82.5812H59.362V78.9174Z" fill="black"/>
<path d="M79.5128 60.5984H88.6723V56.9346H81.3447V45.9432H77.6809V58.7665C77.6809 59.7777 78.5016 60.5984 79.5128 60.5984Z" fill="black"/>
<path d="M94.168 49.607H85.0085V53.2708H94.168V49.607Z" fill="black"/>
<path d="M97.8316 31.288H92.3359V34.9518H97.8316V31.288Z" fill="black"/>
<path d="M105.159 31.288H101.496V40.4475H105.159V31.288Z" fill="black"/>
<path d="M95.9997 40.4475H92.3359V44.1113H95.9997V40.4475Z" fill="black"/>
<path d="M64.8577 25.7923H72.1852C73.1965 25.7923 74.0171 24.9716 74.0171 23.9604V0.145752H70.3534V22.1285H64.8577V25.7923Z" fill="black"/>
<path d="M37.3791 3.80955H64.8576V0.145752H35.5472C34.536 0.145752 33.7153 0.966442 33.7153 1.97765V11.1371H37.3791V3.80955Z" fill="black"/>
<path d="M39.2109 38.6156H52.0342C53.0454 38.6156 53.8661 37.7949 53.8661 36.7837V22.1285H50.2023V34.9518H39.2109V38.6156Z" fill="black"/>
<path d="M59.3618 36.7837H55.698V44.1113H59.3618V36.7837Z" fill="black"/>
<path d="M72.1851 93.5725H59.3618V97.2363H72.1851V93.5725Z" fill="black"/>
<path d="M75.8489 100.9H59.3618V104.564H75.8489V100.9Z" fill="black"/>
<path d="M85.0085 100.9H81.3447V104.564H86.8404C87.8516 104.564 88.6723 103.743 88.6723 102.732V88.0768H85.0085V100.9Z" fill="black"/>
<path d="M26.3877 71.5897H22.7239V75.2535H26.3877V71.5897Z" fill="black"/>
<path d="M72.1853 71.5897H64.8577V75.2535H72.1853V71.5897Z" fill="black"/>
<path d="M81.3447 64.2621H77.6809V69.7578H81.3447V64.2621Z" fill="black"/>
<path d="M79.5127 73.4216H75.8489V77.0854H79.5127V73.4216Z" fill="black"/>
<path d="M70.3534 78.9174H64.8577V82.5812H70.3534V78.9174Z" fill="black"/>
<path d="M88.6723 64.2621H85.0085V67.9259H88.6723V64.2621Z" fill="black"/>
<path d="M97.8316 56.9346H92.3359V60.5984H97.8316V56.9346Z" fill="black"/>
<path d="M66.6895 56.9346H57.53V60.5984H66.6895V56.9346Z" fill="black"/>
<path d="M59.3618 47.7751H55.698V53.2708H59.3618V47.7751Z" fill="black"/>
</svg>
