<svg width="34" height="34" viewBox="0 0 34 34" fill="none" xmlns="http://www.w3.org/2000/svg">
<path d="M18.1717 13.6385C17.8334 13.1641 17.8334 12.4078 17.8334 10.8951V10.4997C17.8334 6.30577 17.8334 4.2088 17.0081 3.8475C16.1828 3.4862 15.2983 5.19592 13.5291 8.61535L10.7922 13.9053C9.64398 16.1247 9.06985 17.2345 9.3862 18.107C9.39144 18.1214 9.39684 18.1358 9.40238 18.15C9.73751 19.0092 10.7291 19.0092 12.7123 19.0092C13.8144 19.0092 14.3654 19.0092 14.711 19.4736" stroke="#ED1C24" stroke-width="2"/>
<path opacity="0.5" d="M18.1711 13.6388L18.189 13.6634C18.5347 14.1278 19.0857 14.1278 20.1878 14.1278C22.171 14.1278 23.1626 14.1278 23.4977 14.987C23.5032 15.0013 23.5086 15.0156 23.5139 15.03C23.8302 15.9026 23.2561 17.0123 22.1078 19.2317L19.3709 24.5216C17.6017 27.9411 16.7172 29.6508 15.8919 29.2895C15.0666 28.9282 15.0666 26.8312 15.0667 22.6372L15.0667 22.2419C15.0667 20.7293 15.0667 19.9729 14.7284 19.4985L14.7104 19.4739" stroke="#ED1C24" stroke-width="2"/>
</svg>
