<svg width="72" height="53" viewBox="0 0 72 53" fill="none" xmlns="http://www.w3.org/2000/svg">
<path fill-rule="evenodd" clip-rule="evenodd" d="M4.09977 1.52283H67.9004C69.2817 1.52283 70.4118 2.65289 70.4118 4.03409V15.7957C69.6089 15.1893 68.6108 14.8288 67.5309 14.8288H54.4817C51.8421 14.8288 49.6892 16.9816 49.6892 19.6213V35.6327H1.58838V4.03409C1.58838 2.65289 2.71844 1.52283 4.09977 1.52283ZM70.4118 48.432V19.6213C70.4118 18.0371 69.1155 16.7404 67.5309 16.7404H54.4817C52.8972 16.7404 51.6009 18.0368 51.6009 19.6213V48.4318C51.6009 50.0162 52.8974 51.3127 54.4817 51.3127H67.5309C69.1154 51.3128 70.4118 50.0159 70.4118 48.432ZM65.3196 35.1406H66.3554C66.8832 35.1406 67.3113 34.7125 67.3113 34.1847C67.3113 33.6568 66.8832 33.2287 66.3554 33.2287H65.3196C64.7917 33.2287 64.3636 33.6568 64.3636 34.1847C64.3636 34.7125 64.7917 35.1406 65.3196 35.1406ZM60.4885 35.1406H61.5243C62.0522 35.1406 62.4803 34.7125 62.4803 34.1847C62.4803 33.6568 62.0522 33.2287 61.5243 33.2287H60.4885C59.9607 33.2287 59.5326 33.6568 59.5326 34.1847C59.5326 34.7125 59.9607 35.1406 60.4885 35.1406ZM55.6575 35.1406H56.6933C57.2211 35.1406 57.6493 34.7125 57.6493 34.1847C57.6493 33.6568 57.2211 33.2287 56.6933 33.2287H55.6575C55.1297 33.2287 54.7015 33.6568 54.7015 34.1847C54.7015 34.7125 55.1297 35.1406 55.6575 35.1406ZM65.3196 29.3627H66.3554C66.8832 29.3627 67.3113 28.9345 67.3113 28.4067C67.3113 27.8788 66.8832 27.4507 66.3554 27.4507H65.3196C64.7917 27.4507 64.3636 27.8788 64.3636 28.4067C64.3636 28.9345 64.7917 29.3627 65.3196 29.3627ZM60.4885 29.3627H61.5243C62.0522 29.3627 62.4803 28.9345 62.4803 28.4067C62.4803 27.8788 62.0522 27.4507 61.5243 27.4507H60.4885C59.9607 27.4507 59.5326 27.8788 59.5326 28.4067C59.5326 28.9345 59.9607 29.3627 60.4885 29.3627ZM55.6575 29.3627H56.6933C57.2211 29.3627 57.6493 28.9345 57.6493 28.4067C57.6493 27.8788 57.2211 27.4507 56.6933 27.4507H55.6575C55.1297 27.4507 54.7015 27.8788 54.7015 28.4067C54.7015 28.9345 55.1297 29.3627 55.6575 29.3627ZM65.3196 23.5848H66.3554C66.8832 23.5848 67.3113 23.1567 67.3113 22.6288C67.3113 22.101 66.8832 21.6729 66.3554 21.6729H65.3196C64.7917 21.6729 64.3636 22.101 64.3636 22.6288C64.3636 23.1567 64.7917 23.5848 65.3196 23.5848ZM60.4885 23.5848H61.5243C62.0522 23.5848 62.4803 23.1567 62.4803 22.6288C62.4803 22.101 62.0522 21.6729 61.5243 21.6729H60.4885C59.9607 21.6729 59.5326 22.101 59.5326 22.6288C59.5326 23.1567 59.9607 23.5848 60.4885 23.5848ZM55.6575 23.5848H56.6933C57.2211 23.5848 57.6493 23.1567 57.6493 22.6288C57.6493 22.101 57.2211 21.6729 56.6933 21.6729H55.6575C55.1297 21.6729 54.7015 22.101 54.7015 22.6288C54.7015 23.1567 55.1297 23.5848 55.6575 23.5848ZM61.0065 38.2956C62.392 38.2956 63.649 38.859 64.5615 39.7699L64.5672 39.7756C65.477 40.6881 66.0395 41.9443 66.0395 43.3285C66.0395 44.7178 65.476 45.9762 64.5651 46.8871C63.6546 47.7976 62.3958 48.3613 61.0065 48.3613C59.6173 48.3613 58.3587 47.7978 57.4481 46.8871C56.5371 45.9761 55.9737 44.7178 55.9737 43.3285C55.9737 41.9393 56.5373 40.6806 57.4479 39.7699C58.3588 38.8589 59.6171 38.2956 61.0065 38.2956ZM63.2135 41.1179L63.2171 41.1215C63.7795 41.6838 64.1276 42.4642 64.1276 43.3285C64.1276 44.1905 63.7783 44.971 63.2135 45.5355C62.649 46.1001 61.8685 46.4494 61.0065 46.4494C60.1445 46.4494 59.364 46.1001 58.7996 45.5355C58.235 44.9709 57.8857 44.1905 57.8857 43.3285C57.8857 42.4665 58.235 41.6861 58.7995 41.1215C59.3642 40.5568 60.1445 40.2075 61.0065 40.2075C61.871 40.2074 62.6512 40.5554 63.2135 41.1179ZM13.8296 14.8575C17.1302 11.557 21.4569 9.90663 25.7832 9.90663C30.1095 9.90663 34.4363 11.5572 37.7368 14.8575C38.11 15.2308 38.7152 15.2308 39.0884 14.8575C39.4616 14.4843 39.4616 13.8792 39.0884 13.506C35.4144 9.83196 30.5985 7.99468 25.7832 7.99468C20.9679 7.99468 16.1523 9.83196 12.478 13.506C12.1048 13.8792 12.1048 14.4843 12.478 14.8575C12.8512 15.2306 13.4563 15.2306 13.8296 14.8575ZM22.0913 23.1188C23.1106 22.0996 24.447 21.5898 25.7832 21.5898C27.1193 21.5898 28.4557 22.0996 29.4753 23.119C29.8485 23.4922 30.4536 23.4922 30.8268 23.119C31.2 22.7458 31.2 22.1406 30.8264 21.7671C29.4337 20.3745 27.6084 19.678 25.7832 19.678C23.958 19.678 22.1325 20.3747 20.7395 21.7675C20.3663 22.1408 20.3663 22.7459 20.7395 23.119C21.1128 23.4923 21.7179 23.4923 22.0913 23.1188ZM17.9603 18.9883C20.1202 16.8285 22.9518 15.7482 25.7833 15.7482C28.6147 15.7482 31.4463 16.8283 33.6063 18.9883C33.9795 19.3615 34.5847 19.3615 34.9577 18.9883C35.331 18.6151 35.331 18.01 34.9577 17.6368C32.4242 15.1032 29.1036 13.8362 25.7833 13.8362C22.4629 13.8362 19.1423 15.1032 16.6088 17.6368C16.2356 18.01 16.2356 18.6151 16.6088 18.9883C16.9818 19.3615 17.587 19.3615 17.9603 18.9883ZM25.7832 25.7408C24.8388 25.7408 24.073 26.5064 24.073 27.451C24.073 28.3954 24.8388 29.1612 25.7832 29.1612C26.7275 29.1612 27.4932 28.3954 27.4932 27.451C27.4934 26.5064 26.7276 25.7408 25.7832 25.7408ZM27.0914 41.9696C26.5635 41.9696 26.1354 41.5414 26.1354 41.0136C26.1354 40.4858 26.5635 40.0576 27.0914 40.0576H44.9089C45.4367 40.0576 45.8649 40.4858 45.8649 41.0136C45.8649 41.5414 45.4367 41.9696 44.9089 41.9696H27.0914ZM49.6892 45.5895V37.5446H1.58838V43.0782C1.58838 44.4594 2.71844 45.5895 4.09977 45.5895H49.6892ZM32.2241 50.3564V47.5012H34.1361V50.3564H37.8639V47.5012H39.7758V50.3564H46.6319C47.1597 50.3564 47.5878 50.7846 47.5878 51.3124C47.5878 51.8403 47.1597 52.2684 46.6319 52.2684H25.3683C24.8404 52.2684 24.4123 51.8403 24.4123 51.3124C24.4123 50.7846 24.8404 50.3564 25.3683 50.3564H32.2241Z" fill="url(#paint0_linear_3943_5863)"/>
<defs>
<linearGradient id="paint0_linear_3943_5863" x1="9.89179" y1="52.4176" x2="64.8616" y2="-2.55203" gradientUnits="userSpaceOnUse">
<stop stop-color="#011C49"/>
<stop offset="1" stop-color="#00B8E0"/>
</linearGradient>
</defs>
</svg>
