<svg width="375" height="375" viewBox="0 0 375 375" fill="none" xmlns="http://www.w3.org/2000/svg">
<g clip-path="url(#clip0_3957_5640)">
<path d="M375 0H0V375H375V0Z" fill="#FFF5CF"/>
<mask id="mask0_3957_5640" style="mask-type:luminance" maskUnits="userSpaceOnUse" x="0" y="0" width="375" height="375">
<path d="M375 0H0V375H375V0Z" fill="white"/>
</mask>
<g mask="url(#mask0_3957_5640)">
<path d="M-11.3813 108.814C5.89115 101.416 26.3729 101.927 43.2539 110.179C60.1349 118.432 73.1197 134.28 77.8896 152.455C85.8059 150.073 95.1674 154.49 98.3632 162.115C106.459 144.831 126.211 133.795 145.174 135.961C164.136 138.127 180.89 153.335 184.879 171.999C187.906 164.595 198.416 161.547 204.936 166.181C202.652 154.897 208.09 142.458 217.924 136.47C227.758 130.482 241.304 131.362 250.281 138.571C249.717 121.737 262.171 105.364 278.545 101.414C294.92 97.464 313.469 106.357 320.642 121.597C328.684 114.548 342.298 115.192 349.639 122.968C346.3 113.49 349.026 102.166 356.313 95.2447C363.6 88.3237 375.049 86.1847 388.49 89.6062C385.459 135.763 382.428 181.921 379.396 228.079C316.14 242.044 252.705 256.038 188.244 262.456C123.783 268.875 57.9389 267.562 -4.7476 251.225C-6.6106 205.868 -8.4736 160.51 -11.3813 108.814Z" fill="#FFEDBA"/>
<path opacity="0.9882" d="M-11.3813 150.538C6.54815 147.16 26.1172 156.766 34.6087 173.115C43.1002 189.463 39.8324 211.24 26.9279 224.295C36.1627 224.351 44.9339 231.295 47.2192 240.358C58.4362 224.963 79.6282 217.875 97.6897 223.477C115.751 229.08 129.391 246.973 130.174 266.091C136.122 260.908 146.083 261.431 151.471 267.211C154.083 256.841 162.268 248.1 172.352 244.909C182.437 241.719 194.078 244.187 202.052 251.208C200.829 232.101 214.113 213.039 232.297 207.809C250.48 202.579 271.671 211.726 284.278 229.041C293.863 221.588 308.188 221.144 318.206 227.989C311.889 215.023 313.229 198.575 321.56 186.833C329.891 175.091 344.854 168.561 359 170.492C357.198 161.702 360.186 152.061 366.624 145.891C373.062 139.722 382.731 137.234 391.295 139.544L391.602 140.614L385.657 394.337L-3.53485 391.527L-11.3813 150.538Z" fill="#FFFAE7"/>
<path d="M-33.3848 259.343C-17.613 251.935 2.54248 255.162 15.213 267.124C27.8835 279.087 32.262 299.024 25.7707 315.195C35.4427 316.117 43.5022 325.516 42.9375 335.215C50.7352 323.12 66.7545 317.006 80.628 320.83C94.5015 324.653 105.127 338.11 105.627 352.493C111.19 347.541 120.755 348.088 129.448 352.18C134.764 335.926 151.485 324.154 168.578 324.629C185.671 325.105 201.712 337.789 206.116 354.312C214.122 340.494 234.949 336.319 250.103 346.205C254.641 331.598 265.705 319.153 279.68 312.935C293.656 306.718 310.306 306.832 324.195 313.241C325.501 302.035 336.688 292.941 347.926 293.95C340.946 279.455 343.774 260.81 354.74 249.037C365.705 237.265 384.103 233.12 400.017 238.387C401.606 287.127 399.298 335.995 393.121 384.368C256.48 388.914 119.839 393.459 -16.8015 398.005C-17.5245 350.747 -19.5795 303.509 -33.3848 259.343Z" fill="white"/>
</g>
<path d="M158.967 342.919C158.092 347.324 158.052 351.971 159.596 356.204C160.807 359.522 163.078 362.558 166.361 364.481C168.092 365.495 170.393 365.12 171.657 363.599C173.394 361.51 174.491 358.907 174.993 356.259C175.692 352.569 175.337 348.77 174.731 345.064C174.403 343.053 173.59 337.106 168.999 335.06C168.842 334.99 168.683 334.927 168.52 334.87C166.016 334 163.244 335.107 161.79 337.325C160.539 339.235 159.326 341.113 158.967 342.919Z" fill="#3E2336"/>
<path d="M131.254 322.818C138.124 333.306 147.601 342.074 159.75 348.35C164.924 348.35 168.453 340.205 166.195 335.462C161.04 329.264 156.889 322.231 153.952 314.722C147.432 320.198 139.045 323.408 131.254 322.818Z" fill="#FE8C6D"/>
<path d="M107.307 309.917C106.197 311.784 105.089 313.739 103.901 315.455C100.218 314.783 96.7358 312.949 93.9976 310.397C95.8463 308.969 97.8053 307.686 99.8521 306.562C100.316 306.307 100.8 306.056 101.327 306.002C102.36 305.899 103.307 306.573 104.042 307.308C104.776 308.043 105.443 308.898 107.307 309.917Z" fill="#1C3C70"/>
<path d="M82.8314 289.645C76.6282 296.799 72.7942 305.975 72.0127 315.704C75.7807 320.108 79.2277 324.787 82.6162 329.678C86.5957 320.528 93.4769 312.666 102.018 307.51C97.3927 299.699 90.2744 293.39 82.8314 289.645Z" fill="#FE8C6D"/>
<path d="M106.729 286.526C101.963 285.79 97.1443 285.052 92.3368 285.434C87.5293 285.817 82.6603 287.43 80.1958 291.331C90.4671 295.563 98.7958 304.28 103.901 315.455C109.522 315.67 115.144 315.885 121.552 316.204C123.585 320.444 126.154 324.426 129.859 327.99C134.874 329.048 140.156 327.681 144.664 325.241C149.171 322.802 153.034 319.348 156.591 315.222C153.949 307.369 151.306 299.516 148.665 291.663C134.764 292.081 121.165 288.754 106.729 286.526Z" fill="#29BFFF"/>
<path d="M123.582 295.505C122.574 302.041 122.106 308.659 122.186 315.271" stroke="#1F9EF2" stroke-miterlimit="10" stroke-linecap="round" stroke-linejoin="round"/>
<path d="M111.56 295.338C119.266 299.594 127.825 302.299 136.577 303.245" stroke="#1F9EF2" stroke-miterlimit="10" stroke-linecap="round" stroke-linejoin="round"/>
<path d="M113.735 305.984C119.939 307.05 126.211 307.72 132.501 307.989" stroke="#1F9EF2" stroke-miterlimit="10" stroke-linecap="round" stroke-linejoin="round"/>
<path d="M84.2392 334.225C84.036 334.811 83.637 335.321 83.136 335.657C82.6665 335.978 82.1032 336.149 81.5085 336.11C75.8752 335.766 61.0717 327.042 56.4007 319.571C55.767 318.545 55.728 317.333 56.1427 316.253C56.4712 315.401 57.0742 314.634 57.8955 314.102C60.2115 312.615 63.0202 312.177 65.6572 312.255C71.7285 312.435 77.8237 314.978 81.5557 319.571C84.8812 323.647 85.9845 329.366 84.2392 334.225Z" fill="#3E2336"/>
<path d="M83.136 335.657C82.6665 335.978 82.1032 336.149 81.5085 336.11C75.8752 335.766 61.0717 327.042 56.4007 319.571C55.767 318.545 55.728 317.333 56.1427 316.253C58.0755 316.37 60.0082 316.832 61.839 317.505C64.953 318.663 67.8165 320.4 70.6567 322.129C73.614 323.928 76.5952 325.759 79.0125 328.232C81.0157 330.29 82.6042 332.864 83.136 335.657Z" fill="#633952"/>
<path d="M152.405 253.395C161.65 253.266 170.879 257.217 177.698 263.977C179.851 261.899 183.46 261.543 186.403 263.868C187.272 263.552 188.195 263.231 189.104 263.409C190.012 263.587 190.849 264.47 190.622 265.367C190.489 265.897 190.04 266.279 189.617 266.624C188.261 267.728 186.906 268.831 185.551 269.934C186.657 270.071 187.756 269.627 188.87 269.632C189.985 269.637 191.284 270.446 191.093 271.544C190.964 272.289 190.224 272.744 189.558 273.103C186.506 274.746 183.455 276.39 180.425 278.445C179.927 279.237 179.786 280.193 179.608 281.111C179.43 282.029 179.181 282.984 178.535 283.66C177.888 284.336 176.724 284.602 176.013 283.995C175.527 283.581 175.38 282.903 175.261 282.276C174.976 280.772 174.69 279.267 174.2 277.433C168.6 273.527 162.047 270.999 155.274 270.134C154.977 264.407 153.71 258.73 152.405 253.395Z" fill="#FE8C6D"/>
<path d="M185.69 264.337C184.027 264.776 182.468 265.605 181.174 266.738" stroke="#E0483A" stroke-miterlimit="10" stroke-linecap="round" stroke-linejoin="round"/>
<path d="M97.0349 233.121C87.9629 227.299 80.6241 218.813 76.1721 208.996C72.9306 211.115 69.6891 213.235 66.6831 216.252C70.2689 230.167 78.2324 242.919 89.1614 252.248C92.9429 246.691 95.8244 240.522 97.0349 233.121Z" fill="#FE8C6D"/>
<path d="M96.3645 233.581C93.6038 239.6 89.8583 245.166 85.062 251.085C89.709 257.908 95.7765 263.761 102.987 269.158C103.229 272.953 103.47 276.748 103.812 281.427C102.385 282.429 101.48 283.566 102.018 285.84C109.656 289.51 117.377 293.776 125.657 295.575C133.939 297.373 142.955 297.116 150.755 292.424C150.344 290.785 149.369 289.291 148.445 288.031C147.184 283.835 145.923 279.639 145.093 274.489C149.514 273.29 153.698 272.136 157.541 271.093C158.627 264.781 157.409 258.097 153.942 252.543C145.898 249.946 137.535 248.335 128.503 247.573C117.06 245.629 106.075 241.042 96.3645 233.581Z" fill="#F63B50"/>
<path d="M104.553 251.856C103.601 256.994 103.2 262.234 103.362 267.456" stroke="#D42C56" stroke-miterlimit="10" stroke-linecap="round" stroke-linejoin="round"/>
<path d="M110.383 265.56C113.69 274.232 120.502 281.51 128.938 285.381" stroke="#D42C56" stroke-miterlimit="10" stroke-linecap="round" stroke-linejoin="round"/>
<path d="M138.013 263.642C139.227 266.946 140.811 270.114 142.726 273.068" stroke="#D42C56" stroke-miterlimit="10" stroke-linecap="round" stroke-linejoin="round"/>
<path d="M133.922 248.137C133.907 248.528 133.875 248.919 133.829 249.31C133.343 253.786 131.09 257.932 127.906 260.1C124.44 262.447 120.004 262.369 116.592 259.897C115.661 259.216 114.808 258.371 114.073 257.385C112.109 254.795 110.904 251.298 110.842 247.722C117.992 248.089 125.973 248.52 133.922 248.137Z" fill="#FE8C6D"/>
<path d="M133.922 248.137C133.907 248.528 133.875 248.919 133.829 249.31C128.368 254.059 121.295 256.931 114.073 257.385C112.109 254.795 110.904 251.298 110.842 247.722C117.992 248.089 125.973 248.52 133.922 248.137Z" fill="#3E2336"/>
<path d="M103.56 201.463C100.804 207.42 98.372 213.527 96.2772 219.748C94.9527 223.681 93.7505 227.768 94.0287 231.909C94.433 237.934 98.06 243.482 102.987 246.973C107.913 250.465 114.012 252.044 120.048 252.26C128.753 252.571 137.625 250.067 144.556 244.792C151.488 239.517 156.336 231.419 157.169 222.748C158.001 214.077 154.628 204.988 147.986 199.352C143.388 195.452 137.503 193.304 131.547 192.373C126.511 191.586 121.294 191.629 116.386 193.004C111.479 194.38 105.85 196.514 103.56 201.463Z" fill="#FE8C6D"/>
<path d="M153.234 236.114C148.683 229.112 147.777 219.873 150.882 212.121C146.911 210.38 144.07 206.308 143.807 201.98C141.836 203.456 139.819 204.956 137.478 205.721C135.138 206.485 132.375 206.396 130.437 204.876C128.501 203.357 127.845 200.192 129.486 198.357C126.835 201.029 123.156 202.653 119.396 202.811C117.993 202.869 116.496 202.699 115.39 201.833C114.284 200.969 113.778 199.229 114.63 198.113C112.035 200.828 108.025 202.109 104.201 201.399C100.671 208.284 97.7105 215.461 95.3585 222.831C93.656 221.467 92.525 219.411 92.285 217.243C92.0442 215.075 92.6967 212.822 93.8765 211.215C91.4847 209.441 90.335 206.15 91.1022 203.273C91.8695 200.395 94.5057 198.113 97.8627 197.468C95.7867 196.414 95.1867 193.53 96.0612 191.373C96.9357 189.215 98.8977 187.694 100.926 186.55C107.466 182.862 115.614 182.159 122.76 184.573C122.34 182.589 123.41 180.491 125.044 179.291C126.678 178.091 128.773 177.672 130.8 177.664C134.823 177.648 138.832 179.179 141.82 181.871C144.808 184.564 146.748 188.393 147.582 192.476C153.584 192.931 159.058 196.835 162.038 202.064C165.018 207.294 165.64 213.679 164.403 219.569C163.165 225.46 160.173 230.882 156.389 235.564C155.38 235.643 154.371 235.724 153.234 236.114Z" fill="#692539"/>
<path d="M150.138 234.992C152.052 232.608 155.616 231.722 158.424 232.931C161.232 234.141 163.035 237.34 162.618 240.368C162.213 243.309 159.962 245.729 157.35 247.141C155.113 248.351 152.493 248.959 149.99 248.513C147.486 248.066 145.138 246.476 144.082 244.162" fill="#FE8C6D"/>
<path d="M129.493 229.003C129.432 226.723 132.094 224.803 135.438 224.714C138.783 224.625 141.543 226.4 141.603 228.68C141.664 230.959 139.002 232.879 135.658 232.969C132.315 233.057 129.555 231.282 129.493 229.003Z" fill="#FB6F61"/>
<path d="M127.545 223.181C127.825 221.311 129.266 219.977 130.761 220.202C132.257 220.427 133.242 222.125 132.961 223.994C132.68 225.864 131.24 227.197 129.744 226.973C128.248 226.748 127.263 225.05 127.545 223.181Z" fill="#3E2336"/>
<path d="M106.198 225.622C106.807 223.581 105.127 221.1 102.445 220.081C99.7631 219.063 97.0946 219.892 96.4848 221.934C95.8751 223.975 97.5558 226.456 100.238 227.475C102.921 228.493 105.588 227.664 106.198 225.622Z" fill="#FB6F61"/>
<path d="M109.741 220.506C110.022 218.636 109.038 216.939 107.542 216.714C106.046 216.489 104.606 217.822 104.325 219.692C104.044 221.562 105.028 223.259 106.525 223.484C108.02 223.708 109.46 222.375 109.741 220.506Z" fill="#3E2336"/>
<path d="M103.807 209.966C106.378 207.578 110.511 206.704 113.974 207.817C113.321 205.565 110.554 204.012 108.049 204.491C105.544 204.971 103.699 207.407 103.807 209.966Z" fill="#692539"/>
<path d="M127.935 210.066C132.156 209.574 136.606 211.654 138.53 215.02C138.835 213.407 138.777 211.696 138.012 210.208C137.248 208.719 135.693 207.493 133.862 207.285C132.573 207.138 131.25 207.499 130.171 208.143C129.093 208.786 128.242 209.693 127.935 210.066Z" fill="#692539"/>
<path d="M112.997 223.546C113.119 222.089 114.366 220.807 115.819 220.644C117.271 220.481 118.771 221.456 119.212 222.85" stroke="#E0483A" stroke-miterlimit="10" stroke-linecap="round" stroke-linejoin="round"/>
<path d="M127.115 238.45C125.292 241.831 121.498 244.147 117.656 243.943C115.153 243.81 112.789 242.636 110.982 240.891C110.285 240.218 109.675 239.467 109.167 238.645C107.336 235.704 106.796 232.073 107.242 228.638C107.5 228.662 107.758 228.685 108.009 228.7C114.503 229.201 120.793 228.802 126.841 227.386C127.021 227.691 127.193 228.012 127.334 228.332C127.945 229.607 128.296 230.977 128.398 232.354C128.547 234.46 128.125 236.588 127.115 238.45Z" fill="#3E2336"/>
<path d="M127.334 228.334C123.125 231.323 117.805 232.684 112.68 232.129C110.881 231.941 109.292 230.846 108.362 229.297C108.245 229.094 108.127 228.898 108.01 228.702C114.504 229.203 120.794 228.804 126.842 227.387C127.022 227.693 127.193 228.014 127.334 228.334Z" fill="white"/>
<path d="M127.115 238.451C125.292 241.831 121.498 244.147 117.656 243.943C115.153 243.81 112.789 242.636 110.982 240.891C112.351 237.44 115.058 234.522 118.454 233.004C121.552 231.62 125.152 231.44 128.398 232.355C128.547 234.461 128.125 236.588 127.115 238.451Z" fill="#FA4664"/>
<path d="M76.3125 212.045C77.1248 210.323 77.9483 208.556 78.1328 206.66C78.3165 204.764 77.7383 202.681 76.2795 201.632C75.6075 198.45 73.266 195.67 70.2443 194.466C69.3053 194.092 68.2493 193.865 67.2878 194.176C66.3263 194.487 65.5358 195.484 65.5508 196.367C61.5863 198.962 58.968 203.452 58.5405 208.456C58.365 210.515 59.184 212.543 60.7298 213.914C62.973 215.906 65.5455 217.526 68.3138 218.681C70.9568 216.374 74.8703 215.105 76.3125 212.045Z" fill="#FE8C6D"/>
<path d="M60.3594 211.675C61.4236 212.4 62.6574 212.875 63.9331 213.052C64.4866 213.128 65.0821 213.141 65.5674 212.864C65.9986 212.618 66.2859 212.166 66.4171 211.687C66.5491 211.209 66.5409 210.703 66.4906 210.208" fill="#FE8C6D"/>
<path d="M60.3594 211.675C61.4236 212.4 62.6574 212.875 63.9331 213.052C64.4866 213.128 65.0821 213.141 65.5674 212.864C65.9986 212.618 66.2859 212.166 66.4171 211.687C66.5491 211.209 66.5409 210.703 66.4906 210.208" stroke="#E0483A" stroke-miterlimit="10" stroke-linecap="round" stroke-linejoin="round"/>
<path d="M60.2979 207.187C61.4079 207.692 62.2838 208.591 63.3038 209.26C64.3238 209.928 65.6626 210.358 66.7501 209.806C67.7633 209.293 68.2328 208.076 68.2831 206.94" fill="#FE8C6D"/>
<path d="M60.2979 207.187C61.4079 207.692 62.2838 208.591 63.3038 209.26C64.3238 209.928 65.6626 210.358 66.7501 209.806C67.7633 209.293 68.2328 208.076 68.2831 206.94" stroke="#E0483A" stroke-miterlimit="10" stroke-linecap="round" stroke-linejoin="round"/>
<path d="M62.3481 202.487C63.3899 203.308 64.1804 204.405 65.1696 205.29C66.1589 206.174 67.4781 206.862 68.7764 206.588C70.1826 206.291 71.1779 204.862 71.2259 203.425" fill="#FE8C6D"/>
<path d="M62.3481 202.487C63.3899 203.308 64.1804 204.405 65.1696 205.29C66.1589 206.174 67.4781 206.862 68.7764 206.588C70.1826 206.291 71.1779 204.862 71.2259 203.425" stroke="#E0483A" stroke-miterlimit="10" stroke-linecap="round" stroke-linejoin="round"/>
<path d="M66.0806 197.557C67.4231 199.856 69.2156 201.891 71.4026 203.407C72.1788 203.596 73.0166 203.12 73.4043 202.421C73.7921 201.723 73.7898 200.86 73.5731 200.091C73.3563 199.322 72.9446 198.625 72.5366 197.937" fill="#FE8C6D"/>
<path d="M66.0806 197.557C67.4231 199.856 69.2156 201.891 71.4026 203.407C72.1788 203.596 73.0166 203.12 73.4043 202.421C73.7921 201.723 73.7898 200.86 73.5731 200.091C73.3563 199.322 72.9446 198.625 72.5366 197.937" stroke="#E0483A" stroke-miterlimit="10" stroke-linecap="round" stroke-linejoin="round"/>
<path d="M75.4833 201.536C73.222 201.253 70.9608 200.97 68.6995 200.687C68.254 200.632 67.801 200.575 67.3578 200.65C66.9153 200.725 66.4758 200.951 66.2493 201.338C65.9373 201.872 66.1091 202.582 66.4961 203.065C66.8831 203.548 67.4426 203.853 67.9878 204.146C68.8338 204.602 69.6805 205.057 70.4373 205.618C69.2605 207.728 69.3955 210.503 70.7725 212.487" fill="#FE8C6D"/>
<path d="M75.4833 201.536C73.222 201.253 70.9608 200.97 68.6995 200.687C68.254 200.632 67.801 200.575 67.3578 200.65C66.9153 200.725 66.4758 200.951 66.2493 201.338C65.9373 201.872 66.1091 202.582 66.4961 203.065C66.8831 203.548 67.4426 203.853 67.9878 204.146C68.8338 204.602 69.6805 205.057 70.4373 205.618C69.2605 207.728 69.3955 210.503 70.7725 212.487" stroke="#E0483A" stroke-miterlimit="10" stroke-linecap="round" stroke-linejoin="round"/>
<path d="M63.9052 213.203C62.5867 219.773 63.6434 226.794 66.8384 232.685C68.9834 236.639 72.0217 240.043 74.2927 243.927C76.5629 247.81 78.0502 252.519 76.6859 256.805C75.6074 260.192 72.9419 262.782 70.7317 265.565C68.5207 268.349 66.6254 271.879 67.5022 275.323" stroke="#3E2336" stroke-miterlimit="10" stroke-linecap="round" stroke-linejoin="round"/>
<path d="M63.2617 294.616C59.4855 293.688 55.905 291.732 53.385 288.77C50.8657 285.807 49.4925 281.799 50.0595 277.952C50.913 272.166 55.6785 267.893 59.9062 263.852C64.3477 259.607 68.778 254.392 68.649 248.249C68.517 241.988 63.7087 236.901 61.6185 230.997C59.6085 225.321 60.2647 218.763 63.36 213.599" stroke="#3E2336" stroke-miterlimit="10" stroke-linecap="round" stroke-linejoin="round"/>
<path d="M69.5923 168.873C71.231 179.441 72.869 190.01 74.5078 200.578" stroke="#3E2336" stroke-miterlimit="10" stroke-linecap="round" stroke-linejoin="round"/>
<path d="M68.0436 162.339C67.1203 162.433 66.4963 163.477 66.6456 164.393C66.7956 165.309 67.5411 166.039 68.3878 166.418C69.1963 166.78 70.1511 166.87 70.9701 166.532C71.7891 166.194 72.4296 165.386 72.4438 164.5C70.9993 164.173 69.6276 163.534 68.0436 162.339Z" fill="#D42C56"/>
<path d="M68.5295 163.891C66.2675 165.139 64.3408 167.204 62.978 169.994C63.4213 170.871 63.872 171.758 64.5065 172.468C65.141 173.177 65.9915 173.699 66.9148 173.683C67.913 173.665 68.87 173.032 69.869 172.991C70.8755 172.949 71.786 173.508 72.7603 173.731C73.7345 173.954 75.0035 173.657 75.4603 172.459C74.132 169.379 72.0673 166.738 68.5295 163.891Z" fill="#D42C56"/>
<path d="M108.189 135.518C102.743 153.623 84.6232 168.402 69.828 163.95C63.42 162.026 58.6867 156.799 55.8307 150.031C52.083 141.182 51.5355 129.673 54.618 119.415C60.0555 101.31 74.7495 93.9398 89.5447 98.3918C98.91 101.209 106.069 108.078 108.682 117.326C110.2 122.694 110.192 128.867 108.189 135.518Z" fill="#F63B50"/>
<path opacity="0.502" d="M108.189 135.517C102.743 153.622 84.6231 168.402 69.8278 163.95C63.4198 162.025 58.6866 156.799 55.8306 150.031C58.1383 152.855 61.4091 154.952 64.9378 155.992C70.3521 157.597 76.2591 156.923 81.5638 154.991C89.9436 151.948 97.0708 145.822 101.782 138.256C105.702 131.965 107.971 124.712 108.682 117.326C110.2 122.694 110.192 128.866 108.189 135.517Z" fill="#D42C56"/>
<path d="M88.855 103.714C84.4247 101.469 79.0697 101.051 74.3215 102.58C69.5732 104.11 65.4932 107.566 63.247 111.961C62.059 114.286 61.5992 117.574 63.7397 119.086C65.5465 120.363 68.1392 119.524 69.8935 118.166C71.6477 116.808 73.0442 114.97 75.034 113.976C76.9832 113.002 79.2617 112.96 81.442 113.042C83.623 113.124 85.852 113.302 87.9512 112.708C90.0505 112.113 92.035 110.535 92.359 108.409C92.6837 106.283 90.4607 104.527 88.855 103.714Z" fill="#FC4C58"/>
<path d="M66.6758 164.967C68.0955 166.157 70.0643 166.662 71.8815 166.304" stroke="#3E2336" stroke-miterlimit="10" stroke-linecap="round" stroke-linejoin="round"/>
<path d="M84.145 178.817C80.878 186.164 77.611 193.51 74.3447 200.857" stroke="#3E2336" stroke-miterlimit="10" stroke-linecap="round" stroke-linejoin="round"/>
<path d="M85.5184 172.75C84.6041 172.589 83.7191 173.424 83.6141 174.347C83.5091 175.269 84.0274 176.174 84.7399 176.769C85.4194 177.337 86.3134 177.684 87.1931 177.581C88.0729 177.479 88.9091 176.876 89.1634 176.027C87.8636 175.32 86.7176 174.331 85.5184 172.75Z" fill="#FFA33B"/>
<path d="M131.446 157.862C121.281 173.802 99.8231 183.095 86.7963 174.786C81.1541 171.191 78.0206 164.873 77.1139 157.584C75.9146 148.049 78.5186 136.825 84.2756 127.793C94.4336 111.851 110.578 108.755 123.604 117.065C131.85 122.323 136.87 130.881 136.869 140.491C136.87 146.069 135.183 152.006 131.446 157.862Z" fill="#FFBE45"/>
<path opacity="0.502" d="M131.446 157.862C121.281 173.802 99.823 183.095 86.7963 174.786C81.154 171.191 78.0205 164.873 77.1138 157.584C78.5665 160.93 81.1428 163.838 84.2553 165.799C89.029 168.815 94.8963 169.775 100.527 169.358C109.418 168.709 117.944 164.753 124.534 158.754C130.017 153.767 134.174 147.405 136.869 140.492C136.87 146.069 135.183 152.006 131.446 157.862Z" fill="#FFA33B"/>
<path d="M121.493 121.997C117.84 118.632 112.8 116.773 107.816 116.953C102.831 117.133 97.9639 119.35 94.6069 122.968C92.8316 124.882 91.4944 127.921 93.1429 129.958C94.5341 131.678 97.2574 131.577 99.3146 130.747C101.372 129.916 103.216 128.528 105.402 128.113C107.542 127.706 109.746 128.286 111.822 128.958C113.898 129.63 115.995 130.408 118.177 130.407C120.36 130.406 122.698 129.427 123.588 127.469C124.479 125.511 122.817 123.217 121.493 121.997Z" fill="#FFCE52"/>
<path d="M84.1464 174.68C81.5237 175.916 79.2384 177.86 77.8892 180.249C80.3552 180.933 80.7024 184.767 83.1182 185.614C84.5552 186.118 86.0934 185.333 87.4172 184.58C88.7409 183.827 90.2957 183.058 91.7207 183.596C91.2527 182.316 90.7247 181.058 90.1397 179.826C89.7257 178.956 89.2539 178.064 88.4642 177.512C87.6864 176.968 86.7062 176.827 85.8197 176.487C84.9332 176.146 84.0422 175.451 84.1464 174.68Z" fill="#FFA33B"/>
<path d="M83.2202 174.72C84.3647 176.456 86.5112 177.475 88.5797 177.266" stroke="#3E2336" stroke-miterlimit="10" stroke-linecap="round" stroke-linejoin="round"/>
<path d="M305.714 199.401C304.836 197.734 303.945 196.025 303.68 194.159C303.416 192.294 303.896 190.21 305.292 189.11C305.817 185.936 308.009 183.087 310.943 181.766C311.854 181.355 312.887 181.084 313.851 181.349C314.815 181.615 315.639 182.565 315.663 183.439C319.694 185.83 322.477 190.152 323.117 195.077C323.381 197.105 322.66 199.144 321.193 200.567C319.063 202.632 316.592 204.345 313.907 205.607C311.194 203.444 307.271 202.361 305.714 199.401Z" fill="#FE8C6D"/>
<path d="M321.461 198.338C320.441 199.102 319.243 199.625 317.989 199.855C317.446 199.955 316.858 199.994 316.366 199.741C315.93 199.517 315.626 199.082 315.475 198.615C315.324 198.148 315.31 197.648 315.338 197.157" fill="#FE8C6D"/>
<path d="M321.461 198.338C320.441 199.102 319.243 199.625 317.989 199.855C317.446 199.955 316.858 199.994 316.366 199.741C315.93 199.517 315.626 199.082 315.475 198.615C315.324 198.148 315.31 197.648 315.338 197.157" stroke="#E0483A" stroke-miterlimit="10" stroke-linecap="round" stroke-linejoin="round"/>
<path d="M321.325 193.901C320.251 194.449 319.425 195.376 318.445 196.081C317.467 196.786 316.162 197.269 315.064 196.772C314.04 196.308 313.523 195.126 313.423 194.006" fill="#FE8C6D"/>
<path d="M321.325 193.901C320.251 194.449 319.425 195.376 318.445 196.081C317.467 196.786 316.162 197.269 315.064 196.772C314.04 196.308 313.523 195.126 313.423 194.006" stroke="#E0483A" stroke-miterlimit="10" stroke-linecap="round" stroke-linejoin="round"/>
<path d="M319.094 189.347C318.101 190.205 317.367 191.323 316.429 192.239C315.491 193.157 314.216 193.893 312.922 193.679C311.519 193.448 310.474 192.079 310.363 190.661" fill="#FE8C6D"/>
<path d="M319.094 189.347C318.101 190.205 317.367 191.323 316.429 192.239C315.491 193.157 314.216 193.893 312.922 193.679C311.519 193.448 310.474 192.079 310.363 190.661" stroke="#E0483A" stroke-miterlimit="10" stroke-linecap="round" stroke-linejoin="round"/>
<path d="M315.192 184.639C313.966 186.968 312.283 189.057 310.189 190.651C309.43 190.871 308.581 190.439 308.168 189.765C307.754 189.092 307.72 188.24 307.9 187.47C308.08 186.701 308.457 185.994 308.83 185.297" fill="#FE8C6D"/>
<path d="M315.192 184.639C313.966 186.968 312.283 189.057 310.189 190.651C309.43 190.871 308.581 190.439 308.168 189.765C307.754 189.092 307.72 188.24 307.9 187.47C308.08 186.701 308.457 185.994 308.83 185.297" stroke="#E0483A" stroke-miterlimit="10" stroke-linecap="round" stroke-linejoin="round"/>
<path d="M306.074 188.981C308.296 188.603 310.518 188.224 312.74 187.846C313.178 187.772 313.623 187.697 314.064 187.751C314.505 187.806 314.948 188.009 315.189 188.382C315.521 188.896 315.382 189.605 315.021 190.1C314.659 190.593 314.119 190.92 313.594 191.234C312.778 191.72 311.962 192.208 311.238 192.795C312.493 194.828 312.48 197.575 311.206 199.596" fill="#FE8C6D"/>
<path d="M306.074 188.981C308.296 188.603 310.518 188.224 312.74 187.846C313.178 187.772 313.623 187.697 314.064 187.751C314.505 187.806 314.948 188.009 315.189 188.382C315.521 188.896 315.382 189.605 315.021 190.1C314.659 190.593 314.119 190.92 313.594 191.234C312.778 191.72 311.962 192.208 311.238 192.795C312.493 194.828 312.48 197.575 311.206 199.596" stroke="#E0483A" stroke-miterlimit="10" stroke-linecap="round" stroke-linejoin="round"/>
<path d="M305.604 197.199L301.925 201.825L310.509 212.456L314.444 204.778L305.604 197.199Z" fill="#FE8C6D"/>
<path d="M220.452 239.462C221.793 236.751 223.135 234.04 224.476 231.329C224.848 230.578 225.229 229.715 224.954 228.919C224.571 227.81 223.07 227.548 222.078 228.11C221.088 228.672 220.495 229.761 219.955 230.795C219.305 228.338 218.655 225.881 218.005 223.425C217.854 222.855 217.695 222.266 217.336 221.809C216.978 221.351 216.362 221.058 215.833 221.269C215.198 221.522 214.974 222.33 214.881 223.034C214.629 224.943 214.722 226.901 215.151 228.774C214.044 226.758 212.621 224.932 210.954 223.393C210.382 222.864 209.574 222.344 208.909 222.737C208.128 223.199 208.317 224.416 208.633 225.294C209.306 227.166 210.072 229 210.818 230.578C209.103 229.594 207.304 228.767 205.45 228.111C204.774 227.872 203.999 227.663 203.373 228.023C202.527 228.511 202.443 229.825 202.926 230.699C203.409 231.573 204.315 232.064 205.076 232.686C205.728 233.219 206.493 233.895 207.142 234.887C205.581 234.329 204.412 233.566 203.515 233.44C202.359 233.276 201.43 234.005 201.501 235.222C201.556 236.146 202.335 236.815 203.049 237.364C205.575 239.302 208.119 241.217 210.678 243.107C213.758 242.105 216.84 241.105 220.452 239.462Z" fill="#FE8C6D"/>
<path d="M218.903 231.925C216.708 232.108 214.701 233.81 214.076 236.017" stroke="#E0483A" stroke-miterlimit="10" stroke-linecap="round" stroke-linejoin="round"/>
<path d="M253.528 310.96C261.11 323.72 266.464 337.8 269.276 352.374C274.316 349.252 279.573 346.484 284.938 343.114C285.473 331.45 283.588 319.681 279.438 308.767C270.587 309.818 261.736 310.869 253.528 310.96Z" fill="#FE8C6D"/>
<path d="M300.919 345.069C300.473 349.059 275.163 362.759 270.077 361.382C269.944 361.343 269.819 361.296 269.717 361.241C266.869 359.692 268.614 351.039 271.376 346.837C274.13 342.635 278.715 339.779 283.629 338.723C286.837 338.035 290.233 338.082 293.347 339.13C296.257 340.1 300.592 342.299 300.904 344.599C300.935 344.756 300.935 344.912 300.919 345.069Z" fill="#3E2336"/>
<path d="M300.919 345.069C300.473 349.059 275.163 362.759 270.077 361.382C270.649 359.497 271.673 357.728 272.933 356.194C274.858 353.871 277.299 352.032 279.787 350.318C283.081 348.057 286.555 345.968 290.38 344.81C293.784 343.777 297.523 343.543 300.904 344.599C300.935 344.756 300.935 344.912 300.919 345.069Z" fill="#633952"/>
<path d="M224.25 316.774C224.03 312.964 219.874 307.771 217.597 308.398C213.075 309.643 201.669 332.767 204.564 336.839C206.154 339.076 215.319 335.257 219.127 331.535C222.936 327.814 224.58 322.463 224.25 316.774Z" fill="#3E2336"/>
<path d="M253.658 308.264C253.007 315.169 251.401 321.982 248.689 328.487C247.699 330.862 245.326 332.346 242.756 332.213C235.295 331.827 227.891 330.337 220.864 327.801C220.769 323.524 221.309 319.232 222.956 314.877C224.804 315.133 226.669 315.26 228.858 314.875C229.165 314.821 229.41 314.569 229.454 314.26C229.802 311.808 229.773 309.303 229.368 306.86C237.267 306.97 245.159 307.705 253.658 308.264Z" fill="#FE8C6D"/>
<path d="M235.796 270.837L238.223 265.861C232.016 266.295 223.058 266.2 217.526 265.378C214.243 264.889 211.268 262.919 209.906 259.892C207.926 255.493 205.868 247.757 205.158 242.548C210.627 241.308 215.581 239.452 221.457 237.759C222.629 240.082 223.59 242.294 224.609 244.44C224.983 245.227 225.836 245.674 226.695 245.526C241.272 243.021 254.99 240.866 269.13 237.544C278.723 226.609 289.796 216.931 302.907 199.603C307.284 202.327 310.884 206.286 313.391 211.714C305.346 228.751 294.418 244.423 280.469 256.94C279.344 264.541 277.871 272.092 275.911 280.027C262.274 278.695 248.765 276.031 235.796 270.837Z" fill="#FFBE45"/>
<path d="M245.604 254.98C244.509 258.978 242.144 262.618 238.935 265.243" stroke="#F08826" stroke-miterlimit="10" stroke-linecap="round" stroke-linejoin="round"/>
<path d="M226.114 246.708C227.195 248.612 227.765 250.802 227.752 252.99" stroke="#F08826" stroke-miterlimit="10" stroke-linecap="round" stroke-linejoin="round"/>
<path d="M228.421 247.367C230.539 248.472 232.275 250.29 233.281 252.456" stroke="#F08826" stroke-miterlimit="10" stroke-linecap="round" stroke-linejoin="round"/>
<path d="M275.784 241.239C275.705 243.692 274.764 246.085 273.217 247.968C272.426 248.946 271.47 249.776 270.391 250.406C267.234 252.259 263.142 252.296 259.956 250.517C256.764 248.731 254.577 245.181 254.391 241.461C254.944 240.964 255.441 240.424 255.872 239.845C256.353 239.193 256.764 238.497 257.094 237.756C257.094 237.748 257.102 237.748 257.102 237.741C257.166 237.756 257.224 237.763 257.289 237.778C262.567 238.846 269.154 240.217 275.784 241.239Z" fill="#FE8C6D"/>
<path d="M257.095 237.756C257.159 237.771 257.224 237.778 257.289 237.778C262.567 238.846 269.155 240.217 275.785 241.24C275.706 243.693 274.763 246.086 273.217 247.969C266.875 246.916 260.805 244.078 255.872 239.846" fill="#3E2336"/>
<path d="M269.96 267.553C272.9 259.943 275.211 250.561 276.372 241.174C277.897 240.938 279.422 240.702 281.608 240.431C281.207 248.472 277.25 262.291 274.523 268.655C273.02 268.353 271.516 268.051 269.96 267.553Z" fill="#1F9EF2"/>
<path d="M234.776 271.145C227.46 282.061 224.093 295.566 225.907 308.865C243.473 315.832 263.357 316.802 281.56 310.847C279.998 300.386 278.435 289.926 276.488 279.482C276.472 275.256 275.992 271.031 274.607 267.046C265.577 266.544 256.616 264.794 248.041 262.094C244.419 264.993 240.295 267.262 235.912 268.781C235.429 269.718 235.076 270.698 234.776 271.145Z" fill="#1F9EF2"/>
<path d="M251.938 264.537C254.158 257.581 254.107 248.012 253.549 240.256C251.377 240.331 249.224 240.892 247.222 241.903C248.329 249.47 247.987 257.246 246.22 264.687C247.879 264.682 249.538 264.676 251.938 264.537Z" fill="#1F9EF2"/>
<path d="M235.158 272.379C247.205 279.724 261.819 282.765 275.796 280.833" stroke="#106BCC" stroke-miterlimit="10" stroke-linecap="round" stroke-linejoin="round"/>
<path d="M267.334 269.464C262.94 269.063 258.585 268.297 254.073 267.343C252.973 269.99 252.541 273.124 254.074 275.575C255.865 278.437 260.209 279.479 263.363 277.972C266.517 276.466 268.183 272.769 267.334 269.464Z" stroke="#106BCC" stroke-miterlimit="10" stroke-linecap="round" stroke-linejoin="round"/>
<path d="M261.139 265.786C260.905 266.557 260.671 267.326 260.437 268.096" stroke="#106BCC" stroke-miterlimit="10" stroke-linecap="round" stroke-linejoin="round"/>
<path d="M257.725 278.49C257.574 279.109 257.424 279.729 257.07 281.007C256.107 291.402 255.797 301.857 256.141 312.29" stroke="#106BCC" stroke-miterlimit="10" stroke-linecap="round" stroke-linejoin="round"/>
<path d="M242.405 276.474C239.687 279.984 234.856 281.711 230.528 280.72" stroke="#106BCC" stroke-miterlimit="10" stroke-linecap="round" stroke-linejoin="round"/>
<path d="M269.712 281.755C271.069 284.478 274.029 286.324 277.072 286.345" stroke="#106BCC" stroke-miterlimit="10" stroke-linecap="round" stroke-linejoin="round"/>
<path d="M226.234 306.88C243.276 314.117 262.99 314.843 280.518 308.88" stroke="#106BCC" stroke-miterlimit="10" stroke-linecap="round" stroke-linejoin="round"/>
<path d="M241.325 182.501C238.846 174.965 231.846 168.969 223.948 168.222C216.05 167.475 207.802 172.364 205.152 179.842C203.969 183.181 203.84 186.871 202.275 190.049C200.774 193.097 198.095 195.382 195.369 197.408C192.643 199.433 189.758 201.326 187.568 203.922C185.378 206.519 183.948 210.023 184.743 213.325C184.938 214.135 185.314 214.973 186.048 215.368C186.937 215.846 188.089 215.495 188.828 214.808C189.568 214.121 189.989 213.167 190.389 212.24C188.686 216.006 188.849 220.564 190.817 224.198C191.662 225.759 193.178 227.299 194.93 227.01C196.153 226.808 197.071 225.743 197.549 224.599C198.028 223.455 198.171 222.203 198.502 221.009C199.289 218.159 201.191 215.634 203.711 214.09C207.203 211.95 211.513 211.77 215.427 210.563C221.384 208.725 226.37 204.483 230.165 199.537C233.959 194.591 236.691 188.929 241.325 182.501Z" fill="#3E2336"/>
<path d="M249.654 202.083C254.932 194.761 253.86 184.97 247.262 180.214C240.664 175.459 231.037 177.54 225.76 184.862C220.483 192.184 221.554 201.975 228.152 206.73C234.75 211.486 244.377 209.405 249.654 202.083Z" fill="#FFBE45"/>
<path d="M294.239 229.846C293.114 234.202 289.823 237.805 285.856 239.94C280.004 243.095 272.972 243.246 266.383 242.334C257.908 241.156 249.539 238.282 242.744 233.084C235.949 227.885 230.842 220.224 229.2 211.118C232.324 199.747 240.343 189.805 250.794 184.341C261.245 178.876 273.984 177.971 285.947 180.913C290.348 185.572 292.263 192.07 292.985 198.44C293.578 203.662 293.471 208.929 293.768 214.174C293.837 215.329 293.921 216.484 294.042 217.632C294.156 218.787 294.308 219.95 294.437 221.113C294.772 224.055 294.977 227.004 294.239 229.846Z" fill="#FE8C6D"/>
<path d="M233.684 229.905C230.405 225.134 227.117 220.308 224.915 214.954C222.714 209.599 221.651 203.61 222.986 197.977C224.322 192.345 228.346 187.174 234.648 184.951C240.337 174.679 251.704 167.803 263.443 167.533C275.182 167.263 286.853 173.61 293.008 183.609C295.229 187.217 296.775 191.307 296.995 195.538C297.215 199.768 296.03 204.142 293.485 207.139C293.504 203.499 292.925 199.857 291.818 196.304C284.423 196.047 277.208 192.443 272.561 186.685C273.961 189.607 275.362 192.529 276.762 195.45C277.061 196.073 277.367 196.774 277.158 197.434C276.836 198.453 275.543 198.731 274.475 198.776C270.815 198.932 267.056 198.337 263.849 196.565C260.643 194.792 258.048 191.749 257.048 188.134C257.47 195.925 252.964 203.77 245.856 207.19C245.762 215.041 243.694 222.862 239.894 229.733C238.066 228.947 235.982 228.774 233.684 229.905Z" fill="#3E2336"/>
<path d="M241.891 226.309C239.373 224.734 236.136 223.71 233.464 225.007C230.529 226.432 229.414 230.394 230.584 233.44C231.754 236.485 234.722 238.574 237.874 239.417C239.904 239.96 242.101 240.05 244.082 239.352C246.064 238.654 247.795 237.096 248.407 235.087" fill="#FE8C6D"/>
<path d="M264.761 223.237C264.82 221.023 262.234 219.158 258.985 219.071C255.736 218.985 253.055 220.709 252.996 222.924C252.936 225.138 255.522 227.003 258.771 227.09C262.02 227.177 264.702 225.451 264.761 223.237Z" fill="#FB6F61"/>
<path d="M266.654 217.582C266.381 215.765 264.982 214.47 263.529 214.688C262.077 214.906 261.12 216.556 261.393 218.372C261.666 220.189 263.064 221.484 264.517 221.266C265.97 221.047 266.927 219.397 266.654 217.582Z" fill="#3E2336"/>
<path d="M294.438 221.113C294.057 221.364 293.632 221.585 293.184 221.752C290.577 222.74 287.985 221.934 287.391 219.95C286.799 217.967 288.433 215.557 291.04 214.569C291.983 214.212 292.925 214.091 293.769 214.174C293.837 215.329 293.921 216.484 294.042 217.632C294.156 218.787 294.309 219.95 294.438 221.113Z" fill="#FB6F61"/>
<path d="M283.949 214.983C283.676 213.167 284.633 211.517 286.086 211.299C287.538 211.081 288.938 212.376 289.211 214.193C289.484 216.009 288.527 217.658 287.074 217.877C285.621 218.094 284.222 216.799 283.949 214.983Z" fill="#3E2336"/>
<path d="M289.713 206.638C287.216 204.318 283.201 203.47 279.836 204.551C280.471 202.363 283.159 200.854 285.593 201.32C288.026 201.786 289.819 204.152 289.713 206.638Z" fill="#3E2336"/>
<path d="M266.275 206.736C262.174 206.258 257.851 208.279 255.982 211.549C255.686 209.982 255.742 208.32 256.485 206.873C257.228 205.427 258.738 204.236 260.517 204.034C261.77 203.891 263.055 204.242 264.102 204.867C265.15 205.492 265.977 206.374 266.275 206.736Z" fill="#3E2336"/>
<path d="M278.815 220.879C279.694 220.29 280.077 219.071 279.681 218.122C279.286 217.172 278.155 216.595 277.123 216.816" stroke="#E0483A" stroke-miterlimit="10" stroke-linecap="round" stroke-linejoin="round"/>
<path d="M268.77 230.883C270.002 233.462 272.727 235.313 275.571 235.29C277.424 235.275 279.209 234.48 280.602 233.241C281.139 232.763 281.615 232.224 282.019 231.629C283.47 229.5 283.992 226.814 283.779 224.242C283.587 224.251 283.396 224.26 283.21 224.263C278.397 224.418 273.765 223.91 269.346 222.653C269.202 222.875 269.064 223.108 268.95 223.342C268.456 224.271 268.149 225.279 268.028 226.301C267.847 227.863 268.087 229.463 268.77 230.883Z" fill="#3E2336"/>
<path d="M268.95 223.342C271.957 225.709 275.841 226.901 279.645 226.658C280.98 226.579 282.19 225.816 282.93 224.694C283.023 224.546 283.116 224.405 283.21 224.263C278.397 224.418 273.765 223.91 269.346 222.653C269.202 222.875 269.064 223.108 268.95 223.342Z" fill="white"/>
<path d="M268.77 230.883C270.002 233.462 272.727 235.313 275.571 235.29C277.424 235.275 279.209 234.48 280.602 233.241C279.707 230.626 277.807 228.362 275.35 227.117C273.108 225.983 270.457 225.728 268.028 226.301C267.847 227.864 268.087 229.463 268.77 230.883Z" fill="#FA4664"/>
<path d="M318.891 200.111C323.344 207.464 322.931 217.495 317.891 224.453C313.107 231.055 304.406 235.612 303.635 243.744C303.229 248.034 305.291 252.17 307.723 255.717C310.155 259.265 313.046 262.566 314.684 266.548C317.735 273.961 315.607 283.212 309.628 288.524" stroke="#3E2336" stroke-miterlimit="10" stroke-linecap="round" stroke-linejoin="round"/>
<path d="M294.97 273.717C300.931 276.245 308.149 276.018 313.6 272.524C319.05 269.029 322.318 262.143 320.944 255.816C319.986 251.409 316.977 247.202 317.957 242.8C318.773 239.134 322.144 236.632 325.498 234.941C328.851 233.251 332.537 231.949 335.14 229.243C339.766 224.434 339.436 216.302 335.785 210.716C332.135 205.13 325.924 201.724 319.613 199.556" stroke="#3E2336" stroke-miterlimit="10" stroke-linecap="round" stroke-linejoin="round"/>
<path d="M309.514 160.99C309.253 169.075 308.992 177.16 308.731 185.244" stroke="#3E2336" stroke-miterlimit="10" stroke-linecap="round" stroke-linejoin="round"/>
<path d="M274.054 123.34C277.433 141.941 293.78 158.661 308.982 155.897C315.565 154.704 320.855 150.041 324.453 143.637C329.17 135.265 331.006 123.89 329.094 113.351C325.722 94.7505 311.948 85.7783 296.747 88.5413C287.125 90.2888 279.241 96.312 275.605 105.209C273.494 110.372 272.809 116.507 274.054 123.34Z" fill="#B8D65E"/>
<path opacity="0.502" d="M274.054 123.34C277.433 141.941 293.78 158.661 308.982 155.897C315.565 154.704 320.855 150.041 324.453 143.637C321.842 146.185 318.358 147.901 314.734 148.539C309.174 149.525 303.38 148.194 298.326 145.679C290.341 141.714 283.945 134.827 280.114 126.78C276.925 120.089 275.485 112.627 275.605 105.208C273.494 110.371 272.809 116.506 274.054 123.34Z" fill="#7DBA38"/>
<path d="M296.834 93.9067C301.489 92.1735 306.856 92.3595 311.403 94.4115C315.949 96.4635 319.616 100.357 321.355 104.976C322.274 107.419 322.362 110.738 320.065 112C318.127 113.066 315.645 111.942 314.054 110.396C312.463 108.849 311.281 106.866 309.416 105.655C307.588 104.468 305.329 104.171 303.153 104.008C300.976 103.844 298.741 103.771 296.722 102.945C294.702 102.118 292.907 100.327 292.824 98.1787C292.741 96.03 295.147 94.5345 296.834 93.9067Z" fill="#CDE06E"/>
<path d="M310.935 154.497C311.842 154.694 312.345 155.802 312.094 156.695C311.842 157.589 311.02 158.231 310.135 158.513C309.292 158.781 308.332 158.764 307.557 158.336C306.781 157.909 306.235 157.034 306.321 156.152C307.792 155.989 309.227 155.507 310.935 154.497Z" fill="#7DBA38"/>
<path d="M310.278 155.984C312.385 157.478 314.067 159.747 315.11 162.671C314.571 163.493 314.023 164.325 313.313 164.958C312.603 165.592 311.699 166.015 310.784 165.896C309.794 165.767 308.914 165.03 307.926 164.877C306.93 164.722 305.962 165.176 304.97 165.288C303.977 165.401 302.749 164.963 302.43 163.721C304.095 160.81 306.442 158.417 310.278 155.984Z" fill="#7DBA38"/>
<path d="M311.999 157.262C310.455 158.284 308.442 158.566 306.676 158.006" stroke="#3E2336" stroke-miterlimit="10" stroke-linecap="round" stroke-linejoin="round"/>
<path d="M291.594 160.071C297.191 168.634 302.788 177.196 308.385 185.758" stroke="#3E2336" stroke-miterlimit="10" stroke-linecap="round" stroke-linejoin="round"/>
<path d="M240.744 152.611C254.969 165.064 278.172 167.97 288.347 156.343C292.755 151.311 293.993 144.369 292.821 137.117C291.3 127.628 285.654 117.584 277.597 110.527C263.379 98.0707 247.014 99.624 236.838 111.25C230.396 118.609 227.976 128.231 230.67 137.455C232.232 142.81 235.515 148.038 240.744 152.611Z" fill="#6CC4BD"/>
<path opacity="0.502" d="M240.743 152.611C254.969 165.064 278.171 167.97 288.347 156.343C292.755 151.311 293.993 144.369 292.82 137.117C292.364 140.736 290.705 144.249 288.267 147.004C284.53 151.238 279.167 153.803 273.645 154.981C264.928 156.85 255.635 155.442 247.628 151.53C240.966 148.279 235.193 143.337 230.669 137.456C232.232 142.81 235.515 148.038 240.743 152.611Z" fill="#5BB4BA"/>
<path d="M240.247 115.395C242.809 111.141 247.126 107.944 251.962 106.72C256.798 105.496 262.091 106.258 266.328 108.791C268.568 110.131 270.703 112.674 269.692 115.091C268.838 117.132 266.197 117.798 263.989 117.577C261.781 117.358 259.621 116.541 257.407 116.755C255.238 116.964 253.286 118.138 251.481 119.365C249.676 120.592 247.882 121.927 245.786 122.537C243.691 123.148 241.172 122.864 239.769 121.234C238.366 119.605 239.318 116.936 240.247 115.395Z" fill="#7ED6C6"/>
<path d="M289.003 154.031C289.836 153.621 290.919 154.174 291.279 155.03C291.638 155.886 291.394 156.901 290.877 157.672C290.384 158.407 289.623 158.991 288.75 159.139C287.877 159.287 286.905 158.942 286.422 158.199C287.472 157.156 288.296 155.885 289.003 154.031Z" fill="#5BB4BA"/>
<path d="M290.861 155.499C293.725 155.951 296.463 157.176 298.428 159.092C296.253 160.44 296.994 164.218 294.912 165.708C293.674 166.595 291.978 166.271 290.496 165.92C289.014 165.568 287.307 165.266 286.089 166.181C286.18 164.821 286.334 163.465 286.551 162.119C286.704 161.168 286.907 160.18 287.511 159.429C288.105 158.689 289.006 158.279 289.761 157.703C290.517 157.128 291.177 156.21 290.861 155.499Z" fill="#5BB4BA"/>
<path d="M291.762 155.279C291.15 157.265 289.374 158.846 287.331 159.224" stroke="#3E2336" stroke-miterlimit="10" stroke-linecap="round" stroke-linejoin="round"/>
<path d="M193.481 120.583C195.202 117.549 196.743 114.4 198.068 111.13C194.492 111.572 190.958 112.322 187.498 113.348C185.162 111.106 182.572 109.142 179.772 107.517C178.715 110.624 178.21 113.776 178.163 116.893C175.01 118.366 171.96 120.079 169.051 122.031C172.481 123.511 175.913 124.99 179.078 126.653C178.951 130.528 179.491 134.425 181.004 137.606C183.696 134.659 186.223 131.562 188.543 128.314C191.648 129.253 194.839 129.857 198.068 130.106C196.937 126.696 195.381 123.507 193.481 120.583Z" fill="#FFBE45"/>
<path d="M349.885 317.764C351.276 316.806 352.613 315.761 353.88 314.617C352.23 314.054 350.532 313.633 348.809 313.348C348.266 311.878 347.554 310.476 346.679 309.176C345.561 310.306 344.675 311.571 343.996 312.918C342.312 312.892 340.622 312.994 338.942 313.229C340.124 314.599 341.304 315.968 342.332 317.362C341.456 319.022 340.868 320.833 340.854 322.538C342.649 321.824 344.404 321.01 346.101 320.086C347.255 321.151 348.516 322.089 349.87 322.88C350.098 321.156 350.094 319.438 349.885 317.764Z" fill="#FFBE45"/>
<path d="M38.9472 124.53C39.4362 123.667 39.875 122.772 40.2515 121.843C39.2352 121.969 38.2302 122.182 37.2462 122.473C36.5817 121.836 35.846 121.278 35.0495 120.815C34.7487 121.699 34.6055 122.595 34.592 123.481C33.6957 123.899 32.8287 124.387 32.0015 124.942C32.9772 125.362 33.9522 125.783 34.8522 126.256C34.8155 127.357 34.9692 128.465 35.3997 129.37C36.1655 128.532 36.884 127.651 37.5432 126.727C38.426 126.994 39.3335 127.166 40.2515 127.237C39.9297 126.268 39.4872 125.362 38.9472 124.53Z" fill="#FFBE45"/>
<path d="M186.38 298.987C186.87 298.124 187.308 297.229 187.684 296.3C186.668 296.426 185.663 296.639 184.679 296.931C184.014 296.293 183.279 295.735 182.482 295.273C182.181 296.156 182.038 297.052 182.025 297.938C181.128 298.357 180.261 298.844 179.434 299.399C180.409 299.82 181.385 300.241 182.285 300.713C182.249 301.815 182.402 302.923 182.832 303.827C183.598 302.989 184.317 302.109 184.976 301.185C185.859 301.452 186.766 301.624 187.684 301.695C187.363 300.725 186.921 299.818 186.38 298.987Z" fill="#FFBE45"/>
<path d="M34.6742 255.611C36.2627 254.968 37.8167 254.227 39.3242 253.374C37.8137 252.453 36.2252 251.662 34.5805 251.002C34.366 249.426 33.9685 247.88 33.388 246.4C32.0327 247.273 30.877 248.332 29.9072 249.517C28.2452 249.121 26.548 248.85 24.8335 248.713C25.702 250.329 26.5705 251.945 27.2807 253.552C26.0485 255.004 25.0675 256.668 24.6782 258.353C26.6132 258.041 28.531 257.62 30.415 257.079C31.3232 258.388 32.3665 259.594 33.5327 260.676C34.1387 259.018 34.513 257.316 34.6742 255.611Z" fill="#FFBE45"/>
<path d="M349.232 152.356C349.721 151.493 350.16 150.598 350.536 149.668C349.52 149.794 348.515 150.007 347.531 150.299C346.866 149.662 346.131 149.104 345.334 148.641C345.033 149.524 344.89 150.421 344.877 151.306C343.98 151.725 343.113 152.212 342.286 152.767C343.262 153.188 344.237 153.609 345.137 154.081C345.101 155.183 345.254 156.291 345.684 157.195C346.45 156.358 347.168 155.477 347.828 154.553C348.711 154.82 349.618 154.992 350.536 155.063C350.215 154.093 349.773 153.187 349.232 152.356Z" fill="#FFBE45"/>
</g>
<defs>
<clipPath id="clip0_3957_5640">
<path d="M0 20C0 8.95431 8.95431 0 20 0H355C366.046 0 375 8.95431 375 20V375H0V20Z" fill="white"/>
</clipPath>
</defs>
</svg>
