<svg width="44" height="54" viewBox="0 0 44 54" fill="none" xmlns="http://www.w3.org/2000/svg">
<path d="M22.1816 15.2002C21.8966 15.3189 21.5776 15.3225 21.2926 15.2036C19.5451 14.4736 12.82 12.0579 7.13189 15.3941C0.799643 19.1082 -5.88297 40.4097 12.036 52.1594C13.3344 53.0106 14.9883 53.0931 16.3854 52.4161C19.0165 51.1416 24.0931 49.6622 30.3423 52.6905C31.5959 53.2982 33.0634 53.2945 34.3018 52.6564C37.088 51.2199 41.6314 47.8128 43.4226 40.3919C43.4226 40.3919 29.7817 30.4309 42.2807 18.3128C42.2807 18.3128 36.8114 9.11386 22.1816 15.2002Z" fill="white"/>
<path d="M33.9123 0.755605C33.9206 0.618037 33.8039 0.501418 33.6664 0.509692C31.0575 0.664585 28.2772 1.89907 26.0412 4.13481C23.8054 6.37054 22.571 9.15111 22.4158 11.76C22.4075 11.8976 22.5241 12.0142 22.6617 12.0059C25.2706 11.851 28.0509 10.6165 30.2869 8.38079C32.5229 6.14505 33.7574 3.36448 33.9123 0.755605Z" fill="white"/>
</svg>
