<svg width="157" height="130" viewBox="0 0 157 130" fill="none" xmlns="http://www.w3.org/2000/svg">
<path d="M48.2746 128.046C47.6798 128.046 47.17 127.876 46.8301 127.536C46.4903 127.196 46.3203 126.686 46.3203 126.091V114.706C46.3203 114.026 46.4903 113.516 46.8301 113.176C47.17 112.837 47.6798 112.667 48.2746 112.667C48.9543 112.667 49.3791 112.837 49.719 113.176C50.0589 113.516 50.2288 114.026 50.2288 114.706V118.699H56.4314V114.706C56.4314 114.026 56.6014 113.516 56.9412 113.176C57.2811 112.837 57.7909 112.667 58.3857 112.667C58.9804 112.667 59.4902 112.837 59.8301 113.176C60.17 113.516 60.3399 114.026 60.3399 114.706V126.091C60.3399 126.771 60.17 127.196 59.8301 127.536C59.4902 127.876 58.9804 128.046 58.3857 128.046C57.7059 128.046 57.2811 127.876 56.9412 127.536C56.6014 127.196 56.4314 126.686 56.4314 126.091V121.928H50.2288V126.091C50.2288 126.771 50.0589 127.196 49.719 127.536C49.3791 127.876 48.8693 128.046 48.2746 128.046ZM70.2811 128.131C68.7517 128.131 67.3922 127.791 66.2876 127.196C65.0981 126.516 64.2484 125.667 63.6536 124.477C63.0589 123.288 62.719 121.928 62.719 120.399C62.719 119.209 62.8889 118.19 63.2288 117.255C63.5687 116.32 64.0785 115.471 64.7582 114.791C65.438 114.111 66.2027 113.601 67.1373 113.261C68.0719 112.922 69.0916 112.752 70.2811 112.752C71.8105 112.752 73.17 113.091 74.2746 113.686C75.3791 114.366 76.3138 115.216 76.9086 116.405C77.5883 117.595 77.8432 118.954 77.8432 120.484C77.8432 121.673 77.6733 122.693 77.3334 123.627C76.9935 124.562 76.4837 125.412 75.804 126.091C75.1242 126.771 74.3595 127.281 73.4249 127.706C72.4903 128.046 71.4706 128.216 70.2811 128.216V128.131ZM70.2811 124.817C71.0458 124.817 71.6406 124.647 72.2353 124.307C72.7451 123.967 73.17 123.457 73.4249 122.778C73.6798 122.098 73.8497 121.333 73.8497 120.399C73.8497 118.954 73.5099 117.935 72.9151 117.085C72.3203 116.32 71.3857 115.895 70.2811 115.895C69.5164 115.895 68.9216 116.065 68.4118 116.405C67.902 116.745 67.4772 117.255 67.2223 117.935C66.9674 118.614 66.7974 119.379 66.7974 120.314C66.7974 121.758 67.1373 122.778 67.7321 123.627C68.3268 124.392 69.2615 124.817 70.3661 124.817H70.2811ZM82.0066 128.046C81.4118 128.046 80.987 127.876 80.7321 127.536C80.3922 127.196 80.3072 126.771 80.3072 126.176V114.366C80.3072 113.771 80.4772 113.346 80.817 113.007C81.1569 112.667 81.5818 112.582 82.1765 112.582C82.6863 112.582 83.0262 112.667 83.3661 112.837C83.621 113.006 83.9608 113.346 84.1308 113.771L88.719 122.013H87.9543L92.5425 113.771C92.7974 113.346 93.0523 113.006 93.3922 112.837C93.6471 112.667 94.0719 112.582 94.5818 112.582C95.1765 112.582 95.6014 112.752 95.8563 113.007C96.1961 113.346 96.2811 113.771 96.2811 114.366V126.176C96.2811 126.771 96.1112 127.196 95.8563 127.536C95.5164 127.876 95.0916 128.046 94.4968 128.046C93.902 128.046 93.4772 127.876 93.2223 127.536C92.8824 127.196 92.7974 126.771 92.7974 126.176V118.869H93.2223L89.8236 124.817C89.6536 125.157 89.3987 125.327 89.2288 125.497C88.9739 125.667 88.719 125.752 88.3791 125.752C88.0393 125.752 87.6994 125.667 87.5295 125.497C87.2746 125.327 87.1046 125.072 86.9347 124.817L83.451 118.869H83.9608V126.176C83.9608 126.771 83.7909 127.196 83.536 127.536C83.1961 127.876 82.7713 128.046 82.1765 128.046H82.0066ZM101.039 127.876C100.36 127.876 99.8497 127.706 99.5099 127.366C99.17 127.026 99 126.516 99 125.837V114.876C99 114.196 99.17 113.686 99.5099 113.346C99.8497 113.007 100.36 112.837 101.039 112.837H108.261C108.771 112.837 109.196 113.007 109.451 113.261C109.706 113.516 109.876 113.856 109.876 114.366C109.876 114.876 109.706 115.216 109.451 115.471C109.196 115.725 108.771 115.895 108.261 115.895H102.739V118.784H107.752C108.261 118.784 108.601 118.954 108.856 119.209C109.111 119.464 109.281 119.804 109.281 120.314C109.281 120.823 109.111 121.163 108.856 121.418C108.601 121.673 108.177 121.843 107.752 121.843H102.739V124.902H108.261C108.771 124.902 109.196 125.072 109.451 125.327C109.706 125.582 109.876 125.922 109.876 126.431C109.876 126.941 109.706 127.281 109.451 127.536C109.196 127.791 108.771 127.961 108.261 127.961H101.039V127.876Z" stroke="white" stroke-width="1.83835" stroke-miterlimit="2.61313" stroke-linecap="round" stroke-linejoin="round"/>
<path d="M48.2746 128.046C47.6798 128.046 47.17 127.876 46.8301 127.536C46.4903 127.196 46.3203 126.686 46.3203 126.091V114.706C46.3203 114.026 46.4903 113.516 46.8301 113.176C47.17 112.837 47.6798 112.667 48.2746 112.667C48.9543 112.667 49.3791 112.837 49.719 113.176C50.0589 113.516 50.2288 114.026 50.2288 114.706V118.699H56.4314V114.706C56.4314 114.026 56.6014 113.516 56.9412 113.176C57.2811 112.837 57.7909 112.667 58.3857 112.667C58.9804 112.667 59.4902 112.837 59.8301 113.176C60.17 113.516 60.3399 114.026 60.3399 114.706V126.091C60.3399 126.771 60.17 127.196 59.8301 127.536C59.4902 127.876 58.9804 128.046 58.3857 128.046C57.7059 128.046 57.2811 127.876 56.9412 127.536C56.6014 127.196 56.4314 126.686 56.4314 126.091V121.928H50.2288V126.091C50.2288 126.771 50.0589 127.196 49.719 127.536C49.3791 127.876 48.8693 128.046 48.2746 128.046ZM70.2811 128.131C68.7517 128.131 67.3922 127.791 66.2876 127.196C65.0981 126.516 64.2484 125.667 63.6536 124.477C63.0589 123.288 62.719 121.928 62.719 120.399C62.719 119.209 62.8889 118.19 63.2288 117.255C63.5687 116.32 64.0785 115.471 64.7582 114.791C65.438 114.111 66.2027 113.601 67.1373 113.261C68.0719 112.922 69.0916 112.752 70.2811 112.752C71.8105 112.752 73.17 113.091 74.2746 113.686C75.3791 114.366 76.3138 115.216 76.9086 116.405C77.5883 117.595 77.8432 118.954 77.8432 120.484C77.8432 121.673 77.6733 122.693 77.3334 123.627C76.9935 124.562 76.4837 125.412 75.804 126.091C75.1242 126.771 74.3595 127.281 73.4249 127.706C72.4903 128.046 71.4706 128.216 70.2811 128.216V128.131ZM70.2811 124.817C71.0458 124.817 71.6406 124.647 72.2353 124.307C72.7451 123.967 73.17 123.457 73.4249 122.778C73.6798 122.098 73.8497 121.333 73.8497 120.399C73.8497 118.954 73.5099 117.935 72.9151 117.085C72.3203 116.32 71.3857 115.895 70.2811 115.895C69.5164 115.895 68.9216 116.065 68.4118 116.405C67.902 116.745 67.4772 117.255 67.2223 117.935C66.9674 118.614 66.7974 119.379 66.7974 120.314C66.7974 121.758 67.1373 122.778 67.7321 123.627C68.3268 124.392 69.2615 124.817 70.3661 124.817H70.2811ZM82.0066 128.046C81.4118 128.046 80.987 127.876 80.7321 127.536C80.3922 127.196 80.3072 126.771 80.3072 126.176V114.366C80.3072 113.771 80.4772 113.346 80.817 113.007C81.1569 112.667 81.5818 112.582 82.1765 112.582C82.6863 112.582 83.0262 112.667 83.3661 112.837C83.621 113.006 83.9608 113.346 84.1308 113.771L88.719 122.013H87.9543L92.5425 113.771C92.7974 113.346 93.0523 113.006 93.3922 112.837C93.6471 112.667 94.0719 112.582 94.5818 112.582C95.1765 112.582 95.6014 112.752 95.8563 113.007C96.1961 113.346 96.2811 113.771 96.2811 114.366V126.176C96.2811 126.771 96.1112 127.196 95.8563 127.536C95.5164 127.876 95.0916 128.046 94.4968 128.046C93.902 128.046 93.4772 127.876 93.2223 127.536C92.8824 127.196 92.7974 126.771 92.7974 126.176V118.869H93.2223L89.8236 124.817C89.6536 125.157 89.3987 125.327 89.2288 125.497C88.9739 125.667 88.719 125.752 88.3791 125.752C88.0393 125.752 87.6994 125.667 87.5295 125.497C87.2746 125.327 87.1046 125.072 86.9347 124.817L83.451 118.869H83.9608V126.176C83.9608 126.771 83.7909 127.196 83.536 127.536C83.1961 127.876 82.7713 128.046 82.1765 128.046H82.0066ZM101.039 127.876C100.36 127.876 99.8497 127.706 99.5099 127.366C99.17 127.026 99 126.516 99 125.837V114.876C99 114.196 99.17 113.686 99.5099 113.346C99.8497 113.007 100.36 112.837 101.039 112.837H108.261C108.771 112.837 109.196 113.007 109.451 113.261C109.706 113.516 109.876 113.856 109.876 114.366C109.876 114.876 109.706 115.216 109.451 115.471C109.196 115.725 108.771 115.895 108.261 115.895H102.739V118.784H107.752C108.261 118.784 108.601 118.954 108.856 119.209C109.111 119.464 109.281 119.804 109.281 120.314C109.281 120.823 109.111 121.163 108.856 121.418C108.601 121.673 108.177 121.843 107.752 121.843H102.739V124.902H108.261C108.771 124.902 109.196 125.072 109.451 125.327C109.706 125.582 109.876 125.922 109.876 126.431C109.876 126.941 109.706 127.281 109.451 127.536C109.196 127.791 108.771 127.961 108.261 127.961H101.039V127.876Z" fill="black"/>
<path fill-rule="evenodd" clip-rule="evenodd" d="M1.9674 46.647C-1.43129 54.6339 0.0131547 63.8104 3.83668 70.013L4.26152 70.6078L4.77132 71.4575L5.19616 71.9673L6.55564 73.7516C7.23538 73.7516 7.06544 73.5816 7.06544 74.2614L8.84976 76.0457C9.61446 76.0457 9.44453 75.8758 9.44453 76.5555C12.5883 79.0196 13.6929 79.9542 18.1962 81.3986C24.3138 83.4379 25.5883 82.5882 29.9216 82.5032C34.17 100.601 54.4772 102.131 62.9739 90.4052L64.6733 87.9411C66.2027 93.549 73.5099 96.9477 79.0328 97.7973C81.2419 98.1372 82.4314 97.7124 84.3007 97.3725C86.6798 96.9477 86.3399 97.2026 88.3792 98.4771C99.085 104.935 114.974 101.196 122.026 89.8954C123.386 87.6862 125.255 84.0326 125.51 81.0588C131.543 82.4182 137.66 84.9673 145.902 79.9542C148.791 78.1699 150.66 76.3856 152.529 73.8365C153.889 71.9673 156.438 67.7189 155.928 64.6601C157.458 54.6339 152.699 46.562 144.712 42.3137C140.974 40.3594 140.039 40.9542 136.386 39.7646C135.281 36.8758 135.536 28.464 126.19 25.1503C116.333 21.6666 111.405 28.7189 108.941 29.9934C107.412 22.6862 100.445 19.2026 92.9674 19.1176C92.2877 16.9934 91.6929 15.9738 90.5033 14.1895L87.3596 9.68622C85.3203 8.24177 83.621 6.11759 80.902 4.50321C78.438 3.05876 75.889 1.86922 72.5752 0.93458C55.1569 -3.65366 35.3596 7.647 34.4249 31.098C28.1373 30.8431 22.9543 28.2941 13.6079 33.562C5.19616 38.3202 3.49681 45.1176 2.13734 46.562L1.9674 46.647Z" fill="#96CFFF"/>
<path fill-rule="evenodd" clip-rule="evenodd" d="M46.4902 56.5882C47.0001 60.5816 49.8889 72.2222 51.0785 77.4052C51.2484 78.2548 52.0981 83.7777 52.9478 84.0326H66.8824L66.7974 66.2745C66.7974 63.4705 68.0719 62.196 70.8759 62.196C84.8105 62.196 84.1308 61.0065 84.1308 71.1176V84.1176H96.7059C97.7255 83.3529 98.4053 79.1045 98.7451 77.6601C99.3399 75.366 99.9347 73.1568 100.529 70.7777C101.294 67.7189 103.928 59.3921 104.013 56.8431C102.824 55.9084 76.9085 33.9869 75.2942 33.2222C74.3595 33.8169 72.5752 35.3464 71.6406 36.1111C70.2811 37.2156 69.4314 37.8954 68.1569 38.9999L46.3203 56.7581L46.4902 56.5882ZM81.6667 58.1176H67.5621C67.3072 57.013 67.0523 55.9934 66.7974 54.8888L66.2027 52.5097C65.9478 51.4052 65.6929 50.3856 65.438 49.281C65.1831 48.1764 64.9282 47.1568 64.6733 46.0522H85.3203C84.9804 47.1568 84.6406 48.1764 84.3857 49.281L83.7059 51.6601C83.3661 52.7647 83.0262 53.7843 82.7713 54.8888C82.4314 55.9934 82.0916 57.013 81.8367 58.1176H81.5818H81.6667ZM66.5425 51.6601H75.719V49.1111H66.7125C66.8824 49.8758 67.0523 50.7254 67.2223 51.4901C67.3922 52.2548 67.5621 53.1045 67.7321 53.8692L66.5425 51.6601ZM75.2092 51.6601H82.8563C83.1112 50.8954 83.2811 50.0457 83.536 49.281C83.7909 48.5163 83.9608 47.6666 84.2157 46.9019H75.2092V48.0065V51.6601ZM74.4445 57.2679V55.3137H67.3072C67.4772 56.0784 67.6471 56.928 67.817 57.6928C67.987 58.4575 68.1569 59.3071 68.3268 60.0718H74.9543L74.4445 57.2679ZM75.0393 57.2679H81.6667C81.9216 56.5032 82.0916 55.6535 82.3465 54.8888C82.6014 54.1241 82.7713 53.2745 83.0262 52.5097H75.804V54.549L75.0393 57.2679Z" fill="#003399"/>
<path fill-rule="evenodd" clip-rule="evenodd" d="M60.0001 30.2483C59.2354 22.8562 62.4642 18.9477 52.0982 20.2222C48.9544 20.647 49.4642 23.7058 49.4642 26.6797V35.9411C49.4642 40.5294 49.5491 39.5098 44.1962 44.013L39.1831 48.2614C36.2093 50.7255 32.8955 53.0196 34.5099 56.5032C35.2746 58.2026 37.8236 60.2418 40.5426 58.8823C41.9021 58.2026 44.1112 55.9085 45.4707 54.8039L72.7452 32.1176C73.5949 31.3529 74.5295 30.5032 75.2942 29.9934L105.882 55.3987C106.987 56.4183 107.667 57.098 108.856 58.0326C113.275 61.6862 118.543 55.9934 115.824 52.1699C115.144 51.2353 111.065 47.9215 109.791 46.647C109.196 46.1372 108.771 45.8823 108.262 45.3725L102.314 40.1045C101.719 39.5947 101.464 39.2549 100.869 38.7451L81.4119 21.7516C78.7779 19.6274 75.889 16.0588 72.1504 19.4575L63.1439 27.2745C62.2093 28.1241 60.9348 29.2287 59.9152 29.9085L60.0001 30.2483Z" fill="#003399"/>
</svg>
