<svg width="147" height="130" viewBox="0 0 147 130" fill="none" xmlns="http://www.w3.org/2000/svg">
<mask id="mask0_3289_480" style="mask-type:luminance" maskUnits="userSpaceOnUse" x="9" y="13" width="129" height="117">
<path fill-rule="evenodd" clip-rule="evenodd" d="M9.28345 13.9915H137.525V129.121H9.28345V13.9915Z" fill="url(#paint0_linear_3289_480)"/>
</mask>
<g mask="url(#mask0_3289_480)">
<path fill-rule="evenodd" clip-rule="evenodd" d="M23.035 14.7111H123.693C130.889 14.7111 136.805 20.6274 136.805 27.823V115.369C136.805 122.565 130.889 128.481 123.693 128.481H23.035C15.8395 128.481 9.9231 122.565 9.9231 115.369V27.823C9.9231 20.6274 15.8395 14.7111 23.035 14.7111Z" fill="white"/>
</g>
<mask id="mask1_3289_480" style="mask-type:luminance" maskUnits="userSpaceOnUse" x="8" y="13" width="131" height="117">
<path fill-rule="evenodd" clip-rule="evenodd" d="M8.16431 13.1919H138.644V130H8.16431V13.1919Z" fill="url(#paint1_linear_3289_480)"/>
</mask>
<g mask="url(#mask1_3289_480)">
<path d="M24.5542 13.1919H122.174C126.651 13.1919 130.809 14.7909 133.767 17.3493L133.847 17.4293C136.725 19.9877 138.564 23.5055 138.564 27.3432V115.769C138.564 119.686 136.725 123.204 133.767 125.763C130.809 128.321 126.651 129.92 122.174 129.92H24.5542C20.077 129.92 15.9195 128.321 12.9614 125.763C10.0032 123.204 8.16431 119.606 8.16431 115.769V27.3432C8.16431 23.4256 10.0032 19.9078 12.9614 17.3493C15.9195 14.7909 20.077 13.1919 24.5542 13.1919ZM122.174 16.31H24.5542C21.0364 16.31 17.8384 17.5892 15.5198 19.588C13.2012 21.5867 11.7621 24.385 11.7621 27.4231V115.849C11.7621 118.887 13.2012 121.685 15.5198 123.684C17.8384 125.683 21.0364 126.962 24.5542 126.962H122.174C125.692 126.962 128.89 125.683 131.209 123.684C133.527 121.685 134.966 118.887 134.966 115.849V27.4231C134.966 24.385 133.527 21.6667 131.289 19.6679L131.209 19.588C128.89 17.5892 125.692 16.31 122.174 16.31Z" fill="white"/>
</g>
<path d="M45.4214 120.486C44.8617 120.486 44.382 120.326 44.0622 120.006C43.7424 119.686 43.5825 119.207 43.5825 118.647V107.934C43.5825 107.294 43.7424 106.814 44.0622 106.494C44.382 106.175 44.8617 106.015 45.4214 106.015C46.061 106.015 46.4607 106.175 46.7806 106.494C47.1004 106.814 47.2603 107.294 47.2603 107.934V111.691H53.0967V107.934C53.0967 107.294 53.2566 106.814 53.5764 106.494C53.8962 106.175 54.3759 106.015 54.9355 106.015C55.4952 106.015 55.9749 106.175 56.2947 106.494C56.6145 106.814 56.7744 107.294 56.7744 107.934V118.647C56.7744 119.287 56.6145 119.686 56.2947 120.006C55.9749 120.326 55.4952 120.486 54.9355 120.486C54.2959 120.486 53.8962 120.326 53.5764 120.006C53.2566 119.686 53.0967 119.207 53.0967 118.647V114.729H47.2603V118.647C47.2603 119.287 47.1004 119.686 46.7806 120.006C46.4607 120.326 45.981 120.486 45.4214 120.486ZM66.1287 120.486C64.6895 120.486 63.4103 120.166 62.371 119.606C61.2516 118.967 60.4521 118.167 59.8925 117.048C59.3328 115.929 59.013 114.649 59.013 113.21C59.013 112.091 59.1729 111.132 59.4927 110.252C59.8125 109.373 60.2922 108.573 60.9318 107.934C61.5715 107.294 62.291 106.814 63.1705 106.494C64.0499 106.175 65.0093 106.015 66.1287 106.015C67.5678 106.015 68.847 106.335 69.8863 106.894C70.9257 107.534 71.8052 108.333 72.3648 109.453C73.0044 110.572 73.2443 111.851 73.2443 113.29C73.2443 114.41 73.0844 115.369 72.7646 116.248C72.4448 117.128 71.9651 117.927 71.3254 118.567C70.6858 119.207 69.9663 119.686 69.0868 120.086C68.2074 120.406 67.248 120.566 66.1287 120.566V120.486ZM66.1287 117.368C66.8482 117.368 67.4079 117.208 67.9675 116.888C68.4472 116.568 68.847 116.089 69.0868 115.449C69.3267 114.809 69.4866 114.09 69.4866 113.21C69.4866 111.851 69.1668 110.892 68.6071 110.092C68.0475 109.373 67.168 108.973 66.1287 108.973C65.4091 108.973 64.8494 109.133 64.3697 109.453C63.89 109.772 63.4903 110.252 63.2504 110.892C63.0106 111.531 62.8507 112.251 62.8507 113.13C62.8507 114.49 63.1705 115.449 63.7301 116.248C64.2898 116.968 65.1692 117.368 66.2086 117.368H66.1287ZM77.1619 120.406C76.6022 120.406 76.2024 120.246 75.9626 119.926C75.6428 119.606 75.5628 119.207 75.5628 118.647V107.534C75.5628 106.974 75.7227 106.574 76.0425 106.255C76.3624 105.935 76.7621 105.855 77.3218 105.855C77.8015 105.855 78.1213 105.935 78.4411 106.095C78.6809 106.255 79.0007 106.574 79.1606 106.974L83.478 114.729H82.7584L87.0758 106.974C87.3156 106.574 87.5555 106.255 87.8753 106.095C88.1151 105.935 88.5149 105.855 88.9946 105.855C89.5542 105.855 89.954 106.015 90.1938 106.255C90.5136 106.574 90.5936 106.974 90.5936 107.534V118.647C90.5936 119.207 90.4337 119.606 90.1938 119.926C89.874 120.246 89.4743 120.406 88.9146 120.406C88.355 120.406 87.9552 120.246 87.7154 119.926C87.3956 119.606 87.3156 119.207 87.3156 118.647V111.771H87.7154L84.5173 117.368C84.3574 117.688 84.1176 117.847 83.9577 118.007C83.7178 118.167 83.478 118.247 83.1582 118.247C82.8384 118.247 82.5186 118.167 82.3587 118.007C82.1188 117.847 81.9589 117.608 81.799 117.368L78.521 111.771H79.0007V118.647C79.0007 119.207 78.8408 119.606 78.601 119.926C78.2812 120.246 77.8814 120.406 77.3218 120.406H77.1619ZM95.0708 120.246C94.4312 120.246 93.9515 120.086 93.6317 119.766C93.3119 119.446 93.152 118.967 93.152 118.327V108.014C93.152 107.374 93.3119 106.894 93.6317 106.574C93.9515 106.255 94.4312 106.095 95.0708 106.095H101.867C102.346 106.095 102.746 106.255 102.986 106.494C103.226 106.734 103.386 107.054 103.386 107.534C103.386 108.014 103.226 108.333 102.986 108.573C102.746 108.813 102.346 108.973 101.867 108.973H96.6699V111.691H101.387C101.867 111.691 102.186 111.851 102.426 112.091C102.666 112.331 102.826 112.651 102.826 113.13C102.826 113.61 102.666 113.93 102.426 114.17C102.186 114.41 101.787 114.569 101.387 114.569H96.6699V117.448H101.867C102.346 117.448 102.746 117.608 102.986 117.847C103.226 118.087 103.386 118.407 103.386 118.887C103.386 119.367 103.226 119.686 102.986 119.926C102.746 120.166 102.346 120.326 101.867 120.326H95.0708V120.246Z" stroke="black" stroke-width="1.83842" stroke-miterlimit="2.61313" stroke-linecap="round" stroke-linejoin="round"/>
<path d="M45.4214 120.486C44.8617 120.486 44.382 120.326 44.0622 120.006C43.7424 119.686 43.5825 119.207 43.5825 118.647V107.934C43.5825 107.294 43.7424 106.814 44.0622 106.494C44.382 106.175 44.8617 106.015 45.4214 106.015C46.061 106.015 46.4607 106.175 46.7806 106.494C47.1004 106.814 47.2603 107.294 47.2603 107.934V111.691H53.0967V107.934C53.0967 107.294 53.2566 106.814 53.5764 106.494C53.8962 106.175 54.3759 106.015 54.9355 106.015C55.4952 106.015 55.9749 106.175 56.2947 106.494C56.6145 106.814 56.7744 107.294 56.7744 107.934V118.647C56.7744 119.287 56.6145 119.686 56.2947 120.006C55.9749 120.326 55.4952 120.486 54.9355 120.486C54.2959 120.486 53.8962 120.326 53.5764 120.006C53.2566 119.686 53.0967 119.207 53.0967 118.647V114.729H47.2603V118.647C47.2603 119.287 47.1004 119.686 46.7806 120.006C46.4607 120.326 45.981 120.486 45.4214 120.486ZM66.1287 120.486C64.6895 120.486 63.4103 120.166 62.371 119.606C61.2516 118.967 60.4521 118.167 59.8925 117.048C59.3328 115.929 59.013 114.649 59.013 113.21C59.013 112.091 59.1729 111.132 59.4927 110.252C59.8125 109.373 60.2922 108.573 60.9318 107.934C61.5714 107.294 62.291 106.814 63.1705 106.494C64.0499 106.175 65.0093 106.015 66.1287 106.015C67.5678 106.015 68.847 106.335 69.8863 106.894C70.9257 107.534 71.8052 108.333 72.3648 109.453C73.0044 110.572 73.2443 111.851 73.2443 113.29C73.2443 114.41 73.0844 115.369 72.7646 116.248C72.4448 117.128 71.9651 117.927 71.3254 118.567C70.6858 119.207 69.9663 119.686 69.0868 120.086C68.2074 120.406 67.248 120.566 66.1287 120.566V120.486ZM66.1287 117.368C66.8482 117.368 67.4079 117.208 67.9675 116.888C68.4472 116.568 68.847 116.089 69.0868 115.449C69.3267 114.809 69.4866 114.09 69.4866 113.21C69.4866 111.851 69.1668 110.892 68.6071 110.092C68.0475 109.373 67.168 108.973 66.1287 108.973C65.4091 108.973 64.8494 109.133 64.3697 109.453C63.89 109.772 63.4903 110.252 63.2504 110.892C63.0106 111.531 62.8507 112.251 62.8507 113.13C62.8507 114.49 63.1705 115.449 63.7301 116.248C64.2898 116.968 65.1692 117.368 66.2086 117.368H66.1287ZM77.1619 120.406C76.6022 120.406 76.2024 120.246 75.9626 119.926C75.6428 119.606 75.5628 119.207 75.5628 118.647V107.534C75.5628 106.974 75.7227 106.574 76.0425 106.255C76.3624 105.935 76.7621 105.855 77.3218 105.855C77.8015 105.855 78.1213 105.935 78.4411 106.095C78.6809 106.255 79.0007 106.574 79.1606 106.974L83.478 114.729H82.7584L87.0758 106.974C87.3156 106.574 87.5555 106.255 87.8753 106.095C88.1151 105.935 88.5149 105.855 88.9946 105.855C89.5542 105.855 89.954 106.015 90.1938 106.255C90.5136 106.574 90.5936 106.974 90.5936 107.534V118.647C90.5936 119.207 90.4337 119.606 90.1938 119.926C89.874 120.246 89.4743 120.406 88.9146 120.406C88.355 120.406 87.9552 120.246 87.7154 119.926C87.3956 119.606 87.3156 119.207 87.3156 118.647V111.771H87.7154L84.5173 117.368C84.3574 117.688 84.1176 117.847 83.9577 118.007C83.7178 118.167 83.478 118.247 83.1582 118.247C82.8384 118.247 82.5186 118.167 82.3587 118.007C82.1188 117.847 81.9589 117.608 81.799 117.368L78.521 111.771H79.0007V118.647C79.0007 119.207 78.8408 119.606 78.601 119.926C78.2812 120.246 77.8814 120.406 77.3218 120.406H77.1619ZM95.0708 120.246C94.4312 120.246 93.9515 120.086 93.6317 119.766C93.3119 119.446 93.152 118.967 93.152 118.327V108.014C93.152 107.374 93.3119 106.894 93.6317 106.574C93.9515 106.255 94.4312 106.095 95.0708 106.095H101.867C102.346 106.095 102.746 106.255 102.986 106.494C103.226 106.734 103.386 107.054 103.386 107.534C103.386 108.014 103.226 108.333 102.986 108.573C102.746 108.813 102.346 108.973 101.867 108.973H96.6699V111.691H101.387C101.867 111.691 102.186 111.851 102.426 112.091C102.666 112.331 102.826 112.651 102.826 113.13C102.826 113.61 102.666 113.93 102.426 114.17C102.186 114.41 101.787 114.569 101.387 114.569H96.6699V117.448H101.867C102.346 117.448 102.746 117.608 102.986 117.847C103.226 118.087 103.386 118.407 103.386 118.887C103.386 119.367 103.226 119.686 102.986 119.926C102.746 120.166 102.346 120.326 101.867 120.326H95.0708V120.246Z" fill="white"/>
<path fill-rule="evenodd" clip-rule="evenodd" d="M1.84813 43.893C-1.3499 51.4084 0.00925919 60.0431 3.60705 65.8795L4.0068 66.4392L4.4865 67.2387L4.88626 67.7184L6.16547 69.3973C6.80508 69.3973 6.64517 69.2374 6.64517 69.877L8.32414 71.556C9.0437 71.556 8.8838 71.3961 8.8838 72.0357C11.842 74.3543 12.8813 75.2337 17.1187 76.5929C22.8752 78.5117 24.0744 77.7122 28.1519 77.6323C32.1495 94.6618 51.2577 96.1009 59.2528 85.0677L60.8518 82.7491C62.2909 88.0259 69.1667 91.2239 74.3635 92.0234C76.4422 92.3432 77.5615 91.9435 79.3204 91.6237C81.5591 91.2239 81.2393 91.4638 83.1581 92.663C93.2319 98.7393 108.183 95.2214 114.819 84.588C116.098 82.5093 117.857 79.0714 118.097 76.2731C123.773 77.5523 129.53 79.9508 137.285 75.2337C140.003 73.5548 141.762 71.8758 143.521 69.4773C144.8 67.7184 147.199 63.7208 146.719 60.8426C148.158 51.4084 143.681 43.8131 136.165 39.8155C132.648 37.9767 131.768 38.5363 128.33 37.417C127.291 34.6987 127.531 26.7836 118.736 23.6655C109.462 20.3875 104.825 27.0234 102.506 28.2227C101.067 21.3469 94.5111 18.0689 87.4754 17.989C86.8358 15.9902 86.2762 15.0308 85.1569 13.3518L82.1987 9.11443C80.2799 7.75527 78.6808 5.7565 76.1224 4.23743C73.8038 2.87827 71.4053 1.75896 68.2872 0.879501C51.8973 -3.43784 33.2688 7.19562 32.3893 29.262C26.473 29.0222 21.596 26.6237 12.8014 31.5806C4.88626 36.0579 3.28724 42.4539 2.00803 43.8131L1.84813 43.893Z" fill="white"/>
<path fill-rule="evenodd" clip-rule="evenodd" d="M43.7424 53.2473C44.2221 57.005 46.9405 67.9583 48.0598 72.8353C48.2197 73.6348 49.0192 78.8316 49.8187 79.0714H62.9306L62.8507 62.3617C62.8507 59.7233 64.0499 58.5241 66.6883 58.5241C79.8002 58.5241 79.1606 57.4048 79.1606 66.9189V79.1514H90.9933C91.9528 78.4318 92.5924 74.4343 92.9122 73.0751C93.4718 70.9165 94.0315 68.8377 94.5911 66.5991C95.3107 63.7209 97.7892 55.8857 97.8691 53.4872C96.7498 52.6077 72.3648 31.9804 70.8457 31.2609C69.9663 31.8205 68.2873 33.2596 67.4079 33.9792C66.1286 35.0186 65.3291 35.6582 64.1299 36.6975L43.5825 53.4072L43.7424 53.2473ZM76.8421 54.6864H63.5702C63.3304 53.6471 63.0905 52.6877 62.8507 51.6483L62.291 49.4097C62.0512 48.3703 61.8113 47.4109 61.5714 46.3716C61.3316 45.3322 61.0917 44.3728 60.8519 43.3334H80.2799C79.9601 44.3728 79.6403 45.3322 79.4005 46.3716L78.7609 48.6102C78.4411 49.6495 78.1213 50.609 77.8814 51.6483C77.5616 52.6877 77.2418 53.6471 77.002 54.6864H76.7621H76.8421ZM62.6108 48.6102H71.2455V46.2117H62.7707C62.9306 46.9312 63.0905 47.7307 63.2504 48.4503C63.4103 49.1698 63.5702 49.9694 63.7301 50.6889L62.6108 48.6102ZM70.7658 48.6102H77.9614C78.2012 47.8906 78.3611 47.0911 78.601 46.3716C78.8408 45.652 79.0007 44.8525 79.2406 44.1329H70.7658V45.1723V48.6102ZM70.0462 53.8869V52.0481H63.3304C63.4903 52.7676 63.6502 53.5671 63.8101 54.2867C63.97 55.0063 64.1299 55.8058 64.2898 56.5253H70.5259L70.0462 53.8869ZM70.6059 53.8869H76.8421C77.0819 53.1674 77.2418 52.3679 77.4817 51.6483C77.7215 50.9288 77.8814 50.1292 78.1213 49.4097H71.3254V51.3285L70.6059 53.8869Z" fill="#FF0066"/>
<path fill-rule="evenodd" clip-rule="evenodd" d="M56.4545 28.4625C55.735 21.5068 58.7731 17.829 49.0191 19.0283C46.0609 19.4281 46.5406 22.3063 46.5406 25.1046V33.8192C46.5406 38.1365 46.6206 37.1771 41.5837 41.4145L36.8666 45.4121C34.0683 47.7306 30.9502 49.8893 32.4693 53.1673C33.1889 54.7663 35.5874 56.6851 38.1458 55.4059C39.425 54.7663 41.5037 52.6076 42.7829 51.5683L68.4472 30.2214C69.2467 29.5019 70.1261 28.7023 70.8457 28.2226L99.628 52.1279C100.667 53.0873 101.307 53.7269 102.426 54.6064C106.584 58.0443 111.541 52.6876 108.982 49.0898C108.343 48.2103 104.505 45.0923 103.306 43.973C102.746 43.4932 102.346 43.2534 101.867 42.7737L96.27 37.8167C95.7104 37.337 95.4705 37.0172 94.9109 36.5375L76.6021 20.5474C74.1237 18.5486 71.4053 15.1907 67.8875 18.3887L59.4127 25.7442C58.5333 26.5437 57.334 27.583 56.3746 28.2226L56.4545 28.4625Z" fill="#FF0066"/>
<defs>
<linearGradient id="paint0_linear_3289_480" x1="72.6045" y1="187.245" x2="72.6045" y2="39.096" gradientUnits="userSpaceOnUse">
<stop stop-color="white"/>
<stop offset="1" stop-color="white" stop-opacity="0"/>
</linearGradient>
<linearGradient id="paint1_linear_3289_480" x1="72.5247" y1="190.363" x2="72.5247" y2="38.1365" gradientUnits="userSpaceOnUse">
<stop stop-color="white"/>
<stop offset="1" stop-color="white" stop-opacity="0"/>
</linearGradient>
</defs>
</svg>
