<svg width="156" height="130" viewBox="0 0 156 130" fill="none" xmlns="http://www.w3.org/2000/svg">
<path d="M38.434 128C37.9077 128 37.3813 127.895 37.1708 127.579C36.855 127.263 36.7498 126.842 36.7498 126.211V114.421C36.7498 113.79 36.9603 113.368 37.2761 113.053C37.5919 112.737 38.0129 112.632 38.6445 112.632C39.1708 112.632 39.4866 112.737 39.8024 112.947C40.1182 113.158 40.3287 113.474 40.6445 113.895L45.1708 122.105H44.434L48.9603 113.895C49.1708 113.474 49.4866 113.158 49.8024 112.947C50.1182 112.737 50.434 112.632 50.9603 112.632C51.4866 112.632 52.0129 112.737 52.2234 113.053C52.5392 113.368 52.6445 113.79 52.6445 114.421V126.211C52.6445 126.737 52.5392 127.263 52.2234 127.579C51.9077 127.895 51.4866 128 50.855 128C50.3287 128 49.8024 127.895 49.5919 127.579C49.2761 127.263 49.1708 126.842 49.1708 126.211V118.842H49.5919L46.1182 124.842C45.9077 125.158 45.6971 125.368 45.4866 125.579C45.2761 125.684 44.9603 125.79 44.6445 125.79C44.3287 125.79 44.0129 125.684 43.8024 125.579C43.5919 125.474 43.3813 125.158 43.1708 124.842L39.6971 118.842H40.2234V126.211C40.2234 126.737 40.1182 127.263 39.8024 127.579C39.4866 127.895 39.0655 128 38.434 128ZM62.6445 128C61.1708 128 59.8024 127.684 58.6445 127.053C57.4866 126.421 56.6445 125.474 56.0129 124.316C55.3813 123.158 55.0655 121.79 55.0655 120.211C55.0655 119.053 55.2761 118 55.5919 117.053C55.9077 116.105 56.434 115.263 57.1708 114.632C57.8024 114 58.6445 113.474 59.5919 113.053C60.5392 112.737 61.5919 112.526 62.7498 112.526C64.2234 112.526 65.5919 112.842 66.7498 113.474C67.9077 114.105 68.7498 115.053 69.3813 116.211C70.0129 117.368 70.3287 118.737 70.3287 120.316C70.3287 121.474 70.1182 122.526 69.8024 123.474C69.4866 124.421 68.9603 125.263 68.2234 125.895C67.5919 126.632 66.7498 127.158 65.8024 127.474C64.855 127.79 63.8024 128 62.7498 128H62.6445ZM62.6445 124.737C63.3813 124.737 64.0129 124.526 64.5392 124.211C65.0655 123.895 65.4866 123.368 65.8024 122.632C66.1182 122 66.2234 121.158 66.2234 120.211C66.2234 118.842 65.9076 117.684 65.2761 116.947C64.6445 116.211 63.8024 115.79 62.6445 115.79C61.9076 115.79 61.2761 116 60.7498 116.316C60.2234 116.632 59.8024 117.158 59.4866 117.79C59.1708 118.421 59.0655 119.263 59.0655 120.211C59.0655 121.579 59.3813 122.737 60.0129 123.474C60.6445 124.211 61.4866 124.632 62.6445 124.632V124.737ZM78.7498 128C78.2234 128 77.8024 127.895 77.4866 127.684C77.1708 127.474 76.855 127.053 76.6445 126.632L71.4866 115.263C71.2761 114.737 71.1708 114.316 71.2761 113.895C71.3813 113.474 71.5919 113.158 71.9076 112.947C72.2234 112.737 72.6445 112.632 73.0655 112.632C73.6971 112.632 74.1182 112.737 74.3287 113.053C74.6445 113.263 74.855 113.684 75.0655 114.211L79.3813 124.211H78.2234L82.5392 114.105C82.7498 113.579 82.9603 113.263 83.2761 112.947C83.5919 112.737 84.0129 112.526 84.5392 112.526C84.9603 112.526 85.3813 112.632 85.6971 112.842C86.0129 113.053 86.2234 113.368 86.2234 113.79C86.3287 114.211 86.2234 114.632 86.0129 115.158L80.855 126.526C80.6445 127.053 80.3287 127.368 80.0129 127.579C79.6971 127.79 79.2761 127.895 78.7498 127.895V128ZM89.9077 128C89.2761 128 88.7498 127.79 88.434 127.474C88.1182 127.158 87.9077 126.632 87.9077 126V114.632C87.9077 114 88.1182 113.474 88.434 113.158C88.7498 112.842 89.2761 112.632 89.9077 112.632C90.5392 112.632 91.0656 112.842 91.3813 113.158C91.6971 113.474 91.9076 114 91.9076 114.632V126C91.9076 126.632 91.6971 127.158 91.3813 127.474C91.0656 127.79 90.5392 128 89.9077 128ZM96.6445 127.79C96.0129 127.79 95.4866 127.579 95.1708 127.263C94.855 126.947 94.6445 126.421 94.6445 125.79V114.842C94.6445 114.211 94.855 113.684 95.1708 113.368C95.4866 113.053 96.0129 112.842 96.6445 112.842H103.908C104.434 112.842 104.75 112.947 105.066 113.263C105.276 113.474 105.487 113.895 105.487 114.421C105.487 114.947 105.381 115.263 105.066 115.579C104.855 115.79 104.434 116 103.908 116H98.434V118.842H103.487C104.013 118.842 104.329 118.947 104.644 119.263C104.855 119.474 105.066 119.895 105.066 120.421C105.066 120.947 104.96 121.263 104.644 121.579C104.434 121.79 104.013 122 103.487 122H98.434V125.053H103.908C104.434 125.053 104.75 125.158 105.066 125.474C105.276 125.684 105.487 126.105 105.487 126.632C105.487 127.158 105.381 127.474 105.066 127.79C104.855 128 104.434 128.211 103.908 128.211H96.6445V127.79ZM113.066 128C112.539 128 111.908 128 111.276 127.895C110.644 127.79 110.118 127.684 109.487 127.579C108.96 127.474 108.434 127.263 108.013 127.053C107.592 126.842 107.381 126.632 107.171 126.316C107.066 126 106.96 125.684 106.96 125.368C106.96 125.053 107.171 124.737 107.276 124.421C107.487 124.211 107.697 124 108.013 123.895C108.329 123.79 108.75 123.895 109.171 124C109.697 124.211 110.329 124.421 110.96 124.632C111.592 124.737 112.329 124.842 112.855 124.842C113.802 124.842 114.434 124.737 114.855 124.421C115.276 124.211 115.381 123.895 115.381 123.474C115.381 123.158 115.276 122.842 114.96 122.737C114.75 122.526 114.223 122.316 113.592 122.211L111.066 121.684C109.697 121.368 108.644 120.947 108.013 120.211C107.381 119.474 107.066 118.632 107.066 117.474C107.066 116.737 107.171 116.105 107.487 115.474C107.802 114.842 108.223 114.316 108.75 113.895C109.276 113.474 110.013 113.158 110.75 112.947C111.487 112.737 112.434 112.632 113.381 112.632C114.118 112.632 114.855 112.737 115.592 112.842C116.329 113.053 116.96 113.263 117.592 113.579C117.908 113.79 118.118 114 118.329 114.316C118.434 114.632 118.539 114.947 118.539 115.263C118.539 115.579 118.434 115.895 118.223 116.105C118.013 116.316 117.802 116.526 117.487 116.632C117.171 116.737 116.75 116.632 116.329 116.421C115.908 116.211 115.487 116.105 114.96 116C114.434 115.895 113.908 115.895 113.487 115.895C112.96 115.895 112.539 116 112.118 116.105C111.697 116.211 111.487 116.421 111.276 116.632C111.066 116.842 110.96 117.158 110.96 117.368C110.96 117.684 111.066 117.895 111.381 118.105C111.592 118.316 112.118 118.526 112.75 118.632L115.171 119.158C116.539 119.474 117.592 119.895 118.223 120.632C118.855 121.263 119.276 122.211 119.276 123.263C119.276 124 119.171 124.632 118.855 125.263C118.539 125.895 118.118 126.316 117.592 126.737C117.066 127.158 116.329 127.474 115.592 127.684C114.855 127.895 113.908 128 112.96 128H113.066Z" stroke="white" stroke-width="1.86338" stroke-miterlimit="2.61313" stroke-linecap="round" stroke-linejoin="round"/>
<path d="M38.434 128C37.9077 128 37.3813 127.895 37.1708 127.579C36.855 127.263 36.7498 126.842 36.7498 126.211V114.421C36.7498 113.79 36.9603 113.368 37.2761 113.053C37.5919 112.737 38.0129 112.632 38.6445 112.632C39.1708 112.632 39.4866 112.737 39.8024 112.947C40.1182 113.158 40.3287 113.474 40.6445 113.895L45.1708 122.105H44.434L48.9603 113.895C49.1708 113.474 49.4866 113.158 49.8024 112.947C50.1182 112.737 50.434 112.632 50.9603 112.632C51.4866 112.632 52.0129 112.737 52.2234 113.053C52.5392 113.368 52.6445 113.79 52.6445 114.421V126.211C52.6445 126.737 52.5392 127.263 52.2234 127.579C51.9077 127.895 51.4866 128 50.855 128C50.3287 128 49.8024 127.895 49.5919 127.579C49.2761 127.263 49.1708 126.842 49.1708 126.211V118.842H49.5919L46.1182 124.842C45.9077 125.158 45.6971 125.368 45.4866 125.579C45.2761 125.684 44.9603 125.79 44.6445 125.79C44.3287 125.79 44.0129 125.684 43.8024 125.579C43.5919 125.474 43.3813 125.158 43.1708 124.842L39.6971 118.842H40.2234V126.211C40.2234 126.737 40.1182 127.263 39.8024 127.579C39.4866 127.895 39.0655 128 38.434 128ZM62.6445 128C61.1708 128 59.8024 127.684 58.6445 127.053C57.4866 126.421 56.6445 125.474 56.0129 124.316C55.3813 123.158 55.0655 121.79 55.0655 120.211C55.0655 119.053 55.2761 118 55.5919 117.053C55.9077 116.105 56.434 115.263 57.1708 114.632C57.8024 114 58.6445 113.474 59.5919 113.053C60.5392 112.737 61.5919 112.526 62.7498 112.526C64.2234 112.526 65.5919 112.842 66.7498 113.474C67.9077 114.105 68.7498 115.053 69.3813 116.211C70.0129 117.368 70.3287 118.737 70.3287 120.316C70.3287 121.474 70.1182 122.526 69.8024 123.474C69.4866 124.421 68.9603 125.263 68.2234 125.895C67.5919 126.632 66.7498 127.158 65.8024 127.474C64.855 127.79 63.8024 128 62.7498 128H62.6445ZM62.6445 124.737C63.3813 124.737 64.0129 124.526 64.5392 124.211C65.0655 123.895 65.4866 123.368 65.8024 122.632C66.1182 122 66.2234 121.158 66.2234 120.211C66.2234 118.842 65.9076 117.684 65.2761 116.947C64.6445 116.211 63.8024 115.79 62.6445 115.79C61.9076 115.79 61.2761 116 60.7498 116.316C60.2234 116.632 59.8024 117.158 59.4866 117.79C59.1708 118.421 59.0655 119.263 59.0655 120.211C59.0655 121.579 59.3813 122.737 60.0129 123.474C60.6445 124.211 61.4866 124.632 62.6445 124.632V124.737ZM78.7498 128C78.2234 128 77.8024 127.895 77.4866 127.684C77.1708 127.474 76.855 127.053 76.6445 126.632L71.4866 115.263C71.2761 114.737 71.1708 114.316 71.2761 113.895C71.3813 113.474 71.5919 113.158 71.9076 112.947C72.2234 112.737 72.6445 112.632 73.0655 112.632C73.6971 112.632 74.1182 112.737 74.3287 113.053C74.6445 113.263 74.855 113.684 75.0655 114.211L79.3813 124.211H78.2234L82.5392 114.105C82.7498 113.579 82.9603 113.263 83.2761 112.947C83.5919 112.737 84.0129 112.526 84.5392 112.526C84.9603 112.526 85.3813 112.632 85.6971 112.842C86.0129 113.053 86.2234 113.368 86.2234 113.79C86.3287 114.211 86.2234 114.632 86.0129 115.158L80.855 126.526C80.6445 127.053 80.3287 127.368 80.0129 127.579C79.6971 127.79 79.2761 127.895 78.7498 127.895V128ZM89.9077 128C89.2761 128 88.7498 127.79 88.434 127.474C88.1182 127.158 87.9077 126.632 87.9077 126V114.632C87.9077 114 88.1182 113.474 88.434 113.158C88.7498 112.842 89.2761 112.632 89.9077 112.632C90.5392 112.632 91.0656 112.842 91.3813 113.158C91.6971 113.474 91.9076 114 91.9076 114.632V126C91.9076 126.632 91.6971 127.158 91.3813 127.474C91.0656 127.79 90.5392 128 89.9077 128ZM96.6445 127.79C96.0129 127.79 95.4866 127.579 95.1708 127.263C94.855 126.947 94.6445 126.421 94.6445 125.79V114.842C94.6445 114.211 94.855 113.684 95.1708 113.368C95.4866 113.053 96.0129 112.842 96.6445 112.842H103.908C104.434 112.842 104.75 112.947 105.066 113.263C105.276 113.474 105.487 113.895 105.487 114.421C105.487 114.947 105.381 115.263 105.066 115.579C104.855 115.79 104.434 116 103.908 116H98.434V118.842H103.487C104.013 118.842 104.329 118.947 104.644 119.263C104.855 119.474 105.066 119.895 105.066 120.421C105.066 120.947 104.96 121.263 104.644 121.579C104.434 121.79 104.013 122 103.487 122H98.434V125.053H103.908C104.434 125.053 104.75 125.158 105.066 125.474C105.276 125.684 105.487 126.105 105.487 126.632C105.487 127.158 105.381 127.474 105.066 127.79C104.855 128 104.434 128.211 103.908 128.211H96.6445V127.79ZM113.066 128C112.539 128 111.908 128 111.276 127.895C110.644 127.79 110.118 127.684 109.487 127.579C108.96 127.474 108.434 127.263 108.013 127.053C107.592 126.842 107.381 126.632 107.171 126.316C107.066 126 106.96 125.684 106.96 125.368C106.96 125.053 107.171 124.737 107.276 124.421C107.487 124.211 107.697 124 108.013 123.895C108.329 123.79 108.75 123.895 109.171 124C109.697 124.211 110.329 124.421 110.96 124.632C111.592 124.737 112.329 124.842 112.855 124.842C113.802 124.842 114.434 124.737 114.855 124.421C115.276 124.211 115.381 123.895 115.381 123.474C115.381 123.158 115.276 122.842 114.96 122.737C114.75 122.526 114.223 122.316 113.592 122.211L111.066 121.684C109.697 121.368 108.644 120.947 108.013 120.211C107.381 119.474 107.066 118.632 107.066 117.474C107.066 116.737 107.171 116.105 107.487 115.474C107.802 114.842 108.223 114.316 108.75 113.895C109.276 113.474 110.013 113.158 110.75 112.947C111.487 112.737 112.434 112.632 113.381 112.632C114.118 112.632 114.855 112.737 115.592 112.842C116.329 113.053 116.96 113.263 117.592 113.579C117.908 113.79 118.118 114 118.329 114.316C118.434 114.632 118.539 114.947 118.539 115.263C118.539 115.579 118.434 115.895 118.223 116.105C118.013 116.316 117.802 116.526 117.487 116.632C117.171 116.737 116.75 116.632 116.329 116.421C115.908 116.211 115.487 116.105 114.96 116C114.434 115.895 113.908 115.895 113.487 115.895C112.96 115.895 112.539 116 112.118 116.105C111.697 116.211 111.487 116.421 111.276 116.632C111.066 116.842 110.96 117.158 110.96 117.368C110.96 117.684 111.066 117.895 111.381 118.105C111.592 118.316 112.118 118.526 112.75 118.632L115.171 119.158C116.539 119.474 117.592 119.895 118.223 120.632C118.855 121.263 119.276 122.211 119.276 123.263C119.276 124 119.171 124.632 118.855 125.263C118.539 125.895 118.118 126.316 117.592 126.737C117.066 127.158 116.329 127.474 115.592 127.684C114.855 127.895 113.908 128 112.96 128H113.066Z" fill="black"/>
<path fill-rule="evenodd" clip-rule="evenodd" d="M1.90761 46.6316C-1.46081 54.5263 -0.0923882 63.7895 3.69709 70L4.11814 70.5263L4.64445 71.3684L5.06551 71.8947L6.43393 73.6842C7.06551 73.6842 6.96024 73.4737 6.96024 74.2105L8.74972 76C9.48656 76 9.27603 75.7895 9.27603 76.5263C12.4339 79.0526 13.5918 79.8947 18.0129 81.3684C24.1181 83.3684 25.3813 82.5263 29.6971 82.4211C33.9076 100.526 54.2234 102 62.7497 90.3158L64.4339 87.8947C65.9076 93.4737 73.276 96.8421 78.7497 97.7895C80.9602 98.1053 82.1181 97.6842 84.0129 97.3684C86.4339 96.9474 86.0129 97.2632 88.1181 98.4211C98.7497 104.947 114.75 101.158 121.697 89.7895C123.066 87.5789 124.96 84 125.171 80.9474C131.171 82.3158 137.276 84.8421 145.592 79.8947C148.434 78.1053 150.329 76.3158 152.223 73.7895C153.592 72 156.223 67.6842 155.592 64.5263C157.066 54.5263 152.329 46.4211 144.329 42.1053C140.644 40.1053 139.697 40.7368 136.013 39.5789C134.855 36.6316 135.171 28.3158 125.802 25.0526C116.013 21.579 111.066 28.6316 108.539 29.8947C107.066 22.6316 100.013 19.1579 92.6445 19.0526C92.0129 16.9474 91.3813 15.8947 90.1181 14.1053L87.0655 9.57895C85.0655 8.10526 83.276 6 80.6445 4.42105C78.1181 2.94737 75.5918 1.78948 72.3287 0.842107C54.855 -3.78947 35.1708 7.57895 34.2234 30.9474C28.0129 30.6316 22.7497 28.1053 13.3813 33.4737C4.96024 38.2105 3.27603 44.9474 1.90761 46.4211V46.6316Z" fill="#96CFFF"/>
<path fill-rule="evenodd" clip-rule="evenodd" d="M51.0655 54.2106C54.1181 49.8948 54.9602 47.0527 59.3812 47.6843C56.3286 51.7895 55.5918 54.8422 51.0655 54.2106ZM42.7497 46.9474L42.3286 44.7369C42.1181 44.0001 41.9076 44.7369 42.7497 43.6843C44.2233 44.1053 48.8549 46.7369 50.3286 47.7895C49.276 49.4737 46.0128 53.2632 44.7497 54.4211C42.8549 53.158 44.2233 54.1053 43.3812 50.6316C42.9602 49.0527 42.9602 48.2106 42.7497 46.9474ZM61.4865 52.4211C64.5391 48.1053 65.4865 45.158 69.8023 45.8948C66.6444 50.5264 66.0128 52.8422 61.4865 52.4211ZM44.4339 58.3158C45.9076 57.3685 68.6444 53.6843 72.4339 52.9474C80.0128 51.579 93.1707 49.4737 99.8023 48.0001C100.855 52.1053 101.592 57.3685 102.329 61.7895C105.171 78.0001 106.644 76.7369 97.9076 78.4211L56.7497 85.8948C55.0655 86.2106 51.8023 87.579 50.0128 85.579C48.7497 84.2106 47.4865 74.2106 46.9602 71.8948L44.4339 58.4211V58.3158ZM57.3812 41.7895L58.2234 41.8948C57.276 43.6843 58.1181 42.3158 57.276 42.5264C53.5918 42.8422 57.4865 45.3685 47.276 40.7369C48.7497 39.6843 50.3286 38.9474 52.1181 39.579C53.697 40.2106 55.9076 41.0527 57.3812 41.8948V41.7895ZM72.0128 50.5264C74.8549 46.2106 76.1181 43.2632 80.4339 43.7895C76.9602 48.5264 76.8549 50.7369 72.0128 50.5264ZM67.1707 37.7895C68.0128 37.8948 66.6444 36.9474 68.0128 38.0001C67.276 39.1579 67.9076 38.3158 67.276 38.3158C65.4865 38.9474 64.7497 39.8948 62.6444 39.0527C60.8549 38.3158 58.9602 37.579 57.1707 36.7369C60.9602 34.2106 62.5391 35.7895 67.0655 37.7895H67.1707ZM82.5391 48.5264C85.5918 44.3158 86.3286 41.3685 90.8549 42.0001C88.4339 45.3685 87.4865 47.8948 84.9602 48.4211C84.5391 48.5264 84.1181 48.5264 83.697 48.6316C82.3286 48.7369 83.5918 48.7369 82.5391 48.6316V48.5264ZM68.1181 33.2632L66.7497 32.8422L67.5918 32.6316C69.276 31.7895 70.2234 31.0527 72.3286 31.8948C74.1181 32.6316 75.9076 33.3685 77.697 34.2106C73.8023 36.5264 72.7497 35.4737 68.1181 33.2632ZM97.8023 40.4211C98.9602 41.4737 98.6444 41.7895 98.9602 43.0527C99.1707 44.1053 99.3812 44.4211 99.0655 45.579C97.697 46.2106 94.5391 46.8422 93.0655 46.6316L97.8023 40.3158V40.4211ZM78.0128 29.2632L76.7497 28.9474L77.8023 28.6316C78.4339 28.3158 79.276 27.8948 80.1181 27.6843C82.0128 27.1579 85.9076 29.3685 87.697 30.3158C85.8023 31.3685 84.5391 32.0001 83.0655 31.4737C81.697 30.9474 79.276 30.0001 78.1181 29.1579L78.0128 29.2632ZM87.8023 25.3685L86.7497 25.1579C87.9076 23.8948 86.9602 24.8422 87.697 24.7369C89.0655 24.1053 91.5918 23.0527 92.8549 22.9474C93.697 24.0001 94.7497 26.6316 94.4339 27.7895C93.276 28.1053 89.0655 26.1053 87.8023 25.3685ZM56.0128 46.0001C54.7497 46.7369 55.4865 46.6316 53.9076 46.2106C54.6444 45.6843 54.7497 45.4737 55.5918 45.579L73.3812 38.6316C79.3812 36.3158 85.0655 34.0001 90.9602 31.6843C94.0128 30.5264 98.2234 29.8948 96.5391 25.3685C94.6444 20.4211 94.3286 19.7895 89.3812 21.6843C83.4865 24.0001 77.697 26.3158 71.8023 28.6316L45.276 39.1579C36.4339 42.8422 38.2233 42.1053 40.7497 49.579L43.276 63.0527C44.4339 69.2632 45.4865 75.0527 46.5391 81.2632C46.9602 83.4737 46.9602 88.9474 52.0128 89.158C54.0128 89.2632 92.4339 81.8948 97.5918 81.0527C99.8023 80.6316 104.434 80.6316 106.223 77.579C107.592 75.1579 106.223 70.4211 105.802 68.3158C104.644 62 103.592 56.1053 102.434 49.8948C100.329 37.7895 101.592 37.7895 92.2234 39.4737C86.0128 40.6316 80.2234 41.6843 74.0128 42.7369C71.3812 43.1579 57.1707 45.4737 56.0128 46.2106V46.0001Z" fill="#003399"/>
<path fill-rule="evenodd" clip-rule="evenodd" d="M81.9077 68.9473C84.9603 66.3158 83.9077 64.5263 80.434 63.3684C77.9077 62.5263 75.5919 61.6842 73.0656 60.7368C70.7498 59.8947 67.1708 57.8947 65.6972 59.1579C63.8024 60.7368 65.1708 64.2105 65.3814 65.7894C65.8024 68.2105 66.2235 70.2105 66.6445 72.6316C66.9603 74.1052 66.9603 78.2105 69.6972 78.421C71.4866 78.6315 74.3287 75.2631 76.0129 73.8947L82.0129 68.8421L81.9077 68.9473ZM43.2761 44.7368L42.6445 45.6842L42.9603 46.5263L44.1182 46.7368C44.9603 45.6842 44.8551 44.8421 43.2761 44.7368ZM45.0656 53.1579C46.3287 51.8947 46.2235 51.5789 44.6445 50.8421C43.5919 52 43.8024 52.5263 45.0656 53.1579Z" fill="#003399"/>
</svg>
