<svg width="147" height="130" viewBox="0 0 147 130" fill="none" xmlns="http://www.w3.org/2000/svg">
<mask id="mask0_3289_497" style="mask-type:luminance" maskUnits="userSpaceOnUse" x="9" y="14" width="129" height="116">
<path fill-rule="evenodd" clip-rule="evenodd" d="M9.31177 14.0826H137.596V129.191H9.31177V14.0826Z" fill="url(#paint0_linear_3289_497)"/>
</mask>
<g mask="url(#mask0_3289_497)">
<path fill-rule="evenodd" clip-rule="evenodd" d="M23.0812 14.7761H123.727C130.958 14.7761 136.803 20.6207 136.803 27.8522V115.323C136.803 122.554 130.958 128.399 123.727 128.399H23.0812C15.8497 128.399 10.0051 122.554 10.0051 115.323V27.8522C10.0051 20.6207 15.8497 14.7761 23.0812 14.7761Z" fill="white"/>
</g>
<mask id="mask1_3289_497" style="mask-type:luminance" maskUnits="userSpaceOnUse" x="8" y="13" width="131" height="117">
<path fill-rule="evenodd" clip-rule="evenodd" d="M8.12305 13.1912H138.586V129.984H8.12305V13.1912Z" fill="url(#paint1_linear_3289_497)"/>
</mask>
<g mask="url(#mask1_3289_497)">
<path d="M24.5672 13.1912H122.241C126.798 13.1912 130.86 14.7761 133.831 17.3517L133.93 17.4508C136.803 20.0264 138.685 23.4935 138.685 27.3569V115.818C138.685 119.682 136.803 123.248 133.831 125.823C130.86 128.399 126.798 129.984 122.241 129.984H24.5672C20.0104 129.984 15.9489 128.399 12.977 125.823C10.0052 123.248 8.12305 119.682 8.12305 115.818V27.3569C8.12305 23.4935 10.0052 19.9273 12.977 17.3517C15.9489 14.7761 20.1094 13.1912 24.5672 13.1912ZM122.241 16.3611H24.5672C21.001 16.3611 17.831 17.6489 15.5526 19.6301C13.2742 21.6113 11.7883 24.385 11.7883 27.4559V115.917C11.7883 118.988 13.2742 121.762 15.5526 123.743C17.831 125.724 21.1 127.012 24.5672 127.012H122.241C125.807 127.012 128.977 125.724 131.256 123.743C133.534 121.762 135.02 118.988 135.02 115.917V27.4559C135.02 24.4841 133.633 21.7104 131.355 19.7292L131.256 19.6301C128.977 17.6489 125.708 16.3611 122.241 16.3611Z" fill="white"/>
</g>
<path d="M36.1572 120.474C35.6619 120.474 35.1666 120.375 34.9685 120.078C34.6713 119.781 34.5723 119.384 34.5723 118.79V107.695C34.5723 107.101 34.7704 106.705 35.0676 106.407C35.3648 106.11 35.761 106.011 36.3554 106.011C36.8507 106.011 37.1478 106.11 37.445 106.308C37.7422 106.506 37.9403 106.804 38.2375 107.2L42.4971 114.927H41.8037L46.0633 107.2C46.2615 106.804 46.5586 106.506 46.8558 106.308C47.153 106.11 47.4502 106.011 47.9455 106.011C48.4408 106.011 48.9361 106.11 49.1342 106.407C49.4314 106.705 49.5305 107.101 49.5305 107.695V118.79C49.5305 119.285 49.4314 119.781 49.1342 120.078C48.837 120.375 48.4408 120.474 47.8464 120.474C47.3511 120.474 46.8558 120.375 46.6577 120.078C46.3605 119.781 46.2615 119.384 46.2615 118.79V111.856H46.6577L43.3887 117.502C43.1906 117.799 42.9924 117.998 42.7943 118.196C42.5962 118.295 42.299 118.394 42.0018 118.394C41.7046 118.394 41.4075 118.295 41.2093 118.196C41.0112 118.097 40.8131 117.799 40.615 117.502L37.346 111.856H37.8413V118.79C37.8413 119.285 37.7422 119.781 37.445 120.078C37.1478 120.375 36.7516 120.474 36.1572 120.474ZM58.9412 120.474C57.5544 120.474 56.2666 120.177 55.1769 119.583C54.0873 118.988 53.2948 118.097 52.7004 117.007C52.106 115.917 51.8089 114.629 51.8089 113.144C51.8089 112.054 52.007 111.063 52.3042 110.172C52.6014 109.28 53.0967 108.488 53.7901 107.893C54.3844 107.299 55.1769 106.804 56.0685 106.407C56.96 106.11 57.9506 105.912 59.0403 105.912C60.4272 105.912 61.715 106.209 62.8046 106.804C63.8943 107.398 64.6868 108.29 65.2811 109.379C65.8755 110.469 66.1727 111.757 66.1727 113.243C66.1727 114.332 65.9746 115.323 65.6774 116.214C65.3802 117.106 64.8849 117.898 64.1915 118.493C63.5971 119.186 62.8046 119.682 61.9131 119.979C61.0215 120.276 60.0309 120.474 59.0403 120.474H58.9412ZM58.9412 117.403C59.6347 117.403 60.229 117.205 60.7243 116.908C61.2196 116.611 61.6159 116.115 61.9131 115.422C62.2103 114.828 62.3093 114.035 62.3093 113.144C62.3093 111.856 62.0121 110.766 61.4178 110.073C60.8234 109.379 60.0309 108.983 58.9412 108.983C58.2478 108.983 57.6535 109.181 57.1582 109.478C56.6628 109.775 56.2666 110.271 55.9694 110.865C55.6722 111.46 55.5732 112.252 55.5732 113.144C55.5732 114.431 55.8704 115.521 56.4647 116.214C57.0591 116.908 57.8516 117.304 58.9412 117.304V117.403ZM74.0976 120.474C73.6023 120.474 73.206 120.375 72.9088 120.177C72.6117 119.979 72.3145 119.583 72.1163 119.186L67.2624 108.488C67.0642 107.992 66.9652 107.596 67.0642 107.2C67.1633 106.804 67.3614 106.506 67.6586 106.308C67.9558 106.11 68.352 106.011 68.7483 106.011C69.3426 106.011 69.7389 106.11 69.937 106.407C70.2342 106.606 70.4323 107.002 70.6304 107.497L74.6919 116.908H73.6023L77.6638 107.398C77.8619 106.903 78.06 106.606 78.3572 106.308C78.6544 106.11 79.0506 105.912 79.5459 105.912C79.9422 105.912 80.3384 106.011 80.6356 106.209C80.9328 106.407 81.1309 106.705 81.1309 107.101C81.2299 107.497 81.1309 107.893 80.9328 108.389L76.0788 119.087C75.8807 119.583 75.5835 119.88 75.2863 120.078C74.9891 120.276 74.5929 120.375 74.0976 120.375V120.474ZM84.598 120.474C84.0037 120.474 83.5083 120.276 83.2112 119.979C82.914 119.682 82.7159 119.186 82.7159 118.592V107.893C82.7159 107.299 82.914 106.804 83.2112 106.506C83.5083 106.209 84.0037 106.011 84.598 106.011C85.1924 106.011 85.6877 106.209 85.9849 106.506C86.2821 106.804 86.4802 107.299 86.4802 107.893V118.592C86.4802 119.186 86.2821 119.682 85.9849 119.979C85.6877 120.276 85.1924 120.474 84.598 120.474ZM90.9379 120.276C90.3436 120.276 89.8482 120.078 89.5511 119.781C89.2539 119.483 89.0558 118.988 89.0558 118.394V108.091C89.0558 107.497 89.2539 107.002 89.5511 106.705C89.8482 106.407 90.3436 106.209 90.9379 106.209H97.7731C98.2684 106.209 98.5656 106.308 98.8628 106.606C99.0609 106.804 99.259 107.2 99.259 107.695C99.259 108.191 99.16 108.488 98.8628 108.785C98.6647 108.983 98.2684 109.181 97.7731 109.181H92.622V111.856H97.3769C97.8722 111.856 98.1694 111.955 98.4665 112.252C98.6647 112.45 98.8628 112.846 98.8628 113.342C98.8628 113.837 98.7637 114.134 98.4665 114.431C98.2684 114.629 97.8722 114.828 97.3769 114.828H92.622V117.7H97.7731C98.2684 117.7 98.5656 117.799 98.8628 118.097C99.0609 118.295 99.259 118.691 99.259 119.186C99.259 119.682 99.16 119.979 98.8628 120.276C98.6647 120.474 98.2684 120.672 97.7731 120.672H90.9379V120.276ZM106.391 120.474C105.896 120.474 105.302 120.474 104.707 120.375C104.113 120.276 103.618 120.177 103.023 120.078C102.528 119.979 102.033 119.781 101.636 119.583C101.24 119.384 101.042 119.186 100.844 118.889C100.745 118.592 100.646 118.295 100.646 117.998C100.646 117.7 100.844 117.403 100.943 117.106C101.141 116.908 101.339 116.71 101.636 116.611C101.934 116.512 102.33 116.611 102.726 116.71C103.221 116.908 103.816 117.106 104.41 117.304C105.005 117.403 105.698 117.502 106.193 117.502C107.085 117.502 107.679 117.403 108.075 117.106C108.472 116.908 108.571 116.611 108.571 116.214C108.571 115.917 108.472 115.62 108.175 115.521C107.976 115.323 107.481 115.125 106.887 115.026L104.509 114.53C103.221 114.233 102.231 113.837 101.636 113.144C101.042 112.45 100.745 111.658 100.745 110.568C100.745 109.875 100.844 109.28 101.141 108.686C101.438 108.091 101.835 107.596 102.33 107.2C102.825 106.804 103.519 106.506 104.212 106.308C104.906 106.11 105.797 106.011 106.689 106.011C107.382 106.011 108.075 106.11 108.769 106.209C109.462 106.407 110.057 106.606 110.651 106.903C110.948 107.101 111.146 107.299 111.344 107.596C111.444 107.893 111.543 108.191 111.543 108.488C111.543 108.785 111.444 109.082 111.245 109.28C111.047 109.478 110.849 109.676 110.552 109.775C110.255 109.875 109.859 109.775 109.462 109.577C109.066 109.379 108.67 109.28 108.175 109.181C107.679 109.082 107.184 109.082 106.788 109.082C106.292 109.082 105.896 109.181 105.5 109.28C105.104 109.379 104.906 109.577 104.707 109.775C104.509 109.974 104.41 110.271 104.41 110.469C104.41 110.766 104.509 110.964 104.806 111.162C105.005 111.36 105.5 111.559 106.094 111.658L108.373 112.153C109.66 112.45 110.651 112.846 111.245 113.54C111.84 114.134 112.236 115.026 112.236 116.016C112.236 116.71 112.137 117.304 111.84 117.898C111.543 118.493 111.146 118.889 110.651 119.285C110.156 119.682 109.462 119.979 108.769 120.177C108.075 120.375 107.184 120.474 106.292 120.474H106.391Z" stroke="black" stroke-width="1.8637" stroke-miterlimit="2.61313" stroke-linecap="round" stroke-linejoin="round"/>
<path d="M36.1572 120.474C35.6619 120.474 35.1666 120.375 34.9685 120.078C34.6713 119.781 34.5723 119.384 34.5723 118.79V107.695C34.5723 107.101 34.7704 106.705 35.0676 106.407C35.3648 106.11 35.761 106.011 36.3554 106.011C36.8507 106.011 37.1478 106.11 37.445 106.308C37.7422 106.506 37.9403 106.804 38.2375 107.2L42.4971 114.927H41.8037L46.0633 107.2C46.2615 106.804 46.5586 106.506 46.8558 106.308C47.153 106.11 47.4502 106.011 47.9455 106.011C48.4408 106.011 48.9361 106.11 49.1342 106.407C49.4314 106.705 49.5305 107.101 49.5305 107.695V118.79C49.5305 119.285 49.4314 119.781 49.1342 120.078C48.837 120.375 48.4408 120.474 47.8464 120.474C47.3511 120.474 46.8558 120.375 46.6577 120.078C46.3605 119.781 46.2615 119.384 46.2615 118.79V111.856H46.6577L43.3887 117.502C43.1906 117.799 42.9924 117.998 42.7943 118.196C42.5962 118.295 42.299 118.394 42.0018 118.394C41.7046 118.394 41.4075 118.295 41.2093 118.196C41.0112 118.097 40.8131 117.799 40.615 117.502L37.346 111.856H37.8413V118.79C37.8413 119.285 37.7422 119.781 37.445 120.078C37.1478 120.375 36.7516 120.474 36.1572 120.474ZM58.9412 120.474C57.5544 120.474 56.2666 120.177 55.1769 119.583C54.0873 118.988 53.2948 118.097 52.7004 117.007C52.106 115.917 51.8089 114.629 51.8089 113.144C51.8089 112.054 52.007 111.063 52.3042 110.172C52.6014 109.28 53.0967 108.488 53.7901 107.893C54.3844 107.299 55.1769 106.804 56.0685 106.407C56.96 106.11 57.9506 105.912 59.0403 105.912C60.4272 105.912 61.715 106.209 62.8046 106.804C63.8943 107.398 64.6868 108.29 65.2811 109.379C65.8755 110.469 66.1727 111.757 66.1727 113.243C66.1727 114.332 65.9746 115.323 65.6774 116.214C65.3802 117.106 64.8849 117.898 64.1915 118.493C63.5971 119.186 62.8046 119.682 61.9131 119.979C61.0215 120.276 60.0309 120.474 59.0403 120.474H58.9412ZM58.9412 117.403C59.6347 117.403 60.229 117.205 60.7243 116.908C61.2196 116.611 61.6159 116.115 61.9131 115.422C62.2103 114.828 62.3093 114.035 62.3093 113.144C62.3093 111.856 62.0121 110.766 61.4178 110.073C60.8234 109.379 60.0309 108.983 58.9412 108.983C58.2478 108.983 57.6535 109.181 57.1581 109.478C56.6628 109.775 56.2666 110.271 55.9694 110.865C55.6722 111.46 55.5732 112.252 55.5732 113.144C55.5732 114.431 55.8704 115.521 56.4647 116.214C57.0591 116.908 57.8516 117.304 58.9412 117.304V117.403ZM74.0976 120.474C73.6023 120.474 73.206 120.375 72.9088 120.177C72.6117 119.979 72.3145 119.583 72.1163 119.186L67.2624 108.488C67.0642 107.992 66.9652 107.596 67.0642 107.2C67.1633 106.804 67.3614 106.506 67.6586 106.308C67.9558 106.11 68.352 106.011 68.7483 106.011C69.3426 106.011 69.7389 106.11 69.937 106.407C70.2342 106.606 70.4323 107.002 70.6304 107.497L74.6919 116.908H73.6023L77.6638 107.398C77.8619 106.903 78.06 106.606 78.3572 106.308C78.6544 106.11 79.0506 105.912 79.5459 105.912C79.9422 105.912 80.3384 106.011 80.6356 106.209C80.9328 106.407 81.1309 106.705 81.1309 107.101C81.2299 107.497 81.1309 107.893 80.9328 108.389L76.0788 119.087C75.8807 119.583 75.5835 119.88 75.2863 120.078C74.9891 120.276 74.5929 120.375 74.0976 120.375V120.474ZM84.598 120.474C84.0037 120.474 83.5083 120.276 83.2112 119.979C82.914 119.682 82.7159 119.186 82.7159 118.592V107.893C82.7159 107.299 82.914 106.804 83.2112 106.506C83.5083 106.209 84.0037 106.011 84.598 106.011C85.1924 106.011 85.6877 106.209 85.9849 106.506C86.2821 106.804 86.4802 107.299 86.4802 107.893V118.592C86.4802 119.186 86.2821 119.682 85.9849 119.979C85.6877 120.276 85.1924 120.474 84.598 120.474ZM90.9379 120.276C90.3436 120.276 89.8482 120.078 89.5511 119.781C89.2539 119.483 89.0558 118.988 89.0558 118.394V108.091C89.0558 107.497 89.2539 107.002 89.5511 106.705C89.8482 106.407 90.3436 106.209 90.9379 106.209H97.7731C98.2684 106.209 98.5656 106.308 98.8628 106.606C99.0609 106.804 99.259 107.2 99.259 107.695C99.259 108.191 99.16 108.488 98.8628 108.785C98.6647 108.983 98.2684 109.181 97.7731 109.181H92.622V111.856H97.3769C97.8722 111.856 98.1694 111.955 98.4665 112.252C98.6647 112.45 98.8628 112.846 98.8628 113.342C98.8628 113.837 98.7637 114.134 98.4665 114.431C98.2684 114.629 97.8722 114.828 97.3769 114.828H92.622V117.7H97.7731C98.2684 117.7 98.5656 117.799 98.8628 118.097C99.0609 118.295 99.259 118.691 99.259 119.186C99.259 119.682 99.16 119.979 98.8628 120.276C98.6647 120.474 98.2684 120.672 97.7731 120.672H90.9379V120.276ZM106.391 120.474C105.896 120.474 105.302 120.474 104.707 120.375C104.113 120.276 103.618 120.177 103.023 120.078C102.528 119.979 102.033 119.781 101.636 119.583C101.24 119.384 101.042 119.186 100.844 118.889C100.745 118.592 100.646 118.295 100.646 117.998C100.646 117.7 100.844 117.403 100.943 117.106C101.141 116.908 101.339 116.71 101.636 116.611C101.934 116.512 102.33 116.611 102.726 116.71C103.221 116.908 103.816 117.106 104.41 117.304C105.005 117.403 105.698 117.502 106.193 117.502C107.085 117.502 107.679 117.403 108.075 117.106C108.472 116.908 108.571 116.611 108.571 116.214C108.571 115.917 108.472 115.62 108.175 115.521C107.976 115.323 107.481 115.125 106.887 115.026L104.509 114.53C103.221 114.233 102.231 113.837 101.636 113.144C101.042 112.45 100.745 111.658 100.745 110.568C100.745 109.875 100.844 109.28 101.141 108.686C101.438 108.091 101.835 107.596 102.33 107.2C102.825 106.804 103.519 106.506 104.212 106.308C104.906 106.11 105.797 106.011 106.689 106.011C107.382 106.011 108.075 106.11 108.769 106.209C109.462 106.407 110.057 106.606 110.651 106.903C110.948 107.101 111.146 107.299 111.344 107.596C111.444 107.893 111.543 108.191 111.543 108.488C111.543 108.785 111.444 109.082 111.245 109.28C111.047 109.478 110.849 109.676 110.552 109.775C110.255 109.875 109.859 109.775 109.462 109.577C109.066 109.379 108.67 109.28 108.175 109.181C107.679 109.082 107.184 109.082 106.788 109.082C106.292 109.082 105.896 109.181 105.5 109.28C105.104 109.379 104.906 109.577 104.707 109.775C104.509 109.974 104.41 110.271 104.41 110.469C104.41 110.766 104.509 110.964 104.806 111.162C105.005 111.36 105.5 111.559 106.094 111.658L108.373 112.153C109.66 112.45 110.651 112.846 111.245 113.54C111.84 114.134 112.236 115.026 112.236 116.016C112.236 116.71 112.137 117.304 111.84 117.898C111.543 118.493 111.146 118.889 110.651 119.285C110.156 119.682 109.462 119.979 108.769 120.177C108.075 120.375 107.184 120.474 106.292 120.474H106.391Z" fill="white"/>
<path fill-rule="evenodd" clip-rule="evenodd" d="M1.78318 43.9C-1.38677 51.3295 -0.0989802 60.0469 3.46721 65.8915L3.86346 66.3868L4.35876 67.1793L4.755 67.6746L6.04279 69.3586C6.63716 69.3586 6.5381 69.1605 6.5381 69.8539L8.22213 71.538C8.91556 71.538 8.71744 71.3398 8.71744 72.0333C11.6893 74.4107 12.7789 75.2032 16.9395 76.5901C22.685 78.4722 23.8738 77.6797 27.9353 77.5807C31.8977 94.6191 51.0164 96.006 59.0404 85.0102L60.6253 82.7318C62.0122 87.9821 68.9465 91.152 74.0976 92.0436C76.1779 92.3408 77.2676 91.9445 79.0507 91.6473C81.3291 91.2511 80.9328 91.5483 82.914 92.6379C92.9192 98.7797 107.976 95.2135 114.514 84.5149C115.802 82.4347 117.585 79.0666 117.783 76.1938C123.43 77.4816 129.175 79.8591 137.001 75.2032C139.676 73.5192 141.459 71.8352 143.242 69.4577C144.53 67.7737 147.006 63.7122 146.412 60.7403C147.799 51.3295 143.341 43.7019 135.813 39.6404C132.345 37.7582 131.454 38.3526 127.987 37.2629C126.897 34.4892 127.194 26.5643 118.378 23.5925C109.165 20.3235 104.509 26.9606 102.132 28.1493C100.745 21.3141 94.1079 18.0451 87.1737 17.946C86.5793 15.9648 85.9849 14.9742 84.7962 13.2902L81.9234 9.03055C80.0413 7.64369 78.3572 5.66247 75.8807 4.17656C73.5033 2.78971 71.1258 1.70004 68.0549 0.808491C51.6108 -3.55019 33.0864 7.14839 32.1949 29.1399C26.3503 28.8427 21.3972 26.4653 12.5808 31.5174C4.65594 35.9751 3.07097 42.315 1.78318 43.7019V43.9Z" fill="white"/>
<path fill-rule="evenodd" clip-rule="evenodd" d="M48.0445 51.0323C50.9173 46.9708 51.7098 44.2962 55.8703 44.8906C52.9975 48.7539 52.3041 51.6267 48.0445 51.0323ZM40.2187 44.1971L39.8225 42.1169C39.6243 41.4234 39.4262 42.1169 40.2187 41.1263C41.6055 41.5225 45.9642 43.999 47.3511 44.9896C46.3605 46.5746 43.2896 50.1408 42.1009 51.2305C40.3178 50.0417 41.6055 50.9333 40.8131 47.6643C40.4168 46.1784 40.4168 45.3859 40.2187 44.1971ZM57.8515 49.3483C60.7243 45.2868 61.6158 42.5131 65.6773 43.2065C62.7055 47.5652 62.1112 49.7446 57.8515 49.3483ZM41.8037 54.8957C43.1905 54.0042 64.5877 50.537 68.1539 49.8436C75.2862 48.5558 87.6688 46.5746 93.9097 45.1878C94.9003 49.0511 95.5937 54.0042 96.2872 58.1647C98.9618 73.4201 100.349 72.2314 92.1266 73.8163L53.3938 80.8497C51.8088 81.1469 48.7379 82.4346 47.0539 80.5525C45.8652 79.2647 44.6764 69.8539 44.1811 67.6746L41.8037 54.9948V54.8957ZM53.9882 39.3432L54.7806 39.4422C53.8891 41.1263 54.6816 39.8385 53.8891 40.0366C50.422 40.3338 54.0872 42.7112 44.4783 38.3526C45.8652 37.3619 47.3511 36.6685 49.0351 37.2629C50.521 37.8572 52.6013 38.6497 53.9882 39.4422V39.3432ZM67.7576 47.5652C70.4323 43.5037 71.621 40.73 75.6825 41.2253C72.4135 45.6831 72.3144 47.7633 67.7576 47.5652ZM63.2008 35.5788C63.9933 35.6779 62.7055 34.7864 63.9933 35.777C63.2999 36.8666 63.8942 36.0742 63.2999 36.0742C61.6158 36.6685 60.9224 37.5601 58.9412 36.7676C57.2572 36.0742 55.4741 35.3807 53.79 34.5882C57.3562 32.2108 58.8421 33.6967 63.1018 35.5788H63.2008ZM77.6637 45.6831C80.5365 41.7206 81.2299 38.9469 85.4895 39.5413C83.2111 42.7112 82.3196 45.0887 79.9421 45.584C79.5459 45.6831 79.1496 45.6831 78.7534 45.7821C77.4656 45.8812 78.6543 45.8812 77.6637 45.7821V45.6831ZM64.0924 31.3192L62.8046 30.923L63.5971 30.7249C65.182 29.9324 66.0736 29.239 68.0548 30.0314C69.7388 30.7249 71.4229 31.4183 73.1069 32.2108C69.4417 34.3901 68.451 33.3995 64.0924 31.3192ZM92.0275 38.0554C93.1172 39.046 92.82 39.3432 93.1172 40.5319C93.3153 41.5225 93.5134 41.8197 93.2163 42.9094C91.9285 43.5037 88.9566 44.0981 87.5698 43.9L92.0275 37.9563V38.0554ZM73.4041 27.5549L72.2154 27.2577L73.206 26.9605C73.8003 26.6634 74.5928 26.2671 75.3853 26.069C77.1684 25.5737 80.8337 27.654 82.5177 28.5455C80.7346 29.5361 79.5459 30.1305 78.159 29.6352C76.8712 29.1399 74.5928 28.2483 73.5032 27.4559L73.4041 27.5549ZM82.6167 23.8897L81.6261 23.6915C82.7158 22.5028 81.8243 23.3944 82.5177 23.2953C83.8055 22.7009 86.1829 21.7103 87.3717 21.6113C88.1642 22.6019 89.1548 25.0784 88.8576 26.1681C87.7679 26.4652 83.8055 24.5831 82.6167 23.8897ZM52.7004 43.3056C51.5116 43.999 52.2051 43.9 50.7191 43.5037C51.4126 43.0084 51.5116 42.8103 52.3041 42.9094L69.0454 36.3713C74.6919 34.192 80.0412 32.0127 85.5886 29.8333C88.4613 28.7436 92.4238 28.1493 90.8388 23.8897C89.0557 19.2338 88.7585 18.6394 84.1027 20.4225C78.5553 22.6019 73.1069 24.7812 67.5595 26.9605L42.5962 36.8666C34.275 40.3338 35.9591 39.6403 38.3365 46.6737L40.714 59.3535C41.8037 65.198 42.7943 70.6464 43.7849 76.491C44.1811 78.5713 44.1811 83.7224 48.9361 83.9206C50.8182 84.0196 86.9754 77.0854 91.8294 76.2929C93.9097 75.8966 98.2684 75.8966 99.9524 73.0239C101.24 70.7455 99.9524 66.2877 99.5562 64.3065C98.4665 58.3628 97.4759 52.8154 96.3862 46.9708C94.405 35.5788 95.5937 35.5788 86.7773 37.1638C80.9327 38.2535 75.4844 39.2441 69.6398 40.2347C67.1633 40.631 53.79 42.8103 52.7004 43.5037V43.3056Z" fill="#FF0066"/>
<path fill-rule="evenodd" clip-rule="evenodd" d="M77.0693 64.9009C79.9421 62.4244 78.9515 60.7404 75.6825 59.6507C73.305 58.8582 71.1257 58.0657 68.7482 57.1742C66.5689 56.3817 63.2008 54.4996 61.814 55.6883C60.0309 57.1742 61.3187 60.4432 61.5168 61.9291C61.913 64.2075 62.3093 66.0897 62.7055 68.3681C63.0027 69.7549 63.0027 73.6183 65.5783 73.8164C67.2623 74.0145 69.937 70.8446 71.5219 69.5568L77.1684 64.8019L77.0693 64.9009ZM40.714 42.1169L40.1196 43.0085L40.4168 43.801L41.5065 43.9991C42.299 43.0085 42.1999 42.216 40.714 42.1169ZM42.398 50.0418C43.5868 48.8531 43.4877 48.5559 42.0018 47.8625C41.0112 48.9521 41.2093 49.4475 42.398 50.0418Z" fill="#FF0066"/>
<defs>
<linearGradient id="paint0_linear_3289_497" x1="72.6117" y1="187.241" x2="72.6117" y2="39.046" gradientUnits="userSpaceOnUse">
<stop stop-color="white"/>
<stop offset="1" stop-color="white" stop-opacity="0"/>
</linearGradient>
<linearGradient id="paint1_linear_3289_497" x1="72.5126" y1="190.411" x2="72.5126" y2="38.1545" gradientUnits="userSpaceOnUse">
<stop stop-color="white"/>
<stop offset="1" stop-color="white" stop-opacity="0"/>
</linearGradient>
</defs>
</svg>
