<?xml version="1.0" encoding="UTF-8"?>
<svg width="24px" height="24px" viewBox="0 0 24 24" version="1.1" xmlns="http://www.w3.org/2000/svg" xmlns:xlink="http://www.w3.org/1999/xlink">
    <title>Sound On</title>
    <g stroke="none" stroke-width="1" fill="none" fill-rule="evenodd">
        <path d="M13,5.07 L13,19.07 C13,19.92 11.92,20.3 11.33,19.7 L6.97,15 L4,15 C2.9,15 2,14.1 2,13 L2,11 C2,9.9 2.9,9 4,9 L6.97,9 L11.33,4.3 C11.92,3.7 13,4.08 13,5.07 Z" fill="#22C55E"></path>
        <path d="M16.5,12 C16.5,10.23 15.48,8.71 14,7.97 L14,16.02 C15.48,15.29 16.5,13.77 16.5,12 Z" fill="#22C55E"></path>
        <path d="M19,12 C19,14.16 17.5,16.09 15.5,16.96 L15.5,7.04 C17.5,7.91 19,9.84 19,12 Z" fill="#22C55E"></path>
        <path d="M21.5,12 C21.5,15.03 19.46,17.73 16.7,18.9 L16.7,5.1 C19.46,6.27 21.5,8.97 21.5,12 Z" fill="#22C55E"></path>
    </g>
</svg> 