<svg width="147" height="130" viewBox="0 0 147 130" fill="none" xmlns="http://www.w3.org/2000/svg">
<mask id="mask0_3289_515" style="mask-type:luminance" maskUnits="userSpaceOnUse" x="9" y="13" width="129" height="117">
<path fill-rule="evenodd" clip-rule="evenodd" d="M9.25171 13.9922H137.471V129.067H9.25171V13.9922Z" fill="url(#paint0_linear_3289_515)"/>
</mask>
<g mask="url(#mask0_3289_515)">
<path fill-rule="evenodd" clip-rule="evenodd" d="M23.0743 14.7554H123.733C130.941 14.7554 136.792 20.6066 136.792 27.8147V115.329C136.792 122.538 130.941 128.389 123.733 128.389H23.0743C15.8662 128.389 10.0149 122.538 10.0149 115.329V27.8147C10.0149 20.6066 15.8662 14.7554 23.0743 14.7554Z" fill="white"/>
</g>
<mask id="mask1_3289_515" style="mask-type:luminance" maskUnits="userSpaceOnUse" x="8" y="13" width="131" height="117">
<path fill-rule="evenodd" clip-rule="evenodd" d="M8.14917 13.1442H138.658V130H8.14917V13.1442Z" fill="url(#paint1_linear_3289_515)"/>
</mask>
<g mask="url(#mask1_3289_515)">
<path d="M24.6006 13.1442H122.207C126.701 13.1442 130.856 14.7554 133.824 17.2994L133.909 17.3842C136.792 19.9282 138.658 23.4899 138.658 27.3059V115.753C138.658 119.654 136.792 123.216 133.824 125.76C130.856 128.304 126.701 129.915 122.207 129.915H24.6006C20.1061 129.915 15.9509 128.304 12.9828 125.76C10.0148 123.216 8.14917 119.654 8.14917 115.753V27.3059C8.14917 23.4051 10.0148 19.8434 12.9828 17.2994C15.9509 14.7554 20.1061 13.1442 24.6006 13.1442ZM122.207 16.2818H24.6006C21.0389 16.2818 17.9013 17.5538 15.5269 19.5042C13.2372 21.5395 11.7956 24.2531 11.7956 27.3059V115.753C11.7956 118.806 13.2372 121.605 15.5269 123.555C17.8165 125.59 21.0389 126.778 24.6006 126.778H122.207C125.768 126.778 128.906 125.506 131.28 123.555C133.57 121.52 135.012 118.806 135.012 115.753V27.3059C135.012 24.3379 133.57 21.5395 131.365 19.589L131.28 19.5042C128.991 17.469 125.768 16.2818 122.207 16.2818Z" fill="white"/>
</g>
<path d="M36.5576 120.502C36.0488 120.502 35.4552 120.502 34.8616 120.418C34.268 120.333 33.7592 120.248 33.2504 120.078C32.7416 119.909 32.2328 119.739 31.8088 119.57C31.4696 119.4 31.2152 119.146 31.0456 118.891C30.876 118.637 30.876 118.297 30.876 117.958C30.876 117.619 31.0456 117.365 31.2152 117.11C31.3848 116.856 31.6392 116.686 31.9784 116.601C32.3176 116.517 32.6568 116.517 32.996 116.771C33.5048 117.025 34.0984 117.195 34.692 117.365C35.3704 117.534 35.964 117.534 36.4728 117.534C37.3209 117.534 37.9993 117.449 38.3385 117.195C38.6777 116.941 38.8473 116.686 38.8473 116.347C38.8473 116.008 38.7625 115.753 38.5081 115.584C38.2537 115.414 37.8297 115.245 37.2361 115.075L34.8616 114.566C33.5896 114.312 32.6568 113.803 31.9784 113.125C31.3848 112.446 31.0456 111.598 31.0456 110.581C31.0456 109.902 31.2152 109.224 31.4696 108.715C31.724 108.121 32.148 107.697 32.6568 107.273C33.1656 106.849 33.844 106.595 34.5224 106.341C35.2856 106.086 36.0488 106.001 36.9817 106.001C37.6601 106.001 38.3385 106.086 39.1017 106.256C39.7801 106.425 40.4585 106.68 40.9673 106.934C41.3065 107.104 41.4761 107.273 41.6457 107.613C41.8153 107.867 41.8153 108.206 41.8153 108.461C41.8153 108.8 41.6457 109.054 41.4761 109.224C41.3065 109.478 41.0521 109.563 40.7129 109.648C40.3737 109.733 40.0345 109.648 39.6105 109.478C39.1865 109.309 38.7625 109.139 38.3385 109.054C37.8297 108.969 37.4057 108.885 36.8968 108.885C36.388 108.885 35.964 108.969 35.6248 109.054C35.2856 109.139 35.0312 109.309 34.8616 109.563C34.692 109.817 34.6072 109.987 34.6072 110.326C34.6072 110.581 34.692 110.835 34.9464 111.005C35.2008 111.174 35.6248 111.344 36.2184 111.513L38.5081 112.022C39.7801 112.277 40.7977 112.785 41.3913 113.379C42.0697 114.057 42.3241 114.821 42.3241 115.923C42.3241 116.601 42.1545 117.28 41.9001 117.789C41.6457 118.382 41.2217 118.806 40.7129 119.23C40.2041 119.654 39.5257 119.909 38.8473 120.163C38.0841 120.418 37.3209 120.502 36.388 120.502H36.5576ZM49.193 120.502C48.5994 120.502 48.1754 120.333 47.8362 119.994C47.497 119.654 47.3274 119.23 47.3274 118.637V109.224H44.1897C43.6809 109.224 43.3417 109.054 43.0873 108.8C42.8329 108.545 42.6633 108.206 42.6633 107.697C42.6633 107.189 42.8329 106.849 43.0873 106.595C43.3417 106.341 43.7657 106.256 44.1897 106.256H54.1963C54.7051 106.256 55.0443 106.341 55.2987 106.595C55.5531 106.849 55.7227 107.189 55.7227 107.697C55.7227 108.206 55.5531 108.545 55.2987 108.8C55.0443 109.054 54.6203 109.224 54.1963 109.224H51.0586V118.637C51.0586 119.23 50.889 119.654 50.6346 119.994C50.2954 120.333 49.8714 120.502 49.2778 120.502H49.193ZM62.9308 120.502C61.4892 120.502 60.2171 120.163 59.1995 119.57C58.0971 118.976 57.2491 118.128 56.6555 117.025C56.0619 115.923 55.8075 114.651 55.8075 113.209C55.8075 112.107 55.9771 111.089 56.3163 110.241C56.6555 109.309 57.1643 108.545 57.7579 107.952C58.3515 107.273 59.1147 106.849 60.0475 106.51C60.8955 106.171 61.9132 106.001 62.9308 106.001C64.3724 106.001 65.6444 106.341 66.662 106.934C67.7644 107.528 68.6124 108.376 69.206 109.478C69.7997 110.581 70.1389 111.853 70.1389 113.294C70.1389 114.397 69.9693 115.414 69.6301 116.262C69.2909 117.195 68.782 117.958 68.1884 118.552C67.5948 119.23 66.8316 119.654 65.8988 119.994C65.0508 120.333 64.0332 120.502 63.0156 120.502H62.9308ZM62.9308 117.449C63.6092 117.449 64.2028 117.28 64.7116 116.941C65.2204 116.601 65.5596 116.093 65.814 115.499C66.0684 114.905 66.238 114.142 66.238 113.209C66.238 111.853 65.9836 110.835 65.39 110.157C64.7964 109.393 63.9484 109.054 62.9308 109.054C62.2524 109.054 61.6588 109.224 61.15 109.563C60.6411 109.902 60.3019 110.326 59.9627 111.005C59.7083 111.598 59.5387 112.361 59.5387 113.294C59.5387 114.651 59.7931 115.669 60.3867 116.347C60.9803 117.11 61.8284 117.449 62.846 117.449H62.9308ZM74.1245 120.502C73.5309 120.502 73.1069 120.333 72.7677 119.994C72.4285 119.654 72.2589 119.23 72.2589 118.637V108.037C72.2589 107.443 72.4285 106.934 72.7677 106.68C73.1069 106.341 73.5309 106.171 74.1245 106.171H79.043C80.6542 106.171 81.8414 106.595 82.7742 107.358C83.6222 108.121 84.0462 109.224 84.0462 110.581C84.0462 111.513 83.8766 112.277 83.4526 112.87C83.0286 113.549 82.5198 114.057 81.7566 114.397C80.9934 114.736 80.1454 114.905 79.043 114.905L79.2126 114.566H80.1454C80.739 114.566 81.2478 114.736 81.6718 114.99C82.0958 115.245 82.5198 115.669 82.7742 116.262L83.7918 118.043C84.0462 118.467 84.131 118.806 84.131 119.146C84.131 119.485 83.9614 119.824 83.707 120.078C83.4526 120.333 83.0286 120.418 82.5198 120.418C82.011 120.418 81.587 120.333 81.2478 120.078C80.9086 119.824 80.6542 119.57 80.3998 119.061L78.619 115.753C78.4494 115.499 78.2798 115.245 78.0254 115.16C77.771 115.075 77.5166 114.99 77.1774 114.99H76.0749V118.552C76.0749 119.146 75.9053 119.57 75.6509 119.909C75.3117 120.248 74.8877 120.418 74.2941 120.418L74.1245 120.502ZM75.9901 112.446H78.4494C79.1278 112.446 79.7214 112.277 80.0606 112.022C80.3998 111.768 80.6542 111.344 80.6542 110.75C80.6542 110.157 80.4846 109.733 80.0606 109.478C79.7214 109.224 79.1278 109.054 78.4494 109.054H75.9901V112.446ZM88.2863 120.502C87.6927 120.502 87.2687 120.333 86.9295 119.994C86.5903 119.654 86.4207 119.23 86.4207 118.637V107.952C86.4207 107.358 86.5903 106.849 86.9295 106.51C87.2687 106.171 87.6927 106.001 88.2863 106.001C88.8799 106.001 89.3039 106.171 89.6431 106.51C89.9823 106.849 90.1519 107.273 90.1519 107.952V118.637C90.1519 119.23 89.9823 119.739 89.7279 119.994C89.3887 120.333 88.9647 120.502 88.3711 120.502H88.2863ZM94.6464 120.333C94.0528 120.333 93.544 120.163 93.2047 119.824C92.8655 119.485 92.6959 119.061 92.6959 118.382V108.037C92.6959 107.443 92.8655 106.934 93.2047 106.595C93.544 106.256 93.968 106.086 94.6464 106.086H101.43C101.939 106.086 102.278 106.171 102.533 106.425C102.787 106.68 102.872 107.019 102.872 107.443C102.872 107.867 102.787 108.291 102.533 108.545C102.278 108.8 101.939 108.885 101.43 108.885H96.2576V111.598H101.006C101.515 111.598 101.854 111.683 102.109 111.937C102.363 112.192 102.448 112.531 102.448 113.04C102.448 113.549 102.363 113.888 102.109 114.142C101.854 114.397 101.515 114.481 101.006 114.481H96.2576V117.365H101.43C101.939 117.365 102.278 117.449 102.533 117.704C102.787 117.958 102.872 118.297 102.872 118.722C102.872 119.23 102.787 119.57 102.533 119.824C102.278 120.078 101.939 120.163 101.43 120.163H94.6464V120.333ZM110.08 120.587C109.571 120.587 108.978 120.587 108.384 120.502C107.791 120.418 107.282 120.333 106.773 120.163C106.264 119.994 105.755 119.824 105.331 119.654C104.992 119.485 104.738 119.23 104.568 118.976C104.398 118.721 104.398 118.382 104.398 118.043C104.398 117.704 104.568 117.449 104.738 117.195C104.907 116.941 105.162 116.771 105.501 116.686C105.84 116.601 106.179 116.601 106.519 116.856C107.027 117.11 107.621 117.28 108.215 117.449C108.893 117.619 109.487 117.619 109.995 117.619C110.843 117.619 111.522 117.534 111.861 117.28C112.2 117.025 112.37 116.771 112.37 116.432C112.37 116.093 112.285 115.838 112.031 115.669C111.776 115.499 111.352 115.329 110.759 115.16L108.384 114.651C107.112 114.397 106.179 113.888 105.501 113.209C104.907 112.531 104.568 111.683 104.568 110.665C104.568 109.987 104.738 109.309 104.992 108.8C105.246 108.206 105.671 107.782 106.179 107.358C106.688 106.934 107.367 106.68 108.045 106.425C108.808 106.171 109.571 106.086 110.504 106.086C111.183 106.086 111.861 106.171 112.624 106.341C113.303 106.51 113.981 106.765 114.49 107.019C114.829 107.189 114.999 107.358 115.168 107.697C115.338 107.952 115.338 108.291 115.338 108.545C115.338 108.885 115.168 109.139 114.999 109.309C114.829 109.563 114.575 109.648 114.235 109.733C113.896 109.817 113.557 109.733 113.133 109.563C112.709 109.393 112.285 109.224 111.861 109.139C111.352 109.054 110.928 108.969 110.419 108.969C109.911 108.969 109.487 109.054 109.147 109.139C108.808 109.224 108.554 109.393 108.384 109.648C108.215 109.902 108.13 110.072 108.13 110.411C108.13 110.665 108.215 110.92 108.469 111.089C108.723 111.259 109.147 111.429 109.741 111.598L112.031 112.107C113.303 112.361 114.32 112.87 114.914 113.464C115.592 114.142 115.847 114.905 115.847 116.008C115.847 116.686 115.677 117.365 115.423 117.873C115.168 118.467 114.744 118.891 114.235 119.315C113.727 119.739 113.048 119.994 112.37 120.248C111.607 120.502 110.843 120.587 109.911 120.587H110.08Z" stroke="black" stroke-width="1.86132" stroke-miterlimit="2.61313" stroke-linecap="round" stroke-linejoin="round"/>
<path d="M36.5576 120.502C36.0488 120.502 35.4552 120.502 34.8616 120.418C34.268 120.333 33.7592 120.248 33.2504 120.078C32.7416 119.909 32.2328 119.739 31.8088 119.57C31.4696 119.4 31.2152 119.146 31.0456 118.891C30.876 118.637 30.876 118.297 30.876 117.958C30.876 117.619 31.0456 117.365 31.2152 117.11C31.3848 116.856 31.6392 116.686 31.9784 116.601C32.3176 116.517 32.6568 116.517 32.996 116.771C33.5048 117.025 34.0984 117.195 34.692 117.365C35.3704 117.534 35.964 117.534 36.4728 117.534C37.3209 117.534 37.9993 117.449 38.3385 117.195C38.6777 116.941 38.8473 116.686 38.8473 116.347C38.8473 116.008 38.7625 115.753 38.5081 115.584C38.2537 115.414 37.8297 115.245 37.2361 115.075L34.8616 114.566C33.5896 114.312 32.6568 113.803 31.9784 113.125C31.3848 112.446 31.0456 111.598 31.0456 110.581C31.0456 109.902 31.2152 109.224 31.4696 108.715C31.724 108.121 32.148 107.697 32.6568 107.273C33.1656 106.849 33.844 106.595 34.5224 106.341C35.2856 106.086 36.0488 106.001 36.9817 106.001C37.6601 106.001 38.3385 106.086 39.1017 106.256C39.7801 106.425 40.4585 106.68 40.9673 106.934C41.3065 107.104 41.4761 107.273 41.6457 107.613C41.8153 107.867 41.8153 108.206 41.8153 108.461C41.8153 108.8 41.6457 109.054 41.4761 109.224C41.3065 109.478 41.0521 109.563 40.7129 109.648C40.3737 109.733 40.0345 109.648 39.6105 109.478C39.1865 109.309 38.7625 109.139 38.3385 109.054C37.8297 108.969 37.4057 108.885 36.8968 108.885C36.388 108.885 35.964 108.969 35.6248 109.054C35.2856 109.139 35.0312 109.309 34.8616 109.563C34.692 109.817 34.6072 109.987 34.6072 110.326C34.6072 110.581 34.692 110.835 34.9464 111.005C35.2008 111.174 35.6248 111.344 36.2184 111.513L38.5081 112.022C39.7801 112.277 40.7977 112.785 41.3913 113.379C42.0697 114.057 42.3241 114.821 42.3241 115.923C42.3241 116.601 42.1545 117.28 41.9001 117.789C41.6457 118.382 41.2217 118.806 40.7129 119.23C40.2041 119.654 39.5257 119.909 38.8473 120.163C38.0841 120.418 37.3209 120.502 36.388 120.502H36.5576ZM49.193 120.502C48.5994 120.502 48.1754 120.333 47.8362 119.994C47.497 119.654 47.3274 119.23 47.3274 118.637V109.224H44.1897C43.6809 109.224 43.3417 109.054 43.0873 108.8C42.8329 108.545 42.6633 108.206 42.6633 107.697C42.6633 107.189 42.8329 106.849 43.0873 106.595C43.3417 106.341 43.7657 106.256 44.1897 106.256H54.1963C54.7051 106.256 55.0443 106.341 55.2987 106.595C55.5531 106.849 55.7227 107.189 55.7227 107.697C55.7227 108.206 55.5531 108.545 55.2987 108.8C55.0443 109.054 54.6203 109.224 54.1963 109.224H51.0586V118.637C51.0586 119.23 50.889 119.654 50.6346 119.994C50.2954 120.333 49.8714 120.502 49.2778 120.502H49.193ZM62.9308 120.502C61.4892 120.502 60.2171 120.163 59.1995 119.57C58.0971 118.976 57.2491 118.128 56.6555 117.025C56.0619 115.923 55.8075 114.651 55.8075 113.209C55.8075 112.107 55.9771 111.089 56.3163 110.241C56.6555 109.309 57.1643 108.545 57.7579 107.952C58.3515 107.273 59.1147 106.849 60.0475 106.51C60.8955 106.171 61.9132 106.001 62.9308 106.001C64.3724 106.001 65.6444 106.341 66.662 106.934C67.7644 107.528 68.6124 108.376 69.206 109.478C69.7997 110.581 70.1389 111.853 70.1389 113.294C70.1389 114.397 69.9693 115.414 69.6301 116.262C69.2909 117.195 68.782 117.958 68.1884 118.552C67.5948 119.23 66.8316 119.654 65.8988 119.994C65.0508 120.333 64.0332 120.502 63.0156 120.502H62.9308ZM62.9308 117.449C63.6092 117.449 64.2028 117.28 64.7116 116.941C65.2204 116.601 65.5596 116.093 65.814 115.499C66.0684 114.905 66.238 114.142 66.238 113.209C66.238 111.853 65.9836 110.835 65.39 110.157C64.7964 109.393 63.9484 109.054 62.9308 109.054C62.2524 109.054 61.6588 109.224 61.15 109.563C60.6411 109.902 60.3019 110.326 59.9627 111.005C59.7083 111.598 59.5387 112.361 59.5387 113.294C59.5387 114.651 59.7931 115.669 60.3867 116.347C60.9803 117.11 61.8284 117.449 62.846 117.449H62.9308ZM74.1245 120.502C73.5309 120.502 73.1069 120.333 72.7677 119.994C72.4285 119.654 72.2589 119.23 72.2589 118.637V108.037C72.2589 107.443 72.4285 106.934 72.7677 106.68C73.1069 106.341 73.5309 106.171 74.1245 106.171H79.043C80.6542 106.171 81.8414 106.595 82.7742 107.358C83.6222 108.121 84.0462 109.224 84.0462 110.581C84.0462 111.513 83.8766 112.277 83.4526 112.87C83.0286 113.549 82.5198 114.057 81.7566 114.397C80.9934 114.736 80.1454 114.905 79.043 114.905L79.2126 114.566H80.1454C80.739 114.566 81.2478 114.736 81.6718 114.99C82.0958 115.245 82.5198 115.669 82.7742 116.262L83.7918 118.043C84.0462 118.467 84.131 118.806 84.131 119.146C84.131 119.485 83.9614 119.824 83.707 120.078C83.4526 120.333 83.0286 120.418 82.5198 120.418C82.011 120.418 81.587 120.333 81.2478 120.078C80.9086 119.824 80.6542 119.57 80.3998 119.061L78.619 115.753C78.4494 115.499 78.2798 115.245 78.0254 115.16C77.771 115.075 77.5166 114.99 77.1774 114.99H76.0749V118.552C76.0749 119.146 75.9053 119.57 75.6509 119.909C75.3117 120.248 74.8877 120.418 74.2941 120.418L74.1245 120.502ZM75.9901 112.446H78.4494C79.1278 112.446 79.7214 112.277 80.0606 112.022C80.3998 111.768 80.6542 111.344 80.6542 110.75C80.6542 110.157 80.4846 109.733 80.0606 109.478C79.7214 109.224 79.1278 109.054 78.4494 109.054H75.9901V112.446ZM88.2863 120.502C87.6927 120.502 87.2687 120.333 86.9295 119.994C86.5903 119.654 86.4207 119.23 86.4207 118.637V107.952C86.4207 107.358 86.5903 106.849 86.9295 106.51C87.2687 106.171 87.6927 106.001 88.2863 106.001C88.8799 106.001 89.3039 106.171 89.6431 106.51C89.9823 106.849 90.1519 107.273 90.1519 107.952V118.637C90.1519 119.23 89.9823 119.739 89.7279 119.994C89.3887 120.333 88.9647 120.502 88.3711 120.502H88.2863ZM94.6464 120.333C94.0528 120.333 93.5439 120.163 93.2047 119.824C92.8655 119.485 92.6959 119.061 92.6959 118.382V108.037C92.6959 107.443 92.8655 106.934 93.2047 106.595C93.5439 106.256 93.968 106.086 94.6464 106.086H101.43C101.939 106.086 102.278 106.171 102.533 106.425C102.787 106.68 102.872 107.019 102.872 107.443C102.872 107.867 102.787 108.291 102.533 108.545C102.278 108.8 101.939 108.885 101.43 108.885H96.2576V111.598H101.006C101.515 111.598 101.854 111.683 102.109 111.937C102.363 112.192 102.448 112.531 102.448 113.04C102.448 113.549 102.363 113.888 102.109 114.142C101.854 114.397 101.515 114.481 101.006 114.481H96.2576V117.365H101.43C101.939 117.365 102.278 117.449 102.533 117.704C102.787 117.958 102.872 118.297 102.872 118.722C102.872 119.23 102.787 119.57 102.533 119.824C102.278 120.078 101.939 120.163 101.43 120.163H94.6464V120.333ZM110.08 120.587C109.571 120.587 108.978 120.587 108.384 120.502C107.791 120.418 107.282 120.333 106.773 120.163C106.264 119.994 105.755 119.824 105.331 119.654C104.992 119.485 104.738 119.23 104.568 118.976C104.398 118.721 104.398 118.382 104.398 118.043C104.398 117.704 104.568 117.449 104.738 117.195C104.907 116.941 105.162 116.771 105.501 116.686C105.84 116.601 106.179 116.601 106.519 116.856C107.027 117.11 107.621 117.28 108.215 117.449C108.893 117.619 109.487 117.619 109.995 117.619C110.843 117.619 111.522 117.534 111.861 117.28C112.2 117.025 112.37 116.771 112.37 116.432C112.37 116.093 112.285 115.838 112.031 115.669C111.776 115.499 111.352 115.329 110.759 115.16L108.384 114.651C107.112 114.397 106.179 113.888 105.501 113.209C104.907 112.531 104.568 111.683 104.568 110.665C104.568 109.987 104.738 109.309 104.992 108.8C105.246 108.206 105.671 107.782 106.179 107.358C106.688 106.934 107.367 106.68 108.045 106.425C108.808 106.171 109.571 106.086 110.504 106.086C111.183 106.086 111.861 106.171 112.624 106.341C113.303 106.51 113.981 106.765 114.49 107.019C114.829 107.189 114.999 107.358 115.168 107.697C115.338 107.952 115.338 108.291 115.338 108.545C115.338 108.885 115.168 109.139 114.999 109.309C114.829 109.563 114.575 109.648 114.235 109.733C113.896 109.817 113.557 109.733 113.133 109.563C112.709 109.393 112.285 109.224 111.861 109.139C111.352 109.054 110.928 108.969 110.419 108.969C109.911 108.969 109.487 109.054 109.147 109.139C108.808 109.224 108.554 109.393 108.384 109.648C108.215 109.902 108.13 110.072 108.13 110.411C108.13 110.665 108.215 110.92 108.469 111.089C108.723 111.259 109.147 111.429 109.741 111.598L112.031 112.107C113.303 112.361 114.32 112.87 114.914 113.464C115.592 114.142 115.847 114.905 115.847 116.008C115.847 116.686 115.677 117.365 115.423 117.873C115.168 118.467 114.744 118.891 114.235 119.315C113.727 119.739 113.048 119.994 112.37 120.248C111.607 120.502 110.843 120.587 109.911 120.587H110.08Z" fill="white"/>
<path fill-rule="evenodd" clip-rule="evenodd" d="M1.78915 43.8422C-1.43329 51.3047 -0.0764768 59.9544 3.48517 65.8057L3.90917 66.3145L4.33318 67.0777L4.75718 67.5865L6.0292 69.2825C6.62281 69.2825 6.4532 69.1129 6.4532 69.7913L8.14922 71.4873C8.82763 71.4873 8.65803 71.3177 8.65803 71.9961C11.6261 74.2858 12.7285 75.2186 16.8837 76.5754C22.6502 78.441 23.8374 77.6778 27.9079 77.593C31.8935 94.638 51.0586 96.0796 59.0299 85.0555L60.6411 82.7659C62.0827 88.0235 68.9516 91.246 74.1244 92.094C76.1597 92.4332 77.2621 92.0092 79.0429 91.7548C81.2477 91.4156 80.9933 91.67 82.8589 92.7724C92.8655 98.8781 107.875 95.3164 114.49 84.6315C115.762 82.5963 117.543 79.1194 117.797 76.321C123.479 77.6778 129.16 79.9674 136.962 75.3034C139.676 73.6922 141.372 71.9961 143.237 69.5369C144.509 67.8409 146.969 63.7704 146.375 60.8872C147.817 51.3895 143.322 43.8422 135.775 39.8565C132.298 37.9909 131.365 38.5845 127.973 37.4821C126.871 34.6837 127.125 26.7972 118.391 23.7443C109.147 20.5219 104.483 27.1364 102.194 28.3236C100.752 21.4547 94.2223 18.2323 87.1838 18.1475C86.5902 16.1122 85.9966 15.1794 84.8094 13.4834L81.9261 9.24335C80.0605 7.88653 78.3645 5.85131 75.8204 4.40969C73.446 3.05287 71.0716 1.86566 67.934 1.10245C51.5674 -3.22241 32.9111 7.46253 32.0631 29.426C26.2118 29.1716 21.2934 26.7972 12.4741 31.8004C4.50278 36.2949 2.97636 42.655 1.61954 44.0118L1.78915 43.8422Z" fill="white"/>
<path fill-rule="evenodd" clip-rule="evenodd" d="M69.9692 75.7274C69.2908 71.4874 68.5275 67.1625 67.7643 62.9224C67.1707 59.7 65.2203 53.7639 66.8315 51.4743C70.3084 46.5558 74.5484 42.655 82.6893 40.7894L88.2862 63.7705C83.7069 65.2969 81.4173 66.2297 77.7709 68.7737C74.3788 71.1481 72.7676 73.777 69.9692 75.8122V75.7274ZM44.2744 47.5735C51.2281 46.2166 59.369 49.3543 62.6763 52.2375C64.7963 54.1031 64.9659 60.2088 65.6443 63.6857C66.4075 67.8409 67.2555 72.081 67.7643 76.2362C60.8955 73.1834 56.9098 70.2153 46.5641 70.9785C46.0553 66.8233 43.6808 50.2023 44.2744 47.4886V47.5735ZM63.3547 79.713C54.7898 78.9498 54.6202 76.6602 40.7976 78.1866C40.3736 76.6602 38.6776 59.1064 39.6104 57.7496C40.3736 60.3784 41.052 70.3001 41.3912 74.201C41.9 79.7131 45.0377 73.6922 58.945 77.9322L62.7611 79.3738C62.8459 79.4586 63.0155 79.5434 63.0155 79.5434C63.1003 79.6283 63.1851 79.713 63.2699 79.713H63.3547ZM90.491 48.8455C91.4238 49.7783 95.9183 66.0601 96.1727 68.4345C91.763 69.8761 88.795 70.5545 84.6397 72.4202C80.9933 74.1162 78.0253 76.4906 74.8876 77.9322C77.4317 74.5402 85.6574 69.6217 91.2542 68.2649C95.4095 67.2473 95.0703 68.5193 92.6959 59.3608C92.187 57.2408 89.8974 50.1175 90.4062 48.7607L90.491 48.8455ZM77.7709 71.5721C78.9581 70.5545 80.0605 69.8761 81.5021 69.0281C85.1486 66.9081 87.099 66.8233 90.8302 65.3817C90.8302 60.548 85.3182 45.2838 86.0814 42.9942C87.1838 44.5206 91.763 62.9224 92.0174 65.8905C88.4558 66.8233 85.3182 68.0953 82.3501 69.7065C79.2973 71.3177 77.3469 73.2682 74.718 74.7098L77.7709 71.5721ZM43.9352 74.2858C43.172 71.657 42.4088 60.548 41.9848 56.308C41.8152 54.6967 41.1368 52.1527 41.9 50.7111C43.4264 53.5943 43.172 69.1129 44.7833 73.0986C44.8681 73.0986 45.0377 73.1834 45.0377 73.1834L45.9705 73.353C50.8041 73.4378 53.9418 72.3354 61.3195 75.6426C61.5739 75.7274 62.1675 76.0666 62.4219 76.1514C63.1851 76.6602 62.7611 76.321 63.1851 76.745C60.641 76.4058 57.4186 75.049 54.1114 74.5402C50.8889 74.0314 47.4121 73.777 44.02 74.2858H43.9352ZM39.6104 55.3752C35.9639 56.0536 36.7272 56.1384 37.0664 60.124C39.356 86.9211 35.6247 79.7131 48.0057 79.9675C53.433 80.0523 58.097 80.6459 63.1851 82.1723C65.2203 82.7659 68.2731 84.2923 70.3084 83.7835C72.5132 83.2747 80.2301 76.2362 90.1518 72.505C94.3919 70.8937 98.6319 71.4874 98.6319 68.9433C98.7167 67.1625 94.3919 53.3399 93.4591 49.8631C92.187 45.199 93.0351 46.8102 89.4734 46.2166L87.8622 40.1958L85.0638 40.535C84.4701 38.2453 85.3182 37.2277 79.2125 39.1781C69.1212 42.4006 66.3227 49.1847 64.1179 50.7111C60.7259 46.7254 50.1257 43.079 41.9 45.5382V48.0823C40.7128 48.3367 39.8648 48.5063 39.1016 49.0151L39.6952 55.2055L39.6104 55.3752Z" fill="#FF0066"/>
<path fill-rule="evenodd" clip-rule="evenodd" d="M58.6059 43.503C59.4539 41.7222 56.4011 36.4645 55.4683 34.4293C53.3483 29.6804 52.7546 26.5428 50.5498 26.882C49.7018 28.8324 52.7546 33.8357 53.6875 35.9557C55.8075 40.7046 56.3163 43.7574 58.6059 43.4182V43.503ZM47.6666 37.2277C46.3098 35.7861 44.1049 32.3093 41.8153 32.8181C41.3913 34.3445 42.3241 35.1077 43.3417 36.0405C45.5466 38.1605 50.465 44.351 51.9066 43.1638C53.3482 41.9766 48.6842 38.2453 47.6666 37.1429V37.2277ZM73.6157 39.3477C75.3965 39.687 75.6509 38.4149 76.2445 36.9733C77.6861 33.3269 80.9934 28.4084 79.891 26.3732C77.9406 26.458 78.1102 27.3908 77.3469 29.002L74.2093 35.9557C74.0397 36.2949 73.4461 37.5669 73.4461 37.6517C72.9373 39.5174 73.7005 39.4326 73.7005 39.4326L73.6157 39.3477ZM60.6411 32.5637C60.1323 34.3445 61.7436 43.079 62.6764 44.9446C64.542 44.6054 64.542 44.4358 64.2876 42.5702C64.118 41.2134 63.7788 39.7718 63.5244 38.4149C62.7612 34.1749 63.1004 32.0549 60.6411 32.6485V32.5637ZM59.6235 19.1651C56.9947 19.0803 58.2667 21.8787 58.6907 24.2532C59.0299 26.2884 59.2843 28.8324 60.1323 30.3588C62.9308 29.9348 61.4891 27.1364 60.5563 21.7091C60.1323 19.1651 59.8779 19.7587 59.7931 19.4195C59.7931 19.2499 59.6235 19.2499 59.6235 19.1651ZM68.1884 41.9766C69.2908 41.1286 69.206 41.2134 69.2908 39.3477C69.5453 36.5493 70.2237 31.8853 69.0364 30.698C67.4252 30.9524 67.5948 31.2917 67.4252 32.9029C67.2556 34.0901 67.2556 35.2773 67.2556 36.3797C66.9164 40.959 66.3228 41.2134 68.1884 41.8918V41.9766ZM68.2732 29.7652C70.8173 29.6804 70.1389 28.7476 70.3085 26.2036C70.4781 23.9988 71.0717 23.2356 69.6301 22.1331C67.086 22.6419 67.934 28.9172 68.2732 29.7652ZM50.1258 22.7267C49.3626 21.2003 49.5322 20.5219 48.0058 20.0131C46.4794 21.1155 46.9882 21.3699 47.921 23.3204C48.6842 25.0164 48.5146 25.4404 49.9562 26.034C51.6522 24.9316 51.0586 24.5924 50.2106 22.7267H50.1258ZM56.9947 12.1266C56.6555 13.653 57.1643 16.3667 57.8427 17.9779C60.0475 17.8931 59.8779 17.3843 59.4539 15.0098C59.1147 12.8898 59.1995 11.6178 56.9947 12.0418V12.1266ZM70.3933 16.3667C68.8668 16.4515 68.8668 16.7059 68.6124 18.0627C68.4428 19.2499 68.2732 20.6067 69.206 21.2003C71.1565 22.3875 71.3261 17.9779 70.3933 16.3667ZM55.9771 54.1879C56.4859 55.7992 56.0619 57.8344 54.7899 57.156C53.9419 56.6472 55.0443 55.9688 55.2139 55.7144C55.8075 55.1207 55.7227 54.6119 55.8923 54.1879H55.9771ZM51.9914 63.092C51.4826 62.4136 51.1434 61.4808 51.1434 60.4632C51.1434 59.5304 51.313 58.7672 51.6522 58.0888C51.9066 57.58 52.5002 56.6472 53.009 56.3928C52.9242 58.004 54.2811 59.0216 55.8075 58.7672C57.4187 58.428 57.7579 56.9016 57.8427 55.5448C58.8603 55.884 59.9627 56.6472 60.6411 57.8344C62.422 61.0568 60.3019 65.0425 56.6555 65.3817C54.8747 65.5513 53.0938 64.6185 52.0762 63.1768L51.9914 63.092ZM56.9099 66.8233C57.9275 66.7385 58.9451 66.3145 59.7083 65.8905C63.0156 63.7705 63.694 59.6152 61.574 56.5624C60.7259 55.3751 58.9451 54.1031 57.5883 53.9335C57.1643 52.4071 56.0619 51.5591 55.0443 51.1351C54.3659 50.8807 53.5179 51.2199 53.6875 52.1527C53.8571 52.8311 54.4507 52.5767 54.5355 54.0183C51.737 54.7815 49.9562 57.0712 49.7018 59.6152C49.5322 61.1416 49.8714 62.668 50.6346 63.9401C51.9914 66.0601 54.3659 67.2473 56.9099 66.9929V66.8233Z" fill="#FF0066"/>
<path fill-rule="evenodd" clip-rule="evenodd" d="M54.5355 63.0072C55.3835 64.7881 58.4364 64.2792 58.6908 62.244L54.5355 63.0072ZM53.1787 59.9544C53.1787 59.9544 52.9243 60.0392 52.8395 60.3784C52.7547 60.972 53.4331 61.5656 54.0267 61.1416C54.7051 60.6328 53.9419 59.3608 53.1787 59.9544ZM58.3516 59.0216C58.0124 59.276 57.9276 59.7 58.182 60.0392C58.3516 60.2936 58.8604 60.4632 59.1996 60.2088C59.878 59.7 59.1996 58.428 58.3516 59.0216ZM79.6366 56.5624C79.5518 56.5624 79.3822 56.6472 79.3822 56.6472C79.2974 56.6472 79.2126 56.6472 79.1278 56.5624C78.8734 56.4776 78.7886 56.3079 78.7038 56.0535C78.5342 55.5447 78.3646 55.0359 78.2798 54.6119C78.195 54.3575 78.1102 53.5095 78.3646 53.3399C78.5342 53.2551 78.9582 53.6791 79.1278 53.8487C79.467 54.2727 80.1454 55.3751 80.1454 55.7991C80.1454 56.1383 79.9758 56.3927 79.7214 56.5624H79.6366ZM69.2909 54.2727L73.7006 64.7033C73.7854 64.9577 74.1246 64.9577 74.2094 64.6185C74.2942 64.364 74.2942 64.1096 74.379 63.8552C74.379 63.7704 74.379 63.6856 74.4638 63.6008L74.5486 63.2616C74.7182 62.8376 74.8878 62.4136 75.1422 61.9896C75.227 61.9048 75.227 61.82 75.3118 61.82C75.3966 61.7352 75.3966 61.6504 75.4814 61.6504C76.075 61.0568 77.1774 60.972 77.8558 60.972H78.195C78.3646 60.972 78.4494 61.0568 78.619 61.0568H78.7038C78.8734 61.1416 78.7886 61.0568 78.9582 61.0568C79.1278 60.972 79.043 60.7176 79.1278 60.548C79.2126 60.2088 79.2974 59.7848 79.467 59.4456C79.7214 58.852 80.1454 58.3432 80.6542 57.9192C80.9086 57.7496 81.4175 57.3256 81.7567 57.2408C81.8415 57.2408 81.8415 57.156 81.9263 57.156C82.0111 57.156 82.0959 57.0712 82.1807 57.0712C82.4351 56.9016 82.2655 56.4775 81.9263 56.6472C81.6719 56.732 81.3327 56.9016 81.0782 57.0712C80.9934 57.156 80.4846 57.4104 80.3998 57.58L80.1454 56.9016C80.2302 56.8168 80.315 56.8168 80.3998 56.6472C80.4846 56.5623 80.5694 56.4775 80.5694 56.3079C80.6542 56.0535 80.6542 55.7143 80.5694 55.4599C80.315 54.7815 79.9758 54.1879 79.5518 53.5943C79.3822 53.3399 79.2126 53.1703 78.9582 53.0007C78.5342 52.6615 78.0254 52.7463 77.8558 53.1703C77.6014 53.7639 77.771 54.7815 77.9406 55.3751C78.1102 55.8839 78.2798 56.5624 78.7038 56.9016C78.7038 56.9016 78.7886 56.9016 78.7886 56.9864C78.9582 57.0712 79.2126 57.156 79.467 57.156H79.7214L80.0606 58.004C79.891 58.0888 79.5518 58.5976 79.467 58.7672C79.467 58.852 79.3822 58.852 79.3822 58.9368C79.2126 59.1064 79.1278 59.3608 79.043 59.6152C78.9582 59.8696 78.7038 60.548 78.7886 60.7176C78.1102 60.548 77.5166 60.548 76.8382 60.7176C76.6686 60.7176 76.499 60.8024 76.4142 60.8024C76.3294 60.8024 76.2446 60.8872 76.1598 60.8872H76.075C75.8206 60.972 75.8206 60.972 75.5662 61.2264C75.0574 61.6504 74.7182 62.1592 74.4638 62.7528C74.2942 63.0072 74.2942 63.1768 74.2094 63.4312C74.2094 63.516 74.2094 63.516 74.1246 63.6008C74.1246 63.6856 74.1246 63.6856 74.0398 63.7704L70.0541 54.2727L80.0606 50.0327L84.3007 60.0392L74.9726 64.0248C74.6334 64.1944 74.8878 64.6185 75.1422 64.5337L84.7247 60.4632C84.8943 60.3784 84.8943 60.2936 84.8943 60.124L80.4846 49.6935C80.3998 49.5239 80.315 49.5239 80.1454 49.5239L69.7149 53.9335C69.5453 54.0183 69.5453 54.1031 69.5453 54.2727H69.2909Z" fill="#FF0066"/>
<path fill-rule="evenodd" clip-rule="evenodd" d="M69.9692 53.1703L78.9581 49.3542C79.2973 49.1846 79.0429 49.015 79.5517 48.591C80.1454 48.167 80.9934 48.5062 81.163 49.2694C81.2478 49.6935 81.0782 49.7783 80.9934 49.9479V50.2023L84.8094 59.1912C84.8942 59.276 84.8942 59.3608 84.979 59.3608C85.1486 59.4456 85.3182 59.4456 85.5726 59.7C85.7422 59.9544 85.827 60.2936 85.7422 60.548L85.6574 60.7176C85.403 61.1416 84.8942 61.3112 84.4702 61.1416C84.4702 61.1416 84.3854 61.1416 84.3854 61.0568C84.3854 61.0568 84.3006 61.0568 84.3006 60.972H84.0462L75.0573 64.788C74.8029 64.8728 74.8877 64.9576 74.8029 65.1272C74.7181 65.2968 74.6333 65.3816 74.5485 65.4664C74.3789 65.5512 74.2093 65.636 74.0397 65.636C73.7853 65.636 73.5309 65.5512 73.3613 65.4664C73.1069 65.2968 73.0221 65.1272 72.9373 64.788C72.9373 64.6184 72.9373 64.4488 73.0221 64.2792C73.1069 64.1096 73.1917 64.0248 73.1069 63.8552L69.2908 54.8663C69.1212 54.5271 68.8668 54.7815 68.5276 54.2727C68.4428 54.1031 68.358 53.9335 68.358 53.7639V53.4247C68.4428 53.2551 68.5276 53.0855 68.6972 52.9159C69.0364 52.6615 69.3756 52.6615 69.7996 52.7463C69.8844 52.7463 69.8844 52.7463 69.8844 52.8311H70.1388L69.9692 53.1703ZM68.5276 52.6615L68.6972 52.5767C68.8668 52.4919 69.1212 52.4919 69.2908 52.4919C69.3756 52.4919 69.4604 52.4919 69.5452 52.5767C69.63 52.5767 69.7148 52.6615 69.7996 52.6615L78.7037 48.9302C78.7885 48.9302 78.7885 48.7606 78.7885 48.6758C78.9581 48.3366 79.2125 48.167 79.5517 47.9974C80.2302 47.743 81.0782 48.0822 81.4174 48.7606L81.5022 48.9302C81.587 49.0998 81.587 49.3542 81.587 49.5239C81.587 49.6087 81.587 49.6935 81.5022 49.7783C81.5022 49.8631 81.4174 49.9479 81.4174 50.0327L85.1486 58.9368C85.1486 59.0216 85.3182 59.0216 85.403 59.0216C85.7422 59.1912 85.9118 59.4456 86.0814 59.7848C86.251 60.124 86.1662 60.6328 86.0814 60.8872C85.9118 61.2264 85.6574 61.4808 85.403 61.6504L85.2334 61.7352C84.979 61.82 84.6398 61.82 84.3006 61.7352C84.2158 61.7352 84.131 61.6504 84.0462 61.6504L75.1421 65.3816C75.0573 65.3816 75.0573 65.636 74.8877 65.8905C74.7181 66.0601 74.5485 66.2297 74.3789 66.3145L74.2093 66.3993C74.0397 66.4841 73.8701 66.4841 73.7005 66.4841C73.1069 66.4841 72.6829 66.1449 72.4285 65.7208L72.3437 65.5512C72.2589 65.2968 72.2589 64.9576 72.3437 64.7032C72.3437 64.6184 72.4285 64.5336 72.4285 64.4488L68.6972 55.5447C68.6972 55.4599 68.5276 55.4599 68.4428 55.4599C68.1036 55.2903 67.934 55.0359 67.7644 54.6967C67.51 54.0183 67.8492 53.1703 68.5276 52.8311V52.6615Z" fill="#FF0066"/>
<path fill-rule="evenodd" clip-rule="evenodd" d="M74.3788 56.6472C74.1244 56.732 73.7852 56.732 73.6156 56.5624C73.3612 56.3928 73.2764 55.9688 73.3612 55.7144C73.6156 55.2056 74.4636 55.036 74.718 55.7144C74.8876 56.0536 74.718 56.4776 74.3788 56.6472ZM73.022 54.2727L73.3612 54.9512L73.022 55.2904L72.8524 55.7144C72.8524 55.7992 72.7676 56.0536 72.8524 56.2232L72.174 56.5624C71.9196 56.6472 72.0891 57.156 72.4284 56.9864L73.1068 56.732L73.446 57.0712L73.1916 57.6648C73.1916 57.7496 73.1068 57.8344 73.1916 58.004C73.2764 58.1736 73.3612 58.1736 73.5308 58.0888C73.6156 58.004 73.7004 57.8344 73.7852 57.6648C73.87 57.58 73.9548 57.3256 73.9548 57.2408H74.3788C74.4636 57.4104 74.6332 58.004 74.718 58.004C74.8876 58.0888 75.142 58.004 75.142 57.8344C75.142 57.6648 74.8876 57.156 74.8028 56.9864L75.142 56.6472C75.2268 56.6472 75.6508 56.8168 75.8204 56.9016C75.9052 56.9864 75.99 56.9864 76.0748 56.9016C76.2444 56.8168 76.3292 56.5624 75.99 56.3928C75.8204 56.308 75.3964 56.1384 75.3116 56.1384V55.7144C75.4812 55.6296 75.99 55.46 76.0748 55.3752C76.2444 55.2056 76.0748 55.036 75.9052 54.9512C75.8204 54.9512 75.2268 55.2056 75.0572 55.2904C74.9724 55.1208 74.8028 55.036 74.718 54.9512C74.8028 54.8664 74.8876 54.4423 74.9724 54.3575C75.0572 54.2727 75.0572 54.1879 74.9724 54.1031C74.8876 54.0183 74.8028 53.9335 74.718 53.9335C74.5484 54.0183 74.4636 54.2727 74.3788 54.4423C74.3788 54.5271 74.294 54.6968 74.294 54.7816H73.7852L73.5308 54.1031C73.3612 53.7639 72.9372 53.9335 73.022 54.2727ZM77.8556 16.1123C78.534 18.7411 80.23 19.8435 82.9437 19.6739C80.3148 20.3523 79.2124 22.0483 79.382 24.762C78.7036 22.1331 77.0076 21.0307 74.294 21.2003C76.9228 20.5219 78.0252 18.8259 77.8556 16.1123ZM69.4603 5.08813C70.1387 7.71697 71.8347 8.81938 74.5484 8.64978C71.9195 9.32819 70.8171 11.0242 70.9867 13.7378C70.3083 11.109 68.6123 10.0066 65.8987 10.1762C68.5275 9.49779 69.6299 7.80177 69.4603 5.08813ZM50.8889 11.4482C51.5673 14.077 53.2633 15.1795 55.9769 15.0099C53.3481 15.6883 52.2457 17.3843 52.4153 20.0979C51.7369 17.4691 50.0409 16.3667 47.3272 16.5363C49.9561 15.8579 51.0585 14.1618 50.8889 11.4482ZM38.5079 20.8611C39.1863 23.49 40.8824 24.5924 43.596 24.4228C40.9672 25.1012 39.8647 26.7972 40.0344 29.5108C39.3559 26.882 37.6599 25.7796 34.9463 25.9492C37.5751 25.2708 38.6775 23.5748 38.5079 20.8611Z" fill="#FF0066"/>
<defs>
<linearGradient id="paint0_linear_3289_515" x1="72.5981" y1="187.241" x2="72.5981" y2="39.0933" gradientUnits="userSpaceOnUse">
<stop stop-color="white"/>
<stop offset="1" stop-color="white" stop-opacity="0"/>
</linearGradient>
<linearGradient id="paint1_linear_3289_515" x1="72.5132" y1="190.378" x2="72.5132" y2="38.1605" gradientUnits="userSpaceOnUse">
<stop stop-color="white"/>
<stop offset="1" stop-color="white" stop-opacity="0"/>
</linearGradient>
</defs>
</svg>
