<svg width="157" height="130" viewBox="0 0 157 130" fill="none" xmlns="http://www.w3.org/2000/svg">
<g clip-path="url(#clip0_3289_454)">
<path d="M38.8487 128.095C38.3079 128.095 37.6769 128.095 37.046 128.005C36.415 127.915 35.8742 127.825 35.3334 127.645C34.7926 127.464 34.2517 127.284 33.8011 127.104C33.4405 126.924 33.1701 126.653 32.9898 126.383C32.8096 126.112 32.8096 125.752 32.8096 125.391C32.8096 125.031 32.9898 124.76 33.1701 124.49C33.3504 124.219 33.6208 124.039 33.9813 123.949C34.3419 123.859 34.7024 123.859 35.063 124.129C35.6038 124.4 36.2347 124.58 36.8657 124.76C37.5868 124.941 38.2177 124.941 38.7586 124.941C39.6599 124.941 40.381 124.85 40.7415 124.58C41.1021 124.31 41.2824 124.039 41.2824 123.679C41.2824 123.318 41.1922 123.048 40.9218 122.867C40.6514 122.687 40.2007 122.507 39.5698 122.327L37.046 121.786C35.6939 121.515 34.7024 120.975 33.9813 120.253C33.3504 119.532 32.9898 118.631 32.9898 117.549C32.9898 116.828 33.1701 116.107 33.4405 115.566C33.7109 114.935 34.1616 114.485 34.7024 114.034C35.2432 113.583 35.9643 113.313 36.6854 113.043C37.4966 112.772 38.3079 112.682 39.2994 112.682C40.0205 112.682 40.7415 112.772 41.5528 112.952C42.2739 113.133 42.995 113.403 43.5358 113.674C43.8963 113.854 44.0766 114.034 44.2569 114.395C44.4371 114.665 44.4371 115.026 44.4371 115.296C44.4371 115.656 44.2569 115.927 44.0766 116.107C43.8963 116.378 43.6259 116.468 43.2654 116.558C42.9048 116.648 42.5443 116.558 42.0936 116.378C41.6429 116.197 41.1922 116.017 40.7415 115.927C40.2007 115.837 39.7501 115.747 39.2092 115.747C38.6684 115.747 38.2177 115.837 37.8572 115.927C37.4966 116.017 37.2262 116.197 37.046 116.468C36.8657 116.738 36.7756 116.918 36.7756 117.279C36.7756 117.549 36.8657 117.82 37.1361 118C37.4065 118.18 37.8572 118.361 38.4881 118.541L40.9218 119.082C42.2739 119.352 43.3555 119.893 43.9865 120.524C44.7075 121.245 44.9779 122.056 44.9779 123.228C44.9779 123.949 44.7977 124.67 44.5273 125.211C44.2569 125.842 43.8062 126.293 43.2654 126.743C42.7245 127.194 42.0035 127.464 41.2824 127.735C40.4711 128.005 39.6599 128.095 38.6684 128.095H38.8487ZM52.279 128.095C51.648 128.095 51.1973 127.915 50.8368 127.554C50.4762 127.194 50.296 126.743 50.296 126.112V116.107H46.9609C46.4201 116.107 46.0596 115.927 45.7892 115.656C45.5188 115.386 45.3385 115.026 45.3385 114.485C45.3385 113.944 45.5188 113.583 45.7892 113.313C46.0596 113.043 46.5103 112.952 46.9609 112.952H57.597C58.1378 112.952 58.4984 113.133 58.7688 113.313C59.0392 113.583 59.2195 113.944 59.2195 114.485C59.2195 115.026 59.0392 115.386 58.7688 115.656C58.4984 115.927 58.0477 116.107 57.597 116.107H54.262V126.112C54.262 126.743 54.0817 127.194 53.8113 127.554C53.4507 127.915 53.0001 128.095 52.3691 128.095H52.279ZM66.881 128.095C65.3487 128.095 63.9967 127.735 62.915 127.104C61.7433 126.473 60.8419 125.571 60.211 124.4C59.58 123.228 59.3096 121.876 59.3096 120.344C59.3096 119.172 59.4899 118.09 59.8504 117.189C60.211 116.197 60.7518 115.386 61.3827 114.755C62.0137 114.034 62.8249 113.583 63.8164 113.223C64.7178 112.862 65.7994 112.682 66.881 112.682C68.4133 112.682 69.7654 113.043 70.847 113.674C72.0188 114.304 72.9201 115.206 73.5511 116.378C74.182 117.549 74.5426 118.901 74.5426 120.434C74.5426 121.605 74.3623 122.687 74.0018 123.588C73.6412 124.58 73.1004 125.391 72.4695 126.022C71.8385 126.743 71.0273 127.194 70.0358 127.554C69.1344 127.915 68.0528 128.095 66.9712 128.095H66.881ZM66.881 124.85C67.6021 124.85 68.2331 124.67 68.7739 124.31C69.3147 123.949 69.6752 123.408 69.9457 122.777C70.2161 122.146 70.3963 121.335 70.3963 120.344C70.3963 118.901 70.1259 117.82 69.495 117.099C68.864 116.287 67.9627 115.927 66.881 115.927C66.1599 115.927 65.529 116.107 64.9882 116.468C64.4474 116.828 64.0868 117.279 63.7263 118C63.4559 118.631 63.2756 119.442 63.2756 120.434C63.2756 121.876 63.546 122.958 64.1769 123.679C64.8079 124.49 65.7093 124.85 66.7909 124.85H66.881ZM78.779 128.095C78.148 128.095 77.6974 127.915 77.3368 127.554C76.9763 127.194 76.796 126.743 76.796 126.112V114.845C76.796 114.214 76.9763 113.674 77.3368 113.403C77.6974 113.043 78.148 112.862 78.779 112.862H84.0069C85.7195 112.862 86.9814 113.313 87.9729 114.124C88.8742 114.935 89.3249 116.107 89.3249 117.549C89.3249 118.541 89.1446 119.352 88.694 119.983C88.2433 120.704 87.7025 121.245 86.8912 121.605C86.08 121.966 85.1787 122.146 84.0069 122.146L84.1872 121.786H85.1787C85.8096 121.786 86.3504 121.966 86.8011 122.236C87.2518 122.507 87.7025 122.958 87.9729 123.588L89.0545 125.481C89.3249 125.932 89.4151 126.293 89.4151 126.653C89.4151 127.014 89.2348 127.374 88.9644 127.645C88.694 127.915 88.2433 128.005 87.7025 128.005C87.1616 128.005 86.711 127.915 86.3504 127.645C85.9899 127.374 85.7195 127.104 85.4491 126.563L83.5562 123.048C83.3759 122.777 83.1957 122.507 82.9253 122.417C82.6548 122.327 82.3844 122.236 82.0239 122.236H80.8521V126.022C80.8521 126.653 80.6719 127.104 80.4014 127.464C80.0409 127.825 79.5902 128.005 78.9593 128.005L78.779 128.095ZM80.762 119.532H83.3759C84.097 119.532 84.728 119.352 85.0885 119.082C85.4491 118.811 85.7195 118.361 85.7195 117.73C85.7195 117.099 85.5392 116.648 85.0885 116.378C84.728 116.107 84.097 115.927 83.3759 115.927H80.762V119.532ZM93.8317 128.095C93.2008 128.095 92.7501 127.915 92.3895 127.554C92.029 127.194 91.8487 126.743 91.8487 126.112V114.755C91.8487 114.124 92.029 113.583 92.3895 113.223C92.7501 112.862 93.2008 112.682 93.8317 112.682C94.4627 112.682 94.9134 112.862 95.2739 113.223C95.6344 113.583 95.8147 114.034 95.8147 114.755V126.112C95.8147 126.743 95.6344 127.284 95.364 127.554C95.0035 127.915 94.5528 128.095 93.9219 128.095H93.8317ZM100.592 127.915C99.961 127.915 99.4202 127.735 99.0596 127.374C98.6991 127.014 98.5188 126.563 98.5188 125.842V114.845C98.5188 114.214 98.6991 113.674 99.0596 113.313C99.4202 112.952 99.8708 112.772 100.592 112.772H107.803C108.344 112.772 108.704 112.862 108.975 113.133C109.245 113.403 109.335 113.764 109.335 114.214C109.335 114.665 109.245 115.116 108.975 115.386C108.704 115.657 108.344 115.747 107.803 115.747H102.305V118.631H107.352C107.893 118.631 108.254 118.721 108.524 118.992C108.794 119.262 108.884 119.622 108.884 120.163C108.884 120.614 108.794 121.065 108.524 121.335C108.254 121.605 107.893 121.696 107.352 121.696H102.305V124.76H107.803C108.344 124.76 108.704 124.85 108.975 125.121C109.245 125.391 109.335 125.752 109.335 126.202C109.335 126.743 109.245 127.104 108.975 127.374C108.704 127.645 108.344 127.735 107.803 127.735H100.592V127.915ZM116.997 128.185C116.456 128.185 115.825 128.185 115.194 128.095C114.563 128.005 114.022 127.915 113.481 127.735C112.941 127.554 112.4 127.374 111.949 127.194C111.589 127.014 111.318 126.743 111.138 126.473C110.958 126.202 110.958 125.842 110.958 125.481C110.958 125.121 111.138 124.85 111.318 124.58C111.498 124.31 111.769 124.129 112.129 124.039C112.49 123.949 112.85 123.949 113.211 124.219C113.752 124.49 114.383 124.67 115.014 124.85C115.735 125.031 116.366 125.031 116.907 125.031C117.808 125.031 118.529 124.941 118.89 124.67C119.25 124.4 119.43 124.129 119.43 123.769C119.43 123.408 119.34 123.138 119.07 122.958C118.799 122.777 118.349 122.597 117.718 122.417L115.194 121.876C113.842 121.605 112.85 121.065 112.129 120.344C111.498 119.622 111.138 118.721 111.138 117.639C111.138 116.918 111.318 116.197 111.589 115.656C111.859 115.026 112.31 114.575 112.85 114.124C113.391 113.674 114.112 113.403 114.833 113.133C115.645 112.862 116.456 112.772 117.447 112.772C118.168 112.772 118.89 112.862 119.701 113.043C120.422 113.223 121.143 113.493 121.684 113.764C122.044 113.944 122.225 114.124 122.405 114.485C122.585 114.755 122.585 115.116 122.585 115.386C122.585 115.747 122.405 116.017 122.225 116.197C122.044 116.468 121.774 116.558 121.413 116.648C121.053 116.738 120.692 116.648 120.242 116.468C119.791 116.287 119.34 116.107 118.89 116.017C118.349 115.927 117.898 115.837 117.357 115.837C116.816 115.837 116.366 115.927 116.005 116.017C115.645 116.107 115.374 116.287 115.194 116.558C115.014 116.828 114.924 117.009 114.924 117.369C114.924 117.639 115.014 117.91 115.284 118.09C115.555 118.27 116.005 118.451 116.636 118.631L119.07 119.172C120.422 119.442 121.504 119.983 122.134 120.614C122.856 121.335 123.126 122.146 123.126 123.318C123.126 124.039 122.946 124.76 122.675 125.301C122.405 125.932 121.954 126.383 121.413 126.833C120.873 127.284 120.151 127.554 119.43 127.825C118.619 128.095 117.808 128.185 116.816 128.185H116.997Z" stroke="white" stroke-width="1.86153" stroke-miterlimit="2.61313" stroke-linecap="round" stroke-linejoin="round"/>
<path d="M38.8487 128.095C38.3079 128.095 37.6769 128.095 37.046 128.005C36.415 127.915 35.8742 127.825 35.3334 127.645C34.7926 127.464 34.2517 127.284 33.8011 127.104C33.4405 126.924 33.1701 126.653 32.9898 126.383C32.8096 126.112 32.8096 125.752 32.8096 125.391C32.8096 125.031 32.9898 124.76 33.1701 124.49C33.3504 124.219 33.6208 124.039 33.9813 123.949C34.3419 123.859 34.7024 123.859 35.063 124.129C35.6038 124.4 36.2347 124.58 36.8657 124.76C37.5868 124.941 38.2177 124.941 38.7586 124.941C39.6599 124.941 40.381 124.85 40.7415 124.58C41.1021 124.31 41.2824 124.039 41.2824 123.679C41.2824 123.318 41.1922 123.048 40.9218 122.867C40.6514 122.687 40.2007 122.507 39.5698 122.327L37.046 121.786C35.6939 121.515 34.7024 120.975 33.9813 120.253C33.3504 119.532 32.9898 118.631 32.9898 117.549C32.9898 116.828 33.1701 116.107 33.4405 115.566C33.7109 114.935 34.1616 114.485 34.7024 114.034C35.2432 113.583 35.9643 113.313 36.6854 113.043C37.4966 112.772 38.3079 112.682 39.2994 112.682C40.0205 112.682 40.7415 112.772 41.5528 112.952C42.2739 113.133 42.995 113.403 43.5358 113.674C43.8963 113.854 44.0766 114.034 44.2569 114.395C44.4371 114.665 44.4371 115.026 44.4371 115.296C44.4371 115.656 44.2569 115.927 44.0766 116.107C43.8963 116.378 43.6259 116.468 43.2654 116.558C42.9048 116.648 42.5443 116.558 42.0936 116.378C41.6429 116.197 41.1922 116.017 40.7415 115.927C40.2007 115.837 39.7501 115.747 39.2092 115.747C38.6684 115.747 38.2177 115.837 37.8572 115.927C37.4966 116.017 37.2262 116.197 37.046 116.468C36.8657 116.738 36.7756 116.918 36.7756 117.279C36.7756 117.549 36.8657 117.82 37.1361 118C37.4065 118.18 37.8572 118.361 38.4881 118.541L40.9218 119.082C42.2739 119.352 43.3555 119.893 43.9865 120.524C44.7075 121.245 44.9779 122.056 44.9779 123.228C44.9779 123.949 44.7977 124.67 44.5273 125.211C44.2569 125.842 43.8062 126.293 43.2654 126.743C42.7245 127.194 42.0035 127.464 41.2824 127.735C40.4711 128.005 39.6599 128.095 38.6684 128.095H38.8487ZM52.279 128.095C51.648 128.095 51.1973 127.915 50.8368 127.554C50.4762 127.194 50.296 126.743 50.296 126.112V116.107H46.9609C46.4201 116.107 46.0596 115.927 45.7892 115.656C45.5188 115.386 45.3385 115.026 45.3385 114.485C45.3385 113.944 45.5188 113.583 45.7892 113.313C46.0596 113.043 46.5103 112.952 46.9609 112.952H57.597C58.1378 112.952 58.4984 113.133 58.7688 113.313C59.0392 113.583 59.2195 113.944 59.2195 114.485C59.2195 115.026 59.0392 115.386 58.7688 115.656C58.4984 115.927 58.0477 116.107 57.597 116.107H54.262V126.112C54.262 126.743 54.0817 127.194 53.8113 127.554C53.4507 127.915 53.0001 128.095 52.3691 128.095H52.279ZM66.881 128.095C65.3487 128.095 63.9967 127.735 62.915 127.104C61.7433 126.473 60.8419 125.571 60.211 124.4C59.58 123.228 59.3096 121.876 59.3096 120.344C59.3096 119.172 59.4899 118.09 59.8504 117.189C60.211 116.197 60.7518 115.386 61.3827 114.755C62.0137 114.034 62.8249 113.583 63.8164 113.223C64.7178 112.862 65.7994 112.682 66.881 112.682C68.4133 112.682 69.7654 113.043 70.847 113.674C72.0188 114.304 72.9201 115.206 73.5511 116.378C74.182 117.549 74.5426 118.901 74.5426 120.434C74.5426 121.605 74.3623 122.687 74.0018 123.588C73.6412 124.58 73.1004 125.391 72.4695 126.022C71.8385 126.743 71.0273 127.194 70.0358 127.554C69.1344 127.915 68.0528 128.095 66.9712 128.095H66.881ZM66.881 124.85C67.6021 124.85 68.2331 124.67 68.7739 124.31C69.3147 123.949 69.6752 123.408 69.9457 122.777C70.2161 122.146 70.3963 121.335 70.3963 120.344C70.3963 118.901 70.1259 117.82 69.495 117.099C68.864 116.287 67.9627 115.927 66.881 115.927C66.1599 115.927 65.529 116.107 64.9882 116.468C64.4473 116.828 64.0868 117.279 63.7263 118C63.4559 118.631 63.2756 119.442 63.2756 120.434C63.2756 121.876 63.546 122.958 64.1769 123.679C64.8079 124.49 65.7093 124.85 66.7909 124.85H66.881ZM78.779 128.095C78.148 128.095 77.6974 127.915 77.3368 127.554C76.9763 127.194 76.796 126.743 76.796 126.112V114.845C76.796 114.214 76.9763 113.674 77.3368 113.403C77.6974 113.043 78.148 112.862 78.779 112.862H84.0069C85.7195 112.862 86.9814 113.313 87.9729 114.124C88.8742 114.935 89.3249 116.107 89.3249 117.549C89.3249 118.541 89.1446 119.352 88.694 119.983C88.2433 120.704 87.7025 121.245 86.8912 121.605C86.08 121.966 85.1787 122.146 84.0069 122.146L84.1872 121.786H85.1787C85.8096 121.786 86.3504 121.966 86.8011 122.236C87.2518 122.507 87.7025 122.958 87.9729 123.588L89.0545 125.481C89.3249 125.932 89.4151 126.293 89.4151 126.653C89.4151 127.014 89.2348 127.374 88.9644 127.645C88.694 127.915 88.2433 128.005 87.7025 128.005C87.1616 128.005 86.711 127.915 86.3504 127.645C85.9899 127.374 85.7195 127.104 85.4491 126.563L83.5562 123.048C83.3759 122.777 83.1957 122.507 82.9253 122.417C82.6548 122.327 82.3844 122.236 82.0239 122.236H80.8521V126.022C80.8521 126.653 80.6719 127.104 80.4014 127.464C80.0409 127.825 79.5902 128.005 78.9593 128.005L78.779 128.095ZM80.762 119.532H83.3759C84.097 119.532 84.728 119.352 85.0885 119.082C85.4491 118.811 85.7195 118.361 85.7195 117.73C85.7195 117.099 85.5392 116.648 85.0885 116.378C84.728 116.107 84.097 115.927 83.3759 115.927H80.762V119.532ZM93.8317 128.095C93.2008 128.095 92.7501 127.915 92.3895 127.554C92.029 127.194 91.8487 126.743 91.8487 126.112V114.755C91.8487 114.124 92.029 113.583 92.3895 113.223C92.7501 112.862 93.2008 112.682 93.8317 112.682C94.4627 112.682 94.9134 112.862 95.2739 113.223C95.6344 113.583 95.8147 114.034 95.8147 114.755V126.112C95.8147 126.743 95.6344 127.284 95.364 127.554C95.0035 127.915 94.5528 128.095 93.9219 128.095H93.8317ZM100.592 127.915C99.961 127.915 99.4202 127.735 99.0596 127.374C98.6991 127.014 98.5188 126.563 98.5188 125.842V114.845C98.5188 114.214 98.6991 113.674 99.0596 113.313C99.4202 112.952 99.8708 112.772 100.592 112.772H107.803C108.344 112.772 108.704 112.862 108.975 113.133C109.245 113.403 109.335 113.764 109.335 114.214C109.335 114.665 109.245 115.116 108.975 115.386C108.704 115.657 108.344 115.747 107.803 115.747H102.305V118.631H107.352C107.893 118.631 108.254 118.721 108.524 118.992C108.794 119.262 108.884 119.622 108.884 120.163C108.884 120.614 108.794 121.065 108.524 121.335C108.254 121.605 107.893 121.696 107.352 121.696H102.305V124.76H107.803C108.344 124.76 108.704 124.85 108.975 125.121C109.245 125.391 109.335 125.752 109.335 126.202C109.335 126.743 109.245 127.104 108.975 127.374C108.704 127.645 108.344 127.735 107.803 127.735H100.592V127.915ZM116.997 128.185C116.456 128.185 115.825 128.185 115.194 128.095C114.563 128.005 114.022 127.915 113.481 127.735C112.941 127.554 112.4 127.374 111.949 127.194C111.589 127.014 111.318 126.743 111.138 126.473C110.958 126.202 110.958 125.842 110.958 125.481C110.958 125.121 111.138 124.85 111.318 124.58C111.498 124.31 111.769 124.129 112.129 124.039C112.49 123.949 112.85 123.949 113.211 124.219C113.752 124.49 114.383 124.67 115.014 124.85C115.735 125.031 116.366 125.031 116.907 125.031C117.808 125.031 118.529 124.941 118.89 124.67C119.25 124.4 119.43 124.129 119.43 123.769C119.43 123.408 119.34 123.138 119.07 122.958C118.799 122.777 118.349 122.597 117.718 122.417L115.194 121.876C113.842 121.605 112.85 121.065 112.129 120.344C111.498 119.622 111.138 118.721 111.138 117.639C111.138 116.918 111.318 116.197 111.589 115.656C111.859 115.026 112.31 114.575 112.85 114.124C113.391 113.674 114.112 113.403 114.833 113.133C115.645 112.862 116.456 112.772 117.447 112.772C118.168 112.772 118.89 112.862 119.701 113.043C120.422 113.223 121.143 113.493 121.684 113.764C122.044 113.944 122.225 114.124 122.405 114.485C122.585 114.755 122.585 115.116 122.585 115.386C122.585 115.747 122.405 116.017 122.225 116.197C122.044 116.468 121.774 116.558 121.413 116.648C121.053 116.738 120.692 116.648 120.242 116.468C119.791 116.287 119.34 116.107 118.89 116.017C118.349 115.927 117.898 115.837 117.357 115.837C116.816 115.837 116.366 115.927 116.005 116.017C115.645 116.107 115.374 116.287 115.194 116.558C115.014 116.828 114.924 117.009 114.924 117.369C114.924 117.639 115.014 117.91 115.284 118.09C115.555 118.27 116.005 118.451 116.636 118.631L119.07 119.172C120.422 119.442 121.504 119.983 122.134 120.614C122.856 121.335 123.126 122.146 123.126 123.318C123.126 124.039 122.946 124.76 122.675 125.301C122.405 125.932 121.954 126.383 121.413 126.833C120.873 127.284 120.151 127.554 119.43 127.825C118.619 128.095 117.808 128.185 116.816 128.185H116.997Z" fill="black"/>
<path fill-rule="evenodd" clip-rule="evenodd" d="M1.89276 46.6122C-1.53241 54.5442 -0.0902316 63.7381 3.69549 69.9575L4.14617 70.4983L4.59685 71.3095L5.04753 71.8503L6.39957 73.653C7.03052 73.653 6.85025 73.4728 6.85025 74.1938L8.65297 75.9966C9.37406 75.9966 9.19379 75.8163 9.19379 76.5374C12.3486 79.0612 13.5203 79.9626 17.937 81.4047C24.0663 83.3877 25.3282 82.5765 29.6547 82.4864C33.8911 100.604 54.2619 102.136 62.7347 90.4184L64.4472 87.9847C65.9796 93.5731 73.2806 96.9983 78.7789 97.8997C80.9422 98.2602 82.1139 97.8095 84.0068 97.5391C86.3503 97.1786 86.0799 97.449 88.0629 98.6207C98.699 105.111 114.653 101.325 121.684 89.9677C123.036 87.8044 124.929 84.1088 125.199 81.1343C131.238 82.5765 137.277 85.0102 145.57 80.0527C148.454 78.3401 150.257 76.5374 152.24 73.9234C153.592 72.1207 156.206 67.7942 155.575 64.7295C157.107 54.6343 152.33 46.6122 144.308 42.3758C140.612 40.3928 139.621 41.0237 136.015 39.852C134.844 36.8775 135.114 28.4948 125.83 25.2499C116.005 21.8248 111.048 28.8554 108.614 30.1173C107.082 22.8162 100.141 19.3911 92.6599 19.3009C92.0289 17.1377 91.3979 16.1462 90.136 14.3435L87.0714 9.83664C85.0884 8.39447 83.2857 6.2312 80.5816 4.69888C78.0578 3.25671 75.534 1.9948 72.199 1.18358C54.8027 -3.41337 34.9727 7.94379 34.0714 31.289C27.852 31.0186 22.6241 28.4948 13.2499 33.8129C4.77712 38.5901 3.15467 45.3503 1.71249 46.7925L1.89276 46.6122Z" fill="#96CFFF"/>
<path fill-rule="evenodd" clip-rule="evenodd" d="M74.3621 80.5034C73.641 75.9966 72.8298 71.3996 72.0186 66.8928C71.3876 63.4676 69.3145 57.1581 71.0271 54.7244C74.7227 49.4965 79.2295 45.3503 87.8826 43.3673L93.8315 67.7942C88.9642 69.4166 86.5305 70.4081 82.6547 73.1122C79.0492 75.636 77.3366 78.4302 74.3621 80.5935V80.5034ZM47.0509 50.5782C54.442 49.136 63.0951 52.471 66.6104 55.5357C68.8638 57.5187 69.0441 64.0085 69.7652 67.704C70.5764 72.1207 71.4778 76.6275 72.0186 81.0442C64.7176 77.7993 60.4812 74.6445 49.4846 75.4557C48.9437 71.0391 46.4199 53.3724 47.0509 50.488V50.5782ZM67.3315 84.7398C58.2278 83.9285 58.0475 81.4949 43.3553 83.1173C42.9046 81.4949 41.1019 62.8367 42.0934 61.3945C42.9046 64.1887 43.6257 74.7347 43.9863 78.8809C44.5271 84.7398 47.8621 78.3401 62.6444 82.8469L66.7006 84.3792C66.7907 84.4694 66.971 84.5595 66.971 84.5595C67.0611 84.6496 67.1512 84.7398 67.2414 84.7398H67.3315ZM96.1751 51.9302C97.1666 52.9217 101.944 70.2278 102.214 72.7517C97.5271 74.284 94.3724 75.0051 89.9557 76.9881C86.0798 78.7908 82.9251 81.3146 79.59 82.8469C82.2941 79.2415 91.0373 74.0136 96.9863 72.5714C101.403 71.4898 101.042 72.8418 98.5186 63.1071C97.9778 60.8537 95.5441 53.2823 96.0849 51.8401L96.1751 51.9302ZM82.6547 76.0867C83.9166 75.0051 85.0883 74.284 86.6206 73.3826C90.4965 71.1292 92.5696 71.0391 96.5356 69.5068C96.5356 64.369 90.6768 48.1445 91.488 45.7108C92.6598 47.3333 97.5271 66.8928 97.7975 70.0476C94.0118 71.0391 90.6768 72.3911 87.522 74.1037C84.2771 75.8163 82.204 77.8894 79.4098 79.4217L82.6547 76.0867ZM46.6903 78.9711C45.8791 76.1768 45.0679 64.369 44.6172 59.8622C44.4369 58.1496 43.7158 55.4455 44.5271 53.9132C46.1495 56.9778 45.8791 73.4727 47.5917 77.7091C47.6818 77.7091 47.8621 77.7993 47.8621 77.7993L48.8536 77.9796C53.9914 78.0697 57.3264 76.8979 65.1682 80.4132C65.4387 80.5034 66.0696 80.8639 66.34 80.954C67.1512 81.4949 66.7006 81.1343 67.1512 81.585C64.4472 81.2245 61.022 79.7823 57.5067 79.2415C54.0815 78.7006 50.3859 78.4302 46.7805 78.9711H46.6903ZM42.0934 58.8707C38.2175 59.5918 39.0288 59.6819 39.3893 63.9183C41.823 92.4013 37.857 84.7398 51.0169 85.0102C56.7856 85.1003 61.7431 85.7313 67.1512 87.3537C69.3145 87.9847 72.5594 89.6071 74.7227 89.0663C77.0662 88.5255 85.2686 81.0442 95.8145 77.0782C100.321 75.3656 104.828 75.9966 104.828 73.2925C104.918 71.3996 100.321 56.7074 99.3298 53.0118C97.9778 48.0544 98.8792 49.7669 95.0934 49.136L93.3809 42.7363L90.4064 43.0969C89.7754 40.6632 90.6768 39.5816 84.187 41.6547C73.4608 45.0799 70.4863 52.2908 68.1427 53.9132C64.5373 49.6768 53.2703 45.801 44.5271 48.4149V51.119C43.2652 51.3894 42.3638 51.5697 41.5526 52.1105L42.1835 58.6904L42.0934 58.8707Z" fill="#003399"/>
<path fill-rule="evenodd" clip-rule="evenodd" d="M62.2841 46.2517C63.1855 44.3588 59.9406 38.7703 58.9491 36.6071C56.6957 31.5595 56.0647 28.2244 53.7212 28.585C52.8198 30.6581 56.0647 35.9761 57.0562 38.2295C59.3096 43.2772 59.8504 46.5221 62.2841 46.1615V46.2517ZM50.6565 39.5816C49.2144 38.0493 46.8708 34.3537 44.4371 34.8945C43.9865 36.5169 44.978 37.3282 46.0596 38.3197C48.4031 40.5731 53.631 47.153 55.1633 45.8911C56.6957 44.6292 51.7382 40.6632 50.6565 39.4914V39.5816ZM78.2382 41.835C80.1311 42.1955 80.4015 40.8435 81.0324 39.3112C82.5647 35.4353 86.08 30.2074 84.9083 28.0442C82.8351 28.1343 83.0154 29.1258 82.2042 30.8384L78.8691 38.2295C78.6889 38.5901 78.0579 39.9421 78.0579 40.0323C77.5171 42.0153 78.3283 41.9251 78.3283 41.9251L78.2382 41.835ZM64.4474 34.6241C63.9065 36.5169 65.6191 45.801 66.6106 47.784C68.5936 47.4234 68.5936 47.2431 68.3232 45.2602C68.1429 43.818 67.7824 42.2857 67.512 40.8435C66.7008 36.3367 67.0613 34.0833 64.4474 34.7142V34.6241ZM63.3657 20.3826C60.5715 20.2924 61.9235 23.2669 62.3742 25.7907C62.7348 27.954 63.0052 30.6581 63.9065 32.2805C66.881 31.8299 65.3487 28.8554 64.3572 23.0867C63.9065 20.3826 63.6361 21.0135 63.546 20.653C63.546 20.4727 63.3657 20.4727 63.3657 20.3826ZM72.4695 44.6292C73.6412 43.7278 73.5511 43.818 73.6412 41.835C73.9117 38.8605 74.6327 33.903 73.3708 32.6411C71.6583 32.9115 71.8385 33.272 71.6582 34.9846C71.478 36.2465 71.478 37.5084 71.478 38.6802C71.1174 43.5476 70.4865 43.818 72.4695 44.5391V44.6292ZM72.5596 31.6496C75.2637 31.5595 74.5426 30.568 74.7229 27.8639C74.9032 25.5203 75.5341 24.7091 74.0018 23.5373C71.2977 24.0782 72.1991 30.7482 72.5596 31.6496ZM53.2705 24.1683C52.4593 22.5458 52.6395 21.8248 51.0171 21.2839C49.3946 22.4557 49.9354 22.7261 50.9269 24.7993C51.7382 26.602 51.5579 27.0527 53.0902 27.6836C54.8929 26.5118 54.262 26.1513 53.3606 24.1683H53.2705ZM60.5715 12.9013C60.211 14.5237 60.7518 17.4081 61.4729 19.1207C63.8164 19.0305 63.6361 18.4897 63.1855 15.9659C62.8249 13.7125 62.915 12.3605 60.5715 12.8111V12.9013ZM74.813 17.4081C73.1906 17.4982 73.1906 17.7686 72.9202 19.2108C72.7399 20.4727 72.5596 21.9149 73.5511 22.5458C75.6242 23.8078 75.8045 19.1207 74.813 17.4081ZM59.4899 57.6088C60.0307 59.3214 59.58 61.4847 58.228 60.7636C57.3266 60.2227 58.4984 59.4115 58.6786 59.2313C59.3096 58.6003 59.2195 58.0595 59.3997 57.6088H59.4899ZM55.2535 67.0731C54.7127 66.352 54.3521 65.3605 54.3521 64.2789C54.3521 63.2874 54.5324 62.4762 54.8929 61.7551C55.1633 61.2142 55.7943 60.2228 56.3351 59.9523C56.245 61.6649 57.6872 62.7466 59.3096 62.4762C61.0222 62.1156 61.3827 60.4932 61.4729 59.051C62.5545 59.4115 63.7263 60.2228 64.4474 61.4847C66.3402 64.9098 64.0868 69.1462 60.211 69.5068C58.3181 69.687 56.4252 68.6955 55.3436 67.1632L55.2535 67.0731ZM60.4814 71.0391C61.563 70.949 62.6446 70.4983 63.4559 70.0476C66.9712 67.7942 67.6923 63.3775 65.4389 60.1326C64.5375 58.8707 62.6446 57.5187 61.2025 57.3384C60.7518 55.7159 59.58 54.8146 58.4984 54.3639C57.7773 54.0935 56.8759 54.454 57.0562 55.4455C57.2365 56.1666 57.8674 55.8962 57.9576 57.4285C54.9831 58.2398 53.0902 60.6734 52.8198 63.3775C52.6395 65 53.0001 66.6224 53.8113 67.9745C55.2535 70.2279 57.7773 71.4898 60.4814 71.2194V71.0391Z" fill="#003399"/>
<path fill-rule="evenodd" clip-rule="evenodd" d="M57.9574 66.9829C58.8587 68.8758 62.1036 68.335 62.374 66.1717L57.9574 66.9829ZM56.5152 63.7381C56.5152 63.7381 56.2448 63.8282 56.1546 64.1887C56.0645 64.8197 56.7856 65.4506 57.4166 65C58.1376 64.4591 57.3264 63.1071 56.5152 63.7381ZM62.0135 62.7466C61.653 63.017 61.5628 63.4676 61.8332 63.8282C62.0135 64.0986 62.5543 64.2789 62.9149 64.0085C63.6359 63.4676 62.9149 62.1156 62.0135 62.7466ZM84.6377 60.1326C84.5475 60.1326 84.3673 60.2227 84.3673 60.2227C84.2771 60.2227 84.187 60.2227 84.0968 60.1326C83.8264 60.0425 83.7363 59.8622 83.6462 59.5918C83.4659 59.051 83.2856 58.5102 83.1955 58.0595C83.1053 57.7891 83.0152 56.8877 83.2856 56.7074C83.4659 56.6173 83.9166 57.068 84.0968 57.2482C84.4574 57.6989 85.1785 58.8707 85.1785 59.3214C85.1785 59.6819 84.9982 59.9523 84.7278 60.1326H84.6377ZM73.6411 57.6989L78.3281 68.7857C78.4183 69.0561 78.7788 69.0561 78.869 68.6955C78.9591 68.4251 78.9591 68.1547 79.0492 67.8843C79.0492 67.7942 79.0492 67.704 79.1394 67.6139L79.2295 67.2534C79.4098 66.8027 79.59 66.352 79.8604 65.9013C79.9506 65.8112 79.9506 65.721 80.0407 65.721C80.1309 65.6309 80.1309 65.5408 80.221 65.5408C80.8519 64.9098 82.0237 64.8197 82.7448 64.8197H83.1054C83.2856 64.8197 83.3758 64.9098 83.556 64.9098H83.6462C83.8264 65 83.7363 64.9098 83.9166 64.9098C84.0969 64.8197 84.0067 64.5493 84.0968 64.369C84.187 64.0085 84.2771 63.5578 84.4574 63.1972C84.7278 62.5663 85.1785 62.0255 85.7193 61.5748C85.9897 61.3044 86.5305 60.9438 86.8911 60.8537C86.9812 60.8537 86.9812 60.7636 87.0713 60.7636C87.1615 60.7636 87.2516 60.6734 87.3417 60.6734C87.6122 60.4931 87.4319 60.0425 87.0713 60.2227C86.8009 60.3129 86.4404 60.4931 86.17 60.6734C86.0798 60.7636 85.539 61.034 85.4489 61.2142L85.1785 60.4931C85.2686 60.403 85.3588 60.403 85.4489 60.2227C85.539 60.1326 85.6292 60.0425 85.6292 59.8622C85.7193 59.5918 85.7193 59.2312 85.6292 58.9608C85.3588 58.2397 84.9982 57.6088 84.5475 56.9778C84.3673 56.7074 84.187 56.5272 83.9166 56.3469C83.4659 55.9863 82.9251 56.0765 82.7448 56.5272C82.4744 57.1581 82.6547 58.2397 82.8349 58.8707C83.0152 59.4115 83.1955 60.1326 83.6462 60.4931C83.6462 60.4931 83.7363 60.4931 83.7363 60.5833C83.9166 60.6734 84.187 60.7636 84.4574 60.7636H84.7278L85.0883 61.6649C84.9081 61.7551 84.5475 62.2959 84.4574 62.4761C84.4574 62.5663 84.3673 62.5663 84.3673 62.6564C84.187 62.8367 84.0968 63.1071 84.0067 63.3775C83.9166 63.6479 83.6462 64.369 83.7363 64.5493C83.0152 64.369 82.3843 64.369 81.6632 64.5493C81.4829 64.5493 81.3026 64.6394 81.2125 64.6394C81.1224 64.6394 81.0322 64.7295 80.9421 64.7295H80.8519C80.5815 64.8197 80.5815 64.8197 80.3111 65.0901C79.7703 65.5408 79.4098 66.0816 79.1394 66.7125C78.9591 66.983 78.9591 67.1632 78.869 67.4336C78.869 67.5238 78.869 67.5238 78.7788 67.6139C78.7788 67.704 78.7788 67.704 78.6887 67.7942L74.4523 57.6989L85.0883 53.1921L89.5951 63.8282L79.6802 68.0646C79.3196 68.2449 79.59 68.6955 79.8604 68.6054L90.0458 64.2789C90.2261 64.1887 90.2261 64.0986 90.2261 63.9183L85.539 52.8316C85.4489 52.6513 85.3588 52.6513 85.1785 52.6513L74.0917 57.3384C73.9115 57.4285 73.9115 57.5187 73.9115 57.6989H73.6411Z" fill="#003399"/>
<path fill-rule="evenodd" clip-rule="evenodd" d="M74.3623 56.5272L83.9167 52.471C84.2773 52.2908 84.0068 52.1105 84.5477 51.6598C85.1786 51.2091 86.08 51.5697 86.2602 52.3809C86.3504 52.8316 86.1701 52.9217 86.08 53.102V53.3724L90.1361 62.9268C90.2262 63.017 90.2262 63.1071 90.3164 63.1071C90.4966 63.1972 90.6769 63.1972 90.9473 63.4677C91.1276 63.7381 91.2177 64.0986 91.1276 64.369L91.0375 64.5493C90.7671 65 90.2262 65.1802 89.7756 65C89.7756 65 89.6854 65 89.6854 64.9098C89.6854 64.9098 89.5953 64.9098 89.5953 64.8197H89.3249L79.7704 68.8758C79.5 68.966 79.5902 69.0561 79.5 69.2364C79.4099 69.4166 79.3198 69.5068 79.2296 69.5969C79.0494 69.687 78.8691 69.7772 78.6888 69.7772C78.4184 69.7772 78.148 69.687 77.9677 69.5969C77.6973 69.4166 77.6072 69.2364 77.517 68.8758C77.517 68.6955 77.517 68.5153 77.6072 68.335C77.6973 68.1547 77.7874 68.0646 77.6973 67.8843L73.6412 58.3299C73.4609 57.9693 73.1905 58.2398 72.83 57.6989C72.7398 57.5187 72.6497 57.3384 72.6497 57.1581V56.7976C72.7398 56.6173 72.83 56.437 73.0102 56.2568C73.3708 55.9864 73.7313 55.9864 74.182 56.0765C74.2721 56.0765 74.2721 56.0765 74.2721 56.1666H74.5426L74.3623 56.5272ZM72.83 55.9864L73.0102 55.8962C73.1905 55.8061 73.4609 55.8061 73.6412 55.8061C73.7313 55.8061 73.8215 55.8061 73.9116 55.8962C74.0017 55.8962 74.0919 55.9864 74.182 55.9864L83.6463 52.0204C83.7364 52.0204 83.7364 51.8401 83.7364 51.75C83.9167 51.3894 84.1871 51.2091 84.5477 51.0289C85.2687 50.7585 86.1701 51.119 86.5307 51.8401L86.6208 52.0204C86.7109 52.2006 86.7109 52.471 86.7109 52.6513C86.7109 52.7415 86.7109 52.8316 86.6208 52.9217C86.6208 53.0119 86.5307 53.102 86.5307 53.1921L90.4966 62.6564C90.4966 62.7466 90.6769 62.7466 90.767 62.7466C91.1276 62.9268 91.3079 63.1972 91.4881 63.5578C91.6684 63.9183 91.5783 64.4592 91.4881 64.7296C91.3079 65.0901 91.0375 65.3605 90.767 65.5408L90.5868 65.6309C90.3164 65.7211 89.9558 65.7211 89.5953 65.6309C89.5051 65.6309 89.415 65.5408 89.3249 65.5408L79.8606 69.5068C79.7704 69.5068 79.7704 69.7772 79.5902 70.0476C79.4099 70.2279 79.2296 70.4081 79.0494 70.4983L78.8691 70.5884C78.6888 70.6785 78.5085 70.6785 78.3283 70.6785C77.6973 70.6785 77.2466 70.318 76.9762 69.8673L76.8861 69.687C76.7959 69.4166 76.7959 69.0561 76.8861 68.7857C76.8861 68.6956 76.9762 68.6054 76.9762 68.5153L73.0102 59.051C73.0102 58.9608 72.83 58.9608 72.7398 58.9608C72.3793 58.7806 72.199 58.5102 72.0187 58.1496C71.7483 57.4285 72.1089 56.5272 72.83 56.1666V55.9864Z" fill="#003399"/>
<path fill-rule="evenodd" clip-rule="evenodd" d="M79.0493 60.2228C78.7789 60.3129 78.4183 60.3129 78.2381 60.1326C77.9677 59.9523 77.8775 59.5017 77.9677 59.2313C78.2381 58.6904 79.1394 58.5102 79.4098 59.2313C79.5901 59.5918 79.4098 60.0425 79.0493 60.2228ZM77.6071 57.6989L77.9677 58.42L77.6071 58.7806L77.4268 59.2313C77.4268 59.3214 77.3367 59.5918 77.4268 59.7721L76.7057 60.1326C76.4353 60.2228 76.6156 60.7636 76.9762 60.5833L77.6972 60.3129L78.0578 60.6734L77.7874 61.3044C77.7874 61.3945 77.6972 61.4847 77.7874 61.6649C77.8775 61.8452 77.9677 61.8452 78.1479 61.7551C78.2381 61.6649 78.3282 61.4847 78.4183 61.3044C78.5085 61.2143 78.5986 60.9438 78.5986 60.8537H79.0493C79.1394 61.034 79.3197 61.6649 79.4098 61.6649C79.5901 61.7551 79.8605 61.6649 79.8605 61.4847C79.8605 61.3044 79.5901 60.7636 79.5 60.5833L79.8605 60.2228C79.9506 60.2228 80.4013 60.403 80.5816 60.4932C80.6717 60.5833 80.7619 60.5833 80.852 60.4932C81.0323 60.403 81.1224 60.1326 80.7619 59.9523C80.5816 59.8622 80.1309 59.6819 80.0408 59.6819V59.2313C80.2211 59.1411 80.7619 58.9608 80.852 58.8707C81.0323 58.6904 80.852 58.5102 80.6717 58.42C80.5816 58.42 79.9507 58.6904 79.7704 58.7806C79.6802 58.6003 79.5 58.5102 79.4098 58.42C79.5 58.3299 79.5901 57.8792 79.6802 57.7891C79.7704 57.6989 79.7704 57.6088 79.6802 57.5187C79.5901 57.4285 79.5 57.3384 79.4098 57.3384C79.2296 57.4285 79.1394 57.6989 79.0493 57.8792C79.0493 57.9694 78.9592 58.1496 78.9592 58.2398H78.4183L78.1479 57.5187C77.9677 57.1581 77.517 57.3384 77.6071 57.6989ZM82.7449 17.1377C83.466 19.9319 85.2687 21.1037 88.153 20.9234C85.3588 21.6445 84.187 23.4472 84.3673 26.3316C83.6462 23.5373 81.8435 22.3656 78.9592 22.5458C81.7534 21.8248 82.9251 20.022 82.7449 17.1377ZM73.8214 5.41998C74.5425 8.2142 76.3452 9.38597 79.2296 9.2057C76.4353 9.92679 75.2636 11.7295 75.4438 14.6139C74.7228 11.8196 72.92 10.6479 70.0357 10.8282C72.8299 10.1071 74.0017 8.30434 73.8214 5.41998ZM54.0816 12.1802C54.8027 14.9744 56.6054 16.1462 59.4897 15.9659C56.6955 16.687 55.5238 18.4897 55.704 21.3741C54.9829 18.5799 53.1802 17.4081 50.2959 17.5884C53.0901 16.8673 54.2619 15.0645 54.0816 12.1802ZM40.9217 22.1853C41.6428 24.9795 43.4455 26.1513 46.3299 25.971C43.5357 26.6921 42.3639 28.4948 42.5442 31.3792C41.8231 28.585 40.0203 27.4132 37.136 27.5935C39.9302 26.8724 41.102 25.0697 40.9217 22.1853Z" fill="#003399"/>
</g>
<defs>
<clipPath id="clip0_3289_454">
<rect width="156.026" height="130" fill="white"/>
</clipPath>
</defs>
</svg>
