<svg width="156" height="130" viewBox="0 0 156 130" fill="none" xmlns="http://www.w3.org/2000/svg">
<path d="M44.334 128.076C43.7631 128.076 43.3826 127.981 43.002 127.696C42.7166 127.505 42.4312 127.125 42.1458 126.649L37.0084 115.328C36.8181 114.852 36.7229 114.376 36.8181 113.996C36.9132 113.615 37.1035 113.33 37.3889 113.045C37.6743 112.854 38.0549 112.759 38.5306 112.759C39.1014 112.759 39.5771 112.854 39.8625 113.14C40.1479 113.425 40.4333 113.806 40.6236 114.281L44.9999 124.366H43.7631L48.1395 114.281C48.3297 113.806 48.6151 113.425 48.9006 113.14C49.186 112.854 49.6617 112.759 50.1373 112.759C50.613 112.759 50.8984 112.854 51.279 113.045C51.5644 113.235 51.7547 113.615 51.8498 113.996C51.945 114.376 51.8498 114.852 51.6595 115.328L46.5221 126.649C46.3318 127.125 46.0464 127.505 45.761 127.696C45.4756 127.886 44.9999 128.076 44.4291 128.076H44.334ZM55.5602 128.076C54.8942 128.076 54.4185 127.886 54.1331 127.601C53.7526 127.22 53.6574 126.744 53.6574 126.078V114.662C53.6574 113.996 53.8477 113.52 54.1331 113.14C54.5137 112.759 54.9894 112.664 55.5602 112.664C56.2262 112.664 56.7018 112.854 56.9873 113.14C57.2727 113.52 57.4629 113.996 57.4629 114.662V126.078C57.4629 126.744 57.2727 127.22 56.9873 127.601C56.7018 127.981 56.131 128.076 55.5602 128.076ZM62.315 127.886C61.649 127.886 61.1733 127.696 60.7928 127.41C60.4122 127.03 60.3171 126.554 60.3171 125.888V114.947C60.3171 114.281 60.5073 113.806 60.7928 113.425C61.1733 113.044 61.649 112.949 62.315 112.949H66.501C69.0697 112.949 71.1628 113.615 72.5898 114.947C74.0169 116.279 74.6828 118.087 74.6828 120.465C74.6828 121.702 74.4926 122.749 74.112 123.605C73.7315 124.556 73.2558 125.317 72.4947 125.983C71.8287 126.649 70.9725 127.125 69.926 127.41C68.8795 127.696 67.7378 127.886 66.4059 127.886H62.2198H62.315ZM64.2177 124.746H66.2156C66.9767 124.746 67.6427 124.651 68.1183 124.461C68.6892 124.271 69.1649 123.985 69.4503 123.605C69.8308 123.224 70.1162 122.844 70.2114 122.273C70.4017 121.702 70.4968 121.131 70.4968 120.37C70.4968 118.848 70.1162 117.801 69.4503 117.135C68.6892 116.469 67.6427 116.089 66.1205 116.089H64.1226V124.746H64.2177ZM79.0592 127.886C78.3932 127.886 77.9175 127.696 77.537 127.41C77.1564 127.03 77.0613 126.554 77.0613 125.888V114.947C77.0613 114.281 77.2516 113.806 77.537 113.425C77.9175 113.044 78.3932 112.949 79.0592 112.949H86.2896C86.7653 112.949 87.1459 113.044 87.4313 113.33C87.7167 113.615 87.8118 113.996 87.8118 114.472C87.8118 114.947 87.7167 115.328 87.4313 115.613C87.1459 115.899 86.7653 115.994 86.2896 115.994H80.7716V118.848H85.8139C86.2896 118.848 86.6702 118.943 86.9556 119.228C87.241 119.514 87.3361 119.894 87.3361 120.37C87.3361 120.846 87.241 121.226 86.9556 121.512C86.6702 121.797 86.2896 121.892 85.8139 121.892H80.7716V124.937H86.2896C86.7653 124.937 87.1459 125.032 87.4313 125.317C87.7167 125.603 87.8118 125.983 87.8118 126.459C87.8118 126.935 87.7167 127.315 87.4313 127.601C87.1459 127.886 86.7653 127.981 86.2896 127.981H79.0592V127.886ZM97.3256 128.076C95.8034 128.076 94.4715 127.791 93.3298 127.125C92.1882 126.459 91.3319 125.603 90.666 124.366C90 123.224 89.7146 121.892 89.7146 120.275C89.7146 119.133 89.9049 118.087 90.2854 117.135C90.666 116.184 91.1416 115.328 91.8076 114.662C92.4736 113.996 93.3298 113.425 94.186 113.14C95.1374 112.759 96.1839 112.569 97.3256 112.569C98.8478 112.569 100.18 112.854 101.321 113.52C102.463 114.186 103.319 115.042 103.985 116.184C104.651 117.326 104.937 118.658 104.937 120.275C104.937 121.417 104.746 122.463 104.366 123.414C103.985 124.366 103.51 125.222 102.844 125.888C102.178 126.554 101.321 127.125 100.465 127.505C99.5138 127.886 98.4672 128.076 97.3256 128.076ZM97.3256 124.842C98.0867 124.842 98.7527 124.651 99.2283 124.271C99.7992 123.89 100.18 123.414 100.465 122.749C100.751 122.083 100.846 121.321 100.846 120.37C100.846 118.943 100.56 117.897 99.8943 117.135C99.2283 116.374 98.3721 115.994 97.2305 115.994C96.4694 115.994 95.8985 116.184 95.3277 116.469C94.7569 116.85 94.3763 117.326 94.0909 117.992C93.8055 118.658 93.7104 119.419 93.7104 120.37C93.7104 121.797 93.9958 122.844 94.6617 123.7C95.3277 124.461 96.1839 124.842 97.3256 124.842ZM112.833 128.076C112.262 128.076 111.691 128.076 111.025 127.981C110.455 127.886 109.789 127.791 109.313 127.601C108.742 127.41 108.266 127.22 107.791 127.03C107.41 126.839 107.125 126.649 107.03 126.269C106.839 125.983 106.839 125.603 106.839 125.317C106.839 124.937 107.03 124.651 107.22 124.366C107.41 124.08 107.696 123.89 107.981 123.795C108.266 123.7 108.647 123.795 109.123 123.89C109.693 124.176 110.264 124.366 110.93 124.461C111.596 124.556 112.262 124.651 112.833 124.651C113.784 124.651 114.45 124.556 114.831 124.271C115.211 123.985 115.402 123.7 115.402 123.319C115.402 123.034 115.307 122.749 115.021 122.558C114.736 122.368 114.26 122.178 113.594 122.083L111.121 121.512C109.789 121.226 108.742 120.751 108.076 119.99C107.41 119.324 107.03 118.372 107.03 117.231C107.03 116.469 107.22 115.803 107.505 115.233C107.791 114.662 108.266 114.091 108.837 113.71C109.408 113.33 110.074 112.949 110.835 112.759C111.596 112.569 112.452 112.379 113.404 112.379C114.165 112.379 114.926 112.474 115.687 112.664C116.448 112.854 117.114 113.044 117.685 113.425C117.97 113.615 118.256 113.806 118.351 114.091C118.446 114.376 118.541 114.662 118.541 115.042C118.541 115.328 118.446 115.613 118.256 115.899C118.066 116.184 117.78 116.279 117.495 116.374C117.209 116.469 116.829 116.374 116.353 116.184C115.973 115.994 115.497 115.899 114.926 115.803C114.45 115.708 113.88 115.708 113.404 115.708C112.833 115.708 112.452 115.803 112.072 115.899C111.691 115.994 111.406 116.184 111.216 116.374C111.025 116.565 110.93 116.85 110.93 117.135C110.93 117.421 111.025 117.706 111.311 117.897C111.596 118.087 111.977 118.277 112.643 118.372L115.116 118.943C116.448 119.228 117.495 119.704 118.161 120.37C118.827 121.036 119.207 121.892 119.207 123.034C119.207 123.795 119.017 124.461 118.732 125.032C118.446 125.603 117.97 126.173 117.495 126.554C116.924 126.935 116.258 127.315 115.497 127.505C114.736 127.696 113.88 127.886 112.833 127.886V128.076Z" stroke="white" stroke-width="1.87126" stroke-miterlimit="2.61313" stroke-linecap="round" stroke-linejoin="round"/>
<path d="M44.334 128.076C43.7631 128.076 43.3826 127.981 43.002 127.696C42.7166 127.505 42.4312 127.125 42.1458 126.649L37.0084 115.328C36.8181 114.852 36.7229 114.376 36.8181 113.996C36.9132 113.615 37.1035 113.33 37.3889 113.045C37.6743 112.854 38.0549 112.759 38.5306 112.759C39.1014 112.759 39.5771 112.854 39.8625 113.14C40.1479 113.425 40.4333 113.806 40.6236 114.281L44.9999 124.366H43.7631L48.1395 114.281C48.3297 113.806 48.6151 113.425 48.9006 113.14C49.186 112.854 49.6617 112.759 50.1373 112.759C50.613 112.759 50.8984 112.854 51.279 113.045C51.5644 113.235 51.7547 113.615 51.8498 113.996C51.945 114.376 51.8498 114.852 51.6595 115.328L46.5221 126.649C46.3318 127.125 46.0464 127.505 45.761 127.696C45.4756 127.886 44.9999 128.076 44.4291 128.076H44.334ZM55.5602 128.076C54.8942 128.076 54.4185 127.886 54.1331 127.601C53.7526 127.22 53.6574 126.744 53.6574 126.078V114.662C53.6574 113.996 53.8477 113.52 54.1331 113.14C54.5137 112.759 54.9894 112.664 55.5602 112.664C56.2262 112.664 56.7018 112.854 56.9873 113.14C57.2727 113.52 57.4629 113.996 57.4629 114.662V126.078C57.4629 126.744 57.2727 127.22 56.9873 127.601C56.7018 127.981 56.131 128.076 55.5602 128.076ZM62.315 127.886C61.649 127.886 61.1733 127.696 60.7928 127.41C60.4122 127.03 60.3171 126.554 60.3171 125.888V114.947C60.3171 114.281 60.5073 113.806 60.7928 113.425C61.1733 113.044 61.649 112.949 62.315 112.949H66.501C69.0697 112.949 71.1628 113.615 72.5898 114.947C74.0169 116.279 74.6828 118.087 74.6828 120.465C74.6828 121.702 74.4926 122.749 74.112 123.605C73.7315 124.556 73.2558 125.317 72.4947 125.983C71.8287 126.649 70.9725 127.125 69.926 127.41C68.8795 127.696 67.7378 127.886 66.4059 127.886H62.2198H62.315ZM64.2177 124.746H66.2156C66.9767 124.746 67.6427 124.651 68.1183 124.461C68.6892 124.271 69.1649 123.985 69.4503 123.605C69.8308 123.224 70.1162 122.844 70.2114 122.273C70.4017 121.702 70.4968 121.131 70.4968 120.37C70.4968 118.848 70.1162 117.801 69.4503 117.135C68.6892 116.469 67.6427 116.089 66.1205 116.089H64.1226V124.746H64.2177ZM79.0592 127.886C78.3932 127.886 77.9175 127.696 77.537 127.41C77.1564 127.03 77.0613 126.554 77.0613 125.888V114.947C77.0613 114.281 77.2516 113.806 77.537 113.425C77.9175 113.044 78.3932 112.949 79.0592 112.949H86.2896C86.7653 112.949 87.1459 113.044 87.4313 113.33C87.7167 113.615 87.8118 113.996 87.8118 114.472C87.8118 114.947 87.7167 115.328 87.4313 115.613C87.1459 115.899 86.7653 115.994 86.2896 115.994H80.7716V118.848H85.8139C86.2896 118.848 86.6702 118.943 86.9556 119.228C87.241 119.514 87.3361 119.894 87.3361 120.37C87.3361 120.846 87.241 121.226 86.9556 121.512C86.6702 121.797 86.2896 121.892 85.8139 121.892H80.7716V124.937H86.2896C86.7653 124.937 87.1459 125.032 87.4313 125.317C87.7167 125.603 87.8118 125.983 87.8118 126.459C87.8118 126.935 87.7167 127.315 87.4313 127.601C87.1459 127.886 86.7653 127.981 86.2896 127.981H79.0592V127.886ZM97.3256 128.076C95.8034 128.076 94.4715 127.791 93.3298 127.125C92.1882 126.459 91.3319 125.603 90.666 124.366C90 123.224 89.7146 121.892 89.7146 120.275C89.7146 119.133 89.9049 118.087 90.2854 117.135C90.666 116.184 91.1416 115.328 91.8076 114.662C92.4736 113.996 93.3298 113.425 94.186 113.14C95.1374 112.759 96.1839 112.569 97.3256 112.569C98.8478 112.569 100.18 112.854 101.321 113.52C102.463 114.186 103.319 115.042 103.985 116.184C104.651 117.326 104.937 118.658 104.937 120.275C104.937 121.417 104.746 122.463 104.366 123.414C103.985 124.366 103.51 125.222 102.844 125.888C102.178 126.554 101.321 127.125 100.465 127.505C99.5138 127.886 98.4672 128.076 97.3256 128.076ZM97.3256 124.842C98.0867 124.842 98.7527 124.651 99.2283 124.271C99.7992 123.89 100.18 123.414 100.465 122.749C100.751 122.083 100.846 121.321 100.846 120.37C100.846 118.943 100.56 117.897 99.8943 117.135C99.2283 116.374 98.3721 115.994 97.2305 115.994C96.4694 115.994 95.8985 116.184 95.3277 116.469C94.7569 116.85 94.3763 117.326 94.0909 117.992C93.8055 118.658 93.7104 119.419 93.7104 120.37C93.7104 121.797 93.9958 122.844 94.6617 123.7C95.3277 124.461 96.1839 124.842 97.3256 124.842ZM112.833 128.076C112.262 128.076 111.691 128.076 111.025 127.981C110.455 127.886 109.789 127.791 109.313 127.601C108.742 127.41 108.266 127.22 107.791 127.03C107.41 126.839 107.125 126.649 107.03 126.269C106.839 125.983 106.839 125.603 106.839 125.317C106.839 124.937 107.03 124.651 107.22 124.366C107.41 124.08 107.696 123.89 107.981 123.795C108.266 123.7 108.647 123.795 109.123 123.89C109.693 124.176 110.264 124.366 110.93 124.461C111.596 124.556 112.262 124.651 112.833 124.651C113.784 124.651 114.45 124.556 114.831 124.271C115.211 123.985 115.402 123.7 115.402 123.319C115.402 123.034 115.307 122.749 115.021 122.558C114.736 122.368 114.26 122.178 113.594 122.083L111.121 121.512C109.789 121.226 108.742 120.751 108.076 119.99C107.41 119.324 107.03 118.372 107.03 117.231C107.03 116.469 107.22 115.803 107.505 115.233C107.791 114.662 108.266 114.091 108.837 113.71C109.408 113.33 110.074 112.949 110.835 112.759C111.596 112.569 112.452 112.379 113.404 112.379C114.165 112.379 114.926 112.474 115.687 112.664C116.448 112.854 117.114 113.044 117.685 113.425C117.97 113.615 118.256 113.806 118.351 114.091C118.446 114.376 118.541 114.662 118.541 115.042C118.541 115.328 118.446 115.613 118.256 115.899C118.066 116.184 117.78 116.279 117.495 116.374C117.209 116.469 116.829 116.374 116.353 116.184C115.973 115.994 115.497 115.899 114.926 115.803C114.45 115.708 113.88 115.708 113.404 115.708C112.833 115.708 112.452 115.803 112.072 115.899C111.691 115.994 111.406 116.184 111.216 116.374C111.025 116.565 110.93 116.85 110.93 117.135C110.93 117.421 111.025 117.706 111.311 117.897C111.596 118.087 111.977 118.277 112.643 118.372L115.116 118.943C116.448 119.228 117.495 119.704 118.161 120.37C118.827 121.036 119.207 121.892 119.207 123.034C119.207 123.795 119.017 124.461 118.732 125.032C118.446 125.603 117.97 126.173 117.495 126.554C116.924 126.935 116.258 127.315 115.497 127.505C114.736 127.696 113.88 127.886 112.833 127.886V128.076Z" fill="black"/>
<path fill-rule="evenodd" clip-rule="evenodd" d="M1.90265 46.6385C-1.5223 54.63 -0.0952397 63.7632 3.71026 70.0423L4.18595 70.6131L4.66164 71.4694L5.13733 72.0402L6.46925 73.8478C7.13522 73.8478 6.94494 73.6575 6.94494 74.3235L8.75255 76.1311C9.51366 76.1311 9.32338 75.9408 9.32338 76.6068C12.4629 79.0804 13.6046 80.0317 18.076 81.4588C24.1648 83.4567 25.4968 82.6005 29.778 82.5053C33.964 100.581 54.3235 102.104 62.7907 90.4017L64.5032 88.0233C66.0254 93.6364 73.351 96.9662 78.8689 97.9176C81.0571 98.2982 82.1988 97.8225 84.1015 97.5371C86.48 97.1565 86.0994 97.4419 88.1924 98.6787C98.8478 105.148 114.831 101.343 121.776 90.0212C123.108 87.833 125.011 84.2178 125.296 81.1734C131.29 82.6005 137.379 85.074 145.656 80.0317C148.51 78.3193 150.412 76.5117 152.315 73.8478C153.647 72.0402 156.311 67.759 155.645 64.6195C157.167 54.5349 152.41 46.4482 144.419 42.2621C140.708 40.2642 139.757 40.8351 136.047 39.6934C134.905 36.7441 135.19 28.372 125.867 25.1374C116.068 21.7124 111.121 28.7526 108.647 29.9894C107.125 22.6638 100.18 19.2388 92.6639 19.1437C91.9979 17.0507 91.4271 16.0041 90.1903 14.1965L87.0508 9.72507C85.0529 8.20287 83.3404 6.10984 80.5814 4.58764C78.1079 3.16057 75.5391 1.92379 72.2093 1.06755C54.7991 -3.49906 35.0105 7.82232 34.0592 31.2262C27.7801 30.9408 22.6426 28.372 13.224 33.6997C4.75678 38.4566 3.0443 45.2114 1.71237 46.7336L1.90265 46.6385Z" fill="#96CFFF"/>
<path fill-rule="evenodd" clip-rule="evenodd" d="M89.8098 71.8499C89.5244 69.6617 91.0466 69.0909 92.9493 69.0909C94.9472 69.0909 96.9451 68.9006 97.2305 70.9937C97.8014 74.9894 91.2369 73.6575 91.2369 73.6575C90.5709 73.4672 90.0001 72.7061 89.8098 71.8499ZM78.869 71.8499C78.7738 70.8985 79.0593 70.1374 79.6301 69.6617C80.296 68.9958 80.962 69.0909 82.0085 69.0909C84.1015 69.0909 85.9092 68.9006 86.2897 70.9937C86.6703 73.277 85.1481 73.7527 83.055 73.7527C81.0571 73.7527 79.1544 73.8478 78.869 71.8499ZM45.3806 71.8499C45 69.4715 46.9028 69.0909 48.5201 69.0909C50.6131 69.0909 52.4207 68.9006 52.7061 70.9937C52.8964 71.945 52.5159 72.7061 51.945 73.1818C51.2791 73.8478 50.6131 73.7527 49.5666 73.7527C47.4736 73.7527 45.666 73.9429 45.2854 71.8499H45.3806ZM67.5476 71.6596C67.3573 69.4715 68.8795 69.0909 70.8774 69.0909C72.9704 69.0909 74.7781 68.9958 74.9683 71.1839C75.1586 73.5624 73.351 73.8478 71.5434 73.7527C69.5455 73.7527 67.7379 73.7527 67.5476 71.6596ZM64.0275 72.0402C63.4567 74.0381 61.8394 73.7527 59.7463 73.7527C57.7484 73.7527 56.1311 72.9916 56.7971 70.7082C57.2727 68.8055 59.0804 69.0909 61.1734 69.0909C62.2199 69.0909 62.8859 69.0909 63.4567 69.7569C64.0275 70.3277 64.3129 71.1839 64.0275 72.0402ZM44.5243 33.7949H98.8479C99.2284 33.9851 99.0381 33.6997 99.1333 34.4608V50.3488C99.1333 52.7272 99.4187 65.9514 99.0381 66.9979C95.7083 67.3784 44.7146 67.093 44.334 66.9027C44.0486 65.666 44.1438 35.5073 44.2389 34.1754C44.334 32.9386 44.2389 33.89 44.5243 33.6046V33.7949ZM46.6173 27.6109C47.5687 27.0401 51.2791 27.2304 51.945 27.8963C53.0867 28.9429 52.8964 31.2262 51.4694 31.8921C50.4228 32.3678 46.9028 32.1775 46.1417 31.6067C44.7146 30.5602 45.0951 28.372 46.6173 27.6109ZM94.8521 27.3255C96.5646 27.3255 97.6111 28.9429 97.0403 30.6553C96.3743 32.2727 94.8521 32.0824 92.9493 32.0824C91.0466 32.0824 89.7147 31.7018 89.8098 29.6088C89.9049 27.0401 92.5688 27.4207 94.9472 27.4207L94.8521 27.3255ZM68.499 31.7018L68.0233 31.3213C67.7379 30.5602 67.3573 30.1796 67.5476 29.1331C67.7379 28.372 68.2136 27.7061 68.7844 27.5158C69.8309 27.0401 73.351 27.1352 74.1121 27.8012C75.2537 28.7526 75.2537 30.9407 73.7315 31.797C72.5899 32.3678 69.5455 32.0824 68.499 31.797V31.7018ZM59.1755 31.9873C57.463 31.9873 56.3214 30.9407 56.7019 29.038C57.0825 27.2304 58.6998 27.3255 60.6026 27.3255C62.6005 27.3255 63.9324 27.5158 64.1227 29.4185C64.4081 32.4629 61.2685 31.9873 59.1755 31.9873ZM80.1058 27.6109C81.1523 27.1352 84.6724 27.1352 85.4335 27.8963C86.7654 29.038 86.3848 31.3213 84.9578 31.8921C83.8161 32.3678 80.4863 32.2727 79.6301 31.6067C78.5836 30.7505 78.2982 28.5623 80.0106 27.7061L80.1058 27.6109ZM39.2917 29.704V69.2812C39.2917 76.4165 40.8139 76.2262 47.093 76.2262H98.8479C101.512 76.2262 103.034 75.8457 103.89 73.7527C104.651 72.0402 104.271 62.0507 104.271 59.3869V29.704C104.271 28.0866 103.795 26.8498 102.939 25.9936C101.797 24.8519 100.655 24.9471 98.7527 24.9471H43.5729C40.8139 24.9471 39.2917 26.7547 39.2917 29.6088V29.704Z" fill="#003399"/>
<path fill-rule="evenodd" clip-rule="evenodd" d="M64.6934 63.6681L74.6829 56.6279C76.3953 55.4863 78.0127 54.2495 79.7251 53.0127C80.5814 52.4419 81.3425 51.871 82.1987 51.2051C82.8647 50.7294 84.2917 49.8731 84.6723 49.112C83.055 48.5412 65.8351 37.6004 64.5983 37.2198V63.573L64.6934 63.6681ZM61.7441 63.7632H63.5518V37.315L61.7441 37.2198V63.7632Z" fill="#003399"/>
<path d="M41.0993 85.74C40.0528 85.74 39.1965 84.8838 39.1965 83.8373C39.1965 82.7908 40.0528 81.9345 41.0993 81.9345H102.653C103.7 81.9345 104.556 82.7908 104.556 83.8373C104.556 84.8838 103.7 85.74 102.653 85.74H41.0993Z" fill="#5979BC"/>
<path d="M41.0993 85.74C40.0528 85.74 39.1965 84.8838 39.1965 83.8373C39.1965 82.7908 40.0528 81.9345 41.0993 81.9345H81.8182C82.8647 81.9345 83.7209 82.7908 83.7209 83.8373C83.7209 84.8838 82.8647 85.74 81.8182 85.74H41.0993Z" fill="#003399"/>
<path fill-rule="evenodd" clip-rule="evenodd" d="M82.5793 79.556C85.0529 79.556 87.1459 81.5539 87.1459 84.1226C87.1459 86.5962 85.148 88.6892 82.5793 88.6892C80.1057 88.6892 78.0127 86.6914 78.0127 84.1226C78.0127 81.6491 80.0106 79.556 82.5793 79.556Z" fill="#003399"/>
</svg>
