<svg width="147" height="130" viewBox="0 0 147 130" fill="none" xmlns="http://www.w3.org/2000/svg">
<mask id="mask0_3289_536" style="mask-type:luminance" maskUnits="userSpaceOnUse" x="9" y="14" width="129" height="116">
<path fill-rule="evenodd" clip-rule="evenodd" d="M9.30957 14.0648H137.588V129.184H9.30957V14.0648Z" fill="url(#paint0_linear_3289_536)"/>
</mask>
<g mask="url(#mask0_3289_536)">
<path fill-rule="evenodd" clip-rule="evenodd" d="M23.0951 14.6914H123.802C130.963 14.6914 136.872 20.5995 136.872 27.7609V115.309C136.872 122.47 130.963 128.378 123.802 128.378H23.0951C15.9338 128.378 10.0256 122.47 10.0256 115.309V27.7609C10.0256 20.5995 15.9338 14.6914 23.0951 14.6914Z" fill="white"/>
</g>
<mask id="mask1_3289_536" style="mask-type:luminance" maskUnits="userSpaceOnUse" x="8" y="13" width="131" height="117">
<path fill-rule="evenodd" clip-rule="evenodd" d="M8.146 13.1696H138.662V129.99H8.146V13.1696Z" fill="url(#paint1_linear_3289_536)"/>
</mask>
<g mask="url(#mask1_3289_536)">
<path d="M24.6172 13.1696H122.281C126.756 13.1696 130.874 14.7809 133.918 17.3769L134.007 17.4664C136.961 20.0624 138.752 23.5536 138.752 27.4028V115.846C138.752 119.785 136.872 123.276 133.918 125.872C130.964 128.468 126.846 130.079 122.281 130.079H24.6172C20.1414 130.079 16.0236 128.468 13.0695 125.872C10.1155 123.276 8.2356 119.785 8.2356 115.846V27.4028C8.2356 23.464 10.1155 19.9729 13.0695 17.3769C16.0236 14.7809 20.1414 13.1696 24.7068 13.1696H24.6172ZM122.281 16.3027H24.6172C21.1261 16.3027 17.9035 17.5559 15.576 19.5253C13.2486 21.4947 11.8163 24.2697 11.8163 27.3133V115.756C11.8163 118.8 13.2486 121.575 15.576 123.544C17.9035 125.514 21.1261 126.767 24.6172 126.767H122.281C125.772 126.767 128.994 125.514 131.322 123.544C133.649 121.575 135.081 118.8 135.081 115.756V27.3133C135.081 24.2697 133.649 21.5842 131.411 19.5253L131.322 19.4358C128.994 17.4664 125.772 16.2131 122.281 16.2131V16.3027Z" fill="white"/>
</g>
<path d="M41.7149 120.501C41.1778 120.501 40.8197 120.411 40.4616 120.143C40.1931 119.964 39.9245 119.606 39.656 119.158L34.8221 108.505C34.643 108.058 34.5535 107.61 34.643 107.252C34.7325 106.894 34.9116 106.626 35.1801 106.357C35.4487 106.178 35.8068 106.088 36.2543 106.088C36.7914 106.088 37.239 106.178 37.5076 106.446C37.7761 106.715 38.0447 107.073 38.2237 107.521L42.3415 117.01H41.1778L45.2956 107.521C45.4746 107.073 45.7432 106.715 46.0117 106.446C46.2803 106.178 46.7279 106.088 47.1754 106.088C47.623 106.088 47.8916 106.178 48.2496 106.357C48.5182 106.536 48.6972 106.894 48.7867 107.252C48.8763 107.61 48.7867 108.058 48.6077 108.505L43.7738 119.158C43.5948 119.606 43.3262 119.964 43.0576 120.143C42.7891 120.322 42.3415 120.501 41.8044 120.501H41.7149ZM52.2779 120.501C51.6513 120.501 51.2037 120.322 50.9352 120.053C50.5771 119.695 50.4876 119.247 50.4876 118.621V107.879C50.4876 107.252 50.6666 106.805 50.9352 106.446C51.2932 106.088 51.7408 105.999 52.2779 105.999C52.9045 105.999 53.3521 106.178 53.6207 106.446C53.8892 106.805 54.0683 107.252 54.0683 107.879V118.621C54.0683 119.247 53.8892 119.695 53.6207 120.053C53.3521 120.411 52.815 120.501 52.2779 120.501ZM58.6336 120.322C58.007 120.322 57.5594 120.143 57.2014 119.874C56.8433 119.516 56.7538 119.068 56.7538 118.442V108.147C56.7538 107.521 56.9328 107.073 57.2014 106.715C57.5594 106.357 58.007 106.267 58.6336 106.267H62.5724C64.9894 106.267 66.9587 106.894 68.3015 108.147C69.6443 109.401 70.2709 111.101 70.2709 113.339C70.2709 114.503 70.0918 115.488 69.7338 116.293C69.3757 117.189 68.9281 117.905 68.212 118.531C67.5854 119.158 66.7797 119.606 65.795 119.874C64.8103 120.143 63.7361 120.322 62.4829 120.322H58.5441H58.6336ZM60.424 117.368H62.3039C63.02 117.368 63.6466 117.278 64.0942 117.099C64.6313 116.92 65.0789 116.651 65.3474 116.293C65.7055 115.935 65.9741 115.577 66.0636 115.04C66.2426 114.503 66.3321 113.966 66.3321 113.25C66.3321 111.818 65.9741 110.833 65.3474 110.206C64.6313 109.58 63.6466 109.222 62.2143 109.222H60.3345V117.368H60.424ZM74.3887 120.322C73.7621 120.322 73.3145 120.143 72.9564 119.874C72.5983 119.516 72.5088 119.068 72.5088 118.442V108.147C72.5088 107.521 72.6878 107.073 72.9564 106.715C73.3145 106.357 73.7621 106.267 74.3887 106.267H81.192C81.6396 106.267 81.9976 106.357 82.2662 106.626C82.5347 106.894 82.6243 107.252 82.6243 107.7C82.6243 108.147 82.5347 108.505 82.2662 108.774C81.9976 109.042 81.6396 109.132 81.192 109.132H76V111.818H80.7444C81.192 111.818 81.5501 111.907 81.8186 112.176C82.0872 112.444 82.1767 112.802 82.1767 113.25C82.1767 113.697 82.0872 114.055 81.8186 114.324C81.5501 114.593 81.192 114.682 80.7444 114.682H76V117.547H81.192C81.6396 117.547 81.9976 117.636 82.2662 117.905C82.5347 118.173 82.6243 118.531 82.6243 118.979C82.6243 119.426 82.5347 119.785 82.2662 120.053C81.9976 120.322 81.6396 120.411 81.192 120.411H74.3887V120.322ZM91.576 120.501C90.1437 120.501 88.8905 120.232 87.8163 119.606C86.7421 118.979 85.9364 118.173 85.3098 117.01C84.6832 115.935 84.4146 114.682 84.4146 113.16C84.4146 112.086 84.5936 111.101 84.9517 110.206C85.3098 109.311 85.7574 108.505 86.384 107.879C87.0106 107.252 87.8163 106.715 88.6219 106.446C89.5171 106.088 90.5018 105.909 91.576 105.909C93.0083 105.909 94.2615 106.178 95.3357 106.805C96.4099 107.431 97.2156 108.237 97.8422 109.311C98.4688 110.385 98.7374 111.638 98.7374 113.16C98.7374 114.234 98.5583 115.219 98.2003 116.114C97.8422 117.01 97.3946 117.815 96.768 118.442C96.1414 119.068 95.3357 119.606 94.5301 119.964C93.6349 120.322 92.6502 120.501 91.576 120.501ZM91.576 117.457C92.2921 117.457 92.9187 117.278 93.3663 116.92C93.9034 116.562 94.2615 116.114 94.5301 115.488C94.7986 114.861 94.8881 114.145 94.8881 113.25C94.8881 111.907 94.6196 110.922 93.9929 110.206C93.3663 109.49 92.5607 109.132 91.4865 109.132C90.7703 109.132 90.2332 109.311 89.6961 109.58C89.159 109.938 88.801 110.385 88.5324 111.012C88.2638 111.638 88.1743 112.355 88.1743 113.25C88.1743 114.593 88.4429 115.577 89.0695 116.383C89.6961 117.099 90.5018 117.457 91.576 117.457ZM106.167 120.501C105.63 120.501 105.093 120.501 104.466 120.411C103.929 120.322 103.303 120.232 102.855 120.053C102.318 119.874 101.87 119.695 101.423 119.516C101.065 119.337 100.796 119.068 100.707 118.8C100.528 118.531 100.528 118.173 100.528 117.905C100.528 117.547 100.707 117.278 100.886 117.01C101.065 116.741 101.333 116.562 101.602 116.472C101.87 116.383 102.229 116.472 102.676 116.562C103.213 116.83 103.75 117.01 104.377 117.099C105.004 117.189 105.63 117.278 106.167 117.278C107.062 117.278 107.689 117.189 108.047 116.92C108.405 116.651 108.584 116.383 108.584 116.025C108.584 115.756 108.495 115.488 108.226 115.309C107.958 115.13 107.51 114.951 106.883 114.861L104.556 114.324C103.303 114.055 102.318 113.608 101.691 112.892C101.065 112.265 100.707 111.37 100.707 110.296C100.707 109.58 100.886 108.953 101.154 108.416C101.423 107.879 101.87 107.342 102.408 106.984C102.945 106.626 103.571 106.267 104.287 106.088C105.004 105.909 105.809 105.73 106.704 105.73C107.421 105.73 108.137 105.82 108.853 105.999C109.569 106.178 110.196 106.357 110.733 106.715C111.001 106.894 111.27 107.073 111.359 107.342C111.449 107.61 111.538 107.879 111.538 108.237C111.538 108.505 111.449 108.774 111.27 109.042C111.091 109.311 110.822 109.401 110.554 109.49C110.285 109.58 109.927 109.49 109.479 109.311C109.121 109.132 108.674 109.042 108.137 108.953C107.689 108.863 107.152 108.863 106.704 108.863C106.167 108.863 105.809 108.953 105.451 109.042C105.093 109.132 104.825 109.311 104.645 109.49C104.466 109.669 104.377 109.938 104.377 110.206C104.377 110.475 104.466 110.743 104.735 110.922C105.004 111.101 105.362 111.28 105.988 111.37L108.316 111.907C109.569 112.176 110.554 112.623 111.18 113.25C111.807 113.876 112.165 114.682 112.165 115.756C112.165 116.472 111.986 117.099 111.717 117.636C111.449 118.173 111.001 118.71 110.554 119.068C110.017 119.426 109.39 119.785 108.674 119.964C107.958 120.143 107.152 120.322 106.167 120.322V120.501Z" stroke="black" stroke-width="1.87127" stroke-miterlimit="2.61313" stroke-linecap="round" stroke-linejoin="round"/>
<path d="M41.7149 120.501C41.1778 120.501 40.8197 120.411 40.4616 120.143C40.1931 119.964 39.9245 119.606 39.656 119.158L34.8221 108.505C34.643 108.058 34.5535 107.61 34.643 107.252C34.7325 106.894 34.9116 106.626 35.1801 106.357C35.4487 106.178 35.8068 106.088 36.2543 106.088C36.7914 106.088 37.239 106.178 37.5076 106.446C37.7761 106.715 38.0447 107.073 38.2237 107.521L42.3415 117.01H41.1778L45.2956 107.521C45.4746 107.073 45.7432 106.715 46.0117 106.446C46.2803 106.178 46.7279 106.088 47.1754 106.088C47.623 106.088 47.8916 106.178 48.2496 106.357C48.5182 106.536 48.6972 106.894 48.7867 107.252C48.8763 107.61 48.7867 108.058 48.6077 108.505L43.7738 119.158C43.5948 119.606 43.3262 119.964 43.0576 120.143C42.7891 120.322 42.3415 120.501 41.8044 120.501H41.7149ZM52.2779 120.501C51.6513 120.501 51.2037 120.322 50.9352 120.053C50.5771 119.695 50.4876 119.247 50.4876 118.621V107.879C50.4876 107.252 50.6666 106.805 50.9352 106.446C51.2932 106.088 51.7408 105.999 52.2779 105.999C52.9045 105.999 53.3521 106.178 53.6207 106.446C53.8892 106.805 54.0683 107.252 54.0683 107.879V118.621C54.0683 119.247 53.8892 119.695 53.6207 120.053C53.3521 120.411 52.815 120.501 52.2779 120.501ZM58.6336 120.322C58.007 120.322 57.5594 120.143 57.2014 119.874C56.8433 119.516 56.7538 119.068 56.7538 118.442V108.147C56.7538 107.521 56.9328 107.073 57.2014 106.715C57.5594 106.357 58.007 106.267 58.6336 106.267H62.5724C64.9894 106.267 66.9587 106.894 68.3015 108.147C69.6443 109.401 70.2709 111.101 70.2709 113.339C70.2709 114.503 70.0918 115.488 69.7338 116.293C69.3757 117.189 68.9281 117.905 68.212 118.531C67.5854 119.158 66.7797 119.606 65.795 119.874C64.8103 120.143 63.7361 120.322 62.4829 120.322H58.5441H58.6336ZM60.424 117.368H62.3039C63.02 117.368 63.6466 117.278 64.0942 117.099C64.6313 116.92 65.0789 116.651 65.3474 116.293C65.7055 115.935 65.9741 115.577 66.0636 115.04C66.2426 114.503 66.3321 113.966 66.3321 113.25C66.3321 111.818 65.9741 110.833 65.3474 110.206C64.6313 109.58 63.6466 109.222 62.2143 109.222H60.3345V117.368H60.424ZM74.3887 120.322C73.7621 120.322 73.3145 120.143 72.9564 119.874C72.5983 119.516 72.5088 119.068 72.5088 118.442V108.147C72.5088 107.521 72.6878 107.073 72.9564 106.715C73.3145 106.357 73.7621 106.267 74.3887 106.267H81.192C81.6396 106.267 81.9976 106.357 82.2662 106.626C82.5347 106.894 82.6243 107.252 82.6243 107.7C82.6243 108.147 82.5347 108.505 82.2662 108.774C81.9976 109.042 81.6396 109.132 81.192 109.132H76V111.818H80.7444C81.192 111.818 81.5501 111.907 81.8186 112.176C82.0872 112.444 82.1767 112.802 82.1767 113.25C82.1767 113.697 82.0872 114.055 81.8186 114.324C81.5501 114.593 81.192 114.682 80.7444 114.682H76V117.547H81.192C81.6396 117.547 81.9976 117.636 82.2662 117.905C82.5347 118.173 82.6243 118.531 82.6243 118.979C82.6243 119.426 82.5347 119.785 82.2662 120.053C81.9976 120.322 81.6396 120.411 81.192 120.411H74.3887V120.322ZM91.576 120.501C90.1437 120.501 88.8905 120.232 87.8163 119.606C86.7421 118.979 85.9364 118.173 85.3098 117.01C84.6832 115.935 84.4146 114.682 84.4146 113.16C84.4146 112.086 84.5936 111.101 84.9517 110.206C85.3098 109.311 85.7574 108.505 86.384 107.879C87.0106 107.252 87.8163 106.715 88.6219 106.446C89.5171 106.088 90.5018 105.909 91.576 105.909C93.0083 105.909 94.2615 106.178 95.3357 106.805C96.4099 107.431 97.2156 108.237 97.8422 109.311C98.4688 110.385 98.7374 111.638 98.7374 113.16C98.7374 114.234 98.5583 115.219 98.2003 116.114C97.8422 117.01 97.3946 117.815 96.768 118.442C96.1414 119.068 95.3357 119.606 94.5301 119.964C93.6349 120.322 92.6502 120.501 91.576 120.501ZM91.576 117.457C92.2921 117.457 92.9187 117.278 93.3663 116.92C93.9034 116.562 94.2615 116.114 94.5301 115.488C94.7986 114.861 94.8881 114.145 94.8881 113.25C94.8881 111.907 94.6196 110.922 93.9929 110.206C93.3663 109.49 92.5607 109.132 91.4865 109.132C90.7703 109.132 90.2332 109.311 89.6961 109.58C89.159 109.938 88.8009 110.385 88.5324 111.012C88.2638 111.638 88.1743 112.355 88.1743 113.25C88.1743 114.593 88.4429 115.577 89.0695 116.383C89.6961 117.099 90.5018 117.457 91.576 117.457ZM106.167 120.501C105.63 120.501 105.093 120.501 104.466 120.411C103.929 120.322 103.303 120.232 102.855 120.053C102.318 119.874 101.87 119.695 101.423 119.516C101.065 119.337 100.796 119.068 100.707 118.8C100.528 118.531 100.528 118.173 100.528 117.905C100.528 117.547 100.707 117.278 100.886 117.01C101.065 116.741 101.333 116.562 101.602 116.472C101.87 116.383 102.229 116.472 102.676 116.562C103.213 116.83 103.75 117.01 104.377 117.099C105.004 117.189 105.63 117.278 106.167 117.278C107.062 117.278 107.689 117.189 108.047 116.92C108.405 116.651 108.584 116.383 108.584 116.025C108.584 115.756 108.495 115.488 108.226 115.309C107.958 115.13 107.51 114.951 106.883 114.861L104.556 114.324C103.303 114.055 102.318 113.608 101.691 112.892C101.065 112.265 100.707 111.37 100.707 110.296C100.707 109.58 100.886 108.953 101.154 108.416C101.423 107.879 101.87 107.342 102.408 106.984C102.945 106.626 103.571 106.267 104.287 106.088C105.004 105.909 105.809 105.73 106.704 105.73C107.421 105.73 108.137 105.82 108.853 105.999C109.569 106.178 110.196 106.357 110.733 106.715C111.001 106.894 111.27 107.073 111.359 107.342C111.449 107.61 111.538 107.879 111.538 108.237C111.538 108.505 111.449 108.774 111.27 109.042C111.091 109.311 110.822 109.401 110.554 109.49C110.285 109.58 109.927 109.49 109.479 109.311C109.121 109.132 108.674 109.042 108.137 108.953C107.689 108.863 107.152 108.863 106.704 108.863C106.167 108.863 105.809 108.953 105.451 109.042C105.093 109.132 104.825 109.311 104.645 109.49C104.466 109.669 104.377 109.938 104.377 110.206C104.377 110.475 104.466 110.743 104.735 110.922C105.004 111.101 105.362 111.28 105.988 111.37L108.316 111.907C109.569 112.176 110.554 112.623 111.18 113.25C111.807 113.876 112.165 114.682 112.165 115.756C112.165 116.472 111.986 117.099 111.717 117.636C111.449 118.173 111.001 118.71 110.554 119.068C110.017 119.426 109.39 119.785 108.674 119.964C107.958 120.143 107.152 120.322 106.167 120.322V120.501Z" fill="white"/>
<path fill-rule="evenodd" clip-rule="evenodd" d="M1.79024 43.874C-1.43238 51.3934 -0.0896228 59.9871 3.49107 65.8952L3.93865 66.4323L4.38624 67.238L4.83383 67.7751L6.08707 69.4759C6.71369 69.4759 6.53465 69.2969 6.53465 69.9235L8.23548 71.6243C8.95162 71.6243 8.77258 71.4453 8.77258 72.0719C11.7267 74.3993 12.8009 75.2945 17.0082 76.6373C22.7373 78.5171 23.9905 77.7115 28.0188 77.622C31.9575 94.6302 51.1142 96.0625 59.0813 85.0519L60.6926 82.814C62.1249 88.0955 69.0177 91.2286 74.2097 92.1237C76.2686 92.4818 77.3428 92.0342 79.1331 91.7657C81.3711 91.4076 81.013 91.6762 82.9824 92.8399C93.0083 98.9271 108.047 95.3464 114.582 84.6938C115.835 82.6349 117.626 79.2333 117.894 76.3687C123.534 77.7115 129.263 80.0389 137.051 75.2945C139.736 73.6832 141.527 71.9824 143.317 69.4759C144.57 67.7751 147.077 63.7468 146.45 60.7927C147.882 51.3039 143.407 43.6949 135.887 39.7562C132.396 37.8763 131.501 38.4134 128.01 37.3392C126.935 34.5642 127.204 26.6867 118.431 23.6431C109.211 20.4205 104.556 27.0447 102.229 28.2085C100.796 21.3156 94.2615 18.093 87.1897 18.0035C86.5631 16.0341 86.026 15.0494 84.8622 13.3486L81.9082 9.14129C80.0283 7.70901 78.417 5.73963 75.821 4.30736C73.4935 2.9646 71.0766 1.80087 67.9435 0.995219C51.5618 -3.30161 32.9422 7.35094 32.0471 29.3722C26.1389 29.1036 21.305 26.6867 12.4428 31.6996C4.47576 36.1755 2.86445 42.5312 1.6112 43.9635L1.79024 43.874Z" fill="white"/>
<path fill-rule="evenodd" clip-rule="evenodd" d="M84.5041 67.596C84.2355 65.5371 85.6678 65 87.4582 65C89.338 65 91.2179 64.821 91.4864 66.7904C92.0236 70.5501 85.8469 69.2969 85.8469 69.2969C85.2202 69.1178 84.6831 68.4017 84.5041 67.596ZM74.2096 67.596C74.1201 66.7009 74.3887 65.9847 74.9258 65.5371C75.5524 64.9105 76.179 65 77.1637 65C79.1331 65 80.8339 64.821 81.192 66.7904C81.55 68.9388 80.1178 69.3864 78.1484 69.3864C76.2685 69.3864 74.4782 69.4759 74.2096 67.596ZM42.6996 67.596C42.3415 65.3581 44.1318 65 45.6536 65C47.623 65 49.3238 64.821 49.5924 66.7904C49.7714 67.6856 49.4134 68.4017 48.8762 68.8493C48.2496 69.4759 47.623 69.3864 46.6383 69.3864C44.6689 69.3864 42.9681 69.5654 42.61 67.596H42.6996ZM63.5571 67.417C63.378 65.3581 64.8103 65 66.6902 65C68.6596 65 70.3604 64.9105 70.5394 66.9694C70.7185 69.2073 69.0176 69.4759 67.3168 69.3864C65.4369 69.3864 63.7361 69.3864 63.5571 67.417ZM60.2449 67.7751C59.7078 69.6549 58.186 69.3864 56.2167 69.3864C54.3368 69.3864 52.815 68.6702 53.4416 66.5218C53.8892 64.7315 55.59 65 57.5594 65C58.5441 65 59.1707 65 59.7078 65.6267C60.2449 66.1638 60.5135 66.9694 60.2449 67.7751ZM41.8939 31.7891H93.0082C93.3663 31.9682 93.1873 31.6996 93.2768 32.4158V47.3651C93.2768 49.6031 93.5453 62.046 93.1873 63.0307C90.0542 63.3887 42.0729 63.1202 41.7149 62.9411C41.4463 61.7774 41.5358 33.4005 41.6254 32.1472C41.7149 30.9835 41.6254 31.8787 41.8939 31.6101V31.7891ZM43.8633 25.9705C44.7585 25.4334 48.2496 25.6125 48.8762 26.2391C49.9505 27.2238 49.7714 29.3722 48.4287 29.9988C47.444 30.4464 44.1318 30.2674 43.4157 29.7303C42.0729 28.7456 42.431 26.6867 43.8633 25.9705ZM89.2485 25.702C90.8598 25.702 91.8445 27.2238 91.3074 28.8351C90.6808 30.3569 89.2485 30.1778 87.4582 30.1778C85.6678 30.1778 84.4146 29.8198 84.5041 27.8504C84.5936 25.4334 87.1001 25.7915 89.338 25.7915L89.2485 25.702ZM64.4522 29.8198L64.0047 29.4617C63.7361 28.7456 63.378 28.3875 63.5571 27.4028C63.7361 26.6867 64.1837 26.06 64.7208 25.881C65.7055 25.4334 69.0176 25.5229 69.7338 26.1496C70.808 27.0447 70.808 29.1036 69.3757 29.9093C68.3015 30.4464 65.4369 30.1778 64.4522 29.9093V29.8198ZM55.6796 30.0883C54.0682 30.0883 52.994 29.1036 53.3521 27.3133C53.7102 25.6125 55.232 25.702 57.0223 25.702C58.9022 25.702 60.1554 25.881 60.3344 27.6714C60.603 30.5359 57.6489 30.0883 55.6796 30.0883ZM75.3733 25.9705C76.358 25.5229 79.6702 25.5229 80.3863 26.2391C81.6395 27.3133 81.2815 29.4617 79.9387 29.9988C78.8645 30.4464 75.7314 30.3569 74.9258 29.7303C73.9411 28.9246 73.6725 26.8657 75.2838 26.06L75.3733 25.9705ZM36.9705 27.9399V65.1791C36.9705 71.8929 38.4027 71.7138 44.3109 71.7138H93.0082C95.5147 71.7138 96.947 71.3558 97.7527 69.3864C98.4688 67.7751 98.1107 58.3758 98.1107 55.8693V27.9399C98.1107 26.4181 97.6631 25.2544 96.8575 24.4487C95.7833 23.3745 94.7091 23.464 92.9187 23.464H40.9987C38.4027 23.464 36.9705 25.1649 36.9705 27.8504V27.9399Z" fill="#FF0066"/>
<path fill-rule="evenodd" clip-rule="evenodd" d="M60.8717 59.8976L70.271 53.2733C71.8823 52.1991 73.4041 51.0354 75.0154 49.8716C75.8211 49.3345 76.5372 48.7974 77.3429 48.1708C77.9695 47.7232 79.3123 46.9176 79.6703 46.2014C78.1485 45.6643 61.9459 35.3698 60.7822 35.0118V59.808L60.8717 59.8976ZM58.0967 59.9871H59.7975V35.1013L58.0967 35.0118V59.9871Z" fill="#FF0066"/>
<path d="M38.6715 80.6655C37.6868 80.6655 36.8811 79.8599 36.8811 78.8752C36.8811 77.8905 37.6868 77.0848 38.6715 77.0848H96.5891C97.5738 77.0848 98.3794 77.8905 98.3794 78.8752C98.3794 79.8599 97.5738 80.6655 96.5891 80.6655H38.6715Z" fill="#FF0066"/>
<path d="M38.6715 80.6655C37.6868 80.6655 36.8811 79.8599 36.8811 78.8752C36.8811 77.8905 37.6868 77.0848 38.6715 77.0848H76.9848C77.9695 77.0848 78.7752 77.8905 78.7752 78.8752C78.7752 79.8599 77.9695 80.6655 76.9848 80.6655H38.6715Z" fill="#FF0066"/>
<path fill-rule="evenodd" clip-rule="evenodd" d="M77.7009 74.8469C80.0283 74.8469 81.9977 76.7268 81.9977 79.1438C81.9977 81.4712 80.1178 83.4406 77.7009 83.4406C75.3734 83.4406 73.4041 81.5607 73.4041 79.1438C73.4041 76.8163 75.2839 74.8469 77.7009 74.8469Z" fill="#FF0066"/>
<defs>
<linearGradient id="paint0_linear_3289_536" x1="72.5982" y1="187.281" x2="72.5982" y2="39.0401" gradientUnits="userSpaceOnUse">
<stop stop-color="white"/>
<stop offset="1" stop-color="white" stop-opacity="0"/>
</linearGradient>
<linearGradient id="paint1_linear_3289_536" x1="72.5089" y1="190.414" x2="72.5089" y2="38.1449" gradientUnits="userSpaceOnUse">
<stop stop-color="white"/>
<stop offset="1" stop-color="white" stop-opacity="0"/>
</linearGradient>
</defs>
</svg>
